%TF.GenerationSoftware,KiCad,Pcbnew,(6.0.11)*%
%TF.CreationDate,2024-03-05T22:48:33-08:00*%
%TF.ProjectId,bez_controller1v5,62657a5f-636f-46e7-9472-6f6c6c657231,rev?*%
%TF.SameCoordinates,Original*%
%TF.FileFunction,Soldermask,Bot*%
%TF.FilePolarity,Negative*%
%FSLAX46Y46*%
G04 Gerber Fmt 4.6, Leading zero omitted, Abs format (unit mm)*
G04 Created by KiCad (PCBNEW (6.0.11)) date 2024-03-05 22:48:33*
%MOMM*%
%LPD*%
G01*
G04 APERTURE LIST*
G04 Aperture macros list*
%AMRoundRect*
0 Rectangle with rounded corners*
0 $1 Rounding radius*
0 $2 $3 $4 $5 $6 $7 $8 $9 X,Y pos of 4 corners*
0 Add a 4 corners polygon primitive as box body*
4,1,4,$2,$3,$4,$5,$6,$7,$8,$9,$2,$3,0*
0 Add four circle primitives for the rounded corners*
1,1,$1+$1,$2,$3*
1,1,$1+$1,$4,$5*
1,1,$1+$1,$6,$7*
1,1,$1+$1,$8,$9*
0 Add four rect primitives between the rounded corners*
20,1,$1+$1,$2,$3,$4,$5,0*
20,1,$1+$1,$4,$5,$6,$7,0*
20,1,$1+$1,$6,$7,$8,$9,0*
20,1,$1+$1,$8,$9,$2,$3,0*%
G04 Aperture macros list end*
%ADD10R,1.700000X1.700000*%
%ADD11O,1.700000X1.700000*%
%ADD12C,1.600000*%
%ADD13C,3.200000*%
%ADD14O,1.700000X1.850000*%
%ADD15RoundRect,0.250000X-0.600000X-0.675000X0.600000X-0.675000X0.600000X0.675000X-0.600000X0.675000X0*%
%ADD16C,1.400000*%
%ADD17O,1.400000X1.400000*%
%ADD18R,1.905000X2.000000*%
%ADD19O,1.905000X2.000000*%
%ADD20O,1.600000X1.600000*%
%ADD21O,1.700000X2.700000*%
%ADD22R,1.800000X1.800000*%
%ADD23C,1.800000*%
%ADD24C,1.500000*%
%ADD25R,0.900000X2.000000*%
%ADD26C,4.100000*%
%ADD27RoundRect,1.025000X-1.025000X-1.025000X1.025000X-1.025000X1.025000X1.025000X-1.025000X1.025000X0*%
%ADD28R,2.000000X1.905000*%
%ADD29O,2.000000X1.905000*%
%ADD30C,1.200000*%
G04 APERTURE END LIST*
D10*
%TO.C,J9*%
X24300000Y-42260000D03*
D11*
X24300000Y-44800000D03*
X24300000Y-47340000D03*
X24300000Y-49880000D03*
X24300000Y-52420000D03*
X24300000Y-54960000D03*
%TD*%
D12*
%TO.C,C5*%
X100000000Y-36800000D03*
X100000000Y-41800000D03*
%TD*%
D13*
%TO.C,H2*%
X115000000Y-76000000D03*
%TD*%
D12*
%TO.C,C13*%
X29250000Y-50750000D03*
X29250000Y-48750000D03*
%TD*%
D14*
%TO.C,J1*%
X110000000Y-68700000D03*
X107500000Y-68700000D03*
D15*
X105000000Y-68700000D03*
%TD*%
D12*
%TO.C,C16*%
X50100000Y-39750000D03*
X55100000Y-39750000D03*
%TD*%
%TO.C,C21*%
X61600000Y-58137500D03*
X56600000Y-58137500D03*
%TD*%
%TO.C,C25*%
X45200000Y-62937500D03*
X40200000Y-62937500D03*
%TD*%
%TO.C,C24*%
X40200000Y-59937500D03*
X45200000Y-59937500D03*
%TD*%
%TO.C,C9*%
X65250000Y-34500000D03*
X65250000Y-29500000D03*
%TD*%
%TO.C,C4*%
X100000000Y-44325000D03*
X100000000Y-49325000D03*
%TD*%
D13*
%TO.C,H1*%
X25000000Y-26000000D03*
%TD*%
D16*
%TO.C,R3*%
X90500000Y-56825000D03*
D17*
X95580000Y-56825000D03*
%TD*%
D14*
%TO.C,J4*%
X110000000Y-46380000D03*
X107500000Y-46380000D03*
D15*
X105000000Y-46380000D03*
%TD*%
D12*
%TO.C,C23*%
X57600000Y-43387500D03*
X52600000Y-43387500D03*
%TD*%
D18*
%TO.C,U7*%
X81540000Y-48305000D03*
D19*
X79000000Y-48305000D03*
X76460000Y-48305000D03*
%TD*%
D10*
%TO.C,J8*%
X70220000Y-64600000D03*
D11*
X67680000Y-64600000D03*
X65140000Y-64600000D03*
X62600000Y-64600000D03*
X60060000Y-64600000D03*
X57520000Y-64600000D03*
X54980000Y-64600000D03*
X52440000Y-64600000D03*
%TD*%
D10*
%TO.C,J7*%
X52000000Y-34500000D03*
D11*
X52000000Y-31960000D03*
X52000000Y-29420000D03*
%TD*%
D12*
%TO.C,FB2*%
X54790000Y-55137500D03*
D20*
X62410000Y-55137500D03*
%TD*%
D12*
%TO.C,FB1*%
X78200000Y-38800000D03*
D20*
X70580000Y-38800000D03*
%TD*%
D12*
%TO.C,C19*%
X49350000Y-55137500D03*
X44350000Y-55137500D03*
%TD*%
D16*
%TO.C,R5*%
X90500000Y-41325000D03*
D17*
X95580000Y-41325000D03*
%TD*%
D12*
%TO.C,C18*%
X33600000Y-52387500D03*
X33600000Y-47387500D03*
%TD*%
D14*
%TO.C,J2*%
X110000000Y-61260000D03*
X107500000Y-61260000D03*
D15*
X105000000Y-61260000D03*
%TD*%
D12*
%TO.C,C17*%
X37850000Y-39637500D03*
X37850000Y-34637500D03*
%TD*%
D14*
%TO.C,J3*%
X110000000Y-53820000D03*
X107500000Y-53820000D03*
D15*
X105000000Y-53820000D03*
%TD*%
D16*
%TO.C,R6*%
X90460000Y-34000000D03*
D17*
X95540000Y-34000000D03*
%TD*%
D21*
%TO.C,J12*%
X37550000Y-23300000D03*
X37550000Y-27800000D03*
X44850000Y-27800000D03*
X44850000Y-23300000D03*
%TD*%
D22*
%TO.C,D1*%
X70250000Y-57275000D03*
D23*
X70250000Y-54735000D03*
%TD*%
D12*
%TO.C,C22*%
X36970000Y-63637500D03*
X36970000Y-58637500D03*
%TD*%
D16*
%TO.C,R8*%
X28800000Y-65700000D03*
D17*
X28800000Y-60620000D03*
%TD*%
D16*
%TO.C,R9*%
X28210000Y-39000000D03*
D17*
X33290000Y-39000000D03*
%TD*%
D22*
%TO.C,D2*%
X30750000Y-31675000D03*
D23*
X30750000Y-34215000D03*
%TD*%
D14*
%TO.C,J6*%
X110000000Y-31500000D03*
X107500000Y-31500000D03*
D15*
X105000000Y-31500000D03*
%TD*%
D12*
%TO.C,C1*%
X100000000Y-67300000D03*
X100000000Y-72300000D03*
%TD*%
D10*
%TO.C,J11*%
X25600000Y-60760000D03*
D11*
X25600000Y-63300000D03*
X25600000Y-65840000D03*
%TD*%
D12*
%TO.C,C7*%
X82750000Y-54750000D03*
X80750000Y-54750000D03*
%TD*%
%TO.C,C6*%
X100000000Y-29325000D03*
X100000000Y-34325000D03*
%TD*%
%TO.C,C20*%
X49100000Y-58137500D03*
X54100000Y-58137500D03*
%TD*%
%TO.C,C3*%
X100000000Y-51825000D03*
X100000000Y-56825000D03*
%TD*%
D13*
%TO.C,H4*%
X115000000Y-26000000D03*
%TD*%
D24*
%TO.C,Y1*%
X40450000Y-67750000D03*
X45330000Y-67750000D03*
%TD*%
D12*
%TO.C,C11*%
X61000000Y-39750000D03*
X66000000Y-39750000D03*
%TD*%
D25*
%TO.C,J10*%
X72150000Y-24750000D03*
X85650000Y-24750000D03*
D26*
X75300000Y-30750000D03*
D27*
X82500000Y-30750000D03*
%TD*%
D16*
%TO.C,R4*%
X90500000Y-48825000D03*
D17*
X95580000Y-48825000D03*
%TD*%
D12*
%TO.C,C15*%
X51850000Y-47137500D03*
X51850000Y-52137500D03*
%TD*%
D13*
%TO.C,H3*%
X25000000Y-76000000D03*
%TD*%
D12*
%TO.C,C8*%
X76250000Y-43500000D03*
X78250000Y-43500000D03*
%TD*%
D16*
%TO.C,R7*%
X71960000Y-60500000D03*
D17*
X77040000Y-60500000D03*
%TD*%
D12*
%TO.C,C2*%
X100000000Y-59500000D03*
X100000000Y-64500000D03*
%TD*%
D28*
%TO.C,U8*%
X62000000Y-32540000D03*
D29*
X62000000Y-30000000D03*
X62000000Y-27460000D03*
%TD*%
D16*
%TO.C,R1*%
X90460000Y-71825000D03*
D17*
X95540000Y-71825000D03*
%TD*%
D30*
%TO.C,C10*%
X66000000Y-25250000D03*
X66000000Y-26750000D03*
%TD*%
D12*
%TO.C,C14*%
X39850000Y-55387500D03*
X34850000Y-55387500D03*
%TD*%
%TO.C,C12*%
X70000000Y-46250000D03*
X70000000Y-44250000D03*
%TD*%
D16*
%TO.C,R2*%
X90460000Y-64325000D03*
D17*
X95540000Y-64325000D03*
%TD*%
D14*
%TO.C,J5*%
X110000000Y-38940000D03*
X107500000Y-38940000D03*
D15*
X105000000Y-38940000D03*
%TD*%
M02*
