G04 #@! TF.GenerationSoftware,KiCad,Pcbnew,7.0.8*
G04 #@! TF.CreationDate,2024-06-09T13:28:57-04:00*
G04 #@! TF.ProjectId,bez_controller1v5,62657a5f-636f-46e7-9472-6f6c6c657231,rev?*
G04 #@! TF.SameCoordinates,Original*
G04 #@! TF.FileFunction,Copper,L2,Inr*
G04 #@! TF.FilePolarity,Positive*
%FSLAX46Y46*%
G04 Gerber Fmt 4.6, Leading zero omitted, Abs format (unit mm)*
G04 Created by KiCad (PCBNEW 7.0.8) date 2024-06-09 13:28:57*
%MOMM*%
%LPD*%
G01*
G04 APERTURE LIST*
G04 Aperture macros list*
%AMRoundRect*
0 Rectangle with rounded corners*
0 $1 Rounding radius*
0 $2 $3 $4 $5 $6 $7 $8 $9 X,Y pos of 4 corners*
0 Add a 4 corners polygon primitive as box body*
4,1,4,$2,$3,$4,$5,$6,$7,$8,$9,$2,$3,0*
0 Add four circle primitives for the rounded corners*
1,1,$1+$1,$2,$3*
1,1,$1+$1,$4,$5*
1,1,$1+$1,$6,$7*
1,1,$1+$1,$8,$9*
0 Add four rect primitives between the rounded corners*
20,1,$1+$1,$2,$3,$4,$5,0*
20,1,$1+$1,$4,$5,$6,$7,0*
20,1,$1+$1,$6,$7,$8,$9,0*
20,1,$1+$1,$8,$9,$2,$3,0*%
G04 Aperture macros list end*
G04 #@! TA.AperFunction,ComponentPad*
%ADD10R,1.700000X1.700000*%
G04 #@! TD*
G04 #@! TA.AperFunction,ComponentPad*
%ADD11O,1.700000X1.700000*%
G04 #@! TD*
G04 #@! TA.AperFunction,ComponentPad*
%ADD12R,1.000000X1.000000*%
G04 #@! TD*
G04 #@! TA.AperFunction,ComponentPad*
%ADD13O,1.000000X1.000000*%
G04 #@! TD*
G04 #@! TA.AperFunction,ComponentPad*
%ADD14R,1.600000X1.600000*%
G04 #@! TD*
G04 #@! TA.AperFunction,ComponentPad*
%ADD15C,1.600000*%
G04 #@! TD*
G04 #@! TA.AperFunction,ComponentPad*
%ADD16R,0.900000X2.000000*%
G04 #@! TD*
G04 #@! TA.AperFunction,ComponentPad*
%ADD17C,4.100000*%
G04 #@! TD*
G04 #@! TA.AperFunction,ComponentPad*
%ADD18RoundRect,1.025000X-1.025000X-1.025000X1.025000X-1.025000X1.025000X1.025000X-1.025000X1.025000X0*%
G04 #@! TD*
G04 #@! TA.AperFunction,ComponentPad*
%ADD19R,2.000000X1.905000*%
G04 #@! TD*
G04 #@! TA.AperFunction,ComponentPad*
%ADD20O,2.000000X1.905000*%
G04 #@! TD*
G04 #@! TA.AperFunction,ComponentPad*
%ADD21O,1.700000X1.850000*%
G04 #@! TD*
G04 #@! TA.AperFunction,ComponentPad*
%ADD22RoundRect,0.250000X-0.600000X-0.675000X0.600000X-0.675000X0.600000X0.675000X-0.600000X0.675000X0*%
G04 #@! TD*
G04 #@! TA.AperFunction,ComponentPad*
%ADD23O,1.700000X2.700000*%
G04 #@! TD*
G04 #@! TA.AperFunction,ComponentPad*
%ADD24C,1.500000*%
G04 #@! TD*
G04 #@! TA.AperFunction,ViaPad*
%ADD25C,0.800000*%
G04 #@! TD*
G04 #@! TA.AperFunction,ViaPad*
%ADD26C,0.700000*%
G04 #@! TD*
G04 #@! TA.AperFunction,Conductor*
%ADD27C,0.250000*%
G04 #@! TD*
G04 APERTURE END LIST*
D10*
X96290000Y-68600000D03*
D11*
X93750000Y-68600000D03*
X91210000Y-68600000D03*
X88670000Y-68600000D03*
X86130000Y-68600000D03*
X83590000Y-68600000D03*
X81050000Y-68600000D03*
X78510000Y-68600000D03*
D12*
X80000000Y-82280000D03*
D13*
X81270000Y-82280000D03*
X82540000Y-82280000D03*
X83810000Y-82280000D03*
X85080000Y-82280000D03*
X86350000Y-82280000D03*
X87620000Y-82280000D03*
D14*
X74000000Y-48000000D03*
D15*
X72000000Y-48000000D03*
D10*
X53187600Y-43129200D03*
D11*
X55727600Y-43129200D03*
X58267600Y-43129200D03*
D16*
X84150000Y-28250000D03*
X97650000Y-28250000D03*
D17*
X87300000Y-34250000D03*
D18*
X94500000Y-34250000D03*
D19*
X81584800Y-54203600D03*
D20*
X81584800Y-51663600D03*
X81584800Y-49123600D03*
D19*
X88341200Y-48768000D03*
D20*
X88341200Y-51308000D03*
X88341200Y-53848000D03*
D21*
X121840000Y-74860000D03*
X119340000Y-74860000D03*
D22*
X116840000Y-74860000D03*
X116840000Y-54010000D03*
D21*
X119340000Y-54010000D03*
X121840000Y-54010000D03*
D12*
X80000000Y-64500000D03*
D13*
X81270000Y-64500000D03*
X82540000Y-64500000D03*
X83810000Y-64500000D03*
X85080000Y-64500000D03*
X86350000Y-64500000D03*
X87620000Y-64500000D03*
X88890000Y-64500000D03*
X90160000Y-64500000D03*
D22*
X116840000Y-60960000D03*
D21*
X119340000Y-60960000D03*
X121840000Y-60960000D03*
X121840000Y-40110000D03*
X119340000Y-40110000D03*
D22*
X116840000Y-40110000D03*
D10*
X35850000Y-63150000D03*
D11*
X35850000Y-65690000D03*
X35850000Y-68230000D03*
D10*
X55660000Y-68000000D03*
D11*
X58200000Y-68000000D03*
X60740000Y-68000000D03*
X63280000Y-68000000D03*
X65820000Y-68000000D03*
X68360000Y-68000000D03*
D23*
X48250000Y-32750000D03*
X48250000Y-28250000D03*
X40950000Y-32750000D03*
X40950000Y-28250000D03*
D21*
X121840000Y-67910000D03*
X119340000Y-67910000D03*
D22*
X116840000Y-67910000D03*
D24*
X43574800Y-69392800D03*
X48454800Y-69392800D03*
D10*
X53970000Y-77925000D03*
D11*
X51430000Y-77925000D03*
X48890000Y-77925000D03*
X46350000Y-77925000D03*
X43810000Y-77925000D03*
X41270000Y-77925000D03*
D21*
X121840000Y-47060000D03*
X119340000Y-47060000D03*
D22*
X116840000Y-47060000D03*
D25*
X113000000Y-64250000D03*
X113000000Y-71500000D03*
X100750000Y-30000000D03*
X105500000Y-52600000D03*
X84400000Y-41600000D03*
X35875000Y-39937500D03*
X61350000Y-63150000D03*
X39750000Y-56825000D03*
D26*
X106000000Y-46600000D03*
D25*
X50150000Y-66125000D03*
X113000000Y-37250000D03*
X106100000Y-39100000D03*
X40050000Y-62625000D03*
X53675000Y-45950000D03*
D26*
X105900000Y-59900000D03*
D25*
X56975000Y-51350000D03*
X56200000Y-59600000D03*
X112800000Y-31800000D03*
X62600000Y-54000000D03*
X50600000Y-63400000D03*
X67475000Y-48650000D03*
X42975000Y-39500000D03*
X113000000Y-57500000D03*
D26*
X106200000Y-75900000D03*
D25*
X42950000Y-66125000D03*
X112750000Y-50750000D03*
X113000000Y-44250000D03*
D26*
X105833200Y-67450000D03*
D25*
X43600000Y-44350000D03*
X110500000Y-33500000D03*
X115500000Y-33500000D03*
X104000000Y-33500000D03*
X114750000Y-36000000D03*
X112000000Y-35750000D03*
X112500000Y-33500000D03*
X119850000Y-35700000D03*
X119750000Y-33750000D03*
X104000000Y-35500000D03*
X117750000Y-33500000D03*
X107750000Y-33500000D03*
X109500000Y-36250000D03*
X107250000Y-36250000D03*
X105250000Y-36750000D03*
X69200000Y-54000000D03*
X60125000Y-41025000D03*
X65025000Y-39050000D03*
X73275000Y-53025000D03*
X102360000Y-78360000D03*
X108300000Y-74200000D03*
X107700000Y-70200000D03*
X108000000Y-57000000D03*
D26*
X108262500Y-58437500D03*
D25*
X104200000Y-62000000D03*
X104590899Y-48700000D03*
D26*
X104100000Y-54700000D03*
D25*
X98000000Y-47900000D03*
X104850000Y-69000000D03*
X108250000Y-50250000D03*
X84850000Y-46950000D03*
X75200000Y-78300000D03*
X50600000Y-57800000D03*
X66925000Y-43050000D03*
X72450000Y-73450000D03*
X78200000Y-35200000D03*
X57700000Y-49100000D03*
X39125000Y-60675000D03*
X58250000Y-61825000D03*
X57800000Y-54000000D03*
X42737701Y-57437701D03*
X41300000Y-43825000D03*
X62375000Y-48175000D03*
X101800000Y-27500000D03*
X43600000Y-51300000D03*
X53200000Y-72504900D03*
X44297600Y-50241200D03*
X55600000Y-73300000D03*
X44754800Y-55880000D03*
X59900000Y-73000000D03*
X98925000Y-40875000D03*
X47244000Y-50241200D03*
X46431200Y-51104800D03*
D26*
X101500000Y-39000000D03*
X99500000Y-39500000D03*
D25*
X46786800Y-46177200D03*
D26*
X98750000Y-48750000D03*
D25*
X67500000Y-56175000D03*
D26*
X101500000Y-46500000D03*
D25*
X89375000Y-59850000D03*
D26*
X100500000Y-47250000D03*
D25*
X97250000Y-56500000D03*
X55612670Y-52891714D03*
D26*
X97600000Y-54700000D03*
X93900000Y-59550500D03*
D25*
X49834800Y-55473600D03*
X50596800Y-56438800D03*
D26*
X104800000Y-59800000D03*
X100600000Y-61100000D03*
D25*
X63300000Y-61300000D03*
D26*
X101500000Y-68000000D03*
D25*
X43891200Y-56489600D03*
X44004200Y-52995800D03*
D26*
X101750000Y-66025000D03*
X101725000Y-67000000D03*
D25*
X43942000Y-54000400D03*
X36300000Y-59600000D03*
X97575000Y-77825000D03*
X101000000Y-75500000D03*
X47345600Y-44450000D03*
D26*
X99500000Y-76250000D03*
D25*
X46126400Y-44348400D03*
X46400000Y-53000000D03*
X80200000Y-44400000D03*
X100600000Y-37600000D03*
X48200000Y-53200000D03*
X109200000Y-31600000D03*
X92800000Y-45200000D03*
X43500000Y-74100000D03*
X42050000Y-74125000D03*
X40325000Y-74150000D03*
D27*
X101142800Y-51308000D02*
X101193600Y-51257200D01*
X101193600Y-51308000D02*
X101142800Y-51308000D01*
X101193600Y-51257200D02*
X101193600Y-51308000D01*
X101295200Y-51155600D02*
X101193600Y-51257200D01*
G04 #@! TA.AperFunction,Conductor*
G36*
X99592371Y-47019685D02*
G01*
X99638126Y-47072489D01*
X99648652Y-47136958D01*
X99637665Y-47241499D01*
X99636771Y-47250000D01*
X99655635Y-47429476D01*
X99665065Y-47458500D01*
X99711401Y-47601107D01*
X99801633Y-47757393D01*
X99843696Y-47804108D01*
X99922381Y-47891499D01*
X99922384Y-47891501D01*
X99922387Y-47891504D01*
X99974025Y-47929021D01*
X100068385Y-47997578D01*
X100233242Y-48070978D01*
X100233248Y-48070980D01*
X100409768Y-48108500D01*
X100409769Y-48108500D01*
X100590231Y-48108500D01*
X100590232Y-48108500D01*
X100766752Y-48070980D01*
X100766754Y-48070978D01*
X100766757Y-48070978D01*
X100822288Y-48046253D01*
X100931615Y-47997578D01*
X101077613Y-47891504D01*
X101198367Y-47757393D01*
X101288599Y-47601107D01*
X101339586Y-47444182D01*
X101379023Y-47386507D01*
X101443381Y-47359308D01*
X101457517Y-47358500D01*
X101590231Y-47358500D01*
X101590232Y-47358500D01*
X101766752Y-47320980D01*
X101766754Y-47320978D01*
X101766757Y-47320978D01*
X101822288Y-47296253D01*
X101931615Y-47247578D01*
X102077613Y-47141504D01*
X102108329Y-47107391D01*
X102168082Y-47041028D01*
X102227568Y-47004379D01*
X102260232Y-47000000D01*
X105168038Y-47000000D01*
X105235077Y-47019685D01*
X105275425Y-47062000D01*
X105301633Y-47107393D01*
X105328257Y-47136962D01*
X105422381Y-47241499D01*
X105422384Y-47241501D01*
X105422387Y-47241504D01*
X105531776Y-47320980D01*
X105568385Y-47347578D01*
X105733242Y-47420978D01*
X105733248Y-47420980D01*
X105909768Y-47458500D01*
X105909769Y-47458500D01*
X106090231Y-47458500D01*
X106090232Y-47458500D01*
X106266752Y-47420980D01*
X106266754Y-47420978D01*
X106266757Y-47420978D01*
X106344179Y-47386507D01*
X106431615Y-47347578D01*
X106577613Y-47241504D01*
X106698367Y-47107393D01*
X106724575Y-47062000D01*
X106775142Y-47013784D01*
X106831962Y-47000000D01*
X108876000Y-47000000D01*
X108943039Y-47019685D01*
X108988794Y-47072489D01*
X109000000Y-47124000D01*
X109000000Y-81876000D01*
X108980315Y-81943039D01*
X108927511Y-81988794D01*
X108876000Y-82000000D01*
X97124000Y-82000000D01*
X97056961Y-81980315D01*
X97011206Y-81927511D01*
X97000000Y-81876000D01*
X97000000Y-78754413D01*
X97019685Y-78687374D01*
X97072489Y-78641619D01*
X97141647Y-78631675D01*
X97174427Y-78641130D01*
X97292712Y-78693794D01*
X97292715Y-78693794D01*
X97292716Y-78693795D01*
X97479513Y-78733500D01*
X97670487Y-78733500D01*
X97857288Y-78693794D01*
X98031752Y-78616118D01*
X98186253Y-78503866D01*
X98314040Y-78361944D01*
X98409527Y-78196556D01*
X98468542Y-78014928D01*
X98488504Y-77825000D01*
X98468542Y-77635072D01*
X98409527Y-77453444D01*
X98314040Y-77288056D01*
X98186253Y-77146134D01*
X98031752Y-77033882D01*
X97857288Y-76956206D01*
X97857286Y-76956205D01*
X97670487Y-76916500D01*
X97479513Y-76916500D01*
X97292713Y-76956205D01*
X97292710Y-76956206D01*
X97174434Y-77008865D01*
X97105184Y-77018149D01*
X97041908Y-76988520D01*
X97004695Y-76929384D01*
X97000000Y-76895585D01*
X97000000Y-76250000D01*
X98636771Y-76250000D01*
X98655635Y-76429475D01*
X98711401Y-76601107D01*
X98801633Y-76757393D01*
X98843696Y-76804108D01*
X98922381Y-76891499D01*
X98922384Y-76891501D01*
X98922387Y-76891504D01*
X99055918Y-76988520D01*
X99068385Y-76997578D01*
X99233242Y-77070978D01*
X99233248Y-77070980D01*
X99409768Y-77108500D01*
X99409769Y-77108500D01*
X99590231Y-77108500D01*
X99590232Y-77108500D01*
X99766752Y-77070980D01*
X99766754Y-77070978D01*
X99766757Y-77070978D01*
X99850075Y-77033882D01*
X99931615Y-76997578D01*
X100077613Y-76891504D01*
X100198367Y-76757393D01*
X100288599Y-76601107D01*
X100344365Y-76429475D01*
X100349535Y-76380282D01*
X100376118Y-76315671D01*
X100433415Y-76275686D01*
X100503234Y-76273026D01*
X100537042Y-76288857D01*
X100537615Y-76287866D01*
X100543243Y-76291115D01*
X100543245Y-76291116D01*
X100543248Y-76291118D01*
X100717712Y-76368794D01*
X100904513Y-76408500D01*
X101095487Y-76408500D01*
X101282288Y-76368794D01*
X101456752Y-76291118D01*
X101611253Y-76178866D01*
X101739040Y-76036944D01*
X101818105Y-75900000D01*
X105336771Y-75900000D01*
X105355635Y-76079476D01*
X105387928Y-76178866D01*
X105411401Y-76251107D01*
X105501633Y-76407393D01*
X105521516Y-76429475D01*
X105622381Y-76541499D01*
X105622384Y-76541501D01*
X105622387Y-76541504D01*
X105768385Y-76647578D01*
X105933242Y-76720978D01*
X105933248Y-76720980D01*
X106109768Y-76758500D01*
X106109769Y-76758500D01*
X106290231Y-76758500D01*
X106290232Y-76758500D01*
X106466752Y-76720980D01*
X106466754Y-76720978D01*
X106466757Y-76720978D01*
X106522288Y-76696253D01*
X106631615Y-76647578D01*
X106777613Y-76541504D01*
X106898367Y-76407393D01*
X106988599Y-76251107D01*
X107044365Y-76079475D01*
X107063229Y-75900000D01*
X107044365Y-75720525D01*
X106988599Y-75548893D01*
X106898367Y-75392607D01*
X106851071Y-75340079D01*
X106777618Y-75258500D01*
X106777615Y-75258498D01*
X106777614Y-75258497D01*
X106777613Y-75258496D01*
X106631615Y-75152422D01*
X106631614Y-75152421D01*
X106466757Y-75079021D01*
X106466751Y-75079019D01*
X106327751Y-75049474D01*
X106290232Y-75041500D01*
X106109768Y-75041500D01*
X106078825Y-75048076D01*
X105933248Y-75079019D01*
X105933242Y-75079021D01*
X105768386Y-75152421D01*
X105768381Y-75152424D01*
X105622388Y-75258494D01*
X105622381Y-75258500D01*
X105501632Y-75392608D01*
X105411400Y-75548894D01*
X105355635Y-75720523D01*
X105336771Y-75900000D01*
X101818105Y-75900000D01*
X101834527Y-75871556D01*
X101893542Y-75689928D01*
X101913504Y-75500000D01*
X101893542Y-75310072D01*
X101834527Y-75128444D01*
X101739040Y-74963056D01*
X101611253Y-74821134D01*
X101456752Y-74708882D01*
X101282288Y-74631206D01*
X101282286Y-74631205D01*
X101095487Y-74591500D01*
X100904513Y-74591500D01*
X100717714Y-74631205D01*
X100543246Y-74708883D01*
X100388745Y-74821135D01*
X100260959Y-74963057D01*
X100165473Y-75128443D01*
X100165470Y-75128450D01*
X100106459Y-75310068D01*
X100106458Y-75310072D01*
X100097900Y-75391500D01*
X100097169Y-75398453D01*
X100070584Y-75463068D01*
X100013286Y-75503052D01*
X99943467Y-75505712D01*
X99923414Y-75498770D01*
X99899213Y-75487995D01*
X99766757Y-75429021D01*
X99766751Y-75429019D01*
X99622944Y-75398453D01*
X99590232Y-75391500D01*
X99409768Y-75391500D01*
X99378825Y-75398076D01*
X99233248Y-75429019D01*
X99233242Y-75429021D01*
X99068386Y-75502421D01*
X99068381Y-75502424D01*
X98922388Y-75608494D01*
X98922381Y-75608500D01*
X98801632Y-75742608D01*
X98711400Y-75898894D01*
X98655635Y-76070523D01*
X98655635Y-76070525D01*
X98636771Y-76250000D01*
X97000000Y-76250000D01*
X97000000Y-70082500D01*
X97019685Y-70015461D01*
X97072489Y-69969706D01*
X97124000Y-69958500D01*
X97188638Y-69958500D01*
X97188654Y-69958499D01*
X97215692Y-69955591D01*
X97249201Y-69951989D01*
X97386204Y-69900889D01*
X97503261Y-69813261D01*
X97590889Y-69696204D01*
X97641989Y-69559201D01*
X97645591Y-69525692D01*
X97648499Y-69498654D01*
X97648500Y-69498637D01*
X97648500Y-68000000D01*
X100636771Y-68000000D01*
X100655635Y-68179476D01*
X100685365Y-68270978D01*
X100711401Y-68351107D01*
X100801633Y-68507393D01*
X100843696Y-68554108D01*
X100922381Y-68641499D01*
X100922384Y-68641501D01*
X100922387Y-68641504D01*
X101068385Y-68747578D01*
X101233242Y-68820978D01*
X101233248Y-68820980D01*
X101409768Y-68858500D01*
X101409769Y-68858500D01*
X101590231Y-68858500D01*
X101590232Y-68858500D01*
X101766752Y-68820980D01*
X101766754Y-68820978D01*
X101766757Y-68820978D01*
X101822288Y-68796253D01*
X101931615Y-68747578D01*
X102077613Y-68641504D01*
X102198367Y-68507393D01*
X102288599Y-68351107D01*
X102344365Y-68179475D01*
X102363229Y-68000000D01*
X102344365Y-67820525D01*
X102312672Y-67722985D01*
X102310678Y-67653146D01*
X102338453Y-67601699D01*
X102423367Y-67507393D01*
X102456503Y-67450000D01*
X104969971Y-67450000D01*
X104988835Y-67629476D01*
X105019218Y-67722987D01*
X105044601Y-67801107D01*
X105134833Y-67957393D01*
X105176896Y-68004108D01*
X105255581Y-68091499D01*
X105255584Y-68091501D01*
X105255587Y-68091504D01*
X105376670Y-68179476D01*
X105401585Y-68197578D01*
X105566442Y-68270978D01*
X105566448Y-68270980D01*
X105742968Y-68308500D01*
X105742969Y-68308500D01*
X105923431Y-68308500D01*
X105923432Y-68308500D01*
X106099952Y-68270980D01*
X106099954Y-68270978D01*
X106099957Y-68270978D01*
X106155488Y-68246253D01*
X106264815Y-68197578D01*
X106410813Y-68091504D01*
X106531567Y-67957393D01*
X106621799Y-67801107D01*
X106677565Y-67629475D01*
X106696429Y-67450000D01*
X106677565Y-67270525D01*
X106621799Y-67098893D01*
X106531567Y-66942607D01*
X106484271Y-66890079D01*
X106410818Y-66808500D01*
X106410815Y-66808498D01*
X106410814Y-66808497D01*
X106410813Y-66808496D01*
X106264815Y-66702422D01*
X106264814Y-66702421D01*
X106099957Y-66629021D01*
X106099951Y-66629019D01*
X105960951Y-66599474D01*
X105923432Y-66591500D01*
X105742968Y-66591500D01*
X105712025Y-66598076D01*
X105566448Y-66629019D01*
X105566442Y-66629021D01*
X105401586Y-66702421D01*
X105401581Y-66702424D01*
X105255588Y-66808494D01*
X105255581Y-66808500D01*
X105134832Y-66942608D01*
X105044600Y-67098894D01*
X104988835Y-67270523D01*
X104969971Y-67450000D01*
X102456503Y-67450000D01*
X102513599Y-67351107D01*
X102569365Y-67179475D01*
X102588229Y-67000000D01*
X102569365Y-66820525D01*
X102513599Y-66648893D01*
X102483146Y-66596147D01*
X102466674Y-66528251D01*
X102483144Y-66472155D01*
X102538599Y-66376107D01*
X102594365Y-66204475D01*
X102613229Y-66025000D01*
X102594365Y-65845525D01*
X102538599Y-65673893D01*
X102448367Y-65517607D01*
X102401071Y-65465079D01*
X102327618Y-65383500D01*
X102327615Y-65383498D01*
X102327614Y-65383497D01*
X102327613Y-65383496D01*
X102181615Y-65277422D01*
X102181614Y-65277421D01*
X102016757Y-65204021D01*
X102016751Y-65204019D01*
X101877751Y-65174474D01*
X101840232Y-65166500D01*
X101659768Y-65166500D01*
X101628825Y-65173076D01*
X101483248Y-65204019D01*
X101483242Y-65204021D01*
X101318386Y-65277421D01*
X101318381Y-65277424D01*
X101172388Y-65383494D01*
X101172381Y-65383500D01*
X101051632Y-65517608D01*
X100961400Y-65673894D01*
X100905635Y-65845523D01*
X100905635Y-65845525D01*
X100886771Y-66025000D01*
X100905635Y-66204475D01*
X100961401Y-66376107D01*
X100986035Y-66418775D01*
X100991852Y-66428850D01*
X101008323Y-66496751D01*
X100991852Y-66552848D01*
X100936400Y-66648895D01*
X100880635Y-66820523D01*
X100861771Y-66999999D01*
X100880635Y-67179475D01*
X100880637Y-67179481D01*
X100912326Y-67277013D01*
X100914321Y-67346854D01*
X100886545Y-67398302D01*
X100801632Y-67492608D01*
X100711400Y-67648894D01*
X100655635Y-67820523D01*
X100636771Y-68000000D01*
X97648500Y-68000000D01*
X97648500Y-67701362D01*
X97648499Y-67701345D01*
X97642859Y-67648893D01*
X97641989Y-67640799D01*
X97637765Y-67629475D01*
X97619522Y-67580564D01*
X97590889Y-67503796D01*
X97503261Y-67386739D01*
X97386204Y-67299111D01*
X97326958Y-67277013D01*
X97249203Y-67248011D01*
X97188654Y-67241500D01*
X97188638Y-67241500D01*
X97124000Y-67241500D01*
X97056961Y-67221815D01*
X97011206Y-67169011D01*
X97000000Y-67117500D01*
X97000000Y-61100000D01*
X99736771Y-61100000D01*
X99755635Y-61279475D01*
X99811401Y-61451107D01*
X99901633Y-61607393D01*
X99943696Y-61654108D01*
X100022381Y-61741499D01*
X100022384Y-61741501D01*
X100022387Y-61741504D01*
X100168385Y-61847578D01*
X100333242Y-61920978D01*
X100333248Y-61920980D01*
X100509768Y-61958500D01*
X100509769Y-61958500D01*
X100690231Y-61958500D01*
X100690232Y-61958500D01*
X100866752Y-61920980D01*
X100866754Y-61920978D01*
X100866757Y-61920978D01*
X100922288Y-61896253D01*
X101031615Y-61847578D01*
X101177613Y-61741504D01*
X101298367Y-61607393D01*
X101388599Y-61451107D01*
X101444365Y-61279475D01*
X101463229Y-61100000D01*
X101444365Y-60920525D01*
X101388599Y-60748893D01*
X101298367Y-60592607D01*
X101219762Y-60505307D01*
X101177618Y-60458500D01*
X101177615Y-60458498D01*
X101177614Y-60458497D01*
X101177613Y-60458496D01*
X101031615Y-60352422D01*
X101031614Y-60352421D01*
X100866757Y-60279021D01*
X100866751Y-60279019D01*
X100727751Y-60249474D01*
X100690232Y-60241500D01*
X100509768Y-60241500D01*
X100478825Y-60248076D01*
X100333248Y-60279019D01*
X100333242Y-60279021D01*
X100168386Y-60352421D01*
X100168381Y-60352424D01*
X100022388Y-60458494D01*
X100022381Y-60458500D01*
X99901632Y-60592608D01*
X99811400Y-60748894D01*
X99755635Y-60920523D01*
X99755635Y-60920525D01*
X99736771Y-61100000D01*
X97000000Y-61100000D01*
X97000000Y-59800000D01*
X103936771Y-59800000D01*
X103955635Y-59979476D01*
X103988126Y-60079475D01*
X104011401Y-60151107D01*
X104101633Y-60307393D01*
X104142176Y-60352421D01*
X104222381Y-60441499D01*
X104222384Y-60441501D01*
X104222387Y-60441504D01*
X104358015Y-60540044D01*
X104368385Y-60547578D01*
X104533242Y-60620978D01*
X104533248Y-60620980D01*
X104709768Y-60658500D01*
X104709769Y-60658500D01*
X104890231Y-60658500D01*
X104890232Y-60658500D01*
X105066752Y-60620980D01*
X105227681Y-60549329D01*
X105296926Y-60540044D01*
X105350996Y-60562289D01*
X105431775Y-60620979D01*
X105468385Y-60647578D01*
X105633242Y-60720978D01*
X105633248Y-60720980D01*
X105809768Y-60758500D01*
X105809769Y-60758500D01*
X105990231Y-60758500D01*
X105990232Y-60758500D01*
X106166752Y-60720980D01*
X106166754Y-60720978D01*
X106166757Y-60720978D01*
X106222288Y-60696253D01*
X106331615Y-60647578D01*
X106477613Y-60541504D01*
X106598367Y-60407393D01*
X106688599Y-60251107D01*
X106744365Y-60079475D01*
X106763229Y-59900000D01*
X106744365Y-59720525D01*
X106688599Y-59548893D01*
X106598367Y-59392607D01*
X106508327Y-59292607D01*
X106477618Y-59258500D01*
X106477615Y-59258498D01*
X106477614Y-59258497D01*
X106477613Y-59258496D01*
X106339975Y-59158496D01*
X106331614Y-59152421D01*
X106166757Y-59079021D01*
X106166751Y-59079019D01*
X106027751Y-59049474D01*
X105990232Y-59041500D01*
X105809768Y-59041500D01*
X105778825Y-59048076D01*
X105633248Y-59079019D01*
X105633246Y-59079020D01*
X105472320Y-59150669D01*
X105403070Y-59159953D01*
X105348999Y-59137707D01*
X105231614Y-59052421D01*
X105066757Y-58979021D01*
X105066751Y-58979019D01*
X104927751Y-58949474D01*
X104890232Y-58941500D01*
X104709768Y-58941500D01*
X104678825Y-58948076D01*
X104533248Y-58979019D01*
X104533242Y-58979021D01*
X104368386Y-59052421D01*
X104368381Y-59052424D01*
X104222388Y-59158494D01*
X104222381Y-59158500D01*
X104101632Y-59292608D01*
X104011400Y-59448894D01*
X103955635Y-59620523D01*
X103936771Y-59800000D01*
X97000000Y-59800000D01*
X97000000Y-57528784D01*
X97019685Y-57461745D01*
X97072489Y-57415990D01*
X97141647Y-57406046D01*
X97149765Y-57407490D01*
X97154513Y-57408500D01*
X97154516Y-57408500D01*
X97345487Y-57408500D01*
X97532288Y-57368794D01*
X97706752Y-57291118D01*
X97861253Y-57178866D01*
X97989040Y-57036944D01*
X98084527Y-56871556D01*
X98143542Y-56689928D01*
X98163504Y-56500000D01*
X98143542Y-56310072D01*
X98084527Y-56128444D01*
X97989040Y-55963056D01*
X97861253Y-55821134D01*
X97861251Y-55821132D01*
X97768196Y-55753524D01*
X97725530Y-55698194D01*
X97719551Y-55628581D01*
X97752157Y-55566786D01*
X97812995Y-55532429D01*
X97815194Y-55531938D01*
X97866752Y-55520980D01*
X98031615Y-55447578D01*
X98177613Y-55341504D01*
X98298367Y-55207393D01*
X98388599Y-55051107D01*
X98444365Y-54879475D01*
X98463229Y-54700000D01*
X98444365Y-54520525D01*
X98388599Y-54348893D01*
X98298367Y-54192607D01*
X98251071Y-54140079D01*
X98177618Y-54058500D01*
X98177615Y-54058498D01*
X98177614Y-54058497D01*
X98177613Y-54058496D01*
X98031615Y-53952422D01*
X98031614Y-53952421D01*
X97866757Y-53879021D01*
X97866751Y-53879019D01*
X97727751Y-53849474D01*
X97690232Y-53841500D01*
X97509768Y-53841500D01*
X97478825Y-53848076D01*
X97333248Y-53879019D01*
X97333242Y-53879021D01*
X97174436Y-53949728D01*
X97105186Y-53959013D01*
X97041909Y-53929385D01*
X97004696Y-53870250D01*
X97000000Y-53836449D01*
X97000000Y-52600000D01*
X104586496Y-52600000D01*
X104606458Y-52789928D01*
X104606459Y-52789931D01*
X104665470Y-52971549D01*
X104665473Y-52971556D01*
X104760960Y-53136944D01*
X104888747Y-53278866D01*
X105043248Y-53391118D01*
X105217712Y-53468794D01*
X105404513Y-53508500D01*
X105595487Y-53508500D01*
X105782288Y-53468794D01*
X105956752Y-53391118D01*
X106111253Y-53278866D01*
X106239040Y-53136944D01*
X106334527Y-52971556D01*
X106393542Y-52789928D01*
X106413504Y-52600000D01*
X106393542Y-52410072D01*
X106334527Y-52228444D01*
X106239040Y-52063056D01*
X106111253Y-51921134D01*
X105956752Y-51808882D01*
X105782288Y-51731206D01*
X105782286Y-51731205D01*
X105595487Y-51691500D01*
X105404513Y-51691500D01*
X105217714Y-51731205D01*
X105043246Y-51808883D01*
X104888745Y-51921135D01*
X104760959Y-52063057D01*
X104665473Y-52228443D01*
X104665470Y-52228450D01*
X104606459Y-52410068D01*
X104606458Y-52410072D01*
X104586496Y-52600000D01*
X97000000Y-52600000D01*
X97000000Y-48750000D01*
X97886771Y-48750000D01*
X97905635Y-48929475D01*
X97961401Y-49101107D01*
X98051633Y-49257393D01*
X98093696Y-49304108D01*
X98172381Y-49391499D01*
X98172384Y-49391501D01*
X98172387Y-49391504D01*
X98318385Y-49497578D01*
X98483242Y-49570978D01*
X98483248Y-49570980D01*
X98659768Y-49608500D01*
X98659769Y-49608500D01*
X98840231Y-49608500D01*
X98840232Y-49608500D01*
X99016752Y-49570980D01*
X99016754Y-49570978D01*
X99016757Y-49570978D01*
X99072288Y-49546253D01*
X99181615Y-49497578D01*
X99327613Y-49391504D01*
X99448367Y-49257393D01*
X99538599Y-49101107D01*
X99594365Y-48929475D01*
X99613229Y-48750000D01*
X99594365Y-48570525D01*
X99538599Y-48398893D01*
X99448367Y-48242607D01*
X99401071Y-48190079D01*
X99327618Y-48108500D01*
X99327615Y-48108498D01*
X99327614Y-48108497D01*
X99327613Y-48108496D01*
X99181615Y-48002422D01*
X99181614Y-48002421D01*
X99016757Y-47929021D01*
X99016751Y-47929019D01*
X98877751Y-47899474D01*
X98840232Y-47891500D01*
X98659768Y-47891500D01*
X98628825Y-47898076D01*
X98483248Y-47929019D01*
X98483242Y-47929021D01*
X98318386Y-48002421D01*
X98318381Y-48002424D01*
X98172388Y-48108494D01*
X98172381Y-48108500D01*
X98051632Y-48242608D01*
X97961400Y-48398894D01*
X97905635Y-48570523D01*
X97905635Y-48570525D01*
X97886771Y-48750000D01*
X97000000Y-48750000D01*
X97000000Y-47124000D01*
X97019685Y-47056961D01*
X97072489Y-47011206D01*
X97124000Y-47000000D01*
X99525332Y-47000000D01*
X99592371Y-47019685D01*
G37*
G04 #@! TD.AperFunction*
G04 #@! TA.AperFunction,Conductor*
G36*
X124943039Y-33019685D02*
G01*
X124988794Y-33072489D01*
X125000000Y-33124000D01*
X125000000Y-77876000D01*
X124980315Y-77943039D01*
X124927511Y-77988794D01*
X124876000Y-78000000D01*
X111124000Y-78000000D01*
X111056961Y-77980315D01*
X111011206Y-77927511D01*
X111000000Y-77876000D01*
X111000000Y-75585537D01*
X115481500Y-75585537D01*
X115481501Y-75585553D01*
X115492113Y-75689427D01*
X115547884Y-75857735D01*
X115547886Y-75857740D01*
X115583142Y-75914898D01*
X115640970Y-76008652D01*
X115766348Y-76134030D01*
X115917262Y-76227115D01*
X116085574Y-76282887D01*
X116189455Y-76293500D01*
X117490544Y-76293499D01*
X117594426Y-76282887D01*
X117762738Y-76227115D01*
X117913652Y-76134030D01*
X118039030Y-76008652D01*
X118132115Y-75857738D01*
X118187887Y-75689426D01*
X118198500Y-75585545D01*
X118198500Y-74992719D01*
X120481500Y-74992719D01*
X120496197Y-75165413D01*
X120554469Y-75389206D01*
X120554470Y-75389210D01*
X120649716Y-75599919D01*
X120649723Y-75599931D01*
X120779209Y-75791513D01*
X120779214Y-75791518D01*
X120779217Y-75791523D01*
X120939228Y-75958476D01*
X121125153Y-76095985D01*
X121331643Y-76200095D01*
X121552757Y-76267811D01*
X121782135Y-76297184D01*
X122013178Y-76287369D01*
X122239238Y-76238649D01*
X122453813Y-76152426D01*
X122650730Y-76031179D01*
X122824324Y-75878398D01*
X122969600Y-75698476D01*
X123082380Y-75496591D01*
X123159419Y-75278550D01*
X123178818Y-75165413D01*
X123198499Y-75050634D01*
X123198500Y-75050623D01*
X123198500Y-74727281D01*
X123183802Y-74554586D01*
X123125530Y-74330793D01*
X123125529Y-74330789D01*
X123030283Y-74120080D01*
X123030276Y-74120068D01*
X122900790Y-73928486D01*
X122900786Y-73928481D01*
X122900783Y-73928477D01*
X122740772Y-73761524D01*
X122554847Y-73624015D01*
X122554846Y-73624014D01*
X122554844Y-73624013D01*
X122348358Y-73519905D01*
X122220888Y-73480867D01*
X122127243Y-73452189D01*
X122127241Y-73452188D01*
X122127242Y-73452188D01*
X121897859Y-73422815D01*
X121666827Y-73432630D01*
X121666821Y-73432630D01*
X121440759Y-73481351D01*
X121226190Y-73567572D01*
X121029270Y-73688820D01*
X120855679Y-73841599D01*
X120855672Y-73841605D01*
X120710404Y-74021517D01*
X120710399Y-74021523D01*
X120597621Y-74223405D01*
X120520582Y-74441446D01*
X120520579Y-74441456D01*
X120481500Y-74669365D01*
X120481500Y-74992719D01*
X118198500Y-74992719D01*
X118198499Y-74134456D01*
X118187887Y-74030574D01*
X118132115Y-73862262D01*
X118039030Y-73711348D01*
X117913652Y-73585970D01*
X117762738Y-73492885D01*
X117727930Y-73481351D01*
X117594427Y-73437113D01*
X117490545Y-73426500D01*
X116189462Y-73426500D01*
X116189446Y-73426501D01*
X116085572Y-73437113D01*
X115917264Y-73492884D01*
X115917259Y-73492886D01*
X115766346Y-73585971D01*
X115640971Y-73711346D01*
X115547886Y-73862259D01*
X115547884Y-73862264D01*
X115492113Y-74030572D01*
X115481500Y-74134447D01*
X115481500Y-75585537D01*
X111000000Y-75585537D01*
X111000000Y-71500000D01*
X112086496Y-71500000D01*
X112106458Y-71689928D01*
X112106459Y-71689931D01*
X112165470Y-71871549D01*
X112165473Y-71871556D01*
X112260960Y-72036944D01*
X112388747Y-72178866D01*
X112543248Y-72291118D01*
X112717712Y-72368794D01*
X112904513Y-72408500D01*
X113095487Y-72408500D01*
X113282288Y-72368794D01*
X113456752Y-72291118D01*
X113611253Y-72178866D01*
X113739040Y-72036944D01*
X113834527Y-71871556D01*
X113893542Y-71689928D01*
X113913504Y-71500000D01*
X113893542Y-71310072D01*
X113834527Y-71128444D01*
X113739040Y-70963056D01*
X113611253Y-70821134D01*
X113456752Y-70708882D01*
X113282288Y-70631206D01*
X113282286Y-70631205D01*
X113095487Y-70591500D01*
X112904513Y-70591500D01*
X112717714Y-70631205D01*
X112543246Y-70708883D01*
X112388745Y-70821135D01*
X112260959Y-70963057D01*
X112165473Y-71128443D01*
X112165470Y-71128450D01*
X112106459Y-71310068D01*
X112106458Y-71310072D01*
X112086496Y-71500000D01*
X111000000Y-71500000D01*
X111000000Y-68635537D01*
X115481500Y-68635537D01*
X115481501Y-68635553D01*
X115492113Y-68739427D01*
X115525944Y-68841523D01*
X115547885Y-68907738D01*
X115640970Y-69058652D01*
X115766348Y-69184030D01*
X115917262Y-69277115D01*
X116085574Y-69332887D01*
X116189455Y-69343500D01*
X117490544Y-69343499D01*
X117594426Y-69332887D01*
X117762738Y-69277115D01*
X117913652Y-69184030D01*
X118039030Y-69058652D01*
X118132115Y-68907738D01*
X118187887Y-68739426D01*
X118198500Y-68635545D01*
X118198500Y-68042719D01*
X120481500Y-68042719D01*
X120496197Y-68215413D01*
X120554469Y-68439206D01*
X120554470Y-68439210D01*
X120649716Y-68649919D01*
X120649723Y-68649931D01*
X120779209Y-68841513D01*
X120779214Y-68841518D01*
X120779217Y-68841523D01*
X120939228Y-69008476D01*
X121125153Y-69145985D01*
X121331643Y-69250095D01*
X121552757Y-69317811D01*
X121782135Y-69347184D01*
X122013178Y-69337369D01*
X122239238Y-69288649D01*
X122453813Y-69202426D01*
X122650730Y-69081179D01*
X122824324Y-68928398D01*
X122969600Y-68748476D01*
X123082380Y-68546591D01*
X123159419Y-68328550D01*
X123181876Y-68197578D01*
X123198499Y-68100634D01*
X123198500Y-68100623D01*
X123198500Y-67777281D01*
X123183802Y-67604586D01*
X123125530Y-67380793D01*
X123125529Y-67380789D01*
X123030283Y-67170080D01*
X123030276Y-67170068D01*
X122900790Y-66978486D01*
X122900786Y-66978481D01*
X122900783Y-66978477D01*
X122740772Y-66811524D01*
X122554847Y-66674015D01*
X122554846Y-66674014D01*
X122554844Y-66674013D01*
X122348358Y-66569905D01*
X122220888Y-66530867D01*
X122127243Y-66502189D01*
X122127241Y-66502188D01*
X122127242Y-66502188D01*
X121897859Y-66472815D01*
X121666827Y-66482630D01*
X121666821Y-66482630D01*
X121440759Y-66531351D01*
X121226190Y-66617572D01*
X121029270Y-66738820D01*
X120855679Y-66891599D01*
X120855672Y-66891605D01*
X120710404Y-67071517D01*
X120710399Y-67071523D01*
X120597621Y-67273405D01*
X120520582Y-67491446D01*
X120520579Y-67491456D01*
X120481500Y-67719365D01*
X120481500Y-68042719D01*
X118198500Y-68042719D01*
X118198499Y-67184456D01*
X118187887Y-67080574D01*
X118132115Y-66912262D01*
X118039030Y-66761348D01*
X117913652Y-66635970D01*
X117762738Y-66542885D01*
X117727930Y-66531351D01*
X117594427Y-66487113D01*
X117490545Y-66476500D01*
X116189462Y-66476500D01*
X116189446Y-66476501D01*
X116085572Y-66487113D01*
X115917264Y-66542884D01*
X115917259Y-66542886D01*
X115766346Y-66635971D01*
X115640971Y-66761346D01*
X115547886Y-66912259D01*
X115547884Y-66912264D01*
X115492113Y-67080572D01*
X115481500Y-67184447D01*
X115481500Y-68635537D01*
X111000000Y-68635537D01*
X111000000Y-64250000D01*
X112086496Y-64250000D01*
X112106458Y-64439928D01*
X112106459Y-64439931D01*
X112165470Y-64621549D01*
X112165473Y-64621556D01*
X112260960Y-64786944D01*
X112388747Y-64928866D01*
X112543248Y-65041118D01*
X112717712Y-65118794D01*
X112904513Y-65158500D01*
X113095487Y-65158500D01*
X113282288Y-65118794D01*
X113456752Y-65041118D01*
X113611253Y-64928866D01*
X113739040Y-64786944D01*
X113834527Y-64621556D01*
X113893542Y-64439928D01*
X113913504Y-64250000D01*
X113893542Y-64060072D01*
X113834527Y-63878444D01*
X113739040Y-63713056D01*
X113611253Y-63571134D01*
X113456752Y-63458882D01*
X113282288Y-63381206D01*
X113282286Y-63381205D01*
X113095487Y-63341500D01*
X112904513Y-63341500D01*
X112717714Y-63381205D01*
X112543246Y-63458883D01*
X112388745Y-63571135D01*
X112260959Y-63713057D01*
X112165473Y-63878443D01*
X112165470Y-63878450D01*
X112106459Y-64060068D01*
X112106458Y-64060072D01*
X112086496Y-64250000D01*
X111000000Y-64250000D01*
X111000000Y-61685537D01*
X115481500Y-61685537D01*
X115481501Y-61685553D01*
X115492113Y-61789427D01*
X115547884Y-61957735D01*
X115547886Y-61957740D01*
X115583142Y-62014898D01*
X115640970Y-62108652D01*
X115766348Y-62234030D01*
X115917262Y-62327115D01*
X116085574Y-62382887D01*
X116189455Y-62393500D01*
X117490544Y-62393499D01*
X117594426Y-62382887D01*
X117762738Y-62327115D01*
X117913652Y-62234030D01*
X118039030Y-62108652D01*
X118132115Y-61957738D01*
X118187887Y-61789426D01*
X118198500Y-61685545D01*
X118198500Y-61092719D01*
X120481500Y-61092719D01*
X120496197Y-61265413D01*
X120554469Y-61489206D01*
X120554470Y-61489210D01*
X120649716Y-61699919D01*
X120649723Y-61699931D01*
X120779209Y-61891513D01*
X120779214Y-61891518D01*
X120779217Y-61891523D01*
X120939228Y-62058476D01*
X121125153Y-62195985D01*
X121331643Y-62300095D01*
X121552757Y-62367811D01*
X121782135Y-62397184D01*
X122013178Y-62387369D01*
X122239238Y-62338649D01*
X122453813Y-62252426D01*
X122650730Y-62131179D01*
X122824324Y-61978398D01*
X122969600Y-61798476D01*
X123082380Y-61596591D01*
X123159419Y-61378550D01*
X123188511Y-61208882D01*
X123198499Y-61150634D01*
X123198500Y-61150623D01*
X123198500Y-60827281D01*
X123183802Y-60654586D01*
X123125530Y-60430793D01*
X123125529Y-60430789D01*
X123030283Y-60220080D01*
X123030276Y-60220068D01*
X122900790Y-60028486D01*
X122900786Y-60028481D01*
X122900783Y-60028477D01*
X122740772Y-59861524D01*
X122554847Y-59724015D01*
X122554846Y-59724014D01*
X122554844Y-59724013D01*
X122348358Y-59619905D01*
X122220888Y-59580867D01*
X122127243Y-59552189D01*
X122127241Y-59552188D01*
X122127242Y-59552188D01*
X121897859Y-59522815D01*
X121666827Y-59532630D01*
X121666821Y-59532630D01*
X121440759Y-59581351D01*
X121226190Y-59667572D01*
X121029270Y-59788820D01*
X120855679Y-59941599D01*
X120855672Y-59941605D01*
X120710404Y-60121517D01*
X120710399Y-60121523D01*
X120597621Y-60323405D01*
X120520582Y-60541446D01*
X120520579Y-60541456D01*
X120481500Y-60769365D01*
X120481500Y-61092719D01*
X118198500Y-61092719D01*
X118198499Y-60234456D01*
X118187887Y-60130574D01*
X118132115Y-59962262D01*
X118039030Y-59811348D01*
X117913652Y-59685970D01*
X117762738Y-59592885D01*
X117727930Y-59581351D01*
X117594427Y-59537113D01*
X117490545Y-59526500D01*
X116189462Y-59526500D01*
X116189446Y-59526501D01*
X116085572Y-59537113D01*
X115917264Y-59592884D01*
X115917259Y-59592886D01*
X115766346Y-59685971D01*
X115640971Y-59811346D01*
X115547886Y-59962259D01*
X115547884Y-59962264D01*
X115492113Y-60130572D01*
X115481500Y-60234447D01*
X115481500Y-61685537D01*
X111000000Y-61685537D01*
X111000000Y-57500000D01*
X112086496Y-57500000D01*
X112106458Y-57689928D01*
X112106459Y-57689931D01*
X112165470Y-57871549D01*
X112165473Y-57871556D01*
X112260960Y-58036944D01*
X112388747Y-58178866D01*
X112543248Y-58291118D01*
X112717712Y-58368794D01*
X112904513Y-58408500D01*
X113095487Y-58408500D01*
X113282288Y-58368794D01*
X113456752Y-58291118D01*
X113611253Y-58178866D01*
X113739040Y-58036944D01*
X113834527Y-57871556D01*
X113893542Y-57689928D01*
X113913504Y-57500000D01*
X113893542Y-57310072D01*
X113834527Y-57128444D01*
X113739040Y-56963056D01*
X113611253Y-56821134D01*
X113456752Y-56708882D01*
X113282288Y-56631206D01*
X113282286Y-56631205D01*
X113095487Y-56591500D01*
X112904513Y-56591500D01*
X112717714Y-56631205D01*
X112543246Y-56708883D01*
X112388745Y-56821135D01*
X112260959Y-56963057D01*
X112165473Y-57128443D01*
X112165470Y-57128450D01*
X112145495Y-57189928D01*
X112106458Y-57310072D01*
X112086496Y-57500000D01*
X111000000Y-57500000D01*
X111000000Y-54735537D01*
X115481500Y-54735537D01*
X115481501Y-54735553D01*
X115492113Y-54839427D01*
X115525944Y-54941523D01*
X115547885Y-55007738D01*
X115640970Y-55158652D01*
X115766348Y-55284030D01*
X115917262Y-55377115D01*
X116085574Y-55432887D01*
X116189455Y-55443500D01*
X117490544Y-55443499D01*
X117594426Y-55432887D01*
X117762738Y-55377115D01*
X117913652Y-55284030D01*
X118039030Y-55158652D01*
X118132115Y-55007738D01*
X118187887Y-54839426D01*
X118198500Y-54735545D01*
X118198500Y-54142719D01*
X120481500Y-54142719D01*
X120496197Y-54315413D01*
X120554469Y-54539206D01*
X120554470Y-54539210D01*
X120649716Y-54749919D01*
X120649723Y-54749931D01*
X120779209Y-54941513D01*
X120779214Y-54941518D01*
X120779217Y-54941523D01*
X120939228Y-55108476D01*
X121125153Y-55245985D01*
X121331643Y-55350095D01*
X121552757Y-55417811D01*
X121782135Y-55447184D01*
X122013178Y-55437369D01*
X122239238Y-55388649D01*
X122453813Y-55302426D01*
X122650730Y-55181179D01*
X122824324Y-55028398D01*
X122969600Y-54848476D01*
X123082380Y-54646591D01*
X123159419Y-54428550D01*
X123178818Y-54315413D01*
X123198499Y-54200634D01*
X123198500Y-54200623D01*
X123198500Y-53877281D01*
X123183802Y-53704586D01*
X123125530Y-53480793D01*
X123125529Y-53480789D01*
X123030283Y-53270080D01*
X123030276Y-53270068D01*
X122900790Y-53078486D01*
X122900786Y-53078481D01*
X122900783Y-53078477D01*
X122740772Y-52911524D01*
X122554847Y-52774015D01*
X122554846Y-52774014D01*
X122554844Y-52774013D01*
X122348358Y-52669905D01*
X122220888Y-52630867D01*
X122127243Y-52602189D01*
X122127241Y-52602188D01*
X122127242Y-52602188D01*
X121897859Y-52572815D01*
X121666827Y-52582630D01*
X121666821Y-52582630D01*
X121440759Y-52631351D01*
X121226190Y-52717572D01*
X121029270Y-52838820D01*
X120855679Y-52991599D01*
X120855672Y-52991605D01*
X120710404Y-53171517D01*
X120710399Y-53171523D01*
X120597621Y-53373405D01*
X120520582Y-53591446D01*
X120520579Y-53591456D01*
X120481500Y-53819365D01*
X120481500Y-54142719D01*
X118198500Y-54142719D01*
X118198499Y-53284456D01*
X118187887Y-53180574D01*
X118132115Y-53012262D01*
X118039030Y-52861348D01*
X117913652Y-52735970D01*
X117762738Y-52642885D01*
X117727930Y-52631351D01*
X117594427Y-52587113D01*
X117490545Y-52576500D01*
X116189462Y-52576500D01*
X116189446Y-52576501D01*
X116085572Y-52587113D01*
X115917264Y-52642884D01*
X115917259Y-52642886D01*
X115766346Y-52735971D01*
X115640971Y-52861346D01*
X115547886Y-53012259D01*
X115547884Y-53012264D01*
X115492113Y-53180572D01*
X115481500Y-53284447D01*
X115481500Y-54735537D01*
X111000000Y-54735537D01*
X111000000Y-50750000D01*
X111836496Y-50750000D01*
X111856458Y-50939928D01*
X111856459Y-50939931D01*
X111915470Y-51121549D01*
X111915473Y-51121556D01*
X112010960Y-51286944D01*
X112138747Y-51428866D01*
X112293248Y-51541118D01*
X112467712Y-51618794D01*
X112654513Y-51658500D01*
X112845487Y-51658500D01*
X113032288Y-51618794D01*
X113206752Y-51541118D01*
X113361253Y-51428866D01*
X113489040Y-51286944D01*
X113584527Y-51121556D01*
X113643542Y-50939928D01*
X113663504Y-50750000D01*
X113643542Y-50560072D01*
X113584527Y-50378444D01*
X113489040Y-50213056D01*
X113361253Y-50071134D01*
X113206752Y-49958882D01*
X113032288Y-49881206D01*
X113032286Y-49881205D01*
X112845487Y-49841500D01*
X112654513Y-49841500D01*
X112467714Y-49881205D01*
X112293246Y-49958883D01*
X112138745Y-50071135D01*
X112010959Y-50213057D01*
X111915473Y-50378443D01*
X111915470Y-50378450D01*
X111895495Y-50439928D01*
X111856458Y-50560072D01*
X111836496Y-50750000D01*
X111000000Y-50750000D01*
X111000000Y-47785537D01*
X115481500Y-47785537D01*
X115481501Y-47785553D01*
X115492113Y-47889427D01*
X115525944Y-47991523D01*
X115547885Y-48057738D01*
X115640970Y-48208652D01*
X115766348Y-48334030D01*
X115917262Y-48427115D01*
X116085574Y-48482887D01*
X116189455Y-48493500D01*
X117490544Y-48493499D01*
X117594426Y-48482887D01*
X117762738Y-48427115D01*
X117913652Y-48334030D01*
X118039030Y-48208652D01*
X118132115Y-48057738D01*
X118187887Y-47889426D01*
X118198500Y-47785545D01*
X118198500Y-47192719D01*
X120481500Y-47192719D01*
X120496197Y-47365413D01*
X120554469Y-47589206D01*
X120554470Y-47589210D01*
X120649716Y-47799919D01*
X120649723Y-47799931D01*
X120779209Y-47991513D01*
X120779214Y-47991518D01*
X120779217Y-47991523D01*
X120939228Y-48158476D01*
X121125153Y-48295985D01*
X121331643Y-48400095D01*
X121552757Y-48467811D01*
X121782135Y-48497184D01*
X122013178Y-48487369D01*
X122239238Y-48438649D01*
X122453813Y-48352426D01*
X122650730Y-48231179D01*
X122824324Y-48078398D01*
X122969600Y-47898476D01*
X123082380Y-47696591D01*
X123159419Y-47478550D01*
X123181876Y-47347578D01*
X123198499Y-47250634D01*
X123198500Y-47250623D01*
X123198500Y-46927281D01*
X123183802Y-46754586D01*
X123125530Y-46530793D01*
X123125529Y-46530789D01*
X123030283Y-46320080D01*
X123030276Y-46320068D01*
X122900790Y-46128486D01*
X122900786Y-46128481D01*
X122900783Y-46128477D01*
X122740772Y-45961524D01*
X122554847Y-45824015D01*
X122554846Y-45824014D01*
X122554844Y-45824013D01*
X122348358Y-45719905D01*
X122220888Y-45680867D01*
X122127243Y-45652189D01*
X122127241Y-45652188D01*
X122127242Y-45652188D01*
X121897859Y-45622815D01*
X121666827Y-45632630D01*
X121666821Y-45632630D01*
X121440759Y-45681351D01*
X121226190Y-45767572D01*
X121029270Y-45888820D01*
X120855679Y-46041599D01*
X120855672Y-46041605D01*
X120710404Y-46221517D01*
X120710399Y-46221523D01*
X120597621Y-46423405D01*
X120520582Y-46641446D01*
X120520579Y-46641456D01*
X120481500Y-46869365D01*
X120481500Y-47192719D01*
X118198500Y-47192719D01*
X118198499Y-46334456D01*
X118187887Y-46230574D01*
X118132115Y-46062262D01*
X118039030Y-45911348D01*
X117913652Y-45785970D01*
X117762738Y-45692885D01*
X117727930Y-45681351D01*
X117594427Y-45637113D01*
X117490545Y-45626500D01*
X116189462Y-45626500D01*
X116189446Y-45626501D01*
X116085572Y-45637113D01*
X115917264Y-45692884D01*
X115917259Y-45692886D01*
X115766346Y-45785971D01*
X115640971Y-45911346D01*
X115547886Y-46062259D01*
X115547884Y-46062264D01*
X115492113Y-46230572D01*
X115481500Y-46334447D01*
X115481500Y-47785537D01*
X111000000Y-47785537D01*
X111000000Y-45000000D01*
X103133897Y-45000000D01*
X103066858Y-44980315D01*
X103021103Y-44927511D01*
X103009897Y-44876103D01*
X103009375Y-44250000D01*
X112086496Y-44250000D01*
X112106458Y-44439928D01*
X112106459Y-44439931D01*
X112165470Y-44621549D01*
X112165473Y-44621556D01*
X112260960Y-44786944D01*
X112388747Y-44928866D01*
X112543248Y-45041118D01*
X112717712Y-45118794D01*
X112904513Y-45158500D01*
X113095487Y-45158500D01*
X113282288Y-45118794D01*
X113456752Y-45041118D01*
X113611253Y-44928866D01*
X113739040Y-44786944D01*
X113834527Y-44621556D01*
X113893542Y-44439928D01*
X113913504Y-44250000D01*
X113893542Y-44060072D01*
X113834527Y-43878444D01*
X113739040Y-43713056D01*
X113611253Y-43571134D01*
X113456752Y-43458882D01*
X113282288Y-43381206D01*
X113282286Y-43381205D01*
X113095487Y-43341500D01*
X112904513Y-43341500D01*
X112717714Y-43381205D01*
X112543246Y-43458883D01*
X112388745Y-43571135D01*
X112260959Y-43713057D01*
X112165473Y-43878443D01*
X112165470Y-43878450D01*
X112106459Y-44060068D01*
X112106458Y-44060072D01*
X112086496Y-44250000D01*
X103009375Y-44250000D01*
X103006530Y-40835537D01*
X115481500Y-40835537D01*
X115481501Y-40835553D01*
X115492113Y-40939427D01*
X115525944Y-41041523D01*
X115547885Y-41107738D01*
X115640970Y-41258652D01*
X115766348Y-41384030D01*
X115917262Y-41477115D01*
X116085574Y-41532887D01*
X116189455Y-41543500D01*
X117490544Y-41543499D01*
X117594426Y-41532887D01*
X117762738Y-41477115D01*
X117913652Y-41384030D01*
X118039030Y-41258652D01*
X118132115Y-41107738D01*
X118187887Y-40939426D01*
X118198500Y-40835545D01*
X118198500Y-40242719D01*
X120481500Y-40242719D01*
X120496197Y-40415413D01*
X120554469Y-40639206D01*
X120554470Y-40639210D01*
X120649716Y-40849919D01*
X120649723Y-40849931D01*
X120779209Y-41041513D01*
X120779214Y-41041518D01*
X120779217Y-41041523D01*
X120939228Y-41208476D01*
X121125153Y-41345985D01*
X121331643Y-41450095D01*
X121552757Y-41517811D01*
X121782135Y-41547184D01*
X122013178Y-41537369D01*
X122239238Y-41488649D01*
X122453813Y-41402426D01*
X122650730Y-41281179D01*
X122824324Y-41128398D01*
X122969600Y-40948476D01*
X123082380Y-40746591D01*
X123159419Y-40528550D01*
X123178818Y-40415413D01*
X123198499Y-40300634D01*
X123198500Y-40300623D01*
X123198500Y-39977281D01*
X123183802Y-39804586D01*
X123125530Y-39580793D01*
X123125529Y-39580789D01*
X123030283Y-39370080D01*
X123030276Y-39370068D01*
X122900790Y-39178486D01*
X122900786Y-39178481D01*
X122900783Y-39178477D01*
X122740772Y-39011524D01*
X122554847Y-38874015D01*
X122554846Y-38874014D01*
X122554844Y-38874013D01*
X122348358Y-38769905D01*
X122212974Y-38728444D01*
X122127243Y-38702189D01*
X122127241Y-38702188D01*
X122127242Y-38702188D01*
X121897859Y-38672815D01*
X121666827Y-38682630D01*
X121666821Y-38682630D01*
X121440759Y-38731351D01*
X121226190Y-38817572D01*
X121029270Y-38938820D01*
X120855679Y-39091599D01*
X120855672Y-39091605D01*
X120710404Y-39271517D01*
X120710399Y-39271523D01*
X120597621Y-39473405D01*
X120520582Y-39691446D01*
X120520579Y-39691456D01*
X120481500Y-39919365D01*
X120481500Y-40242719D01*
X118198500Y-40242719D01*
X118198499Y-39384456D01*
X118187887Y-39280574D01*
X118132115Y-39112262D01*
X118039030Y-38961348D01*
X117913652Y-38835970D01*
X117762738Y-38742885D01*
X117719154Y-38728443D01*
X117594427Y-38687113D01*
X117490545Y-38676500D01*
X116189462Y-38676500D01*
X116189446Y-38676501D01*
X116085572Y-38687113D01*
X115917264Y-38742884D01*
X115917259Y-38742886D01*
X115766346Y-38835971D01*
X115640971Y-38961346D01*
X115547886Y-39112259D01*
X115547884Y-39112264D01*
X115492113Y-39280572D01*
X115481500Y-39384447D01*
X115481500Y-40835537D01*
X103006530Y-40835537D01*
X103005484Y-39580789D01*
X103005083Y-39100000D01*
X105186496Y-39100000D01*
X105206458Y-39289928D01*
X105206459Y-39289931D01*
X105265470Y-39471549D01*
X105265473Y-39471556D01*
X105360960Y-39636944D01*
X105488747Y-39778866D01*
X105643248Y-39891118D01*
X105817712Y-39968794D01*
X106004513Y-40008500D01*
X106195487Y-40008500D01*
X106382288Y-39968794D01*
X106556752Y-39891118D01*
X106711253Y-39778866D01*
X106839040Y-39636944D01*
X106934527Y-39471556D01*
X106993542Y-39289928D01*
X107013504Y-39100000D01*
X106993542Y-38910072D01*
X106934527Y-38728444D01*
X106839040Y-38563056D01*
X106711253Y-38421134D01*
X106556752Y-38308882D01*
X106382288Y-38231206D01*
X106382286Y-38231205D01*
X106195487Y-38191500D01*
X106004513Y-38191500D01*
X105817714Y-38231205D01*
X105643246Y-38308883D01*
X105488745Y-38421135D01*
X105360959Y-38563057D01*
X105265473Y-38728443D01*
X105265470Y-38728450D01*
X105206459Y-38910068D01*
X105206458Y-38910072D01*
X105186496Y-39100000D01*
X103005083Y-39100000D01*
X103003541Y-37250000D01*
X112086496Y-37250000D01*
X112106458Y-37439928D01*
X112106459Y-37439931D01*
X112165470Y-37621549D01*
X112165473Y-37621556D01*
X112260960Y-37786944D01*
X112388747Y-37928866D01*
X112543248Y-38041118D01*
X112717712Y-38118794D01*
X112904513Y-38158500D01*
X113095487Y-38158500D01*
X113282288Y-38118794D01*
X113456752Y-38041118D01*
X113611253Y-37928866D01*
X113739040Y-37786944D01*
X113834527Y-37621556D01*
X113893542Y-37439928D01*
X113913504Y-37250000D01*
X113893542Y-37060072D01*
X113834527Y-36878444D01*
X113739040Y-36713056D01*
X113611253Y-36571134D01*
X113456752Y-36458882D01*
X113282288Y-36381206D01*
X113282286Y-36381205D01*
X113095487Y-36341500D01*
X112904513Y-36341500D01*
X112717714Y-36381205D01*
X112543246Y-36458883D01*
X112388745Y-36571135D01*
X112260959Y-36713057D01*
X112165473Y-36878443D01*
X112165470Y-36878450D01*
X112106459Y-37060068D01*
X112106458Y-37060072D01*
X112086496Y-37250000D01*
X103003541Y-37250000D01*
X103000103Y-33124101D01*
X103019732Y-33057047D01*
X103072498Y-33011249D01*
X103124103Y-33000000D01*
X124876000Y-33000000D01*
X124943039Y-33019685D01*
G37*
G04 #@! TD.AperFunction*
G04 #@! TA.AperFunction,Conductor*
G36*
X64943039Y-26020185D02*
G01*
X64988794Y-26072989D01*
X65000000Y-26124500D01*
X65000000Y-38026104D01*
X64980315Y-38093143D01*
X64927511Y-38138898D01*
X64901781Y-38147394D01*
X64742714Y-38181205D01*
X64568246Y-38258883D01*
X64413745Y-38371135D01*
X64285959Y-38513057D01*
X64190473Y-38678443D01*
X64190470Y-38678450D01*
X64131459Y-38860068D01*
X64131458Y-38860072D01*
X64111496Y-39050000D01*
X64131458Y-39239928D01*
X64131459Y-39239931D01*
X64190470Y-39421549D01*
X64190473Y-39421556D01*
X64285960Y-39586944D01*
X64413747Y-39728866D01*
X64568248Y-39841118D01*
X64742712Y-39918794D01*
X64901782Y-39952605D01*
X64963263Y-39985797D01*
X64997039Y-40046960D01*
X65000000Y-40073895D01*
X65000000Y-60000000D01*
X88378393Y-60000000D01*
X88445432Y-60019685D01*
X88491187Y-60072489D01*
X88496324Y-60085681D01*
X88540471Y-60221552D01*
X88540473Y-60221556D01*
X88635960Y-60386944D01*
X88763747Y-60528866D01*
X88918248Y-60641118D01*
X89092712Y-60718794D01*
X89279513Y-60758500D01*
X89470487Y-60758500D01*
X89657288Y-60718794D01*
X89825567Y-60643871D01*
X89894814Y-60634587D01*
X89958091Y-60664215D01*
X89995304Y-60723350D01*
X90000000Y-60757151D01*
X90000000Y-63402690D01*
X89980315Y-63469729D01*
X89927511Y-63515484D01*
X89911996Y-63521350D01*
X89772194Y-63563759D01*
X89596995Y-63657404D01*
X89593885Y-63659483D01*
X89592008Y-63660070D01*
X89591624Y-63660276D01*
X89591584Y-63660203D01*
X89527206Y-63680357D01*
X89459827Y-63661869D01*
X89456115Y-63659483D01*
X89453004Y-63657404D01*
X89277808Y-63563760D01*
X89118662Y-63515484D01*
X89087701Y-63506092D01*
X89087699Y-63506091D01*
X89087701Y-63506091D01*
X88890000Y-63486620D01*
X88692300Y-63506091D01*
X88502191Y-63563760D01*
X88326995Y-63657404D01*
X88323885Y-63659483D01*
X88322008Y-63660070D01*
X88321624Y-63660276D01*
X88321584Y-63660203D01*
X88257206Y-63680357D01*
X88189827Y-63661869D01*
X88186115Y-63659483D01*
X88183004Y-63657404D01*
X88007808Y-63563760D01*
X87848662Y-63515484D01*
X87817701Y-63506092D01*
X87817699Y-63506091D01*
X87817701Y-63506091D01*
X87620000Y-63486620D01*
X87422300Y-63506091D01*
X87232191Y-63563760D01*
X87057002Y-63657401D01*
X87056984Y-63657413D01*
X87056552Y-63657768D01*
X87056281Y-63657882D01*
X87051934Y-63660788D01*
X87051382Y-63659962D01*
X86992239Y-63685073D01*
X86923373Y-63673273D01*
X86909023Y-63665016D01*
X86908266Y-63664510D01*
X86734541Y-63571652D01*
X86600000Y-63530839D01*
X86600000Y-64251061D01*
X86518885Y-64187928D01*
X86408405Y-64150000D01*
X86320995Y-64150000D01*
X86234784Y-64164386D01*
X86132053Y-64219981D01*
X86100000Y-64254799D01*
X86100000Y-63530839D01*
X86099999Y-63530839D01*
X85965458Y-63571652D01*
X85791733Y-63664510D01*
X85790977Y-63665016D01*
X85790520Y-63665158D01*
X85786369Y-63667378D01*
X85785947Y-63666590D01*
X85724297Y-63685886D01*
X85656919Y-63667392D01*
X85643438Y-63657761D01*
X85643003Y-63657404D01*
X85643002Y-63657403D01*
X85467808Y-63563760D01*
X85308662Y-63515484D01*
X85277701Y-63506092D01*
X85277699Y-63506091D01*
X85277701Y-63506091D01*
X85080000Y-63486620D01*
X84882300Y-63506091D01*
X84692191Y-63563760D01*
X84516995Y-63657404D01*
X84513885Y-63659483D01*
X84512008Y-63660070D01*
X84511624Y-63660276D01*
X84511584Y-63660203D01*
X84447206Y-63680357D01*
X84379827Y-63661869D01*
X84376115Y-63659483D01*
X84373004Y-63657404D01*
X84197808Y-63563760D01*
X84038662Y-63515484D01*
X84007701Y-63506092D01*
X84007699Y-63506091D01*
X84007701Y-63506091D01*
X83810000Y-63486620D01*
X83612300Y-63506091D01*
X83422191Y-63563760D01*
X83246995Y-63657404D01*
X83243885Y-63659483D01*
X83242008Y-63660070D01*
X83241624Y-63660276D01*
X83241584Y-63660203D01*
X83177206Y-63680357D01*
X83109827Y-63661869D01*
X83106115Y-63659483D01*
X83103004Y-63657404D01*
X82927808Y-63563760D01*
X82768662Y-63515484D01*
X82737701Y-63506092D01*
X82737699Y-63506091D01*
X82737701Y-63506091D01*
X82540000Y-63486620D01*
X82342300Y-63506091D01*
X82152191Y-63563760D01*
X81976995Y-63657404D01*
X81973885Y-63659483D01*
X81972008Y-63660070D01*
X81971624Y-63660276D01*
X81971584Y-63660203D01*
X81907206Y-63680357D01*
X81839827Y-63661869D01*
X81836115Y-63659483D01*
X81833004Y-63657404D01*
X81657808Y-63563760D01*
X81498662Y-63515484D01*
X81467701Y-63506092D01*
X81467699Y-63506091D01*
X81467701Y-63506091D01*
X81270000Y-63486620D01*
X81072302Y-63506091D01*
X81072299Y-63506092D01*
X80882196Y-63563759D01*
X80882194Y-63563759D01*
X80882184Y-63563763D01*
X80876565Y-63566091D01*
X80875916Y-63564524D01*
X80815452Y-63577108D01*
X80751101Y-63552776D01*
X80746207Y-63549112D01*
X80746206Y-63549111D01*
X80609203Y-63498011D01*
X80548654Y-63491500D01*
X80548638Y-63491500D01*
X79451362Y-63491500D01*
X79451345Y-63491500D01*
X79390797Y-63498011D01*
X79390795Y-63498011D01*
X79253795Y-63549111D01*
X79136739Y-63636739D01*
X79049111Y-63753795D01*
X78998011Y-63890795D01*
X78998011Y-63890797D01*
X78991500Y-63951345D01*
X78991500Y-65048654D01*
X78998011Y-65109202D01*
X78998011Y-65109204D01*
X79038032Y-65216500D01*
X79049111Y-65246204D01*
X79136739Y-65363261D01*
X79253796Y-65450889D01*
X79368949Y-65493839D01*
X79390793Y-65501987D01*
X79390799Y-65501989D01*
X79418050Y-65504918D01*
X79451345Y-65508499D01*
X79451362Y-65508500D01*
X80548638Y-65508500D01*
X80548654Y-65508499D01*
X80575692Y-65505591D01*
X80609201Y-65501989D01*
X80609205Y-65501987D01*
X80609207Y-65501987D01*
X80746199Y-65450891D01*
X80746201Y-65450890D01*
X80746200Y-65450890D01*
X80746204Y-65450889D01*
X80751098Y-65447225D01*
X80816560Y-65422807D01*
X80875929Y-65435441D01*
X80876564Y-65433909D01*
X80882185Y-65436237D01*
X80882193Y-65436239D01*
X80882196Y-65436241D01*
X81072299Y-65493908D01*
X81072298Y-65493908D01*
X81090024Y-65495653D01*
X81270000Y-65513380D01*
X81467701Y-65493908D01*
X81657804Y-65436241D01*
X81657808Y-65436239D01*
X81832995Y-65342600D01*
X81832996Y-65342599D01*
X81833004Y-65342595D01*
X81833010Y-65342589D01*
X81836101Y-65340525D01*
X81837978Y-65339936D01*
X81838377Y-65339724D01*
X81838417Y-65339799D01*
X81902776Y-65319642D01*
X81970158Y-65338121D01*
X81973899Y-65340525D01*
X81976993Y-65342593D01*
X81976996Y-65342595D01*
X81976998Y-65342596D01*
X81977004Y-65342600D01*
X82152191Y-65436239D01*
X82152193Y-65436239D01*
X82152196Y-65436241D01*
X82342299Y-65493908D01*
X82342298Y-65493908D01*
X82360024Y-65495653D01*
X82540000Y-65513380D01*
X82737701Y-65493908D01*
X82927804Y-65436241D01*
X82927808Y-65436239D01*
X83102995Y-65342600D01*
X83102996Y-65342599D01*
X83103004Y-65342595D01*
X83103010Y-65342589D01*
X83106101Y-65340525D01*
X83107978Y-65339936D01*
X83108377Y-65339724D01*
X83108417Y-65339799D01*
X83172776Y-65319642D01*
X83240158Y-65338121D01*
X83243899Y-65340525D01*
X83246993Y-65342593D01*
X83246996Y-65342595D01*
X83246998Y-65342596D01*
X83247004Y-65342600D01*
X83422191Y-65436239D01*
X83422193Y-65436239D01*
X83422196Y-65436241D01*
X83612299Y-65493908D01*
X83612298Y-65493908D01*
X83630024Y-65495653D01*
X83810000Y-65513380D01*
X84007701Y-65493908D01*
X84197804Y-65436241D01*
X84197808Y-65436239D01*
X84372995Y-65342600D01*
X84372996Y-65342599D01*
X84373004Y-65342595D01*
X84373010Y-65342589D01*
X84376101Y-65340525D01*
X84377978Y-65339936D01*
X84378377Y-65339724D01*
X84378417Y-65339799D01*
X84442776Y-65319642D01*
X84510158Y-65338121D01*
X84513899Y-65340525D01*
X84516993Y-65342593D01*
X84516996Y-65342595D01*
X84516998Y-65342596D01*
X84517004Y-65342600D01*
X84692191Y-65436239D01*
X84692193Y-65436239D01*
X84692196Y-65436241D01*
X84882299Y-65493908D01*
X84882298Y-65493908D01*
X84900024Y-65495653D01*
X85080000Y-65513380D01*
X85277701Y-65493908D01*
X85467804Y-65436241D01*
X85467808Y-65436239D01*
X85642998Y-65342599D01*
X85643000Y-65342596D01*
X85643004Y-65342595D01*
X85643429Y-65342246D01*
X85643696Y-65342132D01*
X85648067Y-65339212D01*
X85648620Y-65340040D01*
X85707735Y-65314929D01*
X85776603Y-65326715D01*
X85790989Y-65334991D01*
X85791740Y-65335493D01*
X85965461Y-65428348D01*
X86100000Y-65469159D01*
X86100000Y-64748938D01*
X86181115Y-64812072D01*
X86291595Y-64850000D01*
X86379005Y-64850000D01*
X86465216Y-64835614D01*
X86567947Y-64780019D01*
X86600000Y-64745200D01*
X86600000Y-65469159D01*
X86734534Y-65428349D01*
X86908256Y-65335494D01*
X86908993Y-65335002D01*
X86909438Y-65334862D01*
X86913632Y-65332621D01*
X86914056Y-65333415D01*
X86975668Y-65314114D01*
X87043051Y-65332589D01*
X87056563Y-65342240D01*
X87056994Y-65342594D01*
X87056997Y-65342596D01*
X87232191Y-65436239D01*
X87232193Y-65436239D01*
X87232196Y-65436241D01*
X87422299Y-65493908D01*
X87422298Y-65493908D01*
X87440024Y-65495653D01*
X87620000Y-65513380D01*
X87817701Y-65493908D01*
X88007804Y-65436241D01*
X88007808Y-65436239D01*
X88182995Y-65342600D01*
X88182996Y-65342599D01*
X88183004Y-65342595D01*
X88183010Y-65342589D01*
X88186101Y-65340525D01*
X88187978Y-65339936D01*
X88188377Y-65339724D01*
X88188417Y-65339799D01*
X88252776Y-65319642D01*
X88320158Y-65338121D01*
X88323899Y-65340525D01*
X88326993Y-65342593D01*
X88326996Y-65342595D01*
X88326998Y-65342596D01*
X88327004Y-65342600D01*
X88502191Y-65436239D01*
X88502193Y-65436239D01*
X88502196Y-65436241D01*
X88692299Y-65493908D01*
X88692298Y-65493908D01*
X88710024Y-65495653D01*
X88890000Y-65513380D01*
X89087701Y-65493908D01*
X89277804Y-65436241D01*
X89277808Y-65436239D01*
X89452995Y-65342600D01*
X89452996Y-65342599D01*
X89453004Y-65342595D01*
X89453010Y-65342589D01*
X89456101Y-65340525D01*
X89457978Y-65339936D01*
X89458377Y-65339724D01*
X89458417Y-65339799D01*
X89522776Y-65319642D01*
X89590158Y-65338121D01*
X89593899Y-65340525D01*
X89596993Y-65342593D01*
X89596996Y-65342595D01*
X89596998Y-65342596D01*
X89597004Y-65342600D01*
X89772191Y-65436239D01*
X89772193Y-65436239D01*
X89772196Y-65436241D01*
X89911996Y-65478648D01*
X89970434Y-65516946D01*
X89998890Y-65580758D01*
X90000000Y-65597309D01*
X90000000Y-67735425D01*
X89980315Y-67802464D01*
X89927511Y-67848219D01*
X89858353Y-67858163D01*
X89794797Y-67829138D01*
X89772192Y-67803247D01*
X89745723Y-67762734D01*
X89745715Y-67762723D01*
X89593243Y-67597097D01*
X89593238Y-67597092D01*
X89415577Y-67458812D01*
X89415572Y-67458808D01*
X89217580Y-67351661D01*
X89217577Y-67351659D01*
X89217574Y-67351658D01*
X89217571Y-67351657D01*
X89217569Y-67351656D01*
X89004637Y-67278556D01*
X88782569Y-67241500D01*
X88557431Y-67241500D01*
X88335362Y-67278556D01*
X88122430Y-67351656D01*
X88122419Y-67351661D01*
X87924427Y-67458808D01*
X87924422Y-67458812D01*
X87746761Y-67597092D01*
X87746756Y-67597097D01*
X87594284Y-67762723D01*
X87594276Y-67762734D01*
X87503808Y-67901206D01*
X87450662Y-67946562D01*
X87381431Y-67955986D01*
X87318095Y-67926484D01*
X87296192Y-67901206D01*
X87223639Y-67790156D01*
X87205722Y-67762732D01*
X87205719Y-67762729D01*
X87205715Y-67762723D01*
X87053243Y-67597097D01*
X87053238Y-67597092D01*
X86875577Y-67458812D01*
X86875572Y-67458808D01*
X86677580Y-67351661D01*
X86677577Y-67351659D01*
X86677574Y-67351658D01*
X86677571Y-67351657D01*
X86677569Y-67351656D01*
X86464637Y-67278556D01*
X86242569Y-67241500D01*
X86017431Y-67241500D01*
X85795362Y-67278556D01*
X85582430Y-67351656D01*
X85582419Y-67351661D01*
X85384427Y-67458808D01*
X85384422Y-67458812D01*
X85206761Y-67597092D01*
X85206756Y-67597097D01*
X85054284Y-67762723D01*
X85054276Y-67762734D01*
X84963808Y-67901206D01*
X84910662Y-67946562D01*
X84841431Y-67955986D01*
X84778095Y-67926484D01*
X84756192Y-67901206D01*
X84683639Y-67790156D01*
X84665722Y-67762732D01*
X84665719Y-67762729D01*
X84665715Y-67762723D01*
X84513243Y-67597097D01*
X84513238Y-67597092D01*
X84335577Y-67458812D01*
X84335572Y-67458808D01*
X84137580Y-67351661D01*
X84137577Y-67351659D01*
X84137574Y-67351658D01*
X84137571Y-67351657D01*
X84137569Y-67351656D01*
X83924637Y-67278556D01*
X83702569Y-67241500D01*
X83477431Y-67241500D01*
X83255362Y-67278556D01*
X83042430Y-67351656D01*
X83042419Y-67351661D01*
X82844427Y-67458808D01*
X82844422Y-67458812D01*
X82666761Y-67597092D01*
X82666756Y-67597097D01*
X82514284Y-67762723D01*
X82514276Y-67762734D01*
X82423808Y-67901206D01*
X82370662Y-67946562D01*
X82301431Y-67955986D01*
X82238095Y-67926484D01*
X82216192Y-67901206D01*
X82143639Y-67790156D01*
X82125722Y-67762732D01*
X82125719Y-67762729D01*
X82125715Y-67762723D01*
X81973243Y-67597097D01*
X81973238Y-67597092D01*
X81795577Y-67458812D01*
X81795572Y-67458808D01*
X81597580Y-67351661D01*
X81597577Y-67351659D01*
X81597574Y-67351658D01*
X81597571Y-67351657D01*
X81597569Y-67351656D01*
X81384637Y-67278556D01*
X81162569Y-67241500D01*
X80937431Y-67241500D01*
X80715362Y-67278556D01*
X80502430Y-67351656D01*
X80502419Y-67351661D01*
X80304427Y-67458808D01*
X80304422Y-67458812D01*
X80126761Y-67597092D01*
X80126756Y-67597097D01*
X79974284Y-67762723D01*
X79974276Y-67762734D01*
X79883808Y-67901206D01*
X79830662Y-67946562D01*
X79761431Y-67955986D01*
X79698095Y-67926484D01*
X79676192Y-67901206D01*
X79603639Y-67790156D01*
X79585722Y-67762732D01*
X79585719Y-67762729D01*
X79585715Y-67762723D01*
X79433243Y-67597097D01*
X79433238Y-67597092D01*
X79255577Y-67458812D01*
X79255572Y-67458808D01*
X79057580Y-67351661D01*
X79057577Y-67351659D01*
X79057574Y-67351658D01*
X79057571Y-67351657D01*
X79057569Y-67351656D01*
X78844637Y-67278556D01*
X78622569Y-67241500D01*
X78397431Y-67241500D01*
X78175362Y-67278556D01*
X77962430Y-67351656D01*
X77962419Y-67351661D01*
X77764427Y-67458808D01*
X77764422Y-67458812D01*
X77586761Y-67597092D01*
X77586756Y-67597097D01*
X77434284Y-67762723D01*
X77434276Y-67762734D01*
X77311140Y-67951207D01*
X77220703Y-68157385D01*
X77165436Y-68375628D01*
X77165434Y-68375640D01*
X77146844Y-68599994D01*
X77146844Y-68600005D01*
X77165434Y-68824359D01*
X77165436Y-68824371D01*
X77220703Y-69042614D01*
X77311140Y-69248792D01*
X77434276Y-69437265D01*
X77434284Y-69437276D01*
X77586756Y-69602902D01*
X77586761Y-69602907D01*
X77598665Y-69612172D01*
X77764424Y-69741189D01*
X77764425Y-69741189D01*
X77764427Y-69741191D01*
X77891135Y-69809761D01*
X77962426Y-69848342D01*
X78175365Y-69921444D01*
X78397431Y-69958500D01*
X78622569Y-69958500D01*
X78844635Y-69921444D01*
X79057574Y-69848342D01*
X79255576Y-69741189D01*
X79433240Y-69602906D01*
X79532614Y-69494957D01*
X79585715Y-69437276D01*
X79585715Y-69437275D01*
X79585722Y-69437268D01*
X79676193Y-69298790D01*
X79729338Y-69253437D01*
X79798569Y-69244013D01*
X79861905Y-69273515D01*
X79883804Y-69298787D01*
X79974278Y-69437268D01*
X79974283Y-69437273D01*
X79974284Y-69437276D01*
X80126756Y-69602902D01*
X80126761Y-69602907D01*
X80138665Y-69612172D01*
X80304424Y-69741189D01*
X80304425Y-69741189D01*
X80304427Y-69741191D01*
X80431135Y-69809761D01*
X80502426Y-69848342D01*
X80715365Y-69921444D01*
X80937431Y-69958500D01*
X81162569Y-69958500D01*
X81384635Y-69921444D01*
X81597574Y-69848342D01*
X81795576Y-69741189D01*
X81973240Y-69602906D01*
X82072614Y-69494957D01*
X82125715Y-69437276D01*
X82125715Y-69437275D01*
X82125722Y-69437268D01*
X82216193Y-69298790D01*
X82269338Y-69253437D01*
X82338569Y-69244013D01*
X82401905Y-69273515D01*
X82423804Y-69298787D01*
X82514278Y-69437268D01*
X82514283Y-69437273D01*
X82514284Y-69437276D01*
X82666756Y-69602902D01*
X82666761Y-69602907D01*
X82678665Y-69612172D01*
X82844424Y-69741189D01*
X82844425Y-69741189D01*
X82844427Y-69741191D01*
X82971135Y-69809761D01*
X83042426Y-69848342D01*
X83255365Y-69921444D01*
X83477431Y-69958500D01*
X83702569Y-69958500D01*
X83924635Y-69921444D01*
X84137574Y-69848342D01*
X84335576Y-69741189D01*
X84513240Y-69602906D01*
X84612614Y-69494957D01*
X84665715Y-69437276D01*
X84665715Y-69437275D01*
X84665722Y-69437268D01*
X84756193Y-69298790D01*
X84809338Y-69253437D01*
X84878569Y-69244013D01*
X84941905Y-69273515D01*
X84963804Y-69298787D01*
X85054278Y-69437268D01*
X85054283Y-69437273D01*
X85054284Y-69437276D01*
X85206756Y-69602902D01*
X85206761Y-69602907D01*
X85218665Y-69612172D01*
X85384424Y-69741189D01*
X85384425Y-69741189D01*
X85384427Y-69741191D01*
X85511135Y-69809761D01*
X85582426Y-69848342D01*
X85795365Y-69921444D01*
X86017431Y-69958500D01*
X86242569Y-69958500D01*
X86464635Y-69921444D01*
X86677574Y-69848342D01*
X86875576Y-69741189D01*
X87053240Y-69602906D01*
X87152614Y-69494957D01*
X87205715Y-69437276D01*
X87205715Y-69437275D01*
X87205722Y-69437268D01*
X87296193Y-69298790D01*
X87349338Y-69253437D01*
X87418569Y-69244013D01*
X87481905Y-69273515D01*
X87503804Y-69298787D01*
X87594278Y-69437268D01*
X87594283Y-69437273D01*
X87594284Y-69437276D01*
X87746756Y-69602902D01*
X87746761Y-69602907D01*
X87758665Y-69612172D01*
X87924424Y-69741189D01*
X87924425Y-69741189D01*
X87924427Y-69741191D01*
X88051135Y-69809761D01*
X88122426Y-69848342D01*
X88335365Y-69921444D01*
X88557431Y-69958500D01*
X88782569Y-69958500D01*
X89004635Y-69921444D01*
X89217574Y-69848342D01*
X89415576Y-69741189D01*
X89593240Y-69602906D01*
X89692614Y-69494957D01*
X89745715Y-69437276D01*
X89745717Y-69437273D01*
X89745722Y-69437268D01*
X89772192Y-69396751D01*
X89825337Y-69351396D01*
X89894569Y-69341972D01*
X89957904Y-69371474D01*
X89995236Y-69430534D01*
X90000000Y-69464574D01*
X90000000Y-85875500D01*
X89980315Y-85942539D01*
X89927511Y-85988294D01*
X89876000Y-85999500D01*
X35000000Y-85999500D01*
X34782728Y-85990513D01*
X34584080Y-85981839D01*
X34579114Y-85981422D01*
X34363319Y-85954524D01*
X34162733Y-85928115D01*
X34158101Y-85927326D01*
X33945826Y-85882818D01*
X33747472Y-85838843D01*
X33743200Y-85837735D01*
X33535496Y-85775899D01*
X33341340Y-85714681D01*
X33337445Y-85713309D01*
X33135566Y-85634536D01*
X32947229Y-85556524D01*
X32943744Y-85554953D01*
X32884503Y-85525992D01*
X32749007Y-85459750D01*
X32568000Y-85365525D01*
X32564891Y-85363791D01*
X32378617Y-85252797D01*
X32206335Y-85143040D01*
X32203621Y-85141209D01*
X32027081Y-85015162D01*
X31864900Y-84890716D01*
X31862572Y-84888839D01*
X31696940Y-84748557D01*
X31545103Y-84609424D01*
X31390574Y-84454895D01*
X31251439Y-84303055D01*
X31111159Y-84137426D01*
X31109282Y-84135098D01*
X30984837Y-83972918D01*
X30858789Y-83796377D01*
X30856957Y-83793662D01*
X30747202Y-83621382D01*
X30636207Y-83435107D01*
X30634473Y-83431998D01*
X30540249Y-83250992D01*
X30472602Y-83112621D01*
X30445045Y-83056252D01*
X30443494Y-83052817D01*
X30365472Y-82864457D01*
X30286680Y-82662530D01*
X30285317Y-82658658D01*
X30224100Y-82464503D01*
X30213246Y-82428044D01*
X30162257Y-82256778D01*
X30161155Y-82252526D01*
X30146602Y-82186883D01*
X30117175Y-82054145D01*
X30112112Y-82030000D01*
X30072671Y-81841894D01*
X30071883Y-81837265D01*
X30057194Y-81725690D01*
X30045489Y-81636791D01*
X30018574Y-81420865D01*
X30018160Y-81415934D01*
X30009488Y-81217318D01*
X30003303Y-81067763D01*
X33145787Y-81067763D01*
X33175413Y-81337013D01*
X33175415Y-81337024D01*
X33234606Y-81563431D01*
X33243928Y-81599088D01*
X33349870Y-81848390D01*
X33466609Y-82039673D01*
X33490979Y-82079605D01*
X33490986Y-82079615D01*
X33664253Y-82287819D01*
X33664259Y-82287824D01*
X33865998Y-82468582D01*
X34091910Y-82618044D01*
X34337176Y-82733020D01*
X34337183Y-82733022D01*
X34337185Y-82733023D01*
X34596557Y-82811057D01*
X34596564Y-82811058D01*
X34596569Y-82811060D01*
X34864561Y-82850500D01*
X34864566Y-82850500D01*
X35067636Y-82850500D01*
X35119133Y-82846730D01*
X35270156Y-82835677D01*
X35382758Y-82810593D01*
X35534546Y-82776782D01*
X35534548Y-82776781D01*
X35534553Y-82776780D01*
X35787558Y-82680014D01*
X36023777Y-82547441D01*
X36046364Y-82530000D01*
X79000000Y-82530000D01*
X79000000Y-82827844D01*
X79006401Y-82887372D01*
X79006403Y-82887379D01*
X79056645Y-83022086D01*
X79056649Y-83022093D01*
X79142809Y-83137187D01*
X79142812Y-83137190D01*
X79257906Y-83223350D01*
X79257913Y-83223354D01*
X79392620Y-83273596D01*
X79392627Y-83273598D01*
X79452155Y-83279999D01*
X79452172Y-83280000D01*
X79750000Y-83280000D01*
X79750000Y-82530000D01*
X79000000Y-82530000D01*
X36046364Y-82530000D01*
X36238177Y-82381888D01*
X36308158Y-82309302D01*
X79646372Y-82309302D01*
X79675047Y-82422538D01*
X79738936Y-82520327D01*
X79831115Y-82592072D01*
X79941595Y-82630000D01*
X80029005Y-82630000D01*
X80115216Y-82615614D01*
X80217947Y-82560019D01*
X80245581Y-82530000D01*
X80250000Y-82530000D01*
X80250000Y-83280000D01*
X80547828Y-83280000D01*
X80547844Y-83279999D01*
X80607372Y-83273598D01*
X80607376Y-83273597D01*
X80742090Y-83223351D01*
X80750336Y-83217179D01*
X80815800Y-83192761D01*
X80879687Y-83206360D01*
X80879830Y-83206016D01*
X80881691Y-83206787D01*
X80883101Y-83207087D01*
X80885457Y-83208346D01*
X80885460Y-83208347D01*
X81020000Y-83249159D01*
X81020000Y-82530000D01*
X80250000Y-82530000D01*
X80245581Y-82530000D01*
X80297060Y-82474079D01*
X80343982Y-82367108D01*
X80348772Y-82309302D01*
X80916372Y-82309302D01*
X80945047Y-82422538D01*
X81008936Y-82520327D01*
X81101115Y-82592072D01*
X81211595Y-82630000D01*
X81299005Y-82630000D01*
X81385216Y-82615614D01*
X81487947Y-82560019D01*
X81520000Y-82525200D01*
X81520000Y-83249159D01*
X81654534Y-83208349D01*
X81828256Y-83115494D01*
X81828993Y-83115002D01*
X81829438Y-83114862D01*
X81833632Y-83112621D01*
X81834056Y-83113415D01*
X81895668Y-83094114D01*
X81963051Y-83112589D01*
X81976563Y-83122240D01*
X81976994Y-83122594D01*
X81976997Y-83122596D01*
X82152191Y-83216239D01*
X82152193Y-83216239D01*
X82152196Y-83216241D01*
X82342299Y-83273908D01*
X82342298Y-83273908D01*
X82360024Y-83275653D01*
X82540000Y-83293380D01*
X82737701Y-83273908D01*
X82927804Y-83216241D01*
X82944930Y-83207087D01*
X83102995Y-83122600D01*
X83102998Y-83122598D01*
X83103004Y-83122595D01*
X83103010Y-83122589D01*
X83106101Y-83120525D01*
X83107978Y-83119936D01*
X83108377Y-83119724D01*
X83108417Y-83119799D01*
X83172776Y-83099642D01*
X83240158Y-83118121D01*
X83243899Y-83120525D01*
X83246993Y-83122593D01*
X83246996Y-83122595D01*
X83246998Y-83122596D01*
X83247004Y-83122600D01*
X83422191Y-83216239D01*
X83422193Y-83216239D01*
X83422196Y-83216241D01*
X83612299Y-83273908D01*
X83612298Y-83273908D01*
X83630024Y-83275653D01*
X83810000Y-83293380D01*
X84007701Y-83273908D01*
X84197804Y-83216241D01*
X84214930Y-83207087D01*
X84372995Y-83122600D01*
X84372998Y-83122598D01*
X84373004Y-83122595D01*
X84373010Y-83122589D01*
X84376101Y-83120525D01*
X84377978Y-83119936D01*
X84378377Y-83119724D01*
X84378417Y-83119799D01*
X84442776Y-83099642D01*
X84510158Y-83118121D01*
X84513899Y-83120525D01*
X84516993Y-83122593D01*
X84516996Y-83122595D01*
X84516998Y-83122596D01*
X84517004Y-83122600D01*
X84692191Y-83216239D01*
X84692193Y-83216239D01*
X84692196Y-83216241D01*
X84882299Y-83273908D01*
X84882298Y-83273908D01*
X84900024Y-83275653D01*
X85080000Y-83293380D01*
X85277701Y-83273908D01*
X85467804Y-83216241D01*
X85484930Y-83207087D01*
X85642995Y-83122600D01*
X85642998Y-83122598D01*
X85643004Y-83122595D01*
X85643010Y-83122589D01*
X85646101Y-83120525D01*
X85647978Y-83119936D01*
X85648377Y-83119724D01*
X85648417Y-83119799D01*
X85712776Y-83099642D01*
X85780158Y-83118121D01*
X85783899Y-83120525D01*
X85786993Y-83122593D01*
X85786996Y-83122595D01*
X85786998Y-83122596D01*
X85787004Y-83122600D01*
X85962191Y-83216239D01*
X85962193Y-83216239D01*
X85962196Y-83216241D01*
X86152299Y-83273908D01*
X86152298Y-83273908D01*
X86170024Y-83275653D01*
X86350000Y-83293380D01*
X86547701Y-83273908D01*
X86737804Y-83216241D01*
X86754930Y-83207087D01*
X86912995Y-83122600D01*
X86912998Y-83122598D01*
X86913004Y-83122595D01*
X86913010Y-83122589D01*
X86916101Y-83120525D01*
X86917978Y-83119936D01*
X86918377Y-83119724D01*
X86918417Y-83119799D01*
X86982776Y-83099642D01*
X87050158Y-83118121D01*
X87053899Y-83120525D01*
X87056993Y-83122593D01*
X87056996Y-83122595D01*
X87056998Y-83122596D01*
X87057004Y-83122600D01*
X87232191Y-83216239D01*
X87232193Y-83216239D01*
X87232196Y-83216241D01*
X87422299Y-83273908D01*
X87422298Y-83273908D01*
X87440024Y-83275653D01*
X87620000Y-83293380D01*
X87817701Y-83273908D01*
X88007804Y-83216241D01*
X88183004Y-83122595D01*
X88336568Y-82996568D01*
X88462595Y-82843004D01*
X88556241Y-82667804D01*
X88613908Y-82477701D01*
X88633380Y-82280000D01*
X88613908Y-82082299D01*
X88556241Y-81892196D01*
X88556239Y-81892193D01*
X88556239Y-81892191D01*
X88462598Y-81717001D01*
X88462594Y-81716994D01*
X88336568Y-81563431D01*
X88183005Y-81437405D01*
X88182998Y-81437401D01*
X88007808Y-81343760D01*
X87818726Y-81286403D01*
X87817701Y-81286092D01*
X87817699Y-81286091D01*
X87817701Y-81286091D01*
X87620000Y-81266620D01*
X87422300Y-81286091D01*
X87232191Y-81343760D01*
X87056995Y-81437404D01*
X87053885Y-81439483D01*
X87052008Y-81440070D01*
X87051624Y-81440276D01*
X87051584Y-81440203D01*
X86987206Y-81460357D01*
X86919827Y-81441869D01*
X86916115Y-81439483D01*
X86913004Y-81437404D01*
X86737808Y-81343760D01*
X86548726Y-81286403D01*
X86547701Y-81286092D01*
X86547699Y-81286091D01*
X86547701Y-81286091D01*
X86350000Y-81266620D01*
X86152300Y-81286091D01*
X85962191Y-81343760D01*
X85786995Y-81437404D01*
X85783885Y-81439483D01*
X85782008Y-81440070D01*
X85781624Y-81440276D01*
X85781584Y-81440203D01*
X85717206Y-81460357D01*
X85649827Y-81441869D01*
X85646115Y-81439483D01*
X85643004Y-81437404D01*
X85467808Y-81343760D01*
X85278726Y-81286403D01*
X85277701Y-81286092D01*
X85277699Y-81286091D01*
X85277701Y-81286091D01*
X85080000Y-81266620D01*
X84882300Y-81286091D01*
X84692191Y-81343760D01*
X84516995Y-81437404D01*
X84513885Y-81439483D01*
X84512008Y-81440070D01*
X84511624Y-81440276D01*
X84511584Y-81440203D01*
X84447206Y-81460357D01*
X84379827Y-81441869D01*
X84376115Y-81439483D01*
X84373004Y-81437404D01*
X84197808Y-81343760D01*
X84008726Y-81286403D01*
X84007701Y-81286092D01*
X84007699Y-81286091D01*
X84007701Y-81286091D01*
X83810000Y-81266620D01*
X83612300Y-81286091D01*
X83422191Y-81343760D01*
X83246995Y-81437404D01*
X83243885Y-81439483D01*
X83242008Y-81440070D01*
X83241624Y-81440276D01*
X83241584Y-81440203D01*
X83177206Y-81460357D01*
X83109827Y-81441869D01*
X83106115Y-81439483D01*
X83103004Y-81437404D01*
X82927808Y-81343760D01*
X82738726Y-81286403D01*
X82737701Y-81286092D01*
X82737699Y-81286091D01*
X82737701Y-81286091D01*
X82540000Y-81266620D01*
X82342300Y-81286091D01*
X82152191Y-81343760D01*
X81977002Y-81437401D01*
X81976984Y-81437413D01*
X81976552Y-81437768D01*
X81976281Y-81437882D01*
X81971934Y-81440788D01*
X81971382Y-81439962D01*
X81912239Y-81465073D01*
X81843373Y-81453273D01*
X81829023Y-81445016D01*
X81828266Y-81444510D01*
X81654541Y-81351652D01*
X81520000Y-81310839D01*
X81520000Y-82031061D01*
X81438885Y-81967928D01*
X81328405Y-81930000D01*
X81240995Y-81930000D01*
X81154784Y-81944386D01*
X81052053Y-81999981D01*
X80972940Y-82085921D01*
X80926018Y-82192892D01*
X80916372Y-82309302D01*
X80348772Y-82309302D01*
X80353628Y-82250698D01*
X80324953Y-82137462D01*
X80261064Y-82039673D01*
X80168885Y-81967928D01*
X80058405Y-81930000D01*
X79970995Y-81930000D01*
X79884784Y-81944386D01*
X79782053Y-81999981D01*
X79702940Y-82085921D01*
X79656018Y-82192892D01*
X79646372Y-82309302D01*
X36308158Y-82309302D01*
X36426186Y-82186881D01*
X36538425Y-82030000D01*
X79000000Y-82030000D01*
X79750000Y-82030000D01*
X79750000Y-81280000D01*
X80250000Y-81280000D01*
X80250000Y-82030000D01*
X81020000Y-82030000D01*
X81020000Y-81310839D01*
X81019999Y-81310839D01*
X80885459Y-81351652D01*
X80885457Y-81351653D01*
X80883085Y-81352921D01*
X80881702Y-81353208D01*
X80879838Y-81353981D01*
X80879691Y-81353627D01*
X80814680Y-81367153D01*
X80750339Y-81342822D01*
X80742092Y-81336648D01*
X80742086Y-81336645D01*
X80607379Y-81286403D01*
X80607372Y-81286401D01*
X80547844Y-81280000D01*
X80250000Y-81280000D01*
X79750000Y-81280000D01*
X79452155Y-81280000D01*
X79392627Y-81286401D01*
X79392620Y-81286403D01*
X79257913Y-81336645D01*
X79257906Y-81336649D01*
X79142812Y-81422809D01*
X79142809Y-81422812D01*
X79056649Y-81537906D01*
X79056645Y-81537913D01*
X79006403Y-81672620D01*
X79006401Y-81672627D01*
X79000000Y-81732155D01*
X79000000Y-82030000D01*
X36538425Y-82030000D01*
X36583799Y-81966579D01*
X36657787Y-81822669D01*
X36707649Y-81725690D01*
X36707651Y-81725684D01*
X36707656Y-81725675D01*
X36795118Y-81469305D01*
X36844319Y-81202933D01*
X36854212Y-80932235D01*
X36824586Y-80662982D01*
X36756072Y-80400912D01*
X36650130Y-80151610D01*
X36509018Y-79920390D01*
X36419747Y-79813119D01*
X36335746Y-79712180D01*
X36335740Y-79712175D01*
X36134002Y-79531418D01*
X35908092Y-79381957D01*
X35908090Y-79381956D01*
X35662824Y-79266980D01*
X35662819Y-79266978D01*
X35662814Y-79266976D01*
X35403442Y-79188942D01*
X35403428Y-79188939D01*
X35287791Y-79171921D01*
X35135439Y-79149500D01*
X34932369Y-79149500D01*
X34932364Y-79149500D01*
X34729844Y-79164323D01*
X34729831Y-79164325D01*
X34465453Y-79223217D01*
X34465446Y-79223220D01*
X34212439Y-79319987D01*
X33976226Y-79452557D01*
X33761822Y-79618112D01*
X33573822Y-79813109D01*
X33573816Y-79813116D01*
X33416202Y-80033419D01*
X33416199Y-80033424D01*
X33292350Y-80274309D01*
X33292343Y-80274327D01*
X33204884Y-80530685D01*
X33204881Y-80530699D01*
X33155681Y-80797068D01*
X33155680Y-80797075D01*
X33145787Y-81067763D01*
X30003303Y-81067763D01*
X30000500Y-81000000D01*
X30000500Y-80999500D01*
X30000500Y-77925005D01*
X39906844Y-77925005D01*
X39925434Y-78149359D01*
X39925436Y-78149371D01*
X39980703Y-78367614D01*
X40071140Y-78573792D01*
X40194276Y-78762265D01*
X40194284Y-78762276D01*
X40314513Y-78892877D01*
X40346760Y-78927906D01*
X40524424Y-79066189D01*
X40524425Y-79066189D01*
X40524427Y-79066191D01*
X40646378Y-79132187D01*
X40722426Y-79173342D01*
X40935365Y-79246444D01*
X41157431Y-79283500D01*
X41382569Y-79283500D01*
X41604635Y-79246444D01*
X41817574Y-79173342D01*
X42015576Y-79066189D01*
X42193240Y-78927906D01*
X42345722Y-78762268D01*
X42436193Y-78623790D01*
X42489338Y-78578437D01*
X42558569Y-78569013D01*
X42621905Y-78598515D01*
X42643804Y-78623787D01*
X42734278Y-78762268D01*
X42734283Y-78762273D01*
X42734284Y-78762276D01*
X42854513Y-78892877D01*
X42886760Y-78927906D01*
X43064424Y-79066189D01*
X43064425Y-79066189D01*
X43064427Y-79066191D01*
X43186378Y-79132187D01*
X43262426Y-79173342D01*
X43475365Y-79246444D01*
X43697431Y-79283500D01*
X43922569Y-79283500D01*
X44144635Y-79246444D01*
X44357574Y-79173342D01*
X44555576Y-79066189D01*
X44733240Y-78927906D01*
X44885722Y-78762268D01*
X44976193Y-78623790D01*
X45029338Y-78578437D01*
X45098569Y-78569013D01*
X45161905Y-78598515D01*
X45183804Y-78623787D01*
X45274278Y-78762268D01*
X45274283Y-78762273D01*
X45274284Y-78762276D01*
X45394513Y-78892877D01*
X45426760Y-78927906D01*
X45604424Y-79066189D01*
X45604425Y-79066189D01*
X45604427Y-79066191D01*
X45726378Y-79132187D01*
X45802426Y-79173342D01*
X46015365Y-79246444D01*
X46237431Y-79283500D01*
X46462569Y-79283500D01*
X46684635Y-79246444D01*
X46897574Y-79173342D01*
X47095576Y-79066189D01*
X47273240Y-78927906D01*
X47425722Y-78762268D01*
X47516193Y-78623790D01*
X47569338Y-78578437D01*
X47638569Y-78569013D01*
X47701905Y-78598515D01*
X47723804Y-78623787D01*
X47814278Y-78762268D01*
X47814283Y-78762273D01*
X47814284Y-78762276D01*
X47934513Y-78892877D01*
X47966760Y-78927906D01*
X48144424Y-79066189D01*
X48144425Y-79066189D01*
X48144427Y-79066191D01*
X48266378Y-79132187D01*
X48342426Y-79173342D01*
X48555365Y-79246444D01*
X48777431Y-79283500D01*
X49002569Y-79283500D01*
X49224635Y-79246444D01*
X49437574Y-79173342D01*
X49635576Y-79066189D01*
X49813240Y-78927906D01*
X49965722Y-78762268D01*
X50056193Y-78623790D01*
X50109338Y-78578437D01*
X50178569Y-78569013D01*
X50241905Y-78598515D01*
X50263804Y-78623787D01*
X50354278Y-78762268D01*
X50354283Y-78762273D01*
X50354284Y-78762276D01*
X50474513Y-78892877D01*
X50506760Y-78927906D01*
X50684424Y-79066189D01*
X50684425Y-79066189D01*
X50684427Y-79066191D01*
X50806378Y-79132187D01*
X50882426Y-79173342D01*
X51095365Y-79246444D01*
X51317431Y-79283500D01*
X51542569Y-79283500D01*
X51764635Y-79246444D01*
X51977574Y-79173342D01*
X52175576Y-79066189D01*
X52353240Y-78927906D01*
X52422908Y-78852226D01*
X52482793Y-78816237D01*
X52552631Y-78818337D01*
X52610247Y-78857860D01*
X52630318Y-78892877D01*
X52676645Y-79017086D01*
X52676649Y-79017093D01*
X52762809Y-79132187D01*
X52762812Y-79132190D01*
X52877906Y-79218350D01*
X52877913Y-79218354D01*
X53012620Y-79268596D01*
X53012627Y-79268598D01*
X53072155Y-79274999D01*
X53072172Y-79275000D01*
X53720000Y-79275000D01*
X53720000Y-78360501D01*
X53827685Y-78409680D01*
X53934237Y-78425000D01*
X54005763Y-78425000D01*
X54112315Y-78409680D01*
X54220000Y-78360501D01*
X54220000Y-79275000D01*
X54867828Y-79275000D01*
X54867844Y-79274999D01*
X54927372Y-79268598D01*
X54927379Y-79268596D01*
X55062086Y-79218354D01*
X55062093Y-79218350D01*
X55177187Y-79132190D01*
X55177190Y-79132187D01*
X55263350Y-79017093D01*
X55263354Y-79017086D01*
X55313596Y-78882379D01*
X55313598Y-78882372D01*
X55319999Y-78822844D01*
X55320000Y-78822827D01*
X55320000Y-78175000D01*
X54403686Y-78175000D01*
X54429493Y-78134844D01*
X54470000Y-77996889D01*
X54470000Y-77853111D01*
X54429493Y-77715156D01*
X54403686Y-77675000D01*
X55320000Y-77675000D01*
X55320000Y-77027172D01*
X55319999Y-77027155D01*
X55313598Y-76967627D01*
X55313596Y-76967620D01*
X55263354Y-76832913D01*
X55263350Y-76832906D01*
X55177190Y-76717812D01*
X55177187Y-76717809D01*
X55062093Y-76631649D01*
X55062086Y-76631645D01*
X54927379Y-76581403D01*
X54927372Y-76581401D01*
X54867844Y-76575000D01*
X54220000Y-76575000D01*
X54220000Y-77489498D01*
X54112315Y-77440320D01*
X54005763Y-77425000D01*
X53934237Y-77425000D01*
X53827685Y-77440320D01*
X53720000Y-77489498D01*
X53720000Y-76575000D01*
X53072155Y-76575000D01*
X53012627Y-76581401D01*
X53012620Y-76581403D01*
X52877913Y-76631645D01*
X52877906Y-76631649D01*
X52762812Y-76717809D01*
X52762809Y-76717812D01*
X52676649Y-76832906D01*
X52676646Y-76832911D01*
X52630318Y-76957123D01*
X52588446Y-77013056D01*
X52522982Y-77037473D01*
X52454709Y-77022621D01*
X52422910Y-76997775D01*
X52353240Y-76922094D01*
X52175576Y-76783811D01*
X52175575Y-76783810D01*
X52175572Y-76783808D01*
X51977580Y-76676661D01*
X51977577Y-76676659D01*
X51977574Y-76676658D01*
X51977571Y-76676657D01*
X51977569Y-76676656D01*
X51764637Y-76603556D01*
X51542569Y-76566500D01*
X51317431Y-76566500D01*
X51095362Y-76603556D01*
X50882430Y-76676656D01*
X50882419Y-76676661D01*
X50684427Y-76783808D01*
X50684422Y-76783812D01*
X50506761Y-76922092D01*
X50506756Y-76922097D01*
X50354284Y-77087723D01*
X50354276Y-77087734D01*
X50263808Y-77226206D01*
X50210662Y-77271562D01*
X50141431Y-77280986D01*
X50078095Y-77251484D01*
X50056192Y-77226206D01*
X49965723Y-77087734D01*
X49965715Y-77087723D01*
X49813243Y-76922097D01*
X49813238Y-76922092D01*
X49635577Y-76783812D01*
X49635572Y-76783808D01*
X49437580Y-76676661D01*
X49437577Y-76676659D01*
X49437574Y-76676658D01*
X49437571Y-76676657D01*
X49437569Y-76676656D01*
X49224637Y-76603556D01*
X49002569Y-76566500D01*
X48777431Y-76566500D01*
X48555362Y-76603556D01*
X48342430Y-76676656D01*
X48342419Y-76676661D01*
X48144427Y-76783808D01*
X48144422Y-76783812D01*
X47966761Y-76922092D01*
X47966756Y-76922097D01*
X47814284Y-77087723D01*
X47814276Y-77087734D01*
X47723808Y-77226206D01*
X47670662Y-77271562D01*
X47601431Y-77280986D01*
X47538095Y-77251484D01*
X47516192Y-77226206D01*
X47425723Y-77087734D01*
X47425715Y-77087723D01*
X47273243Y-76922097D01*
X47273238Y-76922092D01*
X47095577Y-76783812D01*
X47095572Y-76783808D01*
X46897580Y-76676661D01*
X46897577Y-76676659D01*
X46897574Y-76676658D01*
X46897571Y-76676657D01*
X46897569Y-76676656D01*
X46684637Y-76603556D01*
X46462569Y-76566500D01*
X46237431Y-76566500D01*
X46015362Y-76603556D01*
X45802430Y-76676656D01*
X45802419Y-76676661D01*
X45604427Y-76783808D01*
X45604422Y-76783812D01*
X45426761Y-76922092D01*
X45426756Y-76922097D01*
X45274284Y-77087723D01*
X45274276Y-77087734D01*
X45183808Y-77226206D01*
X45130662Y-77271562D01*
X45061431Y-77280986D01*
X44998095Y-77251484D01*
X44976192Y-77226206D01*
X44885723Y-77087734D01*
X44885715Y-77087723D01*
X44733243Y-76922097D01*
X44733238Y-76922092D01*
X44555577Y-76783812D01*
X44555572Y-76783808D01*
X44357580Y-76676661D01*
X44357577Y-76676659D01*
X44357574Y-76676658D01*
X44357571Y-76676657D01*
X44357569Y-76676656D01*
X44144637Y-76603556D01*
X43922569Y-76566500D01*
X43697431Y-76566500D01*
X43475362Y-76603556D01*
X43262430Y-76676656D01*
X43262419Y-76676661D01*
X43064427Y-76783808D01*
X43064422Y-76783812D01*
X42886761Y-76922092D01*
X42886756Y-76922097D01*
X42734284Y-77087723D01*
X42734276Y-77087734D01*
X42643808Y-77226206D01*
X42590662Y-77271562D01*
X42521431Y-77280986D01*
X42458095Y-77251484D01*
X42436192Y-77226206D01*
X42345723Y-77087734D01*
X42345715Y-77087723D01*
X42193243Y-76922097D01*
X42193238Y-76922092D01*
X42015577Y-76783812D01*
X42015572Y-76783808D01*
X41817580Y-76676661D01*
X41817577Y-76676659D01*
X41817574Y-76676658D01*
X41817571Y-76676657D01*
X41817569Y-76676656D01*
X41604637Y-76603556D01*
X41382569Y-76566500D01*
X41157431Y-76566500D01*
X40935362Y-76603556D01*
X40722430Y-76676656D01*
X40722419Y-76676661D01*
X40524427Y-76783808D01*
X40524422Y-76783812D01*
X40346761Y-76922092D01*
X40346756Y-76922097D01*
X40194284Y-77087723D01*
X40194276Y-77087734D01*
X40071140Y-77276207D01*
X39980703Y-77482385D01*
X39925436Y-77700628D01*
X39925434Y-77700640D01*
X39906844Y-77924994D01*
X39906844Y-77925005D01*
X30000500Y-77925005D01*
X30000500Y-74150000D01*
X39411496Y-74150000D01*
X39431458Y-74339928D01*
X39431459Y-74339931D01*
X39490470Y-74521549D01*
X39490473Y-74521556D01*
X39585960Y-74686944D01*
X39713747Y-74828866D01*
X39868248Y-74941118D01*
X40042712Y-75018794D01*
X40229513Y-75058500D01*
X40420487Y-75058500D01*
X40607288Y-75018794D01*
X40781752Y-74941118D01*
X40936253Y-74828866D01*
X41064040Y-74686944D01*
X41087329Y-74646605D01*
X41137894Y-74598390D01*
X41206501Y-74585166D01*
X41271366Y-74611133D01*
X41302102Y-74646602D01*
X41310960Y-74661944D01*
X41374093Y-74732061D01*
X41438747Y-74803866D01*
X41593248Y-74916118D01*
X41767712Y-74993794D01*
X41954513Y-75033500D01*
X42145487Y-75033500D01*
X42332288Y-74993794D01*
X42506752Y-74916118D01*
X42661253Y-74803866D01*
X42694105Y-74767379D01*
X42753591Y-74730731D01*
X42823448Y-74732061D01*
X42878404Y-74767379D01*
X42888747Y-74778866D01*
X43043248Y-74891118D01*
X43217712Y-74968794D01*
X43404513Y-75008500D01*
X43595487Y-75008500D01*
X43782288Y-74968794D01*
X43956752Y-74891118D01*
X44111253Y-74778866D01*
X44239040Y-74636944D01*
X44334527Y-74471556D01*
X44393542Y-74289928D01*
X44413504Y-74100000D01*
X44393542Y-73910072D01*
X44334527Y-73728444D01*
X44239040Y-73563056D01*
X44111253Y-73421134D01*
X43956752Y-73308882D01*
X43782288Y-73231206D01*
X43782286Y-73231205D01*
X43595487Y-73191500D01*
X43404513Y-73191500D01*
X43217714Y-73231205D01*
X43217712Y-73231206D01*
X43063198Y-73300000D01*
X43043246Y-73308883D01*
X42888744Y-73421136D01*
X42855892Y-73457621D01*
X42796404Y-73494268D01*
X42726547Y-73492937D01*
X42671594Y-73457619D01*
X42661254Y-73446135D01*
X42626844Y-73421134D01*
X42506752Y-73333882D01*
X42332288Y-73256206D01*
X42332286Y-73256205D01*
X42145487Y-73216500D01*
X41954513Y-73216500D01*
X41767714Y-73256205D01*
X41593246Y-73333883D01*
X41438745Y-73446135D01*
X41310960Y-73588055D01*
X41287670Y-73628395D01*
X41237102Y-73676610D01*
X41168495Y-73689832D01*
X41103630Y-73663864D01*
X41072896Y-73628395D01*
X41072766Y-73628171D01*
X41064040Y-73613056D01*
X40957083Y-73494268D01*
X40936254Y-73471135D01*
X40901844Y-73446134D01*
X40781752Y-73358882D01*
X40607288Y-73281206D01*
X40607286Y-73281205D01*
X40420487Y-73241500D01*
X40229513Y-73241500D01*
X40042714Y-73281205D01*
X39868246Y-73358883D01*
X39713745Y-73471135D01*
X39585959Y-73613057D01*
X39490473Y-73778443D01*
X39490470Y-73778450D01*
X39447705Y-73910068D01*
X39431458Y-73960072D01*
X39411496Y-74150000D01*
X30000500Y-74150000D01*
X30000500Y-72504900D01*
X52286496Y-72504900D01*
X52306458Y-72694828D01*
X52306459Y-72694831D01*
X52365470Y-72876449D01*
X52365473Y-72876456D01*
X52460960Y-73041844D01*
X52588747Y-73183766D01*
X52743248Y-73296018D01*
X52917712Y-73373694D01*
X53104513Y-73413400D01*
X53295487Y-73413400D01*
X53482288Y-73373694D01*
X53647808Y-73300000D01*
X54686496Y-73300000D01*
X54706458Y-73489928D01*
X54706459Y-73489931D01*
X54765470Y-73671549D01*
X54765473Y-73671556D01*
X54860960Y-73836944D01*
X54988747Y-73978866D01*
X55143248Y-74091118D01*
X55317712Y-74168794D01*
X55504513Y-74208500D01*
X55695487Y-74208500D01*
X55882288Y-74168794D01*
X56056752Y-74091118D01*
X56211253Y-73978866D01*
X56339040Y-73836944D01*
X56434527Y-73671556D01*
X56493542Y-73489928D01*
X56513504Y-73300000D01*
X56493542Y-73110072D01*
X56457777Y-73000000D01*
X58986496Y-73000000D01*
X59006458Y-73189928D01*
X59006459Y-73189931D01*
X59065470Y-73371549D01*
X59065473Y-73371556D01*
X59160960Y-73536944D01*
X59288747Y-73678866D01*
X59443248Y-73791118D01*
X59617712Y-73868794D01*
X59804513Y-73908500D01*
X59995487Y-73908500D01*
X60182288Y-73868794D01*
X60356752Y-73791118D01*
X60511253Y-73678866D01*
X60639040Y-73536944D01*
X60734527Y-73371556D01*
X60793542Y-73189928D01*
X60813504Y-73000000D01*
X60793542Y-72810072D01*
X60734527Y-72628444D01*
X60639040Y-72463056D01*
X60511253Y-72321134D01*
X60356752Y-72208882D01*
X60182288Y-72131206D01*
X60182286Y-72131205D01*
X59995487Y-72091500D01*
X59804513Y-72091500D01*
X59617714Y-72131205D01*
X59443246Y-72208883D01*
X59288745Y-72321135D01*
X59160959Y-72463057D01*
X59065473Y-72628443D01*
X59065470Y-72628450D01*
X59021734Y-72763057D01*
X59006458Y-72810072D01*
X58986496Y-73000000D01*
X56457777Y-73000000D01*
X56434527Y-72928444D01*
X56339040Y-72763056D01*
X56211253Y-72621134D01*
X56056752Y-72508882D01*
X55882288Y-72431206D01*
X55882286Y-72431205D01*
X55695487Y-72391500D01*
X55504513Y-72391500D01*
X55317714Y-72431205D01*
X55143246Y-72508883D01*
X54988745Y-72621135D01*
X54860959Y-72763057D01*
X54765473Y-72928443D01*
X54765470Y-72928450D01*
X54706459Y-73110068D01*
X54706458Y-73110072D01*
X54686496Y-73300000D01*
X53647808Y-73300000D01*
X53656752Y-73296018D01*
X53811253Y-73183766D01*
X53939040Y-73041844D01*
X54034527Y-72876456D01*
X54093542Y-72694828D01*
X54113504Y-72504900D01*
X54093542Y-72314972D01*
X54034527Y-72133344D01*
X53939040Y-71967956D01*
X53811253Y-71826034D01*
X53656752Y-71713782D01*
X53482288Y-71636106D01*
X53482286Y-71636105D01*
X53295487Y-71596400D01*
X53104513Y-71596400D01*
X52917714Y-71636105D01*
X52743246Y-71713783D01*
X52588745Y-71826035D01*
X52460959Y-71967957D01*
X52365473Y-72133343D01*
X52365470Y-72133350D01*
X52306459Y-72314968D01*
X52306458Y-72314972D01*
X52286496Y-72504900D01*
X30000500Y-72504900D01*
X30000500Y-68230005D01*
X34486844Y-68230005D01*
X34505434Y-68454359D01*
X34505436Y-68454371D01*
X34560703Y-68672614D01*
X34651140Y-68878792D01*
X34774276Y-69067265D01*
X34774284Y-69067276D01*
X34926756Y-69232902D01*
X34926760Y-69232906D01*
X35104424Y-69371189D01*
X35104425Y-69371189D01*
X35104427Y-69371191D01*
X35144361Y-69392802D01*
X35302426Y-69478342D01*
X35515365Y-69551444D01*
X35737431Y-69588500D01*
X35962569Y-69588500D01*
X36184635Y-69551444D01*
X36397574Y-69478342D01*
X36555639Y-69392802D01*
X42311493Y-69392802D01*
X42329874Y-69602907D01*
X42330685Y-69612171D01*
X42387680Y-69824876D01*
X42387681Y-69824879D01*
X42387682Y-69824881D01*
X42432710Y-69921444D01*
X42480744Y-70024454D01*
X42607051Y-70204838D01*
X42762762Y-70360549D01*
X42943146Y-70486856D01*
X43142724Y-70579920D01*
X43355429Y-70636915D01*
X43512122Y-70650623D01*
X43574798Y-70656107D01*
X43574800Y-70656107D01*
X43574802Y-70656107D01*
X43629642Y-70651309D01*
X43794171Y-70636915D01*
X44006876Y-70579920D01*
X44206454Y-70486856D01*
X44386838Y-70360549D01*
X44542549Y-70204838D01*
X44668856Y-70024454D01*
X44761920Y-69824876D01*
X44818915Y-69612171D01*
X44838107Y-69392802D01*
X47191493Y-69392802D01*
X47209874Y-69602907D01*
X47210685Y-69612171D01*
X47267680Y-69824876D01*
X47267681Y-69824879D01*
X47267682Y-69824881D01*
X47312710Y-69921444D01*
X47360744Y-70024454D01*
X47487051Y-70204838D01*
X47642762Y-70360549D01*
X47823146Y-70486856D01*
X48022724Y-70579920D01*
X48235429Y-70636915D01*
X48392122Y-70650623D01*
X48454798Y-70656107D01*
X48454800Y-70656107D01*
X48454802Y-70656107D01*
X48509642Y-70651309D01*
X48674171Y-70636915D01*
X48886876Y-70579920D01*
X49086454Y-70486856D01*
X49266838Y-70360549D01*
X49422549Y-70204838D01*
X49548856Y-70024454D01*
X49641920Y-69824876D01*
X49698915Y-69612171D01*
X49718107Y-69392800D01*
X49716216Y-69371189D01*
X49707671Y-69273515D01*
X49698915Y-69173429D01*
X49641920Y-68960724D01*
X49612599Y-68897844D01*
X54310000Y-68897844D01*
X54316401Y-68957372D01*
X54316403Y-68957379D01*
X54366645Y-69092086D01*
X54366649Y-69092093D01*
X54452809Y-69207187D01*
X54452812Y-69207190D01*
X54567906Y-69293350D01*
X54567913Y-69293354D01*
X54702620Y-69343596D01*
X54702627Y-69343598D01*
X54762155Y-69349999D01*
X54762172Y-69350000D01*
X55410000Y-69350000D01*
X55410000Y-68435501D01*
X55517685Y-68484680D01*
X55624237Y-68500000D01*
X55695763Y-68500000D01*
X55802315Y-68484680D01*
X55910000Y-68435501D01*
X55910000Y-69350000D01*
X56557828Y-69350000D01*
X56557844Y-69349999D01*
X56617372Y-69343598D01*
X56617379Y-69343596D01*
X56752086Y-69293354D01*
X56752093Y-69293350D01*
X56867187Y-69207190D01*
X56867190Y-69207187D01*
X56953350Y-69092093D01*
X56953354Y-69092086D01*
X56999681Y-68967877D01*
X57041552Y-68911943D01*
X57107016Y-68887526D01*
X57175289Y-68902377D01*
X57207089Y-68927223D01*
X57276760Y-69002906D01*
X57454424Y-69141189D01*
X57454425Y-69141189D01*
X57454427Y-69141191D01*
X57576378Y-69207187D01*
X57652426Y-69248342D01*
X57865365Y-69321444D01*
X58087431Y-69358500D01*
X58312569Y-69358500D01*
X58534635Y-69321444D01*
X58747574Y-69248342D01*
X58945576Y-69141189D01*
X59123240Y-69002906D01*
X59275722Y-68837268D01*
X59366193Y-68698790D01*
X59419338Y-68653437D01*
X59488569Y-68644013D01*
X59551905Y-68673515D01*
X59573804Y-68698787D01*
X59664278Y-68837268D01*
X59664283Y-68837273D01*
X59664284Y-68837276D01*
X59777928Y-68960724D01*
X59816760Y-69002906D01*
X59994424Y-69141189D01*
X59994425Y-69141189D01*
X59994427Y-69141191D01*
X60116378Y-69207187D01*
X60192426Y-69248342D01*
X60405365Y-69321444D01*
X60627431Y-69358500D01*
X60852569Y-69358500D01*
X61074635Y-69321444D01*
X61287574Y-69248342D01*
X61485576Y-69141189D01*
X61663240Y-69002906D01*
X61815722Y-68837268D01*
X61906193Y-68698790D01*
X61959338Y-68653437D01*
X62028569Y-68644013D01*
X62091905Y-68673515D01*
X62113804Y-68698787D01*
X62204278Y-68837268D01*
X62204283Y-68837273D01*
X62204284Y-68837276D01*
X62317928Y-68960724D01*
X62356760Y-69002906D01*
X62534424Y-69141189D01*
X62534425Y-69141189D01*
X62534427Y-69141191D01*
X62656378Y-69207187D01*
X62732426Y-69248342D01*
X62945365Y-69321444D01*
X63167431Y-69358500D01*
X63392569Y-69358500D01*
X63614635Y-69321444D01*
X63827574Y-69248342D01*
X64025576Y-69141189D01*
X64203240Y-69002906D01*
X64355722Y-68837268D01*
X64446193Y-68698790D01*
X64499338Y-68653437D01*
X64568569Y-68644013D01*
X64631905Y-68673515D01*
X64653804Y-68698787D01*
X64744278Y-68837268D01*
X64744283Y-68837273D01*
X64744284Y-68837276D01*
X64857928Y-68960724D01*
X64896760Y-69002906D01*
X65074424Y-69141189D01*
X65074425Y-69141189D01*
X65074427Y-69141191D01*
X65196378Y-69207187D01*
X65272426Y-69248342D01*
X65485365Y-69321444D01*
X65707431Y-69358500D01*
X65932569Y-69358500D01*
X66154635Y-69321444D01*
X66367574Y-69248342D01*
X66565576Y-69141189D01*
X66743240Y-69002906D01*
X66895722Y-68837268D01*
X66986193Y-68698790D01*
X67039338Y-68653437D01*
X67108569Y-68644013D01*
X67171905Y-68673515D01*
X67193804Y-68698787D01*
X67284278Y-68837268D01*
X67284283Y-68837273D01*
X67284284Y-68837276D01*
X67397928Y-68960724D01*
X67436760Y-69002906D01*
X67614424Y-69141189D01*
X67614425Y-69141189D01*
X67614427Y-69141191D01*
X67736378Y-69207187D01*
X67812426Y-69248342D01*
X68025365Y-69321444D01*
X68247431Y-69358500D01*
X68472569Y-69358500D01*
X68694635Y-69321444D01*
X68907574Y-69248342D01*
X69105576Y-69141189D01*
X69283240Y-69002906D01*
X69435722Y-68837268D01*
X69558860Y-68648791D01*
X69649296Y-68442616D01*
X69704564Y-68224368D01*
X69705768Y-68209844D01*
X69723156Y-68000005D01*
X69723156Y-67999994D01*
X69704565Y-67775640D01*
X69704563Y-67775628D01*
X69649296Y-67557385D01*
X69606058Y-67458812D01*
X69558860Y-67351209D01*
X69542706Y-67326484D01*
X69435723Y-67162734D01*
X69435715Y-67162723D01*
X69283243Y-66997097D01*
X69283238Y-66997092D01*
X69105577Y-66858812D01*
X69105572Y-66858808D01*
X68907580Y-66751661D01*
X68907577Y-66751659D01*
X68907574Y-66751658D01*
X68907571Y-66751657D01*
X68907569Y-66751656D01*
X68694637Y-66678556D01*
X68472569Y-66641500D01*
X68247431Y-66641500D01*
X68025362Y-66678556D01*
X67812430Y-66751656D01*
X67812419Y-66751661D01*
X67614427Y-66858808D01*
X67614422Y-66858812D01*
X67436761Y-66997092D01*
X67436756Y-66997097D01*
X67284284Y-67162723D01*
X67284276Y-67162734D01*
X67193808Y-67301206D01*
X67140662Y-67346562D01*
X67071431Y-67355986D01*
X67008095Y-67326484D01*
X66986192Y-67301206D01*
X66895723Y-67162734D01*
X66895715Y-67162723D01*
X66743243Y-66997097D01*
X66743238Y-66997092D01*
X66565577Y-66858812D01*
X66565572Y-66858808D01*
X66367580Y-66751661D01*
X66367577Y-66751659D01*
X66367574Y-66751658D01*
X66367571Y-66751657D01*
X66367569Y-66751656D01*
X66154637Y-66678556D01*
X65932569Y-66641500D01*
X65707431Y-66641500D01*
X65485362Y-66678556D01*
X65272430Y-66751656D01*
X65272419Y-66751661D01*
X65074427Y-66858808D01*
X65074422Y-66858812D01*
X64896761Y-66997092D01*
X64896756Y-66997097D01*
X64744284Y-67162723D01*
X64744276Y-67162734D01*
X64653808Y-67301206D01*
X64600662Y-67346562D01*
X64531431Y-67355986D01*
X64468095Y-67326484D01*
X64446192Y-67301206D01*
X64355723Y-67162734D01*
X64355715Y-67162723D01*
X64203243Y-66997097D01*
X64203238Y-66997092D01*
X64025577Y-66858812D01*
X64025572Y-66858808D01*
X63827580Y-66751661D01*
X63827577Y-66751659D01*
X63827574Y-66751658D01*
X63827571Y-66751657D01*
X63827569Y-66751656D01*
X63614637Y-66678556D01*
X63392569Y-66641500D01*
X63167431Y-66641500D01*
X62945362Y-66678556D01*
X62732430Y-66751656D01*
X62732419Y-66751661D01*
X62534427Y-66858808D01*
X62534422Y-66858812D01*
X62356761Y-66997092D01*
X62356756Y-66997097D01*
X62204284Y-67162723D01*
X62204276Y-67162734D01*
X62113808Y-67301206D01*
X62060662Y-67346562D01*
X61991431Y-67355986D01*
X61928095Y-67326484D01*
X61906192Y-67301206D01*
X61815723Y-67162734D01*
X61815715Y-67162723D01*
X61663243Y-66997097D01*
X61663238Y-66997092D01*
X61485577Y-66858812D01*
X61485572Y-66858808D01*
X61287580Y-66751661D01*
X61287577Y-66751659D01*
X61287574Y-66751658D01*
X61287571Y-66751657D01*
X61287569Y-66751656D01*
X61074637Y-66678556D01*
X60852569Y-66641500D01*
X60627431Y-66641500D01*
X60405362Y-66678556D01*
X60192430Y-66751656D01*
X60192419Y-66751661D01*
X59994427Y-66858808D01*
X59994422Y-66858812D01*
X59816761Y-66997092D01*
X59816756Y-66997097D01*
X59664284Y-67162723D01*
X59664276Y-67162734D01*
X59573808Y-67301206D01*
X59520662Y-67346562D01*
X59451431Y-67355986D01*
X59388095Y-67326484D01*
X59366192Y-67301206D01*
X59275723Y-67162734D01*
X59275715Y-67162723D01*
X59123243Y-66997097D01*
X59123238Y-66997092D01*
X58945577Y-66858812D01*
X58945572Y-66858808D01*
X58747580Y-66751661D01*
X58747577Y-66751659D01*
X58747574Y-66751658D01*
X58747571Y-66751657D01*
X58747569Y-66751656D01*
X58534637Y-66678556D01*
X58312569Y-66641500D01*
X58087431Y-66641500D01*
X57865362Y-66678556D01*
X57652430Y-66751656D01*
X57652419Y-66751661D01*
X57454427Y-66858808D01*
X57454422Y-66858812D01*
X57276761Y-66997092D01*
X57207092Y-67072773D01*
X57147205Y-67108763D01*
X57077367Y-67106662D01*
X57019751Y-67067137D01*
X56999681Y-67032122D01*
X56953354Y-66907913D01*
X56953350Y-66907906D01*
X56867190Y-66792812D01*
X56867187Y-66792809D01*
X56752093Y-66706649D01*
X56752086Y-66706645D01*
X56617379Y-66656403D01*
X56617372Y-66656401D01*
X56557844Y-66650000D01*
X55910000Y-66650000D01*
X55910000Y-67564498D01*
X55802315Y-67515320D01*
X55695763Y-67500000D01*
X55624237Y-67500000D01*
X55517685Y-67515320D01*
X55410000Y-67564498D01*
X55410000Y-66650000D01*
X54762155Y-66650000D01*
X54702627Y-66656401D01*
X54702620Y-66656403D01*
X54567913Y-66706645D01*
X54567906Y-66706649D01*
X54452812Y-66792809D01*
X54452809Y-66792812D01*
X54366649Y-66907906D01*
X54366645Y-66907913D01*
X54316403Y-67042620D01*
X54316401Y-67042627D01*
X54310000Y-67102155D01*
X54310000Y-67750000D01*
X55226314Y-67750000D01*
X55200507Y-67790156D01*
X55160000Y-67928111D01*
X55160000Y-68071889D01*
X55200507Y-68209844D01*
X55226314Y-68250000D01*
X54310000Y-68250000D01*
X54310000Y-68897844D01*
X49612599Y-68897844D01*
X49548856Y-68761147D01*
X49548854Y-68761144D01*
X49548853Y-68761142D01*
X49436023Y-68600005D01*
X49422549Y-68580762D01*
X49266838Y-68425051D01*
X49086454Y-68298744D01*
X49086450Y-68298742D01*
X48886881Y-68205682D01*
X48886879Y-68205681D01*
X48886876Y-68205680D01*
X48735577Y-68165139D01*
X48674172Y-68148685D01*
X48674165Y-68148684D01*
X48454802Y-68129493D01*
X48454798Y-68129493D01*
X48235434Y-68148684D01*
X48235427Y-68148685D01*
X48022720Y-68205681D01*
X47823146Y-68298744D01*
X47823142Y-68298746D01*
X47642767Y-68425047D01*
X47642760Y-68425052D01*
X47487052Y-68580760D01*
X47487047Y-68580767D01*
X47360746Y-68761142D01*
X47360744Y-68761146D01*
X47267681Y-68960720D01*
X47210685Y-69173427D01*
X47210684Y-69173434D01*
X47191493Y-69392797D01*
X47191493Y-69392802D01*
X44838107Y-69392802D01*
X44838107Y-69392800D01*
X44836216Y-69371189D01*
X44827671Y-69273515D01*
X44818915Y-69173429D01*
X44761920Y-68960724D01*
X44668856Y-68761147D01*
X44668854Y-68761144D01*
X44668853Y-68761142D01*
X44556023Y-68600005D01*
X44542549Y-68580762D01*
X44386838Y-68425051D01*
X44206454Y-68298744D01*
X44206450Y-68298742D01*
X44006881Y-68205682D01*
X44006879Y-68205681D01*
X44006876Y-68205680D01*
X43855577Y-68165139D01*
X43794172Y-68148685D01*
X43794165Y-68148684D01*
X43574802Y-68129493D01*
X43574798Y-68129493D01*
X43355434Y-68148684D01*
X43355427Y-68148685D01*
X43142720Y-68205681D01*
X42943146Y-68298744D01*
X42943142Y-68298746D01*
X42762767Y-68425047D01*
X42762760Y-68425052D01*
X42607052Y-68580760D01*
X42607047Y-68580767D01*
X42480746Y-68761142D01*
X42480744Y-68761146D01*
X42387681Y-68960720D01*
X42330685Y-69173427D01*
X42330684Y-69173434D01*
X42311493Y-69392797D01*
X42311493Y-69392802D01*
X36555639Y-69392802D01*
X36595576Y-69371189D01*
X36773240Y-69232906D01*
X36925722Y-69067268D01*
X37048860Y-68878791D01*
X37139296Y-68672616D01*
X37194564Y-68454368D01*
X37195538Y-68442614D01*
X37213156Y-68230005D01*
X37213156Y-68229994D01*
X37194565Y-68005640D01*
X37194563Y-68005628D01*
X37157220Y-67858163D01*
X37139296Y-67787384D01*
X37048860Y-67581209D01*
X37033294Y-67557384D01*
X36968894Y-67458812D01*
X36925722Y-67392732D01*
X36925719Y-67392729D01*
X36925715Y-67392723D01*
X36773243Y-67227097D01*
X36773238Y-67227092D01*
X36595577Y-67088812D01*
X36595578Y-67088812D01*
X36595576Y-67088811D01*
X36559070Y-67069055D01*
X36509479Y-67019836D01*
X36494371Y-66951619D01*
X36518541Y-66886064D01*
X36559070Y-66850945D01*
X36559084Y-66850936D01*
X36595576Y-66831189D01*
X36773240Y-66692906D01*
X36925722Y-66527268D01*
X37048860Y-66338791D01*
X37139296Y-66132616D01*
X37141225Y-66125000D01*
X42036496Y-66125000D01*
X42056458Y-66314928D01*
X42056459Y-66314931D01*
X42115470Y-66496549D01*
X42115473Y-66496556D01*
X42210960Y-66661944D01*
X42338747Y-66803866D01*
X42493248Y-66916118D01*
X42667712Y-66993794D01*
X42854513Y-67033500D01*
X43045487Y-67033500D01*
X43232288Y-66993794D01*
X43406752Y-66916118D01*
X43561253Y-66803866D01*
X43689040Y-66661944D01*
X43784527Y-66496556D01*
X43843542Y-66314928D01*
X43863504Y-66125000D01*
X49236496Y-66125000D01*
X49256458Y-66314928D01*
X49256459Y-66314931D01*
X49315470Y-66496549D01*
X49315473Y-66496556D01*
X49410960Y-66661944D01*
X49538747Y-66803866D01*
X49693248Y-66916118D01*
X49867712Y-66993794D01*
X50054513Y-67033500D01*
X50245487Y-67033500D01*
X50432288Y-66993794D01*
X50606752Y-66916118D01*
X50761253Y-66803866D01*
X50889040Y-66661944D01*
X50984527Y-66496556D01*
X51043542Y-66314928D01*
X51063504Y-66125000D01*
X51043542Y-65935072D01*
X50984527Y-65753444D01*
X50889040Y-65588056D01*
X50761253Y-65446134D01*
X50606752Y-65333882D01*
X50432288Y-65256206D01*
X50432286Y-65256205D01*
X50245487Y-65216500D01*
X50054513Y-65216500D01*
X49867714Y-65256205D01*
X49867712Y-65256206D01*
X49696081Y-65332621D01*
X49693246Y-65333883D01*
X49538745Y-65446135D01*
X49410959Y-65588057D01*
X49315473Y-65753443D01*
X49315470Y-65753450D01*
X49263188Y-65914359D01*
X49256458Y-65935072D01*
X49236496Y-66125000D01*
X43863504Y-66125000D01*
X43843542Y-65935072D01*
X43784527Y-65753444D01*
X43689040Y-65588056D01*
X43561253Y-65446134D01*
X43406752Y-65333882D01*
X43232288Y-65256206D01*
X43232286Y-65256205D01*
X43045487Y-65216500D01*
X42854513Y-65216500D01*
X42667714Y-65256205D01*
X42667712Y-65256206D01*
X42496081Y-65332621D01*
X42493246Y-65333883D01*
X42338745Y-65446135D01*
X42210959Y-65588057D01*
X42115473Y-65753443D01*
X42115470Y-65753450D01*
X42063188Y-65914359D01*
X42056458Y-65935072D01*
X42036496Y-66125000D01*
X37141225Y-66125000D01*
X37194564Y-65914368D01*
X37194565Y-65914359D01*
X37213156Y-65690005D01*
X37213156Y-65689994D01*
X37194565Y-65465640D01*
X37194563Y-65465628D01*
X37163406Y-65342594D01*
X37139296Y-65247384D01*
X37048860Y-65041209D01*
X36925722Y-64852732D01*
X36774291Y-64688236D01*
X36743370Y-64625584D01*
X36751230Y-64556158D01*
X36795376Y-64502002D01*
X36822189Y-64488073D01*
X36942086Y-64443354D01*
X36942093Y-64443350D01*
X37057187Y-64357190D01*
X37057190Y-64357187D01*
X37143350Y-64242093D01*
X37143354Y-64242086D01*
X37193596Y-64107379D01*
X37193598Y-64107372D01*
X37199999Y-64047844D01*
X37200000Y-64047827D01*
X37200000Y-63400000D01*
X36283686Y-63400000D01*
X36309493Y-63359844D01*
X36350000Y-63221889D01*
X36350000Y-63078111D01*
X36309493Y-62940156D01*
X36283686Y-62900000D01*
X37200000Y-62900000D01*
X37200000Y-62625000D01*
X39136496Y-62625000D01*
X39156458Y-62814928D01*
X39156459Y-62814931D01*
X39215470Y-62996549D01*
X39215473Y-62996556D01*
X39310960Y-63161944D01*
X39438747Y-63303866D01*
X39593248Y-63416118D01*
X39767712Y-63493794D01*
X39954513Y-63533500D01*
X40145487Y-63533500D01*
X40332288Y-63493794D01*
X40506752Y-63416118D01*
X40528936Y-63400000D01*
X49686496Y-63400000D01*
X49706458Y-63589928D01*
X49706459Y-63589931D01*
X49765470Y-63771549D01*
X49765473Y-63771556D01*
X49860960Y-63936944D01*
X49988747Y-64078866D01*
X50143248Y-64191118D01*
X50317712Y-64268794D01*
X50504513Y-64308500D01*
X50695487Y-64308500D01*
X50882288Y-64268794D01*
X51056752Y-64191118D01*
X51211253Y-64078866D01*
X51339040Y-63936944D01*
X51434527Y-63771556D01*
X51493542Y-63589928D01*
X51513504Y-63400000D01*
X51493542Y-63210072D01*
X51474023Y-63150000D01*
X60436496Y-63150000D01*
X60456458Y-63339928D01*
X60456459Y-63339931D01*
X60515470Y-63521549D01*
X60515473Y-63521556D01*
X60610960Y-63686944D01*
X60738747Y-63828866D01*
X60893248Y-63941118D01*
X61067712Y-64018794D01*
X61254513Y-64058500D01*
X61445487Y-64058500D01*
X61632288Y-64018794D01*
X61806752Y-63941118D01*
X61961253Y-63828866D01*
X62089040Y-63686944D01*
X62184527Y-63521556D01*
X62243542Y-63339928D01*
X62263504Y-63150000D01*
X62243542Y-62960072D01*
X62184527Y-62778444D01*
X62089040Y-62613056D01*
X61961253Y-62471134D01*
X61806752Y-62358882D01*
X61632288Y-62281206D01*
X61632286Y-62281205D01*
X61445487Y-62241500D01*
X61254513Y-62241500D01*
X61067714Y-62281205D01*
X60893246Y-62358883D01*
X60738745Y-62471135D01*
X60610959Y-62613057D01*
X60515473Y-62778443D01*
X60515470Y-62778450D01*
X60462929Y-62940156D01*
X60456458Y-62960072D01*
X60436496Y-63150000D01*
X51474023Y-63150000D01*
X51434527Y-63028444D01*
X51339040Y-62863056D01*
X51211253Y-62721134D01*
X51056752Y-62608882D01*
X50882288Y-62531206D01*
X50882286Y-62531205D01*
X50695487Y-62491500D01*
X50504513Y-62491500D01*
X50317714Y-62531205D01*
X50143246Y-62608883D01*
X49988745Y-62721135D01*
X49860959Y-62863057D01*
X49765473Y-63028443D01*
X49765470Y-63028450D01*
X49706459Y-63210068D01*
X49706458Y-63210072D01*
X49686496Y-63400000D01*
X40528936Y-63400000D01*
X40661253Y-63303866D01*
X40789040Y-63161944D01*
X40884527Y-62996556D01*
X40943542Y-62814928D01*
X40963504Y-62625000D01*
X40943542Y-62435072D01*
X40884527Y-62253444D01*
X40789040Y-62088056D01*
X40661253Y-61946134D01*
X40506752Y-61833882D01*
X40332288Y-61756206D01*
X40332286Y-61756205D01*
X40145487Y-61716500D01*
X39954513Y-61716500D01*
X39767714Y-61756205D01*
X39593246Y-61833883D01*
X39438745Y-61946135D01*
X39310959Y-62088057D01*
X39215473Y-62253443D01*
X39215470Y-62253450D01*
X39156459Y-62435068D01*
X39156458Y-62435072D01*
X39136496Y-62625000D01*
X37200000Y-62625000D01*
X37200000Y-62252172D01*
X37199999Y-62252155D01*
X37193598Y-62192627D01*
X37193596Y-62192620D01*
X37143354Y-62057913D01*
X37143350Y-62057906D01*
X37057190Y-61942812D01*
X37057187Y-61942809D01*
X36942093Y-61856649D01*
X36942086Y-61856645D01*
X36807379Y-61806403D01*
X36807372Y-61806401D01*
X36747844Y-61800000D01*
X36100000Y-61800000D01*
X36100000Y-62714498D01*
X35992315Y-62665320D01*
X35885763Y-62650000D01*
X35814237Y-62650000D01*
X35707685Y-62665320D01*
X35600000Y-62714498D01*
X35600000Y-61800000D01*
X34952155Y-61800000D01*
X34892627Y-61806401D01*
X34892620Y-61806403D01*
X34757913Y-61856645D01*
X34757906Y-61856649D01*
X34642812Y-61942809D01*
X34642809Y-61942812D01*
X34556649Y-62057906D01*
X34556645Y-62057913D01*
X34506403Y-62192620D01*
X34506401Y-62192627D01*
X34500000Y-62252155D01*
X34500000Y-62900000D01*
X35416314Y-62900000D01*
X35390507Y-62940156D01*
X35350000Y-63078111D01*
X35350000Y-63221889D01*
X35390507Y-63359844D01*
X35416314Y-63400000D01*
X34500000Y-63400000D01*
X34500000Y-64047844D01*
X34506401Y-64107372D01*
X34506403Y-64107379D01*
X34556645Y-64242086D01*
X34556649Y-64242093D01*
X34642809Y-64357187D01*
X34642812Y-64357190D01*
X34757906Y-64443350D01*
X34757913Y-64443354D01*
X34877810Y-64488073D01*
X34933744Y-64529944D01*
X34958161Y-64595409D01*
X34943309Y-64663682D01*
X34925706Y-64688238D01*
X34774284Y-64852723D01*
X34774276Y-64852734D01*
X34651140Y-65041207D01*
X34560703Y-65247385D01*
X34505436Y-65465628D01*
X34505434Y-65465640D01*
X34486844Y-65689994D01*
X34486844Y-65690005D01*
X34505434Y-65914359D01*
X34505436Y-65914371D01*
X34560703Y-66132614D01*
X34651140Y-66338792D01*
X34774276Y-66527265D01*
X34774284Y-66527276D01*
X34926756Y-66692902D01*
X34926761Y-66692907D01*
X34944417Y-66706649D01*
X35104424Y-66831189D01*
X35104429Y-66831191D01*
X35104431Y-66831193D01*
X35140930Y-66850946D01*
X35190520Y-66900165D01*
X35205628Y-66968382D01*
X35181457Y-67033937D01*
X35140930Y-67069054D01*
X35104431Y-67088806D01*
X35104422Y-67088812D01*
X34926761Y-67227092D01*
X34926756Y-67227097D01*
X34774284Y-67392723D01*
X34774276Y-67392734D01*
X34651140Y-67581207D01*
X34560703Y-67787385D01*
X34505436Y-68005628D01*
X34505434Y-68005640D01*
X34486844Y-68229994D01*
X34486844Y-68230005D01*
X30000500Y-68230005D01*
X30000500Y-61300000D01*
X62386496Y-61300000D01*
X62406458Y-61489928D01*
X62406459Y-61489931D01*
X62465470Y-61671549D01*
X62465473Y-61671556D01*
X62560960Y-61836944D01*
X62688747Y-61978866D01*
X62843248Y-62091118D01*
X63017712Y-62168794D01*
X63204513Y-62208500D01*
X63395487Y-62208500D01*
X63582288Y-62168794D01*
X63756752Y-62091118D01*
X63911253Y-61978866D01*
X64039040Y-61836944D01*
X64134527Y-61671556D01*
X64193542Y-61489928D01*
X64213504Y-61300000D01*
X64193542Y-61110072D01*
X64134527Y-60928444D01*
X64039040Y-60763056D01*
X63911253Y-60621134D01*
X63756752Y-60508882D01*
X63582288Y-60431206D01*
X63582286Y-60431205D01*
X63395487Y-60391500D01*
X63204513Y-60391500D01*
X63017714Y-60431205D01*
X62843246Y-60508883D01*
X62688745Y-60621135D01*
X62560959Y-60763057D01*
X62465473Y-60928443D01*
X62465470Y-60928450D01*
X62406459Y-61110068D01*
X62406458Y-61110072D01*
X62386496Y-61300000D01*
X30000500Y-61300000D01*
X30000500Y-59600000D01*
X35386496Y-59600000D01*
X35406458Y-59789928D01*
X35406459Y-59789931D01*
X35465470Y-59971549D01*
X35465473Y-59971556D01*
X35560960Y-60136944D01*
X35688747Y-60278866D01*
X35843248Y-60391118D01*
X36017712Y-60468794D01*
X36204513Y-60508500D01*
X36395487Y-60508500D01*
X36582288Y-60468794D01*
X36756752Y-60391118D01*
X36911253Y-60278866D01*
X37039040Y-60136944D01*
X37134527Y-59971556D01*
X37193542Y-59789928D01*
X37213504Y-59600000D01*
X55286496Y-59600000D01*
X55306458Y-59789928D01*
X55306459Y-59789931D01*
X55365470Y-59971549D01*
X55365473Y-59971556D01*
X55460960Y-60136944D01*
X55588747Y-60278866D01*
X55743248Y-60391118D01*
X55917712Y-60468794D01*
X56104513Y-60508500D01*
X56295487Y-60508500D01*
X56482288Y-60468794D01*
X56656752Y-60391118D01*
X56811253Y-60278866D01*
X56939040Y-60136944D01*
X57034527Y-59971556D01*
X57093542Y-59789928D01*
X57113504Y-59600000D01*
X57093542Y-59410072D01*
X57034527Y-59228444D01*
X56939040Y-59063056D01*
X56811253Y-58921134D01*
X56656752Y-58808882D01*
X56482288Y-58731206D01*
X56482286Y-58731205D01*
X56295487Y-58691500D01*
X56104513Y-58691500D01*
X55917714Y-58731205D01*
X55743246Y-58808883D01*
X55588745Y-58921135D01*
X55460959Y-59063057D01*
X55365473Y-59228443D01*
X55365470Y-59228450D01*
X55306459Y-59410068D01*
X55306458Y-59410072D01*
X55286496Y-59600000D01*
X37213504Y-59600000D01*
X37193542Y-59410072D01*
X37134527Y-59228444D01*
X37039040Y-59063056D01*
X36911253Y-58921134D01*
X36756752Y-58808882D01*
X36582288Y-58731206D01*
X36582286Y-58731205D01*
X36395487Y-58691500D01*
X36204513Y-58691500D01*
X36017714Y-58731205D01*
X35843246Y-58808883D01*
X35688745Y-58921135D01*
X35560959Y-59063057D01*
X35465473Y-59228443D01*
X35465470Y-59228450D01*
X35406459Y-59410068D01*
X35406458Y-59410072D01*
X35386496Y-59600000D01*
X30000500Y-59600000D01*
X30000500Y-56825000D01*
X38836496Y-56825000D01*
X38856458Y-57014928D01*
X38856459Y-57014931D01*
X38915470Y-57196549D01*
X38915473Y-57196556D01*
X39010960Y-57361944D01*
X39138747Y-57503866D01*
X39293248Y-57616118D01*
X39467712Y-57693794D01*
X39654513Y-57733500D01*
X39845487Y-57733500D01*
X40032288Y-57693794D01*
X40206752Y-57616118D01*
X40361253Y-57503866D01*
X40489040Y-57361944D01*
X40584527Y-57196556D01*
X40643542Y-57014928D01*
X40663504Y-56825000D01*
X40643542Y-56635072D01*
X40588495Y-56465658D01*
X40584529Y-56453450D01*
X40584528Y-56453449D01*
X40584527Y-56453444D01*
X40489040Y-56288056D01*
X40361253Y-56146134D01*
X40206752Y-56033882D01*
X40032288Y-55956206D01*
X40032286Y-55956205D01*
X39845487Y-55916500D01*
X39654513Y-55916500D01*
X39467714Y-55956205D01*
X39293246Y-56033883D01*
X39138745Y-56146135D01*
X39010959Y-56288057D01*
X38915473Y-56453443D01*
X38915470Y-56453450D01*
X38858519Y-56628728D01*
X38856458Y-56635072D01*
X38836496Y-56825000D01*
X30000500Y-56825000D01*
X30000500Y-51300000D01*
X42686496Y-51300000D01*
X42706458Y-51489928D01*
X42706459Y-51489931D01*
X42765470Y-51671549D01*
X42765473Y-51671556D01*
X42860960Y-51836944D01*
X42948230Y-51933867D01*
X42987448Y-51977424D01*
X42988747Y-51978866D01*
X43143248Y-52091118D01*
X43295115Y-52158733D01*
X43310716Y-52165679D01*
X43363954Y-52210930D01*
X43384275Y-52277779D01*
X43365230Y-52345002D01*
X43352431Y-52361931D01*
X43265159Y-52458857D01*
X43169673Y-52624243D01*
X43169670Y-52624250D01*
X43112497Y-52800211D01*
X43110658Y-52805872D01*
X43090696Y-52995800D01*
X43110658Y-53185728D01*
X43110659Y-53185731D01*
X43169670Y-53367349D01*
X43169674Y-53367358D01*
X43178263Y-53382235D01*
X43194734Y-53450136D01*
X43178262Y-53506232D01*
X43107475Y-53628838D01*
X43107470Y-53628850D01*
X43051791Y-53800214D01*
X43048458Y-53810472D01*
X43028496Y-54000400D01*
X43048458Y-54190328D01*
X43048459Y-54190331D01*
X43107470Y-54371949D01*
X43107473Y-54371956D01*
X43202960Y-54537344D01*
X43330747Y-54679266D01*
X43485248Y-54791518D01*
X43659712Y-54869194D01*
X43846513Y-54908900D01*
X44037486Y-54908900D01*
X44037487Y-54908900D01*
X44185346Y-54877471D01*
X44255012Y-54882787D01*
X44310745Y-54924923D01*
X44334851Y-54990503D01*
X44319674Y-55058705D01*
X44284012Y-55099079D01*
X44143545Y-55201135D01*
X44015759Y-55343057D01*
X43917024Y-55514072D01*
X43915749Y-55513336D01*
X43875421Y-55560777D01*
X43808570Y-55581094D01*
X43807398Y-55581100D01*
X43795713Y-55581100D01*
X43608914Y-55620805D01*
X43434446Y-55698483D01*
X43279945Y-55810735D01*
X43152159Y-55952657D01*
X43056673Y-56118043D01*
X43056670Y-56118050D01*
X43009016Y-56264716D01*
X42997658Y-56299672D01*
X42977696Y-56489600D01*
X42997658Y-56679528D01*
X42997659Y-56679531D01*
X43056670Y-56861149D01*
X43056673Y-56861156D01*
X43152160Y-57026544D01*
X43279947Y-57168466D01*
X43434448Y-57280718D01*
X43608912Y-57358394D01*
X43795713Y-57398100D01*
X43986687Y-57398100D01*
X44173488Y-57358394D01*
X44347952Y-57280718D01*
X44502453Y-57168466D01*
X44630240Y-57026544D01*
X44725727Y-56861156D01*
X44725727Y-56861154D01*
X44728976Y-56855528D01*
X44730250Y-56856263D01*
X44770579Y-56808823D01*
X44837430Y-56788506D01*
X44838602Y-56788500D01*
X44850287Y-56788500D01*
X45037088Y-56748794D01*
X45211552Y-56671118D01*
X45366053Y-56558866D01*
X45493840Y-56416944D01*
X45589327Y-56251556D01*
X45648342Y-56069928D01*
X45668304Y-55880000D01*
X45648342Y-55690072D01*
X45589327Y-55508444D01*
X45569210Y-55473600D01*
X48921296Y-55473600D01*
X48941258Y-55663528D01*
X48941259Y-55663531D01*
X49000270Y-55845149D01*
X49000273Y-55845156D01*
X49095760Y-56010544D01*
X49192552Y-56118043D01*
X49217846Y-56146135D01*
X49223547Y-56152466D01*
X49378048Y-56264718D01*
X49552512Y-56342394D01*
X49587797Y-56349894D01*
X49649279Y-56383086D01*
X49683055Y-56444249D01*
X49685337Y-56458222D01*
X49703258Y-56628728D01*
X49703259Y-56628731D01*
X49762270Y-56810349D01*
X49762273Y-56810356D01*
X49857760Y-56975744D01*
X49985547Y-57117666D01*
X50140048Y-57229918D01*
X50314512Y-57307594D01*
X50501313Y-57347300D01*
X50692287Y-57347300D01*
X50879088Y-57307594D01*
X51053552Y-57229918D01*
X51208053Y-57117666D01*
X51335840Y-56975744D01*
X51431327Y-56810356D01*
X51490342Y-56628728D01*
X51510304Y-56438800D01*
X51490342Y-56248872D01*
X51431327Y-56067244D01*
X51335840Y-55901856D01*
X51208053Y-55759934D01*
X51053552Y-55647682D01*
X50879088Y-55570006D01*
X50879086Y-55570005D01*
X50843801Y-55562505D01*
X50782319Y-55529312D01*
X50748543Y-55468148D01*
X50746263Y-55454187D01*
X50728342Y-55283672D01*
X50669327Y-55102044D01*
X50573840Y-54936656D01*
X50446053Y-54794734D01*
X50291552Y-54682482D01*
X50117088Y-54604806D01*
X50117086Y-54604805D01*
X49930287Y-54565100D01*
X49739313Y-54565100D01*
X49552514Y-54604805D01*
X49552512Y-54604806D01*
X49385272Y-54679266D01*
X49378046Y-54682483D01*
X49223545Y-54794735D01*
X49095759Y-54936657D01*
X49000273Y-55102043D01*
X49000270Y-55102050D01*
X48941259Y-55283668D01*
X48941258Y-55283672D01*
X48921296Y-55473600D01*
X45569210Y-55473600D01*
X45493840Y-55343056D01*
X45366053Y-55201134D01*
X45211552Y-55088882D01*
X45037088Y-55011206D01*
X45037086Y-55011205D01*
X44850287Y-54971500D01*
X44659313Y-54971500D01*
X44511454Y-55002928D01*
X44441787Y-54997612D01*
X44386053Y-54955475D01*
X44361948Y-54889895D01*
X44377125Y-54821693D01*
X44412788Y-54781320D01*
X44548825Y-54682483D01*
X44553253Y-54679266D01*
X44681040Y-54537344D01*
X44776527Y-54371956D01*
X44835542Y-54190328D01*
X44855504Y-54000400D01*
X44835542Y-53810472D01*
X44776527Y-53628844D01*
X44776300Y-53628450D01*
X44767937Y-53613965D01*
X44751464Y-53546065D01*
X44767936Y-53489969D01*
X44838727Y-53367356D01*
X44897742Y-53185728D01*
X44917263Y-53000000D01*
X45486496Y-53000000D01*
X45506458Y-53189928D01*
X45506459Y-53189931D01*
X45565470Y-53371549D01*
X45565473Y-53371556D01*
X45660960Y-53536944D01*
X45788747Y-53678866D01*
X45943248Y-53791118D01*
X46117712Y-53868794D01*
X46304513Y-53908500D01*
X46495487Y-53908500D01*
X46682288Y-53868794D01*
X46856752Y-53791118D01*
X47011253Y-53678866D01*
X47139040Y-53536944D01*
X47139041Y-53536940D01*
X47142862Y-53531684D01*
X47144550Y-53532910D01*
X47188021Y-53491443D01*
X47256625Y-53478204D01*
X47321496Y-53504157D01*
X47362038Y-53561061D01*
X47362796Y-53563320D01*
X47365470Y-53571549D01*
X47365473Y-53571556D01*
X47460960Y-53736944D01*
X47588747Y-53878866D01*
X47743248Y-53991118D01*
X47917712Y-54068794D01*
X48104513Y-54108500D01*
X48295487Y-54108500D01*
X48482288Y-54068794D01*
X48636803Y-54000000D01*
X61686496Y-54000000D01*
X61706458Y-54189928D01*
X61706459Y-54189931D01*
X61765470Y-54371549D01*
X61765473Y-54371556D01*
X61860960Y-54536944D01*
X61988747Y-54678866D01*
X62143248Y-54791118D01*
X62317712Y-54868794D01*
X62504513Y-54908500D01*
X62695487Y-54908500D01*
X62882288Y-54868794D01*
X63056752Y-54791118D01*
X63211253Y-54678866D01*
X63339040Y-54536944D01*
X63434527Y-54371556D01*
X63493542Y-54189928D01*
X63513504Y-54000000D01*
X63493542Y-53810072D01*
X63434527Y-53628444D01*
X63339040Y-53463056D01*
X63211253Y-53321134D01*
X63056752Y-53208882D01*
X62882288Y-53131206D01*
X62882286Y-53131205D01*
X62695487Y-53091500D01*
X62504513Y-53091500D01*
X62317714Y-53131205D01*
X62317712Y-53131206D01*
X62163198Y-53200000D01*
X62143246Y-53208883D01*
X61988745Y-53321135D01*
X61860959Y-53463057D01*
X61765473Y-53628443D01*
X61765470Y-53628450D01*
X61709661Y-53800214D01*
X61706458Y-53810072D01*
X61686496Y-54000000D01*
X48636803Y-54000000D01*
X48656752Y-53991118D01*
X48811253Y-53878866D01*
X48939040Y-53736944D01*
X49034527Y-53571556D01*
X49093542Y-53389928D01*
X49113504Y-53200000D01*
X49093542Y-53010072D01*
X49055085Y-52891714D01*
X54699166Y-52891714D01*
X54719128Y-53081642D01*
X54719129Y-53081645D01*
X54778140Y-53263263D01*
X54778143Y-53263270D01*
X54873630Y-53428658D01*
X55001417Y-53570580D01*
X55155918Y-53682832D01*
X55330382Y-53760508D01*
X55517183Y-53800214D01*
X55708157Y-53800214D01*
X55894958Y-53760508D01*
X56069422Y-53682832D01*
X56223923Y-53570580D01*
X56351710Y-53428658D01*
X56447197Y-53263270D01*
X56506212Y-53081642D01*
X56526174Y-52891714D01*
X56506212Y-52701786D01*
X56447197Y-52520158D01*
X56351710Y-52354770D01*
X56269814Y-52263815D01*
X56239584Y-52200823D01*
X56242120Y-52180428D01*
X56228066Y-52184848D01*
X56160663Y-52166443D01*
X56152819Y-52161188D01*
X56148091Y-52157753D01*
X56069422Y-52100596D01*
X55894958Y-52022920D01*
X55894956Y-52022919D01*
X55708157Y-51983214D01*
X55517183Y-51983214D01*
X55330384Y-52022919D01*
X55282422Y-52044273D01*
X55185782Y-52087300D01*
X55155916Y-52100597D01*
X55001415Y-52212849D01*
X54873629Y-52354771D01*
X54778143Y-52520157D01*
X54778140Y-52520164D01*
X54721069Y-52695811D01*
X54719128Y-52701786D01*
X54699166Y-52891714D01*
X49055085Y-52891714D01*
X49034527Y-52828444D01*
X48939040Y-52663056D01*
X48811253Y-52521134D01*
X48656752Y-52408882D01*
X48482288Y-52331206D01*
X48482286Y-52331205D01*
X48295487Y-52291500D01*
X48104513Y-52291500D01*
X47917714Y-52331205D01*
X47743246Y-52408883D01*
X47588745Y-52521135D01*
X47460958Y-52663057D01*
X47457138Y-52668316D01*
X47455456Y-52667094D01*
X47411933Y-52708579D01*
X47343324Y-52721790D01*
X47278463Y-52695811D01*
X47237945Y-52638890D01*
X47237202Y-52636674D01*
X47234530Y-52628453D01*
X47234529Y-52628450D01*
X47234527Y-52628444D01*
X47139040Y-52463056D01*
X47011253Y-52321134D01*
X46916770Y-52252488D01*
X46856751Y-52208881D01*
X46775316Y-52172624D01*
X46722079Y-52127374D01*
X46701758Y-52060525D01*
X46720803Y-51993301D01*
X46773170Y-51947046D01*
X46775223Y-51946107D01*
X46887952Y-51895918D01*
X47042453Y-51783666D01*
X47170240Y-51641744D01*
X47265727Y-51476356D01*
X47306783Y-51350000D01*
X56061496Y-51350000D01*
X56081458Y-51539928D01*
X56081459Y-51539931D01*
X56140470Y-51721549D01*
X56140473Y-51721556D01*
X56235960Y-51886944D01*
X56278210Y-51933867D01*
X56317855Y-51977898D01*
X56348085Y-52040890D01*
X56345548Y-52061284D01*
X56359603Y-52056865D01*
X56427005Y-52075270D01*
X56434840Y-52080518D01*
X56518248Y-52141118D01*
X56692712Y-52218794D01*
X56879513Y-52258500D01*
X57070487Y-52258500D01*
X57257288Y-52218794D01*
X57431752Y-52141118D01*
X57586253Y-52028866D01*
X57714040Y-51886944D01*
X57809527Y-51721556D01*
X57868542Y-51539928D01*
X57888504Y-51350000D01*
X57868542Y-51160072D01*
X57809527Y-50978444D01*
X57714040Y-50813056D01*
X57586253Y-50671134D01*
X57431752Y-50558882D01*
X57257288Y-50481206D01*
X57257286Y-50481205D01*
X57070487Y-50441500D01*
X56879513Y-50441500D01*
X56692714Y-50481205D01*
X56518246Y-50558883D01*
X56363745Y-50671135D01*
X56235959Y-50813057D01*
X56140473Y-50978443D01*
X56140470Y-50978450D01*
X56081459Y-51160068D01*
X56081458Y-51160072D01*
X56061496Y-51350000D01*
X47306783Y-51350000D01*
X47324742Y-51294728D01*
X47330579Y-51239186D01*
X47357162Y-51174575D01*
X47414459Y-51134590D01*
X47428116Y-51130860D01*
X47526288Y-51109994D01*
X47700752Y-51032318D01*
X47855253Y-50920066D01*
X47983040Y-50778144D01*
X48078527Y-50612756D01*
X48137542Y-50431128D01*
X48157504Y-50241200D01*
X48137542Y-50051272D01*
X48078527Y-49869644D01*
X47983040Y-49704256D01*
X47855253Y-49562334D01*
X47700752Y-49450082D01*
X47526288Y-49372406D01*
X47526286Y-49372405D01*
X47339487Y-49332700D01*
X47148513Y-49332700D01*
X46961714Y-49372405D01*
X46787246Y-49450083D01*
X46632745Y-49562335D01*
X46504959Y-49704257D01*
X46409473Y-49869643D01*
X46409470Y-49869650D01*
X46350459Y-50051267D01*
X46350457Y-50051278D01*
X46344619Y-50106813D01*
X46318034Y-50171427D01*
X46260736Y-50211411D01*
X46247081Y-50215139D01*
X46148913Y-50236005D01*
X45974444Y-50313684D01*
X45819945Y-50425935D01*
X45692159Y-50567857D01*
X45596673Y-50733243D01*
X45596670Y-50733250D01*
X45554912Y-50861770D01*
X45537658Y-50914872D01*
X45517696Y-51104800D01*
X45537658Y-51294728D01*
X45537659Y-51294731D01*
X45596670Y-51476349D01*
X45596673Y-51476356D01*
X45692160Y-51641744D01*
X45819947Y-51783666D01*
X45974448Y-51895918D01*
X46055883Y-51932175D01*
X46109119Y-51977424D01*
X46129441Y-52044273D01*
X46110396Y-52111497D01*
X46058030Y-52157753D01*
X46055883Y-52158733D01*
X45943248Y-52208881D01*
X45788745Y-52321135D01*
X45660959Y-52463057D01*
X45565473Y-52628443D01*
X45565470Y-52628450D01*
X45506459Y-52810068D01*
X45506458Y-52810072D01*
X45486496Y-53000000D01*
X44917263Y-53000000D01*
X44917704Y-52995800D01*
X44897742Y-52805872D01*
X44838727Y-52624244D01*
X44743240Y-52458856D01*
X44615453Y-52316934D01*
X44501142Y-52233882D01*
X44460951Y-52204681D01*
X44293482Y-52130119D01*
X44240245Y-52084869D01*
X44219924Y-52018020D01*
X44238969Y-51950796D01*
X44251762Y-51933875D01*
X44339040Y-51836944D01*
X44434527Y-51671556D01*
X44493542Y-51489928D01*
X44513504Y-51300000D01*
X44506810Y-51236318D01*
X44519379Y-51167591D01*
X44567110Y-51116567D01*
X44579696Y-51110078D01*
X44579881Y-51109995D01*
X44579888Y-51109994D01*
X44754352Y-51032318D01*
X44908853Y-50920066D01*
X45036640Y-50778144D01*
X45132127Y-50612756D01*
X45191142Y-50431128D01*
X45211104Y-50241200D01*
X45191142Y-50051272D01*
X45132127Y-49869644D01*
X45036640Y-49704256D01*
X44908853Y-49562334D01*
X44754352Y-49450082D01*
X44579888Y-49372406D01*
X44579886Y-49372405D01*
X44393087Y-49332700D01*
X44202113Y-49332700D01*
X44015314Y-49372405D01*
X43840846Y-49450083D01*
X43686345Y-49562335D01*
X43558559Y-49704257D01*
X43463073Y-49869643D01*
X43463070Y-49869650D01*
X43404059Y-50051268D01*
X43404058Y-50051272D01*
X43388804Y-50196408D01*
X43384096Y-50241200D01*
X43390789Y-50304879D01*
X43378219Y-50373609D01*
X43330487Y-50424632D01*
X43317904Y-50431119D01*
X43143248Y-50508881D01*
X42988745Y-50621135D01*
X42860959Y-50763057D01*
X42765473Y-50928443D01*
X42765470Y-50928450D01*
X42717947Y-51074712D01*
X42706458Y-51110072D01*
X42686496Y-51300000D01*
X30000500Y-51300000D01*
X30000500Y-44350000D01*
X42686496Y-44350000D01*
X42706458Y-44539928D01*
X42706459Y-44539931D01*
X42765470Y-44721549D01*
X42765473Y-44721556D01*
X42860960Y-44886944D01*
X42950999Y-44986942D01*
X42987304Y-45027264D01*
X42988747Y-45028866D01*
X43143248Y-45141118D01*
X43317712Y-45218794D01*
X43504513Y-45258500D01*
X43695487Y-45258500D01*
X43882288Y-45218794D01*
X44056752Y-45141118D01*
X44211253Y-45028866D01*
X44339040Y-44886944D01*
X44434527Y-44721556D01*
X44493542Y-44539928D01*
X44513504Y-44350000D01*
X44513336Y-44348400D01*
X45212896Y-44348400D01*
X45232858Y-44538328D01*
X45232859Y-44538331D01*
X45291870Y-44719949D01*
X45291873Y-44719956D01*
X45387360Y-44885344D01*
X45515147Y-45027266D01*
X45669648Y-45139518D01*
X45844112Y-45217194D01*
X46030913Y-45256900D01*
X46126220Y-45256900D01*
X46193259Y-45276585D01*
X46239014Y-45329389D01*
X46248958Y-45398547D01*
X46219933Y-45462103D01*
X46199105Y-45481218D01*
X46175548Y-45498333D01*
X46175546Y-45498334D01*
X46047759Y-45640257D01*
X45952273Y-45805643D01*
X45952270Y-45805650D01*
X45893259Y-45987268D01*
X45893258Y-45987272D01*
X45873296Y-46177200D01*
X45893258Y-46367128D01*
X45893259Y-46367131D01*
X45952270Y-46548749D01*
X45952273Y-46548756D01*
X46047760Y-46714144D01*
X46175547Y-46856066D01*
X46330048Y-46968318D01*
X46504512Y-47045994D01*
X46691313Y-47085700D01*
X46882287Y-47085700D01*
X47069088Y-47045994D01*
X47243552Y-46968318D01*
X47398053Y-46856066D01*
X47525840Y-46714144D01*
X47621327Y-46548756D01*
X47680342Y-46367128D01*
X47700304Y-46177200D01*
X47680342Y-45987272D01*
X47668231Y-45950000D01*
X52761496Y-45950000D01*
X52781458Y-46139928D01*
X52781459Y-46139931D01*
X52840470Y-46321549D01*
X52840473Y-46321556D01*
X52935960Y-46486944D01*
X53063747Y-46628866D01*
X53218248Y-46741118D01*
X53392712Y-46818794D01*
X53579513Y-46858500D01*
X53770487Y-46858500D01*
X53957288Y-46818794D01*
X54131752Y-46741118D01*
X54286253Y-46628866D01*
X54414040Y-46486944D01*
X54509527Y-46321556D01*
X54568542Y-46139928D01*
X54588504Y-45950000D01*
X54568542Y-45760072D01*
X54509527Y-45578444D01*
X54414040Y-45413056D01*
X54286253Y-45271134D01*
X54131752Y-45158882D01*
X53957288Y-45081206D01*
X53957286Y-45081205D01*
X53770487Y-45041500D01*
X53579513Y-45041500D01*
X53392714Y-45081205D01*
X53392712Y-45081206D01*
X53261741Y-45139518D01*
X53218246Y-45158883D01*
X53063745Y-45271135D01*
X52935959Y-45413057D01*
X52840473Y-45578443D01*
X52840470Y-45578450D01*
X52781459Y-45760068D01*
X52781458Y-45760072D01*
X52761496Y-45950000D01*
X47668231Y-45950000D01*
X47621327Y-45805644D01*
X47525840Y-45640256D01*
X47442996Y-45548248D01*
X47412766Y-45485256D01*
X47421391Y-45415921D01*
X47466133Y-45362256D01*
X47509357Y-45343988D01*
X47627888Y-45318794D01*
X47802352Y-45241118D01*
X47956853Y-45128866D01*
X48084640Y-44986944D01*
X48180127Y-44821556D01*
X48239142Y-44639928D01*
X48259104Y-44450000D01*
X48239142Y-44260072D01*
X48180127Y-44078444D01*
X48150919Y-44027854D01*
X51829100Y-44027854D01*
X51835611Y-44088402D01*
X51835611Y-44088404D01*
X51862343Y-44160072D01*
X51886711Y-44225404D01*
X51974339Y-44342461D01*
X52091396Y-44430089D01*
X52228399Y-44481189D01*
X52255650Y-44484118D01*
X52288945Y-44487699D01*
X52288962Y-44487700D01*
X54086238Y-44487700D01*
X54086254Y-44487699D01*
X54113292Y-44484791D01*
X54146801Y-44481189D01*
X54283804Y-44430089D01*
X54400861Y-44342461D01*
X54488489Y-44225404D01*
X54533738Y-44104087D01*
X54575609Y-44048156D01*
X54641074Y-44023739D01*
X54709346Y-44038591D01*
X54741145Y-44063436D01*
X54804360Y-44132106D01*
X54982024Y-44270389D01*
X54982025Y-44270389D01*
X54982027Y-44270391D01*
X55108735Y-44338961D01*
X55180026Y-44377542D01*
X55392965Y-44450644D01*
X55615031Y-44487700D01*
X55840169Y-44487700D01*
X56062235Y-44450644D01*
X56275174Y-44377542D01*
X56473176Y-44270389D01*
X56650840Y-44132106D01*
X56803322Y-43966468D01*
X56893793Y-43827990D01*
X56946938Y-43782637D01*
X57016169Y-43773213D01*
X57079505Y-43802715D01*
X57101404Y-43827987D01*
X57191878Y-43966468D01*
X57191883Y-43966473D01*
X57191884Y-43966476D01*
X57344356Y-44132102D01*
X57344361Y-44132107D01*
X57378235Y-44158472D01*
X57522024Y-44270389D01*
X57522025Y-44270389D01*
X57522027Y-44270391D01*
X57648735Y-44338961D01*
X57720026Y-44377542D01*
X57932965Y-44450644D01*
X58155031Y-44487700D01*
X58380169Y-44487700D01*
X58602235Y-44450644D01*
X58815174Y-44377542D01*
X59013176Y-44270389D01*
X59190840Y-44132106D01*
X59343322Y-43966468D01*
X59466460Y-43777991D01*
X59556896Y-43571816D01*
X59612164Y-43353568D01*
X59630756Y-43129200D01*
X59612164Y-42904832D01*
X59556896Y-42686584D01*
X59466460Y-42480409D01*
X59450306Y-42455684D01*
X59343323Y-42291934D01*
X59343315Y-42291923D01*
X59190843Y-42126297D01*
X59190838Y-42126292D01*
X59013177Y-41988012D01*
X59013172Y-41988008D01*
X58815180Y-41880861D01*
X58815177Y-41880859D01*
X58815174Y-41880858D01*
X58815171Y-41880857D01*
X58815169Y-41880856D01*
X58602237Y-41807756D01*
X58380169Y-41770700D01*
X58155031Y-41770700D01*
X57932962Y-41807756D01*
X57720030Y-41880856D01*
X57720019Y-41880861D01*
X57522027Y-41988008D01*
X57522022Y-41988012D01*
X57344361Y-42126292D01*
X57344356Y-42126297D01*
X57191884Y-42291923D01*
X57191876Y-42291934D01*
X57101408Y-42430406D01*
X57048262Y-42475762D01*
X56979031Y-42485186D01*
X56915695Y-42455684D01*
X56893792Y-42430406D01*
X56803323Y-42291934D01*
X56803315Y-42291923D01*
X56650843Y-42126297D01*
X56650838Y-42126292D01*
X56473177Y-41988012D01*
X56473172Y-41988008D01*
X56275180Y-41880861D01*
X56275177Y-41880859D01*
X56275174Y-41880858D01*
X56275171Y-41880857D01*
X56275169Y-41880856D01*
X56062237Y-41807756D01*
X55840169Y-41770700D01*
X55615031Y-41770700D01*
X55392962Y-41807756D01*
X55180030Y-41880856D01*
X55180019Y-41880861D01*
X54982027Y-41988008D01*
X54982022Y-41988012D01*
X54804361Y-42126292D01*
X54741148Y-42194960D01*
X54681261Y-42230950D01*
X54611423Y-42228849D01*
X54553807Y-42189324D01*
X54533738Y-42154310D01*
X54488489Y-42032996D01*
X54454814Y-41988012D01*
X54400861Y-41915939D01*
X54283804Y-41828311D01*
X54251114Y-41816118D01*
X54146803Y-41777211D01*
X54086254Y-41770700D01*
X54086238Y-41770700D01*
X52288962Y-41770700D01*
X52288945Y-41770700D01*
X52228397Y-41777211D01*
X52228395Y-41777211D01*
X52091395Y-41828311D01*
X51974339Y-41915939D01*
X51886711Y-42032995D01*
X51835611Y-42169995D01*
X51835611Y-42169997D01*
X51829100Y-42230545D01*
X51829100Y-44027854D01*
X48150919Y-44027854D01*
X48084640Y-43913056D01*
X47956853Y-43771134D01*
X47802352Y-43658882D01*
X47627888Y-43581206D01*
X47627886Y-43581205D01*
X47441087Y-43541500D01*
X47250113Y-43541500D01*
X47063314Y-43581205D01*
X46888849Y-43658880D01*
X46878798Y-43666183D01*
X46812990Y-43689658D01*
X46744937Y-43673828D01*
X46733040Y-43666182D01*
X46583152Y-43557282D01*
X46408688Y-43479606D01*
X46408686Y-43479605D01*
X46221887Y-43439900D01*
X46030913Y-43439900D01*
X45844114Y-43479605D01*
X45669646Y-43557283D01*
X45515145Y-43669535D01*
X45387359Y-43811457D01*
X45291873Y-43976843D01*
X45291870Y-43976850D01*
X45232859Y-44158468D01*
X45232858Y-44158472D01*
X45212896Y-44348400D01*
X44513336Y-44348400D01*
X44493542Y-44160072D01*
X44434527Y-43978444D01*
X44339040Y-43813056D01*
X44211253Y-43671134D01*
X44056752Y-43558882D01*
X43882288Y-43481206D01*
X43882286Y-43481205D01*
X43695487Y-43441500D01*
X43504513Y-43441500D01*
X43317714Y-43481205D01*
X43317712Y-43481206D01*
X43146840Y-43557283D01*
X43143246Y-43558883D01*
X42988745Y-43671135D01*
X42860959Y-43813057D01*
X42765473Y-43978443D01*
X42765470Y-43978450D01*
X42715544Y-44132107D01*
X42706458Y-44160072D01*
X42686496Y-44350000D01*
X30000500Y-44350000D01*
X30000500Y-41025000D01*
X59211496Y-41025000D01*
X59231458Y-41214928D01*
X59231459Y-41214931D01*
X59290470Y-41396549D01*
X59290473Y-41396556D01*
X59385960Y-41561944D01*
X59513747Y-41703866D01*
X59668248Y-41816118D01*
X59842712Y-41893794D01*
X60029513Y-41933500D01*
X60220487Y-41933500D01*
X60407288Y-41893794D01*
X60581752Y-41816118D01*
X60736253Y-41703866D01*
X60864040Y-41561944D01*
X60959527Y-41396556D01*
X61018542Y-41214928D01*
X61038504Y-41025000D01*
X61018542Y-40835072D01*
X60959527Y-40653444D01*
X60864040Y-40488056D01*
X60736253Y-40346134D01*
X60581752Y-40233882D01*
X60407288Y-40156206D01*
X60407286Y-40156205D01*
X60220487Y-40116500D01*
X60029513Y-40116500D01*
X59842714Y-40156205D01*
X59668246Y-40233883D01*
X59513745Y-40346135D01*
X59385959Y-40488057D01*
X59290473Y-40653443D01*
X59290470Y-40653450D01*
X59231459Y-40835068D01*
X59231458Y-40835072D01*
X59211496Y-41025000D01*
X30000500Y-41025000D01*
X30000500Y-39937500D01*
X34961496Y-39937500D01*
X34981458Y-40127428D01*
X34981459Y-40127431D01*
X35040470Y-40309049D01*
X35040473Y-40309056D01*
X35135960Y-40474444D01*
X35263747Y-40616366D01*
X35418248Y-40728618D01*
X35592712Y-40806294D01*
X35779513Y-40846000D01*
X35970487Y-40846000D01*
X36157288Y-40806294D01*
X36331752Y-40728618D01*
X36486253Y-40616366D01*
X36614040Y-40474444D01*
X36709527Y-40309056D01*
X36768542Y-40127428D01*
X36788504Y-39937500D01*
X36768542Y-39747572D01*
X36709527Y-39565944D01*
X36671454Y-39500000D01*
X42061496Y-39500000D01*
X42081458Y-39689928D01*
X42081459Y-39689931D01*
X42140470Y-39871549D01*
X42140473Y-39871556D01*
X42235960Y-40036944D01*
X42363747Y-40178866D01*
X42518248Y-40291118D01*
X42692712Y-40368794D01*
X42879513Y-40408500D01*
X43070487Y-40408500D01*
X43257288Y-40368794D01*
X43431752Y-40291118D01*
X43586253Y-40178866D01*
X43714040Y-40036944D01*
X43809527Y-39871556D01*
X43868542Y-39689928D01*
X43888504Y-39500000D01*
X43868542Y-39310072D01*
X43809527Y-39128444D01*
X43714040Y-38963056D01*
X43586253Y-38821134D01*
X43431752Y-38708882D01*
X43257288Y-38631206D01*
X43257286Y-38631205D01*
X43070487Y-38591500D01*
X42879513Y-38591500D01*
X42692714Y-38631205D01*
X42518246Y-38708883D01*
X42363745Y-38821135D01*
X42235959Y-38963057D01*
X42140473Y-39128443D01*
X42140470Y-39128450D01*
X42104249Y-39239928D01*
X42081458Y-39310072D01*
X42061496Y-39500000D01*
X36671454Y-39500000D01*
X36614040Y-39400556D01*
X36486253Y-39258634D01*
X36331752Y-39146382D01*
X36157288Y-39068706D01*
X36157286Y-39068705D01*
X35970487Y-39029000D01*
X35779513Y-39029000D01*
X35592714Y-39068705D01*
X35418246Y-39146383D01*
X35263745Y-39258635D01*
X35135959Y-39400557D01*
X35040473Y-39565943D01*
X35040470Y-39565950D01*
X34987536Y-39728866D01*
X34981458Y-39747572D01*
X34961496Y-39937500D01*
X30000500Y-39937500D01*
X30000500Y-33307719D01*
X39591500Y-33307719D01*
X39606197Y-33480413D01*
X39664469Y-33704206D01*
X39664470Y-33704210D01*
X39759716Y-33914919D01*
X39759723Y-33914931D01*
X39889209Y-34106513D01*
X39889214Y-34106518D01*
X39889217Y-34106523D01*
X40049228Y-34273476D01*
X40235153Y-34410985D01*
X40441643Y-34515095D01*
X40662757Y-34582811D01*
X40892135Y-34612184D01*
X41123178Y-34602369D01*
X41349238Y-34553649D01*
X41563813Y-34467426D01*
X41760730Y-34346179D01*
X41934324Y-34193398D01*
X42079600Y-34013476D01*
X42192380Y-33811591D01*
X42269419Y-33593550D01*
X42288818Y-33480413D01*
X42308499Y-33365634D01*
X42308500Y-33365623D01*
X42308500Y-33307719D01*
X46891500Y-33307719D01*
X46906197Y-33480413D01*
X46964469Y-33704206D01*
X46964470Y-33704210D01*
X47059716Y-33914919D01*
X47059723Y-33914931D01*
X47189209Y-34106513D01*
X47189214Y-34106518D01*
X47189217Y-34106523D01*
X47349228Y-34273476D01*
X47535153Y-34410985D01*
X47741643Y-34515095D01*
X47962757Y-34582811D01*
X48192135Y-34612184D01*
X48423178Y-34602369D01*
X48649238Y-34553649D01*
X48863813Y-34467426D01*
X49060730Y-34346179D01*
X49234324Y-34193398D01*
X49379600Y-34013476D01*
X49492380Y-33811591D01*
X49569419Y-33593550D01*
X49588818Y-33480413D01*
X49608499Y-33365634D01*
X49608500Y-33365623D01*
X49608500Y-32192281D01*
X49593802Y-32019586D01*
X49535530Y-31795793D01*
X49535529Y-31795789D01*
X49440283Y-31585080D01*
X49440276Y-31585068D01*
X49310790Y-31393486D01*
X49310786Y-31393481D01*
X49310783Y-31393477D01*
X49150772Y-31226524D01*
X48964847Y-31089015D01*
X48964846Y-31089014D01*
X48964844Y-31089013D01*
X48758358Y-30984905D01*
X48586373Y-30932235D01*
X48537243Y-30917189D01*
X48537241Y-30917188D01*
X48537242Y-30917188D01*
X48307859Y-30887815D01*
X48076827Y-30897630D01*
X48076821Y-30897630D01*
X47850759Y-30946351D01*
X47636190Y-31032572D01*
X47439270Y-31153820D01*
X47265679Y-31306599D01*
X47265672Y-31306605D01*
X47120404Y-31486517D01*
X47120399Y-31486523D01*
X47007621Y-31688405D01*
X46930582Y-31906446D01*
X46930579Y-31906456D01*
X46891500Y-32134365D01*
X46891500Y-33307719D01*
X42308500Y-33307719D01*
X42308500Y-32192281D01*
X42293802Y-32019586D01*
X42235530Y-31795793D01*
X42235529Y-31795789D01*
X42140283Y-31585080D01*
X42140276Y-31585068D01*
X42010790Y-31393486D01*
X42010786Y-31393481D01*
X42010783Y-31393477D01*
X41850772Y-31226524D01*
X41664847Y-31089015D01*
X41664846Y-31089014D01*
X41664844Y-31089013D01*
X41458358Y-30984905D01*
X41286373Y-30932235D01*
X41237243Y-30917189D01*
X41237241Y-30917188D01*
X41237242Y-30917188D01*
X41007859Y-30887815D01*
X40776827Y-30897630D01*
X40776821Y-30897630D01*
X40550759Y-30946351D01*
X40336190Y-31032572D01*
X40139270Y-31153820D01*
X39965679Y-31306599D01*
X39965672Y-31306605D01*
X39820404Y-31486517D01*
X39820399Y-31486523D01*
X39707621Y-31688405D01*
X39630582Y-31906446D01*
X39630579Y-31906456D01*
X39591500Y-32134365D01*
X39591500Y-33307719D01*
X30000500Y-33307719D01*
X30000500Y-31067763D01*
X33145787Y-31067763D01*
X33175413Y-31337013D01*
X33175415Y-31337024D01*
X33243926Y-31599082D01*
X33243928Y-31599088D01*
X33349870Y-31848390D01*
X33454350Y-32019586D01*
X33490979Y-32079605D01*
X33490986Y-32079615D01*
X33664253Y-32287819D01*
X33664259Y-32287824D01*
X33865998Y-32468582D01*
X34091910Y-32618044D01*
X34337176Y-32733020D01*
X34337183Y-32733022D01*
X34337185Y-32733023D01*
X34596557Y-32811057D01*
X34596564Y-32811058D01*
X34596569Y-32811060D01*
X34864561Y-32850500D01*
X34864566Y-32850500D01*
X35067636Y-32850500D01*
X35119133Y-32846730D01*
X35270156Y-32835677D01*
X35382758Y-32810593D01*
X35534546Y-32776782D01*
X35534548Y-32776781D01*
X35534553Y-32776780D01*
X35787558Y-32680014D01*
X36023777Y-32547441D01*
X36238177Y-32381888D01*
X36426186Y-32186881D01*
X36583799Y-31966579D01*
X36704482Y-31731849D01*
X36707649Y-31725690D01*
X36707651Y-31725684D01*
X36707656Y-31725675D01*
X36795118Y-31469305D01*
X36844319Y-31202933D01*
X36854212Y-30932235D01*
X36824586Y-30662982D01*
X36756072Y-30400912D01*
X36650130Y-30151610D01*
X36509018Y-29920390D01*
X36501191Y-29910985D01*
X36335746Y-29712180D01*
X36335740Y-29712175D01*
X36134002Y-29531418D01*
X35908092Y-29381957D01*
X35859549Y-29359201D01*
X35662824Y-29266980D01*
X35662819Y-29266978D01*
X35662814Y-29266976D01*
X35403442Y-29188942D01*
X35403428Y-29188939D01*
X35287791Y-29171921D01*
X35135439Y-29149500D01*
X34932369Y-29149500D01*
X34932364Y-29149500D01*
X34729844Y-29164323D01*
X34729831Y-29164325D01*
X34465453Y-29223217D01*
X34465446Y-29223220D01*
X34212439Y-29319987D01*
X33976226Y-29452557D01*
X33761822Y-29618112D01*
X33573822Y-29813109D01*
X33573816Y-29813116D01*
X33416202Y-30033419D01*
X33416199Y-30033424D01*
X33292350Y-30274309D01*
X33292343Y-30274327D01*
X33204884Y-30530685D01*
X33204882Y-30530695D01*
X33156400Y-30793178D01*
X33155681Y-30797068D01*
X33155680Y-30797075D01*
X33145787Y-31067763D01*
X30000500Y-31067763D01*
X30000500Y-31000000D01*
X30009493Y-30782569D01*
X30018160Y-30584061D01*
X30018574Y-30579138D01*
X30045487Y-30363223D01*
X30071884Y-30162726D01*
X30072669Y-30158114D01*
X30117191Y-29945778D01*
X30161160Y-29747451D01*
X30162253Y-29743235D01*
X30224112Y-29535457D01*
X30285324Y-29341320D01*
X30286673Y-29337488D01*
X30365469Y-29135551D01*
X30443499Y-28947170D01*
X30445033Y-28943771D01*
X30511546Y-28807719D01*
X39591500Y-28807719D01*
X39606197Y-28980413D01*
X39664469Y-29204206D01*
X39664470Y-29204210D01*
X39759716Y-29414919D01*
X39759723Y-29414931D01*
X39889209Y-29606513D01*
X39889214Y-29606518D01*
X39889217Y-29606523D01*
X40049228Y-29773476D01*
X40235153Y-29910985D01*
X40441643Y-30015095D01*
X40662757Y-30082811D01*
X40892135Y-30112184D01*
X41123178Y-30102369D01*
X41349238Y-30053649D01*
X41563813Y-29967426D01*
X41760730Y-29846179D01*
X41934324Y-29693398D01*
X42079600Y-29513476D01*
X42192380Y-29311591D01*
X42269419Y-29093550D01*
X42295109Y-28943724D01*
X42308499Y-28865634D01*
X42308500Y-28865623D01*
X42308500Y-28807719D01*
X46891500Y-28807719D01*
X46906197Y-28980413D01*
X46964469Y-29204206D01*
X46964470Y-29204210D01*
X47059716Y-29414919D01*
X47059723Y-29414931D01*
X47189209Y-29606513D01*
X47189214Y-29606518D01*
X47189217Y-29606523D01*
X47349228Y-29773476D01*
X47535153Y-29910985D01*
X47741643Y-30015095D01*
X47962757Y-30082811D01*
X48192135Y-30112184D01*
X48423178Y-30102369D01*
X48649238Y-30053649D01*
X48863813Y-29967426D01*
X49060730Y-29846179D01*
X49234324Y-29693398D01*
X49379600Y-29513476D01*
X49492380Y-29311591D01*
X49569419Y-29093550D01*
X49595109Y-28943724D01*
X49608499Y-28865634D01*
X49608500Y-28865623D01*
X49608500Y-27692281D01*
X49593802Y-27519586D01*
X49535530Y-27295793D01*
X49535529Y-27295789D01*
X49440283Y-27085080D01*
X49440276Y-27085068D01*
X49310790Y-26893486D01*
X49310786Y-26893481D01*
X49310783Y-26893477D01*
X49150772Y-26726524D01*
X48964847Y-26589015D01*
X48964846Y-26589014D01*
X48964844Y-26589013D01*
X48758358Y-26484905D01*
X48623153Y-26443499D01*
X48537243Y-26417189D01*
X48537241Y-26417188D01*
X48537242Y-26417188D01*
X48307859Y-26387815D01*
X48076827Y-26397630D01*
X48076821Y-26397630D01*
X47850759Y-26446351D01*
X47636190Y-26532572D01*
X47439270Y-26653820D01*
X47265679Y-26806599D01*
X47265672Y-26806605D01*
X47120404Y-26986517D01*
X47120399Y-26986523D01*
X47007621Y-27188405D01*
X46930582Y-27406446D01*
X46930579Y-27406456D01*
X46891500Y-27634365D01*
X46891500Y-28807719D01*
X42308500Y-28807719D01*
X42308500Y-27692281D01*
X42293802Y-27519586D01*
X42235530Y-27295793D01*
X42235529Y-27295789D01*
X42140283Y-27085080D01*
X42140276Y-27085068D01*
X42010790Y-26893486D01*
X42010786Y-26893481D01*
X42010783Y-26893477D01*
X41850772Y-26726524D01*
X41664847Y-26589015D01*
X41664846Y-26589014D01*
X41664844Y-26589013D01*
X41458358Y-26484905D01*
X41323153Y-26443499D01*
X41237243Y-26417189D01*
X41237241Y-26417188D01*
X41237242Y-26417188D01*
X41007859Y-26387815D01*
X40776827Y-26397630D01*
X40776821Y-26397630D01*
X40550759Y-26446351D01*
X40336190Y-26532572D01*
X40139270Y-26653820D01*
X39965679Y-26806599D01*
X39965672Y-26806605D01*
X39820404Y-26986517D01*
X39820399Y-26986523D01*
X39707621Y-27188405D01*
X39630582Y-27406446D01*
X39630579Y-27406456D01*
X39591500Y-27634365D01*
X39591500Y-28807719D01*
X30511546Y-28807719D01*
X30514381Y-28801920D01*
X30540249Y-28749007D01*
X30573419Y-28685284D01*
X30634494Y-28567960D01*
X30636207Y-28564891D01*
X30747211Y-28378601D01*
X30856972Y-28206313D01*
X30858765Y-28203656D01*
X30984856Y-28027054D01*
X31109313Y-27864861D01*
X31111135Y-27862601D01*
X31251448Y-27696933D01*
X31390563Y-27545115D01*
X31545115Y-27390563D01*
X31696933Y-27251448D01*
X31862601Y-27111135D01*
X31864861Y-27109313D01*
X32027054Y-26984856D01*
X32203656Y-26858765D01*
X32206313Y-26856972D01*
X32378601Y-26747211D01*
X32564900Y-26636201D01*
X32567960Y-26634494D01*
X32685284Y-26573419D01*
X32749007Y-26540249D01*
X32823655Y-26503755D01*
X32943771Y-26445033D01*
X32947170Y-26443499D01*
X33135551Y-26365469D01*
X33337488Y-26286673D01*
X33341320Y-26285324D01*
X33535457Y-26224112D01*
X33743235Y-26162253D01*
X33747451Y-26161160D01*
X33945778Y-26117191D01*
X34158114Y-26072669D01*
X34162726Y-26071884D01*
X34363223Y-26045487D01*
X34579138Y-26018574D01*
X34584061Y-26018160D01*
X34782569Y-26009493D01*
X35000000Y-26000500D01*
X35000500Y-26000500D01*
X64876000Y-26000500D01*
X64943039Y-26020185D01*
G37*
G04 #@! TD.AperFunction*
M02*
