%TF.GenerationSoftware,KiCad,Pcbnew,(6.0.11)*%
%TF.CreationDate,2024-03-05T22:48:33-08:00*%
%TF.ProjectId,bez_controller1v5,62657a5f-636f-46e7-9472-6f6c6c657231,rev?*%
%TF.SameCoordinates,Original*%
%TF.FileFunction,Paste,Top*%
%TF.FilePolarity,Positive*%
%FSLAX46Y46*%
G04 Gerber Fmt 4.6, Leading zero omitted, Abs format (unit mm)*
G04 Created by KiCad (PCBNEW (6.0.11)) date 2024-03-05 22:48:33*
%MOMM*%
%LPD*%
G01*
G04 APERTURE LIST*
G04 Aperture macros list*
%AMRoundRect*
0 Rectangle with rounded corners*
0 $1 Rounding radius*
0 $2 $3 $4 $5 $6 $7 $8 $9 X,Y pos of 4 corners*
0 Add a 4 corners polygon primitive as box body*
4,1,4,$2,$3,$4,$5,$6,$7,$8,$9,$2,$3,0*
0 Add four circle primitives for the rounded corners*
1,1,$1+$1,$2,$3*
1,1,$1+$1,$4,$5*
1,1,$1+$1,$6,$7*
1,1,$1+$1,$8,$9*
0 Add four rect primitives between the rounded corners*
20,1,$1+$1,$2,$3,$4,$5,0*
20,1,$1+$1,$4,$5,$6,$7,0*
20,1,$1+$1,$6,$7,$8,$9,0*
20,1,$1+$1,$8,$9,$2,$3,0*%
G04 Aperture macros list end*
%ADD10R,1.500000X2.000000*%
%ADD11R,3.800000X2.000000*%
%ADD12RoundRect,0.075000X0.075000X-0.700000X0.075000X0.700000X-0.075000X0.700000X-0.075000X-0.700000X0*%
%ADD13RoundRect,0.075000X0.700000X-0.075000X0.700000X0.075000X-0.700000X0.075000X-0.700000X-0.075000X0*%
%ADD14R,1.450000X0.450000*%
%ADD15RoundRect,0.150000X0.150000X-0.512500X0.150000X0.512500X-0.150000X0.512500X-0.150000X-0.512500X0*%
%ADD16R,0.500000X2.250000*%
G04 APERTURE END LIST*
D10*
%TO.C,U9*%
X65800000Y-42850000D03*
X63500000Y-42850000D03*
D11*
X63500000Y-49150000D03*
D10*
X61200000Y-42850000D03*
%TD*%
D12*
%TO.C,U11*%
X39850000Y-51812500D03*
X40350000Y-51812500D03*
X40850000Y-51812500D03*
X41350000Y-51812500D03*
X41850000Y-51812500D03*
X42350000Y-51812500D03*
X42850000Y-51812500D03*
X43350000Y-51812500D03*
X43850000Y-51812500D03*
X44350000Y-51812500D03*
X44850000Y-51812500D03*
X45350000Y-51812500D03*
X45850000Y-51812500D03*
X46350000Y-51812500D03*
X46850000Y-51812500D03*
X47350000Y-51812500D03*
D13*
X49275000Y-49887500D03*
X49275000Y-49387500D03*
X49275000Y-48887500D03*
X49275000Y-48387500D03*
X49275000Y-47887500D03*
X49275000Y-47387500D03*
X49275000Y-46887500D03*
X49275000Y-46387500D03*
X49275000Y-45887500D03*
X49275000Y-45387500D03*
X49275000Y-44887500D03*
X49275000Y-44387500D03*
X49275000Y-43887500D03*
X49275000Y-43387500D03*
X49275000Y-42887500D03*
X49275000Y-42387500D03*
D12*
X47350000Y-40462500D03*
X46850000Y-40462500D03*
X46350000Y-40462500D03*
X45850000Y-40462500D03*
X45350000Y-40462500D03*
X44850000Y-40462500D03*
X44350000Y-40462500D03*
X43850000Y-40462500D03*
X43350000Y-40462500D03*
X42850000Y-40462500D03*
X42350000Y-40462500D03*
X41850000Y-40462500D03*
X41350000Y-40462500D03*
X40850000Y-40462500D03*
X40350000Y-40462500D03*
X39850000Y-40462500D03*
D13*
X37925000Y-42387500D03*
X37925000Y-42887500D03*
X37925000Y-43387500D03*
X37925000Y-43887500D03*
X37925000Y-44387500D03*
X37925000Y-44887500D03*
X37925000Y-45387500D03*
X37925000Y-45887500D03*
X37925000Y-46387500D03*
X37925000Y-46887500D03*
X37925000Y-47387500D03*
X37925000Y-47887500D03*
X37925000Y-48387500D03*
X37925000Y-48887500D03*
X37925000Y-49387500D03*
X37925000Y-49887500D03*
%TD*%
D14*
%TO.C,U4*%
X95200000Y-46800000D03*
X95200000Y-46150000D03*
X95200000Y-45500000D03*
X95200000Y-44850000D03*
X90800000Y-44850000D03*
X90800000Y-45500000D03*
X90800000Y-46150000D03*
X90800000Y-46800000D03*
%TD*%
%TO.C,U2*%
X95200000Y-62300000D03*
X95200000Y-61650000D03*
X95200000Y-61000000D03*
X95200000Y-60350000D03*
X90800000Y-60350000D03*
X90800000Y-61000000D03*
X90800000Y-61650000D03*
X90800000Y-62300000D03*
%TD*%
D15*
%TO.C,U10*%
X40650000Y-36775000D03*
X41600000Y-36775000D03*
X42550000Y-36775000D03*
X42550000Y-34500000D03*
X41600000Y-34500000D03*
X40650000Y-34500000D03*
%TD*%
D14*
%TO.C,U6*%
X95200000Y-31975000D03*
X95200000Y-31325000D03*
X95200000Y-30675000D03*
X95200000Y-30025000D03*
X90800000Y-30025000D03*
X90800000Y-30675000D03*
X90800000Y-31325000D03*
X90800000Y-31975000D03*
%TD*%
%TO.C,U1*%
X95200000Y-69800000D03*
X95200000Y-69150000D03*
X95200000Y-68500000D03*
X95200000Y-67850000D03*
X90800000Y-67850000D03*
X90800000Y-68500000D03*
X90800000Y-69150000D03*
X90800000Y-69800000D03*
%TD*%
D16*
%TO.C,J12*%
X42800000Y-27800000D03*
X42000000Y-27800000D03*
X41200000Y-27800000D03*
X40400000Y-27800000D03*
X39600000Y-27800000D03*
%TD*%
D14*
%TO.C,U5*%
X95200000Y-39300000D03*
X95200000Y-38650000D03*
X95200000Y-38000000D03*
X95200000Y-37350000D03*
X90800000Y-37350000D03*
X90800000Y-38000000D03*
X90800000Y-38650000D03*
X90800000Y-39300000D03*
%TD*%
%TO.C,U3*%
X95200000Y-54800000D03*
X95200000Y-54150000D03*
X95200000Y-53500000D03*
X95200000Y-52850000D03*
X90800000Y-52850000D03*
X90800000Y-53500000D03*
X90800000Y-54150000D03*
X90800000Y-54800000D03*
%TD*%
M02*
