M48
; DRILL file {KiCad (6.0.11)} date Tue Mar  5 22:48:28 2024
; FORMAT={-:-/ absolute / metric / decimal}
; #@! TF.CreationDate,2024-03-05T22:48:28-08:00
; #@! TF.GenerationSoftware,Kicad,Pcbnew,(6.0.11)
; #@! TF.FileFunction,MixedPlating,1,4
FMAT,2
METRIC
; #@! TA.AperFunction,Plated,PTH,ViaDrill
T1C0.400
; #@! TA.AperFunction,Plated,PTH,ComponentDrill
T2C0.600
; #@! TA.AperFunction,Plated,PTH,ComponentDrill
T3C0.700
; #@! TA.AperFunction,Plated,PTH,ComponentDrill
T4C0.800
; #@! TA.AperFunction,Plated,PTH,ComponentDrill
T5C0.850
; #@! TA.AperFunction,Plated,PTH,ComponentDrill
T6C0.900
; #@! TA.AperFunction,Plated,PTH,ComponentDrill
T7C1.000
; #@! TA.AperFunction,Plated,PTH,ComponentDrill
T8C1.100
; #@! TA.AperFunction,Plated,PTH,ComponentDrill
T9C1.200
; #@! TA.AperFunction,Plated,PTH,ComponentDrill
T10C2.700
; #@! TA.AperFunction,NonPlated,NPTH,ComponentDrill
T11C3.200
%
G90
G05
T1
X29.8Y-56.8
X33.8Y-43.8
X36.1Y-46.5
X36.1Y-47.8
X39.312Y-45.887
X39.581Y-43.91
X39.788Y-44.887
X39.8Y-42.6
X40.792Y-47.43
X41.541Y-46.65
X42.62Y-45.82
X44.9Y-47.2
X45.5Y-43.5
X45.75Y-46.05
X46.8Y-38.749
X46.85Y-46.45
X46.916Y-37.75
X47.25Y-36.75
X47.6Y-49.049
X47.8Y-50.3
X54.3Y-47.5
X54.3Y-53.3
X56.387Y-48.287
X56.5Y-72.8
X61.25Y-72.4
X84.5Y-37.5
X86.0Y-33.0
X86.0Y-38.099
X86.0Y-39.4
X86.75Y-60.5
X86.96Y-34.16
X87.0Y-45.0
X87.0Y-53.0
X87.0Y-62.2
X87.05Y-30.55
X87.1Y-54.2
X87.1Y-58.9
X87.2Y-46.9
X87.3Y-55.6
X87.4Y-69.4
X87.5Y-48.1
X87.8Y-67.7
X88.0Y-70.2
T2
X66.0Y-25.25
X66.0Y-26.75
T3
X28.21Y-39.0
X28.8Y-60.62
X28.8Y-65.7
X33.29Y-39.0
X71.96Y-60.5
X77.04Y-60.5
X90.46Y-34.0
X90.46Y-64.325
X90.46Y-71.825
X90.5Y-41.325
X90.5Y-48.825
X90.5Y-56.825
X95.54Y-34.0
X95.54Y-64.325
X95.54Y-71.825
X95.58Y-41.325
X95.58Y-48.825
X95.58Y-56.825
T4
X29.25Y-48.75
X29.25Y-50.75
X33.6Y-47.387
X33.6Y-52.387
X34.85Y-55.387
X36.97Y-58.637
X36.97Y-63.637
X37.85Y-34.637
X37.85Y-39.637
X39.85Y-55.387
X40.2Y-59.938
X40.2Y-62.938
X40.45Y-67.75
X44.35Y-55.137
X45.2Y-59.938
X45.2Y-62.938
X45.33Y-67.75
X49.1Y-58.137
X49.35Y-55.137
X50.1Y-39.75
X51.85Y-47.137
X51.85Y-52.137
X52.6Y-43.387
X54.1Y-58.137
X54.79Y-55.137
X55.1Y-39.75
X56.6Y-58.137
X57.6Y-43.387
X61.0Y-39.75
X61.6Y-58.137
X62.41Y-55.137
X65.25Y-29.5
X65.25Y-34.5
X66.0Y-39.75
X70.0Y-44.25
X70.0Y-46.25
X70.58Y-38.8
X76.25Y-43.5
X78.2Y-38.8
X78.25Y-43.5
X80.75Y-54.75
X82.75Y-54.75
X100.0Y-29.325
X100.0Y-34.325
X100.0Y-36.8
X100.0Y-41.8
X100.0Y-44.325
X100.0Y-49.325
X100.0Y-51.825
X100.0Y-56.825
X100.0Y-59.5
X100.0Y-64.5
X100.0Y-67.3
X100.0Y-72.3
T5
X105.0Y-31.5
X105.0Y-38.94
X105.0Y-46.38
X105.0Y-53.82
X105.0Y-61.26
X105.0Y-68.7
X107.5Y-31.5
X107.5Y-38.94
X107.5Y-46.38
X107.5Y-53.82
X107.5Y-61.26
X107.5Y-68.7
X110.0Y-31.5
X110.0Y-38.94
X110.0Y-46.38
X110.0Y-53.82
X110.0Y-61.26
X110.0Y-68.7
T6
X30.75Y-31.675
X30.75Y-34.215
X70.25Y-54.735
X70.25Y-57.275
T7
X24.3Y-42.26
X24.3Y-44.8
X24.3Y-47.34
X24.3Y-49.88
X24.3Y-52.42
X24.3Y-54.96
X25.6Y-60.76
X25.6Y-63.3
X25.6Y-65.84
X52.0Y-29.42
X52.0Y-31.96
X52.0Y-34.5
X52.44Y-64.6
X54.98Y-64.6
X57.52Y-64.6
X60.06Y-64.6
X62.6Y-64.6
X65.14Y-64.6
X67.68Y-64.6
X70.22Y-64.6
T8
X62.0Y-27.46
X62.0Y-30.0
X62.0Y-32.54
T9
X76.46Y-48.305
X79.0Y-48.305
X81.54Y-48.305
T10
X75.3Y-30.75
X82.5Y-30.75
T11
X25.0Y-26.0
X25.0Y-76.0
X115.0Y-26.0
X115.0Y-76.0
T2
G00X72.15Y-24.2
M15
G01X72.15Y-25.3
M16
G05
G00X85.65Y-24.2
M15
G01X85.65Y-25.3
M16
G05
T3
G00X37.55Y-23.9
M15
G01X37.55Y-22.7
M16
G05
G00X37.55Y-28.4
M15
G01X37.55Y-27.2
M16
G05
G00X44.85Y-23.9
M15
G01X44.85Y-22.7
M16
G05
G00X44.85Y-28.4
M15
G01X44.85Y-27.2
M16
G05
T0
M30
