M48
; DRILL file {KiCad 7.0.8} date Sun Jun  9 13:28:53 2024
; FORMAT={-:-/ absolute / metric / decimal}
; #@! TF.CreationDate,2024-06-09T13:28:53-04:00
; #@! TF.GenerationSoftware,Kicad,Pcbnew,7.0.8
; #@! TF.FileFunction,Plated,1,4,PTH
FMAT,2
METRIC
; #@! TA.AperFunction,Plated,PTH,ViaDrill
T1C0.300
; #@! TA.AperFunction,Plated,PTH,ViaDrill
T2C0.400
; #@! TA.AperFunction,Plated,PTH,ComponentDrill
T3C0.600
; #@! TA.AperFunction,Plated,PTH,ComponentDrill
T4C0.700
; #@! TA.AperFunction,Plated,PTH,ComponentDrill
T5C0.800
; #@! TA.AperFunction,Plated,PTH,ComponentDrill
T6C0.850
; #@! TA.AperFunction,Plated,PTH,ComponentDrill
T7C1.000
; #@! TA.AperFunction,Plated,PTH,ComponentDrill
T8C1.100
; #@! TA.AperFunction,Plated,PTH,ComponentDrill
T9C1.200
; #@! TA.AperFunction,Plated,PTH,ComponentDrill
T10C2.700
%
G90
G05
T1
X93.9Y-59.55
X97.6Y-54.7
X98.75Y-48.75
X99.5Y-39.5
X99.5Y-76.25
X100.5Y-47.25
X100.6Y-61.1
X101.5Y-39.0
X101.5Y-46.5
X101.5Y-68.0
X101.725Y-67.0
X101.75Y-66.025
X104.1Y-54.7
X104.8Y-59.8
X105.833Y-67.45
X105.9Y-59.9
X106.0Y-46.6
X106.2Y-75.9
X108.262Y-58.438
T2
X35.875Y-39.938
X36.3Y-59.6
X39.125Y-60.675
X39.75Y-56.825
X40.05Y-62.625
X40.325Y-74.15
X41.3Y-43.825
X42.05Y-74.125
X42.738Y-57.438
X42.95Y-66.125
X42.975Y-39.5
X43.5Y-74.1
X43.6Y-44.35
X43.6Y-51.3
X43.891Y-56.49
X43.942Y-54.0
X44.004Y-52.996
X44.298Y-50.241
X44.755Y-55.88
X46.126Y-44.348
X46.4Y-53.0
X46.431Y-51.105
X46.787Y-46.177
X47.244Y-50.241
X47.346Y-44.45
X48.2Y-53.2
X49.835Y-55.474
X50.15Y-66.125
X50.597Y-56.439
X50.6Y-57.8
X50.6Y-63.4
X53.2Y-72.505
X53.675Y-45.95
X55.6Y-73.3
X55.613Y-52.892
X56.2Y-59.6
X56.975Y-51.35
X57.7Y-49.1
X57.8Y-54.0
X58.25Y-61.825
X59.9Y-73.0
X60.125Y-41.025
X61.35Y-63.15
X62.375Y-48.175
X62.6Y-54.0
X63.3Y-61.3
X65.025Y-39.05
X66.925Y-43.05
X67.475Y-48.65
X67.5Y-56.175
X69.2Y-54.0
X72.45Y-73.45
X73.275Y-53.025
X75.2Y-78.3
X78.2Y-35.2
X80.2Y-44.4
X84.4Y-41.6
X84.85Y-46.95
X89.375Y-59.85
X92.8Y-45.2
X97.25Y-56.5
X97.575Y-77.825
X98.0Y-47.9
X98.925Y-40.875
X100.6Y-37.6
X100.75Y-30.0
X101.0Y-75.5
X101.8Y-27.5
X102.36Y-78.36
X104.0Y-33.5
X104.0Y-35.5
X104.2Y-62.0
X104.591Y-48.7
X104.85Y-69.0
X105.25Y-36.75
X105.5Y-52.6
X106.1Y-39.1
X107.25Y-36.25
X107.7Y-70.2
X107.75Y-33.5
X108.0Y-57.0
X108.25Y-50.25
X108.3Y-74.2
X109.2Y-31.6
X109.5Y-36.25
X110.5Y-33.5
X112.0Y-35.75
X112.5Y-33.5
X112.75Y-50.75
X112.8Y-31.8
X113.0Y-37.25
X113.0Y-44.25
X113.0Y-57.5
X113.0Y-64.25
X113.0Y-71.5
X114.75Y-36.0
X115.5Y-33.5
X117.75Y-33.5
X119.75Y-33.75
X119.85Y-35.7
T4
X80.0Y-64.5
X80.0Y-82.28
X81.27Y-64.5
X81.27Y-82.28
X82.54Y-64.5
X82.54Y-82.28
X83.81Y-64.5
X83.81Y-82.28
X85.08Y-64.5
X85.08Y-82.28
X86.35Y-64.5
X86.35Y-82.28
X87.62Y-64.5
X87.62Y-82.28
X88.89Y-64.5
X90.16Y-64.5
T5
X43.575Y-69.393
X48.455Y-69.393
X72.0Y-48.0
X74.0Y-48.0
T6
X116.84Y-40.11
X116.84Y-47.06
X116.84Y-54.01
X116.84Y-60.96
X116.84Y-67.91
X116.84Y-74.86
X119.34Y-40.11
X119.34Y-47.06
X119.34Y-54.01
X119.34Y-60.96
X119.34Y-67.91
X119.34Y-74.86
X121.84Y-40.11
X121.84Y-47.06
X121.84Y-54.01
X121.84Y-60.96
X121.84Y-67.91
X121.84Y-74.86
T7
X35.85Y-63.15
X35.85Y-65.69
X35.85Y-68.23
X41.27Y-77.925
X43.81Y-77.925
X46.35Y-77.925
X48.89Y-77.925
X51.43Y-77.925
X53.188Y-43.129
X53.97Y-77.925
X55.66Y-68.0
X55.728Y-43.129
X58.2Y-68.0
X58.268Y-43.129
X60.74Y-68.0
X63.28Y-68.0
X65.82Y-68.0
X68.36Y-68.0
X78.51Y-68.6
X81.05Y-68.6
X83.59Y-68.6
X86.13Y-68.6
X88.67Y-68.6
X91.21Y-68.6
X93.75Y-68.6
X96.29Y-68.6
T8
X81.585Y-49.124
X81.585Y-51.664
X81.585Y-54.204
T9
X88.341Y-48.768
X88.341Y-51.308
X88.341Y-53.848
T10
X87.3Y-34.25
X94.5Y-34.25
T3
X84.15Y-27.7G85X84.15Y-28.8
G05
X97.65Y-27.7G85X97.65Y-28.8
G05
T4
X40.95Y-28.85G85X40.95Y-27.65
G05
X40.95Y-33.35G85X40.95Y-32.15
G05
X48.25Y-28.85G85X48.25Y-27.65
G05
X48.25Y-33.35G85X48.25Y-32.15
G05
T0
M30
