%TF.GenerationSoftware,KiCad,Pcbnew,(6.0.11)*%
%TF.CreationDate,2024-03-05T22:48:33-08:00*%
%TF.ProjectId,bez_controller1v5,62657a5f-636f-46e7-9472-6f6c6c657231,rev?*%
%TF.SameCoordinates,Original*%
%TF.FileFunction,Legend,Top*%
%TF.FilePolarity,Positive*%
%FSLAX46Y46*%
G04 Gerber Fmt 4.6, Leading zero omitted, Abs format (unit mm)*
G04 Created by KiCad (PCBNEW (6.0.11)) date 2024-03-05 22:48:33*
%MOMM*%
%LPD*%
G01*
G04 APERTURE LIST*
%ADD10C,0.150000*%
%ADD11C,0.300000*%
%ADD12C,0.100000*%
%ADD13C,0.200000*%
%ADD14C,0.250000*%
%ADD15C,0.120000*%
G04 APERTURE END LIST*
D10*
X49000000Y-35000000D02*
X51000000Y-37000000D01*
X72120000Y-63000000D02*
X50520000Y-63000000D01*
X50520000Y-63000000D02*
X50520000Y-79000000D01*
X50520000Y-79000000D02*
X72120000Y-79000000D01*
X72120000Y-79000000D02*
X72120000Y-63000000D01*
X51000000Y-37000000D02*
X56000000Y-37000000D01*
X94100000Y-62600000D02*
G75*
G03*
X94100000Y-62600000I-100000J0D01*
G01*
X88000000Y-60000000D02*
X88000000Y-25500000D01*
X65000000Y-56000000D02*
X65000000Y-61000000D01*
X56000000Y-37000000D02*
X59000000Y-40000000D01*
X94100000Y-39600000D02*
G75*
G03*
X94100000Y-39600000I-100000J0D01*
G01*
X86000000Y-62000000D02*
X88000000Y-60000000D01*
X94100000Y-55100000D02*
G75*
G03*
X94100000Y-55100000I-100000J0D01*
G01*
X94100000Y-70100000D02*
G75*
G03*
X94100000Y-70100000I-100000J0D01*
G01*
X59000000Y-50000000D02*
X65000000Y-56000000D01*
X49000000Y-25500000D02*
X49000000Y-35000000D01*
X65000000Y-61000000D02*
X66000000Y-62000000D01*
X94100000Y-32300000D02*
G75*
G03*
X94100000Y-32300000I-100000J0D01*
G01*
X94000000Y-47100000D02*
G75*
G03*
X94000000Y-47100000I-100000J0D01*
G01*
X63100000Y-23500000D02*
X51000000Y-23500000D01*
X59000000Y-40000000D02*
X59000000Y-50000000D01*
X66000000Y-62000000D02*
X86000000Y-62000000D01*
X51000000Y-23500000D02*
X49000000Y-25500000D01*
X54238095Y-33897380D02*
X54238095Y-34706904D01*
X54285714Y-34802142D01*
X54333333Y-34849761D01*
X54428571Y-34897380D01*
X54619047Y-34897380D01*
X54714285Y-34849761D01*
X54761904Y-34802142D01*
X54809523Y-34706904D01*
X54809523Y-33897380D01*
X55238095Y-34849761D02*
X55380952Y-34897380D01*
X55619047Y-34897380D01*
X55714285Y-34849761D01*
X55761904Y-34802142D01*
X55809523Y-34706904D01*
X55809523Y-34611666D01*
X55761904Y-34516428D01*
X55714285Y-34468809D01*
X55619047Y-34421190D01*
X55428571Y-34373571D01*
X55333333Y-34325952D01*
X55285714Y-34278333D01*
X55238095Y-34183095D01*
X55238095Y-34087857D01*
X55285714Y-33992619D01*
X55333333Y-33945000D01*
X55428571Y-33897380D01*
X55666666Y-33897380D01*
X55809523Y-33945000D01*
X56571428Y-34373571D02*
X56714285Y-34421190D01*
X56761904Y-34468809D01*
X56809523Y-34564047D01*
X56809523Y-34706904D01*
X56761904Y-34802142D01*
X56714285Y-34849761D01*
X56619047Y-34897380D01*
X56238095Y-34897380D01*
X56238095Y-33897380D01*
X56571428Y-33897380D01*
X56666666Y-33945000D01*
X56714285Y-33992619D01*
X56761904Y-34087857D01*
X56761904Y-34183095D01*
X56714285Y-34278333D01*
X56666666Y-34325952D01*
X56571428Y-34373571D01*
X56238095Y-34373571D01*
X54166666Y-36507380D02*
X54166666Y-35507380D01*
X54547619Y-35507380D01*
X54642857Y-35555000D01*
X54690476Y-35602619D01*
X54738095Y-35697857D01*
X54738095Y-35840714D01*
X54690476Y-35935952D01*
X54642857Y-35983571D01*
X54547619Y-36031190D01*
X54166666Y-36031190D01*
X55071428Y-35507380D02*
X55309523Y-36507380D01*
X55500000Y-35793095D01*
X55690476Y-36507380D01*
X55928571Y-35507380D01*
X56880952Y-36507380D02*
X56547619Y-36031190D01*
X56309523Y-36507380D02*
X56309523Y-35507380D01*
X56690476Y-35507380D01*
X56785714Y-35555000D01*
X56833333Y-35602619D01*
X56880952Y-35697857D01*
X56880952Y-35840714D01*
X56833333Y-35935952D01*
X56785714Y-35983571D01*
X56690476Y-36031190D01*
X56309523Y-36031190D01*
D11*
X31607142Y-24471071D02*
X31607142Y-22971071D01*
X32178571Y-22971071D01*
X32321428Y-23042500D01*
X32392857Y-23113928D01*
X32464285Y-23256785D01*
X32464285Y-23471071D01*
X32392857Y-23613928D01*
X32321428Y-23685357D01*
X32178571Y-23756785D01*
X31607142Y-23756785D01*
X33964285Y-24328214D02*
X33892857Y-24399642D01*
X33678571Y-24471071D01*
X33535714Y-24471071D01*
X33321428Y-24399642D01*
X33178571Y-24256785D01*
X33107142Y-24113928D01*
X33035714Y-23828214D01*
X33035714Y-23613928D01*
X33107142Y-23328214D01*
X33178571Y-23185357D01*
X33321428Y-23042500D01*
X33535714Y-22971071D01*
X33678571Y-22971071D01*
X33892857Y-23042500D01*
X33964285Y-23113928D01*
X30714285Y-26743214D02*
X30642857Y-26814642D01*
X30428571Y-26886071D01*
X30285714Y-26886071D01*
X30071428Y-26814642D01*
X29928571Y-26671785D01*
X29857142Y-26528928D01*
X29785714Y-26243214D01*
X29785714Y-26028928D01*
X29857142Y-25743214D01*
X29928571Y-25600357D01*
X30071428Y-25457500D01*
X30285714Y-25386071D01*
X30428571Y-25386071D01*
X30642857Y-25457500D01*
X30714285Y-25528928D01*
X31642857Y-25386071D02*
X31928571Y-25386071D01*
X32071428Y-25457500D01*
X32214285Y-25600357D01*
X32285714Y-25886071D01*
X32285714Y-26386071D01*
X32214285Y-26671785D01*
X32071428Y-26814642D01*
X31928571Y-26886071D01*
X31642857Y-26886071D01*
X31500000Y-26814642D01*
X31357142Y-26671785D01*
X31285714Y-26386071D01*
X31285714Y-25886071D01*
X31357142Y-25600357D01*
X31500000Y-25457500D01*
X31642857Y-25386071D01*
X32928571Y-26886071D02*
X32928571Y-25386071D01*
X33428571Y-26457500D01*
X33928571Y-25386071D01*
X33928571Y-26886071D01*
X34642857Y-26886071D02*
X34642857Y-25386071D01*
X35142857Y-26457500D01*
X35642857Y-25386071D01*
X35642857Y-26886071D01*
D12*
X54671428Y-66900000D02*
X55271428Y-66500000D01*
X54671428Y-66500000D02*
X55271428Y-66900000D01*
D11*
X52935714Y-77078571D02*
X52935714Y-75578571D01*
X53650000Y-77078571D02*
X53650000Y-75578571D01*
X54150000Y-76650000D01*
X54650000Y-75578571D01*
X54650000Y-77078571D01*
X55364285Y-75578571D02*
X55364285Y-76792857D01*
X55435714Y-76935714D01*
X55507142Y-77007142D01*
X55650000Y-77078571D01*
X55935714Y-77078571D01*
X56078571Y-77007142D01*
X56150000Y-76935714D01*
X56221428Y-76792857D01*
X56221428Y-75578571D01*
X58507142Y-77650000D02*
X58435714Y-77578571D01*
X58292857Y-77364285D01*
X58221428Y-77221428D01*
X58150000Y-77007142D01*
X58078571Y-76650000D01*
X58078571Y-76364285D01*
X58150000Y-76007142D01*
X58221428Y-75792857D01*
X58292857Y-75650000D01*
X58435714Y-75435714D01*
X58507142Y-75364285D01*
X59078571Y-77078571D02*
X59078571Y-75578571D01*
X59578571Y-76650000D01*
X60078571Y-75578571D01*
X60078571Y-77078571D01*
X60792857Y-77078571D02*
X60792857Y-75578571D01*
X61364285Y-75578571D01*
X61507142Y-75650000D01*
X61578571Y-75721428D01*
X61650000Y-75864285D01*
X61650000Y-76078571D01*
X61578571Y-76221428D01*
X61507142Y-76292857D01*
X61364285Y-76364285D01*
X60792857Y-76364285D01*
X62292857Y-75578571D02*
X62292857Y-76792857D01*
X62364285Y-76935714D01*
X62435714Y-77007142D01*
X62578571Y-77078571D01*
X62864285Y-77078571D01*
X63007142Y-77007142D01*
X63078571Y-76935714D01*
X63150000Y-76792857D01*
X63150000Y-75578571D01*
X64507142Y-75578571D02*
X64221428Y-75578571D01*
X64078571Y-75650000D01*
X64007142Y-75721428D01*
X63864285Y-75935714D01*
X63792857Y-76221428D01*
X63792857Y-76792857D01*
X63864285Y-76935714D01*
X63935714Y-77007142D01*
X64078571Y-77078571D01*
X64364285Y-77078571D01*
X64507142Y-77007142D01*
X64578571Y-76935714D01*
X64650000Y-76792857D01*
X64650000Y-76435714D01*
X64578571Y-76292857D01*
X64507142Y-76221428D01*
X64364285Y-76150000D01*
X64078571Y-76150000D01*
X63935714Y-76221428D01*
X63864285Y-76292857D01*
X63792857Y-76435714D01*
X65578571Y-75578571D02*
X65721428Y-75578571D01*
X65864285Y-75650000D01*
X65935714Y-75721428D01*
X66007142Y-75864285D01*
X66078571Y-76150000D01*
X66078571Y-76507142D01*
X66007142Y-76792857D01*
X65935714Y-76935714D01*
X65864285Y-77007142D01*
X65721428Y-77078571D01*
X65578571Y-77078571D01*
X65435714Y-77007142D01*
X65364285Y-76935714D01*
X65292857Y-76792857D01*
X65221428Y-76507142D01*
X65221428Y-76150000D01*
X65292857Y-75864285D01*
X65364285Y-75721428D01*
X65435714Y-75650000D01*
X65578571Y-75578571D01*
X67435714Y-75578571D02*
X66721428Y-75578571D01*
X66650000Y-76292857D01*
X66721428Y-76221428D01*
X66864285Y-76150000D01*
X67221428Y-76150000D01*
X67364285Y-76221428D01*
X67435714Y-76292857D01*
X67507142Y-76435714D01*
X67507142Y-76792857D01*
X67435714Y-76935714D01*
X67364285Y-77007142D01*
X67221428Y-77078571D01*
X66864285Y-77078571D01*
X66721428Y-77007142D01*
X66650000Y-76935714D01*
X68435714Y-75578571D02*
X68578571Y-75578571D01*
X68721428Y-75650000D01*
X68792857Y-75721428D01*
X68864285Y-75864285D01*
X68935714Y-76150000D01*
X68935714Y-76507142D01*
X68864285Y-76792857D01*
X68792857Y-76935714D01*
X68721428Y-77007142D01*
X68578571Y-77078571D01*
X68435714Y-77078571D01*
X68292857Y-77007142D01*
X68221428Y-76935714D01*
X68150000Y-76792857D01*
X68078571Y-76507142D01*
X68078571Y-76150000D01*
X68150000Y-75864285D01*
X68221428Y-75721428D01*
X68292857Y-75650000D01*
X68435714Y-75578571D01*
X69435714Y-77650000D02*
X69507142Y-77578571D01*
X69650000Y-77364285D01*
X69721428Y-77221428D01*
X69792857Y-77007142D01*
X69864285Y-76650000D01*
X69864285Y-76364285D01*
X69792857Y-76007142D01*
X69721428Y-75792857D01*
X69650000Y-75650000D01*
X69507142Y-75435714D01*
X69435714Y-75364285D01*
X87457142Y-23007142D02*
X88600000Y-23007142D01*
X88028571Y-23578571D02*
X88028571Y-22435714D01*
X90100000Y-23578571D02*
X89242857Y-23578571D01*
X89671428Y-23578571D02*
X89671428Y-22078571D01*
X89528571Y-22292857D01*
X89385714Y-22435714D01*
X89242857Y-22507142D01*
X90671428Y-22221428D02*
X90742857Y-22150000D01*
X90885714Y-22078571D01*
X91242857Y-22078571D01*
X91385714Y-22150000D01*
X91457142Y-22221428D01*
X91528571Y-22364285D01*
X91528571Y-22507142D01*
X91457142Y-22721428D01*
X90600000Y-23578571D01*
X91528571Y-23578571D01*
X91957142Y-22078571D02*
X92457142Y-23578571D01*
X92957142Y-22078571D01*
D10*
X20971428Y-55242857D02*
X21057142Y-55271428D01*
X21200000Y-55271428D01*
X21257142Y-55242857D01*
X21285714Y-55214285D01*
X21314285Y-55157142D01*
X21314285Y-55100000D01*
X21285714Y-55042857D01*
X21257142Y-55014285D01*
X21200000Y-54985714D01*
X21085714Y-54957142D01*
X21028571Y-54928571D01*
X21000000Y-54900000D01*
X20971428Y-54842857D01*
X20971428Y-54785714D01*
X21000000Y-54728571D01*
X21028571Y-54700000D01*
X21085714Y-54671428D01*
X21228571Y-54671428D01*
X21314285Y-54700000D01*
X21514285Y-54671428D02*
X21657142Y-55271428D01*
X21771428Y-54842857D01*
X21885714Y-55271428D01*
X22028571Y-54671428D01*
X22371428Y-54671428D02*
X22485714Y-54671428D01*
X22542857Y-54700000D01*
X22600000Y-54757142D01*
X22628571Y-54871428D01*
X22628571Y-55071428D01*
X22600000Y-55185714D01*
X22542857Y-55242857D01*
X22485714Y-55271428D01*
X22371428Y-55271428D01*
X22314285Y-55242857D01*
X22257142Y-55185714D01*
X22228571Y-55071428D01*
X22228571Y-54871428D01*
X22257142Y-54757142D01*
X22314285Y-54700000D01*
X22371428Y-54671428D01*
X21938095Y-65561904D02*
X22090476Y-65561904D01*
X22166666Y-65600000D01*
X22242857Y-65676190D01*
X22280952Y-65828571D01*
X22280952Y-66095238D01*
X22242857Y-66247619D01*
X22166666Y-66323809D01*
X22090476Y-66361904D01*
X21938095Y-66361904D01*
X21861904Y-66323809D01*
X21785714Y-66247619D01*
X21747619Y-66095238D01*
X21747619Y-65828571D01*
X21785714Y-65676190D01*
X21861904Y-65600000D01*
X21938095Y-65561904D01*
X22890476Y-65942857D02*
X22623809Y-65942857D01*
X22623809Y-66361904D02*
X22623809Y-65561904D01*
X23004761Y-65561904D01*
X23576190Y-65942857D02*
X23309523Y-65942857D01*
X23309523Y-66361904D02*
X23309523Y-65561904D01*
X23690476Y-65561904D01*
D13*
X67450000Y-68309523D02*
X67411904Y-68385714D01*
X67411904Y-68500000D01*
X67450000Y-68614285D01*
X67526190Y-68690476D01*
X67602380Y-68728571D01*
X67754761Y-68766666D01*
X67869047Y-68766666D01*
X68021428Y-68728571D01*
X68097619Y-68690476D01*
X68173809Y-68614285D01*
X68211904Y-68500000D01*
X68211904Y-68423809D01*
X68173809Y-68309523D01*
X68135714Y-68271428D01*
X67869047Y-68271428D01*
X67869047Y-68423809D01*
X68211904Y-67928571D02*
X67411904Y-67928571D01*
X68211904Y-67471428D01*
X67411904Y-67471428D01*
X68211904Y-67090476D02*
X67411904Y-67090476D01*
X67411904Y-66900000D01*
X67450000Y-66785714D01*
X67526190Y-66709523D01*
X67602380Y-66671428D01*
X67754761Y-66633333D01*
X67869047Y-66633333D01*
X68021428Y-66671428D01*
X68097619Y-66709523D01*
X68173809Y-66785714D01*
X68211904Y-66900000D01*
X68211904Y-67090476D01*
D14*
X31728571Y-78152380D02*
X31395238Y-77676190D01*
X31157142Y-78152380D02*
X31157142Y-77152380D01*
X31538095Y-77152380D01*
X31633333Y-77200000D01*
X31680952Y-77247619D01*
X31728571Y-77342857D01*
X31728571Y-77485714D01*
X31680952Y-77580952D01*
X31633333Y-77628571D01*
X31538095Y-77676190D01*
X31157142Y-77676190D01*
X32538095Y-78104761D02*
X32442857Y-78152380D01*
X32252380Y-78152380D01*
X32157142Y-78104761D01*
X32109523Y-78009523D01*
X32109523Y-77628571D01*
X32157142Y-77533333D01*
X32252380Y-77485714D01*
X32442857Y-77485714D01*
X32538095Y-77533333D01*
X32585714Y-77628571D01*
X32585714Y-77723809D01*
X32109523Y-77819047D01*
X32919047Y-77485714D02*
X33157142Y-78152380D01*
X33395238Y-77485714D01*
X35061904Y-78152380D02*
X34490476Y-78152380D01*
X34776190Y-78152380D02*
X34776190Y-77152380D01*
X34680952Y-77295238D01*
X34585714Y-77390476D01*
X34490476Y-77438095D01*
X35490476Y-78057142D02*
X35538095Y-78104761D01*
X35490476Y-78152380D01*
X35442857Y-78104761D01*
X35490476Y-78057142D01*
X35490476Y-78152380D01*
X36395238Y-77152380D02*
X36204761Y-77152380D01*
X36109523Y-77200000D01*
X36061904Y-77247619D01*
X35966666Y-77390476D01*
X35919047Y-77580952D01*
X35919047Y-77961904D01*
X35966666Y-78057142D01*
X36014285Y-78104761D01*
X36109523Y-78152380D01*
X36300000Y-78152380D01*
X36395238Y-78104761D01*
X36442857Y-78057142D01*
X36490476Y-77961904D01*
X36490476Y-77723809D01*
X36442857Y-77628571D01*
X36395238Y-77580952D01*
X36300000Y-77533333D01*
X36109523Y-77533333D01*
X36014285Y-77580952D01*
X35966666Y-77628571D01*
X35919047Y-77723809D01*
D10*
X89488095Y-73647380D02*
X90059523Y-73647380D01*
X89773809Y-74647380D02*
X89773809Y-73647380D01*
X90964285Y-74647380D02*
X90630952Y-74171190D01*
X90392857Y-74647380D02*
X90392857Y-73647380D01*
X90773809Y-73647380D01*
X90869047Y-73695000D01*
X90916666Y-73742619D01*
X90964285Y-73837857D01*
X90964285Y-73980714D01*
X90916666Y-74075952D01*
X90869047Y-74123571D01*
X90773809Y-74171190D01*
X90392857Y-74171190D01*
X91392857Y-74647380D02*
X91392857Y-73647380D01*
X91869047Y-74266428D02*
X92630952Y-74266428D01*
X93059523Y-74599761D02*
X93202380Y-74647380D01*
X93440476Y-74647380D01*
X93535714Y-74599761D01*
X93583333Y-74552142D01*
X93630952Y-74456904D01*
X93630952Y-74361666D01*
X93583333Y-74266428D01*
X93535714Y-74218809D01*
X93440476Y-74171190D01*
X93250000Y-74123571D01*
X93154761Y-74075952D01*
X93107142Y-74028333D01*
X93059523Y-73933095D01*
X93059523Y-73837857D01*
X93107142Y-73742619D01*
X93154761Y-73695000D01*
X93250000Y-73647380D01*
X93488095Y-73647380D01*
X93630952Y-73695000D01*
X93916666Y-73647380D02*
X94488095Y-73647380D01*
X94202380Y-74647380D02*
X94202380Y-73647380D01*
X94773809Y-74361666D02*
X95250000Y-74361666D01*
X94678571Y-74647380D02*
X95011904Y-73647380D01*
X95345238Y-74647380D01*
X95535714Y-73647380D02*
X96107142Y-73647380D01*
X95821428Y-74647380D02*
X95821428Y-73647380D01*
X96440476Y-74123571D02*
X96773809Y-74123571D01*
X96916666Y-74647380D02*
X96440476Y-74647380D01*
X96440476Y-73647380D01*
X96916666Y-73647380D01*
X90511904Y-75733571D02*
X90654761Y-75781190D01*
X90702380Y-75828809D01*
X90750000Y-75924047D01*
X90750000Y-76066904D01*
X90702380Y-76162142D01*
X90654761Y-76209761D01*
X90559523Y-76257380D01*
X90178571Y-76257380D01*
X90178571Y-75257380D01*
X90511904Y-75257380D01*
X90607142Y-75305000D01*
X90654761Y-75352619D01*
X90702380Y-75447857D01*
X90702380Y-75543095D01*
X90654761Y-75638333D01*
X90607142Y-75685952D01*
X90511904Y-75733571D01*
X90178571Y-75733571D01*
X91178571Y-75257380D02*
X91178571Y-76066904D01*
X91226190Y-76162142D01*
X91273809Y-76209761D01*
X91369047Y-76257380D01*
X91559523Y-76257380D01*
X91654761Y-76209761D01*
X91702380Y-76162142D01*
X91750000Y-76066904D01*
X91750000Y-75257380D01*
X92559523Y-75733571D02*
X92226190Y-75733571D01*
X92226190Y-76257380D02*
X92226190Y-75257380D01*
X92702380Y-75257380D01*
X93416666Y-75733571D02*
X93083333Y-75733571D01*
X93083333Y-76257380D02*
X93083333Y-75257380D01*
X93559523Y-75257380D01*
X93940476Y-75733571D02*
X94273809Y-75733571D01*
X94416666Y-76257380D02*
X93940476Y-76257380D01*
X93940476Y-75257380D01*
X94416666Y-75257380D01*
X95416666Y-76257380D02*
X95083333Y-75781190D01*
X94845238Y-76257380D02*
X94845238Y-75257380D01*
X95226190Y-75257380D01*
X95321428Y-75305000D01*
X95369047Y-75352619D01*
X95416666Y-75447857D01*
X95416666Y-75590714D01*
X95369047Y-75685952D01*
X95321428Y-75733571D01*
X95226190Y-75781190D01*
X94845238Y-75781190D01*
X95797619Y-76209761D02*
X95940476Y-76257380D01*
X96178571Y-76257380D01*
X96273809Y-76209761D01*
X96321428Y-76162142D01*
X96369047Y-76066904D01*
X96369047Y-75971666D01*
X96321428Y-75876428D01*
X96273809Y-75828809D01*
X96178571Y-75781190D01*
X95988095Y-75733571D01*
X95892857Y-75685952D01*
X95845238Y-75638333D01*
X95797619Y-75543095D01*
X95797619Y-75447857D01*
X95845238Y-75352619D01*
X95892857Y-75305000D01*
X95988095Y-75257380D01*
X96226190Y-75257380D01*
X96369047Y-75305000D01*
X55059523Y-28702380D02*
X54583333Y-28702380D01*
X54535714Y-29178571D01*
X54583333Y-29130952D01*
X54678571Y-29083333D01*
X54916666Y-29083333D01*
X55011904Y-29130952D01*
X55059523Y-29178571D01*
X55107142Y-29273809D01*
X55107142Y-29511904D01*
X55059523Y-29607142D01*
X55011904Y-29654761D01*
X54916666Y-29702380D01*
X54678571Y-29702380D01*
X54583333Y-29654761D01*
X54535714Y-29607142D01*
X55392857Y-28702380D02*
X55726190Y-29702380D01*
X56059523Y-28702380D01*
X20928571Y-44371428D02*
X21271428Y-44371428D01*
X21100000Y-44971428D02*
X21100000Y-44371428D01*
X21814285Y-44914285D02*
X21785714Y-44942857D01*
X21700000Y-44971428D01*
X21642857Y-44971428D01*
X21557142Y-44942857D01*
X21500000Y-44885714D01*
X21471428Y-44828571D01*
X21442857Y-44714285D01*
X21442857Y-44628571D01*
X21471428Y-44514285D01*
X21500000Y-44457142D01*
X21557142Y-44400000D01*
X21642857Y-44371428D01*
X21700000Y-44371428D01*
X21785714Y-44400000D01*
X21814285Y-44428571D01*
X22071428Y-44971428D02*
X22071428Y-44371428D01*
X22414285Y-44971428D02*
X22157142Y-44628571D01*
X22414285Y-44371428D02*
X22071428Y-44714285D01*
D12*
X52071428Y-66900000D02*
X52671428Y-66500000D01*
X52071428Y-66500000D02*
X52671428Y-66900000D01*
D13*
X65511904Y-71040476D02*
X64711904Y-71040476D01*
X64788095Y-70697619D02*
X64750000Y-70659523D01*
X64711904Y-70583333D01*
X64711904Y-70392857D01*
X64750000Y-70316666D01*
X64788095Y-70278571D01*
X64864285Y-70240476D01*
X64940476Y-70240476D01*
X65054761Y-70278571D01*
X65511904Y-70735714D01*
X65511904Y-70240476D01*
X65435714Y-69440476D02*
X65473809Y-69478571D01*
X65511904Y-69592857D01*
X65511904Y-69669047D01*
X65473809Y-69783333D01*
X65397619Y-69859523D01*
X65321428Y-69897619D01*
X65169047Y-69935714D01*
X65054761Y-69935714D01*
X64902380Y-69897619D01*
X64826190Y-69859523D01*
X64750000Y-69783333D01*
X64711904Y-69669047D01*
X64711904Y-69592857D01*
X64750000Y-69478571D01*
X64788095Y-69440476D01*
X65473809Y-68526190D02*
X65511904Y-68411904D01*
X65511904Y-68221428D01*
X65473809Y-68145238D01*
X65435714Y-68107142D01*
X65359523Y-68069047D01*
X65283333Y-68069047D01*
X65207142Y-68107142D01*
X65169047Y-68145238D01*
X65130952Y-68221428D01*
X65092857Y-68373809D01*
X65054761Y-68450000D01*
X65016666Y-68488095D01*
X64940476Y-68526190D01*
X64864285Y-68526190D01*
X64788095Y-68488095D01*
X64750000Y-68450000D01*
X64711904Y-68373809D01*
X64711904Y-68183333D01*
X64750000Y-68069047D01*
X65435714Y-67269047D02*
X65473809Y-67307142D01*
X65511904Y-67421428D01*
X65511904Y-67497619D01*
X65473809Y-67611904D01*
X65397619Y-67688095D01*
X65321428Y-67726190D01*
X65169047Y-67764285D01*
X65054761Y-67764285D01*
X64902380Y-67726190D01*
X64826190Y-67688095D01*
X64750000Y-67611904D01*
X64711904Y-67497619D01*
X64711904Y-67421428D01*
X64750000Y-67307142D01*
X64788095Y-67269047D01*
X65511904Y-66545238D02*
X65511904Y-66926190D01*
X64711904Y-66926190D01*
D10*
X20666666Y-42116666D02*
X21100000Y-42116666D01*
X20866666Y-42383333D01*
X20966666Y-42383333D01*
X21033333Y-42416666D01*
X21066666Y-42450000D01*
X21100000Y-42516666D01*
X21100000Y-42683333D01*
X21066666Y-42750000D01*
X21033333Y-42783333D01*
X20966666Y-42816666D01*
X20766666Y-42816666D01*
X20700000Y-42783333D01*
X20666666Y-42750000D01*
X21400000Y-42750000D02*
X21433333Y-42783333D01*
X21400000Y-42816666D01*
X21366666Y-42783333D01*
X21400000Y-42750000D01*
X21400000Y-42816666D01*
X21666666Y-42116666D02*
X22100000Y-42116666D01*
X21866666Y-42383333D01*
X21966666Y-42383333D01*
X22033333Y-42416666D01*
X22066666Y-42450000D01*
X22100000Y-42516666D01*
X22100000Y-42683333D01*
X22066666Y-42750000D01*
X22033333Y-42783333D01*
X21966666Y-42816666D01*
X21766666Y-42816666D01*
X21700000Y-42783333D01*
X21666666Y-42750000D01*
X22300000Y-42116666D02*
X22533333Y-42816666D01*
X22766666Y-42116666D01*
X21261904Y-57952380D02*
X21261904Y-56952380D01*
X21500000Y-56952380D01*
X21642857Y-57000000D01*
X21738095Y-57095238D01*
X21785714Y-57190476D01*
X21833333Y-57380952D01*
X21833333Y-57523809D01*
X21785714Y-57714285D01*
X21738095Y-57809523D01*
X21642857Y-57904761D01*
X21500000Y-57952380D01*
X21261904Y-57952380D01*
X22261904Y-57428571D02*
X22595238Y-57428571D01*
X22738095Y-57952380D02*
X22261904Y-57952380D01*
X22261904Y-56952380D01*
X22738095Y-56952380D01*
X23500000Y-57428571D02*
X23642857Y-57476190D01*
X23690476Y-57523809D01*
X23738095Y-57619047D01*
X23738095Y-57761904D01*
X23690476Y-57857142D01*
X23642857Y-57904761D01*
X23547619Y-57952380D01*
X23166666Y-57952380D01*
X23166666Y-56952380D01*
X23500000Y-56952380D01*
X23595238Y-57000000D01*
X23642857Y-57047619D01*
X23690476Y-57142857D01*
X23690476Y-57238095D01*
X23642857Y-57333333D01*
X23595238Y-57380952D01*
X23500000Y-57428571D01*
X23166666Y-57428571D01*
X24166666Y-56952380D02*
X24166666Y-57761904D01*
X24214285Y-57857142D01*
X24261904Y-57904761D01*
X24357142Y-57952380D01*
X24547619Y-57952380D01*
X24642857Y-57904761D01*
X24690476Y-57857142D01*
X24738095Y-57761904D01*
X24738095Y-56952380D01*
X25738095Y-57000000D02*
X25642857Y-56952380D01*
X25500000Y-56952380D01*
X25357142Y-57000000D01*
X25261904Y-57095238D01*
X25214285Y-57190476D01*
X25166666Y-57380952D01*
X25166666Y-57523809D01*
X25214285Y-57714285D01*
X25261904Y-57809523D01*
X25357142Y-57904761D01*
X25500000Y-57952380D01*
X25595238Y-57952380D01*
X25738095Y-57904761D01*
X25785714Y-57857142D01*
X25785714Y-57523809D01*
X25595238Y-57523809D01*
X20764285Y-52771428D02*
X20764285Y-52171428D01*
X21107142Y-52771428D01*
X21107142Y-52171428D01*
X21735714Y-52771428D02*
X21535714Y-52485714D01*
X21392857Y-52771428D02*
X21392857Y-52171428D01*
X21621428Y-52171428D01*
X21678571Y-52200000D01*
X21707142Y-52228571D01*
X21735714Y-52285714D01*
X21735714Y-52371428D01*
X21707142Y-52428571D01*
X21678571Y-52457142D01*
X21621428Y-52485714D01*
X21392857Y-52485714D01*
X21964285Y-52742857D02*
X22050000Y-52771428D01*
X22192857Y-52771428D01*
X22250000Y-52742857D01*
X22278571Y-52714285D01*
X22307142Y-52657142D01*
X22307142Y-52600000D01*
X22278571Y-52542857D01*
X22250000Y-52514285D01*
X22192857Y-52485714D01*
X22078571Y-52457142D01*
X22021428Y-52428571D01*
X21992857Y-52400000D01*
X21964285Y-52342857D01*
X21964285Y-52285714D01*
X21992857Y-52228571D01*
X22021428Y-52200000D01*
X22078571Y-52171428D01*
X22221428Y-52171428D01*
X22307142Y-52200000D01*
X22478571Y-52171428D02*
X22821428Y-52171428D01*
X22650000Y-52771428D02*
X22650000Y-52171428D01*
D12*
X57171428Y-66900000D02*
X57771428Y-66500000D01*
X57171428Y-66500000D02*
X57771428Y-66900000D01*
D11*
X62785714Y-51178571D02*
X63714285Y-51178571D01*
X63214285Y-51750000D01*
X63428571Y-51750000D01*
X63571428Y-51821428D01*
X63642857Y-51892857D01*
X63714285Y-52035714D01*
X63714285Y-52392857D01*
X63642857Y-52535714D01*
X63571428Y-52607142D01*
X63428571Y-52678571D01*
X63000000Y-52678571D01*
X62857142Y-52607142D01*
X62785714Y-52535714D01*
X64357142Y-52535714D02*
X64428571Y-52607142D01*
X64357142Y-52678571D01*
X64285714Y-52607142D01*
X64357142Y-52535714D01*
X64357142Y-52678571D01*
X64928571Y-51178571D02*
X65857142Y-51178571D01*
X65357142Y-51750000D01*
X65571428Y-51750000D01*
X65714285Y-51821428D01*
X65785714Y-51892857D01*
X65857142Y-52035714D01*
X65857142Y-52392857D01*
X65785714Y-52535714D01*
X65714285Y-52607142D01*
X65571428Y-52678571D01*
X65142857Y-52678571D01*
X65000000Y-52607142D01*
X64928571Y-52535714D01*
X66285714Y-51178571D02*
X66785714Y-52678571D01*
X67285714Y-51178571D01*
X64542857Y-23107142D02*
X65685714Y-23107142D01*
X67185714Y-22250000D02*
X67042857Y-22178571D01*
X66828571Y-22178571D01*
X66614285Y-22250000D01*
X66471428Y-22392857D01*
X66400000Y-22535714D01*
X66328571Y-22821428D01*
X66328571Y-23035714D01*
X66400000Y-23321428D01*
X66471428Y-23464285D01*
X66614285Y-23607142D01*
X66828571Y-23678571D01*
X66971428Y-23678571D01*
X67185714Y-23607142D01*
X67257142Y-23535714D01*
X67257142Y-23035714D01*
X66971428Y-23035714D01*
X67900000Y-23678571D02*
X67900000Y-22178571D01*
X68757142Y-23678571D01*
X68757142Y-22178571D01*
X69471428Y-23678571D02*
X69471428Y-22178571D01*
X69828571Y-22178571D01*
X70042857Y-22250000D01*
X70185714Y-22392857D01*
X70257142Y-22535714D01*
X70328571Y-22821428D01*
X70328571Y-23035714D01*
X70257142Y-23321428D01*
X70185714Y-23464285D01*
X70042857Y-23607142D01*
X69828571Y-23678571D01*
X69471428Y-23678571D01*
D10*
X21000000Y-49471428D02*
X21342857Y-49471428D01*
X21171428Y-50071428D02*
X21171428Y-49471428D01*
X21542857Y-50071428D02*
X21542857Y-49471428D01*
X21742857Y-49900000D01*
X21942857Y-49471428D01*
X21942857Y-50071428D01*
X22200000Y-50042857D02*
X22285714Y-50071428D01*
X22428571Y-50071428D01*
X22485714Y-50042857D01*
X22514285Y-50014285D01*
X22542857Y-49957142D01*
X22542857Y-49900000D01*
X22514285Y-49842857D01*
X22485714Y-49814285D01*
X22428571Y-49785714D01*
X22314285Y-49757142D01*
X22257142Y-49728571D01*
X22228571Y-49700000D01*
X22200000Y-49642857D01*
X22200000Y-49585714D01*
X22228571Y-49528571D01*
X22257142Y-49500000D01*
X22314285Y-49471428D01*
X22457142Y-49471428D01*
X22542857Y-49500000D01*
D13*
X63061904Y-71159523D02*
X62261904Y-71159523D01*
X62338095Y-70816666D02*
X62300000Y-70778571D01*
X62261904Y-70702380D01*
X62261904Y-70511904D01*
X62300000Y-70435714D01*
X62338095Y-70397619D01*
X62414285Y-70359523D01*
X62490476Y-70359523D01*
X62604761Y-70397619D01*
X63061904Y-70854761D01*
X63061904Y-70359523D01*
X62985714Y-69559523D02*
X63023809Y-69597619D01*
X63061904Y-69711904D01*
X63061904Y-69788095D01*
X63023809Y-69902380D01*
X62947619Y-69978571D01*
X62871428Y-70016666D01*
X62719047Y-70054761D01*
X62604761Y-70054761D01*
X62452380Y-70016666D01*
X62376190Y-69978571D01*
X62300000Y-69902380D01*
X62261904Y-69788095D01*
X62261904Y-69711904D01*
X62300000Y-69597619D01*
X62338095Y-69559523D01*
X63023809Y-68645238D02*
X63061904Y-68530952D01*
X63061904Y-68340476D01*
X63023809Y-68264285D01*
X62985714Y-68226190D01*
X62909523Y-68188095D01*
X62833333Y-68188095D01*
X62757142Y-68226190D01*
X62719047Y-68264285D01*
X62680952Y-68340476D01*
X62642857Y-68492857D01*
X62604761Y-68569047D01*
X62566666Y-68607142D01*
X62490476Y-68645238D01*
X62414285Y-68645238D01*
X62338095Y-68607142D01*
X62300000Y-68569047D01*
X62261904Y-68492857D01*
X62261904Y-68302380D01*
X62300000Y-68188095D01*
X63061904Y-67845238D02*
X62261904Y-67845238D01*
X62261904Y-67654761D01*
X62300000Y-67540476D01*
X62376190Y-67464285D01*
X62452380Y-67426190D01*
X62604761Y-67388095D01*
X62719047Y-67388095D01*
X62871428Y-67426190D01*
X62947619Y-67464285D01*
X63023809Y-67540476D01*
X63061904Y-67654761D01*
X63061904Y-67845238D01*
X62833333Y-67083333D02*
X62833333Y-66702380D01*
X63061904Y-67159523D02*
X62261904Y-66892857D01*
X63061904Y-66626190D01*
D10*
X22273809Y-33099761D02*
X22416666Y-33147380D01*
X22654761Y-33147380D01*
X22750000Y-33099761D01*
X22797619Y-33052142D01*
X22845238Y-32956904D01*
X22845238Y-32861666D01*
X22797619Y-32766428D01*
X22750000Y-32718809D01*
X22654761Y-32671190D01*
X22464285Y-32623571D01*
X22369047Y-32575952D01*
X22321428Y-32528333D01*
X22273809Y-32433095D01*
X22273809Y-32337857D01*
X22321428Y-32242619D01*
X22369047Y-32195000D01*
X22464285Y-32147380D01*
X22702380Y-32147380D01*
X22845238Y-32195000D01*
X23130952Y-32147380D02*
X23702380Y-32147380D01*
X23416666Y-33147380D02*
X23416666Y-32147380D01*
X23988095Y-32861666D02*
X24464285Y-32861666D01*
X23892857Y-33147380D02*
X24226190Y-32147380D01*
X24559523Y-33147380D01*
X24750000Y-32147380D02*
X25321428Y-32147380D01*
X25035714Y-33147380D02*
X25035714Y-32147380D01*
X25654761Y-32147380D02*
X25654761Y-32956904D01*
X25702380Y-33052142D01*
X25750000Y-33099761D01*
X25845238Y-33147380D01*
X26035714Y-33147380D01*
X26130952Y-33099761D01*
X26178571Y-33052142D01*
X26226190Y-32956904D01*
X26226190Y-32147380D01*
X26654761Y-33099761D02*
X26797619Y-33147380D01*
X27035714Y-33147380D01*
X27130952Y-33099761D01*
X27178571Y-33052142D01*
X27226190Y-32956904D01*
X27226190Y-32861666D01*
X27178571Y-32766428D01*
X27130952Y-32718809D01*
X27035714Y-32671190D01*
X26845238Y-32623571D01*
X26750000Y-32575952D01*
X26702380Y-32528333D01*
X26654761Y-32433095D01*
X26654761Y-32337857D01*
X26702380Y-32242619D01*
X26750000Y-32195000D01*
X26845238Y-32147380D01*
X27083333Y-32147380D01*
X27226190Y-32195000D01*
X24107142Y-34757380D02*
X23630952Y-34757380D01*
X23630952Y-33757380D01*
X24440476Y-34233571D02*
X24773809Y-34233571D01*
X24916666Y-34757380D02*
X24440476Y-34757380D01*
X24440476Y-33757380D01*
X24916666Y-33757380D01*
X25345238Y-34757380D02*
X25345238Y-33757380D01*
X25583333Y-33757380D01*
X25726190Y-33805000D01*
X25821428Y-33900238D01*
X25869047Y-33995476D01*
X25916666Y-34185952D01*
X25916666Y-34328809D01*
X25869047Y-34519285D01*
X25821428Y-34614523D01*
X25726190Y-34709761D01*
X25583333Y-34757380D01*
X25345238Y-34757380D01*
D12*
X59771428Y-66900000D02*
X60371428Y-66500000D01*
X59771428Y-66500000D02*
X60371428Y-66900000D01*
D10*
X24242857Y-68388571D02*
X24385714Y-68436190D01*
X24433333Y-68483809D01*
X24480952Y-68579047D01*
X24480952Y-68721904D01*
X24433333Y-68817142D01*
X24385714Y-68864761D01*
X24290476Y-68912380D01*
X23909523Y-68912380D01*
X23909523Y-67912380D01*
X24242857Y-67912380D01*
X24338095Y-67960000D01*
X24385714Y-68007619D01*
X24433333Y-68102857D01*
X24433333Y-68198095D01*
X24385714Y-68293333D01*
X24338095Y-68340952D01*
X24242857Y-68388571D01*
X23909523Y-68388571D01*
X25100000Y-67912380D02*
X25290476Y-67912380D01*
X25385714Y-67960000D01*
X25480952Y-68055238D01*
X25528571Y-68245714D01*
X25528571Y-68579047D01*
X25480952Y-68769523D01*
X25385714Y-68864761D01*
X25290476Y-68912380D01*
X25100000Y-68912380D01*
X25004761Y-68864761D01*
X24909523Y-68769523D01*
X24861904Y-68579047D01*
X24861904Y-68245714D01*
X24909523Y-68055238D01*
X25004761Y-67960000D01*
X25100000Y-67912380D01*
X26147619Y-67912380D02*
X26338095Y-67912380D01*
X26433333Y-67960000D01*
X26528571Y-68055238D01*
X26576190Y-68245714D01*
X26576190Y-68579047D01*
X26528571Y-68769523D01*
X26433333Y-68864761D01*
X26338095Y-68912380D01*
X26147619Y-68912380D01*
X26052380Y-68864761D01*
X25957142Y-68769523D01*
X25909523Y-68579047D01*
X25909523Y-68245714D01*
X25957142Y-68055238D01*
X26052380Y-67960000D01*
X26147619Y-67912380D01*
X26861904Y-67912380D02*
X27433333Y-67912380D01*
X27147619Y-68912380D02*
X27147619Y-67912380D01*
X21342857Y-47000000D02*
X21285714Y-46971428D01*
X21200000Y-46971428D01*
X21114285Y-47000000D01*
X21057142Y-47057142D01*
X21028571Y-47114285D01*
X21000000Y-47228571D01*
X21000000Y-47314285D01*
X21028571Y-47428571D01*
X21057142Y-47485714D01*
X21114285Y-47542857D01*
X21200000Y-47571428D01*
X21257142Y-47571428D01*
X21342857Y-47542857D01*
X21371428Y-47514285D01*
X21371428Y-47314285D01*
X21257142Y-47314285D01*
X21628571Y-47571428D02*
X21628571Y-46971428D01*
X21971428Y-47571428D01*
X21971428Y-46971428D01*
X22257142Y-47571428D02*
X22257142Y-46971428D01*
X22400000Y-46971428D01*
X22485714Y-47000000D01*
X22542857Y-47057142D01*
X22571428Y-47114285D01*
X22600000Y-47228571D01*
X22600000Y-47314285D01*
X22571428Y-47428571D01*
X22542857Y-47485714D01*
X22485714Y-47542857D01*
X22400000Y-47571428D01*
X22257142Y-47571428D01*
D11*
X75642857Y-52178571D02*
X75357142Y-52178571D01*
X75214285Y-52250000D01*
X75142857Y-52321428D01*
X75000000Y-52535714D01*
X74928571Y-52821428D01*
X74928571Y-53392857D01*
X75000000Y-53535714D01*
X75071428Y-53607142D01*
X75214285Y-53678571D01*
X75500000Y-53678571D01*
X75642857Y-53607142D01*
X75714285Y-53535714D01*
X75785714Y-53392857D01*
X75785714Y-53035714D01*
X75714285Y-52892857D01*
X75642857Y-52821428D01*
X75500000Y-52750000D01*
X75214285Y-52750000D01*
X75071428Y-52821428D01*
X75000000Y-52892857D01*
X74928571Y-53035714D01*
X76214285Y-52178571D02*
X76714285Y-53678571D01*
X77214285Y-52178571D01*
D13*
X69961904Y-67502380D02*
X69961904Y-67883333D01*
X70342857Y-67921428D01*
X70304761Y-67883333D01*
X70266666Y-67807142D01*
X70266666Y-67616666D01*
X70304761Y-67540476D01*
X70342857Y-67502380D01*
X70419047Y-67464285D01*
X70609523Y-67464285D01*
X70685714Y-67502380D01*
X70723809Y-67540476D01*
X70761904Y-67616666D01*
X70761904Y-67807142D01*
X70723809Y-67883333D01*
X70685714Y-67921428D01*
X69961904Y-67235714D02*
X70761904Y-66969047D01*
X69961904Y-66702380D01*
D10*
X39809523Y-70852380D02*
X40000000Y-70852380D01*
X40095238Y-70900000D01*
X40190476Y-70995238D01*
X40238095Y-71185714D01*
X40238095Y-71519047D01*
X40190476Y-71709523D01*
X40095238Y-71804761D01*
X40000000Y-71852380D01*
X39809523Y-71852380D01*
X39714285Y-71804761D01*
X39619047Y-71709523D01*
X39571428Y-71519047D01*
X39571428Y-71185714D01*
X39619047Y-70995238D01*
X39714285Y-70900000D01*
X39809523Y-70852380D01*
X40619047Y-71804761D02*
X40714285Y-71852380D01*
X40904761Y-71852380D01*
X41000000Y-71804761D01*
X41047619Y-71709523D01*
X41047619Y-71661904D01*
X41000000Y-71566666D01*
X40904761Y-71519047D01*
X40761904Y-71519047D01*
X40666666Y-71471428D01*
X40619047Y-71376190D01*
X40619047Y-71328571D01*
X40666666Y-71233333D01*
X40761904Y-71185714D01*
X40904761Y-71185714D01*
X41000000Y-71233333D01*
X41904761Y-71804761D02*
X41809523Y-71852380D01*
X41619047Y-71852380D01*
X41523809Y-71804761D01*
X41476190Y-71757142D01*
X41428571Y-71661904D01*
X41428571Y-71376190D01*
X41476190Y-71280952D01*
X41523809Y-71233333D01*
X41619047Y-71185714D01*
X41809523Y-71185714D01*
X41904761Y-71233333D01*
X42333333Y-71852380D02*
X42333333Y-71185714D01*
X42333333Y-70852380D02*
X42285714Y-70900000D01*
X42333333Y-70947619D01*
X42380952Y-70900000D01*
X42333333Y-70852380D01*
X42333333Y-70947619D01*
X42952380Y-71852380D02*
X42857142Y-71804761D01*
X42809523Y-71709523D01*
X42809523Y-70852380D01*
X43476190Y-71852380D02*
X43380952Y-71804761D01*
X43333333Y-71709523D01*
X43333333Y-70852380D01*
X44285714Y-71852380D02*
X44285714Y-71328571D01*
X44238095Y-71233333D01*
X44142857Y-71185714D01*
X43952380Y-71185714D01*
X43857142Y-71233333D01*
X44285714Y-71804761D02*
X44190476Y-71852380D01*
X43952380Y-71852380D01*
X43857142Y-71804761D01*
X43809523Y-71709523D01*
X43809523Y-71614285D01*
X43857142Y-71519047D01*
X43952380Y-71471428D01*
X44190476Y-71471428D01*
X44285714Y-71423809D01*
X44619047Y-71185714D02*
X45000000Y-71185714D01*
X44761904Y-70852380D02*
X44761904Y-71709523D01*
X44809523Y-71804761D01*
X44904761Y-71852380D01*
X45000000Y-71852380D01*
X45476190Y-71852380D02*
X45380952Y-71804761D01*
X45333333Y-71757142D01*
X45285714Y-71661904D01*
X45285714Y-71376190D01*
X45333333Y-71280952D01*
X45380952Y-71233333D01*
X45476190Y-71185714D01*
X45619047Y-71185714D01*
X45714285Y-71233333D01*
X45761904Y-71280952D01*
X45809523Y-71376190D01*
X45809523Y-71661904D01*
X45761904Y-71757142D01*
X45714285Y-71804761D01*
X45619047Y-71852380D01*
X45476190Y-71852380D01*
X46238095Y-71852380D02*
X46238095Y-71185714D01*
X46238095Y-71376190D02*
X46285714Y-71280952D01*
X46333333Y-71233333D01*
X46428571Y-71185714D01*
X46523809Y-71185714D01*
D11*
X102857142Y-75721071D02*
X102857142Y-74221071D01*
X103357142Y-75292500D01*
X103857142Y-74221071D01*
X103857142Y-75721071D01*
X104857142Y-74221071D02*
X105142857Y-74221071D01*
X105285714Y-74292500D01*
X105428571Y-74435357D01*
X105500000Y-74721071D01*
X105500000Y-75221071D01*
X105428571Y-75506785D01*
X105285714Y-75649642D01*
X105142857Y-75721071D01*
X104857142Y-75721071D01*
X104714285Y-75649642D01*
X104571428Y-75506785D01*
X104500000Y-75221071D01*
X104500000Y-74721071D01*
X104571428Y-74435357D01*
X104714285Y-74292500D01*
X104857142Y-74221071D01*
X105928571Y-74221071D02*
X106785714Y-74221071D01*
X106357142Y-75721071D02*
X106357142Y-74221071D01*
X107571428Y-74221071D02*
X107857142Y-74221071D01*
X108000000Y-74292500D01*
X108142857Y-74435357D01*
X108214285Y-74721071D01*
X108214285Y-75221071D01*
X108142857Y-75506785D01*
X108000000Y-75649642D01*
X107857142Y-75721071D01*
X107571428Y-75721071D01*
X107428571Y-75649642D01*
X107285714Y-75506785D01*
X107214285Y-75221071D01*
X107214285Y-74721071D01*
X107285714Y-74435357D01*
X107428571Y-74292500D01*
X107571428Y-74221071D01*
X109714285Y-75721071D02*
X109214285Y-75006785D01*
X108857142Y-75721071D02*
X108857142Y-74221071D01*
X109428571Y-74221071D01*
X109571428Y-74292500D01*
X109642857Y-74363928D01*
X109714285Y-74506785D01*
X109714285Y-74721071D01*
X109642857Y-74863928D01*
X109571428Y-74935357D01*
X109428571Y-75006785D01*
X108857142Y-75006785D01*
X104214285Y-77993214D02*
X104142857Y-78064642D01*
X103928571Y-78136071D01*
X103785714Y-78136071D01*
X103571428Y-78064642D01*
X103428571Y-77921785D01*
X103357142Y-77778928D01*
X103285714Y-77493214D01*
X103285714Y-77278928D01*
X103357142Y-76993214D01*
X103428571Y-76850357D01*
X103571428Y-76707500D01*
X103785714Y-76636071D01*
X103928571Y-76636071D01*
X104142857Y-76707500D01*
X104214285Y-76778928D01*
X105142857Y-76636071D02*
X105428571Y-76636071D01*
X105571428Y-76707500D01*
X105714285Y-76850357D01*
X105785714Y-77136071D01*
X105785714Y-77636071D01*
X105714285Y-77921785D01*
X105571428Y-78064642D01*
X105428571Y-78136071D01*
X105142857Y-78136071D01*
X105000000Y-78064642D01*
X104857142Y-77921785D01*
X104785714Y-77636071D01*
X104785714Y-77136071D01*
X104857142Y-76850357D01*
X105000000Y-76707500D01*
X105142857Y-76636071D01*
X106428571Y-78136071D02*
X106428571Y-76636071D01*
X106928571Y-77707500D01*
X107428571Y-76636071D01*
X107428571Y-78136071D01*
X108142857Y-78136071D02*
X108142857Y-76636071D01*
X108642857Y-77707500D01*
X109142857Y-76636071D01*
X109142857Y-78136071D01*
D10*
X22104761Y-60461904D02*
X22257142Y-60461904D01*
X22333333Y-60500000D01*
X22409523Y-60576190D01*
X22447619Y-60728571D01*
X22447619Y-60995238D01*
X22409523Y-61147619D01*
X22333333Y-61223809D01*
X22257142Y-61261904D01*
X22104761Y-61261904D01*
X22028571Y-61223809D01*
X21952380Y-61147619D01*
X21914285Y-60995238D01*
X21914285Y-60728571D01*
X21952380Y-60576190D01*
X22028571Y-60500000D01*
X22104761Y-60461904D01*
X22790476Y-61261904D02*
X22790476Y-60461904D01*
X23247619Y-61261904D01*
X23247619Y-60461904D01*
D11*
X76535714Y-64678571D02*
X76535714Y-63178571D01*
X77107142Y-63178571D01*
X77250000Y-63250000D01*
X77321428Y-63321428D01*
X77392857Y-63464285D01*
X77392857Y-63678571D01*
X77321428Y-63821428D01*
X77250000Y-63892857D01*
X77107142Y-63964285D01*
X76535714Y-63964285D01*
X78321428Y-63178571D02*
X78607142Y-63178571D01*
X78750000Y-63250000D01*
X78892857Y-63392857D01*
X78964285Y-63678571D01*
X78964285Y-64178571D01*
X78892857Y-64464285D01*
X78750000Y-64607142D01*
X78607142Y-64678571D01*
X78321428Y-64678571D01*
X78178571Y-64607142D01*
X78035714Y-64464285D01*
X77964285Y-64178571D01*
X77964285Y-63678571D01*
X78035714Y-63392857D01*
X78178571Y-63250000D01*
X78321428Y-63178571D01*
X79464285Y-63178571D02*
X79821428Y-64678571D01*
X80107142Y-63607142D01*
X80392857Y-64678571D01*
X80750000Y-63178571D01*
X81321428Y-63892857D02*
X81821428Y-63892857D01*
X82035714Y-64678571D02*
X81321428Y-64678571D01*
X81321428Y-63178571D01*
X82035714Y-63178571D01*
X83535714Y-64678571D02*
X83035714Y-63964285D01*
X82678571Y-64678571D02*
X82678571Y-63178571D01*
X83250000Y-63178571D01*
X83392857Y-63250000D01*
X83464285Y-63321428D01*
X83535714Y-63464285D01*
X83535714Y-63678571D01*
X83464285Y-63821428D01*
X83392857Y-63892857D01*
X83250000Y-63964285D01*
X82678571Y-63964285D01*
D10*
%TO.C,U9*%
X66452380Y-50011904D02*
X67261904Y-50011904D01*
X67357142Y-49964285D01*
X67404761Y-49916666D01*
X67452380Y-49821428D01*
X67452380Y-49630952D01*
X67404761Y-49535714D01*
X67357142Y-49488095D01*
X67261904Y-49440476D01*
X66452380Y-49440476D01*
X67452380Y-48916666D02*
X67452380Y-48726190D01*
X67404761Y-48630952D01*
X67357142Y-48583333D01*
X67214285Y-48488095D01*
X67023809Y-48440476D01*
X66642857Y-48440476D01*
X66547619Y-48488095D01*
X66500000Y-48535714D01*
X66452380Y-48630952D01*
X66452380Y-48821428D01*
X66500000Y-48916666D01*
X66547619Y-48964285D01*
X66642857Y-49011904D01*
X66880952Y-49011904D01*
X66976190Y-48964285D01*
X67023809Y-48916666D01*
X67071428Y-48821428D01*
X67071428Y-48630952D01*
X67023809Y-48535714D01*
X66976190Y-48488095D01*
X66880952Y-48440476D01*
%TO.C,C5*%
X100357142Y-39466666D02*
X100404761Y-39514285D01*
X100452380Y-39657142D01*
X100452380Y-39752380D01*
X100404761Y-39895238D01*
X100309523Y-39990476D01*
X100214285Y-40038095D01*
X100023809Y-40085714D01*
X99880952Y-40085714D01*
X99690476Y-40038095D01*
X99595238Y-39990476D01*
X99500000Y-39895238D01*
X99452380Y-39752380D01*
X99452380Y-39657142D01*
X99500000Y-39514285D01*
X99547619Y-39466666D01*
X99452380Y-38561904D02*
X99452380Y-39038095D01*
X99928571Y-39085714D01*
X99880952Y-39038095D01*
X99833333Y-38942857D01*
X99833333Y-38704761D01*
X99880952Y-38609523D01*
X99928571Y-38561904D01*
X100023809Y-38514285D01*
X100261904Y-38514285D01*
X100357142Y-38561904D01*
X100404761Y-38609523D01*
X100452380Y-38704761D01*
X100452380Y-38942857D01*
X100404761Y-39038095D01*
X100357142Y-39085714D01*
%TO.C,U4*%
X92238095Y-42777380D02*
X92238095Y-43586904D01*
X92285714Y-43682142D01*
X92333333Y-43729761D01*
X92428571Y-43777380D01*
X92619047Y-43777380D01*
X92714285Y-43729761D01*
X92761904Y-43682142D01*
X92809523Y-43586904D01*
X92809523Y-42777380D01*
X93714285Y-43110714D02*
X93714285Y-43777380D01*
X93476190Y-42729761D02*
X93238095Y-43444047D01*
X93857142Y-43444047D01*
%TO.C,C13*%
X29557142Y-54642857D02*
X29604761Y-54690476D01*
X29652380Y-54833333D01*
X29652380Y-54928571D01*
X29604761Y-55071428D01*
X29509523Y-55166666D01*
X29414285Y-55214285D01*
X29223809Y-55261904D01*
X29080952Y-55261904D01*
X28890476Y-55214285D01*
X28795238Y-55166666D01*
X28700000Y-55071428D01*
X28652380Y-54928571D01*
X28652380Y-54833333D01*
X28700000Y-54690476D01*
X28747619Y-54642857D01*
X29652380Y-53690476D02*
X29652380Y-54261904D01*
X29652380Y-53976190D02*
X28652380Y-53976190D01*
X28795238Y-54071428D01*
X28890476Y-54166666D01*
X28938095Y-54261904D01*
X28652380Y-53357142D02*
X28652380Y-52738095D01*
X29033333Y-53071428D01*
X29033333Y-52928571D01*
X29080952Y-52833333D01*
X29128571Y-52785714D01*
X29223809Y-52738095D01*
X29461904Y-52738095D01*
X29557142Y-52785714D01*
X29604761Y-52833333D01*
X29652380Y-52928571D01*
X29652380Y-53214285D01*
X29604761Y-53309523D01*
X29557142Y-53357142D01*
%TO.C,J1*%
X113966666Y-68152380D02*
X113966666Y-68866666D01*
X113919047Y-69009523D01*
X113823809Y-69104761D01*
X113680952Y-69152380D01*
X113585714Y-69152380D01*
X114966666Y-69152380D02*
X114395238Y-69152380D01*
X114680952Y-69152380D02*
X114680952Y-68152380D01*
X114585714Y-68295238D01*
X114490476Y-68390476D01*
X114395238Y-68438095D01*
%TO.C,C16*%
X51957142Y-40107142D02*
X51909523Y-40154761D01*
X51766666Y-40202380D01*
X51671428Y-40202380D01*
X51528571Y-40154761D01*
X51433333Y-40059523D01*
X51385714Y-39964285D01*
X51338095Y-39773809D01*
X51338095Y-39630952D01*
X51385714Y-39440476D01*
X51433333Y-39345238D01*
X51528571Y-39250000D01*
X51671428Y-39202380D01*
X51766666Y-39202380D01*
X51909523Y-39250000D01*
X51957142Y-39297619D01*
X52909523Y-40202380D02*
X52338095Y-40202380D01*
X52623809Y-40202380D02*
X52623809Y-39202380D01*
X52528571Y-39345238D01*
X52433333Y-39440476D01*
X52338095Y-39488095D01*
X53766666Y-39202380D02*
X53576190Y-39202380D01*
X53480952Y-39250000D01*
X53433333Y-39297619D01*
X53338095Y-39440476D01*
X53290476Y-39630952D01*
X53290476Y-40011904D01*
X53338095Y-40107142D01*
X53385714Y-40154761D01*
X53480952Y-40202380D01*
X53671428Y-40202380D01*
X53766666Y-40154761D01*
X53814285Y-40107142D01*
X53861904Y-40011904D01*
X53861904Y-39773809D01*
X53814285Y-39678571D01*
X53766666Y-39630952D01*
X53671428Y-39583333D01*
X53480952Y-39583333D01*
X53385714Y-39630952D01*
X53338095Y-39678571D01*
X53290476Y-39773809D01*
%TO.C,C21*%
X58457142Y-58494642D02*
X58409523Y-58542261D01*
X58266666Y-58589880D01*
X58171428Y-58589880D01*
X58028571Y-58542261D01*
X57933333Y-58447023D01*
X57885714Y-58351785D01*
X57838095Y-58161309D01*
X57838095Y-58018452D01*
X57885714Y-57827976D01*
X57933333Y-57732738D01*
X58028571Y-57637500D01*
X58171428Y-57589880D01*
X58266666Y-57589880D01*
X58409523Y-57637500D01*
X58457142Y-57685119D01*
X58838095Y-57685119D02*
X58885714Y-57637500D01*
X58980952Y-57589880D01*
X59219047Y-57589880D01*
X59314285Y-57637500D01*
X59361904Y-57685119D01*
X59409523Y-57780357D01*
X59409523Y-57875595D01*
X59361904Y-58018452D01*
X58790476Y-58589880D01*
X59409523Y-58589880D01*
X60361904Y-58589880D02*
X59790476Y-58589880D01*
X60076190Y-58589880D02*
X60076190Y-57589880D01*
X59980952Y-57732738D01*
X59885714Y-57827976D01*
X59790476Y-57875595D01*
%TO.C,C25*%
X42057142Y-63294642D02*
X42009523Y-63342261D01*
X41866666Y-63389880D01*
X41771428Y-63389880D01*
X41628571Y-63342261D01*
X41533333Y-63247023D01*
X41485714Y-63151785D01*
X41438095Y-62961309D01*
X41438095Y-62818452D01*
X41485714Y-62627976D01*
X41533333Y-62532738D01*
X41628571Y-62437500D01*
X41771428Y-62389880D01*
X41866666Y-62389880D01*
X42009523Y-62437500D01*
X42057142Y-62485119D01*
X42438095Y-62485119D02*
X42485714Y-62437500D01*
X42580952Y-62389880D01*
X42819047Y-62389880D01*
X42914285Y-62437500D01*
X42961904Y-62485119D01*
X43009523Y-62580357D01*
X43009523Y-62675595D01*
X42961904Y-62818452D01*
X42390476Y-63389880D01*
X43009523Y-63389880D01*
X43914285Y-62389880D02*
X43438095Y-62389880D01*
X43390476Y-62866071D01*
X43438095Y-62818452D01*
X43533333Y-62770833D01*
X43771428Y-62770833D01*
X43866666Y-62818452D01*
X43914285Y-62866071D01*
X43961904Y-62961309D01*
X43961904Y-63199404D01*
X43914285Y-63294642D01*
X43866666Y-63342261D01*
X43771428Y-63389880D01*
X43533333Y-63389880D01*
X43438095Y-63342261D01*
X43390476Y-63294642D01*
%TO.C,C24*%
X42057142Y-60294642D02*
X42009523Y-60342261D01*
X41866666Y-60389880D01*
X41771428Y-60389880D01*
X41628571Y-60342261D01*
X41533333Y-60247023D01*
X41485714Y-60151785D01*
X41438095Y-59961309D01*
X41438095Y-59818452D01*
X41485714Y-59627976D01*
X41533333Y-59532738D01*
X41628571Y-59437500D01*
X41771428Y-59389880D01*
X41866666Y-59389880D01*
X42009523Y-59437500D01*
X42057142Y-59485119D01*
X42438095Y-59485119D02*
X42485714Y-59437500D01*
X42580952Y-59389880D01*
X42819047Y-59389880D01*
X42914285Y-59437500D01*
X42961904Y-59485119D01*
X43009523Y-59580357D01*
X43009523Y-59675595D01*
X42961904Y-59818452D01*
X42390476Y-60389880D01*
X43009523Y-60389880D01*
X43866666Y-59723214D02*
X43866666Y-60389880D01*
X43628571Y-59342261D02*
X43390476Y-60056547D01*
X44009523Y-60056547D01*
%TO.C,C9*%
X65607142Y-32166666D02*
X65654761Y-32214285D01*
X65702380Y-32357142D01*
X65702380Y-32452380D01*
X65654761Y-32595238D01*
X65559523Y-32690476D01*
X65464285Y-32738095D01*
X65273809Y-32785714D01*
X65130952Y-32785714D01*
X64940476Y-32738095D01*
X64845238Y-32690476D01*
X64750000Y-32595238D01*
X64702380Y-32452380D01*
X64702380Y-32357142D01*
X64750000Y-32214285D01*
X64797619Y-32166666D01*
X65702380Y-31690476D02*
X65702380Y-31500000D01*
X65654761Y-31404761D01*
X65607142Y-31357142D01*
X65464285Y-31261904D01*
X65273809Y-31214285D01*
X64892857Y-31214285D01*
X64797619Y-31261904D01*
X64750000Y-31309523D01*
X64702380Y-31404761D01*
X64702380Y-31595238D01*
X64750000Y-31690476D01*
X64797619Y-31738095D01*
X64892857Y-31785714D01*
X65130952Y-31785714D01*
X65226190Y-31738095D01*
X65273809Y-31690476D01*
X65321428Y-31595238D01*
X65321428Y-31404761D01*
X65273809Y-31309523D01*
X65226190Y-31261904D01*
X65130952Y-31214285D01*
%TO.C,C4*%
X100357142Y-46991666D02*
X100404761Y-47039285D01*
X100452380Y-47182142D01*
X100452380Y-47277380D01*
X100404761Y-47420238D01*
X100309523Y-47515476D01*
X100214285Y-47563095D01*
X100023809Y-47610714D01*
X99880952Y-47610714D01*
X99690476Y-47563095D01*
X99595238Y-47515476D01*
X99500000Y-47420238D01*
X99452380Y-47277380D01*
X99452380Y-47182142D01*
X99500000Y-47039285D01*
X99547619Y-46991666D01*
X99785714Y-46134523D02*
X100452380Y-46134523D01*
X99404761Y-46372619D02*
X100119047Y-46610714D01*
X100119047Y-45991666D01*
%TO.C,R3*%
X92873333Y-57277380D02*
X92540000Y-56801190D01*
X92301904Y-57277380D02*
X92301904Y-56277380D01*
X92682857Y-56277380D01*
X92778095Y-56325000D01*
X92825714Y-56372619D01*
X92873333Y-56467857D01*
X92873333Y-56610714D01*
X92825714Y-56705952D01*
X92778095Y-56753571D01*
X92682857Y-56801190D01*
X92301904Y-56801190D01*
X93206666Y-56277380D02*
X93825714Y-56277380D01*
X93492380Y-56658333D01*
X93635238Y-56658333D01*
X93730476Y-56705952D01*
X93778095Y-56753571D01*
X93825714Y-56848809D01*
X93825714Y-57086904D01*
X93778095Y-57182142D01*
X93730476Y-57229761D01*
X93635238Y-57277380D01*
X93349523Y-57277380D01*
X93254285Y-57229761D01*
X93206666Y-57182142D01*
%TO.C,J4*%
X113866666Y-45852380D02*
X113866666Y-46566666D01*
X113819047Y-46709523D01*
X113723809Y-46804761D01*
X113580952Y-46852380D01*
X113485714Y-46852380D01*
X114771428Y-46185714D02*
X114771428Y-46852380D01*
X114533333Y-45804761D02*
X114295238Y-46519047D01*
X114914285Y-46519047D01*
%TO.C,U2*%
X92238095Y-58277380D02*
X92238095Y-59086904D01*
X92285714Y-59182142D01*
X92333333Y-59229761D01*
X92428571Y-59277380D01*
X92619047Y-59277380D01*
X92714285Y-59229761D01*
X92761904Y-59182142D01*
X92809523Y-59086904D01*
X92809523Y-58277380D01*
X93238095Y-58372619D02*
X93285714Y-58325000D01*
X93380952Y-58277380D01*
X93619047Y-58277380D01*
X93714285Y-58325000D01*
X93761904Y-58372619D01*
X93809523Y-58467857D01*
X93809523Y-58563095D01*
X93761904Y-58705952D01*
X93190476Y-59277380D01*
X93809523Y-59277380D01*
%TO.C,C23*%
X54457142Y-43744642D02*
X54409523Y-43792261D01*
X54266666Y-43839880D01*
X54171428Y-43839880D01*
X54028571Y-43792261D01*
X53933333Y-43697023D01*
X53885714Y-43601785D01*
X53838095Y-43411309D01*
X53838095Y-43268452D01*
X53885714Y-43077976D01*
X53933333Y-42982738D01*
X54028571Y-42887500D01*
X54171428Y-42839880D01*
X54266666Y-42839880D01*
X54409523Y-42887500D01*
X54457142Y-42935119D01*
X54838095Y-42935119D02*
X54885714Y-42887500D01*
X54980952Y-42839880D01*
X55219047Y-42839880D01*
X55314285Y-42887500D01*
X55361904Y-42935119D01*
X55409523Y-43030357D01*
X55409523Y-43125595D01*
X55361904Y-43268452D01*
X54790476Y-43839880D01*
X55409523Y-43839880D01*
X55742857Y-42839880D02*
X56361904Y-42839880D01*
X56028571Y-43220833D01*
X56171428Y-43220833D01*
X56266666Y-43268452D01*
X56314285Y-43316071D01*
X56361904Y-43411309D01*
X56361904Y-43649404D01*
X56314285Y-43744642D01*
X56266666Y-43792261D01*
X56171428Y-43839880D01*
X55885714Y-43839880D01*
X55790476Y-43792261D01*
X55742857Y-43744642D01*
%TO.C,U7*%
X84738095Y-47857380D02*
X84738095Y-48666904D01*
X84785714Y-48762142D01*
X84833333Y-48809761D01*
X84928571Y-48857380D01*
X85119047Y-48857380D01*
X85214285Y-48809761D01*
X85261904Y-48762142D01*
X85309523Y-48666904D01*
X85309523Y-47857380D01*
X85690476Y-47857380D02*
X86357142Y-47857380D01*
X85928571Y-48857380D01*
%TO.C,U10*%
X43852380Y-36875595D02*
X44661904Y-36875595D01*
X44757142Y-36827976D01*
X44804761Y-36780357D01*
X44852380Y-36685119D01*
X44852380Y-36494642D01*
X44804761Y-36399404D01*
X44757142Y-36351785D01*
X44661904Y-36304166D01*
X43852380Y-36304166D01*
X44852380Y-35304166D02*
X44852380Y-35875595D01*
X44852380Y-35589880D02*
X43852380Y-35589880D01*
X43995238Y-35685119D01*
X44090476Y-35780357D01*
X44138095Y-35875595D01*
X43852380Y-34685119D02*
X43852380Y-34589880D01*
X43900000Y-34494642D01*
X43947619Y-34447023D01*
X44042857Y-34399404D01*
X44233333Y-34351785D01*
X44471428Y-34351785D01*
X44661904Y-34399404D01*
X44757142Y-34447023D01*
X44804761Y-34494642D01*
X44852380Y-34589880D01*
X44852380Y-34685119D01*
X44804761Y-34780357D01*
X44757142Y-34827976D01*
X44661904Y-34875595D01*
X44471428Y-34923214D01*
X44233333Y-34923214D01*
X44042857Y-34875595D01*
X43947619Y-34827976D01*
X43900000Y-34780357D01*
X43852380Y-34685119D01*
%TO.C,J7*%
X54916666Y-31452380D02*
X54916666Y-32166666D01*
X54869047Y-32309523D01*
X54773809Y-32404761D01*
X54630952Y-32452380D01*
X54535714Y-32452380D01*
X55297619Y-31452380D02*
X55964285Y-31452380D01*
X55535714Y-32452380D01*
%TO.C,FB2*%
X57766666Y-55066071D02*
X57433333Y-55066071D01*
X57433333Y-55589880D02*
X57433333Y-54589880D01*
X57909523Y-54589880D01*
X58623809Y-55066071D02*
X58766666Y-55113690D01*
X58814285Y-55161309D01*
X58861904Y-55256547D01*
X58861904Y-55399404D01*
X58814285Y-55494642D01*
X58766666Y-55542261D01*
X58671428Y-55589880D01*
X58290476Y-55589880D01*
X58290476Y-54589880D01*
X58623809Y-54589880D01*
X58719047Y-54637500D01*
X58766666Y-54685119D01*
X58814285Y-54780357D01*
X58814285Y-54875595D01*
X58766666Y-54970833D01*
X58719047Y-55018452D01*
X58623809Y-55066071D01*
X58290476Y-55066071D01*
X59242857Y-54685119D02*
X59290476Y-54637500D01*
X59385714Y-54589880D01*
X59623809Y-54589880D01*
X59719047Y-54637500D01*
X59766666Y-54685119D01*
X59814285Y-54780357D01*
X59814285Y-54875595D01*
X59766666Y-55018452D01*
X59195238Y-55589880D01*
X59814285Y-55589880D01*
%TO.C,FB1*%
X73056666Y-36728571D02*
X72723333Y-36728571D01*
X72723333Y-37252380D02*
X72723333Y-36252380D01*
X73199523Y-36252380D01*
X73913809Y-36728571D02*
X74056666Y-36776190D01*
X74104285Y-36823809D01*
X74151904Y-36919047D01*
X74151904Y-37061904D01*
X74104285Y-37157142D01*
X74056666Y-37204761D01*
X73961428Y-37252380D01*
X73580476Y-37252380D01*
X73580476Y-36252380D01*
X73913809Y-36252380D01*
X74009047Y-36300000D01*
X74056666Y-36347619D01*
X74104285Y-36442857D01*
X74104285Y-36538095D01*
X74056666Y-36633333D01*
X74009047Y-36680952D01*
X73913809Y-36728571D01*
X73580476Y-36728571D01*
X75104285Y-37252380D02*
X74532857Y-37252380D01*
X74818571Y-37252380D02*
X74818571Y-36252380D01*
X74723333Y-36395238D01*
X74628095Y-36490476D01*
X74532857Y-36538095D01*
%TO.C,U6*%
X92238095Y-27777380D02*
X92238095Y-28586904D01*
X92285714Y-28682142D01*
X92333333Y-28729761D01*
X92428571Y-28777380D01*
X92619047Y-28777380D01*
X92714285Y-28729761D01*
X92761904Y-28682142D01*
X92809523Y-28586904D01*
X92809523Y-27777380D01*
X93714285Y-27777380D02*
X93523809Y-27777380D01*
X93428571Y-27825000D01*
X93380952Y-27872619D01*
X93285714Y-28015476D01*
X93238095Y-28205952D01*
X93238095Y-28586904D01*
X93285714Y-28682142D01*
X93333333Y-28729761D01*
X93428571Y-28777380D01*
X93619047Y-28777380D01*
X93714285Y-28729761D01*
X93761904Y-28682142D01*
X93809523Y-28586904D01*
X93809523Y-28348809D01*
X93761904Y-28253571D01*
X93714285Y-28205952D01*
X93619047Y-28158333D01*
X93428571Y-28158333D01*
X93333333Y-28205952D01*
X93285714Y-28253571D01*
X93238095Y-28348809D01*
%TO.C,C19*%
X46207142Y-55494642D02*
X46159523Y-55542261D01*
X46016666Y-55589880D01*
X45921428Y-55589880D01*
X45778571Y-55542261D01*
X45683333Y-55447023D01*
X45635714Y-55351785D01*
X45588095Y-55161309D01*
X45588095Y-55018452D01*
X45635714Y-54827976D01*
X45683333Y-54732738D01*
X45778571Y-54637500D01*
X45921428Y-54589880D01*
X46016666Y-54589880D01*
X46159523Y-54637500D01*
X46207142Y-54685119D01*
X47159523Y-55589880D02*
X46588095Y-55589880D01*
X46873809Y-55589880D02*
X46873809Y-54589880D01*
X46778571Y-54732738D01*
X46683333Y-54827976D01*
X46588095Y-54875595D01*
X47635714Y-55589880D02*
X47826190Y-55589880D01*
X47921428Y-55542261D01*
X47969047Y-55494642D01*
X48064285Y-55351785D01*
X48111904Y-55161309D01*
X48111904Y-54780357D01*
X48064285Y-54685119D01*
X48016666Y-54637500D01*
X47921428Y-54589880D01*
X47730952Y-54589880D01*
X47635714Y-54637500D01*
X47588095Y-54685119D01*
X47540476Y-54780357D01*
X47540476Y-55018452D01*
X47588095Y-55113690D01*
X47635714Y-55161309D01*
X47730952Y-55208928D01*
X47921428Y-55208928D01*
X48016666Y-55161309D01*
X48064285Y-55113690D01*
X48111904Y-55018452D01*
%TO.C,R5*%
X92873333Y-41777380D02*
X92540000Y-41301190D01*
X92301904Y-41777380D02*
X92301904Y-40777380D01*
X92682857Y-40777380D01*
X92778095Y-40825000D01*
X92825714Y-40872619D01*
X92873333Y-40967857D01*
X92873333Y-41110714D01*
X92825714Y-41205952D01*
X92778095Y-41253571D01*
X92682857Y-41301190D01*
X92301904Y-41301190D01*
X93778095Y-40777380D02*
X93301904Y-40777380D01*
X93254285Y-41253571D01*
X93301904Y-41205952D01*
X93397142Y-41158333D01*
X93635238Y-41158333D01*
X93730476Y-41205952D01*
X93778095Y-41253571D01*
X93825714Y-41348809D01*
X93825714Y-41586904D01*
X93778095Y-41682142D01*
X93730476Y-41729761D01*
X93635238Y-41777380D01*
X93397142Y-41777380D01*
X93301904Y-41729761D01*
X93254285Y-41682142D01*
%TO.C,C18*%
X33957142Y-50530357D02*
X34004761Y-50577976D01*
X34052380Y-50720833D01*
X34052380Y-50816071D01*
X34004761Y-50958928D01*
X33909523Y-51054166D01*
X33814285Y-51101785D01*
X33623809Y-51149404D01*
X33480952Y-51149404D01*
X33290476Y-51101785D01*
X33195238Y-51054166D01*
X33100000Y-50958928D01*
X33052380Y-50816071D01*
X33052380Y-50720833D01*
X33100000Y-50577976D01*
X33147619Y-50530357D01*
X34052380Y-49577976D02*
X34052380Y-50149404D01*
X34052380Y-49863690D02*
X33052380Y-49863690D01*
X33195238Y-49958928D01*
X33290476Y-50054166D01*
X33338095Y-50149404D01*
X33480952Y-49006547D02*
X33433333Y-49101785D01*
X33385714Y-49149404D01*
X33290476Y-49197023D01*
X33242857Y-49197023D01*
X33147619Y-49149404D01*
X33100000Y-49101785D01*
X33052380Y-49006547D01*
X33052380Y-48816071D01*
X33100000Y-48720833D01*
X33147619Y-48673214D01*
X33242857Y-48625595D01*
X33290476Y-48625595D01*
X33385714Y-48673214D01*
X33433333Y-48720833D01*
X33480952Y-48816071D01*
X33480952Y-49006547D01*
X33528571Y-49101785D01*
X33576190Y-49149404D01*
X33671428Y-49197023D01*
X33861904Y-49197023D01*
X33957142Y-49149404D01*
X34004761Y-49101785D01*
X34052380Y-49006547D01*
X34052380Y-48816071D01*
X34004761Y-48720833D01*
X33957142Y-48673214D01*
X33861904Y-48625595D01*
X33671428Y-48625595D01*
X33576190Y-48673214D01*
X33528571Y-48720833D01*
X33480952Y-48816071D01*
%TO.C,J2*%
X113866666Y-60752380D02*
X113866666Y-61466666D01*
X113819047Y-61609523D01*
X113723809Y-61704761D01*
X113580952Y-61752380D01*
X113485714Y-61752380D01*
X114295238Y-60847619D02*
X114342857Y-60800000D01*
X114438095Y-60752380D01*
X114676190Y-60752380D01*
X114771428Y-60800000D01*
X114819047Y-60847619D01*
X114866666Y-60942857D01*
X114866666Y-61038095D01*
X114819047Y-61180952D01*
X114247619Y-61752380D01*
X114866666Y-61752380D01*
%TO.C,C17*%
X38207142Y-37642857D02*
X38254761Y-37690476D01*
X38302380Y-37833333D01*
X38302380Y-37928571D01*
X38254761Y-38071428D01*
X38159523Y-38166666D01*
X38064285Y-38214285D01*
X37873809Y-38261904D01*
X37730952Y-38261904D01*
X37540476Y-38214285D01*
X37445238Y-38166666D01*
X37350000Y-38071428D01*
X37302380Y-37928571D01*
X37302380Y-37833333D01*
X37350000Y-37690476D01*
X37397619Y-37642857D01*
X38302380Y-36690476D02*
X38302380Y-37261904D01*
X38302380Y-36976190D02*
X37302380Y-36976190D01*
X37445238Y-37071428D01*
X37540476Y-37166666D01*
X37588095Y-37261904D01*
X37302380Y-36357142D02*
X37302380Y-35690476D01*
X38302380Y-36119047D01*
%TO.C,J3*%
X113966666Y-53252380D02*
X113966666Y-53966666D01*
X113919047Y-54109523D01*
X113823809Y-54204761D01*
X113680952Y-54252380D01*
X113585714Y-54252380D01*
X114347619Y-53252380D02*
X114966666Y-53252380D01*
X114633333Y-53633333D01*
X114776190Y-53633333D01*
X114871428Y-53680952D01*
X114919047Y-53728571D01*
X114966666Y-53823809D01*
X114966666Y-54061904D01*
X114919047Y-54157142D01*
X114871428Y-54204761D01*
X114776190Y-54252380D01*
X114490476Y-54252380D01*
X114395238Y-54204761D01*
X114347619Y-54157142D01*
%TO.C,R6*%
X92833333Y-34452380D02*
X92500000Y-33976190D01*
X92261904Y-34452380D02*
X92261904Y-33452380D01*
X92642857Y-33452380D01*
X92738095Y-33500000D01*
X92785714Y-33547619D01*
X92833333Y-33642857D01*
X92833333Y-33785714D01*
X92785714Y-33880952D01*
X92738095Y-33928571D01*
X92642857Y-33976190D01*
X92261904Y-33976190D01*
X93690476Y-33452380D02*
X93500000Y-33452380D01*
X93404761Y-33500000D01*
X93357142Y-33547619D01*
X93261904Y-33690476D01*
X93214285Y-33880952D01*
X93214285Y-34261904D01*
X93261904Y-34357142D01*
X93309523Y-34404761D01*
X93404761Y-34452380D01*
X93595238Y-34452380D01*
X93690476Y-34404761D01*
X93738095Y-34357142D01*
X93785714Y-34261904D01*
X93785714Y-34023809D01*
X93738095Y-33928571D01*
X93690476Y-33880952D01*
X93595238Y-33833333D01*
X93404761Y-33833333D01*
X93309523Y-33880952D01*
X93261904Y-33928571D01*
X93214285Y-34023809D01*
%TO.C,U1*%
X92238095Y-65777380D02*
X92238095Y-66586904D01*
X92285714Y-66682142D01*
X92333333Y-66729761D01*
X92428571Y-66777380D01*
X92619047Y-66777380D01*
X92714285Y-66729761D01*
X92761904Y-66682142D01*
X92809523Y-66586904D01*
X92809523Y-65777380D01*
X93809523Y-66777380D02*
X93238095Y-66777380D01*
X93523809Y-66777380D02*
X93523809Y-65777380D01*
X93428571Y-65920238D01*
X93333333Y-66015476D01*
X93238095Y-66063095D01*
%TO.C,J12*%
X40390476Y-29552380D02*
X40390476Y-30266666D01*
X40342857Y-30409523D01*
X40247619Y-30504761D01*
X40104761Y-30552380D01*
X40009523Y-30552380D01*
X41390476Y-30552380D02*
X40819047Y-30552380D01*
X41104761Y-30552380D02*
X41104761Y-29552380D01*
X41009523Y-29695238D01*
X40914285Y-29790476D01*
X40819047Y-29838095D01*
X41771428Y-29647619D02*
X41819047Y-29600000D01*
X41914285Y-29552380D01*
X42152380Y-29552380D01*
X42247619Y-29600000D01*
X42295238Y-29647619D01*
X42342857Y-29742857D01*
X42342857Y-29838095D01*
X42295238Y-29980952D01*
X41723809Y-30552380D01*
X42342857Y-30552380D01*
%TO.C,D1*%
X66742380Y-56743095D02*
X65742380Y-56743095D01*
X65742380Y-56505000D01*
X65790000Y-56362142D01*
X65885238Y-56266904D01*
X65980476Y-56219285D01*
X66170952Y-56171666D01*
X66313809Y-56171666D01*
X66504285Y-56219285D01*
X66599523Y-56266904D01*
X66694761Y-56362142D01*
X66742380Y-56505000D01*
X66742380Y-56743095D01*
X66742380Y-55219285D02*
X66742380Y-55790714D01*
X66742380Y-55505000D02*
X65742380Y-55505000D01*
X65885238Y-55600238D01*
X65980476Y-55695476D01*
X66028095Y-55790714D01*
%TO.C,C22*%
X37327142Y-61780357D02*
X37374761Y-61827976D01*
X37422380Y-61970833D01*
X37422380Y-62066071D01*
X37374761Y-62208928D01*
X37279523Y-62304166D01*
X37184285Y-62351785D01*
X36993809Y-62399404D01*
X36850952Y-62399404D01*
X36660476Y-62351785D01*
X36565238Y-62304166D01*
X36470000Y-62208928D01*
X36422380Y-62066071D01*
X36422380Y-61970833D01*
X36470000Y-61827976D01*
X36517619Y-61780357D01*
X36517619Y-61399404D02*
X36470000Y-61351785D01*
X36422380Y-61256547D01*
X36422380Y-61018452D01*
X36470000Y-60923214D01*
X36517619Y-60875595D01*
X36612857Y-60827976D01*
X36708095Y-60827976D01*
X36850952Y-60875595D01*
X37422380Y-61447023D01*
X37422380Y-60827976D01*
X36517619Y-60447023D02*
X36470000Y-60399404D01*
X36422380Y-60304166D01*
X36422380Y-60066071D01*
X36470000Y-59970833D01*
X36517619Y-59923214D01*
X36612857Y-59875595D01*
X36708095Y-59875595D01*
X36850952Y-59923214D01*
X37422380Y-60494642D01*
X37422380Y-59875595D01*
%TO.C,U5*%
X92238095Y-35277380D02*
X92238095Y-36086904D01*
X92285714Y-36182142D01*
X92333333Y-36229761D01*
X92428571Y-36277380D01*
X92619047Y-36277380D01*
X92714285Y-36229761D01*
X92761904Y-36182142D01*
X92809523Y-36086904D01*
X92809523Y-35277380D01*
X93761904Y-35277380D02*
X93285714Y-35277380D01*
X93238095Y-35753571D01*
X93285714Y-35705952D01*
X93380952Y-35658333D01*
X93619047Y-35658333D01*
X93714285Y-35705952D01*
X93761904Y-35753571D01*
X93809523Y-35848809D01*
X93809523Y-36086904D01*
X93761904Y-36182142D01*
X93714285Y-36229761D01*
X93619047Y-36277380D01*
X93380952Y-36277380D01*
X93285714Y-36229761D01*
X93238095Y-36182142D01*
%TO.C,R8*%
X29252380Y-63126666D02*
X28776190Y-63460000D01*
X29252380Y-63698095D02*
X28252380Y-63698095D01*
X28252380Y-63317142D01*
X28300000Y-63221904D01*
X28347619Y-63174285D01*
X28442857Y-63126666D01*
X28585714Y-63126666D01*
X28680952Y-63174285D01*
X28728571Y-63221904D01*
X28776190Y-63317142D01*
X28776190Y-63698095D01*
X28680952Y-62555238D02*
X28633333Y-62650476D01*
X28585714Y-62698095D01*
X28490476Y-62745714D01*
X28442857Y-62745714D01*
X28347619Y-62698095D01*
X28300000Y-62650476D01*
X28252380Y-62555238D01*
X28252380Y-62364761D01*
X28300000Y-62269523D01*
X28347619Y-62221904D01*
X28442857Y-62174285D01*
X28490476Y-62174285D01*
X28585714Y-62221904D01*
X28633333Y-62269523D01*
X28680952Y-62364761D01*
X28680952Y-62555238D01*
X28728571Y-62650476D01*
X28776190Y-62698095D01*
X28871428Y-62745714D01*
X29061904Y-62745714D01*
X29157142Y-62698095D01*
X29204761Y-62650476D01*
X29252380Y-62555238D01*
X29252380Y-62364761D01*
X29204761Y-62269523D01*
X29157142Y-62221904D01*
X29061904Y-62174285D01*
X28871428Y-62174285D01*
X28776190Y-62221904D01*
X28728571Y-62269523D01*
X28680952Y-62364761D01*
%TO.C,R9*%
X30583333Y-39452380D02*
X30250000Y-38976190D01*
X30011904Y-39452380D02*
X30011904Y-38452380D01*
X30392857Y-38452380D01*
X30488095Y-38500000D01*
X30535714Y-38547619D01*
X30583333Y-38642857D01*
X30583333Y-38785714D01*
X30535714Y-38880952D01*
X30488095Y-38928571D01*
X30392857Y-38976190D01*
X30011904Y-38976190D01*
X31059523Y-39452380D02*
X31250000Y-39452380D01*
X31345238Y-39404761D01*
X31392857Y-39357142D01*
X31488095Y-39214285D01*
X31535714Y-39023809D01*
X31535714Y-38642857D01*
X31488095Y-38547619D01*
X31440476Y-38500000D01*
X31345238Y-38452380D01*
X31154761Y-38452380D01*
X31059523Y-38500000D01*
X31011904Y-38547619D01*
X30964285Y-38642857D01*
X30964285Y-38880952D01*
X31011904Y-38976190D01*
X31059523Y-39023809D01*
X31154761Y-39071428D01*
X31345238Y-39071428D01*
X31440476Y-39023809D01*
X31488095Y-38976190D01*
X31535714Y-38880952D01*
%TO.C,D2*%
X35162380Y-33683095D02*
X34162380Y-33683095D01*
X34162380Y-33445000D01*
X34210000Y-33302142D01*
X34305238Y-33206904D01*
X34400476Y-33159285D01*
X34590952Y-33111666D01*
X34733809Y-33111666D01*
X34924285Y-33159285D01*
X35019523Y-33206904D01*
X35114761Y-33302142D01*
X35162380Y-33445000D01*
X35162380Y-33683095D01*
X34257619Y-32730714D02*
X34210000Y-32683095D01*
X34162380Y-32587857D01*
X34162380Y-32349761D01*
X34210000Y-32254523D01*
X34257619Y-32206904D01*
X34352857Y-32159285D01*
X34448095Y-32159285D01*
X34590952Y-32206904D01*
X35162380Y-32778333D01*
X35162380Y-32159285D01*
%TO.C,J6*%
X113566666Y-30952380D02*
X113566666Y-31666666D01*
X113519047Y-31809523D01*
X113423809Y-31904761D01*
X113280952Y-31952380D01*
X113185714Y-31952380D01*
X114471428Y-30952380D02*
X114280952Y-30952380D01*
X114185714Y-31000000D01*
X114138095Y-31047619D01*
X114042857Y-31190476D01*
X113995238Y-31380952D01*
X113995238Y-31761904D01*
X114042857Y-31857142D01*
X114090476Y-31904761D01*
X114185714Y-31952380D01*
X114376190Y-31952380D01*
X114471428Y-31904761D01*
X114519047Y-31857142D01*
X114566666Y-31761904D01*
X114566666Y-31523809D01*
X114519047Y-31428571D01*
X114471428Y-31380952D01*
X114376190Y-31333333D01*
X114185714Y-31333333D01*
X114090476Y-31380952D01*
X114042857Y-31428571D01*
X113995238Y-31523809D01*
%TO.C,C1*%
X100357142Y-69966666D02*
X100404761Y-70014285D01*
X100452380Y-70157142D01*
X100452380Y-70252380D01*
X100404761Y-70395238D01*
X100309523Y-70490476D01*
X100214285Y-70538095D01*
X100023809Y-70585714D01*
X99880952Y-70585714D01*
X99690476Y-70538095D01*
X99595238Y-70490476D01*
X99500000Y-70395238D01*
X99452380Y-70252380D01*
X99452380Y-70157142D01*
X99500000Y-70014285D01*
X99547619Y-69966666D01*
X100452380Y-69014285D02*
X100452380Y-69585714D01*
X100452380Y-69300000D02*
X99452380Y-69300000D01*
X99595238Y-69395238D01*
X99690476Y-69490476D01*
X99738095Y-69585714D01*
%TO.C,J11*%
X21690476Y-62952380D02*
X21690476Y-63666666D01*
X21642857Y-63809523D01*
X21547619Y-63904761D01*
X21404761Y-63952380D01*
X21309523Y-63952380D01*
X22690476Y-63952380D02*
X22119047Y-63952380D01*
X22404761Y-63952380D02*
X22404761Y-62952380D01*
X22309523Y-63095238D01*
X22214285Y-63190476D01*
X22119047Y-63238095D01*
X23642857Y-63952380D02*
X23071428Y-63952380D01*
X23357142Y-63952380D02*
X23357142Y-62952380D01*
X23261904Y-63095238D01*
X23166666Y-63190476D01*
X23071428Y-63238095D01*
%TO.C,C7*%
X81583333Y-58857142D02*
X81535714Y-58904761D01*
X81392857Y-58952380D01*
X81297619Y-58952380D01*
X81154761Y-58904761D01*
X81059523Y-58809523D01*
X81011904Y-58714285D01*
X80964285Y-58523809D01*
X80964285Y-58380952D01*
X81011904Y-58190476D01*
X81059523Y-58095238D01*
X81154761Y-58000000D01*
X81297619Y-57952380D01*
X81392857Y-57952380D01*
X81535714Y-58000000D01*
X81583333Y-58047619D01*
X81916666Y-57952380D02*
X82583333Y-57952380D01*
X82154761Y-58952380D01*
%TO.C,C6*%
X100357142Y-31991666D02*
X100404761Y-32039285D01*
X100452380Y-32182142D01*
X100452380Y-32277380D01*
X100404761Y-32420238D01*
X100309523Y-32515476D01*
X100214285Y-32563095D01*
X100023809Y-32610714D01*
X99880952Y-32610714D01*
X99690476Y-32563095D01*
X99595238Y-32515476D01*
X99500000Y-32420238D01*
X99452380Y-32277380D01*
X99452380Y-32182142D01*
X99500000Y-32039285D01*
X99547619Y-31991666D01*
X99452380Y-31134523D02*
X99452380Y-31325000D01*
X99500000Y-31420238D01*
X99547619Y-31467857D01*
X99690476Y-31563095D01*
X99880952Y-31610714D01*
X100261904Y-31610714D01*
X100357142Y-31563095D01*
X100404761Y-31515476D01*
X100452380Y-31420238D01*
X100452380Y-31229761D01*
X100404761Y-31134523D01*
X100357142Y-31086904D01*
X100261904Y-31039285D01*
X100023809Y-31039285D01*
X99928571Y-31086904D01*
X99880952Y-31134523D01*
X99833333Y-31229761D01*
X99833333Y-31420238D01*
X99880952Y-31515476D01*
X99928571Y-31563095D01*
X100023809Y-31610714D01*
%TO.C,C20*%
X50957142Y-58494642D02*
X50909523Y-58542261D01*
X50766666Y-58589880D01*
X50671428Y-58589880D01*
X50528571Y-58542261D01*
X50433333Y-58447023D01*
X50385714Y-58351785D01*
X50338095Y-58161309D01*
X50338095Y-58018452D01*
X50385714Y-57827976D01*
X50433333Y-57732738D01*
X50528571Y-57637500D01*
X50671428Y-57589880D01*
X50766666Y-57589880D01*
X50909523Y-57637500D01*
X50957142Y-57685119D01*
X51338095Y-57685119D02*
X51385714Y-57637500D01*
X51480952Y-57589880D01*
X51719047Y-57589880D01*
X51814285Y-57637500D01*
X51861904Y-57685119D01*
X51909523Y-57780357D01*
X51909523Y-57875595D01*
X51861904Y-58018452D01*
X51290476Y-58589880D01*
X51909523Y-58589880D01*
X52528571Y-57589880D02*
X52623809Y-57589880D01*
X52719047Y-57637500D01*
X52766666Y-57685119D01*
X52814285Y-57780357D01*
X52861904Y-57970833D01*
X52861904Y-58208928D01*
X52814285Y-58399404D01*
X52766666Y-58494642D01*
X52719047Y-58542261D01*
X52623809Y-58589880D01*
X52528571Y-58589880D01*
X52433333Y-58542261D01*
X52385714Y-58494642D01*
X52338095Y-58399404D01*
X52290476Y-58208928D01*
X52290476Y-57970833D01*
X52338095Y-57780357D01*
X52385714Y-57685119D01*
X52433333Y-57637500D01*
X52528571Y-57589880D01*
%TO.C,C3*%
X100357142Y-54491666D02*
X100404761Y-54539285D01*
X100452380Y-54682142D01*
X100452380Y-54777380D01*
X100404761Y-54920238D01*
X100309523Y-55015476D01*
X100214285Y-55063095D01*
X100023809Y-55110714D01*
X99880952Y-55110714D01*
X99690476Y-55063095D01*
X99595238Y-55015476D01*
X99500000Y-54920238D01*
X99452380Y-54777380D01*
X99452380Y-54682142D01*
X99500000Y-54539285D01*
X99547619Y-54491666D01*
X99452380Y-54158333D02*
X99452380Y-53539285D01*
X99833333Y-53872619D01*
X99833333Y-53729761D01*
X99880952Y-53634523D01*
X99928571Y-53586904D01*
X100023809Y-53539285D01*
X100261904Y-53539285D01*
X100357142Y-53586904D01*
X100404761Y-53634523D01*
X100452380Y-53729761D01*
X100452380Y-54015476D01*
X100404761Y-54110714D01*
X100357142Y-54158333D01*
%TO.C,Y1*%
X42423809Y-67726190D02*
X42423809Y-68202380D01*
X42090476Y-67202380D02*
X42423809Y-67726190D01*
X42757142Y-67202380D01*
X43614285Y-68202380D02*
X43042857Y-68202380D01*
X43328571Y-68202380D02*
X43328571Y-67202380D01*
X43233333Y-67345238D01*
X43138095Y-67440476D01*
X43042857Y-67488095D01*
%TO.C,C11*%
X62857142Y-40107142D02*
X62809523Y-40154761D01*
X62666666Y-40202380D01*
X62571428Y-40202380D01*
X62428571Y-40154761D01*
X62333333Y-40059523D01*
X62285714Y-39964285D01*
X62238095Y-39773809D01*
X62238095Y-39630952D01*
X62285714Y-39440476D01*
X62333333Y-39345238D01*
X62428571Y-39250000D01*
X62571428Y-39202380D01*
X62666666Y-39202380D01*
X62809523Y-39250000D01*
X62857142Y-39297619D01*
X63809523Y-40202380D02*
X63238095Y-40202380D01*
X63523809Y-40202380D02*
X63523809Y-39202380D01*
X63428571Y-39345238D01*
X63333333Y-39440476D01*
X63238095Y-39488095D01*
X64761904Y-40202380D02*
X64190476Y-40202380D01*
X64476190Y-40202380D02*
X64476190Y-39202380D01*
X64380952Y-39345238D01*
X64285714Y-39440476D01*
X64190476Y-39488095D01*
%TO.C,J10*%
X78090476Y-13702380D02*
X78090476Y-14416666D01*
X78042857Y-14559523D01*
X77947619Y-14654761D01*
X77804761Y-14702380D01*
X77709523Y-14702380D01*
X79090476Y-14702380D02*
X78519047Y-14702380D01*
X78804761Y-14702380D02*
X78804761Y-13702380D01*
X78709523Y-13845238D01*
X78614285Y-13940476D01*
X78519047Y-13988095D01*
X79709523Y-13702380D02*
X79804761Y-13702380D01*
X79900000Y-13750000D01*
X79947619Y-13797619D01*
X79995238Y-13892857D01*
X80042857Y-14083333D01*
X80042857Y-14321428D01*
X79995238Y-14511904D01*
X79947619Y-14607142D01*
X79900000Y-14654761D01*
X79804761Y-14702380D01*
X79709523Y-14702380D01*
X79614285Y-14654761D01*
X79566666Y-14607142D01*
X79519047Y-14511904D01*
X79471428Y-14321428D01*
X79471428Y-14083333D01*
X79519047Y-13892857D01*
X79566666Y-13797619D01*
X79614285Y-13750000D01*
X79709523Y-13702380D01*
X83928571Y-33707142D02*
X85071428Y-33707142D01*
X84500000Y-34278571D02*
X84500000Y-33135714D01*
X72619047Y-33371428D02*
X73380952Y-33371428D01*
%TO.C,R4*%
X92873333Y-49277380D02*
X92540000Y-48801190D01*
X92301904Y-49277380D02*
X92301904Y-48277380D01*
X92682857Y-48277380D01*
X92778095Y-48325000D01*
X92825714Y-48372619D01*
X92873333Y-48467857D01*
X92873333Y-48610714D01*
X92825714Y-48705952D01*
X92778095Y-48753571D01*
X92682857Y-48801190D01*
X92301904Y-48801190D01*
X93730476Y-48610714D02*
X93730476Y-49277380D01*
X93492380Y-48229761D02*
X93254285Y-48944047D01*
X93873333Y-48944047D01*
%TO.C,C15*%
X52207142Y-50280357D02*
X52254761Y-50327976D01*
X52302380Y-50470833D01*
X52302380Y-50566071D01*
X52254761Y-50708928D01*
X52159523Y-50804166D01*
X52064285Y-50851785D01*
X51873809Y-50899404D01*
X51730952Y-50899404D01*
X51540476Y-50851785D01*
X51445238Y-50804166D01*
X51350000Y-50708928D01*
X51302380Y-50566071D01*
X51302380Y-50470833D01*
X51350000Y-50327976D01*
X51397619Y-50280357D01*
X52302380Y-49327976D02*
X52302380Y-49899404D01*
X52302380Y-49613690D02*
X51302380Y-49613690D01*
X51445238Y-49708928D01*
X51540476Y-49804166D01*
X51588095Y-49899404D01*
X51302380Y-48423214D02*
X51302380Y-48899404D01*
X51778571Y-48947023D01*
X51730952Y-48899404D01*
X51683333Y-48804166D01*
X51683333Y-48566071D01*
X51730952Y-48470833D01*
X51778571Y-48423214D01*
X51873809Y-48375595D01*
X52111904Y-48375595D01*
X52207142Y-48423214D01*
X52254761Y-48470833D01*
X52302380Y-48566071D01*
X52302380Y-48804166D01*
X52254761Y-48899404D01*
X52207142Y-48947023D01*
%TO.C,C8*%
X80933333Y-44057142D02*
X80885714Y-44104761D01*
X80742857Y-44152380D01*
X80647619Y-44152380D01*
X80504761Y-44104761D01*
X80409523Y-44009523D01*
X80361904Y-43914285D01*
X80314285Y-43723809D01*
X80314285Y-43580952D01*
X80361904Y-43390476D01*
X80409523Y-43295238D01*
X80504761Y-43200000D01*
X80647619Y-43152380D01*
X80742857Y-43152380D01*
X80885714Y-43200000D01*
X80933333Y-43247619D01*
X81504761Y-43580952D02*
X81409523Y-43533333D01*
X81361904Y-43485714D01*
X81314285Y-43390476D01*
X81314285Y-43342857D01*
X81361904Y-43247619D01*
X81409523Y-43200000D01*
X81504761Y-43152380D01*
X81695238Y-43152380D01*
X81790476Y-43200000D01*
X81838095Y-43247619D01*
X81885714Y-43342857D01*
X81885714Y-43390476D01*
X81838095Y-43485714D01*
X81790476Y-43533333D01*
X81695238Y-43580952D01*
X81504761Y-43580952D01*
X81409523Y-43628571D01*
X81361904Y-43676190D01*
X81314285Y-43771428D01*
X81314285Y-43961904D01*
X81361904Y-44057142D01*
X81409523Y-44104761D01*
X81504761Y-44152380D01*
X81695238Y-44152380D01*
X81790476Y-44104761D01*
X81838095Y-44057142D01*
X81885714Y-43961904D01*
X81885714Y-43771428D01*
X81838095Y-43676190D01*
X81790476Y-43628571D01*
X81695238Y-43580952D01*
%TO.C,R7*%
X74333333Y-60952380D02*
X74000000Y-60476190D01*
X73761904Y-60952380D02*
X73761904Y-59952380D01*
X74142857Y-59952380D01*
X74238095Y-60000000D01*
X74285714Y-60047619D01*
X74333333Y-60142857D01*
X74333333Y-60285714D01*
X74285714Y-60380952D01*
X74238095Y-60428571D01*
X74142857Y-60476190D01*
X73761904Y-60476190D01*
X74666666Y-59952380D02*
X75333333Y-59952380D01*
X74904761Y-60952380D01*
%TO.C,C2*%
X100357142Y-62166666D02*
X100404761Y-62214285D01*
X100452380Y-62357142D01*
X100452380Y-62452380D01*
X100404761Y-62595238D01*
X100309523Y-62690476D01*
X100214285Y-62738095D01*
X100023809Y-62785714D01*
X99880952Y-62785714D01*
X99690476Y-62738095D01*
X99595238Y-62690476D01*
X99500000Y-62595238D01*
X99452380Y-62452380D01*
X99452380Y-62357142D01*
X99500000Y-62214285D01*
X99547619Y-62166666D01*
X99547619Y-61785714D02*
X99500000Y-61738095D01*
X99452380Y-61642857D01*
X99452380Y-61404761D01*
X99500000Y-61309523D01*
X99547619Y-61261904D01*
X99642857Y-61214285D01*
X99738095Y-61214285D01*
X99880952Y-61261904D01*
X100452380Y-61833333D01*
X100452380Y-61214285D01*
%TO.C,U8*%
X57182380Y-26761904D02*
X57991904Y-26761904D01*
X58087142Y-26714285D01*
X58134761Y-26666666D01*
X58182380Y-26571428D01*
X58182380Y-26380952D01*
X58134761Y-26285714D01*
X58087142Y-26238095D01*
X57991904Y-26190476D01*
X57182380Y-26190476D01*
X57610952Y-25571428D02*
X57563333Y-25666666D01*
X57515714Y-25714285D01*
X57420476Y-25761904D01*
X57372857Y-25761904D01*
X57277619Y-25714285D01*
X57230000Y-25666666D01*
X57182380Y-25571428D01*
X57182380Y-25380952D01*
X57230000Y-25285714D01*
X57277619Y-25238095D01*
X57372857Y-25190476D01*
X57420476Y-25190476D01*
X57515714Y-25238095D01*
X57563333Y-25285714D01*
X57610952Y-25380952D01*
X57610952Y-25571428D01*
X57658571Y-25666666D01*
X57706190Y-25714285D01*
X57801428Y-25761904D01*
X57991904Y-25761904D01*
X58087142Y-25714285D01*
X58134761Y-25666666D01*
X58182380Y-25571428D01*
X58182380Y-25380952D01*
X58134761Y-25285714D01*
X58087142Y-25238095D01*
X57991904Y-25190476D01*
X57801428Y-25190476D01*
X57706190Y-25238095D01*
X57658571Y-25285714D01*
X57610952Y-25380952D01*
%TO.C,R1*%
X92833333Y-72277380D02*
X92500000Y-71801190D01*
X92261904Y-72277380D02*
X92261904Y-71277380D01*
X92642857Y-71277380D01*
X92738095Y-71325000D01*
X92785714Y-71372619D01*
X92833333Y-71467857D01*
X92833333Y-71610714D01*
X92785714Y-71705952D01*
X92738095Y-71753571D01*
X92642857Y-71801190D01*
X92261904Y-71801190D01*
X93785714Y-72277380D02*
X93214285Y-72277380D01*
X93500000Y-72277380D02*
X93500000Y-71277380D01*
X93404761Y-71420238D01*
X93309523Y-71515476D01*
X93214285Y-71563095D01*
%TO.C,C10*%
X68957142Y-29292857D02*
X69004761Y-29340476D01*
X69052380Y-29483333D01*
X69052380Y-29578571D01*
X69004761Y-29721428D01*
X68909523Y-29816666D01*
X68814285Y-29864285D01*
X68623809Y-29911904D01*
X68480952Y-29911904D01*
X68290476Y-29864285D01*
X68195238Y-29816666D01*
X68100000Y-29721428D01*
X68052380Y-29578571D01*
X68052380Y-29483333D01*
X68100000Y-29340476D01*
X68147619Y-29292857D01*
X69052380Y-28340476D02*
X69052380Y-28911904D01*
X69052380Y-28626190D02*
X68052380Y-28626190D01*
X68195238Y-28721428D01*
X68290476Y-28816666D01*
X68338095Y-28911904D01*
X68052380Y-27721428D02*
X68052380Y-27626190D01*
X68100000Y-27530952D01*
X68147619Y-27483333D01*
X68242857Y-27435714D01*
X68433333Y-27388095D01*
X68671428Y-27388095D01*
X68861904Y-27435714D01*
X68957142Y-27483333D01*
X69004761Y-27530952D01*
X69052380Y-27626190D01*
X69052380Y-27721428D01*
X69004761Y-27816666D01*
X68957142Y-27864285D01*
X68861904Y-27911904D01*
X68671428Y-27959523D01*
X68433333Y-27959523D01*
X68242857Y-27911904D01*
X68147619Y-27864285D01*
X68100000Y-27816666D01*
X68052380Y-27721428D01*
%TO.C,C14*%
X36707142Y-55744642D02*
X36659523Y-55792261D01*
X36516666Y-55839880D01*
X36421428Y-55839880D01*
X36278571Y-55792261D01*
X36183333Y-55697023D01*
X36135714Y-55601785D01*
X36088095Y-55411309D01*
X36088095Y-55268452D01*
X36135714Y-55077976D01*
X36183333Y-54982738D01*
X36278571Y-54887500D01*
X36421428Y-54839880D01*
X36516666Y-54839880D01*
X36659523Y-54887500D01*
X36707142Y-54935119D01*
X37659523Y-55839880D02*
X37088095Y-55839880D01*
X37373809Y-55839880D02*
X37373809Y-54839880D01*
X37278571Y-54982738D01*
X37183333Y-55077976D01*
X37088095Y-55125595D01*
X38516666Y-55173214D02*
X38516666Y-55839880D01*
X38278571Y-54792261D02*
X38040476Y-55506547D01*
X38659523Y-55506547D01*
%TO.C,C12*%
X70857142Y-50142857D02*
X70904761Y-50190476D01*
X70952380Y-50333333D01*
X70952380Y-50428571D01*
X70904761Y-50571428D01*
X70809523Y-50666666D01*
X70714285Y-50714285D01*
X70523809Y-50761904D01*
X70380952Y-50761904D01*
X70190476Y-50714285D01*
X70095238Y-50666666D01*
X70000000Y-50571428D01*
X69952380Y-50428571D01*
X69952380Y-50333333D01*
X70000000Y-50190476D01*
X70047619Y-50142857D01*
X70952380Y-49190476D02*
X70952380Y-49761904D01*
X70952380Y-49476190D02*
X69952380Y-49476190D01*
X70095238Y-49571428D01*
X70190476Y-49666666D01*
X70238095Y-49761904D01*
X70047619Y-48809523D02*
X70000000Y-48761904D01*
X69952380Y-48666666D01*
X69952380Y-48428571D01*
X70000000Y-48333333D01*
X70047619Y-48285714D01*
X70142857Y-48238095D01*
X70238095Y-48238095D01*
X70380952Y-48285714D01*
X70952380Y-48857142D01*
X70952380Y-48238095D01*
%TO.C,U3*%
X92238095Y-50777380D02*
X92238095Y-51586904D01*
X92285714Y-51682142D01*
X92333333Y-51729761D01*
X92428571Y-51777380D01*
X92619047Y-51777380D01*
X92714285Y-51729761D01*
X92761904Y-51682142D01*
X92809523Y-51586904D01*
X92809523Y-50777380D01*
X93190476Y-50777380D02*
X93809523Y-50777380D01*
X93476190Y-51158333D01*
X93619047Y-51158333D01*
X93714285Y-51205952D01*
X93761904Y-51253571D01*
X93809523Y-51348809D01*
X93809523Y-51586904D01*
X93761904Y-51682142D01*
X93714285Y-51729761D01*
X93619047Y-51777380D01*
X93333333Y-51777380D01*
X93238095Y-51729761D01*
X93190476Y-51682142D01*
%TO.C,R2*%
X92833333Y-64777380D02*
X92500000Y-64301190D01*
X92261904Y-64777380D02*
X92261904Y-63777380D01*
X92642857Y-63777380D01*
X92738095Y-63825000D01*
X92785714Y-63872619D01*
X92833333Y-63967857D01*
X92833333Y-64110714D01*
X92785714Y-64205952D01*
X92738095Y-64253571D01*
X92642857Y-64301190D01*
X92261904Y-64301190D01*
X93214285Y-63872619D02*
X93261904Y-63825000D01*
X93357142Y-63777380D01*
X93595238Y-63777380D01*
X93690476Y-63825000D01*
X93738095Y-63872619D01*
X93785714Y-63967857D01*
X93785714Y-64063095D01*
X93738095Y-64205952D01*
X93166666Y-64777380D01*
X93785714Y-64777380D01*
%TO.C,J5*%
X113866666Y-38314380D02*
X113866666Y-39028666D01*
X113819047Y-39171523D01*
X113723809Y-39266761D01*
X113580952Y-39314380D01*
X113485714Y-39314380D01*
X114819047Y-38314380D02*
X114342857Y-38314380D01*
X114295238Y-38790571D01*
X114342857Y-38742952D01*
X114438095Y-38695333D01*
X114676190Y-38695333D01*
X114771428Y-38742952D01*
X114819047Y-38790571D01*
X114866666Y-38885809D01*
X114866666Y-39123904D01*
X114819047Y-39219142D01*
X114771428Y-39266761D01*
X114676190Y-39314380D01*
X114438095Y-39314380D01*
X114342857Y-39266761D01*
X114295238Y-39219142D01*
D15*
%TO.C,J9*%
X22970000Y-56290000D02*
X25630000Y-56290000D01*
X22970000Y-42260000D02*
X22970000Y-40930000D01*
X22970000Y-43530000D02*
X22970000Y-56290000D01*
X22970000Y-43530000D02*
X25630000Y-43530000D01*
X22970000Y-40930000D02*
X24300000Y-40930000D01*
X25630000Y-43530000D02*
X25630000Y-56290000D01*
%TO.C,U9*%
X60090000Y-44150000D02*
X60090000Y-47910000D01*
X66910000Y-47910000D02*
X65650000Y-47910000D01*
X66910000Y-41900000D02*
X66910000Y-47910000D01*
X60090000Y-47910000D02*
X61350000Y-47910000D01*
%TO.C,C5*%
X101370000Y-36680000D02*
X101370000Y-41920000D01*
X101370000Y-41920000D02*
X101055000Y-41920000D01*
X98945000Y-36680000D02*
X98630000Y-36680000D01*
X98945000Y-41920000D02*
X98630000Y-41920000D01*
X101370000Y-36680000D02*
X101055000Y-36680000D01*
X98630000Y-36680000D02*
X98630000Y-41920000D01*
%TO.C,U11*%
X38490000Y-51247500D02*
X39440000Y-51247500D01*
X48710000Y-51247500D02*
X47760000Y-51247500D01*
X38490000Y-50297500D02*
X38490000Y-51247500D01*
X39440000Y-51247500D02*
X39440000Y-52587500D01*
X48710000Y-50297500D02*
X48710000Y-51247500D01*
X38490000Y-41027500D02*
X39440000Y-41027500D01*
X48710000Y-41027500D02*
X47760000Y-41027500D01*
X38490000Y-41977500D02*
X38490000Y-41027500D01*
X48710000Y-41977500D02*
X48710000Y-41027500D01*
%TO.C,U4*%
X92000000Y-44205000D02*
X94000000Y-44205000D01*
X93000000Y-47445000D02*
X96000000Y-47445000D01*
%TO.C,C13*%
X31870000Y-49750000D02*
G75*
G03*
X31870000Y-49750000I-2620000J0D01*
G01*
%TO.C,J1*%
X102140000Y-70910000D02*
X104550000Y-70910000D01*
X102440000Y-65490000D02*
X102440000Y-70610000D01*
X111560000Y-70610000D02*
X112560000Y-69610000D01*
X112560000Y-65490000D02*
X102440000Y-65490000D01*
X102140000Y-68500000D02*
X102140000Y-70910000D01*
X102440000Y-70610000D02*
X111560000Y-70610000D01*
X112560000Y-69610000D02*
X112560000Y-65490000D01*
%TO.C,C16*%
X55220000Y-40805000D02*
X55220000Y-41120000D01*
X49980000Y-38380000D02*
X55220000Y-38380000D01*
X49980000Y-41120000D02*
X55220000Y-41120000D01*
X49980000Y-38380000D02*
X49980000Y-38695000D01*
X55220000Y-38380000D02*
X55220000Y-38695000D01*
X49980000Y-40805000D02*
X49980000Y-41120000D01*
%TO.C,C21*%
X61720000Y-56767500D02*
X56480000Y-56767500D01*
X56480000Y-57082500D02*
X56480000Y-56767500D01*
X61720000Y-59507500D02*
X61720000Y-59192500D01*
X61720000Y-59507500D02*
X56480000Y-59507500D01*
X61720000Y-57082500D02*
X61720000Y-56767500D01*
X56480000Y-59507500D02*
X56480000Y-59192500D01*
%TO.C,C25*%
X45320000Y-61882500D02*
X45320000Y-61567500D01*
X45320000Y-64307500D02*
X40080000Y-64307500D01*
X45320000Y-61567500D02*
X40080000Y-61567500D01*
X40080000Y-61882500D02*
X40080000Y-61567500D01*
X40080000Y-64307500D02*
X40080000Y-63992500D01*
X45320000Y-64307500D02*
X45320000Y-63992500D01*
%TO.C,C24*%
X45320000Y-58567500D02*
X45320000Y-58882500D01*
X40080000Y-58567500D02*
X45320000Y-58567500D01*
X40080000Y-58567500D02*
X40080000Y-58882500D01*
X45320000Y-60992500D02*
X45320000Y-61307500D01*
X40080000Y-61307500D02*
X45320000Y-61307500D01*
X40080000Y-60992500D02*
X40080000Y-61307500D01*
%TO.C,C9*%
X66305000Y-34620000D02*
X66620000Y-34620000D01*
X63880000Y-29380000D02*
X64195000Y-29380000D01*
X66305000Y-29380000D02*
X66620000Y-29380000D01*
X66620000Y-34620000D02*
X66620000Y-29380000D01*
X63880000Y-34620000D02*
X63880000Y-29380000D01*
X63880000Y-34620000D02*
X64195000Y-34620000D01*
%TO.C,C4*%
X101370000Y-49445000D02*
X101055000Y-49445000D01*
X98945000Y-49445000D02*
X98630000Y-49445000D01*
X98945000Y-44205000D02*
X98630000Y-44205000D01*
X101370000Y-44205000D02*
X101370000Y-49445000D01*
X98630000Y-44205000D02*
X98630000Y-49445000D01*
X101370000Y-44205000D02*
X101055000Y-44205000D01*
%TO.C,R3*%
X91120000Y-57745000D02*
X94960000Y-57745000D01*
X91120000Y-55905000D02*
X94960000Y-55905000D01*
%TO.C,J4*%
X102140000Y-48590000D02*
X104550000Y-48590000D01*
X102440000Y-48290000D02*
X111560000Y-48290000D01*
X102140000Y-46180000D02*
X102140000Y-48590000D01*
X111560000Y-48290000D02*
X112560000Y-47290000D01*
X112560000Y-47290000D02*
X112560000Y-43170000D01*
X112560000Y-43170000D02*
X102440000Y-43170000D01*
X102440000Y-43170000D02*
X102440000Y-48290000D01*
%TO.C,U2*%
X92000000Y-59705000D02*
X94000000Y-59705000D01*
X93000000Y-62945000D02*
X96000000Y-62945000D01*
%TO.C,C23*%
X57720000Y-44757500D02*
X57720000Y-44442500D01*
X57720000Y-44757500D02*
X52480000Y-44757500D01*
X57720000Y-42017500D02*
X52480000Y-42017500D01*
X52480000Y-44757500D02*
X52480000Y-44442500D01*
X57720000Y-42332500D02*
X57720000Y-42017500D01*
X52480000Y-42332500D02*
X52480000Y-42017500D01*
%TO.C,U7*%
X84250000Y-51473000D02*
X84250000Y-46532000D01*
X80850000Y-51473000D02*
X80850000Y-49455000D01*
X84250000Y-46532000D02*
X73750000Y-46532000D01*
X84250000Y-51473000D02*
X73750000Y-51473000D01*
X77897000Y-48713000D02*
X77562000Y-48713000D01*
X75357000Y-48713000D02*
X73750000Y-48713000D01*
X80437000Y-48713000D02*
X80102000Y-48713000D01*
X73750000Y-51473000D02*
X73750000Y-46532000D01*
X84250000Y-48713000D02*
X82643000Y-48713000D01*
X77149000Y-51473000D02*
X77149000Y-49455000D01*
%TO.C,U10*%
X43160000Y-35637500D02*
X43160000Y-34837500D01*
X43160000Y-35637500D02*
X43160000Y-36437500D01*
X40040000Y-35637500D02*
X40040000Y-37437500D01*
X40040000Y-35637500D02*
X40040000Y-34837500D01*
%TO.C,J8*%
X51110000Y-63270000D02*
X51110000Y-65930000D01*
X71550000Y-64600000D02*
X71550000Y-65930000D01*
X68950000Y-65930000D02*
X51110000Y-65930000D01*
X68950000Y-63270000D02*
X51110000Y-63270000D01*
X71550000Y-65930000D02*
X70220000Y-65930000D01*
X68950000Y-63270000D02*
X68950000Y-65930000D01*
%TO.C,J7*%
X53330000Y-28090000D02*
X50670000Y-28090000D01*
X53330000Y-33230000D02*
X50670000Y-33230000D01*
X50670000Y-33230000D02*
X50670000Y-28090000D01*
X53330000Y-35830000D02*
X52000000Y-35830000D01*
X53330000Y-33230000D02*
X53330000Y-28090000D01*
X53330000Y-34500000D02*
X53330000Y-35830000D01*
%TO.C,FB2*%
X61370000Y-53917500D02*
X55830000Y-53917500D01*
X55830000Y-56357500D02*
X61370000Y-56357500D01*
X61370000Y-56357500D02*
X61370000Y-53917500D01*
X55830000Y-53917500D02*
X55830000Y-56357500D01*
%TO.C,FB1*%
X77160000Y-40020000D02*
X77160000Y-37580000D01*
X77160000Y-37580000D02*
X71620000Y-37580000D01*
X71620000Y-40020000D02*
X77160000Y-40020000D01*
X71620000Y-37580000D02*
X71620000Y-40020000D01*
%TO.C,U6*%
X93000000Y-32620000D02*
X96000000Y-32620000D01*
X92000000Y-29380000D02*
X94000000Y-29380000D01*
%TO.C,C19*%
X44230000Y-56507500D02*
X44230000Y-56192500D01*
X49470000Y-56507500D02*
X44230000Y-56507500D01*
X49470000Y-54082500D02*
X49470000Y-53767500D01*
X49470000Y-53767500D02*
X44230000Y-53767500D01*
X49470000Y-56507500D02*
X49470000Y-56192500D01*
X44230000Y-54082500D02*
X44230000Y-53767500D01*
%TO.C,R5*%
X91120000Y-42245000D02*
X94960000Y-42245000D01*
X91120000Y-40405000D02*
X94960000Y-40405000D01*
%TO.C,C18*%
X32230000Y-52507500D02*
X32545000Y-52507500D01*
X34655000Y-47267500D02*
X34970000Y-47267500D01*
X34970000Y-52507500D02*
X34970000Y-47267500D01*
X34655000Y-52507500D02*
X34970000Y-52507500D01*
X32230000Y-52507500D02*
X32230000Y-47267500D01*
X32230000Y-47267500D02*
X32545000Y-47267500D01*
%TO.C,J2*%
X102140000Y-61060000D02*
X102140000Y-63470000D01*
X111560000Y-63170000D02*
X112560000Y-62170000D01*
X102440000Y-63170000D02*
X111560000Y-63170000D01*
X102440000Y-58050000D02*
X102440000Y-63170000D01*
X112560000Y-62170000D02*
X112560000Y-58050000D01*
X102140000Y-63470000D02*
X104550000Y-63470000D01*
X112560000Y-58050000D02*
X102440000Y-58050000D01*
%TO.C,C17*%
X36480000Y-39757500D02*
X36480000Y-34517500D01*
X38905000Y-39757500D02*
X39220000Y-39757500D01*
X36480000Y-34517500D02*
X36795000Y-34517500D01*
X38905000Y-34517500D02*
X39220000Y-34517500D01*
X39220000Y-39757500D02*
X39220000Y-34517500D01*
X36480000Y-39757500D02*
X36795000Y-39757500D01*
%TO.C,J3*%
X111560000Y-55730000D02*
X112560000Y-54730000D01*
X102440000Y-55730000D02*
X111560000Y-55730000D01*
X102440000Y-50610000D02*
X102440000Y-55730000D01*
X112560000Y-54730000D02*
X112560000Y-50610000D01*
X102140000Y-53620000D02*
X102140000Y-56030000D01*
X102140000Y-56030000D02*
X104550000Y-56030000D01*
X112560000Y-50610000D02*
X102440000Y-50610000D01*
%TO.C,R6*%
X91080000Y-33080000D02*
X94920000Y-33080000D01*
X91080000Y-34920000D02*
X94920000Y-34920000D01*
%TO.C,U1*%
X93000000Y-70445000D02*
X96000000Y-70445000D01*
X92000000Y-67205000D02*
X94000000Y-67205000D01*
%TO.C,D1*%
X68705000Y-58565000D02*
X71795000Y-58565000D01*
X70250462Y-53015000D02*
G75*
G03*
X68705170Y-58565000I-462J-2990000D01*
G01*
X71794830Y-58565000D02*
G75*
G03*
X70249538Y-53015000I-1544830J2560000D01*
G01*
X72750000Y-56005000D02*
G75*
G03*
X72750000Y-56005000I-2500000J0D01*
G01*
%TO.C,C22*%
X35600000Y-63757500D02*
X35600000Y-58517500D01*
X38025000Y-63757500D02*
X38340000Y-63757500D01*
X38340000Y-63757500D02*
X38340000Y-58517500D01*
X35600000Y-58517500D02*
X35915000Y-58517500D01*
X35600000Y-63757500D02*
X35915000Y-63757500D01*
X38025000Y-58517500D02*
X38340000Y-58517500D01*
%TO.C,U5*%
X93000000Y-39945000D02*
X96000000Y-39945000D01*
X92000000Y-36705000D02*
X94000000Y-36705000D01*
%TO.C,R8*%
X27880000Y-65080000D02*
X27880000Y-61240000D01*
X29720000Y-65080000D02*
X29720000Y-61240000D01*
%TO.C,R9*%
X28830000Y-38080000D02*
X32670000Y-38080000D01*
X28830000Y-39920000D02*
X32670000Y-39920000D01*
%TO.C,D2*%
X32295000Y-30385000D02*
X29205000Y-30385000D01*
X30749538Y-35935000D02*
G75*
G03*
X32294830Y-30385000I462J2990000D01*
G01*
X29205170Y-30385000D02*
G75*
G03*
X30750462Y-35935000I1544830J-2560000D01*
G01*
X33250000Y-32945000D02*
G75*
G03*
X33250000Y-32945000I-2500000J0D01*
G01*
%TO.C,J6*%
X112560000Y-32410000D02*
X112560000Y-28290000D01*
X102140000Y-31300000D02*
X102140000Y-33710000D01*
X102440000Y-28290000D02*
X102440000Y-33410000D01*
X102140000Y-33710000D02*
X104550000Y-33710000D01*
X111560000Y-33410000D02*
X112560000Y-32410000D01*
X102440000Y-33410000D02*
X111560000Y-33410000D01*
X112560000Y-28290000D02*
X102440000Y-28290000D01*
%TO.C,C1*%
X98630000Y-67180000D02*
X98630000Y-72420000D01*
X101370000Y-72420000D02*
X101055000Y-72420000D01*
X98945000Y-67180000D02*
X98630000Y-67180000D01*
X101370000Y-67180000D02*
X101370000Y-72420000D01*
X98945000Y-72420000D02*
X98630000Y-72420000D01*
X101370000Y-67180000D02*
X101055000Y-67180000D01*
%TO.C,J11*%
X24270000Y-67170000D02*
X26930000Y-67170000D01*
X24270000Y-62030000D02*
X26930000Y-62030000D01*
X24270000Y-60760000D02*
X24270000Y-59430000D01*
X24270000Y-62030000D02*
X24270000Y-67170000D01*
X26930000Y-62030000D02*
X26930000Y-67170000D01*
X24270000Y-59430000D02*
X25600000Y-59430000D01*
%TO.C,C7*%
X84370000Y-54750000D02*
G75*
G03*
X84370000Y-54750000I-2620000J0D01*
G01*
%TO.C,C6*%
X98945000Y-34445000D02*
X98630000Y-34445000D01*
X101370000Y-29205000D02*
X101055000Y-29205000D01*
X101370000Y-34445000D02*
X101055000Y-34445000D01*
X101370000Y-29205000D02*
X101370000Y-34445000D01*
X98630000Y-29205000D02*
X98630000Y-34445000D01*
X98945000Y-29205000D02*
X98630000Y-29205000D01*
%TO.C,C20*%
X48980000Y-59192500D02*
X48980000Y-59507500D01*
X48980000Y-59507500D02*
X54220000Y-59507500D01*
X48980000Y-56767500D02*
X54220000Y-56767500D01*
X54220000Y-59192500D02*
X54220000Y-59507500D01*
X54220000Y-56767500D02*
X54220000Y-57082500D01*
X48980000Y-56767500D02*
X48980000Y-57082500D01*
%TO.C,C3*%
X101370000Y-51705000D02*
X101370000Y-56945000D01*
X101370000Y-56945000D02*
X101055000Y-56945000D01*
X98945000Y-51705000D02*
X98630000Y-51705000D01*
X98945000Y-56945000D02*
X98630000Y-56945000D01*
X101370000Y-51705000D02*
X101055000Y-51705000D01*
X98630000Y-51705000D02*
X98630000Y-56945000D01*
%TO.C,Y1*%
X39765000Y-70275000D02*
X46015000Y-70275000D01*
X39765000Y-65225000D02*
X46015000Y-65225000D01*
X46015000Y-70275000D02*
G75*
G03*
X46015000Y-65225000I0J2525000D01*
G01*
X39765000Y-65225000D02*
G75*
G03*
X39765000Y-70275000I0J-2525000D01*
G01*
%TO.C,C11*%
X66120000Y-40805000D02*
X66120000Y-41120000D01*
X60880000Y-40805000D02*
X60880000Y-41120000D01*
X66120000Y-38380000D02*
X66120000Y-38695000D01*
X60880000Y-38380000D02*
X66120000Y-38380000D01*
X60880000Y-41120000D02*
X66120000Y-41120000D01*
X60880000Y-38380000D02*
X60880000Y-38695000D01*
%TO.C,J10*%
X85910000Y-22990000D02*
X86760000Y-22990000D01*
X85910000Y-15290000D02*
X85910000Y-22990000D01*
X71040000Y-22990000D02*
X71890000Y-22990000D01*
X76450000Y-32710000D02*
X80190000Y-32710000D01*
X71890000Y-15290000D02*
X71890000Y-22990000D01*
X71040000Y-22990000D02*
X71040000Y-28600000D01*
X86760000Y-22990000D02*
X86760000Y-28600000D01*
X71890000Y-15290000D02*
X85910000Y-15290000D01*
X71040001Y-28600000D02*
G75*
G03*
X73910100Y-32558718I4109997J-40002D01*
G01*
X84766806Y-32122958D02*
G75*
G03*
X86760000Y-28600000I-2116806J3522958D01*
G01*
%TO.C,R4*%
X91120000Y-49745000D02*
X94960000Y-49745000D01*
X91120000Y-47905000D02*
X94960000Y-47905000D01*
%TO.C,C15*%
X50480000Y-47017500D02*
X50480000Y-52257500D01*
X53220000Y-52257500D02*
X52905000Y-52257500D01*
X50795000Y-47017500D02*
X50480000Y-47017500D01*
X53220000Y-47017500D02*
X53220000Y-52257500D01*
X50795000Y-52257500D02*
X50480000Y-52257500D01*
X53220000Y-47017500D02*
X52905000Y-47017500D01*
%TO.C,G\u002A\u002A\u002A*%
G36*
X86062220Y-73499519D02*
G01*
X85965169Y-73634567D01*
X85828833Y-73782390D01*
X85672992Y-73924475D01*
X85517427Y-74042310D01*
X85421068Y-74099558D01*
X85134940Y-74207433D01*
X84807738Y-74263090D01*
X84613007Y-74271370D01*
X84266778Y-74299707D01*
X83953484Y-74381804D01*
X83677186Y-74516154D01*
X83441945Y-74701249D01*
X83434305Y-74708828D01*
X83269187Y-74873946D01*
X83377602Y-74670539D01*
X83515531Y-74466446D01*
X83693932Y-74283657D01*
X83892719Y-74141651D01*
X83957968Y-74107716D01*
X84109902Y-74053915D01*
X84305680Y-74010326D01*
X84522586Y-73981012D01*
X84727763Y-73970082D01*
X85060106Y-73935995D01*
X85390713Y-73842475D01*
X85703263Y-73695319D01*
X85928536Y-73543499D01*
X86126677Y-73388026D01*
X86062220Y-73499519D01*
G37*
G36*
X74649607Y-71401589D02*
G01*
X74669332Y-71425087D01*
X74679884Y-71479773D01*
X74684075Y-71578348D01*
X74684737Y-71698442D01*
X74676890Y-71910276D01*
X74650984Y-72066513D01*
X74603474Y-72176805D01*
X74530812Y-72250800D01*
X74469776Y-72283440D01*
X74348029Y-72323272D01*
X74245567Y-72323387D01*
X74127928Y-72283806D01*
X74127566Y-72283649D01*
X74050869Y-72239743D01*
X73996608Y-72177913D01*
X73960328Y-72086328D01*
X73937577Y-71953155D01*
X73923900Y-71766562D01*
X73922618Y-71739145D01*
X73916373Y-71585222D01*
X73915526Y-71486041D01*
X73922037Y-71429591D01*
X73937866Y-71403862D01*
X73964972Y-71396840D01*
X73978514Y-71396579D01*
X74014378Y-71401399D01*
X74035658Y-71425023D01*
X74046144Y-71481194D01*
X74049626Y-71583658D01*
X74049923Y-71655592D01*
X74061541Y-71889170D01*
X74096527Y-72061162D01*
X74155657Y-72172887D01*
X74239704Y-72225667D01*
X74349440Y-72220821D01*
X74376229Y-72212463D01*
X74451116Y-72170533D01*
X74502388Y-72099699D01*
X74533583Y-71989678D01*
X74548235Y-71830188D01*
X74550560Y-71705724D01*
X74551858Y-71560462D01*
X74557011Y-71469476D01*
X74568755Y-71420212D01*
X74589824Y-71400112D01*
X74617895Y-71396579D01*
X74649607Y-71401589D01*
G37*
G36*
X82062333Y-69063332D02*
G01*
X82111667Y-69098512D01*
X82131237Y-69159856D01*
X82115801Y-69216784D01*
X82091711Y-69234681D01*
X82031267Y-69228355D01*
X82002652Y-69205939D01*
X81978295Y-69141412D01*
X81997748Y-69084913D01*
X82050333Y-69061961D01*
X82062333Y-69063332D01*
G37*
G36*
X79570301Y-68361947D02*
G01*
X79579746Y-68418209D01*
X79547906Y-68467741D01*
X79509978Y-68482359D01*
X79445908Y-68471671D01*
X79421162Y-68445907D01*
X79421216Y-68374571D01*
X79468642Y-68330471D01*
X79518084Y-68327367D01*
X79570301Y-68361947D01*
G37*
G36*
X82070790Y-70675989D02*
G01*
X82237829Y-70687537D01*
X82413923Y-70702617D01*
X82585788Y-70719740D01*
X82740140Y-70737417D01*
X82863694Y-70754160D01*
X82943168Y-70768479D01*
X82965455Y-70776260D01*
X82967640Y-70810752D01*
X82968788Y-70902474D01*
X82968907Y-71041824D01*
X82968005Y-71219197D01*
X82966092Y-71424991D01*
X82964783Y-71533701D01*
X82961668Y-71744510D01*
X82958226Y-71926543D01*
X82954679Y-72071440D01*
X82951247Y-72170843D01*
X82948155Y-72216391D01*
X82946671Y-72215395D01*
X82927782Y-72151795D01*
X82886822Y-72051839D01*
X82837950Y-71948026D01*
X82790291Y-71844120D01*
X82758239Y-71746370D01*
X82737318Y-71634082D01*
X82723048Y-71486558D01*
X82716686Y-71387595D01*
X82708415Y-71228793D01*
X82697962Y-71122517D01*
X82673791Y-71056564D01*
X82624370Y-71018731D01*
X82538164Y-70996815D01*
X82403639Y-70978611D01*
X82319931Y-70967799D01*
X82173178Y-70941615D01*
X82057402Y-70900798D01*
X81939455Y-70832146D01*
X81885457Y-70794799D01*
X81686448Y-70653412D01*
X82070790Y-70675989D01*
G37*
G36*
X74865341Y-74054552D02*
G01*
X74928519Y-74098849D01*
X74966365Y-74130470D01*
X75157297Y-74277898D01*
X75362351Y-74392999D01*
X75594490Y-74480696D01*
X75866671Y-74545916D01*
X76182248Y-74592481D01*
X76443615Y-74627123D01*
X76650865Y-74666676D01*
X76816722Y-74715898D01*
X76953912Y-74779547D01*
X77075158Y-74862381D01*
X77193185Y-74969156D01*
X77195254Y-74971222D01*
X77287184Y-75072074D01*
X77374605Y-75183216D01*
X77448677Y-75291245D01*
X77500563Y-75382757D01*
X77521423Y-75444349D01*
X77517418Y-75459775D01*
X77489455Y-75444747D01*
X77429381Y-75392866D01*
X77360945Y-75326124D01*
X77204335Y-75188263D01*
X77029469Y-75079864D01*
X76825697Y-74997031D01*
X76582369Y-74935868D01*
X76288836Y-74892479D01*
X76134487Y-74877456D01*
X75898394Y-74850263D01*
X75708600Y-74809290D01*
X75544919Y-74747638D01*
X75387165Y-74658406D01*
X75284547Y-74586991D01*
X75205309Y-74519591D01*
X75114059Y-74428114D01*
X75021090Y-74324924D01*
X74936694Y-74222388D01*
X74871160Y-74132871D01*
X74834782Y-74068737D01*
X74833040Y-74044504D01*
X74865341Y-74054552D01*
G37*
G36*
X80304252Y-69953932D02*
G01*
X80327846Y-70006469D01*
X80326626Y-70017476D01*
X80292134Y-70070788D01*
X80235498Y-70086299D01*
X80186246Y-70058890D01*
X80177961Y-70043250D01*
X80177576Y-69977943D01*
X80192527Y-69952790D01*
X80249409Y-69931342D01*
X80304252Y-69953932D01*
G37*
G36*
X77643002Y-73895205D02*
G01*
X77550520Y-73472185D01*
X77540289Y-73393487D01*
X77517825Y-73201316D01*
X77371929Y-73201316D01*
X77287955Y-73197041D01*
X77228224Y-73175635D01*
X77171884Y-73124223D01*
X77142340Y-73086559D01*
X77796226Y-73086559D01*
X77808923Y-73393309D01*
X77858902Y-73679370D01*
X77951854Y-73975848D01*
X77965606Y-74012147D01*
X78065407Y-74271530D01*
X78269031Y-74153816D01*
X82263795Y-74153816D01*
X82359463Y-74211117D01*
X82455132Y-74268417D01*
X82532331Y-74096445D01*
X82588331Y-73957544D01*
X82641599Y-73803043D01*
X82660849Y-73738355D01*
X82688195Y-73606679D01*
X82710210Y-73439403D01*
X82725771Y-73255699D01*
X82733753Y-73074737D01*
X82733035Y-72915687D01*
X82722493Y-72797721D01*
X82717368Y-72773667D01*
X82688367Y-72663518D01*
X82492778Y-73004884D01*
X82297189Y-73346249D01*
X82280492Y-73750032D01*
X82263795Y-74153816D01*
X78269031Y-74153816D01*
X78231739Y-73340704D01*
X78124337Y-73153253D01*
X79247476Y-73153253D01*
X79249031Y-73193241D01*
X79250277Y-73196031D01*
X79277816Y-73246926D01*
X79331432Y-73342435D01*
X79403654Y-73469360D01*
X79487009Y-73614503D01*
X79495832Y-73629792D01*
X79711533Y-74003421D01*
X80820573Y-74003421D01*
X81036274Y-73629792D01*
X81120230Y-73483767D01*
X81193714Y-73354848D01*
X81249294Y-73256151D01*
X81279538Y-73200788D01*
X81280932Y-73198040D01*
X81283196Y-73158840D01*
X81261526Y-73089754D01*
X81212848Y-72984049D01*
X81134086Y-72834993D01*
X81031726Y-72652590D01*
X80753561Y-72165263D01*
X79775784Y-72165263D01*
X79498103Y-72650581D01*
X79390197Y-72842453D01*
X79314698Y-72985257D01*
X79268245Y-73086391D01*
X79247476Y-73153253D01*
X78124337Y-73153253D01*
X78037413Y-73001542D01*
X77948470Y-72849971D01*
X77885098Y-72756628D01*
X77842809Y-72723094D01*
X77817119Y-72750952D01*
X77803541Y-72841781D01*
X77797588Y-72997164D01*
X77796226Y-73086559D01*
X77142340Y-73086559D01*
X77101278Y-73034211D01*
X77032275Y-72946930D01*
X76977126Y-72886459D01*
X76950608Y-72867105D01*
X76924775Y-72894839D01*
X76877911Y-72968923D01*
X76818390Y-73075677D01*
X76792065Y-73126118D01*
X76728182Y-73249252D01*
X76673025Y-73352645D01*
X76635686Y-73419353D01*
X76628422Y-73431029D01*
X76604549Y-73436679D01*
X76564563Y-73398759D01*
X76504024Y-73311761D01*
X76419561Y-73172016D01*
X76344895Y-73046841D01*
X76281936Y-72946570D01*
X76238416Y-72883203D01*
X76223059Y-72867105D01*
X76197950Y-72893075D01*
X76144242Y-72963450D01*
X76070275Y-73066932D01*
X75999083Y-73170451D01*
X75793762Y-73473796D01*
X75676193Y-73262359D01*
X75610866Y-73142412D01*
X75553556Y-73032901D01*
X75517369Y-72959013D01*
X75480745Y-72893991D01*
X75450903Y-72867105D01*
X75419425Y-72892006D01*
X75362722Y-72956820D01*
X75303027Y-73034211D01*
X75180360Y-73201316D01*
X73823899Y-73201316D01*
X73781899Y-73302712D01*
X73698310Y-73433247D01*
X73585239Y-73511025D01*
X73455577Y-73532827D01*
X73322215Y-73495437D01*
X73239804Y-73438005D01*
X73178807Y-73377673D01*
X73146068Y-73320017D01*
X73132915Y-73240925D01*
X73130658Y-73134474D01*
X73133748Y-73016584D01*
X73148796Y-72941343D01*
X73184473Y-72884641D01*
X73239804Y-72830943D01*
X73368674Y-72753431D01*
X73502205Y-72737199D01*
X73627508Y-72779030D01*
X73731692Y-72875706D01*
X73781899Y-72966236D01*
X73823899Y-73067632D01*
X75113455Y-73067632D01*
X75287733Y-72848614D01*
X75462010Y-72629597D01*
X75524126Y-72731739D01*
X75572228Y-72816049D01*
X75635007Y-72932840D01*
X75689499Y-73038431D01*
X75743888Y-73135699D01*
X75789609Y-73198714D01*
X75817271Y-73214683D01*
X75818215Y-73213793D01*
X75847177Y-73175263D01*
X75904627Y-73095052D01*
X75981080Y-72986491D01*
X76035192Y-72908882D01*
X76116520Y-72793167D01*
X76182856Y-72701362D01*
X76225667Y-72645128D01*
X76236964Y-72633158D01*
X76256784Y-72660195D01*
X76302347Y-72733292D01*
X76366308Y-72840431D01*
X76422582Y-72937010D01*
X76597945Y-73240862D01*
X76746514Y-72962076D01*
X76813646Y-72838186D01*
X76870645Y-72736815D01*
X76909254Y-72672464D01*
X76919437Y-72658328D01*
X76950219Y-72669736D01*
X77007104Y-72723839D01*
X77075029Y-72805454D01*
X77169094Y-72926358D01*
X77236443Y-73003072D01*
X77289550Y-73045551D01*
X77340891Y-73063752D01*
X77402941Y-73067631D01*
X77403552Y-73067632D01*
X77510749Y-73067632D01*
X77550640Y-72775197D01*
X77637816Y-72359969D01*
X77888501Y-72359969D01*
X78110857Y-72747221D01*
X78203121Y-72908089D01*
X78272969Y-73019634D01*
X78333693Y-73089039D01*
X78398586Y-73123483D01*
X78480940Y-73130151D01*
X78594048Y-73116222D01*
X78745157Y-73089923D01*
X78978867Y-73049480D01*
X79275015Y-72540784D01*
X79571164Y-72032089D01*
X80960942Y-72032089D01*
X81257509Y-72541505D01*
X81554077Y-73050921D01*
X81770657Y-73088617D01*
X81933441Y-73116946D01*
X82049784Y-73130746D01*
X82133764Y-73122809D01*
X82199459Y-73085930D01*
X82260946Y-73012900D01*
X82332304Y-72896514D01*
X82409157Y-72761742D01*
X82488790Y-72616970D01*
X82553017Y-72489666D01*
X82595788Y-72392621D01*
X82611054Y-72338621D01*
X82610747Y-72335624D01*
X82578666Y-72240454D01*
X82519218Y-72108188D01*
X82442112Y-71957347D01*
X82357055Y-71806454D01*
X82273754Y-71674030D01*
X82236348Y-71621269D01*
X82091647Y-71428196D01*
X81639403Y-71437453D01*
X81187159Y-71446711D01*
X81074050Y-71739400D01*
X80960942Y-72032089D01*
X79571164Y-72032089D01*
X79458055Y-71739400D01*
X79344947Y-71446711D01*
X78888772Y-71437427D01*
X78432596Y-71428144D01*
X78280763Y-71640920D01*
X78187914Y-71782615D01*
X78090271Y-71949814D01*
X78008925Y-72106391D01*
X78008715Y-72106832D01*
X77888501Y-72359969D01*
X77637816Y-72359969D01*
X77640931Y-72345134D01*
X77789925Y-71946584D01*
X77997093Y-71580589D01*
X78261908Y-71248192D01*
X78283119Y-71226757D01*
X78678553Y-71226757D01*
X79046184Y-71227527D01*
X79413816Y-71228297D01*
X79789803Y-71026841D01*
X79945317Y-70942446D01*
X80050938Y-70880965D01*
X80116222Y-70834759D01*
X80150725Y-70796186D01*
X80164005Y-70757607D01*
X80165790Y-70726245D01*
X80162189Y-70664870D01*
X80139136Y-70639579D01*
X80078252Y-70640200D01*
X80023750Y-70647648D01*
X79713165Y-70708878D01*
X79414324Y-70798565D01*
X79142276Y-70910830D01*
X78912068Y-71039795D01*
X78794243Y-71127870D01*
X78678553Y-71226757D01*
X78283119Y-71226757D01*
X78385229Y-71123569D01*
X78715746Y-70852635D01*
X79073449Y-70642738D01*
X79115667Y-70626410D01*
X80361970Y-70626410D01*
X80372498Y-70731779D01*
X80381344Y-70778273D01*
X80404109Y-70818588D01*
X80450791Y-70860685D01*
X80531387Y-70912521D01*
X80655895Y-70982057D01*
X80750658Y-71032829D01*
X81118290Y-71228511D01*
X81485921Y-71227634D01*
X81853553Y-71226757D01*
X81737863Y-71127870D01*
X81541364Y-70990844D01*
X81293308Y-70867009D01*
X81008568Y-70762168D01*
X80702019Y-70682124D01*
X80506183Y-70647300D01*
X80361970Y-70626410D01*
X79115667Y-70626410D01*
X79457823Y-70494079D01*
X79868356Y-70406860D01*
X80266053Y-70381057D01*
X80700047Y-70411938D01*
X81108352Y-70504444D01*
X81490454Y-70658375D01*
X81845840Y-70873526D01*
X82146877Y-71123569D01*
X82434776Y-71442166D01*
X82665676Y-71795479D01*
X82838992Y-72182374D01*
X82954140Y-72601717D01*
X82977432Y-72734838D01*
X82998749Y-72866562D01*
X83017384Y-72945560D01*
X83040023Y-72985287D01*
X83073352Y-72999200D01*
X83109574Y-73000790D01*
X83165754Y-72989592D01*
X83225602Y-72949417D01*
X83300955Y-72870391D01*
X83375099Y-72779258D01*
X83549193Y-72557727D01*
X83705244Y-72844555D01*
X83773871Y-72969124D01*
X83831404Y-73070652D01*
X83869943Y-73135349D01*
X83880656Y-73150744D01*
X83904986Y-73133051D01*
X83953253Y-73069180D01*
X84016664Y-72971234D01*
X84043434Y-72926697D01*
X84134235Y-72770870D01*
X84198273Y-72668518D01*
X84246649Y-72618034D01*
X84290465Y-72617812D01*
X84340822Y-72666243D01*
X84408822Y-72761722D01*
X84478416Y-72863726D01*
X84564650Y-72983855D01*
X84638484Y-73078331D01*
X84691284Y-73136628D01*
X84713179Y-73149870D01*
X84739667Y-73114961D01*
X84788370Y-73035347D01*
X84850564Y-72925570D01*
X84877952Y-72875193D01*
X84943097Y-72756034D01*
X84997886Y-72659671D01*
X85033636Y-72601228D01*
X85040675Y-72591839D01*
X85070076Y-72604985D01*
X85127531Y-72661532D01*
X85202286Y-72750458D01*
X85228149Y-72784010D01*
X85391897Y-73000790D01*
X86748464Y-73000790D01*
X86768639Y-72920406D01*
X86830787Y-72800043D01*
X86940229Y-72718235D01*
X87084386Y-72683822D01*
X87106092Y-72683290D01*
X87212483Y-72691831D01*
X87287546Y-72727558D01*
X87354058Y-72792435D01*
X87421727Y-72886796D01*
X87448811Y-72987773D01*
X87451579Y-73053645D01*
X87428336Y-73229828D01*
X87360372Y-73359565D01*
X87250342Y-73439730D01*
X87100895Y-73467198D01*
X87100658Y-73467198D01*
X86959147Y-73442085D01*
X86848390Y-73362805D01*
X86769198Y-73243092D01*
X86714600Y-73134474D01*
X85347069Y-73134474D01*
X85221232Y-72969272D01*
X85152019Y-72882549D01*
X85097697Y-72822014D01*
X85072746Y-72802166D01*
X85048569Y-72828944D01*
X85001297Y-72902717D01*
X84938527Y-73011104D01*
X84889374Y-73101053D01*
X84820812Y-73226332D01*
X84763261Y-73325848D01*
X84724079Y-73387203D01*
X84711497Y-73400807D01*
X84687046Y-73374364D01*
X84634144Y-73303581D01*
X84561122Y-73199929D01*
X84493816Y-73101053D01*
X84410636Y-72979355D01*
X84340828Y-72881354D01*
X84292746Y-72818526D01*
X84275542Y-72801298D01*
X84252332Y-72827793D01*
X84203397Y-72900263D01*
X84136487Y-73006830D01*
X84077416Y-73104949D01*
X83998773Y-73238400D01*
X83942007Y-73323769D01*
X83897078Y-73359486D01*
X83853944Y-73343978D01*
X83802568Y-73275673D01*
X83732907Y-73153000D01*
X83672040Y-73041492D01*
X83607661Y-72932563D01*
X83552187Y-72853709D01*
X83514785Y-72817439D01*
X83507628Y-72817138D01*
X83472118Y-72853288D01*
X83413822Y-72925810D01*
X83369732Y-72985318D01*
X83300336Y-73073667D01*
X83242557Y-73118348D01*
X83174462Y-73133507D01*
X83138491Y-73134474D01*
X83014366Y-73134474D01*
X82991802Y-73360066D01*
X82917258Y-73783255D01*
X82783112Y-74180944D01*
X82593268Y-74548274D01*
X82351629Y-74880384D01*
X82062098Y-75172416D01*
X81728580Y-75419511D01*
X81354977Y-75616809D01*
X81101579Y-75713091D01*
X80953246Y-75758857D01*
X80825263Y-75789942D01*
X80695703Y-75809718D01*
X80542641Y-75821553D01*
X80349606Y-75828673D01*
X80074589Y-75829936D01*
X79859348Y-75816929D01*
X79714606Y-75793355D01*
X79289410Y-75661847D01*
X78901740Y-75477653D01*
X78554932Y-75244452D01*
X78252319Y-74965927D01*
X77997237Y-74645757D01*
X77893317Y-74463513D01*
X78193948Y-74463513D01*
X78216536Y-74503475D01*
X78278473Y-74579850D01*
X78371011Y-74682631D01*
X78485406Y-74801810D01*
X78519803Y-74836398D01*
X78675583Y-74987292D01*
X78804798Y-75100029D01*
X78924136Y-75187414D01*
X79050283Y-75262253D01*
X79125252Y-75301032D01*
X79248173Y-75361661D01*
X79346773Y-75408977D01*
X79407113Y-75436359D01*
X79418862Y-75440526D01*
X79416158Y-75415471D01*
X79393482Y-75365329D01*
X79286118Y-75163541D01*
X79198110Y-75009823D01*
X79119393Y-74892222D01*
X79039902Y-74798790D01*
X79013943Y-74775451D01*
X79286414Y-74775451D01*
X79365196Y-74915818D01*
X79482842Y-75123338D01*
X79574672Y-75279273D01*
X79646089Y-75391143D01*
X79702500Y-75466466D01*
X79749307Y-75512760D01*
X79791916Y-75537545D01*
X79817586Y-75545191D01*
X79891900Y-75554113D01*
X80013634Y-75561170D01*
X80163374Y-75565446D01*
X80266053Y-75566302D01*
X80423568Y-75564312D01*
X80565639Y-75558950D01*
X80672852Y-75551130D01*
X80714519Y-75545191D01*
X80757212Y-75529655D01*
X80800880Y-75497085D01*
X80850930Y-75439959D01*
X80868451Y-75414685D01*
X81106833Y-75414685D01*
X81123960Y-75421953D01*
X81185787Y-75401728D01*
X81279342Y-75360308D01*
X81391656Y-75303991D01*
X81509755Y-75239078D01*
X81620671Y-75171867D01*
X81658875Y-75146601D01*
X81776492Y-75057083D01*
X81909104Y-74941564D01*
X82042627Y-74813976D01*
X82162980Y-74688255D01*
X82256079Y-74578333D01*
X82301893Y-74510353D01*
X82325519Y-74446407D01*
X82302606Y-74402766D01*
X82282313Y-74386087D01*
X82220148Y-74348746D01*
X82187763Y-74338881D01*
X82148381Y-74355835D01*
X82065179Y-74402734D01*
X81950037Y-74472567D01*
X81814834Y-74558322D01*
X81803421Y-74565716D01*
X81656286Y-74662314D01*
X81551704Y-74736882D01*
X81475894Y-74803373D01*
X81415079Y-74875737D01*
X81355477Y-74967925D01*
X81285395Y-75090186D01*
X81214155Y-75217387D01*
X81155622Y-75323188D01*
X81117366Y-75393833D01*
X81106833Y-75414685D01*
X80868451Y-75414685D01*
X80912768Y-75350759D01*
X80991798Y-75221963D01*
X81093428Y-75046052D01*
X81166747Y-74916106D01*
X81245368Y-74776027D01*
X80817500Y-74241259D01*
X80266053Y-74240661D01*
X79714606Y-74240064D01*
X79500510Y-74507758D01*
X79286414Y-74775451D01*
X79013943Y-74775451D01*
X78949572Y-74717576D01*
X78838339Y-74636629D01*
X78708220Y-74551694D01*
X78560718Y-74458740D01*
X78457557Y-74397898D01*
X78387319Y-74364423D01*
X78338586Y-74353569D01*
X78299936Y-74360591D01*
X78275777Y-74371975D01*
X78215420Y-74419867D01*
X78193948Y-74463513D01*
X77893317Y-74463513D01*
X77793020Y-74287622D01*
X77643002Y-73895205D01*
G37*
G36*
X85626342Y-74570003D02*
G01*
X85536119Y-74695938D01*
X85410166Y-74836169D01*
X85269410Y-74969522D01*
X85134773Y-75074822D01*
X85114079Y-75088359D01*
X84982365Y-75163640D01*
X84851091Y-75218872D01*
X84704041Y-75258236D01*
X84524997Y-75285913D01*
X84297740Y-75306086D01*
X84259737Y-75308641D01*
X83906186Y-75346286D01*
X83607980Y-75410914D01*
X83358219Y-75505137D01*
X83150007Y-75631567D01*
X82976447Y-75792816D01*
X82974082Y-75795502D01*
X82914980Y-75857899D01*
X82878693Y-75886731D01*
X82873209Y-75884518D01*
X82894243Y-75820770D01*
X82948728Y-75724042D01*
X83025235Y-75610889D01*
X83112338Y-75497867D01*
X83198607Y-75401530D01*
X83222612Y-75378362D01*
X83351616Y-75270309D01*
X83482162Y-75187694D01*
X83627804Y-75125736D01*
X83802098Y-75079653D01*
X84018596Y-75044664D01*
X84235472Y-75021051D01*
X84517227Y-74990426D01*
X84746462Y-74954247D01*
X84937494Y-74907745D01*
X85104638Y-74846152D01*
X85262214Y-74764699D01*
X85424536Y-74658620D01*
X85509368Y-74596787D01*
X85689393Y-74462257D01*
X85626342Y-74570003D01*
G37*
G36*
X80280925Y-68914243D02*
G01*
X80324521Y-68962354D01*
X80327444Y-69010595D01*
X80292189Y-69066186D01*
X80233356Y-69087147D01*
X80189226Y-69069401D01*
X80166296Y-69010774D01*
X80178821Y-68945152D01*
X80210597Y-68913378D01*
X80280925Y-68914243D01*
G37*
G36*
X78659107Y-68483017D02*
G01*
X78683920Y-68541953D01*
X78676689Y-68592227D01*
X78626815Y-68620492D01*
X78560914Y-68613871D01*
X78517635Y-68576573D01*
X78523881Y-68515074D01*
X78572244Y-68466574D01*
X78614819Y-68455526D01*
X78659107Y-68483017D01*
G37*
G36*
X79038012Y-70185699D02*
G01*
X79076329Y-70230443D01*
X79074889Y-70291235D01*
X79062895Y-70310395D01*
X79005491Y-70357110D01*
X78955923Y-70342458D01*
X78951491Y-70338246D01*
X78929278Y-70279138D01*
X78944154Y-70213276D01*
X78976899Y-70182273D01*
X79038012Y-70185699D01*
G37*
G36*
X79257033Y-68279208D02*
G01*
X79278131Y-68333847D01*
X79254125Y-68384612D01*
X79187774Y-68419813D01*
X79128844Y-68403065D01*
X79109016Y-68373574D01*
X79107961Y-68301037D01*
X79160408Y-68259398D01*
X79194976Y-68255000D01*
X79257033Y-68279208D01*
G37*
G36*
X79656119Y-69983892D02*
G01*
X79692724Y-70024757D01*
X79691612Y-70086085D01*
X79655132Y-70134838D01*
X79645030Y-70139714D01*
X79592446Y-70157632D01*
X79567124Y-70151048D01*
X79553070Y-70137719D01*
X79525556Y-70074740D01*
X79546970Y-70014715D01*
X79602296Y-69980062D01*
X79656119Y-69983892D01*
G37*
G36*
X79964292Y-70018327D02*
G01*
X79965263Y-70026316D01*
X79939831Y-70058766D01*
X79931842Y-70059737D01*
X79899392Y-70034304D01*
X79898421Y-70026316D01*
X79923854Y-69993866D01*
X79931842Y-69992895D01*
X79964292Y-70018327D01*
G37*
G36*
X79616182Y-75943369D02*
G01*
X79658139Y-76015984D01*
X79656325Y-76105392D01*
X79612496Y-76177322D01*
X79579326Y-76200551D01*
X79580307Y-76179539D01*
X79600699Y-76132272D01*
X79623974Y-76056125D01*
X79604989Y-76001277D01*
X79598453Y-75992963D01*
X79532458Y-75948827D01*
X79463094Y-75949739D01*
X79417392Y-75994707D01*
X79399086Y-76071639D01*
X79424837Y-76129838D01*
X79449624Y-76156692D01*
X79477675Y-76196897D01*
X79468230Y-76209211D01*
X79425657Y-76184522D01*
X79382732Y-76135563D01*
X79349603Y-76071239D01*
X79362840Y-76015388D01*
X79376312Y-75993524D01*
X79449368Y-75930982D01*
X79540126Y-75913700D01*
X79616182Y-75943369D01*
G37*
G36*
X78150900Y-74989342D02*
G01*
X78300606Y-75159259D01*
X78492376Y-75343450D01*
X78672193Y-75498792D01*
X78731999Y-75563318D01*
X78757853Y-75642089D01*
X78762106Y-75724384D01*
X78754405Y-75820897D01*
X78733798Y-75871119D01*
X78724330Y-75875000D01*
X78685857Y-75852452D01*
X78613805Y-75791931D01*
X78520423Y-75704127D01*
X78465317Y-75649004D01*
X78277299Y-75427183D01*
X78136618Y-75197557D01*
X78050918Y-74972971D01*
X78042999Y-74939211D01*
X78018064Y-74822237D01*
X78150900Y-74989342D01*
G37*
G36*
X80901053Y-75958553D02*
G01*
X80884342Y-75975263D01*
X80867632Y-75958553D01*
X80884342Y-75941842D01*
X80901053Y-75958553D01*
G37*
G36*
X79975458Y-76001434D02*
G01*
X79989979Y-76056564D01*
X79969684Y-76105583D01*
X79963927Y-76109773D01*
X79936197Y-76140842D01*
X79959815Y-76185875D01*
X79963820Y-76190760D01*
X79995912Y-76244060D01*
X79983229Y-76259406D01*
X79938734Y-76232520D01*
X79913471Y-76207375D01*
X79873818Y-76152793D01*
X79882944Y-76119899D01*
X79896265Y-76110280D01*
X79925152Y-76059899D01*
X79921051Y-76028768D01*
X79919200Y-75983734D01*
X79933940Y-75975263D01*
X79975458Y-76001434D01*
G37*
G36*
X81044147Y-75937662D02*
G01*
X81061515Y-76008668D01*
X81062047Y-76014818D01*
X81078801Y-76103895D01*
X81106670Y-76165213D01*
X81123822Y-76201341D01*
X81094592Y-76209211D01*
X81054759Y-76177553D01*
X81019348Y-76089602D01*
X81011583Y-76058816D01*
X80994103Y-75961122D01*
X81000090Y-75915389D01*
X81015554Y-75908421D01*
X81044147Y-75937662D01*
G37*
G36*
X81280242Y-75874489D02*
G01*
X81277583Y-75921370D01*
X81287245Y-75997758D01*
X81353760Y-76070754D01*
X81400532Y-76119513D01*
X81393361Y-76141202D01*
X81341576Y-76130300D01*
X81293750Y-76106270D01*
X81254854Y-76054567D01*
X81235686Y-75975355D01*
X81240008Y-75899470D01*
X81263857Y-75861273D01*
X81280242Y-75874489D01*
G37*
G36*
X80915449Y-69983591D02*
G01*
X80959496Y-70030447D01*
X80962828Y-70077683D01*
X80927533Y-70139207D01*
X80858655Y-70143351D01*
X80842566Y-70137719D01*
X80806537Y-70094133D01*
X80806313Y-70031005D01*
X80841181Y-69984779D01*
X80845597Y-69982852D01*
X80915449Y-69983591D01*
G37*
G36*
X82097059Y-68754944D02*
G01*
X82117300Y-68774180D01*
X82153506Y-68828398D01*
X82134693Y-68876830D01*
X82070801Y-68919255D01*
X82009787Y-68908596D01*
X81981618Y-68870698D01*
X81986241Y-68806575D01*
X82011314Y-68768048D01*
X82055584Y-68736277D01*
X82097059Y-68754944D01*
G37*
G36*
X78599147Y-70811295D02*
G01*
X78479660Y-70894094D01*
X78379387Y-70946078D01*
X78269478Y-70978962D01*
X78124860Y-71003915D01*
X77859737Y-71042557D01*
X77859737Y-71316622D01*
X77856885Y-71457435D01*
X77844269Y-71566409D01*
X77815799Y-71669593D01*
X77765385Y-71793033D01*
X77730450Y-71869619D01*
X77669355Y-72002774D01*
X77616436Y-72120542D01*
X77580036Y-72204258D01*
X77571700Y-72224726D01*
X77562648Y-72218561D01*
X77556032Y-72150413D01*
X77551985Y-72025099D01*
X77550643Y-71847438D01*
X77552141Y-71622248D01*
X77553010Y-71556672D01*
X77556579Y-71340945D01*
X77560612Y-71148827D01*
X77564834Y-70989980D01*
X77568972Y-70874065D01*
X77572755Y-70810743D01*
X77574346Y-70801883D01*
X77609612Y-70794680D01*
X77698848Y-70782338D01*
X77829519Y-70766441D01*
X77989091Y-70748576D01*
X78031467Y-70744048D01*
X78214255Y-70724528D01*
X78388818Y-70705583D01*
X78536244Y-70689285D01*
X78637617Y-70677707D01*
X78643169Y-70677047D01*
X78808311Y-70657318D01*
X78599147Y-70811295D01*
G37*
G36*
X80592191Y-76018623D02*
G01*
X80634610Y-76059801D01*
X80699291Y-76112256D01*
X80752639Y-76128940D01*
X80757409Y-76127692D01*
X80793195Y-76139316D01*
X80800790Y-76176838D01*
X80792256Y-76228079D01*
X80760359Y-76234207D01*
X80695656Y-76194106D01*
X80651535Y-76159224D01*
X80576764Y-76110585D01*
X80533464Y-76109844D01*
X80530690Y-76113367D01*
X80510066Y-76112171D01*
X80492408Y-76061889D01*
X80493042Y-75993424D01*
X80528015Y-75978977D01*
X80592191Y-76018623D01*
G37*
G36*
X80600271Y-70178018D02*
G01*
X80850844Y-70211053D01*
X81083542Y-70261573D01*
X81281228Y-70324399D01*
X81432985Y-70395414D01*
X81522325Y-70464085D01*
X81564545Y-70521691D01*
X81556643Y-70539699D01*
X81504336Y-70515247D01*
X81469211Y-70490662D01*
X81397476Y-70452278D01*
X81282891Y-70407130D01*
X81147668Y-70363771D01*
X81118290Y-70355574D01*
X81005000Y-70327650D01*
X80893726Y-70307657D01*
X80769695Y-70294309D01*
X80618137Y-70286321D01*
X80424282Y-70282409D01*
X80266053Y-70281435D01*
X79966184Y-70284892D01*
X79720548Y-70298404D01*
X79517034Y-70323855D01*
X79343535Y-70363130D01*
X79187941Y-70418113D01*
X79087248Y-70464897D01*
X78945921Y-70536478D01*
X79012763Y-70460882D01*
X79127911Y-70372157D01*
X79298084Y-70297116D01*
X79512596Y-70237213D01*
X79760758Y-70193898D01*
X80031883Y-70168626D01*
X80315283Y-70162848D01*
X80600271Y-70178018D01*
G37*
G36*
X78593155Y-69063879D02*
G01*
X78591632Y-69010200D01*
X78678777Y-69010200D01*
X78686290Y-69069663D01*
X78710148Y-69141724D01*
X78742097Y-69147643D01*
X78782992Y-69087440D01*
X78790237Y-69072079D01*
X78851672Y-68999657D01*
X78952323Y-68936046D01*
X79064860Y-68896315D01*
X79120308Y-68890093D01*
X79186422Y-68876160D01*
X79280171Y-68841167D01*
X79313553Y-68825947D01*
X79392134Y-68789737D01*
X79931842Y-68789737D01*
X79944071Y-68817246D01*
X79954123Y-68812018D01*
X79958123Y-68772355D01*
X79954123Y-68767456D01*
X79934254Y-68772044D01*
X79931842Y-68789737D01*
X79392134Y-68789737D01*
X79416943Y-68778305D01*
X79508953Y-68739170D01*
X79527860Y-68731872D01*
X79566339Y-68713714D01*
X79564143Y-68696409D01*
X79513183Y-68673406D01*
X79416349Y-68641603D01*
X79216959Y-68601672D01*
X79037317Y-68608641D01*
X78885550Y-68657744D01*
X78769786Y-68744215D01*
X78698152Y-68863288D01*
X78678777Y-69010200D01*
X78591632Y-69010200D01*
X78588334Y-68893993D01*
X78633145Y-68755384D01*
X78649058Y-68731063D01*
X78749507Y-68635257D01*
X78888674Y-68554020D01*
X79038437Y-68501342D01*
X79135786Y-68488947D01*
X79228970Y-68499493D01*
X79358844Y-68527323D01*
X79499333Y-68566728D01*
X79517313Y-68572500D01*
X79651525Y-68612529D01*
X79772741Y-68642097D01*
X79857970Y-68655718D01*
X79867435Y-68656053D01*
X79925780Y-68650472D01*
X79955220Y-68621727D01*
X79968201Y-68551817D01*
X79971787Y-68505152D01*
X79984583Y-68413234D01*
X80005148Y-68355360D01*
X80015395Y-68346402D01*
X80030902Y-68374709D01*
X80043945Y-68462410D01*
X80053697Y-68602080D01*
X80058232Y-68731250D01*
X80067648Y-69123947D01*
X80431037Y-69123947D01*
X80433854Y-69006482D01*
X80533421Y-69006482D01*
X80547254Y-69050303D01*
X80592950Y-69042710D01*
X80648427Y-69005911D01*
X80727991Y-68966557D01*
X80781371Y-68956842D01*
X80813813Y-68963563D01*
X80802835Y-68989655D01*
X80743526Y-69044013D01*
X80724541Y-69059794D01*
X80642550Y-69137041D01*
X80620252Y-69184805D01*
X80657650Y-69203685D01*
X80725063Y-69199222D01*
X80823263Y-69152471D01*
X80875548Y-69087519D01*
X80942372Y-69007700D01*
X81021687Y-68955450D01*
X81096568Y-68939314D01*
X81158448Y-68967219D01*
X81188440Y-68993371D01*
X81252469Y-69080504D01*
X81288152Y-69169919D01*
X81323603Y-69258114D01*
X81373438Y-69318012D01*
X81415826Y-69376940D01*
X81435241Y-69460012D01*
X81428339Y-69537527D01*
X81402369Y-69575132D01*
X81375027Y-69621919D01*
X81368948Y-69665836D01*
X81372835Y-69713406D01*
X81395844Y-69709808D01*
X81433895Y-69677109D01*
X81489815Y-69600005D01*
X81520245Y-69520889D01*
X81522002Y-69432409D01*
X81484392Y-69329317D01*
X81453889Y-69273696D01*
X81408377Y-69190090D01*
X81385475Y-69135734D01*
X81386446Y-69123947D01*
X81463826Y-69153401D01*
X81542715Y-69231025D01*
X81601491Y-69329650D01*
X81638977Y-69409204D01*
X81660060Y-69433445D01*
X81674457Y-69408589D01*
X81681845Y-69381047D01*
X81683641Y-69250538D01*
X81630585Y-69133182D01*
X81534657Y-69043195D01*
X81407838Y-68994796D01*
X81352543Y-68990263D01*
X81264454Y-68970382D01*
X81174655Y-68922745D01*
X81044606Y-68859811D01*
X80891324Y-68834110D01*
X80741592Y-68847413D01*
X80642040Y-68887528D01*
X80571558Y-68944050D01*
X80534897Y-68997239D01*
X80533421Y-69006482D01*
X80433854Y-69006482D01*
X80438650Y-68806447D01*
X80533421Y-68806447D01*
X80550132Y-68823158D01*
X80566842Y-68806447D01*
X80550132Y-68789737D01*
X80533421Y-68806447D01*
X80438650Y-68806447D01*
X80440453Y-68731250D01*
X80441360Y-68708641D01*
X80922688Y-68708641D01*
X80927705Y-68723126D01*
X80975533Y-68737385D01*
X80984606Y-68739616D01*
X81081315Y-68769705D01*
X81194244Y-68813207D01*
X81218553Y-68823742D01*
X81343875Y-68873146D01*
X81476659Y-68916525D01*
X81494265Y-68921412D01*
X81637599Y-68988613D01*
X81711502Y-69061455D01*
X81786711Y-69163391D01*
X81817120Y-69058342D01*
X81828751Y-68950970D01*
X81793375Y-68839730D01*
X81697587Y-68710784D01*
X81560264Y-68628836D01*
X81389379Y-68595971D01*
X81192904Y-68614275D01*
X81068158Y-68649939D01*
X80967251Y-68686666D01*
X80922688Y-68708641D01*
X80441360Y-68708641D01*
X80447188Y-68563356D01*
X80457834Y-68435878D01*
X80471356Y-68358308D01*
X80483290Y-68338553D01*
X80504706Y-68368548D01*
X80521646Y-68444849D01*
X80526897Y-68497303D01*
X80535642Y-68592992D01*
X80554551Y-68639574D01*
X80596922Y-68654710D01*
X80646400Y-68656053D01*
X80731318Y-68644948D01*
X80853692Y-68615666D01*
X80988678Y-68574258D01*
X81003845Y-68569006D01*
X81245918Y-68505552D01*
X81453938Y-68498179D01*
X81631197Y-68547539D01*
X81780990Y-68654277D01*
X81851488Y-68735828D01*
X81910011Y-68868907D01*
X81915597Y-69035333D01*
X81868691Y-69228228D01*
X81810815Y-69363435D01*
X81694073Y-69573405D01*
X81582945Y-69721166D01*
X81478700Y-69805282D01*
X81402111Y-69825790D01*
X81273260Y-69807465D01*
X81168722Y-69759246D01*
X81098987Y-69691265D01*
X81074544Y-69613654D01*
X81104439Y-69538264D01*
X81140503Y-69503601D01*
X81159731Y-69525670D01*
X81168762Y-69559863D01*
X81200249Y-69632350D01*
X81241631Y-69639374D01*
X81287724Y-69580588D01*
X81293750Y-69568184D01*
X81330024Y-69469261D01*
X81323274Y-69409557D01*
X81271596Y-69375593D01*
X81266289Y-69373845D01*
X81179081Y-69379613D01*
X81126396Y-69413369D01*
X81085639Y-69446993D01*
X81078062Y-69443344D01*
X81104438Y-69394708D01*
X81133036Y-69347082D01*
X81180215Y-69257045D01*
X81190205Y-69192462D01*
X81173383Y-69138200D01*
X81124014Y-69077337D01*
X81072967Y-69057105D01*
X80989942Y-69083309D01*
X80946995Y-69162276D01*
X80943863Y-69294542D01*
X80946486Y-69316584D01*
X80957191Y-69406910D01*
X80955532Y-69438525D01*
X80939390Y-69418774D01*
X80924912Y-69391316D01*
X80859118Y-69321224D01*
X80799803Y-69307763D01*
X80745444Y-69315819D01*
X80722101Y-69352751D01*
X80717237Y-69433923D01*
X80724529Y-69519265D01*
X80749739Y-69550647D01*
X80767369Y-69550439D01*
X80811980Y-69519331D01*
X80817500Y-69499477D01*
X80833920Y-69459798D01*
X80867159Y-69466488D01*
X80893182Y-69513007D01*
X80894599Y-69520449D01*
X80877615Y-69593678D01*
X80812484Y-69648711D01*
X80716338Y-69681715D01*
X80606310Y-69688855D01*
X80499534Y-69666298D01*
X80428505Y-69624753D01*
X80349606Y-69557400D01*
X80441513Y-69578244D01*
X80499851Y-69587065D01*
X80526166Y-69567216D01*
X80533175Y-69502699D01*
X80533421Y-69462608D01*
X80530769Y-69377067D01*
X80515086Y-69343937D01*
X80474786Y-69348802D01*
X80449394Y-69358075D01*
X80390303Y-69375333D01*
X80376816Y-69352727D01*
X80386175Y-69307116D01*
X80394316Y-69257071D01*
X80375464Y-69232731D01*
X80314382Y-69224864D01*
X80249342Y-69224211D01*
X80154767Y-69226535D01*
X80111780Y-69239663D01*
X80105145Y-69272825D01*
X80112509Y-69307116D01*
X80121664Y-69364626D01*
X80095836Y-69373711D01*
X80049290Y-69358075D01*
X79996004Y-69342124D01*
X79971936Y-69358445D01*
X79965498Y-69421455D01*
X79965263Y-69462608D01*
X79968233Y-69548564D01*
X79985618Y-69583698D01*
X80030136Y-69584010D01*
X80057171Y-69578244D01*
X80149079Y-69557400D01*
X80070179Y-69624753D01*
X79963888Y-69678985D01*
X79838603Y-69691903D01*
X79721403Y-69663612D01*
X79662385Y-69623174D01*
X79611805Y-69548886D01*
X79618897Y-69491152D01*
X79658207Y-69465817D01*
X79692300Y-69480363D01*
X79697895Y-69505504D01*
X79719296Y-69551567D01*
X79739671Y-69558248D01*
X79769777Y-69527336D01*
X79787520Y-69444781D01*
X79789037Y-69424564D01*
X79789751Y-69338770D01*
X79771782Y-69300548D01*
X79724713Y-69291139D01*
X79714907Y-69291053D01*
X79630833Y-69321909D01*
X79586330Y-69380484D01*
X79559377Y-69428372D01*
X79547773Y-69430970D01*
X79548547Y-69380624D01*
X79555655Y-69301498D01*
X79561532Y-69196785D01*
X79549260Y-69134735D01*
X79512537Y-69092227D01*
X79495104Y-69079334D01*
X79424845Y-69045601D01*
X79374317Y-69062149D01*
X79340094Y-69126844D01*
X79332115Y-69220478D01*
X79349718Y-69310802D01*
X79380395Y-69357895D01*
X79422552Y-69408775D01*
X79430527Y-69434009D01*
X79410456Y-69441357D01*
X79369408Y-69413206D01*
X79293259Y-69363727D01*
X79231602Y-69374194D01*
X79198352Y-69405890D01*
X79175765Y-69459272D01*
X79200094Y-69528919D01*
X79201360Y-69531219D01*
X79230771Y-69598988D01*
X79236056Y-69636752D01*
X79252563Y-69654157D01*
X79270732Y-69650844D01*
X79309157Y-69610058D01*
X79324488Y-69562208D01*
X79340393Y-69511751D01*
X79373372Y-69519572D01*
X79382975Y-69527141D01*
X79429499Y-69597289D01*
X79418950Y-69671806D01*
X79359483Y-69740453D01*
X79259250Y-69792989D01*
X79152269Y-69816875D01*
X79067997Y-69823229D01*
X79010872Y-69811006D01*
X78959319Y-69768794D01*
X78891761Y-69685182D01*
X78883948Y-69674960D01*
X78743108Y-69462988D01*
X78678845Y-69327040D01*
X78835512Y-69327040D01*
X78847176Y-69441447D01*
X78902075Y-69318809D01*
X78953323Y-69235021D01*
X79017890Y-69167647D01*
X79079306Y-69130627D01*
X79118832Y-69135323D01*
X79111928Y-69170013D01*
X79073797Y-69235069D01*
X79060268Y-69254037D01*
X78996278Y-69389457D01*
X78994848Y-69529573D01*
X79041385Y-69639339D01*
X79099054Y-69709982D01*
X79133374Y-69720582D01*
X79136634Y-69674867D01*
X79113475Y-69604471D01*
X79073780Y-69493978D01*
X79069324Y-69418588D01*
X79102008Y-69355467D01*
X79137432Y-69316779D01*
X79195312Y-69235742D01*
X79223163Y-69158029D01*
X79257533Y-69060506D01*
X79321815Y-68982984D01*
X79398387Y-68942493D01*
X79444999Y-68943662D01*
X79523645Y-68983258D01*
X79600351Y-69045136D01*
X79653235Y-69109451D01*
X79664474Y-69142690D01*
X79692891Y-69173102D01*
X79758168Y-69195676D01*
X79830342Y-69204226D01*
X79879453Y-69192567D01*
X79883493Y-69187906D01*
X79869228Y-69154136D01*
X79815542Y-69096177D01*
X79774143Y-69059794D01*
X79703913Y-68998547D01*
X79682646Y-68967466D01*
X79705372Y-68957238D01*
X79719194Y-68956842D01*
X79793924Y-68976953D01*
X79876288Y-69025392D01*
X79877204Y-69026110D01*
X79936790Y-69070309D01*
X79960738Y-69073271D01*
X79965256Y-69035949D01*
X79965263Y-69031290D01*
X79935582Y-68948893D01*
X79856877Y-68886736D01*
X79744659Y-68847641D01*
X79614437Y-68834430D01*
X79481720Y-68849926D01*
X79362019Y-68896951D01*
X79332860Y-68916217D01*
X79242856Y-68966373D01*
X79156830Y-68989995D01*
X79149373Y-68990263D01*
X79004087Y-69017437D01*
X78898978Y-69093469D01*
X78841721Y-69210124D01*
X78835512Y-69327040D01*
X78678845Y-69327040D01*
X78645462Y-69256419D01*
X78593155Y-69063879D01*
G37*
G36*
X79327249Y-70133539D02*
G01*
X79323153Y-70164620D01*
X79304746Y-70189778D01*
X79282904Y-70164486D01*
X79270641Y-70115284D01*
X79276785Y-70102075D01*
X79309824Y-70096586D01*
X79327249Y-70133539D01*
G37*
G36*
X81373349Y-68294235D02*
G01*
X81385658Y-68338095D01*
X81361089Y-68395222D01*
X81307284Y-68419419D01*
X81258699Y-68400980D01*
X81238790Y-68350921D01*
X81235263Y-68313947D01*
X81253313Y-68266159D01*
X81310461Y-68261031D01*
X81373349Y-68294235D01*
G37*
G36*
X80065527Y-76292763D02*
G01*
X80048816Y-76309474D01*
X80032106Y-76292763D01*
X80048816Y-76276053D01*
X80065527Y-76292763D01*
G37*
G36*
X82516785Y-74894177D02*
G01*
X82498654Y-74963593D01*
X82467521Y-75055306D01*
X82427848Y-75156277D01*
X82384100Y-75253468D01*
X82340738Y-75333839D01*
X82336714Y-75340263D01*
X82267317Y-75434656D01*
X82167308Y-75552980D01*
X82055117Y-75673753D01*
X82022164Y-75706929D01*
X81803421Y-75923201D01*
X81803421Y-75551231D01*
X82004683Y-75389805D01*
X82147863Y-75266159D01*
X82284237Y-75127578D01*
X82430753Y-74956286D01*
X82496188Y-74874385D01*
X82517451Y-74860094D01*
X82516785Y-74894177D01*
G37*
G36*
X80304252Y-68416563D02*
G01*
X80327846Y-68469100D01*
X80326626Y-68480107D01*
X80292134Y-68533419D01*
X80235498Y-68548930D01*
X80186246Y-68521522D01*
X80177961Y-68505881D01*
X80177576Y-68440575D01*
X80192527Y-68415421D01*
X80249409Y-68393973D01*
X80304252Y-68416563D01*
G37*
G36*
X76826526Y-71401521D02*
G01*
X76857542Y-71421926D01*
X76889494Y-71467999D01*
X76927946Y-71549495D01*
X76978458Y-71676169D01*
X77033560Y-71822697D01*
X77091575Y-71980491D01*
X77140004Y-72115680D01*
X77174554Y-72216019D01*
X77190934Y-72269257D01*
X77191686Y-72273882D01*
X77163515Y-72294818D01*
X77129655Y-72298947D01*
X77097414Y-72285557D01*
X77063172Y-72239291D01*
X77022266Y-72151008D01*
X76970036Y-72011565D01*
X76942021Y-71930928D01*
X76890554Y-71784879D01*
X76845066Y-71663699D01*
X76810672Y-71580512D01*
X76793025Y-71548680D01*
X76774423Y-71572807D01*
X76740589Y-71648991D01*
X76696266Y-71765506D01*
X76646199Y-71910620D01*
X76644195Y-71916699D01*
X76588248Y-72081711D01*
X76545701Y-72192460D01*
X76511490Y-72258924D01*
X76480550Y-72291082D01*
X76450224Y-72298947D01*
X76400619Y-72282848D01*
X76397186Y-72257171D01*
X76413729Y-72211303D01*
X76448111Y-72115860D01*
X76495534Y-71984160D01*
X76551203Y-71829520D01*
X76559512Y-71806436D01*
X76620918Y-71638564D01*
X76666496Y-71523943D01*
X76701920Y-71452534D01*
X76732862Y-71414301D01*
X76764995Y-71399204D01*
X76790888Y-71397029D01*
X76826526Y-71401521D01*
G37*
G36*
X78600219Y-69381488D02*
G01*
X78625483Y-69404486D01*
X78644516Y-69453775D01*
X78610477Y-69504749D01*
X78561563Y-69549295D01*
X78530932Y-69547941D01*
X78495090Y-69508715D01*
X78470074Y-69443201D01*
X78487843Y-69383656D01*
X78539728Y-69357895D01*
X78600219Y-69381488D01*
G37*
G36*
X75998882Y-71400253D02*
G01*
X76080392Y-71415268D01*
X76139193Y-71447612D01*
X76173493Y-71478612D01*
X76241190Y-71581170D01*
X76254505Y-71687572D01*
X76213545Y-71780685D01*
X76171377Y-71817806D01*
X76116895Y-71860121D01*
X76115386Y-71890203D01*
X76137920Y-71910485D01*
X76174594Y-71962712D01*
X76213451Y-72055700D01*
X76233884Y-72123487D01*
X76258160Y-72224376D01*
X76262769Y-72276729D01*
X76246331Y-72296301D01*
X76218498Y-72298947D01*
X76169934Y-72274663D01*
X76131477Y-72195698D01*
X76120142Y-72156908D01*
X76079998Y-72048815D01*
X76027199Y-71957104D01*
X76013325Y-71940268D01*
X75944206Y-71865667D01*
X76033024Y-71795802D01*
X76103956Y-71710444D01*
X76115308Y-71624812D01*
X76072932Y-71552284D01*
X75982681Y-71506237D01*
X75902218Y-71496842D01*
X75787632Y-71496842D01*
X75787632Y-71897895D01*
X75786976Y-72067190D01*
X75783778Y-72180724D01*
X75776191Y-72249573D01*
X75762370Y-72284813D01*
X75740468Y-72297522D01*
X75720790Y-72298947D01*
X75693931Y-72295373D01*
X75675425Y-72277680D01*
X75663723Y-72235410D01*
X75657276Y-72158106D01*
X75654534Y-72035312D01*
X75653948Y-71856570D01*
X75653948Y-71396579D01*
X75872704Y-71396579D01*
X75998882Y-71400253D01*
G37*
G36*
X81234292Y-70118591D02*
G01*
X81235263Y-70126579D01*
X81209831Y-70159029D01*
X81201842Y-70160000D01*
X81169392Y-70134567D01*
X81168421Y-70126579D01*
X81193854Y-70094129D01*
X81201842Y-70093158D01*
X81234292Y-70118591D01*
G37*
G36*
X80314272Y-68666981D02*
G01*
X80328951Y-68710987D01*
X80326864Y-68730909D01*
X80295234Y-68793629D01*
X80239435Y-68820482D01*
X80189226Y-68802033D01*
X80169067Y-68751757D01*
X80165790Y-68717325D01*
X80188092Y-68668863D01*
X80251667Y-68656053D01*
X80314272Y-68666981D01*
G37*
G36*
X78934279Y-68326606D02*
G01*
X78948400Y-68374523D01*
X78923329Y-68424122D01*
X78868049Y-68449846D01*
X78810747Y-68447249D01*
X78798860Y-68403813D01*
X78801207Y-68383004D01*
X78833705Y-68318182D01*
X78879079Y-68305132D01*
X78934279Y-68326606D01*
G37*
G36*
X78476188Y-68747138D02*
G01*
X78519784Y-68795249D01*
X78522707Y-68843489D01*
X78487452Y-68899080D01*
X78428619Y-68920042D01*
X78384489Y-68902296D01*
X78361559Y-68843668D01*
X78374084Y-68778047D01*
X78405860Y-68746273D01*
X78476188Y-68747138D01*
G37*
G36*
X85856461Y-74011467D02*
G01*
X85809275Y-74079844D01*
X85735216Y-74170926D01*
X85644805Y-74272763D01*
X85548565Y-74373406D01*
X85457016Y-74460905D01*
X85395335Y-74512570D01*
X85234587Y-74620027D01*
X85066846Y-74698650D01*
X84876049Y-74753479D01*
X84646133Y-74789551D01*
X84460395Y-74805860D01*
X84156209Y-74833930D01*
X83906416Y-74874982D01*
X83699155Y-74933149D01*
X83522566Y-75012561D01*
X83364788Y-75117352D01*
X83232171Y-75233757D01*
X83152833Y-75306023D01*
X83095914Y-75348783D01*
X83073438Y-75353042D01*
X83073421Y-75352544D01*
X83094101Y-75292304D01*
X83148452Y-75198685D01*
X83224942Y-75087547D01*
X83312041Y-74974751D01*
X83398216Y-74876157D01*
X83466605Y-74811759D01*
X83613327Y-74708771D01*
X83764222Y-74634151D01*
X83936421Y-74582187D01*
X84147055Y-74547163D01*
X84307953Y-74531164D01*
X84638650Y-74496848D01*
X84914873Y-74450799D01*
X85148512Y-74389274D01*
X85351457Y-74308531D01*
X85535597Y-74204827D01*
X85683113Y-74098282D01*
X85771678Y-74031699D01*
X85837809Y-73988377D01*
X85866253Y-73977744D01*
X85856461Y-74011467D01*
G37*
G36*
X79831837Y-75988175D02*
G01*
X79846451Y-76070040D01*
X79848290Y-76126027D01*
X79839128Y-76232461D01*
X79811749Y-76275169D01*
X79805460Y-76276053D01*
X79778649Y-76251690D01*
X79770058Y-76173600D01*
X79772039Y-76113344D01*
X79786633Y-76008496D01*
X79809232Y-75967216D01*
X79831837Y-75988175D01*
G37*
G36*
X81455617Y-75835007D02*
G01*
X81519785Y-75898666D01*
X81548933Y-75977140D01*
X81546249Y-76006725D01*
X81516585Y-76072945D01*
X81493434Y-76097922D01*
X81475079Y-76097905D01*
X81483904Y-76078791D01*
X81497382Y-76001334D01*
X81466258Y-75916352D01*
X81401839Y-75852951D01*
X81394740Y-75849272D01*
X81348032Y-75822316D01*
X81360924Y-75811572D01*
X81377303Y-75810420D01*
X81455617Y-75835007D01*
G37*
G36*
X80762662Y-68436412D02*
G01*
X80782215Y-68452510D01*
X80788204Y-68514575D01*
X80750912Y-68570269D01*
X80700527Y-68589211D01*
X80639205Y-68563130D01*
X80620441Y-68536063D01*
X80615715Y-68462921D01*
X80666455Y-68425528D01*
X80700527Y-68422105D01*
X80762662Y-68436412D01*
G37*
G36*
X83557531Y-71315324D02*
G01*
X83679223Y-71309666D01*
X83804627Y-71330570D01*
X83910624Y-71371747D01*
X83974097Y-71426911D01*
X83975221Y-71428938D01*
X84009038Y-71554476D01*
X83985841Y-71678645D01*
X83926349Y-71763561D01*
X83874070Y-71819618D01*
X83869330Y-71854367D01*
X83893799Y-71878194D01*
X83924674Y-71923580D01*
X83960676Y-72007311D01*
X83994927Y-72107816D01*
X84020548Y-72203527D01*
X84030662Y-72272875D01*
X84026132Y-72293167D01*
X83983125Y-72299928D01*
X83935581Y-72253163D01*
X83893412Y-72164608D01*
X83880371Y-72120526D01*
X83829999Y-71980019D01*
X83760713Y-71897601D01*
X83665229Y-71865539D01*
X83639192Y-71864474D01*
X83541316Y-71864474D01*
X83541316Y-72081711D01*
X83537969Y-72203562D01*
X83526010Y-72271287D01*
X83502562Y-72297357D01*
X83491184Y-72298947D01*
X83471205Y-72289692D01*
X83457206Y-72255618D01*
X83448200Y-72187262D01*
X83443200Y-72075162D01*
X83441221Y-71909855D01*
X83441053Y-71818062D01*
X83441053Y-71597105D01*
X83541316Y-71597105D01*
X83543017Y-71708199D01*
X83552600Y-71768175D01*
X83576784Y-71792744D01*
X83622288Y-71797621D01*
X83627066Y-71797632D01*
X83725241Y-71782125D01*
X83785816Y-71759207D01*
X83876149Y-71685290D01*
X83909746Y-71599224D01*
X83891614Y-71514465D01*
X83826762Y-71444468D01*
X83720196Y-71402688D01*
X83650853Y-71396579D01*
X83541316Y-71396579D01*
X83541316Y-71597105D01*
X83441053Y-71597105D01*
X83441053Y-71337176D01*
X83557531Y-71315324D01*
G37*
G36*
X81167061Y-75899261D02*
G01*
X81168421Y-75908421D01*
X81157019Y-75940973D01*
X81153683Y-75941842D01*
X81125149Y-75918423D01*
X81118290Y-75908421D01*
X81120940Y-75877624D01*
X81133028Y-75875000D01*
X81167061Y-75899261D01*
G37*
G36*
X81529891Y-70176736D02*
G01*
X81554240Y-70207390D01*
X81583257Y-70271486D01*
X81564815Y-70316008D01*
X81512006Y-70357008D01*
X81460538Y-70336709D01*
X81434398Y-70308717D01*
X81410171Y-70260042D01*
X81437793Y-70211584D01*
X81449059Y-70200099D01*
X81495988Y-70162395D01*
X81529891Y-70176736D01*
G37*
G36*
X78780532Y-69741829D02*
G01*
X78844820Y-69832956D01*
X78893465Y-69920693D01*
X78896282Y-69927241D01*
X78931721Y-70012797D01*
X79206198Y-69920992D01*
X79524959Y-69837636D01*
X79874541Y-69786711D01*
X80238868Y-69767915D01*
X80601864Y-69780947D01*
X80947454Y-69825504D01*
X81259562Y-69901285D01*
X81426522Y-69962664D01*
X81569538Y-70023968D01*
X81652423Y-69860402D01*
X81701277Y-69773381D01*
X81748033Y-69704505D01*
X81784518Y-69662746D01*
X81802558Y-69657079D01*
X81793981Y-69696476D01*
X81787876Y-69711689D01*
X81723941Y-69873784D01*
X81683833Y-69997741D01*
X81671204Y-70066120D01*
X81657703Y-70121607D01*
X81614742Y-70139519D01*
X81532842Y-70120312D01*
X81430986Y-70077643D01*
X81242368Y-70001310D01*
X81049906Y-69946088D01*
X80838431Y-69909423D01*
X80592773Y-69888761D01*
X80297763Y-69881546D01*
X80266053Y-69881467D01*
X79948404Y-69887743D01*
X79682602Y-69908700D01*
X79454819Y-69946583D01*
X79251228Y-70003636D01*
X79072952Y-70075195D01*
X78962599Y-70125290D01*
X78898991Y-70150631D01*
X78867950Y-70153954D01*
X78855294Y-70137999D01*
X78850121Y-70118224D01*
X78835218Y-70066701D01*
X78806047Y-69972331D01*
X78770096Y-69859211D01*
X78700221Y-69641974D01*
X78780532Y-69741829D01*
G37*
G36*
X79096316Y-75791447D02*
G01*
X79079606Y-75808158D01*
X79062895Y-75791447D01*
X79079606Y-75774737D01*
X79096316Y-75791447D01*
G37*
G36*
X78504945Y-69101518D02*
G01*
X78521570Y-69144759D01*
X78506301Y-69212916D01*
X78451971Y-69241108D01*
X78396510Y-69225469D01*
X78364381Y-69175236D01*
X78376632Y-69115697D01*
X78423632Y-69076926D01*
X78445063Y-69073816D01*
X78504945Y-69101518D01*
G37*
G36*
X80555702Y-76253772D02*
G01*
X80551114Y-76273641D01*
X80533421Y-76276053D01*
X80505912Y-76263824D01*
X80511141Y-76253772D01*
X80550804Y-76249772D01*
X80555702Y-76253772D01*
G37*
G36*
X80154431Y-76032059D02*
G01*
X80147523Y-76086540D01*
X80150322Y-76174500D01*
X80196315Y-76239735D01*
X80239935Y-76292476D01*
X80230024Y-76306680D01*
X80169193Y-76280090D01*
X80157434Y-76273376D01*
X80116956Y-76219738D01*
X80099340Y-76138873D01*
X80107551Y-76061879D01*
X80133708Y-76024567D01*
X80154431Y-76032059D01*
G37*
G36*
X80599292Y-70018327D02*
G01*
X80600263Y-70026316D01*
X80574831Y-70058766D01*
X80566842Y-70059737D01*
X80534392Y-70034304D01*
X80533421Y-70026316D01*
X80558854Y-69993866D01*
X80566842Y-69992895D01*
X80599292Y-70018327D01*
G37*
G36*
X82014156Y-69402307D02*
G01*
X82030780Y-69445549D01*
X82015512Y-69513705D01*
X81961181Y-69541897D01*
X81905721Y-69526258D01*
X81873592Y-69476026D01*
X81885842Y-69416486D01*
X81932843Y-69377716D01*
X81954274Y-69374605D01*
X82014156Y-69402307D01*
G37*
G36*
X77726053Y-76025395D02*
G01*
X77709342Y-76042105D01*
X77692632Y-76025395D01*
X77709342Y-76008684D01*
X77726053Y-76025395D01*
G37*
G36*
X74644717Y-73498573D02*
G01*
X74709350Y-73542926D01*
X74737042Y-73572464D01*
X74789721Y-73624108D01*
X74887182Y-73692564D01*
X75012796Y-73768238D01*
X75149939Y-73841538D01*
X75281984Y-73902873D01*
X75363504Y-73933890D01*
X75478339Y-73964125D01*
X75638661Y-73996161D01*
X75823352Y-74026205D01*
X76011291Y-74050461D01*
X76013792Y-74050736D01*
X76276188Y-74086065D01*
X76485978Y-74131230D01*
X76657234Y-74191410D01*
X76804029Y-74271781D01*
X76940436Y-74377523D01*
X76966884Y-74401409D01*
X77026637Y-74466228D01*
X77097572Y-74557280D01*
X77171004Y-74661224D01*
X77238248Y-74764722D01*
X77290620Y-74854436D01*
X77319435Y-74917024D01*
X77317032Y-74939211D01*
X77289317Y-74917248D01*
X77230030Y-74860483D01*
X77173033Y-74802782D01*
X76996005Y-74648083D01*
X76793675Y-74527740D01*
X76556152Y-74437931D01*
X76273550Y-74374833D01*
X75969073Y-74337423D01*
X75707197Y-74306184D01*
X75494909Y-74259940D01*
X75315619Y-74193061D01*
X75152733Y-74099913D01*
X75052369Y-74026234D01*
X74972803Y-73955761D01*
X74886532Y-73867196D01*
X74801079Y-73770276D01*
X74723968Y-73674740D01*
X74662722Y-73590325D01*
X74624864Y-73526769D01*
X74617916Y-73493811D01*
X74644717Y-73498573D01*
G37*
G36*
X82971550Y-74538158D02*
G01*
X82969790Y-74763699D01*
X82964349Y-74935042D01*
X82954184Y-75064781D01*
X82938254Y-75165509D01*
X82915515Y-75249817D01*
X82911697Y-75261118D01*
X82776899Y-75553634D01*
X82578763Y-75838811D01*
X82320665Y-76113493D01*
X82005980Y-76374527D01*
X81638080Y-76618759D01*
X81220342Y-76843033D01*
X81218553Y-76843896D01*
X81081389Y-76907034D01*
X80922977Y-76975171D01*
X80756626Y-77043151D01*
X80595643Y-77105819D01*
X80453336Y-77158022D01*
X80343013Y-77194604D01*
X80277982Y-77210411D01*
X80271745Y-77210635D01*
X80233483Y-77198777D01*
X80146092Y-77167417D01*
X80022707Y-77121376D01*
X79881711Y-77067502D01*
X79409662Y-76865337D01*
X78986157Y-76642928D01*
X78613970Y-76402648D01*
X78295872Y-76146873D01*
X78034639Y-75877978D01*
X77833042Y-75598338D01*
X77693854Y-75310327D01*
X77645745Y-75152674D01*
X77625913Y-75042644D01*
X77606746Y-74886158D01*
X77590363Y-74703587D01*
X77578878Y-74515300D01*
X77578411Y-74504737D01*
X77558929Y-74053553D01*
X77636789Y-74237368D01*
X77698131Y-74369412D01*
X77768208Y-74502268D01*
X77803903Y-74562560D01*
X77876371Y-74721805D01*
X77893158Y-74835306D01*
X77911237Y-74991169D01*
X77959652Y-75173946D01*
X78029671Y-75356312D01*
X78105661Y-75500234D01*
X78301363Y-75754514D01*
X78561166Y-76001639D01*
X78882538Y-76239796D01*
X79262953Y-76467172D01*
X79699880Y-76681951D01*
X79835639Y-76741130D01*
X80024961Y-76816000D01*
X80175137Y-76858881D01*
X80304928Y-76871171D01*
X80433095Y-76854269D01*
X80578399Y-76809571D01*
X80607856Y-76798669D01*
X80970792Y-76645103D01*
X81324149Y-76463606D01*
X81654317Y-76262589D01*
X81947681Y-76050463D01*
X82190631Y-75835640D01*
X82227582Y-75797731D01*
X82419555Y-75574089D01*
X82556163Y-75361153D01*
X82644196Y-75145039D01*
X82690442Y-74911863D01*
X82697112Y-74837530D01*
X82714478Y-74672093D01*
X82746350Y-74528299D01*
X82800735Y-74375456D01*
X82844060Y-74274358D01*
X82972123Y-73986711D01*
X82971550Y-74538158D01*
G37*
G36*
X79230000Y-75831107D02*
G01*
X79307461Y-75853677D01*
X79326572Y-75869283D01*
X79284875Y-75875000D01*
X79234532Y-75903726D01*
X79192458Y-75971505D01*
X79171949Y-76050734D01*
X79177456Y-76098000D01*
X79188637Y-76135191D01*
X79187175Y-76137817D01*
X79152859Y-76128838D01*
X79101950Y-76118426D01*
X79048869Y-76103680D01*
X79056286Y-76081198D01*
X79081403Y-76061635D01*
X79123685Y-75999856D01*
X79142611Y-75915458D01*
X79151374Y-75844490D01*
X79181660Y-75823614D01*
X79230000Y-75831107D01*
G37*
G36*
X75317189Y-71398011D02*
G01*
X75425540Y-71403270D01*
X75488280Y-71413801D01*
X75516003Y-71431048D01*
X75520263Y-71446711D01*
X75500581Y-71479753D01*
X75433657Y-71494804D01*
X75369869Y-71496842D01*
X75219474Y-71496842D01*
X75219474Y-71897895D01*
X75218818Y-72067190D01*
X75215620Y-72180724D01*
X75208033Y-72249573D01*
X75194212Y-72284813D01*
X75172310Y-72297522D01*
X75152632Y-72298947D01*
X75124416Y-72295013D01*
X75105494Y-72275824D01*
X75094019Y-72230304D01*
X75088145Y-72147377D01*
X75086027Y-72015965D01*
X75085790Y-71897895D01*
X75085790Y-71496842D01*
X74935395Y-71496842D01*
X74836268Y-71490281D01*
X74791115Y-71467973D01*
X74785000Y-71446711D01*
X74795501Y-71424271D01*
X74834067Y-71409496D01*
X74911292Y-71400940D01*
X75037770Y-71397160D01*
X75152632Y-71396579D01*
X75317189Y-71398011D01*
G37*
G36*
X81063452Y-68336149D02*
G01*
X81083005Y-68352247D01*
X81088994Y-68414312D01*
X81051702Y-68470006D01*
X81001316Y-68488947D01*
X80939994Y-68462867D01*
X80921231Y-68435800D01*
X80916504Y-68362658D01*
X80967245Y-68325265D01*
X81001316Y-68321842D01*
X81063452Y-68336149D01*
G37*
G36*
X75044034Y-74570101D02*
G01*
X75122417Y-74627186D01*
X75202763Y-74690652D01*
X75360856Y-74803799D01*
X75531351Y-74896491D01*
X75724861Y-74972125D01*
X75951998Y-75034096D01*
X76223374Y-75085800D01*
X76549601Y-75130631D01*
X76594155Y-75135851D01*
X76845840Y-75180040D01*
X77054301Y-75253768D01*
X77239794Y-75365646D01*
X77352325Y-75458102D01*
X77429252Y-75537732D01*
X77510299Y-75638133D01*
X77585943Y-75744953D01*
X77646661Y-75843837D01*
X77682930Y-75920431D01*
X77685419Y-75960195D01*
X77656779Y-75946040D01*
X77597109Y-75895079D01*
X77540065Y-75839288D01*
X77398620Y-75711661D01*
X77244427Y-75610428D01*
X77066300Y-75531420D01*
X76853051Y-75470464D01*
X76593491Y-75423389D01*
X76342204Y-75392629D01*
X76142315Y-75368988D01*
X75990094Y-75343054D01*
X75866400Y-75310438D01*
X75752092Y-75266751D01*
X75709966Y-75247661D01*
X75544336Y-75149726D01*
X75369972Y-75012944D01*
X75207590Y-74856150D01*
X75077907Y-74698178D01*
X75039202Y-74637797D01*
X75007595Y-74577077D01*
X75007482Y-74553955D01*
X75044034Y-74570101D01*
G37*
G36*
X84614290Y-71332098D02*
G01*
X84696619Y-71340665D01*
X84735962Y-71357664D01*
X84744474Y-71379868D01*
X84729074Y-71408978D01*
X84674481Y-71424606D01*
X84568109Y-71429901D01*
X84543948Y-71430000D01*
X84343421Y-71430000D01*
X84343421Y-71764211D01*
X84527237Y-71764211D01*
X84638089Y-71768711D01*
X84695160Y-71784504D01*
X84711053Y-71814342D01*
X84694550Y-71844574D01*
X84636644Y-71860139D01*
X84527237Y-71864474D01*
X84343421Y-71864474D01*
X84343421Y-72081711D01*
X84341338Y-72199276D01*
X84332059Y-72264821D01*
X84311038Y-72293116D01*
X84276579Y-72298947D01*
X84250518Y-72295572D01*
X84232284Y-72278717D01*
X84220483Y-72238284D01*
X84213725Y-72164177D01*
X84210615Y-72046300D01*
X84209761Y-71874556D01*
X84209737Y-71814342D01*
X84209737Y-71329737D01*
X84477106Y-71329737D01*
X84614290Y-71332098D01*
G37*
G36*
X85501206Y-71311714D02*
G01*
X85583863Y-71336305D01*
X85605333Y-71363547D01*
X85570823Y-71388360D01*
X85485541Y-71405661D01*
X85399912Y-71410562D01*
X85284627Y-71416204D01*
X85210110Y-71435715D01*
X85150398Y-71479093D01*
X85109353Y-71522435D01*
X85049560Y-71600958D01*
X85020443Y-71680887D01*
X85011957Y-71792301D01*
X85011842Y-71814342D01*
X85018114Y-71933723D01*
X85043483Y-72016716D01*
X85097778Y-72093129D01*
X85107370Y-72104018D01*
X85173411Y-72168317D01*
X85240153Y-72200799D01*
X85335441Y-72212556D01*
X85383094Y-72213868D01*
X85494944Y-72223004D01*
X85560613Y-72243017D01*
X85573782Y-72269302D01*
X85528133Y-72297257D01*
X85506775Y-72303971D01*
X85411396Y-72322968D01*
X85316671Y-72319058D01*
X85219355Y-72299467D01*
X85073245Y-72232699D01*
X84962962Y-72115944D01*
X84895844Y-71959683D01*
X84878158Y-71812111D01*
X84908226Y-71636045D01*
X84991436Y-71488867D01*
X85117297Y-71379003D01*
X85275319Y-71314879D01*
X85455009Y-71304919D01*
X85501206Y-71311714D01*
G37*
G36*
X79871090Y-68462210D02*
G01*
X79880536Y-68518472D01*
X79848695Y-68568004D01*
X79810767Y-68582622D01*
X79746698Y-68571934D01*
X79721951Y-68546171D01*
X79722005Y-68474834D01*
X79769432Y-68430734D01*
X79818873Y-68427630D01*
X79871090Y-68462210D01*
G37*
G36*
X80784709Y-75966340D02*
G01*
X80779455Y-75991974D01*
X80755733Y-76035948D01*
X80747082Y-76042105D01*
X80735399Y-76014814D01*
X80733948Y-75991974D01*
X80751438Y-75947490D01*
X80766320Y-75941842D01*
X80784709Y-75966340D01*
G37*
G36*
X81698756Y-68314655D02*
G01*
X81719277Y-68380032D01*
X81712160Y-68413750D01*
X81671020Y-68449353D01*
X81607501Y-68451005D01*
X81555942Y-68420127D01*
X81548753Y-68406995D01*
X81547698Y-68334458D01*
X81600145Y-68292819D01*
X81634713Y-68288421D01*
X81698756Y-68314655D01*
G37*
G36*
X80290169Y-67982074D02*
G01*
X80299474Y-68021053D01*
X80323106Y-68076910D01*
X80366316Y-68087895D01*
X80420752Y-68108792D01*
X80433158Y-68138026D01*
X80405295Y-68178853D01*
X80366316Y-68188158D01*
X80310209Y-68212020D01*
X80299474Y-68253028D01*
X80283753Y-68317792D01*
X80247759Y-68344227D01*
X80220583Y-68332074D01*
X80202241Y-68283814D01*
X80199211Y-68249430D01*
X80173081Y-68197769D01*
X80132369Y-68188158D01*
X80077933Y-68167261D01*
X80065527Y-68138026D01*
X80093390Y-68097199D01*
X80132369Y-68087895D01*
X80188226Y-68064263D01*
X80199211Y-68021053D01*
X80220108Y-67966617D01*
X80249342Y-67954211D01*
X80290169Y-67982074D01*
G37*
G36*
X81962674Y-68482154D02*
G01*
X81993917Y-68541148D01*
X81985373Y-68592227D01*
X81939855Y-68617989D01*
X81903684Y-68622632D01*
X81841549Y-68608325D01*
X81821996Y-68592227D01*
X81816007Y-68530162D01*
X81853299Y-68474468D01*
X81903684Y-68455526D01*
X81962674Y-68482154D01*
G37*
G36*
X80303117Y-75994420D02*
G01*
X80346085Y-76018688D01*
X80385705Y-76079608D01*
X80394089Y-76161559D01*
X80372751Y-76235606D01*
X80332895Y-76270555D01*
X80300625Y-76275531D01*
X80316809Y-76245919D01*
X80327301Y-76232960D01*
X80354949Y-76154381D01*
X80330648Y-76072250D01*
X80262645Y-76012068D01*
X80254759Y-76008638D01*
X80214185Y-75985970D01*
X80234599Y-75977382D01*
X80303117Y-75994420D01*
G37*
%TO.C,C8*%
X79870000Y-43500000D02*
G75*
G03*
X79870000Y-43500000I-2620000J0D01*
G01*
%TO.C,R7*%
X72580000Y-59580000D02*
X76420000Y-59580000D01*
X72580000Y-61420000D02*
X76420000Y-61420000D01*
%TO.C,C2*%
X101370000Y-59380000D02*
X101370000Y-64620000D01*
X98945000Y-59380000D02*
X98630000Y-59380000D01*
X101370000Y-64620000D02*
X101055000Y-64620000D01*
X101370000Y-59380000D02*
X101055000Y-59380000D01*
X98945000Y-64620000D02*
X98630000Y-64620000D01*
X98630000Y-59380000D02*
X98630000Y-64620000D01*
%TO.C,U8*%
X58730000Y-35120000D02*
X63371000Y-35120000D01*
X58730000Y-28149000D02*
X60240000Y-28149000D01*
X58730000Y-31850000D02*
X60240000Y-31850000D01*
X63371000Y-35120000D02*
X63371000Y-24880000D01*
X60240000Y-35120000D02*
X60240000Y-24880000D01*
X58730000Y-24880000D02*
X63371000Y-24880000D01*
X58730000Y-35120000D02*
X58730000Y-24880000D01*
%TO.C,R1*%
X91080000Y-70905000D02*
X94920000Y-70905000D01*
X91080000Y-72745000D02*
X94920000Y-72745000D01*
%TO.C,C10*%
X68120000Y-26000000D02*
G75*
G03*
X68120000Y-26000000I-2120000J0D01*
G01*
%TO.C,C14*%
X39970000Y-54332500D02*
X39970000Y-54017500D01*
X34730000Y-54332500D02*
X34730000Y-54017500D01*
X39970000Y-54017500D02*
X34730000Y-54017500D01*
X39970000Y-56757500D02*
X39970000Y-56442500D01*
X34730000Y-56757500D02*
X34730000Y-56442500D01*
X39970000Y-56757500D02*
X34730000Y-56757500D01*
%TO.C,C12*%
X72620000Y-45250000D02*
G75*
G03*
X72620000Y-45250000I-2620000J0D01*
G01*
%TO.C,U3*%
X92000000Y-52205000D02*
X94000000Y-52205000D01*
X93000000Y-55445000D02*
X96000000Y-55445000D01*
%TO.C,R2*%
X91080000Y-65245000D02*
X94920000Y-65245000D01*
X91080000Y-63405000D02*
X94920000Y-63405000D01*
%TO.C,J5*%
X102140000Y-41150000D02*
X104550000Y-41150000D01*
X102440000Y-35730000D02*
X102440000Y-40850000D01*
X102440000Y-40850000D02*
X111560000Y-40850000D01*
X112560000Y-35730000D02*
X102440000Y-35730000D01*
X111560000Y-40850000D02*
X112560000Y-39850000D01*
X102140000Y-38740000D02*
X102140000Y-41150000D01*
X112560000Y-39850000D02*
X112560000Y-35730000D01*
%TD*%
M02*
