%TF.GenerationSoftware,KiCad,Pcbnew,(6.0.11)*%
%TF.CreationDate,2024-03-05T22:48:33-08:00*%
%TF.ProjectId,bez_controller1v5,62657a5f-636f-46e7-9472-6f6c6c657231,rev?*%
%TF.SameCoordinates,Original*%
%TF.FileFunction,Copper,L2,Inr*%
%TF.FilePolarity,Positive*%
%FSLAX46Y46*%
G04 Gerber Fmt 4.6, Leading zero omitted, Abs format (unit mm)*
G04 Created by KiCad (PCBNEW (6.0.11)) date 2024-03-05 22:48:33*
%MOMM*%
%LPD*%
G01*
G04 APERTURE LIST*
G04 Aperture macros list*
%AMRoundRect*
0 Rectangle with rounded corners*
0 $1 Rounding radius*
0 $2 $3 $4 $5 $6 $7 $8 $9 X,Y pos of 4 corners*
0 Add a 4 corners polygon primitive as box body*
4,1,4,$2,$3,$4,$5,$6,$7,$8,$9,$2,$3,0*
0 Add four circle primitives for the rounded corners*
1,1,$1+$1,$2,$3*
1,1,$1+$1,$4,$5*
1,1,$1+$1,$6,$7*
1,1,$1+$1,$8,$9*
0 Add four rect primitives between the rounded corners*
20,1,$1+$1,$2,$3,$4,$5,0*
20,1,$1+$1,$4,$5,$6,$7,0*
20,1,$1+$1,$6,$7,$8,$9,0*
20,1,$1+$1,$8,$9,$2,$3,0*%
G04 Aperture macros list end*
%TA.AperFunction,ComponentPad*%
%ADD10R,1.700000X1.700000*%
%TD*%
%TA.AperFunction,ComponentPad*%
%ADD11O,1.700000X1.700000*%
%TD*%
%TA.AperFunction,ComponentPad*%
%ADD12C,1.600000*%
%TD*%
%TA.AperFunction,ComponentPad*%
%ADD13O,1.700000X1.850000*%
%TD*%
%TA.AperFunction,ComponentPad*%
%ADD14RoundRect,0.250000X-0.600000X-0.675000X0.600000X-0.675000X0.600000X0.675000X-0.600000X0.675000X0*%
%TD*%
%TA.AperFunction,ComponentPad*%
%ADD15C,1.400000*%
%TD*%
%TA.AperFunction,ComponentPad*%
%ADD16O,1.400000X1.400000*%
%TD*%
%TA.AperFunction,ComponentPad*%
%ADD17R,1.905000X2.000000*%
%TD*%
%TA.AperFunction,ComponentPad*%
%ADD18O,1.905000X2.000000*%
%TD*%
%TA.AperFunction,ComponentPad*%
%ADD19O,1.600000X1.600000*%
%TD*%
%TA.AperFunction,ComponentPad*%
%ADD20O,1.700000X2.700000*%
%TD*%
%TA.AperFunction,ComponentPad*%
%ADD21R,1.800000X1.800000*%
%TD*%
%TA.AperFunction,ComponentPad*%
%ADD22C,1.800000*%
%TD*%
%TA.AperFunction,ComponentPad*%
%ADD23C,1.500000*%
%TD*%
%TA.AperFunction,ComponentPad*%
%ADD24R,0.900000X2.000000*%
%TD*%
%TA.AperFunction,ComponentPad*%
%ADD25C,4.100000*%
%TD*%
%TA.AperFunction,ComponentPad*%
%ADD26RoundRect,1.025000X-1.025000X-1.025000X1.025000X-1.025000X1.025000X1.025000X-1.025000X1.025000X0*%
%TD*%
%TA.AperFunction,ComponentPad*%
%ADD27R,2.000000X1.905000*%
%TD*%
%TA.AperFunction,ComponentPad*%
%ADD28O,2.000000X1.905000*%
%TD*%
%TA.AperFunction,ComponentPad*%
%ADD29C,1.200000*%
%TD*%
%TA.AperFunction,ViaPad*%
%ADD30C,0.800000*%
%TD*%
G04 APERTURE END LIST*
D10*
%TO.N,+3.3V*%
%TO.C,J9*%
X24300000Y-42260000D03*
D11*
%TO.N,/TCK*%
X24300000Y-44800000D03*
%TO.N,GND*%
X24300000Y-47340000D03*
%TO.N,/TMS*%
X24300000Y-49880000D03*
%TO.N,/NRST*%
X24300000Y-52420000D03*
%TO.N,/SWO*%
X24300000Y-54960000D03*
%TD*%
D12*
%TO.N,GND*%
%TO.C,C5*%
X100000000Y-36800000D03*
%TO.N,+12V*%
X100000000Y-41800000D03*
%TD*%
%TO.N,+3.3V*%
%TO.C,C13*%
X29250000Y-50750000D03*
%TO.N,GND*%
X29250000Y-48750000D03*
%TD*%
D13*
%TO.N,GND*%
%TO.C,J1*%
X110000000Y-68700000D03*
%TO.N,+12V*%
X107500000Y-68700000D03*
D14*
%TO.N,/MOTOR_DATA1*%
X105000000Y-68700000D03*
%TD*%
D12*
%TO.N,+3.3V*%
%TO.C,C16*%
X50100000Y-39750000D03*
%TO.N,GND*%
X55100000Y-39750000D03*
%TD*%
%TO.N,+3.3V*%
%TO.C,C21*%
X61600000Y-58137500D03*
%TO.N,GND*%
X56600000Y-58137500D03*
%TD*%
%TO.N,/PH1-OSC_OUT*%
%TO.C,C25*%
X45200000Y-62937500D03*
%TO.N,GND*%
X40200000Y-62937500D03*
%TD*%
%TO.N,/PH0-OSC_IN*%
%TO.C,C24*%
X40200000Y-59937500D03*
%TO.N,GND*%
X45200000Y-59937500D03*
%TD*%
%TO.N,+6V*%
%TO.C,C9*%
X65250000Y-34500000D03*
%TO.N,/PWR_GND*%
X65250000Y-29500000D03*
%TD*%
%TO.N,GND*%
%TO.C,C4*%
X100000000Y-44325000D03*
%TO.N,+12V*%
X100000000Y-49325000D03*
%TD*%
D15*
%TO.N,+5V*%
%TO.C,R3*%
X90500000Y-56825000D03*
D16*
%TO.N,/MOTOR_DATA3*%
X95580000Y-56825000D03*
%TD*%
D13*
%TO.N,GND*%
%TO.C,J4*%
X110000000Y-46380000D03*
%TO.N,+12V*%
X107500000Y-46380000D03*
D14*
%TO.N,/MOTOR_DATA4*%
X105000000Y-46380000D03*
%TD*%
D12*
%TO.N,Net-(C23-Pad1)*%
%TO.C,C23*%
X57600000Y-43387500D03*
%TO.N,GND*%
X52600000Y-43387500D03*
%TD*%
D17*
%TO.N,+12V*%
%TO.C,U7*%
X81540000Y-48305000D03*
D18*
%TO.N,/PWR_GND*%
X79000000Y-48305000D03*
%TO.N,+6V*%
X76460000Y-48305000D03*
%TD*%
D10*
%TO.N,/power*%
%TO.C,J8*%
X70220000Y-64600000D03*
D11*
%TO.N,GND*%
X67680000Y-64600000D03*
%TO.N,/I2C_SCL*%
X65140000Y-64600000D03*
%TO.N,/I2C_SDA*%
X62600000Y-64600000D03*
%TO.N,unconnected-(J8-Pad5)*%
X60060000Y-64600000D03*
%TO.N,unconnected-(J8-Pad6)*%
X57520000Y-64600000D03*
%TO.N,unconnected-(J8-Pad7)*%
X54980000Y-64600000D03*
%TO.N,unconnected-(J8-Pad8)*%
X52440000Y-64600000D03*
%TD*%
D10*
%TO.N,VBUS*%
%TO.C,J7*%
X52000000Y-34500000D03*
D11*
%TO.N,/power*%
X52000000Y-31960000D03*
%TO.N,+5V*%
X52000000Y-29420000D03*
%TD*%
D12*
%TO.N,+3.3VA*%
%TO.C,FB2*%
X54790000Y-55137500D03*
D19*
%TO.N,+3.3V*%
X62410000Y-55137500D03*
%TD*%
D12*
%TO.N,GND*%
%TO.C,FB1*%
X78200000Y-38800000D03*
D19*
%TO.N,/PWR_GND*%
X70580000Y-38800000D03*
%TD*%
D12*
%TO.N,+3.3VA*%
%TO.C,C19*%
X49350000Y-55137500D03*
%TO.N,GND*%
X44350000Y-55137500D03*
%TD*%
D15*
%TO.N,+5V*%
%TO.C,R5*%
X90500000Y-41325000D03*
D16*
%TO.N,/MOTOR_DATA5*%
X95580000Y-41325000D03*
%TD*%
D12*
%TO.N,+3.3V*%
%TO.C,C18*%
X33600000Y-52387500D03*
%TO.N,GND*%
X33600000Y-47387500D03*
%TD*%
D13*
%TO.N,GND*%
%TO.C,J2*%
X110000000Y-61260000D03*
%TO.N,+12V*%
X107500000Y-61260000D03*
D14*
%TO.N,/MOTOR_DATA2*%
X105000000Y-61260000D03*
%TD*%
D12*
%TO.N,+3.3V*%
%TO.C,C17*%
X37850000Y-39637500D03*
%TO.N,GND*%
X37850000Y-34637500D03*
%TD*%
D13*
%TO.N,GND*%
%TO.C,J3*%
X110000000Y-53820000D03*
%TO.N,+12V*%
X107500000Y-53820000D03*
D14*
%TO.N,/MOTOR_DATA3*%
X105000000Y-53820000D03*
%TD*%
D15*
%TO.N,+5V*%
%TO.C,R6*%
X90460000Y-34000000D03*
D16*
%TO.N,/MOTOR_DATA6*%
X95540000Y-34000000D03*
%TD*%
D20*
%TO.N,unconnected-(J12-Pad6)*%
%TO.C,J12*%
X37550000Y-23300000D03*
X37550000Y-27800000D03*
X44850000Y-27800000D03*
X44850000Y-23300000D03*
%TD*%
D21*
%TO.N,Net-(D1-Pad1)*%
%TO.C,D1*%
X70250000Y-57275000D03*
D22*
%TO.N,+3.3V*%
X70250000Y-54735000D03*
%TD*%
D12*
%TO.N,/NRST*%
%TO.C,C22*%
X36970000Y-63637500D03*
%TO.N,GND*%
X36970000Y-58637500D03*
%TD*%
D15*
%TO.N,Net-(J11-Pad2)*%
%TO.C,R8*%
X28800000Y-65700000D03*
D16*
%TO.N,/BOOT0*%
X28800000Y-60620000D03*
%TD*%
D15*
%TO.N,Net-(D2-Pad2)*%
%TO.C,R9*%
X28210000Y-39000000D03*
D16*
%TO.N,Net-(R9-Pad2)*%
X33290000Y-39000000D03*
%TD*%
D21*
%TO.N,GND*%
%TO.C,D2*%
X30750000Y-31675000D03*
D22*
%TO.N,Net-(D2-Pad2)*%
X30750000Y-34215000D03*
%TD*%
D13*
%TO.N,GND*%
%TO.C,J6*%
X110000000Y-31500000D03*
%TO.N,+12V*%
X107500000Y-31500000D03*
D14*
%TO.N,/MOTOR_DATA6*%
X105000000Y-31500000D03*
%TD*%
D12*
%TO.N,GND*%
%TO.C,C1*%
X100000000Y-67300000D03*
%TO.N,+12V*%
X100000000Y-72300000D03*
%TD*%
D10*
%TO.N,+3.3V*%
%TO.C,J11*%
X25600000Y-60760000D03*
D11*
%TO.N,Net-(J11-Pad2)*%
X25600000Y-63300000D03*
%TO.N,GND*%
X25600000Y-65840000D03*
%TD*%
D12*
%TO.N,+12V*%
%TO.C,C7*%
X82750000Y-54750000D03*
%TO.N,/PWR_GND*%
X80750000Y-54750000D03*
%TD*%
%TO.N,GND*%
%TO.C,C6*%
X100000000Y-29325000D03*
%TO.N,+12V*%
X100000000Y-34325000D03*
%TD*%
%TO.N,+3.3VA*%
%TO.C,C20*%
X49100000Y-58137500D03*
%TO.N,GND*%
X54100000Y-58137500D03*
%TD*%
%TO.N,GND*%
%TO.C,C3*%
X100000000Y-51825000D03*
%TO.N,+12V*%
X100000000Y-56825000D03*
%TD*%
D23*
%TO.N,/PH0-OSC_IN*%
%TO.C,Y1*%
X40450000Y-67750000D03*
%TO.N,/PH1-OSC_OUT*%
X45330000Y-67750000D03*
%TD*%
D12*
%TO.N,/power*%
%TO.C,C11*%
X61000000Y-39750000D03*
%TO.N,/PWR_GND*%
X66000000Y-39750000D03*
%TD*%
D24*
%TO.N,*%
%TO.C,J10*%
X72150000Y-24750000D03*
X85650000Y-24750000D03*
D25*
%TO.N,GND*%
X75300000Y-30750000D03*
D26*
%TO.N,+12V*%
X82500000Y-30750000D03*
%TD*%
D15*
%TO.N,+5V*%
%TO.C,R4*%
X90500000Y-48825000D03*
D16*
%TO.N,/MOTOR_DATA4*%
X95580000Y-48825000D03*
%TD*%
D12*
%TO.N,+3.3V*%
%TO.C,C15*%
X51850000Y-47137500D03*
%TO.N,GND*%
X51850000Y-52137500D03*
%TD*%
%TO.N,+6V*%
%TO.C,C8*%
X76250000Y-43500000D03*
%TO.N,/PWR_GND*%
X78250000Y-43500000D03*
%TD*%
D15*
%TO.N,Net-(D1-Pad1)*%
%TO.C,R7*%
X71960000Y-60500000D03*
D16*
%TO.N,GND*%
X77040000Y-60500000D03*
%TD*%
D12*
%TO.N,GND*%
%TO.C,C2*%
X100000000Y-59500000D03*
%TO.N,+12V*%
X100000000Y-64500000D03*
%TD*%
D27*
%TO.N,+6V*%
%TO.C,U8*%
X62000000Y-32540000D03*
D28*
%TO.N,/PWR_GND*%
X62000000Y-30000000D03*
%TO.N,+5V*%
X62000000Y-27460000D03*
%TD*%
D15*
%TO.N,+5V*%
%TO.C,R1*%
X90460000Y-71825000D03*
D16*
%TO.N,/MOTOR_DATA1*%
X95540000Y-71825000D03*
%TD*%
D29*
%TO.N,+5V*%
%TO.C,C10*%
X66000000Y-25250000D03*
%TO.N,/PWR_GND*%
X66000000Y-26750000D03*
%TD*%
D12*
%TO.N,+3.3V*%
%TO.C,C14*%
X39850000Y-55387500D03*
%TO.N,GND*%
X34850000Y-55387500D03*
%TD*%
%TO.N,+3.3V*%
%TO.C,C12*%
X70000000Y-46250000D03*
%TO.N,/PWR_GND*%
X70000000Y-44250000D03*
%TD*%
D15*
%TO.N,+5V*%
%TO.C,R2*%
X90460000Y-64325000D03*
D16*
%TO.N,/MOTOR_DATA2*%
X95540000Y-64325000D03*
%TD*%
D13*
%TO.N,GND*%
%TO.C,J5*%
X110000000Y-38940000D03*
%TO.N,+12V*%
X107500000Y-38940000D03*
D14*
%TO.N,/MOTOR_DATA5*%
X105000000Y-38940000D03*
%TD*%
D30*
%TO.N,/I2C_SCL*%
X36100000Y-46500000D03*
X61250000Y-72400000D03*
%TO.N,/I2C_SDA*%
X56500000Y-72800000D03*
X36100000Y-47800000D03*
%TO.N,/TMS*%
X39800000Y-42600000D03*
X33800000Y-43800000D03*
%TO.N,/BOOT0*%
X29800000Y-56800000D03*
%TO.N,/USART1_DIR*%
X88000000Y-70200000D03*
X40791621Y-47429913D03*
%TO.N,/USART2_DIR*%
X47600000Y-49049500D03*
X87000000Y-62200000D03*
%TO.N,/USART3_DIR*%
X87300000Y-55600000D03*
X45500000Y-43500000D03*
%TO.N,/USART4_DIR*%
X44900000Y-47200000D03*
X87500000Y-48100000D03*
%TO.N,/USART5_DIR*%
X86000000Y-39400000D03*
X39312500Y-45887500D03*
%TO.N,/USART6_DIR*%
X46800000Y-38749003D03*
X86960308Y-34160307D03*
%TO.N,/USART5_TX*%
X84500000Y-37500000D03*
X39580898Y-43909584D03*
%TO.N,/USART5_RX*%
X86000000Y-38099500D03*
X39787500Y-44887500D03*
%TO.N,/USART6_TX*%
X87050000Y-30550000D03*
X46915585Y-37750000D03*
%TO.N,/USART6_RX*%
X47250000Y-36750000D03*
X86000000Y-33000000D03*
%TO.N,/USART3_TX*%
X87000000Y-53000000D03*
X56387500Y-48287500D03*
%TO.N,/USART3_RX*%
X87100000Y-54200000D03*
X54300000Y-47500000D03*
%TO.N,/USART4_TX*%
X87000000Y-45000000D03*
X45750000Y-46050000D03*
%TO.N,/USART4_RX*%
X46850000Y-46450000D03*
X87200000Y-46900000D03*
%TO.N,/USART1_TX*%
X42620023Y-45820023D03*
X87800000Y-67700000D03*
%TO.N,/USART1_RX*%
X41541121Y-46650468D03*
X87400000Y-69400000D03*
%TO.N,/USART2_TX*%
X54300000Y-53300000D03*
X87100000Y-58900000D03*
%TO.N,/USART2_RX*%
X86750000Y-60500000D03*
X47800000Y-50300000D03*
%TD*%
%TA.AperFunction,Conductor*%
%TO.N,+5V*%
G36*
X63030578Y-25769039D02*
G01*
X64860174Y-26908222D01*
X64907430Y-26961207D01*
X64915699Y-26984168D01*
X64950605Y-27121610D01*
X65035898Y-27306624D01*
X65153479Y-27472997D01*
X65299410Y-27615157D01*
X65304206Y-27618362D01*
X65304209Y-27618364D01*
X65377684Y-27667458D01*
X65468803Y-27728342D01*
X65474106Y-27730620D01*
X65474109Y-27730622D01*
X65650680Y-27806483D01*
X65655987Y-27808763D01*
X65728817Y-27825243D01*
X65849055Y-27852450D01*
X65849060Y-27852451D01*
X65854692Y-27853725D01*
X65860463Y-27853952D01*
X65860465Y-27853952D01*
X65923470Y-27856427D01*
X66058263Y-27861723D01*
X66176199Y-27844623D01*
X66254161Y-27833320D01*
X66254165Y-27833319D01*
X66259883Y-27832490D01*
X66265357Y-27830632D01*
X66269138Y-27829724D01*
X66340046Y-27833271D01*
X66365149Y-27845282D01*
X69033006Y-29506400D01*
X73055107Y-32010727D01*
X73094894Y-32050174D01*
X73226037Y-32256822D01*
X73228556Y-32259868D01*
X73228559Y-32259871D01*
X73288035Y-32331765D01*
X73431246Y-32504877D01*
X73665926Y-32725256D01*
X73926376Y-32914484D01*
X74208490Y-33069578D01*
X74507817Y-33188089D01*
X74511647Y-33189072D01*
X74511655Y-33189075D01*
X74708313Y-33239568D01*
X74819637Y-33268151D01*
X74823565Y-33268647D01*
X74823569Y-33268648D01*
X75112125Y-33305101D01*
X75162932Y-33323146D01*
X76250000Y-34000000D01*
X85923715Y-34000000D01*
X85991836Y-34020002D01*
X86038329Y-34073658D01*
X86049025Y-34139168D01*
X86047494Y-34153738D01*
X86046804Y-34160307D01*
X86066766Y-34350235D01*
X86125781Y-34531863D01*
X86221268Y-34697251D01*
X86349055Y-34839173D01*
X86503556Y-34951425D01*
X86509584Y-34954109D01*
X86509586Y-34954110D01*
X86671989Y-35026416D01*
X86678020Y-35029101D01*
X86771421Y-35048954D01*
X86858364Y-35067435D01*
X86858369Y-35067435D01*
X86864821Y-35068807D01*
X87055795Y-35068807D01*
X87062247Y-35067435D01*
X87062252Y-35067435D01*
X87149195Y-35048954D01*
X87242596Y-35029101D01*
X87248627Y-35026416D01*
X87411030Y-34954110D01*
X87411032Y-34954109D01*
X87417060Y-34951425D01*
X87571561Y-34839173D01*
X87699348Y-34697251D01*
X87794835Y-34531863D01*
X87853850Y-34350235D01*
X87873812Y-34160307D01*
X87873122Y-34153738D01*
X87871591Y-34139168D01*
X87884364Y-34069330D01*
X87932868Y-34017484D01*
X87996901Y-34000000D01*
X88500000Y-34000000D01*
X89212219Y-33145337D01*
X89271195Y-33105810D01*
X89309015Y-33100000D01*
X91205531Y-33100000D01*
X91273652Y-33120002D01*
X91284618Y-33127912D01*
X91703087Y-33465319D01*
X91743563Y-33523648D01*
X91750000Y-33563407D01*
X91750000Y-72447810D01*
X91729998Y-72515931D01*
X91713095Y-72536905D01*
X91286905Y-72963095D01*
X91224593Y-72997121D01*
X91197810Y-73000000D01*
X90038149Y-73000000D01*
X89968257Y-72978838D01*
X89306108Y-72537405D01*
X89260523Y-72482976D01*
X89250000Y-72432567D01*
X89250000Y-36750000D01*
X87500000Y-36000000D01*
X73787408Y-36000000D01*
X73718653Y-35979588D01*
X65868546Y-30867890D01*
X65822376Y-30813956D01*
X65812693Y-30743623D01*
X65842573Y-30679220D01*
X65884052Y-30648107D01*
X65901758Y-30639851D01*
X65901764Y-30639847D01*
X65906749Y-30637523D01*
X66011611Y-30564098D01*
X66089789Y-30509357D01*
X66089792Y-30509355D01*
X66094300Y-30506198D01*
X66256198Y-30344300D01*
X66259389Y-30339744D01*
X66384366Y-30161257D01*
X66387523Y-30156749D01*
X66389846Y-30151767D01*
X66389849Y-30151762D01*
X66481961Y-29954225D01*
X66481961Y-29954224D01*
X66484284Y-29949243D01*
X66505214Y-29871134D01*
X66542119Y-29733402D01*
X66542119Y-29733400D01*
X66543543Y-29728087D01*
X66563498Y-29500000D01*
X66543543Y-29271913D01*
X66541672Y-29264929D01*
X66485707Y-29056067D01*
X66485706Y-29056065D01*
X66484284Y-29050757D01*
X66481961Y-29045775D01*
X66389849Y-28848238D01*
X66389846Y-28848233D01*
X66387523Y-28843251D01*
X66256198Y-28655700D01*
X66094300Y-28493802D01*
X66089792Y-28490645D01*
X66089789Y-28490643D01*
X66003784Y-28430422D01*
X65906749Y-28362477D01*
X65901767Y-28360154D01*
X65901762Y-28360151D01*
X65704225Y-28268039D01*
X65704224Y-28268039D01*
X65699243Y-28265716D01*
X65693935Y-28264294D01*
X65693933Y-28264293D01*
X65483402Y-28207881D01*
X65483400Y-28207881D01*
X65478087Y-28206457D01*
X65250000Y-28186502D01*
X65021913Y-28206457D01*
X65016600Y-28207881D01*
X65016598Y-28207881D01*
X64806067Y-28264293D01*
X64806065Y-28264294D01*
X64800757Y-28265716D01*
X64795776Y-28268039D01*
X64795775Y-28268039D01*
X64598238Y-28360151D01*
X64598233Y-28360154D01*
X64593251Y-28362477D01*
X64496216Y-28430422D01*
X64410211Y-28490643D01*
X64410208Y-28490645D01*
X64405700Y-28493802D01*
X64243802Y-28655700D01*
X64112477Y-28843251D01*
X64110154Y-28848233D01*
X64110151Y-28848238D01*
X64018039Y-29045775D01*
X64015716Y-29050757D01*
X64014294Y-29056065D01*
X64014293Y-29056067D01*
X63958328Y-29264929D01*
X63956457Y-29271913D01*
X63955978Y-29277393D01*
X63945714Y-29394702D01*
X63919850Y-29460820D01*
X63862347Y-29502460D01*
X63791459Y-29506400D01*
X63751438Y-29489308D01*
X63260764Y-29169800D01*
X63228759Y-29139865D01*
X63146882Y-29030815D01*
X63146880Y-29030812D01*
X63143777Y-29026680D01*
X62970088Y-28860699D01*
X62771622Y-28725314D01*
X62766939Y-28723140D01*
X62766935Y-28723138D01*
X62558405Y-28626342D01*
X62558401Y-28626341D01*
X62553710Y-28624163D01*
X62322202Y-28559960D01*
X62317065Y-28559411D01*
X62129407Y-28539356D01*
X62129399Y-28539356D01*
X62126072Y-28539000D01*
X61891598Y-28539000D01*
X61889025Y-28539212D01*
X61889014Y-28539212D01*
X61788054Y-28547513D01*
X61713063Y-28553678D01*
X61480056Y-28612206D01*
X61388989Y-28651803D01*
X61264474Y-28705943D01*
X61264471Y-28705945D01*
X61259737Y-28708003D01*
X61255402Y-28710807D01*
X61255399Y-28710809D01*
X61236342Y-28723138D01*
X61119241Y-28798894D01*
X61051182Y-28819101D01*
X60983001Y-28799305D01*
X60975211Y-28793908D01*
X60300400Y-28287800D01*
X60257905Y-28230926D01*
X60250000Y-28187000D01*
X60250000Y-26802190D01*
X60270002Y-26734069D01*
X60286905Y-26713095D01*
X61213095Y-25786905D01*
X61275407Y-25752879D01*
X61302190Y-25750000D01*
X62963980Y-25750000D01*
X63030578Y-25769039D01*
G37*
%TD.AperFunction*%
%TD*%
%TA.AperFunction,Conductor*%
%TO.N,+3.3V*%
G36*
X36725114Y-21520185D02*
G01*
X36770869Y-21572989D01*
X36780813Y-21642147D01*
X36751788Y-21705703D01*
X36729201Y-21726073D01*
X36678599Y-21761505D01*
X36511505Y-21928599D01*
X36508403Y-21933030D01*
X36508399Y-21933034D01*
X36496736Y-21949691D01*
X36375965Y-22122171D01*
X36373675Y-22127082D01*
X36278386Y-22331427D01*
X36278384Y-22331433D01*
X36276097Y-22336337D01*
X36274695Y-22341570D01*
X36217014Y-22556842D01*
X36214937Y-22564592D01*
X36199500Y-22741034D01*
X36199500Y-23858966D01*
X36199736Y-23861662D01*
X36199736Y-23861665D01*
X36210058Y-23979637D01*
X36214937Y-24035408D01*
X36276097Y-24263663D01*
X36278384Y-24268567D01*
X36278386Y-24268573D01*
X36322788Y-24363791D01*
X36375965Y-24477829D01*
X36379072Y-24482266D01*
X36379073Y-24482268D01*
X36508399Y-24666966D01*
X36508403Y-24666970D01*
X36511505Y-24671401D01*
X36678599Y-24838495D01*
X36872170Y-24974035D01*
X37086337Y-25073903D01*
X37160867Y-25093873D01*
X37309366Y-25133663D01*
X37309369Y-25133664D01*
X37314592Y-25135063D01*
X37319979Y-25135534D01*
X37319983Y-25135535D01*
X37544605Y-25155187D01*
X37550000Y-25155659D01*
X37555395Y-25155187D01*
X37780017Y-25135535D01*
X37780021Y-25135534D01*
X37785408Y-25135063D01*
X37790631Y-25133664D01*
X37790634Y-25133663D01*
X37939133Y-25093873D01*
X38013663Y-25073903D01*
X38018567Y-25071616D01*
X38018573Y-25071614D01*
X38222918Y-24976325D01*
X38227829Y-24974035D01*
X38232268Y-24970927D01*
X38416966Y-24841601D01*
X38416970Y-24841597D01*
X38421401Y-24838495D01*
X38588495Y-24671401D01*
X38591597Y-24666970D01*
X38591601Y-24666966D01*
X38720927Y-24482268D01*
X38720928Y-24482266D01*
X38724035Y-24477829D01*
X38777212Y-24363791D01*
X38821614Y-24268573D01*
X38821616Y-24268567D01*
X38823903Y-24263663D01*
X38885063Y-24035408D01*
X38889943Y-23979637D01*
X38900264Y-23861665D01*
X38900264Y-23861662D01*
X38900500Y-23858966D01*
X38900500Y-22741034D01*
X38885063Y-22564592D01*
X38882987Y-22556842D01*
X38825305Y-22341570D01*
X38823903Y-22336337D01*
X38821616Y-22331433D01*
X38821614Y-22331427D01*
X38726325Y-22127082D01*
X38724035Y-22122171D01*
X38603264Y-21949691D01*
X38591601Y-21933034D01*
X38591597Y-21933030D01*
X38588495Y-21928599D01*
X38421401Y-21761505D01*
X38370802Y-21726075D01*
X38327177Y-21671498D01*
X38319985Y-21601999D01*
X38351507Y-21539645D01*
X38411737Y-21504231D01*
X38441926Y-21500500D01*
X43958075Y-21500500D01*
X44025114Y-21520185D01*
X44070869Y-21572989D01*
X44080813Y-21642147D01*
X44051788Y-21705703D01*
X44029201Y-21726073D01*
X43978599Y-21761505D01*
X43811505Y-21928599D01*
X43808403Y-21933030D01*
X43808399Y-21933034D01*
X43796736Y-21949691D01*
X43675965Y-22122171D01*
X43673675Y-22127082D01*
X43578386Y-22331427D01*
X43578384Y-22331433D01*
X43576097Y-22336337D01*
X43574695Y-22341570D01*
X43517014Y-22556842D01*
X43514937Y-22564592D01*
X43499500Y-22741034D01*
X43499500Y-23858966D01*
X43499736Y-23861662D01*
X43499736Y-23861665D01*
X43510058Y-23979637D01*
X43514937Y-24035408D01*
X43576097Y-24263663D01*
X43578384Y-24268567D01*
X43578386Y-24268573D01*
X43622788Y-24363791D01*
X43675965Y-24477829D01*
X43679072Y-24482266D01*
X43679073Y-24482268D01*
X43808399Y-24666966D01*
X43808403Y-24666970D01*
X43811505Y-24671401D01*
X43978599Y-24838495D01*
X44172170Y-24974035D01*
X44386337Y-25073903D01*
X44460867Y-25093873D01*
X44609366Y-25133663D01*
X44609369Y-25133664D01*
X44614592Y-25135063D01*
X44619979Y-25135534D01*
X44619983Y-25135535D01*
X44844605Y-25155187D01*
X44850000Y-25155659D01*
X44855395Y-25155187D01*
X45080017Y-25135535D01*
X45080021Y-25135534D01*
X45085408Y-25135063D01*
X45090631Y-25133664D01*
X45090634Y-25133663D01*
X45239133Y-25093873D01*
X45313663Y-25073903D01*
X45318567Y-25071616D01*
X45318573Y-25071614D01*
X45522918Y-24976325D01*
X45527829Y-24974035D01*
X45532268Y-24970927D01*
X45716966Y-24841601D01*
X45716970Y-24841597D01*
X45721401Y-24838495D01*
X45888495Y-24671401D01*
X45891597Y-24666970D01*
X45891601Y-24666966D01*
X46020927Y-24482268D01*
X46020928Y-24482266D01*
X46024035Y-24477829D01*
X46077212Y-24363791D01*
X46121614Y-24268573D01*
X46121616Y-24268567D01*
X46123903Y-24263663D01*
X46185063Y-24035408D01*
X46189943Y-23979637D01*
X46200264Y-23861665D01*
X46200264Y-23861662D01*
X46200500Y-23858966D01*
X46200500Y-22741034D01*
X46185063Y-22564592D01*
X46182987Y-22556842D01*
X46125305Y-22341570D01*
X46123903Y-22336337D01*
X46121616Y-22331433D01*
X46121614Y-22331427D01*
X46026325Y-22127082D01*
X46024035Y-22122171D01*
X45903264Y-21949691D01*
X45891601Y-21933034D01*
X45891597Y-21933030D01*
X45888495Y-21928599D01*
X45721401Y-21761505D01*
X45670802Y-21726075D01*
X45627177Y-21671498D01*
X45619985Y-21601999D01*
X45651507Y-21539645D01*
X45711737Y-21504231D01*
X45741926Y-21500500D01*
X51626000Y-21500500D01*
X51693039Y-21520185D01*
X51738794Y-21572989D01*
X51750000Y-21624500D01*
X51750000Y-25000000D01*
X51757807Y-25008757D01*
X64677255Y-39500153D01*
X64707175Y-39563292D01*
X64708226Y-39593477D01*
X64694532Y-39750000D01*
X64695004Y-39755395D01*
X64710542Y-39932993D01*
X64714365Y-39976692D01*
X64773261Y-40196496D01*
X64775548Y-40201400D01*
X64775550Y-40201406D01*
X64859652Y-40381761D01*
X64869432Y-40402734D01*
X64877577Y-40414366D01*
X64900000Y-40485487D01*
X64900000Y-63171018D01*
X64880315Y-63238057D01*
X64827511Y-63283812D01*
X64808094Y-63290793D01*
X64756362Y-63304655D01*
X64676337Y-63326097D01*
X64671433Y-63328384D01*
X64671427Y-63328386D01*
X64505880Y-63405583D01*
X64462171Y-63425965D01*
X64457734Y-63429072D01*
X64457732Y-63429073D01*
X64273034Y-63558399D01*
X64273033Y-63558400D01*
X64268599Y-63561505D01*
X64101505Y-63728599D01*
X64098403Y-63733030D01*
X64098399Y-63733034D01*
X63971575Y-63914159D01*
X63916998Y-63957784D01*
X63847500Y-63964978D01*
X63785145Y-63933455D01*
X63768425Y-63914159D01*
X63641601Y-63733034D01*
X63641597Y-63733030D01*
X63638495Y-63728599D01*
X63471401Y-63561505D01*
X63277830Y-63425965D01*
X63063663Y-63326097D01*
X62979863Y-63303643D01*
X62840634Y-63266337D01*
X62840631Y-63266336D01*
X62835408Y-63264937D01*
X62830021Y-63264466D01*
X62830017Y-63264465D01*
X62605395Y-63244813D01*
X62600000Y-63244341D01*
X62594605Y-63244813D01*
X62369983Y-63264465D01*
X62369979Y-63264466D01*
X62364592Y-63264937D01*
X62359369Y-63266336D01*
X62359366Y-63266337D01*
X62220137Y-63303643D01*
X62136337Y-63326097D01*
X62131433Y-63328384D01*
X62131427Y-63328386D01*
X61965880Y-63405583D01*
X61922171Y-63425965D01*
X61917734Y-63429072D01*
X61917732Y-63429073D01*
X61733034Y-63558399D01*
X61733033Y-63558400D01*
X61728599Y-63561505D01*
X61561505Y-63728599D01*
X61558403Y-63733030D01*
X61558399Y-63733034D01*
X61431575Y-63914159D01*
X61376998Y-63957784D01*
X61307500Y-63964978D01*
X61245145Y-63933455D01*
X61228425Y-63914159D01*
X61101601Y-63733034D01*
X61101597Y-63733030D01*
X61098495Y-63728599D01*
X60931401Y-63561505D01*
X60737830Y-63425965D01*
X60523663Y-63326097D01*
X60439863Y-63303643D01*
X60300634Y-63266337D01*
X60300631Y-63266336D01*
X60295408Y-63264937D01*
X60290021Y-63264466D01*
X60290017Y-63264465D01*
X60065395Y-63244813D01*
X60060000Y-63244341D01*
X60054605Y-63244813D01*
X59829983Y-63264465D01*
X59829979Y-63264466D01*
X59824592Y-63264937D01*
X59819369Y-63266336D01*
X59819366Y-63266337D01*
X59680137Y-63303643D01*
X59596337Y-63326097D01*
X59591433Y-63328384D01*
X59591427Y-63328386D01*
X59425880Y-63405583D01*
X59382171Y-63425965D01*
X59377734Y-63429072D01*
X59377732Y-63429073D01*
X59193034Y-63558399D01*
X59193033Y-63558400D01*
X59188599Y-63561505D01*
X59021505Y-63728599D01*
X59018403Y-63733030D01*
X59018399Y-63733034D01*
X58891575Y-63914159D01*
X58836998Y-63957784D01*
X58767500Y-63964978D01*
X58705145Y-63933455D01*
X58688425Y-63914159D01*
X58561601Y-63733034D01*
X58561597Y-63733030D01*
X58558495Y-63728599D01*
X58391401Y-63561505D01*
X58197830Y-63425965D01*
X57983663Y-63326097D01*
X57899863Y-63303643D01*
X57760634Y-63266337D01*
X57760631Y-63266336D01*
X57755408Y-63264937D01*
X57750021Y-63264466D01*
X57750017Y-63264465D01*
X57525395Y-63244813D01*
X57520000Y-63244341D01*
X57514605Y-63244813D01*
X57289983Y-63264465D01*
X57289979Y-63264466D01*
X57284592Y-63264937D01*
X57279369Y-63266336D01*
X57279366Y-63266337D01*
X57140137Y-63303643D01*
X57056337Y-63326097D01*
X57051433Y-63328384D01*
X57051427Y-63328386D01*
X56885880Y-63405583D01*
X56842171Y-63425965D01*
X56837734Y-63429072D01*
X56837732Y-63429073D01*
X56653034Y-63558399D01*
X56653033Y-63558400D01*
X56648599Y-63561505D01*
X56481505Y-63728599D01*
X56478403Y-63733030D01*
X56478399Y-63733034D01*
X56351575Y-63914159D01*
X56296998Y-63957784D01*
X56227500Y-63964978D01*
X56165145Y-63933455D01*
X56148425Y-63914159D01*
X56021601Y-63733034D01*
X56021597Y-63733030D01*
X56018495Y-63728599D01*
X55851401Y-63561505D01*
X55657830Y-63425965D01*
X55443663Y-63326097D01*
X55359863Y-63303643D01*
X55220634Y-63266337D01*
X55220631Y-63266336D01*
X55215408Y-63264937D01*
X55210021Y-63264466D01*
X55210017Y-63264465D01*
X54985395Y-63244813D01*
X54980000Y-63244341D01*
X54974605Y-63244813D01*
X54749983Y-63264465D01*
X54749979Y-63264466D01*
X54744592Y-63264937D01*
X54739369Y-63266336D01*
X54739366Y-63266337D01*
X54600137Y-63303643D01*
X54516337Y-63326097D01*
X54511433Y-63328384D01*
X54511427Y-63328386D01*
X54345880Y-63405583D01*
X54302171Y-63425965D01*
X54297734Y-63429072D01*
X54297732Y-63429073D01*
X54113034Y-63558399D01*
X54113033Y-63558400D01*
X54108599Y-63561505D01*
X53941505Y-63728599D01*
X53938403Y-63733030D01*
X53938399Y-63733034D01*
X53811575Y-63914159D01*
X53756998Y-63957784D01*
X53687500Y-63964978D01*
X53625145Y-63933455D01*
X53608425Y-63914159D01*
X53481601Y-63733034D01*
X53481597Y-63733030D01*
X53478495Y-63728599D01*
X53311401Y-63561505D01*
X53117830Y-63425965D01*
X52903663Y-63326097D01*
X52819863Y-63303643D01*
X52680634Y-63266337D01*
X52680631Y-63266336D01*
X52675408Y-63264937D01*
X52670021Y-63264466D01*
X52670017Y-63264465D01*
X52445395Y-63244813D01*
X52440000Y-63244341D01*
X52434605Y-63244813D01*
X52209983Y-63264465D01*
X52209979Y-63264466D01*
X52204592Y-63264937D01*
X52199369Y-63266336D01*
X52199366Y-63266337D01*
X52060137Y-63303643D01*
X51976337Y-63326097D01*
X51971433Y-63328384D01*
X51971427Y-63328386D01*
X51805880Y-63405583D01*
X51762171Y-63425965D01*
X51757734Y-63429072D01*
X51757732Y-63429073D01*
X51573034Y-63558399D01*
X51573033Y-63558400D01*
X51568599Y-63561505D01*
X51401505Y-63728599D01*
X51398403Y-63733030D01*
X51398399Y-63733034D01*
X51271575Y-63914159D01*
X51265965Y-63922171D01*
X51263675Y-63927082D01*
X51168386Y-64131427D01*
X51168384Y-64131433D01*
X51166097Y-64136337D01*
X51164695Y-64141570D01*
X51111098Y-64341600D01*
X51104937Y-64364592D01*
X51104466Y-64369979D01*
X51104465Y-64369983D01*
X51089817Y-64537406D01*
X51084341Y-64600000D01*
X51084813Y-64605395D01*
X51099246Y-64770358D01*
X51104937Y-64835408D01*
X51106336Y-64840631D01*
X51106337Y-64840634D01*
X51133631Y-64942496D01*
X51166097Y-65063663D01*
X51168384Y-65068567D01*
X51168386Y-65068573D01*
X51246004Y-65235022D01*
X51265965Y-65277829D01*
X51269072Y-65282266D01*
X51269073Y-65282268D01*
X51398399Y-65466966D01*
X51398403Y-65466970D01*
X51401505Y-65471401D01*
X51568599Y-65638495D01*
X51762170Y-65774035D01*
X51976337Y-65873903D01*
X52031203Y-65888604D01*
X52199366Y-65933663D01*
X52199369Y-65933664D01*
X52204592Y-65935063D01*
X52209979Y-65935534D01*
X52209983Y-65935535D01*
X52434605Y-65955187D01*
X52440000Y-65955659D01*
X52445395Y-65955187D01*
X52670017Y-65935535D01*
X52670021Y-65935534D01*
X52675408Y-65935063D01*
X52680631Y-65933664D01*
X52680634Y-65933663D01*
X52848797Y-65888604D01*
X52903663Y-65873903D01*
X53117830Y-65774035D01*
X53311401Y-65638495D01*
X53478495Y-65471401D01*
X53481597Y-65466970D01*
X53481601Y-65466966D01*
X53608425Y-65285841D01*
X53663002Y-65242216D01*
X53732500Y-65235022D01*
X53794855Y-65266545D01*
X53811575Y-65285841D01*
X53938399Y-65466966D01*
X53938403Y-65466970D01*
X53941505Y-65471401D01*
X54108599Y-65638495D01*
X54302170Y-65774035D01*
X54516337Y-65873903D01*
X54571203Y-65888604D01*
X54739366Y-65933663D01*
X54739369Y-65933664D01*
X54744592Y-65935063D01*
X54749979Y-65935534D01*
X54749983Y-65935535D01*
X54974605Y-65955187D01*
X54980000Y-65955659D01*
X54985395Y-65955187D01*
X55210017Y-65935535D01*
X55210021Y-65935534D01*
X55215408Y-65935063D01*
X55220631Y-65933664D01*
X55220634Y-65933663D01*
X55388797Y-65888604D01*
X55443663Y-65873903D01*
X55657830Y-65774035D01*
X55851401Y-65638495D01*
X56018495Y-65471401D01*
X56021597Y-65466970D01*
X56021601Y-65466966D01*
X56148425Y-65285841D01*
X56203002Y-65242216D01*
X56272500Y-65235022D01*
X56334855Y-65266545D01*
X56351575Y-65285841D01*
X56478399Y-65466966D01*
X56478403Y-65466970D01*
X56481505Y-65471401D01*
X56648599Y-65638495D01*
X56842170Y-65774035D01*
X57056337Y-65873903D01*
X57111203Y-65888604D01*
X57279366Y-65933663D01*
X57279369Y-65933664D01*
X57284592Y-65935063D01*
X57289979Y-65935534D01*
X57289983Y-65935535D01*
X57514605Y-65955187D01*
X57520000Y-65955659D01*
X57525395Y-65955187D01*
X57750017Y-65935535D01*
X57750021Y-65935534D01*
X57755408Y-65935063D01*
X57760631Y-65933664D01*
X57760634Y-65933663D01*
X57928797Y-65888604D01*
X57983663Y-65873903D01*
X58197830Y-65774035D01*
X58391401Y-65638495D01*
X58558495Y-65471401D01*
X58561597Y-65466970D01*
X58561601Y-65466966D01*
X58688425Y-65285841D01*
X58743002Y-65242216D01*
X58812500Y-65235022D01*
X58874855Y-65266545D01*
X58891575Y-65285841D01*
X59018399Y-65466966D01*
X59018403Y-65466970D01*
X59021505Y-65471401D01*
X59188599Y-65638495D01*
X59382170Y-65774035D01*
X59596337Y-65873903D01*
X59651203Y-65888604D01*
X59819366Y-65933663D01*
X59819369Y-65933664D01*
X59824592Y-65935063D01*
X59829979Y-65935534D01*
X59829983Y-65935535D01*
X60054605Y-65955187D01*
X60060000Y-65955659D01*
X60065395Y-65955187D01*
X60290017Y-65935535D01*
X60290021Y-65935534D01*
X60295408Y-65935063D01*
X60300631Y-65933664D01*
X60300634Y-65933663D01*
X60468797Y-65888604D01*
X60523663Y-65873903D01*
X60737830Y-65774035D01*
X60931401Y-65638495D01*
X61098495Y-65471401D01*
X61101597Y-65466970D01*
X61101601Y-65466966D01*
X61228425Y-65285841D01*
X61283002Y-65242216D01*
X61352500Y-65235022D01*
X61414855Y-65266545D01*
X61431575Y-65285841D01*
X61558399Y-65466966D01*
X61558403Y-65466970D01*
X61561505Y-65471401D01*
X61728599Y-65638495D01*
X61922170Y-65774035D01*
X62136337Y-65873903D01*
X62191203Y-65888604D01*
X62359366Y-65933663D01*
X62359369Y-65933664D01*
X62364592Y-65935063D01*
X62369979Y-65935534D01*
X62369983Y-65935535D01*
X62594605Y-65955187D01*
X62600000Y-65955659D01*
X62605395Y-65955187D01*
X62830017Y-65935535D01*
X62830021Y-65935534D01*
X62835408Y-65935063D01*
X62840631Y-65933664D01*
X62840634Y-65933663D01*
X63008797Y-65888604D01*
X63063663Y-65873903D01*
X63277830Y-65774035D01*
X63471401Y-65638495D01*
X63638495Y-65471401D01*
X63641597Y-65466970D01*
X63641601Y-65466966D01*
X63768425Y-65285841D01*
X63823002Y-65242216D01*
X63892500Y-65235022D01*
X63954855Y-65266545D01*
X63971575Y-65285841D01*
X64098399Y-65466966D01*
X64098403Y-65466970D01*
X64101505Y-65471401D01*
X64268599Y-65638495D01*
X64462170Y-65774035D01*
X64676337Y-65873903D01*
X64731203Y-65888604D01*
X64808094Y-65909207D01*
X64867754Y-65945572D01*
X64898283Y-66008419D01*
X64900000Y-66028982D01*
X64900000Y-80375500D01*
X64880315Y-80442539D01*
X64827511Y-80488294D01*
X64776000Y-80499500D01*
X25048587Y-80499500D01*
X25029511Y-80498024D01*
X25014907Y-80495750D01*
X25014905Y-80495750D01*
X25006177Y-80494391D01*
X24986037Y-80497024D01*
X24964560Y-80497952D01*
X24613249Y-80482614D01*
X24602473Y-80481671D01*
X24224042Y-80431849D01*
X24213389Y-80429971D01*
X23840727Y-80347354D01*
X23830278Y-80344554D01*
X23466245Y-80229775D01*
X23456079Y-80226075D01*
X23244712Y-80138525D01*
X23103421Y-80080000D01*
X23093630Y-80075434D01*
X22755046Y-79899178D01*
X22745700Y-79893782D01*
X22423744Y-79688674D01*
X22414915Y-79682493D01*
X22112060Y-79450104D01*
X22103794Y-79443167D01*
X21822341Y-79185263D01*
X21814737Y-79177659D01*
X21556833Y-78896206D01*
X21549896Y-78887940D01*
X21317507Y-78585085D01*
X21311326Y-78576256D01*
X21106218Y-78254300D01*
X21100822Y-78244954D01*
X20924566Y-77906370D01*
X20919997Y-77896572D01*
X20879358Y-77798459D01*
X20813158Y-77638639D01*
X20773925Y-77543921D01*
X20770225Y-77533755D01*
X20655446Y-77169722D01*
X20652646Y-77159273D01*
X20570029Y-76786611D01*
X20568151Y-76775958D01*
X20518329Y-76397527D01*
X20517386Y-76386751D01*
X20506272Y-76132200D01*
X22898747Y-76132200D01*
X22936129Y-76416149D01*
X23011702Y-76692398D01*
X23013358Y-76696281D01*
X23013360Y-76696286D01*
X23049635Y-76781330D01*
X23124068Y-76955835D01*
X23126237Y-76959460D01*
X23126238Y-76959461D01*
X23248985Y-77164556D01*
X23271146Y-77201585D01*
X23450215Y-77425100D01*
X23564713Y-77533755D01*
X23654897Y-77619337D01*
X23654902Y-77619341D01*
X23657962Y-77622245D01*
X23661388Y-77624707D01*
X23661393Y-77624711D01*
X23791669Y-77718323D01*
X23890543Y-77789371D01*
X23915963Y-77802830D01*
X24139928Y-77921414D01*
X24139931Y-77921416D01*
X24143653Y-77923386D01*
X24278132Y-77972598D01*
X24408655Y-78020363D01*
X24408659Y-78020364D01*
X24412610Y-78021810D01*
X24416724Y-78022707D01*
X24688316Y-78081924D01*
X24688320Y-78081925D01*
X24692436Y-78082822D01*
X24696640Y-78083153D01*
X24696641Y-78083153D01*
X24721037Y-78085073D01*
X24917053Y-78100500D01*
X25071992Y-78100500D01*
X25244449Y-78088743D01*
X25281528Y-78086215D01*
X25281529Y-78086215D01*
X25285737Y-78085928D01*
X25300736Y-78082822D01*
X25351913Y-78072224D01*
X25566186Y-78027850D01*
X25570154Y-78026445D01*
X25570157Y-78026444D01*
X25670428Y-77990936D01*
X25836158Y-77932248D01*
X25977122Y-77859491D01*
X26086902Y-77802830D01*
X26086906Y-77802827D01*
X26090658Y-77800891D01*
X26094114Y-77798462D01*
X26094119Y-77798459D01*
X26321519Y-77638639D01*
X26321522Y-77638636D01*
X26324976Y-77636209D01*
X26534776Y-77441251D01*
X26716177Y-77219623D01*
X26865820Y-76975427D01*
X26874421Y-76955835D01*
X26979241Y-76717047D01*
X26980938Y-76713182D01*
X27036082Y-76519597D01*
X27058245Y-76441794D01*
X27058245Y-76441793D01*
X27059400Y-76437739D01*
X27099754Y-76154196D01*
X27101253Y-75867800D01*
X27063871Y-75583851D01*
X26988298Y-75307602D01*
X26981165Y-75290877D01*
X26877589Y-75048050D01*
X26875932Y-75044165D01*
X26866520Y-75028438D01*
X26731021Y-74802035D01*
X26731018Y-74802030D01*
X26728854Y-74798415D01*
X26549785Y-74574900D01*
X26430897Y-74462080D01*
X26345103Y-74380663D01*
X26345098Y-74380659D01*
X26342038Y-74377755D01*
X26338612Y-74375293D01*
X26338607Y-74375289D01*
X26208331Y-74281677D01*
X26109457Y-74210629D01*
X26036785Y-74172151D01*
X25860072Y-74078586D01*
X25860069Y-74078584D01*
X25856347Y-74076614D01*
X25721869Y-74027402D01*
X25591345Y-73979637D01*
X25591341Y-73979636D01*
X25587390Y-73978190D01*
X25555771Y-73971296D01*
X25311684Y-73918076D01*
X25311680Y-73918075D01*
X25307564Y-73917178D01*
X25303360Y-73916847D01*
X25303359Y-73916847D01*
X25264452Y-73913785D01*
X25082947Y-73899500D01*
X24928008Y-73899500D01*
X24755551Y-73911257D01*
X24718472Y-73913785D01*
X24718471Y-73913785D01*
X24714263Y-73914072D01*
X24710135Y-73914927D01*
X24710134Y-73914927D01*
X24694928Y-73918076D01*
X24433814Y-73972150D01*
X24429846Y-73973555D01*
X24429843Y-73973556D01*
X24412671Y-73979637D01*
X24163842Y-74067752D01*
X24022878Y-74140509D01*
X23913098Y-74197170D01*
X23913094Y-74197173D01*
X23909342Y-74199109D01*
X23905886Y-74201538D01*
X23905881Y-74201541D01*
X23678481Y-74361361D01*
X23678478Y-74361364D01*
X23675024Y-74363791D01*
X23465224Y-74558749D01*
X23283823Y-74780377D01*
X23134180Y-75024573D01*
X23132485Y-75028434D01*
X23132483Y-75028438D01*
X23123874Y-75048050D01*
X23019062Y-75286818D01*
X22940600Y-75562261D01*
X22900246Y-75845804D01*
X22898747Y-76132200D01*
X20506272Y-76132200D01*
X20502529Y-76046461D01*
X20504129Y-76020484D01*
X20504702Y-76017079D01*
X20504703Y-76017068D01*
X20505496Y-76012354D01*
X20505647Y-76000000D01*
X20504763Y-75993823D01*
X20501752Y-75972802D01*
X20500500Y-75955223D01*
X20500500Y-72800000D01*
X55594540Y-72800000D01*
X55614326Y-72988256D01*
X55672821Y-73168284D01*
X55767467Y-73332216D01*
X55894129Y-73472888D01*
X56047270Y-73584151D01*
X56220197Y-73661144D01*
X56288637Y-73675691D01*
X56398991Y-73699148D01*
X56398996Y-73699148D01*
X56405354Y-73700500D01*
X56594646Y-73700500D01*
X56601004Y-73699148D01*
X56601009Y-73699148D01*
X56711363Y-73675691D01*
X56779803Y-73661144D01*
X56952730Y-73584151D01*
X57105871Y-73472888D01*
X57232533Y-73332216D01*
X57327179Y-73168284D01*
X57385674Y-72988256D01*
X57405460Y-72800000D01*
X57385674Y-72611744D01*
X57327179Y-72431716D01*
X57312598Y-72406460D01*
X57308868Y-72400000D01*
X60344540Y-72400000D01*
X60364326Y-72588256D01*
X60422821Y-72768284D01*
X60426068Y-72773909D01*
X60426069Y-72773910D01*
X60441132Y-72800000D01*
X60517467Y-72932216D01*
X60644129Y-73072888D01*
X60797270Y-73184151D01*
X60970197Y-73261144D01*
X61038637Y-73275691D01*
X61148991Y-73299148D01*
X61148996Y-73299148D01*
X61155354Y-73300500D01*
X61344646Y-73300500D01*
X61351004Y-73299148D01*
X61351009Y-73299148D01*
X61461363Y-73275691D01*
X61529803Y-73261144D01*
X61702730Y-73184151D01*
X61855871Y-73072888D01*
X61982533Y-72932216D01*
X62058868Y-72800000D01*
X62073931Y-72773910D01*
X62073932Y-72773909D01*
X62077179Y-72768284D01*
X62135674Y-72588256D01*
X62155460Y-72400000D01*
X62135674Y-72211744D01*
X62077179Y-72031716D01*
X61982533Y-71867784D01*
X61855871Y-71727112D01*
X61702730Y-71615849D01*
X61529803Y-71538856D01*
X61461363Y-71524309D01*
X61351009Y-71500852D01*
X61351004Y-71500852D01*
X61344646Y-71499500D01*
X61155354Y-71499500D01*
X61148996Y-71500852D01*
X61148991Y-71500852D01*
X61038637Y-71524309D01*
X60970197Y-71538856D01*
X60797270Y-71615849D01*
X60644129Y-71727112D01*
X60517467Y-71867784D01*
X60422821Y-72031716D01*
X60364326Y-72211744D01*
X60344540Y-72400000D01*
X57308868Y-72400000D01*
X57235781Y-72273410D01*
X57232533Y-72267784D01*
X57105871Y-72127112D01*
X56952730Y-72015849D01*
X56779803Y-71938856D01*
X56711363Y-71924309D01*
X56601009Y-71900852D01*
X56601004Y-71900852D01*
X56594646Y-71899500D01*
X56405354Y-71899500D01*
X56398996Y-71900852D01*
X56398991Y-71900852D01*
X56288637Y-71924309D01*
X56220197Y-71938856D01*
X56047270Y-72015849D01*
X55894129Y-72127112D01*
X55767467Y-72267784D01*
X55764219Y-72273410D01*
X55687403Y-72406460D01*
X55672821Y-72431716D01*
X55614326Y-72611744D01*
X55594540Y-72800000D01*
X20500500Y-72800000D01*
X20500500Y-67750000D01*
X39194723Y-67750000D01*
X39213793Y-67967977D01*
X39270425Y-68179330D01*
X39362898Y-68377638D01*
X39366005Y-68382075D01*
X39366006Y-68382077D01*
X39485296Y-68552442D01*
X39485300Y-68552446D01*
X39488402Y-68556877D01*
X39643123Y-68711598D01*
X39822361Y-68837102D01*
X40020670Y-68929575D01*
X40025893Y-68930974D01*
X40025897Y-68930976D01*
X40192901Y-68975724D01*
X40232023Y-68986207D01*
X40450000Y-69005277D01*
X40667977Y-68986207D01*
X40707099Y-68975724D01*
X40874103Y-68930976D01*
X40874107Y-68930974D01*
X40879330Y-68929575D01*
X41077639Y-68837102D01*
X41256877Y-68711598D01*
X41411598Y-68556877D01*
X41414700Y-68552446D01*
X41414704Y-68552442D01*
X41533994Y-68382077D01*
X41533995Y-68382075D01*
X41537102Y-68377638D01*
X41629575Y-68179330D01*
X41686207Y-67967977D01*
X41705277Y-67750000D01*
X44074723Y-67750000D01*
X44093793Y-67967977D01*
X44150425Y-68179330D01*
X44242898Y-68377638D01*
X44246005Y-68382075D01*
X44246006Y-68382077D01*
X44365296Y-68552442D01*
X44365300Y-68552446D01*
X44368402Y-68556877D01*
X44523123Y-68711598D01*
X44702361Y-68837102D01*
X44900670Y-68929575D01*
X44905893Y-68930974D01*
X44905897Y-68930976D01*
X45072901Y-68975724D01*
X45112023Y-68986207D01*
X45330000Y-69005277D01*
X45547977Y-68986207D01*
X45587099Y-68975724D01*
X45754103Y-68930976D01*
X45754107Y-68930974D01*
X45759330Y-68929575D01*
X45957639Y-68837102D01*
X46136877Y-68711598D01*
X46291598Y-68556877D01*
X46294700Y-68552446D01*
X46294704Y-68552442D01*
X46413994Y-68382077D01*
X46413995Y-68382075D01*
X46417102Y-68377638D01*
X46509575Y-68179330D01*
X46566207Y-67967977D01*
X46585277Y-67750000D01*
X46566207Y-67532023D01*
X46509575Y-67320670D01*
X46417102Y-67122362D01*
X46411179Y-67113903D01*
X46294704Y-66947558D01*
X46294700Y-66947554D01*
X46291598Y-66943123D01*
X46136877Y-66788402D01*
X45957639Y-66662898D01*
X45759330Y-66570425D01*
X45754107Y-66569026D01*
X45754103Y-66569024D01*
X45579606Y-66522268D01*
X45547977Y-66513793D01*
X45330000Y-66494723D01*
X45112023Y-66513793D01*
X45080394Y-66522268D01*
X44905897Y-66569024D01*
X44905893Y-66569026D01*
X44900670Y-66570425D01*
X44702362Y-66662898D01*
X44697925Y-66666005D01*
X44697923Y-66666006D01*
X44527558Y-66785296D01*
X44527557Y-66785297D01*
X44523123Y-66788402D01*
X44368402Y-66943123D01*
X44365300Y-66947554D01*
X44365296Y-66947558D01*
X44248821Y-67113903D01*
X44242898Y-67122362D01*
X44150425Y-67320670D01*
X44093793Y-67532023D01*
X44074723Y-67750000D01*
X41705277Y-67750000D01*
X41686207Y-67532023D01*
X41629575Y-67320670D01*
X41537102Y-67122362D01*
X41531179Y-67113903D01*
X41414704Y-66947558D01*
X41414700Y-66947554D01*
X41411598Y-66943123D01*
X41256877Y-66788402D01*
X41077639Y-66662898D01*
X40879330Y-66570425D01*
X40874107Y-66569026D01*
X40874103Y-66569024D01*
X40699606Y-66522268D01*
X40667977Y-66513793D01*
X40450000Y-66494723D01*
X40232023Y-66513793D01*
X40200394Y-66522268D01*
X40025897Y-66569024D01*
X40025893Y-66569026D01*
X40020670Y-66570425D01*
X39822362Y-66662898D01*
X39817925Y-66666005D01*
X39817923Y-66666006D01*
X39647558Y-66785296D01*
X39647557Y-66785297D01*
X39643123Y-66788402D01*
X39488402Y-66943123D01*
X39485300Y-66947554D01*
X39485296Y-66947558D01*
X39368821Y-67113903D01*
X39362898Y-67122362D01*
X39270425Y-67320670D01*
X39213793Y-67532023D01*
X39194723Y-67750000D01*
X20500500Y-67750000D01*
X20500500Y-65840000D01*
X24244341Y-65840000D01*
X24244813Y-65845395D01*
X24256225Y-65975826D01*
X24264937Y-66075408D01*
X24326097Y-66303663D01*
X24328384Y-66308567D01*
X24328386Y-66308573D01*
X24407562Y-66478363D01*
X24425965Y-66517829D01*
X24429072Y-66522266D01*
X24429073Y-66522268D01*
X24558399Y-66706966D01*
X24558403Y-66706970D01*
X24561505Y-66711401D01*
X24728599Y-66878495D01*
X24922170Y-67014035D01*
X25136337Y-67113903D01*
X25167907Y-67122362D01*
X25359366Y-67173663D01*
X25359369Y-67173664D01*
X25364592Y-67175063D01*
X25369979Y-67175534D01*
X25369983Y-67175535D01*
X25594605Y-67195187D01*
X25600000Y-67195659D01*
X25605395Y-67195187D01*
X25830017Y-67175535D01*
X25830021Y-67175534D01*
X25835408Y-67175063D01*
X25840631Y-67173664D01*
X25840634Y-67173663D01*
X26032093Y-67122362D01*
X26063663Y-67113903D01*
X26277830Y-67014035D01*
X26471401Y-66878495D01*
X26638495Y-66711401D01*
X26641597Y-66706970D01*
X26641601Y-66706966D01*
X26770927Y-66522268D01*
X26770928Y-66522266D01*
X26774035Y-66517829D01*
X26792438Y-66478363D01*
X26871614Y-66308573D01*
X26871616Y-66308567D01*
X26873903Y-66303663D01*
X26935063Y-66075408D01*
X26943776Y-65975826D01*
X26955187Y-65845395D01*
X26955659Y-65840000D01*
X26943730Y-65703653D01*
X26940649Y-65668440D01*
X27594770Y-65668440D01*
X27595141Y-65674102D01*
X27595141Y-65674106D01*
X27600974Y-65763098D01*
X27609200Y-65888604D01*
X27663511Y-66102452D01*
X27755883Y-66302821D01*
X27883222Y-66483002D01*
X27887293Y-66486968D01*
X27887294Y-66486969D01*
X28037190Y-66632993D01*
X28037195Y-66632997D01*
X28041264Y-66636961D01*
X28045987Y-66640117D01*
X28045991Y-66640120D01*
X28130185Y-66696376D01*
X28224717Y-66759540D01*
X28427436Y-66846635D01*
X28532913Y-66870502D01*
X28637085Y-66894074D01*
X28637087Y-66894074D01*
X28642632Y-66895329D01*
X28780457Y-66900744D01*
X28857418Y-66903768D01*
X28857420Y-66903768D01*
X28863098Y-66903991D01*
X28868718Y-66903176D01*
X28868721Y-66903176D01*
X29075826Y-66873147D01*
X29075829Y-66873146D01*
X29081452Y-66872331D01*
X29188477Y-66836001D01*
X29284989Y-66803240D01*
X29284992Y-66803239D01*
X29290379Y-66801410D01*
X29375576Y-66753698D01*
X29477931Y-66696376D01*
X29477932Y-66696375D01*
X29482884Y-66693602D01*
X29516065Y-66666006D01*
X29648151Y-66556150D01*
X29652518Y-66552518D01*
X29710334Y-66483002D01*
X29789971Y-66387250D01*
X29789972Y-66387249D01*
X29793602Y-66382884D01*
X29901410Y-66190379D01*
X29972331Y-65981452D01*
X29977534Y-65945572D01*
X29993623Y-65834605D01*
X30003991Y-65763098D01*
X30005643Y-65700000D01*
X29985454Y-65480289D01*
X29925565Y-65267936D01*
X29827980Y-65070053D01*
X29695967Y-64893267D01*
X29533949Y-64743499D01*
X29366025Y-64637547D01*
X29352159Y-64628798D01*
X29352157Y-64628797D01*
X29347350Y-64625764D01*
X29142421Y-64544006D01*
X29136840Y-64542896D01*
X29136837Y-64542895D01*
X29034222Y-64522484D01*
X28926024Y-64500962D01*
X28920337Y-64500888D01*
X28920332Y-64500887D01*
X28711095Y-64498148D01*
X28711090Y-64498148D01*
X28705406Y-64498074D01*
X28699802Y-64499037D01*
X28699801Y-64499037D01*
X28493560Y-64534475D01*
X28493557Y-64534476D01*
X28487957Y-64535438D01*
X28280957Y-64611804D01*
X28091341Y-64724614D01*
X27925457Y-64870090D01*
X27788863Y-65043360D01*
X27786216Y-65048391D01*
X27728689Y-65157732D01*
X27686131Y-65238620D01*
X27684443Y-65244055D01*
X27684443Y-65244056D01*
X27644893Y-65371427D01*
X27620703Y-65449333D01*
X27620035Y-65454978D01*
X27620034Y-65454982D01*
X27617638Y-65475230D01*
X27594770Y-65668440D01*
X26940649Y-65668440D01*
X26935535Y-65609983D01*
X26935534Y-65609979D01*
X26935063Y-65604592D01*
X26873903Y-65376337D01*
X26871616Y-65371433D01*
X26871614Y-65371427D01*
X26776325Y-65167082D01*
X26774035Y-65162171D01*
X26709534Y-65070053D01*
X26641601Y-64973034D01*
X26641597Y-64973030D01*
X26638495Y-64968599D01*
X26471401Y-64801505D01*
X26285842Y-64671575D01*
X26242218Y-64616998D01*
X26235025Y-64547499D01*
X26266547Y-64485145D01*
X26285842Y-64468425D01*
X26310921Y-64450864D01*
X26471401Y-64338495D01*
X26638495Y-64171401D01*
X26641597Y-64166970D01*
X26641601Y-64166966D01*
X26770927Y-63982268D01*
X26770928Y-63982266D01*
X26774035Y-63977829D01*
X26792819Y-63937547D01*
X26871614Y-63768573D01*
X26871616Y-63768567D01*
X26873903Y-63763663D01*
X26907708Y-63637500D01*
X35664532Y-63637500D01*
X35684365Y-63864192D01*
X35743261Y-64083996D01*
X35745548Y-64088900D01*
X35745550Y-64088906D01*
X35784019Y-64171401D01*
X35839432Y-64290234D01*
X35842539Y-64294671D01*
X35842540Y-64294673D01*
X35966847Y-64472204D01*
X35966851Y-64472208D01*
X35969953Y-64476639D01*
X36130861Y-64637547D01*
X36135292Y-64640649D01*
X36135296Y-64640653D01*
X36287690Y-64747359D01*
X36317266Y-64768068D01*
X36322177Y-64770358D01*
X36518594Y-64861950D01*
X36518600Y-64861952D01*
X36523504Y-64864239D01*
X36743308Y-64923135D01*
X36748693Y-64923606D01*
X36748698Y-64923607D01*
X36964605Y-64942496D01*
X36970000Y-64942968D01*
X36975395Y-64942496D01*
X37191302Y-64923607D01*
X37191307Y-64923606D01*
X37196692Y-64923135D01*
X37416496Y-64864239D01*
X37421400Y-64861952D01*
X37421406Y-64861950D01*
X37617823Y-64770358D01*
X37622734Y-64768068D01*
X37652310Y-64747359D01*
X37804704Y-64640653D01*
X37804708Y-64640649D01*
X37809139Y-64637547D01*
X37970047Y-64476639D01*
X37973149Y-64472208D01*
X37973153Y-64472204D01*
X38097460Y-64294673D01*
X38097461Y-64294671D01*
X38100568Y-64290234D01*
X38155981Y-64171401D01*
X38194450Y-64088906D01*
X38194452Y-64088900D01*
X38196739Y-64083996D01*
X38255635Y-63864192D01*
X38275468Y-63637500D01*
X38270903Y-63585323D01*
X38256107Y-63416198D01*
X38256106Y-63416193D01*
X38255635Y-63410808D01*
X38196739Y-63191004D01*
X38194452Y-63186100D01*
X38194450Y-63186094D01*
X38102858Y-62989677D01*
X38100568Y-62984766D01*
X38071250Y-62942895D01*
X38067472Y-62937500D01*
X38894532Y-62937500D01*
X38914365Y-63164192D01*
X38973261Y-63383996D01*
X38975548Y-63388900D01*
X38975550Y-63388906D01*
X39041352Y-63530017D01*
X39069432Y-63590234D01*
X39072539Y-63594671D01*
X39072540Y-63594673D01*
X39196847Y-63772204D01*
X39196851Y-63772208D01*
X39199953Y-63776639D01*
X39360861Y-63937547D01*
X39365292Y-63940649D01*
X39365296Y-63940653D01*
X39542827Y-64064960D01*
X39547266Y-64068068D01*
X39552177Y-64070358D01*
X39748594Y-64161950D01*
X39748600Y-64161952D01*
X39753504Y-64164239D01*
X39973308Y-64223135D01*
X39978693Y-64223606D01*
X39978698Y-64223607D01*
X40194605Y-64242496D01*
X40200000Y-64242968D01*
X40205395Y-64242496D01*
X40421302Y-64223607D01*
X40421307Y-64223606D01*
X40426692Y-64223135D01*
X40646496Y-64164239D01*
X40651400Y-64161952D01*
X40651406Y-64161950D01*
X40847823Y-64070358D01*
X40852734Y-64068068D01*
X40857173Y-64064960D01*
X41034704Y-63940653D01*
X41034708Y-63940649D01*
X41039139Y-63937547D01*
X41200047Y-63776639D01*
X41203149Y-63772208D01*
X41203153Y-63772204D01*
X41327460Y-63594673D01*
X41327461Y-63594671D01*
X41330568Y-63590234D01*
X41358648Y-63530017D01*
X41424450Y-63388906D01*
X41424452Y-63388900D01*
X41426739Y-63383996D01*
X41485635Y-63164192D01*
X41505468Y-62937500D01*
X43894532Y-62937500D01*
X43914365Y-63164192D01*
X43973261Y-63383996D01*
X43975548Y-63388900D01*
X43975550Y-63388906D01*
X44041352Y-63530017D01*
X44069432Y-63590234D01*
X44072539Y-63594671D01*
X44072540Y-63594673D01*
X44196847Y-63772204D01*
X44196851Y-63772208D01*
X44199953Y-63776639D01*
X44360861Y-63937547D01*
X44365292Y-63940649D01*
X44365296Y-63940653D01*
X44542827Y-64064960D01*
X44547266Y-64068068D01*
X44552177Y-64070358D01*
X44748594Y-64161950D01*
X44748600Y-64161952D01*
X44753504Y-64164239D01*
X44973308Y-64223135D01*
X44978693Y-64223606D01*
X44978698Y-64223607D01*
X45194605Y-64242496D01*
X45200000Y-64242968D01*
X45205395Y-64242496D01*
X45421302Y-64223607D01*
X45421307Y-64223606D01*
X45426692Y-64223135D01*
X45646496Y-64164239D01*
X45651400Y-64161952D01*
X45651406Y-64161950D01*
X45847823Y-64070358D01*
X45852734Y-64068068D01*
X45857173Y-64064960D01*
X46034704Y-63940653D01*
X46034708Y-63940649D01*
X46039139Y-63937547D01*
X46200047Y-63776639D01*
X46203149Y-63772208D01*
X46203153Y-63772204D01*
X46327460Y-63594673D01*
X46327461Y-63594671D01*
X46330568Y-63590234D01*
X46358648Y-63530017D01*
X46424450Y-63388906D01*
X46424452Y-63388900D01*
X46426739Y-63383996D01*
X46485635Y-63164192D01*
X46505468Y-62937500D01*
X46497075Y-62841570D01*
X46486107Y-62716198D01*
X46486106Y-62716193D01*
X46485635Y-62710808D01*
X46426739Y-62491004D01*
X46424452Y-62486100D01*
X46424450Y-62486094D01*
X46332858Y-62289677D01*
X46330568Y-62284766D01*
X46314281Y-62261505D01*
X46203153Y-62102796D01*
X46203149Y-62102792D01*
X46200047Y-62098361D01*
X46039139Y-61937453D01*
X46034708Y-61934351D01*
X46034704Y-61934347D01*
X45857173Y-61810040D01*
X45857171Y-61810039D01*
X45852734Y-61806932D01*
X45769009Y-61767890D01*
X45651406Y-61713050D01*
X45651400Y-61713048D01*
X45646496Y-61710761D01*
X45426692Y-61651865D01*
X45421307Y-61651394D01*
X45421302Y-61651393D01*
X45205395Y-61632504D01*
X45200000Y-61632032D01*
X45194605Y-61632504D01*
X44978698Y-61651393D01*
X44978693Y-61651394D01*
X44973308Y-61651865D01*
X44753504Y-61710761D01*
X44748600Y-61713048D01*
X44748594Y-61713050D01*
X44630991Y-61767890D01*
X44547266Y-61806932D01*
X44542829Y-61810039D01*
X44542827Y-61810040D01*
X44365296Y-61934347D01*
X44365292Y-61934351D01*
X44360861Y-61937453D01*
X44199953Y-62098361D01*
X44196851Y-62102792D01*
X44196847Y-62102796D01*
X44085719Y-62261505D01*
X44069432Y-62284766D01*
X44067142Y-62289677D01*
X43975550Y-62486094D01*
X43975548Y-62486100D01*
X43973261Y-62491004D01*
X43914365Y-62710808D01*
X43913894Y-62716193D01*
X43913893Y-62716198D01*
X43902925Y-62841570D01*
X43894532Y-62937500D01*
X41505468Y-62937500D01*
X41497075Y-62841570D01*
X41486107Y-62716198D01*
X41486106Y-62716193D01*
X41485635Y-62710808D01*
X41426739Y-62491004D01*
X41424452Y-62486100D01*
X41424450Y-62486094D01*
X41332858Y-62289677D01*
X41330568Y-62284766D01*
X41314281Y-62261505D01*
X41203153Y-62102796D01*
X41203149Y-62102792D01*
X41200047Y-62098361D01*
X41039139Y-61937453D01*
X41034708Y-61934351D01*
X41034704Y-61934347D01*
X40857173Y-61810040D01*
X40857171Y-61810039D01*
X40852734Y-61806932D01*
X40769009Y-61767890D01*
X40651406Y-61713050D01*
X40651400Y-61713048D01*
X40646496Y-61710761D01*
X40426692Y-61651865D01*
X40421307Y-61651394D01*
X40421302Y-61651393D01*
X40205395Y-61632504D01*
X40200000Y-61632032D01*
X40194605Y-61632504D01*
X39978698Y-61651393D01*
X39978693Y-61651394D01*
X39973308Y-61651865D01*
X39753504Y-61710761D01*
X39748600Y-61713048D01*
X39748594Y-61713050D01*
X39630991Y-61767890D01*
X39547266Y-61806932D01*
X39542829Y-61810039D01*
X39542827Y-61810040D01*
X39365296Y-61934347D01*
X39365292Y-61934351D01*
X39360861Y-61937453D01*
X39199953Y-62098361D01*
X39196851Y-62102792D01*
X39196847Y-62102796D01*
X39085719Y-62261505D01*
X39069432Y-62284766D01*
X39067142Y-62289677D01*
X38975550Y-62486094D01*
X38975548Y-62486100D01*
X38973261Y-62491004D01*
X38914365Y-62710808D01*
X38913894Y-62716193D01*
X38913893Y-62716198D01*
X38902925Y-62841570D01*
X38894532Y-62937500D01*
X38067472Y-62937500D01*
X37973153Y-62802796D01*
X37973149Y-62802792D01*
X37970047Y-62798361D01*
X37809139Y-62637453D01*
X37804708Y-62634351D01*
X37804704Y-62634347D01*
X37627173Y-62510040D01*
X37627171Y-62510039D01*
X37622734Y-62506932D01*
X37578047Y-62486094D01*
X37421406Y-62413050D01*
X37421400Y-62413048D01*
X37416496Y-62410761D01*
X37196692Y-62351865D01*
X37191307Y-62351394D01*
X37191302Y-62351393D01*
X36975395Y-62332504D01*
X36970000Y-62332032D01*
X36964605Y-62332504D01*
X36748698Y-62351393D01*
X36748693Y-62351394D01*
X36743308Y-62351865D01*
X36523504Y-62410761D01*
X36518600Y-62413048D01*
X36518594Y-62413050D01*
X36361953Y-62486094D01*
X36317266Y-62506932D01*
X36312829Y-62510039D01*
X36312827Y-62510040D01*
X36135296Y-62634347D01*
X36135292Y-62634351D01*
X36130861Y-62637453D01*
X35969953Y-62798361D01*
X35966851Y-62802792D01*
X35966847Y-62802796D01*
X35868750Y-62942895D01*
X35839432Y-62984766D01*
X35837142Y-62989677D01*
X35745550Y-63186094D01*
X35745548Y-63186100D01*
X35743261Y-63191004D01*
X35684365Y-63410808D01*
X35683894Y-63416193D01*
X35683893Y-63416198D01*
X35669097Y-63585323D01*
X35664532Y-63637500D01*
X26907708Y-63637500D01*
X26933663Y-63540634D01*
X26933664Y-63540631D01*
X26935063Y-63535408D01*
X26944367Y-63429073D01*
X26955187Y-63305395D01*
X26955659Y-63300000D01*
X26943777Y-63164192D01*
X26935535Y-63069983D01*
X26935534Y-63069979D01*
X26935063Y-63064592D01*
X26873903Y-62836337D01*
X26871616Y-62831433D01*
X26871614Y-62831427D01*
X26776325Y-62627082D01*
X26774035Y-62622171D01*
X26770927Y-62617732D01*
X26641601Y-62433034D01*
X26641597Y-62433030D01*
X26638495Y-62428599D01*
X26471401Y-62261505D01*
X26277830Y-62125965D01*
X26063663Y-62026097D01*
X25979863Y-62003643D01*
X25840634Y-61966337D01*
X25840631Y-61966336D01*
X25835408Y-61964937D01*
X25830021Y-61964466D01*
X25830017Y-61964465D01*
X25605395Y-61944813D01*
X25600000Y-61944341D01*
X25594605Y-61944813D01*
X25369983Y-61964465D01*
X25369979Y-61964466D01*
X25364592Y-61964937D01*
X25359369Y-61966336D01*
X25359366Y-61966337D01*
X25220137Y-62003643D01*
X25136337Y-62026097D01*
X25131433Y-62028384D01*
X25131427Y-62028386D01*
X24971857Y-62102796D01*
X24922171Y-62125965D01*
X24917734Y-62129072D01*
X24917732Y-62129073D01*
X24733034Y-62258399D01*
X24733033Y-62258400D01*
X24728599Y-62261505D01*
X24561505Y-62428599D01*
X24558403Y-62433030D01*
X24558399Y-62433034D01*
X24429073Y-62617732D01*
X24425965Y-62622171D01*
X24423675Y-62627082D01*
X24328386Y-62831427D01*
X24328384Y-62831433D01*
X24326097Y-62836337D01*
X24264937Y-63064592D01*
X24264466Y-63069979D01*
X24264465Y-63069983D01*
X24256223Y-63164192D01*
X24244341Y-63300000D01*
X24244813Y-63305395D01*
X24255634Y-63429073D01*
X24264937Y-63535408D01*
X24266336Y-63540631D01*
X24266337Y-63540634D01*
X24292292Y-63637500D01*
X24326097Y-63763663D01*
X24328384Y-63768567D01*
X24328386Y-63768573D01*
X24407181Y-63937547D01*
X24425965Y-63977829D01*
X24429072Y-63982266D01*
X24429073Y-63982268D01*
X24558399Y-64166966D01*
X24558403Y-64166970D01*
X24561505Y-64171401D01*
X24728599Y-64338495D01*
X24829950Y-64409462D01*
X24914159Y-64468426D01*
X24957783Y-64523003D01*
X24964976Y-64592502D01*
X24933454Y-64654856D01*
X24914158Y-64671576D01*
X24733034Y-64798399D01*
X24733033Y-64798400D01*
X24728599Y-64801505D01*
X24561505Y-64968599D01*
X24558403Y-64973030D01*
X24558399Y-64973034D01*
X24490466Y-65070053D01*
X24425965Y-65162171D01*
X24423675Y-65167082D01*
X24328386Y-65371427D01*
X24328384Y-65371433D01*
X24326097Y-65376337D01*
X24264937Y-65604592D01*
X24264466Y-65609979D01*
X24264465Y-65609983D01*
X24256270Y-65703653D01*
X24244341Y-65840000D01*
X20500500Y-65840000D01*
X20500500Y-60588440D01*
X27594770Y-60588440D01*
X27595141Y-60594102D01*
X27595141Y-60594106D01*
X27600974Y-60683098D01*
X27609200Y-60808604D01*
X27663511Y-61022452D01*
X27755883Y-61222821D01*
X27883222Y-61403002D01*
X27887293Y-61406968D01*
X27887294Y-61406969D01*
X28037190Y-61552993D01*
X28037195Y-61552997D01*
X28041264Y-61556961D01*
X28045987Y-61560117D01*
X28045991Y-61560120D01*
X28130185Y-61616376D01*
X28224717Y-61679540D01*
X28427436Y-61766635D01*
X28532913Y-61790502D01*
X28637085Y-61814074D01*
X28637087Y-61814074D01*
X28642632Y-61815329D01*
X28780457Y-61820744D01*
X28857418Y-61823768D01*
X28857420Y-61823768D01*
X28863098Y-61823991D01*
X28868718Y-61823176D01*
X28868721Y-61823176D01*
X29075826Y-61793147D01*
X29075829Y-61793146D01*
X29081452Y-61792331D01*
X29188477Y-61756001D01*
X29284989Y-61723240D01*
X29284992Y-61723239D01*
X29290379Y-61721410D01*
X29482884Y-61613602D01*
X29652518Y-61472518D01*
X29710334Y-61403002D01*
X29789971Y-61307250D01*
X29789972Y-61307249D01*
X29793602Y-61302884D01*
X29901410Y-61110379D01*
X29972331Y-60901452D01*
X30003991Y-60683098D01*
X30005643Y-60620000D01*
X29985454Y-60400289D01*
X29925565Y-60187936D01*
X29827980Y-59990053D01*
X29695967Y-59813267D01*
X29533949Y-59663499D01*
X29497740Y-59640653D01*
X29352159Y-59548798D01*
X29352157Y-59548797D01*
X29347350Y-59545764D01*
X29142421Y-59464006D01*
X29136840Y-59462896D01*
X29136837Y-59462895D01*
X29034222Y-59442484D01*
X28926024Y-59420962D01*
X28920337Y-59420888D01*
X28920332Y-59420887D01*
X28711095Y-59418148D01*
X28711090Y-59418148D01*
X28705406Y-59418074D01*
X28699802Y-59419037D01*
X28699801Y-59419037D01*
X28493560Y-59454475D01*
X28493557Y-59454476D01*
X28487957Y-59455438D01*
X28280957Y-59531804D01*
X28252393Y-59548798D01*
X28103220Y-59637547D01*
X28091341Y-59644614D01*
X27925457Y-59790090D01*
X27788863Y-59963360D01*
X27686131Y-60158620D01*
X27620703Y-60369333D01*
X27620035Y-60374978D01*
X27620034Y-60374982D01*
X27617039Y-60400289D01*
X27594770Y-60588440D01*
X20500500Y-60588440D01*
X20500500Y-58637500D01*
X35664532Y-58637500D01*
X35665004Y-58642895D01*
X35677895Y-58790234D01*
X35684365Y-58864192D01*
X35743261Y-59083996D01*
X35745548Y-59088900D01*
X35745550Y-59088906D01*
X35827646Y-59264960D01*
X35839432Y-59290234D01*
X35842539Y-59294671D01*
X35842540Y-59294673D01*
X35966847Y-59472204D01*
X35966851Y-59472208D01*
X35969953Y-59476639D01*
X36130861Y-59637547D01*
X36135292Y-59640649D01*
X36135296Y-59640653D01*
X36243187Y-59716198D01*
X36317266Y-59768068D01*
X36322177Y-59770358D01*
X36518594Y-59861950D01*
X36518600Y-59861952D01*
X36523504Y-59864239D01*
X36743308Y-59923135D01*
X36748693Y-59923606D01*
X36748698Y-59923607D01*
X36964605Y-59942496D01*
X36970000Y-59942968D01*
X36975395Y-59942496D01*
X37032501Y-59937500D01*
X38894532Y-59937500D01*
X38895004Y-59942895D01*
X38913878Y-60158620D01*
X38914365Y-60164192D01*
X38973261Y-60383996D01*
X38975548Y-60388900D01*
X38975550Y-60388906D01*
X38983498Y-60405950D01*
X39069432Y-60590234D01*
X39072539Y-60594671D01*
X39072540Y-60594673D01*
X39196847Y-60772204D01*
X39196851Y-60772208D01*
X39199953Y-60776639D01*
X39360861Y-60937547D01*
X39365292Y-60940649D01*
X39365296Y-60940653D01*
X39542827Y-61064960D01*
X39547266Y-61068068D01*
X39552177Y-61070358D01*
X39748594Y-61161950D01*
X39748600Y-61161952D01*
X39753504Y-61164239D01*
X39973308Y-61223135D01*
X39978693Y-61223606D01*
X39978698Y-61223607D01*
X40194605Y-61242496D01*
X40200000Y-61242968D01*
X40205395Y-61242496D01*
X40421302Y-61223607D01*
X40421307Y-61223606D01*
X40426692Y-61223135D01*
X40646496Y-61164239D01*
X40651400Y-61161952D01*
X40651406Y-61161950D01*
X40847823Y-61070358D01*
X40852734Y-61068068D01*
X40857173Y-61064960D01*
X41034704Y-60940653D01*
X41034708Y-60940649D01*
X41039139Y-60937547D01*
X41200047Y-60776639D01*
X41203149Y-60772208D01*
X41203153Y-60772204D01*
X41327460Y-60594673D01*
X41327461Y-60594671D01*
X41330568Y-60590234D01*
X41416502Y-60405950D01*
X41424450Y-60388906D01*
X41424452Y-60388900D01*
X41426739Y-60383996D01*
X41485635Y-60164192D01*
X41486123Y-60158620D01*
X41504996Y-59942895D01*
X41505468Y-59937500D01*
X43894532Y-59937500D01*
X43895004Y-59942895D01*
X43913878Y-60158620D01*
X43914365Y-60164192D01*
X43973261Y-60383996D01*
X43975548Y-60388900D01*
X43975550Y-60388906D01*
X43983498Y-60405950D01*
X44069432Y-60590234D01*
X44072539Y-60594671D01*
X44072540Y-60594673D01*
X44196847Y-60772204D01*
X44196851Y-60772208D01*
X44199953Y-60776639D01*
X44360861Y-60937547D01*
X44365292Y-60940649D01*
X44365296Y-60940653D01*
X44542827Y-61064960D01*
X44547266Y-61068068D01*
X44552177Y-61070358D01*
X44748594Y-61161950D01*
X44748600Y-61161952D01*
X44753504Y-61164239D01*
X44973308Y-61223135D01*
X44978693Y-61223606D01*
X44978698Y-61223607D01*
X45194605Y-61242496D01*
X45200000Y-61242968D01*
X45205395Y-61242496D01*
X45421302Y-61223607D01*
X45421307Y-61223606D01*
X45426692Y-61223135D01*
X45646496Y-61164239D01*
X45651400Y-61161952D01*
X45651406Y-61161950D01*
X45847823Y-61070358D01*
X45852734Y-61068068D01*
X45857173Y-61064960D01*
X46034704Y-60940653D01*
X46034708Y-60940649D01*
X46039139Y-60937547D01*
X46200047Y-60776639D01*
X46203149Y-60772208D01*
X46203153Y-60772204D01*
X46327460Y-60594673D01*
X46327461Y-60594671D01*
X46330568Y-60590234D01*
X46416502Y-60405950D01*
X46424450Y-60388906D01*
X46424452Y-60388900D01*
X46426739Y-60383996D01*
X46485635Y-60164192D01*
X46486123Y-60158620D01*
X46504996Y-59942895D01*
X46505468Y-59937500D01*
X46499181Y-59865641D01*
X46486107Y-59716198D01*
X46486106Y-59716193D01*
X46485635Y-59710808D01*
X46426739Y-59491004D01*
X46424452Y-59486100D01*
X46424450Y-59486094D01*
X46332858Y-59289677D01*
X46330568Y-59284766D01*
X46229660Y-59140653D01*
X46203153Y-59102796D01*
X46203149Y-59102792D01*
X46200047Y-59098361D01*
X46039139Y-58937453D01*
X46034708Y-58934351D01*
X46034704Y-58934347D01*
X45857173Y-58810040D01*
X45857171Y-58810039D01*
X45852734Y-58806932D01*
X45784505Y-58775116D01*
X45651406Y-58713050D01*
X45651400Y-58713048D01*
X45646496Y-58710761D01*
X45426692Y-58651865D01*
X45421307Y-58651394D01*
X45421302Y-58651393D01*
X45205395Y-58632504D01*
X45200000Y-58632032D01*
X45194605Y-58632504D01*
X44978698Y-58651393D01*
X44978693Y-58651394D01*
X44973308Y-58651865D01*
X44753504Y-58710761D01*
X44748600Y-58713048D01*
X44748594Y-58713050D01*
X44615495Y-58775116D01*
X44547266Y-58806932D01*
X44542829Y-58810039D01*
X44542827Y-58810040D01*
X44365296Y-58934347D01*
X44365292Y-58934351D01*
X44360861Y-58937453D01*
X44199953Y-59098361D01*
X44196851Y-59102792D01*
X44196847Y-59102796D01*
X44170340Y-59140653D01*
X44069432Y-59284766D01*
X44067142Y-59289677D01*
X43975550Y-59486094D01*
X43975548Y-59486100D01*
X43973261Y-59491004D01*
X43914365Y-59710808D01*
X43913894Y-59716193D01*
X43913893Y-59716198D01*
X43900819Y-59865641D01*
X43894532Y-59937500D01*
X41505468Y-59937500D01*
X41499181Y-59865641D01*
X41486107Y-59716198D01*
X41486106Y-59716193D01*
X41485635Y-59710808D01*
X41426739Y-59491004D01*
X41424452Y-59486100D01*
X41424450Y-59486094D01*
X41332858Y-59289677D01*
X41330568Y-59284766D01*
X41229660Y-59140653D01*
X41203153Y-59102796D01*
X41203149Y-59102792D01*
X41200047Y-59098361D01*
X41039139Y-58937453D01*
X41034708Y-58934351D01*
X41034704Y-58934347D01*
X40857173Y-58810040D01*
X40857171Y-58810039D01*
X40852734Y-58806932D01*
X40784505Y-58775116D01*
X40651406Y-58713050D01*
X40651400Y-58713048D01*
X40646496Y-58710761D01*
X40426692Y-58651865D01*
X40421307Y-58651394D01*
X40421302Y-58651393D01*
X40205395Y-58632504D01*
X40200000Y-58632032D01*
X40194605Y-58632504D01*
X39978698Y-58651393D01*
X39978693Y-58651394D01*
X39973308Y-58651865D01*
X39753504Y-58710761D01*
X39748600Y-58713048D01*
X39748594Y-58713050D01*
X39615495Y-58775116D01*
X39547266Y-58806932D01*
X39542829Y-58810039D01*
X39542827Y-58810040D01*
X39365296Y-58934347D01*
X39365292Y-58934351D01*
X39360861Y-58937453D01*
X39199953Y-59098361D01*
X39196851Y-59102792D01*
X39196847Y-59102796D01*
X39170340Y-59140653D01*
X39069432Y-59284766D01*
X39067142Y-59289677D01*
X38975550Y-59486094D01*
X38975548Y-59486100D01*
X38973261Y-59491004D01*
X38914365Y-59710808D01*
X38913894Y-59716193D01*
X38913893Y-59716198D01*
X38900819Y-59865641D01*
X38894532Y-59937500D01*
X37032501Y-59937500D01*
X37191302Y-59923607D01*
X37191307Y-59923606D01*
X37196692Y-59923135D01*
X37416496Y-59864239D01*
X37421400Y-59861952D01*
X37421406Y-59861950D01*
X37617823Y-59770358D01*
X37622734Y-59768068D01*
X37696813Y-59716198D01*
X37804704Y-59640653D01*
X37804708Y-59640649D01*
X37809139Y-59637547D01*
X37970047Y-59476639D01*
X37973149Y-59472208D01*
X37973153Y-59472204D01*
X38097460Y-59294673D01*
X38097461Y-59294671D01*
X38100568Y-59290234D01*
X38112354Y-59264960D01*
X38194450Y-59088906D01*
X38194452Y-59088900D01*
X38196739Y-59083996D01*
X38255635Y-58864192D01*
X38262106Y-58790234D01*
X38274996Y-58642895D01*
X38275468Y-58637500D01*
X38255635Y-58410808D01*
X38196739Y-58191004D01*
X38194452Y-58186100D01*
X38194450Y-58186094D01*
X38171790Y-58137500D01*
X47794532Y-58137500D01*
X47814365Y-58364192D01*
X47873261Y-58583996D01*
X47875548Y-58588900D01*
X47875550Y-58588906D01*
X47898210Y-58637500D01*
X47969432Y-58790234D01*
X47972539Y-58794671D01*
X47972540Y-58794673D01*
X48096847Y-58972204D01*
X48096851Y-58972208D01*
X48099953Y-58976639D01*
X48260861Y-59137547D01*
X48265292Y-59140649D01*
X48265296Y-59140653D01*
X48442827Y-59264960D01*
X48447266Y-59268068D01*
X48452177Y-59270358D01*
X48648594Y-59361950D01*
X48648600Y-59361952D01*
X48653504Y-59364239D01*
X48873308Y-59423135D01*
X48878693Y-59423606D01*
X48878698Y-59423607D01*
X49094605Y-59442496D01*
X49100000Y-59442968D01*
X49105395Y-59442496D01*
X49321302Y-59423607D01*
X49321307Y-59423606D01*
X49326692Y-59423135D01*
X49546496Y-59364239D01*
X49551400Y-59361952D01*
X49551406Y-59361950D01*
X49747823Y-59270358D01*
X49752734Y-59268068D01*
X49757173Y-59264960D01*
X49934704Y-59140653D01*
X49934708Y-59140649D01*
X49939139Y-59137547D01*
X50100047Y-58976639D01*
X50103149Y-58972208D01*
X50103153Y-58972204D01*
X50227460Y-58794673D01*
X50227461Y-58794671D01*
X50230568Y-58790234D01*
X50301790Y-58637500D01*
X50324450Y-58588906D01*
X50324452Y-58588900D01*
X50326739Y-58583996D01*
X50385635Y-58364192D01*
X50405468Y-58137500D01*
X52794532Y-58137500D01*
X52814365Y-58364192D01*
X52873261Y-58583996D01*
X52875548Y-58588900D01*
X52875550Y-58588906D01*
X52898210Y-58637500D01*
X52969432Y-58790234D01*
X52972539Y-58794671D01*
X52972540Y-58794673D01*
X53096847Y-58972204D01*
X53096851Y-58972208D01*
X53099953Y-58976639D01*
X53260861Y-59137547D01*
X53265292Y-59140649D01*
X53265296Y-59140653D01*
X53442827Y-59264960D01*
X53447266Y-59268068D01*
X53452177Y-59270358D01*
X53648594Y-59361950D01*
X53648600Y-59361952D01*
X53653504Y-59364239D01*
X53873308Y-59423135D01*
X53878693Y-59423606D01*
X53878698Y-59423607D01*
X54094605Y-59442496D01*
X54100000Y-59442968D01*
X54105395Y-59442496D01*
X54321302Y-59423607D01*
X54321307Y-59423606D01*
X54326692Y-59423135D01*
X54546496Y-59364239D01*
X54551400Y-59361952D01*
X54551406Y-59361950D01*
X54747823Y-59270358D01*
X54752734Y-59268068D01*
X54757173Y-59264960D01*
X54934704Y-59140653D01*
X54934708Y-59140649D01*
X54939139Y-59137547D01*
X55100047Y-58976639D01*
X55103149Y-58972208D01*
X55103153Y-58972204D01*
X55227460Y-58794673D01*
X55227461Y-58794671D01*
X55230568Y-58790234D01*
X55237618Y-58775116D01*
X55283790Y-58722676D01*
X55350983Y-58703524D01*
X55417864Y-58723739D01*
X55462382Y-58775116D01*
X55469432Y-58790234D01*
X55472539Y-58794671D01*
X55472540Y-58794673D01*
X55596847Y-58972204D01*
X55596851Y-58972208D01*
X55599953Y-58976639D01*
X55760861Y-59137547D01*
X55765292Y-59140649D01*
X55765296Y-59140653D01*
X55942827Y-59264960D01*
X55947266Y-59268068D01*
X55952177Y-59270358D01*
X56148594Y-59361950D01*
X56148600Y-59361952D01*
X56153504Y-59364239D01*
X56373308Y-59423135D01*
X56378693Y-59423606D01*
X56378698Y-59423607D01*
X56594605Y-59442496D01*
X56600000Y-59442968D01*
X56605395Y-59442496D01*
X56821302Y-59423607D01*
X56821307Y-59423606D01*
X56826692Y-59423135D01*
X57046496Y-59364239D01*
X57051400Y-59361952D01*
X57051406Y-59361950D01*
X57247823Y-59270358D01*
X57252734Y-59268068D01*
X57257173Y-59264960D01*
X57434704Y-59140653D01*
X57434708Y-59140649D01*
X57439139Y-59137547D01*
X57600047Y-58976639D01*
X57603149Y-58972208D01*
X57603153Y-58972204D01*
X57727460Y-58794673D01*
X57727461Y-58794671D01*
X57730568Y-58790234D01*
X57801790Y-58637500D01*
X57824450Y-58588906D01*
X57824452Y-58588900D01*
X57826739Y-58583996D01*
X57885635Y-58364192D01*
X57905468Y-58137500D01*
X57892535Y-57989677D01*
X57886107Y-57916198D01*
X57886106Y-57916193D01*
X57885635Y-57910808D01*
X57826739Y-57691004D01*
X57824452Y-57686100D01*
X57824450Y-57686094D01*
X57732858Y-57489677D01*
X57730568Y-57484766D01*
X57727460Y-57480327D01*
X57603153Y-57302796D01*
X57603149Y-57302792D01*
X57600047Y-57298361D01*
X57439139Y-57137453D01*
X57434708Y-57134351D01*
X57434704Y-57134347D01*
X57257173Y-57010040D01*
X57257171Y-57010039D01*
X57252734Y-57006932D01*
X57225934Y-56994435D01*
X57051406Y-56913050D01*
X57051400Y-56913048D01*
X57046496Y-56910761D01*
X56826692Y-56851865D01*
X56821307Y-56851394D01*
X56821302Y-56851393D01*
X56605395Y-56832504D01*
X56600000Y-56832032D01*
X56594605Y-56832504D01*
X56378698Y-56851393D01*
X56378693Y-56851394D01*
X56373308Y-56851865D01*
X56153504Y-56910761D01*
X56148600Y-56913048D01*
X56148594Y-56913050D01*
X55974066Y-56994435D01*
X55947266Y-57006932D01*
X55942829Y-57010039D01*
X55942827Y-57010040D01*
X55765296Y-57134347D01*
X55765292Y-57134351D01*
X55760861Y-57137453D01*
X55599953Y-57298361D01*
X55596851Y-57302792D01*
X55596847Y-57302796D01*
X55472540Y-57480327D01*
X55469432Y-57484766D01*
X55467142Y-57489677D01*
X55467140Y-57489681D01*
X55462382Y-57499884D01*
X55416210Y-57552324D01*
X55349017Y-57571476D01*
X55282136Y-57551261D01*
X55237618Y-57499884D01*
X55232860Y-57489681D01*
X55232858Y-57489677D01*
X55230568Y-57484766D01*
X55227460Y-57480327D01*
X55103153Y-57302796D01*
X55103149Y-57302792D01*
X55100047Y-57298361D01*
X54939139Y-57137453D01*
X54934708Y-57134351D01*
X54934704Y-57134347D01*
X54757173Y-57010040D01*
X54757171Y-57010039D01*
X54752734Y-57006932D01*
X54725934Y-56994435D01*
X54551406Y-56913050D01*
X54551400Y-56913048D01*
X54546496Y-56910761D01*
X54326692Y-56851865D01*
X54321307Y-56851394D01*
X54321302Y-56851393D01*
X54105395Y-56832504D01*
X54100000Y-56832032D01*
X54094605Y-56832504D01*
X53878698Y-56851393D01*
X53878693Y-56851394D01*
X53873308Y-56851865D01*
X53653504Y-56910761D01*
X53648600Y-56913048D01*
X53648594Y-56913050D01*
X53474066Y-56994435D01*
X53447266Y-57006932D01*
X53442829Y-57010039D01*
X53442827Y-57010040D01*
X53265296Y-57134347D01*
X53265292Y-57134351D01*
X53260861Y-57137453D01*
X53099953Y-57298361D01*
X53096851Y-57302792D01*
X53096847Y-57302796D01*
X52972540Y-57480327D01*
X52969432Y-57484766D01*
X52967142Y-57489677D01*
X52875550Y-57686094D01*
X52875548Y-57686100D01*
X52873261Y-57691004D01*
X52814365Y-57910808D01*
X52813894Y-57916193D01*
X52813893Y-57916198D01*
X52807465Y-57989677D01*
X52794532Y-58137500D01*
X50405468Y-58137500D01*
X50392535Y-57989677D01*
X50386107Y-57916198D01*
X50386106Y-57916193D01*
X50385635Y-57910808D01*
X50326739Y-57691004D01*
X50324452Y-57686100D01*
X50324450Y-57686094D01*
X50232858Y-57489677D01*
X50230568Y-57484766D01*
X50227460Y-57480327D01*
X50103153Y-57302796D01*
X50103149Y-57302792D01*
X50100047Y-57298361D01*
X49939139Y-57137453D01*
X49934708Y-57134351D01*
X49934704Y-57134347D01*
X49757173Y-57010040D01*
X49757171Y-57010039D01*
X49752734Y-57006932D01*
X49725934Y-56994435D01*
X49551406Y-56913050D01*
X49551400Y-56913048D01*
X49546496Y-56910761D01*
X49326692Y-56851865D01*
X49321307Y-56851394D01*
X49321302Y-56851393D01*
X49105395Y-56832504D01*
X49100000Y-56832032D01*
X49094605Y-56832504D01*
X48878698Y-56851393D01*
X48878693Y-56851394D01*
X48873308Y-56851865D01*
X48653504Y-56910761D01*
X48648600Y-56913048D01*
X48648594Y-56913050D01*
X48474066Y-56994435D01*
X48447266Y-57006932D01*
X48442829Y-57010039D01*
X48442827Y-57010040D01*
X48265296Y-57134347D01*
X48265292Y-57134351D01*
X48260861Y-57137453D01*
X48099953Y-57298361D01*
X48096851Y-57302792D01*
X48096847Y-57302796D01*
X47972540Y-57480327D01*
X47969432Y-57484766D01*
X47967142Y-57489677D01*
X47875550Y-57686094D01*
X47875548Y-57686100D01*
X47873261Y-57691004D01*
X47814365Y-57910808D01*
X47813894Y-57916193D01*
X47813893Y-57916198D01*
X47807465Y-57989677D01*
X47794532Y-58137500D01*
X38171790Y-58137500D01*
X38102858Y-57989677D01*
X38100568Y-57984766D01*
X38045124Y-57905583D01*
X37973153Y-57802796D01*
X37973149Y-57802792D01*
X37970047Y-57798361D01*
X37809139Y-57637453D01*
X37804708Y-57634351D01*
X37804704Y-57634347D01*
X37627173Y-57510040D01*
X37627171Y-57510039D01*
X37622734Y-57506932D01*
X37539369Y-57468058D01*
X37421406Y-57413050D01*
X37421400Y-57413048D01*
X37416496Y-57410761D01*
X37196692Y-57351865D01*
X37191307Y-57351394D01*
X37191302Y-57351393D01*
X36975395Y-57332504D01*
X36970000Y-57332032D01*
X36964605Y-57332504D01*
X36748698Y-57351393D01*
X36748693Y-57351394D01*
X36743308Y-57351865D01*
X36523504Y-57410761D01*
X36518600Y-57413048D01*
X36518594Y-57413050D01*
X36400631Y-57468058D01*
X36317266Y-57506932D01*
X36312829Y-57510039D01*
X36312827Y-57510040D01*
X36135296Y-57634347D01*
X36135292Y-57634351D01*
X36130861Y-57637453D01*
X35969953Y-57798361D01*
X35966851Y-57802792D01*
X35966847Y-57802796D01*
X35894876Y-57905583D01*
X35839432Y-57984766D01*
X35837142Y-57989677D01*
X35745550Y-58186094D01*
X35745548Y-58186100D01*
X35743261Y-58191004D01*
X35684365Y-58410808D01*
X35664532Y-58637500D01*
X20500500Y-58637500D01*
X20500500Y-56800000D01*
X28894540Y-56800000D01*
X28914326Y-56988256D01*
X28972821Y-57168284D01*
X29067467Y-57332216D01*
X29194129Y-57472888D01*
X29199387Y-57476708D01*
X29199388Y-57476709D01*
X29270700Y-57528520D01*
X29347270Y-57584151D01*
X29520197Y-57661144D01*
X29588637Y-57675691D01*
X29698991Y-57699148D01*
X29698996Y-57699148D01*
X29705354Y-57700500D01*
X29894646Y-57700500D01*
X29901004Y-57699148D01*
X29901009Y-57699148D01*
X30011363Y-57675691D01*
X30079803Y-57661144D01*
X30252730Y-57584151D01*
X30329300Y-57528520D01*
X30400612Y-57476709D01*
X30400613Y-57476708D01*
X30405871Y-57472888D01*
X30532533Y-57332216D01*
X30627179Y-57168284D01*
X30685674Y-56988256D01*
X30705460Y-56800000D01*
X30685674Y-56611744D01*
X30627179Y-56431716D01*
X30621417Y-56421735D01*
X30548555Y-56295535D01*
X30532533Y-56267784D01*
X30499965Y-56231613D01*
X30410220Y-56131942D01*
X30405871Y-56127112D01*
X30252730Y-56015849D01*
X30079803Y-55938856D01*
X30011363Y-55924309D01*
X29901009Y-55900852D01*
X29901004Y-55900852D01*
X29894646Y-55899500D01*
X29705354Y-55899500D01*
X29698996Y-55900852D01*
X29698991Y-55900852D01*
X29588637Y-55924309D01*
X29520197Y-55938856D01*
X29347270Y-56015849D01*
X29194129Y-56127112D01*
X29189780Y-56131942D01*
X29100036Y-56231613D01*
X29067467Y-56267784D01*
X29051445Y-56295535D01*
X28978584Y-56421735D01*
X28972821Y-56431716D01*
X28914326Y-56611744D01*
X28894540Y-56800000D01*
X20500500Y-56800000D01*
X20500500Y-54960000D01*
X22944341Y-54960000D01*
X22944813Y-54965395D01*
X22961453Y-55155583D01*
X22964937Y-55195408D01*
X23026097Y-55423663D01*
X23028384Y-55428567D01*
X23028386Y-55428573D01*
X23098422Y-55578763D01*
X23125965Y-55637829D01*
X23129072Y-55642266D01*
X23129073Y-55642268D01*
X23258399Y-55826966D01*
X23258403Y-55826970D01*
X23261505Y-55831401D01*
X23428599Y-55998495D01*
X23622170Y-56134035D01*
X23836337Y-56233903D01*
X23920137Y-56256357D01*
X24059366Y-56293663D01*
X24059369Y-56293664D01*
X24064592Y-56295063D01*
X24069979Y-56295534D01*
X24069983Y-56295535D01*
X24294605Y-56315187D01*
X24300000Y-56315659D01*
X24305395Y-56315187D01*
X24530017Y-56295535D01*
X24530021Y-56295534D01*
X24535408Y-56295063D01*
X24540631Y-56293664D01*
X24540634Y-56293663D01*
X24679863Y-56256357D01*
X24763663Y-56233903D01*
X24977830Y-56134035D01*
X25171401Y-55998495D01*
X25338495Y-55831401D01*
X25341597Y-55826970D01*
X25341601Y-55826966D01*
X25470927Y-55642268D01*
X25470928Y-55642266D01*
X25474035Y-55637829D01*
X25501578Y-55578763D01*
X25571614Y-55428573D01*
X25571616Y-55428567D01*
X25573903Y-55423663D01*
X25583593Y-55387500D01*
X33544532Y-55387500D01*
X33545004Y-55392895D01*
X33562153Y-55588906D01*
X33564365Y-55614192D01*
X33623261Y-55833996D01*
X33625548Y-55838900D01*
X33625550Y-55838906D01*
X33706828Y-56013205D01*
X33719432Y-56040234D01*
X33722539Y-56044671D01*
X33722540Y-56044673D01*
X33846847Y-56222204D01*
X33846851Y-56222208D01*
X33849953Y-56226639D01*
X34010861Y-56387547D01*
X34015292Y-56390649D01*
X34015296Y-56390653D01*
X34192827Y-56514960D01*
X34197266Y-56518068D01*
X34202177Y-56520358D01*
X34398594Y-56611950D01*
X34398600Y-56611952D01*
X34403504Y-56614239D01*
X34623308Y-56673135D01*
X34628693Y-56673606D01*
X34628698Y-56673607D01*
X34844605Y-56692496D01*
X34850000Y-56692968D01*
X34855395Y-56692496D01*
X35071302Y-56673607D01*
X35071307Y-56673606D01*
X35076692Y-56673135D01*
X35296496Y-56614239D01*
X35301400Y-56611952D01*
X35301406Y-56611950D01*
X35497823Y-56520358D01*
X35502734Y-56518068D01*
X35507173Y-56514960D01*
X35684704Y-56390653D01*
X35684708Y-56390649D01*
X35689139Y-56387547D01*
X35850047Y-56226639D01*
X35853149Y-56222208D01*
X35853153Y-56222204D01*
X35977460Y-56044673D01*
X35977461Y-56044671D01*
X35980568Y-56040234D01*
X35993172Y-56013205D01*
X36074450Y-55838906D01*
X36074452Y-55838900D01*
X36076739Y-55833996D01*
X36135635Y-55614192D01*
X36137848Y-55588906D01*
X36154996Y-55392895D01*
X36155468Y-55387500D01*
X36152957Y-55358802D01*
X36136107Y-55166198D01*
X36136106Y-55166193D01*
X36135635Y-55160808D01*
X36129390Y-55137500D01*
X43044532Y-55137500D01*
X43045004Y-55142895D01*
X43050056Y-55200634D01*
X43064365Y-55364192D01*
X43123261Y-55583996D01*
X43125548Y-55588900D01*
X43125550Y-55588906D01*
X43209652Y-55769261D01*
X43219432Y-55790234D01*
X43222539Y-55794671D01*
X43222540Y-55794673D01*
X43346847Y-55972204D01*
X43346851Y-55972208D01*
X43349953Y-55976639D01*
X43510861Y-56137547D01*
X43515292Y-56140649D01*
X43515296Y-56140653D01*
X43650475Y-56235305D01*
X43697266Y-56268068D01*
X43702177Y-56270358D01*
X43898594Y-56361950D01*
X43898600Y-56361952D01*
X43903504Y-56364239D01*
X44123308Y-56423135D01*
X44128693Y-56423606D01*
X44128698Y-56423607D01*
X44344605Y-56442496D01*
X44350000Y-56442968D01*
X44355395Y-56442496D01*
X44571302Y-56423607D01*
X44571307Y-56423606D01*
X44576692Y-56423135D01*
X44796496Y-56364239D01*
X44801400Y-56361952D01*
X44801406Y-56361950D01*
X44997823Y-56270358D01*
X45002734Y-56268068D01*
X45049525Y-56235305D01*
X45184704Y-56140653D01*
X45184708Y-56140649D01*
X45189139Y-56137547D01*
X45350047Y-55976639D01*
X45353149Y-55972208D01*
X45353153Y-55972204D01*
X45477460Y-55794673D01*
X45477461Y-55794671D01*
X45480568Y-55790234D01*
X45490348Y-55769261D01*
X45574450Y-55588906D01*
X45574452Y-55588900D01*
X45576739Y-55583996D01*
X45635635Y-55364192D01*
X45649945Y-55200634D01*
X45654996Y-55142895D01*
X45655468Y-55137500D01*
X48044532Y-55137500D01*
X48045004Y-55142895D01*
X48050056Y-55200634D01*
X48064365Y-55364192D01*
X48123261Y-55583996D01*
X48125548Y-55588900D01*
X48125550Y-55588906D01*
X48209652Y-55769261D01*
X48219432Y-55790234D01*
X48222539Y-55794671D01*
X48222540Y-55794673D01*
X48346847Y-55972204D01*
X48346851Y-55972208D01*
X48349953Y-55976639D01*
X48510861Y-56137547D01*
X48515292Y-56140649D01*
X48515296Y-56140653D01*
X48650475Y-56235305D01*
X48697266Y-56268068D01*
X48702177Y-56270358D01*
X48898594Y-56361950D01*
X48898600Y-56361952D01*
X48903504Y-56364239D01*
X49123308Y-56423135D01*
X49128693Y-56423606D01*
X49128698Y-56423607D01*
X49344605Y-56442496D01*
X49350000Y-56442968D01*
X49355395Y-56442496D01*
X49571302Y-56423607D01*
X49571307Y-56423606D01*
X49576692Y-56423135D01*
X49796496Y-56364239D01*
X49801400Y-56361952D01*
X49801406Y-56361950D01*
X49997823Y-56270358D01*
X50002734Y-56268068D01*
X50049525Y-56235305D01*
X50184704Y-56140653D01*
X50184708Y-56140649D01*
X50189139Y-56137547D01*
X50350047Y-55976639D01*
X50353149Y-55972208D01*
X50353153Y-55972204D01*
X50477460Y-55794673D01*
X50477461Y-55794671D01*
X50480568Y-55790234D01*
X50490348Y-55769261D01*
X50574450Y-55588906D01*
X50574452Y-55588900D01*
X50576739Y-55583996D01*
X50635635Y-55364192D01*
X50649945Y-55200634D01*
X50654996Y-55142895D01*
X50655468Y-55137500D01*
X50638277Y-54941004D01*
X50636107Y-54916198D01*
X50636106Y-54916193D01*
X50635635Y-54910808D01*
X50576739Y-54691004D01*
X50574452Y-54686100D01*
X50574450Y-54686094D01*
X50482858Y-54489677D01*
X50480568Y-54484766D01*
X50477460Y-54480327D01*
X50353153Y-54302796D01*
X50353149Y-54302792D01*
X50350047Y-54298361D01*
X50189139Y-54137453D01*
X50184708Y-54134351D01*
X50184704Y-54134347D01*
X50007173Y-54010040D01*
X50007171Y-54010039D01*
X50002734Y-54006932D01*
X49919369Y-53968058D01*
X49801406Y-53913050D01*
X49801400Y-53913048D01*
X49796496Y-53910761D01*
X49576692Y-53851865D01*
X49571307Y-53851394D01*
X49571302Y-53851393D01*
X49355395Y-53832504D01*
X49350000Y-53832032D01*
X49344605Y-53832504D01*
X49128698Y-53851393D01*
X49128693Y-53851394D01*
X49123308Y-53851865D01*
X48903504Y-53910761D01*
X48898600Y-53913048D01*
X48898594Y-53913050D01*
X48780631Y-53968058D01*
X48697266Y-54006932D01*
X48692829Y-54010039D01*
X48692827Y-54010040D01*
X48515296Y-54134347D01*
X48515292Y-54134351D01*
X48510861Y-54137453D01*
X48349953Y-54298361D01*
X48346851Y-54302792D01*
X48346847Y-54302796D01*
X48222540Y-54480327D01*
X48219432Y-54484766D01*
X48217142Y-54489677D01*
X48125550Y-54686094D01*
X48125548Y-54686100D01*
X48123261Y-54691004D01*
X48064365Y-54910808D01*
X48063894Y-54916193D01*
X48063893Y-54916198D01*
X48061723Y-54941004D01*
X48044532Y-55137500D01*
X45655468Y-55137500D01*
X45638277Y-54941004D01*
X45636107Y-54916198D01*
X45636106Y-54916193D01*
X45635635Y-54910808D01*
X45576739Y-54691004D01*
X45574452Y-54686100D01*
X45574450Y-54686094D01*
X45482858Y-54489677D01*
X45480568Y-54484766D01*
X45477460Y-54480327D01*
X45353153Y-54302796D01*
X45353149Y-54302792D01*
X45350047Y-54298361D01*
X45189139Y-54137453D01*
X45184708Y-54134351D01*
X45184704Y-54134347D01*
X45007173Y-54010040D01*
X45007171Y-54010039D01*
X45002734Y-54006932D01*
X44919369Y-53968058D01*
X44801406Y-53913050D01*
X44801400Y-53913048D01*
X44796496Y-53910761D01*
X44576692Y-53851865D01*
X44571307Y-53851394D01*
X44571302Y-53851393D01*
X44355395Y-53832504D01*
X44350000Y-53832032D01*
X44344605Y-53832504D01*
X44128698Y-53851393D01*
X44128693Y-53851394D01*
X44123308Y-53851865D01*
X43903504Y-53910761D01*
X43898600Y-53913048D01*
X43898594Y-53913050D01*
X43780631Y-53968058D01*
X43697266Y-54006932D01*
X43692829Y-54010039D01*
X43692827Y-54010040D01*
X43515296Y-54134347D01*
X43515292Y-54134351D01*
X43510861Y-54137453D01*
X43349953Y-54298361D01*
X43346851Y-54302792D01*
X43346847Y-54302796D01*
X43222540Y-54480327D01*
X43219432Y-54484766D01*
X43217142Y-54489677D01*
X43125550Y-54686094D01*
X43125548Y-54686100D01*
X43123261Y-54691004D01*
X43064365Y-54910808D01*
X43063894Y-54916193D01*
X43063893Y-54916198D01*
X43061723Y-54941004D01*
X43044532Y-55137500D01*
X36129390Y-55137500D01*
X36076739Y-54941004D01*
X36074452Y-54936100D01*
X36074450Y-54936094D01*
X35982858Y-54739677D01*
X35980568Y-54734766D01*
X35946488Y-54686094D01*
X35853153Y-54552796D01*
X35853149Y-54552792D01*
X35850047Y-54548361D01*
X35689139Y-54387453D01*
X35684708Y-54384351D01*
X35684704Y-54384347D01*
X35507173Y-54260040D01*
X35507171Y-54260039D01*
X35502734Y-54256932D01*
X35481761Y-54247152D01*
X35301406Y-54163050D01*
X35301400Y-54163048D01*
X35296496Y-54160761D01*
X35076692Y-54101865D01*
X35071307Y-54101394D01*
X35071302Y-54101393D01*
X34855395Y-54082504D01*
X34850000Y-54082032D01*
X34844605Y-54082504D01*
X34628698Y-54101393D01*
X34628693Y-54101394D01*
X34623308Y-54101865D01*
X34403504Y-54160761D01*
X34398600Y-54163048D01*
X34398594Y-54163050D01*
X34218239Y-54247152D01*
X34197266Y-54256932D01*
X34192829Y-54260039D01*
X34192827Y-54260040D01*
X34015296Y-54384347D01*
X34015292Y-54384351D01*
X34010861Y-54387453D01*
X33849953Y-54548361D01*
X33846851Y-54552792D01*
X33846847Y-54552796D01*
X33753512Y-54686094D01*
X33719432Y-54734766D01*
X33717142Y-54739677D01*
X33625550Y-54936094D01*
X33625548Y-54936100D01*
X33623261Y-54941004D01*
X33564365Y-55160808D01*
X33563894Y-55166193D01*
X33563893Y-55166198D01*
X33547043Y-55358802D01*
X33544532Y-55387500D01*
X25583593Y-55387500D01*
X25635063Y-55195408D01*
X25638548Y-55155583D01*
X25655187Y-54965395D01*
X25655659Y-54960000D01*
X25635063Y-54724592D01*
X25627466Y-54696237D01*
X25575305Y-54501570D01*
X25573903Y-54496337D01*
X25571616Y-54491433D01*
X25571614Y-54491427D01*
X25476325Y-54287082D01*
X25474035Y-54282171D01*
X25390626Y-54163050D01*
X25341601Y-54093034D01*
X25341597Y-54093030D01*
X25338495Y-54088599D01*
X25171401Y-53921505D01*
X24985842Y-53791575D01*
X24942218Y-53736998D01*
X24935025Y-53667499D01*
X24966547Y-53605145D01*
X24985842Y-53588425D01*
X25120073Y-53494435D01*
X25171401Y-53458495D01*
X25338495Y-53291401D01*
X25341597Y-53286970D01*
X25341601Y-53286966D01*
X25470927Y-53102268D01*
X25470928Y-53102266D01*
X25474035Y-53097829D01*
X25528762Y-52980468D01*
X25571614Y-52888573D01*
X25571616Y-52888567D01*
X25573903Y-52883663D01*
X25635063Y-52655408D01*
X25640882Y-52588906D01*
X25655187Y-52425395D01*
X25655659Y-52420000D01*
X25653865Y-52399500D01*
X25635535Y-52189983D01*
X25635534Y-52189979D01*
X25635063Y-52184592D01*
X25623891Y-52142895D01*
X25622445Y-52137500D01*
X50544532Y-52137500D01*
X50564365Y-52364192D01*
X50623261Y-52583996D01*
X50625548Y-52588900D01*
X50625550Y-52588906D01*
X50654047Y-52650017D01*
X50719432Y-52790234D01*
X50722539Y-52794671D01*
X50722540Y-52794673D01*
X50846847Y-52972204D01*
X50846851Y-52972208D01*
X50849953Y-52976639D01*
X51010861Y-53137547D01*
X51015292Y-53140649D01*
X51015296Y-53140653D01*
X51192827Y-53264960D01*
X51197266Y-53268068D01*
X51202177Y-53270358D01*
X51398594Y-53361950D01*
X51398600Y-53361952D01*
X51403504Y-53364239D01*
X51623308Y-53423135D01*
X51628693Y-53423606D01*
X51628698Y-53423607D01*
X51844605Y-53442496D01*
X51850000Y-53442968D01*
X51855395Y-53442496D01*
X52071302Y-53423607D01*
X52071307Y-53423606D01*
X52076692Y-53423135D01*
X52296496Y-53364239D01*
X52301400Y-53361952D01*
X52301406Y-53361950D01*
X52434256Y-53300000D01*
X53394540Y-53300000D01*
X53414326Y-53488256D01*
X53472821Y-53668284D01*
X53567467Y-53832216D01*
X53571813Y-53837043D01*
X53571814Y-53837044D01*
X53623758Y-53894733D01*
X53694129Y-53972888D01*
X53699387Y-53976708D01*
X53699388Y-53976709D01*
X53820684Y-54064835D01*
X53863350Y-54120164D01*
X53869329Y-54189778D01*
X53835480Y-54252834D01*
X53789953Y-54298361D01*
X53786851Y-54302792D01*
X53786847Y-54302796D01*
X53662540Y-54480327D01*
X53659432Y-54484766D01*
X53657142Y-54489677D01*
X53565550Y-54686094D01*
X53565548Y-54686100D01*
X53563261Y-54691004D01*
X53504365Y-54910808D01*
X53503894Y-54916193D01*
X53503893Y-54916198D01*
X53501723Y-54941004D01*
X53484532Y-55137500D01*
X53485004Y-55142895D01*
X53490056Y-55200634D01*
X53504365Y-55364192D01*
X53563261Y-55583996D01*
X53565548Y-55588900D01*
X53565550Y-55588906D01*
X53649652Y-55769261D01*
X53659432Y-55790234D01*
X53662539Y-55794671D01*
X53662540Y-55794673D01*
X53786847Y-55972204D01*
X53786851Y-55972208D01*
X53789953Y-55976639D01*
X53950861Y-56137547D01*
X53955292Y-56140649D01*
X53955296Y-56140653D01*
X54090475Y-56235305D01*
X54137266Y-56268068D01*
X54142177Y-56270358D01*
X54338594Y-56361950D01*
X54338600Y-56361952D01*
X54343504Y-56364239D01*
X54563308Y-56423135D01*
X54568693Y-56423606D01*
X54568698Y-56423607D01*
X54784605Y-56442496D01*
X54790000Y-56442968D01*
X54795395Y-56442496D01*
X55011302Y-56423607D01*
X55011307Y-56423606D01*
X55016692Y-56423135D01*
X55236496Y-56364239D01*
X55241400Y-56361952D01*
X55241406Y-56361950D01*
X55437823Y-56270358D01*
X55442734Y-56268068D01*
X55489525Y-56235305D01*
X55624704Y-56140653D01*
X55624708Y-56140649D01*
X55629139Y-56137547D01*
X55790047Y-55976639D01*
X55793149Y-55972208D01*
X55793153Y-55972204D01*
X55917460Y-55794673D01*
X55917461Y-55794671D01*
X55920568Y-55790234D01*
X55930348Y-55769261D01*
X56014450Y-55588906D01*
X56014452Y-55588900D01*
X56016739Y-55583996D01*
X56075635Y-55364192D01*
X56089945Y-55200634D01*
X56094996Y-55142895D01*
X56095468Y-55137500D01*
X56078277Y-54941004D01*
X56076107Y-54916198D01*
X56076106Y-54916193D01*
X56075635Y-54910808D01*
X56016739Y-54691004D01*
X56014452Y-54686100D01*
X56014450Y-54686094D01*
X55922858Y-54489677D01*
X55920568Y-54484766D01*
X55917460Y-54480327D01*
X55793153Y-54302796D01*
X55793149Y-54302792D01*
X55790047Y-54298361D01*
X55629139Y-54137453D01*
X55624708Y-54134351D01*
X55624704Y-54134347D01*
X55447173Y-54010040D01*
X55447171Y-54010039D01*
X55442734Y-54006932D01*
X55359369Y-53968058D01*
X55241406Y-53913050D01*
X55241400Y-53913048D01*
X55236496Y-53910761D01*
X55193676Y-53899288D01*
X55176679Y-53894733D01*
X55117019Y-53858367D01*
X55086490Y-53795520D01*
X55094785Y-53726145D01*
X55101379Y-53712971D01*
X55127179Y-53668284D01*
X55185674Y-53488256D01*
X55205460Y-53300000D01*
X55185674Y-53111744D01*
X55127179Y-52931716D01*
X55102271Y-52888573D01*
X55035781Y-52773410D01*
X55032533Y-52767784D01*
X54905871Y-52627112D01*
X54752730Y-52515849D01*
X54579803Y-52438856D01*
X54491092Y-52420000D01*
X54401009Y-52400852D01*
X54401004Y-52400852D01*
X54394646Y-52399500D01*
X54205354Y-52399500D01*
X54198996Y-52400852D01*
X54198991Y-52400852D01*
X54108908Y-52420000D01*
X54020197Y-52438856D01*
X53847270Y-52515849D01*
X53694129Y-52627112D01*
X53567467Y-52767784D01*
X53564219Y-52773410D01*
X53497730Y-52888573D01*
X53472821Y-52931716D01*
X53414326Y-53111744D01*
X53394540Y-53300000D01*
X52434256Y-53300000D01*
X52497823Y-53270358D01*
X52502734Y-53268068D01*
X52507173Y-53264960D01*
X52684704Y-53140653D01*
X52684708Y-53140649D01*
X52689139Y-53137547D01*
X52850047Y-52976639D01*
X52853149Y-52972208D01*
X52853153Y-52972204D01*
X52977460Y-52794673D01*
X52977461Y-52794671D01*
X52980568Y-52790234D01*
X53045953Y-52650017D01*
X53074450Y-52588906D01*
X53074452Y-52588900D01*
X53076739Y-52583996D01*
X53135635Y-52364192D01*
X53155468Y-52137500D01*
X53140076Y-51961570D01*
X53136107Y-51916198D01*
X53136106Y-51916193D01*
X53135635Y-51910808D01*
X53076739Y-51691004D01*
X53074452Y-51686100D01*
X53074450Y-51686094D01*
X52982858Y-51489677D01*
X52980568Y-51484766D01*
X52908265Y-51381505D01*
X52853153Y-51302796D01*
X52853149Y-51302792D01*
X52850047Y-51298361D01*
X52689139Y-51137453D01*
X52684708Y-51134351D01*
X52684704Y-51134347D01*
X52507173Y-51010040D01*
X52507171Y-51010039D01*
X52502734Y-51006932D01*
X52419369Y-50968058D01*
X52301406Y-50913050D01*
X52301400Y-50913048D01*
X52296496Y-50910761D01*
X52076692Y-50851865D01*
X52071307Y-50851394D01*
X52071302Y-50851393D01*
X51855395Y-50832504D01*
X51850000Y-50832032D01*
X51844605Y-50832504D01*
X51628698Y-50851393D01*
X51628693Y-50851394D01*
X51623308Y-50851865D01*
X51403504Y-50910761D01*
X51398600Y-50913048D01*
X51398594Y-50913050D01*
X51280631Y-50968058D01*
X51197266Y-51006932D01*
X51192829Y-51010039D01*
X51192827Y-51010040D01*
X51015296Y-51134347D01*
X51015292Y-51134351D01*
X51010861Y-51137453D01*
X50849953Y-51298361D01*
X50846851Y-51302792D01*
X50846847Y-51302796D01*
X50791735Y-51381505D01*
X50719432Y-51484766D01*
X50717142Y-51489677D01*
X50625550Y-51686094D01*
X50625548Y-51686100D01*
X50623261Y-51691004D01*
X50564365Y-51910808D01*
X50563894Y-51916193D01*
X50563893Y-51916198D01*
X50559924Y-51961570D01*
X50544532Y-52137500D01*
X25622445Y-52137500D01*
X25575305Y-51961570D01*
X25573903Y-51956337D01*
X25571616Y-51951433D01*
X25571614Y-51951427D01*
X25476325Y-51747082D01*
X25474035Y-51742171D01*
X25434770Y-51686094D01*
X25341601Y-51553034D01*
X25341597Y-51553030D01*
X25338495Y-51548599D01*
X25171401Y-51381505D01*
X24985842Y-51251575D01*
X24942218Y-51196998D01*
X24935025Y-51127499D01*
X24966547Y-51065145D01*
X24985842Y-51048425D01*
X25088263Y-50976709D01*
X25171401Y-50918495D01*
X25338495Y-50751401D01*
X25341597Y-50746970D01*
X25341601Y-50746966D01*
X25470927Y-50562268D01*
X25470928Y-50562266D01*
X25474035Y-50557829D01*
X25509491Y-50481795D01*
X25571614Y-50348573D01*
X25571616Y-50348567D01*
X25573903Y-50343663D01*
X25635063Y-50115408D01*
X25635925Y-50105565D01*
X25655187Y-49885395D01*
X25655659Y-49880000D01*
X25652415Y-49842922D01*
X25635535Y-49649983D01*
X25635534Y-49649979D01*
X25635063Y-49644592D01*
X25630380Y-49627112D01*
X25575305Y-49421570D01*
X25573903Y-49416337D01*
X25571616Y-49411433D01*
X25571614Y-49411427D01*
X25476325Y-49207082D01*
X25474035Y-49202171D01*
X25470927Y-49197732D01*
X25341601Y-49013034D01*
X25341597Y-49013030D01*
X25338495Y-49008599D01*
X25171401Y-48841505D01*
X25040719Y-48750000D01*
X27944532Y-48750000D01*
X27945004Y-48755395D01*
X27963273Y-48964209D01*
X27964365Y-48976692D01*
X28023261Y-49196496D01*
X28025548Y-49201400D01*
X28025550Y-49201406D01*
X28025907Y-49202171D01*
X28119432Y-49402734D01*
X28122539Y-49407171D01*
X28122540Y-49407173D01*
X28246847Y-49584704D01*
X28246851Y-49584708D01*
X28249953Y-49589139D01*
X28410861Y-49750047D01*
X28415292Y-49753149D01*
X28415296Y-49753153D01*
X28543501Y-49842922D01*
X28597266Y-49880568D01*
X28618239Y-49890348D01*
X28798594Y-49974450D01*
X28798600Y-49974452D01*
X28803504Y-49976739D01*
X29023308Y-50035635D01*
X29028693Y-50036106D01*
X29028698Y-50036107D01*
X29244605Y-50054996D01*
X29250000Y-50055468D01*
X29255395Y-50054996D01*
X29471302Y-50036107D01*
X29471307Y-50036106D01*
X29476692Y-50035635D01*
X29696496Y-49976739D01*
X29701400Y-49974452D01*
X29701406Y-49974450D01*
X29881761Y-49890348D01*
X29902734Y-49880568D01*
X29956499Y-49842922D01*
X30084704Y-49753153D01*
X30084708Y-49753149D01*
X30089139Y-49750047D01*
X30250047Y-49589139D01*
X30253149Y-49584708D01*
X30253153Y-49584704D01*
X30377460Y-49407173D01*
X30377461Y-49407171D01*
X30380568Y-49402734D01*
X30474093Y-49202171D01*
X30474450Y-49201406D01*
X30474452Y-49201400D01*
X30476739Y-49196496D01*
X30516126Y-49049500D01*
X46694540Y-49049500D01*
X46714326Y-49237756D01*
X46772821Y-49417784D01*
X46867467Y-49581716D01*
X46871813Y-49586543D01*
X46871814Y-49586544D01*
X46994129Y-49722388D01*
X46991979Y-49724324D01*
X47022003Y-49773065D01*
X47020670Y-49842922D01*
X47009769Y-49867720D01*
X46972821Y-49931716D01*
X46914326Y-50111744D01*
X46894540Y-50300000D01*
X46914326Y-50488256D01*
X46972821Y-50668284D01*
X47067467Y-50832216D01*
X47194129Y-50972888D01*
X47199387Y-50976708D01*
X47199388Y-50976709D01*
X47270699Y-51028519D01*
X47347270Y-51084151D01*
X47520197Y-51161144D01*
X47573633Y-51172502D01*
X47698991Y-51199148D01*
X47698996Y-51199148D01*
X47705354Y-51200500D01*
X47894646Y-51200500D01*
X47901004Y-51199148D01*
X47901009Y-51199148D01*
X48026367Y-51172502D01*
X48079803Y-51161144D01*
X48252730Y-51084151D01*
X48329301Y-51028519D01*
X48400612Y-50976709D01*
X48400613Y-50976708D01*
X48405871Y-50972888D01*
X48532533Y-50832216D01*
X48627179Y-50668284D01*
X48685674Y-50488256D01*
X48705460Y-50300000D01*
X48685674Y-50111744D01*
X48627179Y-49931716D01*
X48532533Y-49767784D01*
X48516563Y-49750047D01*
X48405871Y-49627112D01*
X48408021Y-49625176D01*
X48377997Y-49576435D01*
X48379330Y-49506578D01*
X48390232Y-49481778D01*
X48423931Y-49423410D01*
X48423932Y-49423409D01*
X48427179Y-49417784D01*
X48485674Y-49237756D01*
X48505460Y-49049500D01*
X48485674Y-48861244D01*
X48427179Y-48681216D01*
X48422514Y-48673135D01*
X48339123Y-48528698D01*
X48332533Y-48517284D01*
X48289324Y-48469295D01*
X48210220Y-48381442D01*
X48205871Y-48376612D01*
X48052730Y-48265349D01*
X47879803Y-48188356D01*
X47784308Y-48168058D01*
X47701009Y-48150352D01*
X47701004Y-48150352D01*
X47694646Y-48149000D01*
X47505354Y-48149000D01*
X47498996Y-48150352D01*
X47498991Y-48150352D01*
X47415692Y-48168058D01*
X47320197Y-48188356D01*
X47147270Y-48265349D01*
X46994129Y-48376612D01*
X46989780Y-48381442D01*
X46910677Y-48469295D01*
X46867467Y-48517284D01*
X46860877Y-48528698D01*
X46777487Y-48673135D01*
X46772821Y-48681216D01*
X46714326Y-48861244D01*
X46694540Y-49049500D01*
X30516126Y-49049500D01*
X30535635Y-48976692D01*
X30536728Y-48964209D01*
X30554996Y-48755395D01*
X30555468Y-48750000D01*
X30552106Y-48711575D01*
X30536107Y-48528698D01*
X30536106Y-48528693D01*
X30535635Y-48523308D01*
X30476739Y-48303504D01*
X30474452Y-48298600D01*
X30474450Y-48298594D01*
X30382858Y-48102177D01*
X30380568Y-48097266D01*
X30356222Y-48062496D01*
X30253153Y-47915296D01*
X30253149Y-47915292D01*
X30250047Y-47910861D01*
X30089139Y-47749953D01*
X30084708Y-47746851D01*
X30084704Y-47746847D01*
X29907173Y-47622540D01*
X29907171Y-47622539D01*
X29902734Y-47619432D01*
X29808325Y-47575408D01*
X29701406Y-47525550D01*
X29701400Y-47525548D01*
X29696496Y-47523261D01*
X29476692Y-47464365D01*
X29471307Y-47463894D01*
X29471302Y-47463893D01*
X29255395Y-47445004D01*
X29250000Y-47444532D01*
X29244605Y-47445004D01*
X29028698Y-47463893D01*
X29028693Y-47463894D01*
X29023308Y-47464365D01*
X28803504Y-47523261D01*
X28798600Y-47525548D01*
X28798594Y-47525550D01*
X28691675Y-47575408D01*
X28597266Y-47619432D01*
X28592829Y-47622539D01*
X28592827Y-47622540D01*
X28415296Y-47746847D01*
X28415292Y-47746851D01*
X28410861Y-47749953D01*
X28249953Y-47910861D01*
X28246851Y-47915292D01*
X28246847Y-47915296D01*
X28143778Y-48062496D01*
X28119432Y-48097266D01*
X28117142Y-48102177D01*
X28025550Y-48298594D01*
X28025548Y-48298600D01*
X28023261Y-48303504D01*
X27964365Y-48523308D01*
X27963894Y-48528693D01*
X27963893Y-48528698D01*
X27947894Y-48711575D01*
X27944532Y-48750000D01*
X25040719Y-48750000D01*
X24985842Y-48711575D01*
X24942218Y-48656998D01*
X24935025Y-48587499D01*
X24966547Y-48525145D01*
X24985842Y-48508425D01*
X25010921Y-48490864D01*
X25171401Y-48378495D01*
X25338495Y-48211401D01*
X25341597Y-48206970D01*
X25341601Y-48206966D01*
X25470927Y-48022268D01*
X25470928Y-48022266D01*
X25474035Y-48017829D01*
X25502632Y-47956503D01*
X25571614Y-47808573D01*
X25571616Y-47808567D01*
X25573903Y-47803663D01*
X25623596Y-47618205D01*
X25633663Y-47580634D01*
X25633664Y-47580631D01*
X25635063Y-47575408D01*
X25635687Y-47568284D01*
X25651503Y-47387500D01*
X32294532Y-47387500D01*
X32295004Y-47392895D01*
X32310972Y-47575408D01*
X32314365Y-47614192D01*
X32373261Y-47833996D01*
X32375548Y-47838900D01*
X32375550Y-47838906D01*
X32411172Y-47915296D01*
X32469432Y-48040234D01*
X32472539Y-48044671D01*
X32472540Y-48044673D01*
X32596847Y-48222204D01*
X32596851Y-48222208D01*
X32599953Y-48226639D01*
X32760861Y-48387547D01*
X32765292Y-48390649D01*
X32765296Y-48390653D01*
X32939251Y-48512456D01*
X32947266Y-48518068D01*
X32952177Y-48520358D01*
X33148594Y-48611950D01*
X33148600Y-48611952D01*
X33153504Y-48614239D01*
X33373308Y-48673135D01*
X33378693Y-48673606D01*
X33378698Y-48673607D01*
X33594605Y-48692496D01*
X33600000Y-48692968D01*
X33605395Y-48692496D01*
X33821302Y-48673607D01*
X33821307Y-48673606D01*
X33826692Y-48673135D01*
X34046496Y-48614239D01*
X34051400Y-48611952D01*
X34051406Y-48611950D01*
X34247823Y-48520358D01*
X34252734Y-48518068D01*
X34260749Y-48512456D01*
X34434704Y-48390653D01*
X34434708Y-48390649D01*
X34439139Y-48387547D01*
X34600047Y-48226639D01*
X34603149Y-48222208D01*
X34603153Y-48222204D01*
X34727460Y-48044673D01*
X34727461Y-48044671D01*
X34730568Y-48040234D01*
X34788828Y-47915296D01*
X34824450Y-47838906D01*
X34824452Y-47838900D01*
X34826739Y-47833996D01*
X34835848Y-47800000D01*
X35194540Y-47800000D01*
X35214326Y-47988256D01*
X35272821Y-48168284D01*
X35276068Y-48173909D01*
X35276069Y-48173910D01*
X35303952Y-48222204D01*
X35367467Y-48332216D01*
X35494129Y-48472888D01*
X35647270Y-48584151D01*
X35653206Y-48586794D01*
X35653208Y-48586795D01*
X35705221Y-48609953D01*
X35820197Y-48661144D01*
X35888161Y-48675590D01*
X35998991Y-48699148D01*
X35998996Y-48699148D01*
X36005354Y-48700500D01*
X36194646Y-48700500D01*
X36201004Y-48699148D01*
X36201009Y-48699148D01*
X36311839Y-48675590D01*
X36379803Y-48661144D01*
X36494779Y-48609953D01*
X36546792Y-48586795D01*
X36546794Y-48586794D01*
X36552730Y-48584151D01*
X36705871Y-48472888D01*
X36832533Y-48332216D01*
X36896048Y-48222204D01*
X36923931Y-48173910D01*
X36923932Y-48173909D01*
X36927179Y-48168284D01*
X36985674Y-47988256D01*
X37005460Y-47800000D01*
X36985674Y-47611744D01*
X36927179Y-47431716D01*
X36926138Y-47429913D01*
X39886161Y-47429913D01*
X39905947Y-47618169D01*
X39964442Y-47798197D01*
X39967689Y-47803822D01*
X39967690Y-47803823D01*
X39987945Y-47838906D01*
X40059088Y-47962129D01*
X40063434Y-47966956D01*
X40063435Y-47966957D01*
X40117129Y-48026590D01*
X40185750Y-48102801D01*
X40338891Y-48214064D01*
X40344827Y-48216707D01*
X40344829Y-48216708D01*
X40396842Y-48239866D01*
X40511818Y-48291057D01*
X40570377Y-48303504D01*
X40690612Y-48329061D01*
X40690617Y-48329061D01*
X40696975Y-48330413D01*
X40886267Y-48330413D01*
X40892625Y-48329061D01*
X40892630Y-48329061D01*
X41012865Y-48303504D01*
X41071424Y-48291057D01*
X41186400Y-48239866D01*
X41238413Y-48216708D01*
X41238415Y-48216707D01*
X41244351Y-48214064D01*
X41397492Y-48102801D01*
X41466113Y-48026590D01*
X41519807Y-47966957D01*
X41519808Y-47966956D01*
X41524154Y-47962129D01*
X41595297Y-47838906D01*
X41615552Y-47803823D01*
X41615553Y-47803822D01*
X41618800Y-47798197D01*
X41677295Y-47618169D01*
X41677519Y-47616040D01*
X41709947Y-47555980D01*
X41772260Y-47521956D01*
X41788150Y-47518578D01*
X41820924Y-47511612D01*
X41970526Y-47445004D01*
X41987913Y-47437263D01*
X41987915Y-47437262D01*
X41993851Y-47434619D01*
X42116658Y-47345395D01*
X42141733Y-47327177D01*
X42141734Y-47327176D01*
X42146992Y-47323356D01*
X42258063Y-47200000D01*
X43994540Y-47200000D01*
X44014326Y-47388256D01*
X44072821Y-47568284D01*
X44076068Y-47573909D01*
X44076069Y-47573910D01*
X44120144Y-47650250D01*
X44167467Y-47732216D01*
X44171813Y-47737043D01*
X44171814Y-47737044D01*
X44259110Y-47833996D01*
X44294129Y-47872888D01*
X44447270Y-47984151D01*
X44453206Y-47986794D01*
X44453208Y-47986795D01*
X44470368Y-47994435D01*
X44620197Y-48061144D01*
X44688637Y-48075691D01*
X44798991Y-48099148D01*
X44798996Y-48099148D01*
X44805354Y-48100500D01*
X44994646Y-48100500D01*
X45001004Y-48099148D01*
X45001009Y-48099148D01*
X45111363Y-48075691D01*
X45179803Y-48061144D01*
X45329632Y-47994435D01*
X45346792Y-47986795D01*
X45346794Y-47986794D01*
X45352730Y-47984151D01*
X45505871Y-47872888D01*
X45540890Y-47833996D01*
X45628186Y-47737044D01*
X45628187Y-47737043D01*
X45632533Y-47732216D01*
X45679856Y-47650250D01*
X45723931Y-47573910D01*
X45723932Y-47573909D01*
X45727179Y-47568284D01*
X45749366Y-47500000D01*
X53394540Y-47500000D01*
X53414326Y-47688256D01*
X53472821Y-47868284D01*
X53476068Y-47873909D01*
X53476069Y-47873910D01*
X53505793Y-47925394D01*
X53567467Y-48032216D01*
X53571813Y-48037043D01*
X53571814Y-48037044D01*
X53622256Y-48093065D01*
X53694129Y-48172888D01*
X53699387Y-48176708D01*
X53699388Y-48176709D01*
X53745544Y-48210243D01*
X53847270Y-48284151D01*
X53853206Y-48286794D01*
X53853208Y-48286795D01*
X53869301Y-48293960D01*
X54020197Y-48361144D01*
X54083804Y-48374664D01*
X54198991Y-48399148D01*
X54198996Y-48399148D01*
X54205354Y-48400500D01*
X54394646Y-48400500D01*
X54401004Y-48399148D01*
X54401009Y-48399148D01*
X54516196Y-48374664D01*
X54579803Y-48361144D01*
X54730699Y-48293960D01*
X54745209Y-48287500D01*
X55482040Y-48287500D01*
X55501826Y-48475756D01*
X55560321Y-48655784D01*
X55563568Y-48661409D01*
X55563569Y-48661410D01*
X55570611Y-48673607D01*
X55654967Y-48819716D01*
X55659313Y-48824543D01*
X55659314Y-48824544D01*
X55777280Y-48955558D01*
X55781629Y-48960388D01*
X55786887Y-48964208D01*
X55786888Y-48964209D01*
X55811261Y-48981917D01*
X55934770Y-49071651D01*
X56107697Y-49148644D01*
X56176137Y-49163191D01*
X56286491Y-49186648D01*
X56286496Y-49186648D01*
X56292854Y-49188000D01*
X56482146Y-49188000D01*
X56488504Y-49186648D01*
X56488509Y-49186648D01*
X56598863Y-49163191D01*
X56667303Y-49148644D01*
X56840230Y-49071651D01*
X56963739Y-48981917D01*
X56988112Y-48964209D01*
X56988113Y-48964208D01*
X56993371Y-48960388D01*
X56997720Y-48955558D01*
X57115686Y-48824544D01*
X57115687Y-48824543D01*
X57120033Y-48819716D01*
X57204389Y-48673607D01*
X57211431Y-48661410D01*
X57211432Y-48661409D01*
X57214679Y-48655784D01*
X57273174Y-48475756D01*
X57292960Y-48287500D01*
X57273174Y-48099244D01*
X57214679Y-47919216D01*
X57185274Y-47868284D01*
X57123281Y-47760910D01*
X57120033Y-47755284D01*
X57099263Y-47732216D01*
X56997720Y-47619442D01*
X56993371Y-47614612D01*
X56840230Y-47503349D01*
X56832709Y-47500000D01*
X56755816Y-47465765D01*
X56667303Y-47426356D01*
X56598863Y-47411809D01*
X56488509Y-47388352D01*
X56488504Y-47388352D01*
X56482146Y-47387000D01*
X56292854Y-47387000D01*
X56286496Y-47388352D01*
X56286491Y-47388352D01*
X56176137Y-47411809D01*
X56107697Y-47426356D01*
X56019184Y-47465765D01*
X55942292Y-47500000D01*
X55934770Y-47503349D01*
X55781629Y-47614612D01*
X55777280Y-47619442D01*
X55675738Y-47732216D01*
X55654967Y-47755284D01*
X55651719Y-47760910D01*
X55589727Y-47868284D01*
X55560321Y-47919216D01*
X55501826Y-48099244D01*
X55482040Y-48287500D01*
X54745209Y-48287500D01*
X54746792Y-48286795D01*
X54746794Y-48286794D01*
X54752730Y-48284151D01*
X54854456Y-48210243D01*
X54900612Y-48176709D01*
X54900613Y-48176708D01*
X54905871Y-48172888D01*
X54977744Y-48093065D01*
X55028186Y-48037044D01*
X55028187Y-48037043D01*
X55032533Y-48032216D01*
X55094207Y-47925394D01*
X55123931Y-47873910D01*
X55123932Y-47873909D01*
X55127179Y-47868284D01*
X55185674Y-47688256D01*
X55205460Y-47500000D01*
X55185674Y-47311744D01*
X55127179Y-47131716D01*
X55114632Y-47109983D01*
X55061959Y-47018752D01*
X55032533Y-46967784D01*
X55016971Y-46950500D01*
X54910220Y-46831942D01*
X54905871Y-46827112D01*
X54752730Y-46715849D01*
X54579803Y-46638856D01*
X54511363Y-46624309D01*
X54401009Y-46600852D01*
X54401004Y-46600852D01*
X54394646Y-46599500D01*
X54205354Y-46599500D01*
X54198996Y-46600852D01*
X54198991Y-46600852D01*
X54088637Y-46624309D01*
X54020197Y-46638856D01*
X53847270Y-46715849D01*
X53694129Y-46827112D01*
X53689780Y-46831942D01*
X53583030Y-46950500D01*
X53567467Y-46967784D01*
X53538041Y-47018752D01*
X53485369Y-47109983D01*
X53472821Y-47131716D01*
X53414326Y-47311744D01*
X53394540Y-47500000D01*
X45749366Y-47500000D01*
X45785674Y-47388256D01*
X45805460Y-47200000D01*
X45804781Y-47193539D01*
X45792337Y-47075137D01*
X45804907Y-47006407D01*
X45852639Y-46955384D01*
X45889877Y-46940886D01*
X45983214Y-46921047D01*
X46052882Y-46926363D01*
X46108615Y-46968500D01*
X46111170Y-46972394D01*
X46114219Y-46976590D01*
X46117467Y-46982216D01*
X46121813Y-46987043D01*
X46121814Y-46987044D01*
X46149872Y-47018205D01*
X46244129Y-47122888D01*
X46397270Y-47234151D01*
X46403206Y-47236794D01*
X46403208Y-47236795D01*
X46428640Y-47248118D01*
X46570197Y-47311144D01*
X46638637Y-47325691D01*
X46748991Y-47349148D01*
X46748996Y-47349148D01*
X46755354Y-47350500D01*
X46944646Y-47350500D01*
X46951004Y-47349148D01*
X46951009Y-47349148D01*
X47061363Y-47325691D01*
X47129803Y-47311144D01*
X47271360Y-47248118D01*
X47296792Y-47236795D01*
X47296794Y-47236794D01*
X47302730Y-47234151D01*
X47455871Y-47122888D01*
X47550128Y-47018205D01*
X47578186Y-46987044D01*
X47578187Y-46987043D01*
X47582533Y-46982216D01*
X47677179Y-46818284D01*
X47735674Y-46638256D01*
X47755460Y-46450000D01*
X47735674Y-46261744D01*
X47677179Y-46081716D01*
X47582533Y-45917784D01*
X47549449Y-45881040D01*
X47460220Y-45781942D01*
X47455871Y-45777112D01*
X47302730Y-45665849D01*
X47289405Y-45659916D01*
X47239067Y-45637504D01*
X47129803Y-45588856D01*
X47058203Y-45573637D01*
X46951009Y-45550852D01*
X46951004Y-45550852D01*
X46944646Y-45549500D01*
X46755354Y-45549500D01*
X46748996Y-45550852D01*
X46748991Y-45550852D01*
X46616786Y-45578953D01*
X46547118Y-45573637D01*
X46491385Y-45531500D01*
X46488830Y-45527606D01*
X46485780Y-45523409D01*
X46482533Y-45517784D01*
X46355871Y-45377112D01*
X46202730Y-45265849D01*
X46029803Y-45188856D01*
X45961363Y-45174309D01*
X45851009Y-45150852D01*
X45851004Y-45150852D01*
X45844646Y-45149500D01*
X45655354Y-45149500D01*
X45648996Y-45150852D01*
X45648991Y-45150852D01*
X45538637Y-45174309D01*
X45470197Y-45188856D01*
X45297270Y-45265849D01*
X45144129Y-45377112D01*
X45017467Y-45517784D01*
X45011796Y-45527606D01*
X44946039Y-45641502D01*
X44922821Y-45681716D01*
X44864326Y-45861744D01*
X44844540Y-46050000D01*
X44845219Y-46056460D01*
X44845219Y-46056461D01*
X44857663Y-46174863D01*
X44845093Y-46243593D01*
X44797361Y-46294616D01*
X44760123Y-46309114D01*
X44620197Y-46338856D01*
X44447270Y-46415849D01*
X44294129Y-46527112D01*
X44289780Y-46531942D01*
X44188491Y-46644435D01*
X44167467Y-46667784D01*
X44072821Y-46831716D01*
X44014326Y-47011744D01*
X43994540Y-47200000D01*
X42258063Y-47200000D01*
X42273654Y-47182684D01*
X42368300Y-47018752D01*
X42426795Y-46838724D01*
X42427532Y-46831716D01*
X42427549Y-46831557D01*
X42427704Y-46831179D01*
X42428826Y-46825903D01*
X42429791Y-46826108D01*
X42454135Y-46766944D01*
X42511434Y-46726961D01*
X42550869Y-46720523D01*
X42714669Y-46720523D01*
X42721027Y-46719171D01*
X42721032Y-46719171D01*
X42837404Y-46694435D01*
X42899826Y-46681167D01*
X43072753Y-46604174D01*
X43225894Y-46492911D01*
X43258715Y-46456460D01*
X43348209Y-46357067D01*
X43348210Y-46357066D01*
X43352556Y-46352239D01*
X43447202Y-46188307D01*
X43505697Y-46008279D01*
X43525483Y-45820023D01*
X43505697Y-45631767D01*
X43447202Y-45451739D01*
X43352556Y-45287807D01*
X43225894Y-45147135D01*
X43165628Y-45103349D01*
X43078012Y-45039693D01*
X43078013Y-45039693D01*
X43072753Y-45035872D01*
X42899826Y-44958879D01*
X42831386Y-44944332D01*
X42721032Y-44920875D01*
X42721027Y-44920875D01*
X42714669Y-44919523D01*
X42525377Y-44919523D01*
X42519019Y-44920875D01*
X42519014Y-44920875D01*
X42408660Y-44944332D01*
X42340220Y-44958879D01*
X42167293Y-45035872D01*
X42162033Y-45039693D01*
X42162034Y-45039693D01*
X42074419Y-45103349D01*
X42014152Y-45147135D01*
X41887490Y-45287807D01*
X41792844Y-45451739D01*
X41734349Y-45631767D01*
X41733670Y-45638228D01*
X41733669Y-45638234D01*
X41733595Y-45638934D01*
X41733440Y-45639312D01*
X41732318Y-45644588D01*
X41731353Y-45644383D01*
X41707009Y-45703547D01*
X41649710Y-45743530D01*
X41610275Y-45749968D01*
X41446475Y-45749968D01*
X41440117Y-45751320D01*
X41440112Y-45751320D01*
X41362200Y-45767881D01*
X41261318Y-45789324D01*
X41088391Y-45866317D01*
X41068125Y-45881041D01*
X40940990Y-45973410D01*
X40935250Y-45977580D01*
X40930901Y-45982410D01*
X40835923Y-46087894D01*
X40808588Y-46118252D01*
X40713942Y-46282184D01*
X40655447Y-46462212D01*
X40655223Y-46464341D01*
X40622795Y-46524401D01*
X40560482Y-46558425D01*
X40544592Y-46561803D01*
X40511818Y-46568769D01*
X40432298Y-46604174D01*
X40355750Y-46638256D01*
X40338891Y-46645762D01*
X40308580Y-46667784D01*
X40195425Y-46749996D01*
X40185750Y-46757025D01*
X40059088Y-46897697D01*
X40021411Y-46962956D01*
X39981424Y-47032216D01*
X39964442Y-47061629D01*
X39905947Y-47241657D01*
X39886161Y-47429913D01*
X36926138Y-47429913D01*
X36922409Y-47423453D01*
X36861829Y-47318526D01*
X36832533Y-47267784D01*
X36801188Y-47232972D01*
X36770958Y-47169981D01*
X36779583Y-47100646D01*
X36801188Y-47067028D01*
X36828186Y-47037044D01*
X36828187Y-47037043D01*
X36832533Y-47032216D01*
X36906949Y-46903323D01*
X36923931Y-46873910D01*
X36923932Y-46873909D01*
X36927179Y-46868284D01*
X36985674Y-46688256D01*
X37005460Y-46500000D01*
X36985674Y-46311744D01*
X36927179Y-46131716D01*
X36898767Y-46082504D01*
X36855913Y-46008279D01*
X36832533Y-45967784D01*
X36760245Y-45887500D01*
X38407040Y-45887500D01*
X38426826Y-46075756D01*
X38485321Y-46255784D01*
X38579967Y-46419716D01*
X38584313Y-46424543D01*
X38584314Y-46424544D01*
X38627975Y-46473034D01*
X38706629Y-46560388D01*
X38711887Y-46564208D01*
X38711888Y-46564209D01*
X38770535Y-46606818D01*
X38859770Y-46671651D01*
X38865706Y-46674294D01*
X38865708Y-46674295D01*
X38897065Y-46688256D01*
X39032697Y-46748644D01*
X39101137Y-46763191D01*
X39211491Y-46786648D01*
X39211496Y-46786648D01*
X39217854Y-46788000D01*
X39407146Y-46788000D01*
X39413504Y-46786648D01*
X39413509Y-46786648D01*
X39523863Y-46763191D01*
X39592303Y-46748644D01*
X39727935Y-46688256D01*
X39759292Y-46674295D01*
X39759294Y-46674294D01*
X39765230Y-46671651D01*
X39854465Y-46606818D01*
X39913112Y-46564209D01*
X39913113Y-46564208D01*
X39918371Y-46560388D01*
X39997025Y-46473034D01*
X40040686Y-46424544D01*
X40040687Y-46424543D01*
X40045033Y-46419716D01*
X40139679Y-46255784D01*
X40198174Y-46075756D01*
X40217960Y-45887500D01*
X40205946Y-45773194D01*
X40218515Y-45704466D01*
X40256382Y-45659916D01*
X40388112Y-45564209D01*
X40388113Y-45564208D01*
X40393371Y-45560388D01*
X40520033Y-45419716D01*
X40610130Y-45263663D01*
X40611431Y-45261410D01*
X40611432Y-45261409D01*
X40614679Y-45255784D01*
X40673174Y-45075756D01*
X40692960Y-44887500D01*
X40673174Y-44699244D01*
X40614679Y-44519216D01*
X40520033Y-44355284D01*
X40467185Y-44296590D01*
X40436955Y-44233598D01*
X40441404Y-44175300D01*
X40464564Y-44104020D01*
X40464564Y-44104019D01*
X40466572Y-44097840D01*
X40486358Y-43909584D01*
X40466572Y-43721328D01*
X40408077Y-43541300D01*
X40384233Y-43500000D01*
X44594540Y-43500000D01*
X44614326Y-43688256D01*
X44672821Y-43868284D01*
X44676068Y-43873909D01*
X44676069Y-43873910D01*
X44700395Y-43916044D01*
X44767467Y-44032216D01*
X44894129Y-44172888D01*
X45047270Y-44284151D01*
X45220197Y-44361144D01*
X45288637Y-44375691D01*
X45398991Y-44399148D01*
X45398996Y-44399148D01*
X45405354Y-44400500D01*
X45594646Y-44400500D01*
X45601004Y-44399148D01*
X45601009Y-44399148D01*
X45711363Y-44375691D01*
X45779803Y-44361144D01*
X45952730Y-44284151D01*
X46105871Y-44172888D01*
X46232533Y-44032216D01*
X46299605Y-43916044D01*
X46323931Y-43873910D01*
X46323932Y-43873909D01*
X46327179Y-43868284D01*
X46385674Y-43688256D01*
X46405460Y-43500000D01*
X46393636Y-43387500D01*
X51294532Y-43387500D01*
X51295004Y-43392895D01*
X51307988Y-43541300D01*
X51314365Y-43614192D01*
X51373261Y-43833996D01*
X51375548Y-43838900D01*
X51375550Y-43838906D01*
X51391873Y-43873910D01*
X51469432Y-44040234D01*
X51472539Y-44044671D01*
X51472540Y-44044673D01*
X51596847Y-44222204D01*
X51596851Y-44222208D01*
X51599953Y-44226639D01*
X51760861Y-44387547D01*
X51765292Y-44390649D01*
X51765296Y-44390653D01*
X51942827Y-44514960D01*
X51947266Y-44518068D01*
X51952177Y-44520358D01*
X52148594Y-44611950D01*
X52148600Y-44611952D01*
X52153504Y-44614239D01*
X52373308Y-44673135D01*
X52378693Y-44673606D01*
X52378698Y-44673607D01*
X52594605Y-44692496D01*
X52600000Y-44692968D01*
X52605395Y-44692496D01*
X52821302Y-44673607D01*
X52821307Y-44673606D01*
X52826692Y-44673135D01*
X53046496Y-44614239D01*
X53051400Y-44611952D01*
X53051406Y-44611950D01*
X53247823Y-44520358D01*
X53252734Y-44518068D01*
X53257173Y-44514960D01*
X53434704Y-44390653D01*
X53434708Y-44390649D01*
X53439139Y-44387547D01*
X53600047Y-44226639D01*
X53603149Y-44222208D01*
X53603153Y-44222204D01*
X53727460Y-44044673D01*
X53727461Y-44044671D01*
X53730568Y-44040234D01*
X53808127Y-43873910D01*
X53824450Y-43838906D01*
X53824452Y-43838900D01*
X53826739Y-43833996D01*
X53885635Y-43614192D01*
X53892013Y-43541300D01*
X53904996Y-43392895D01*
X53905468Y-43387500D01*
X56294532Y-43387500D01*
X56295004Y-43392895D01*
X56307988Y-43541300D01*
X56314365Y-43614192D01*
X56373261Y-43833996D01*
X56375548Y-43838900D01*
X56375550Y-43838906D01*
X56391873Y-43873910D01*
X56469432Y-44040234D01*
X56472539Y-44044671D01*
X56472540Y-44044673D01*
X56596847Y-44222204D01*
X56596851Y-44222208D01*
X56599953Y-44226639D01*
X56760861Y-44387547D01*
X56765292Y-44390649D01*
X56765296Y-44390653D01*
X56942827Y-44514960D01*
X56947266Y-44518068D01*
X56952177Y-44520358D01*
X57148594Y-44611950D01*
X57148600Y-44611952D01*
X57153504Y-44614239D01*
X57373308Y-44673135D01*
X57378693Y-44673606D01*
X57378698Y-44673607D01*
X57594605Y-44692496D01*
X57600000Y-44692968D01*
X57605395Y-44692496D01*
X57821302Y-44673607D01*
X57821307Y-44673606D01*
X57826692Y-44673135D01*
X58046496Y-44614239D01*
X58051400Y-44611952D01*
X58051406Y-44611950D01*
X58247823Y-44520358D01*
X58252734Y-44518068D01*
X58257173Y-44514960D01*
X58434704Y-44390653D01*
X58434708Y-44390649D01*
X58439139Y-44387547D01*
X58600047Y-44226639D01*
X58603149Y-44222208D01*
X58603153Y-44222204D01*
X58727460Y-44044673D01*
X58727461Y-44044671D01*
X58730568Y-44040234D01*
X58808127Y-43873910D01*
X58824450Y-43838906D01*
X58824452Y-43838900D01*
X58826739Y-43833996D01*
X58885635Y-43614192D01*
X58892013Y-43541300D01*
X58904996Y-43392895D01*
X58905468Y-43387500D01*
X58902608Y-43354808D01*
X58886107Y-43166198D01*
X58886106Y-43166193D01*
X58885635Y-43160808D01*
X58826739Y-42941004D01*
X58824452Y-42936100D01*
X58824450Y-42936094D01*
X58732858Y-42739677D01*
X58730568Y-42734766D01*
X58719998Y-42719670D01*
X58603153Y-42552796D01*
X58603149Y-42552792D01*
X58600047Y-42548361D01*
X58439139Y-42387453D01*
X58434708Y-42384351D01*
X58434704Y-42384347D01*
X58257173Y-42260040D01*
X58257171Y-42260039D01*
X58252734Y-42256932D01*
X58211907Y-42237894D01*
X58051406Y-42163050D01*
X58051400Y-42163048D01*
X58046496Y-42160761D01*
X57826692Y-42101865D01*
X57821307Y-42101394D01*
X57821302Y-42101393D01*
X57605395Y-42082504D01*
X57600000Y-42082032D01*
X57594605Y-42082504D01*
X57378698Y-42101393D01*
X57378693Y-42101394D01*
X57373308Y-42101865D01*
X57153504Y-42160761D01*
X57148600Y-42163048D01*
X57148594Y-42163050D01*
X56988093Y-42237894D01*
X56947266Y-42256932D01*
X56942829Y-42260039D01*
X56942827Y-42260040D01*
X56765296Y-42384347D01*
X56765292Y-42384351D01*
X56760861Y-42387453D01*
X56599953Y-42548361D01*
X56596851Y-42552792D01*
X56596847Y-42552796D01*
X56480002Y-42719670D01*
X56469432Y-42734766D01*
X56467142Y-42739677D01*
X56375550Y-42936094D01*
X56375548Y-42936100D01*
X56373261Y-42941004D01*
X56314365Y-43160808D01*
X56313894Y-43166193D01*
X56313893Y-43166198D01*
X56297392Y-43354808D01*
X56294532Y-43387500D01*
X53905468Y-43387500D01*
X53902608Y-43354808D01*
X53886107Y-43166198D01*
X53886106Y-43166193D01*
X53885635Y-43160808D01*
X53826739Y-42941004D01*
X53824452Y-42936100D01*
X53824450Y-42936094D01*
X53732858Y-42739677D01*
X53730568Y-42734766D01*
X53719998Y-42719670D01*
X53603153Y-42552796D01*
X53603149Y-42552792D01*
X53600047Y-42548361D01*
X53439139Y-42387453D01*
X53434708Y-42384351D01*
X53434704Y-42384347D01*
X53257173Y-42260040D01*
X53257171Y-42260039D01*
X53252734Y-42256932D01*
X53211907Y-42237894D01*
X53051406Y-42163050D01*
X53051400Y-42163048D01*
X53046496Y-42160761D01*
X52826692Y-42101865D01*
X52821307Y-42101394D01*
X52821302Y-42101393D01*
X52605395Y-42082504D01*
X52600000Y-42082032D01*
X52594605Y-42082504D01*
X52378698Y-42101393D01*
X52378693Y-42101394D01*
X52373308Y-42101865D01*
X52153504Y-42160761D01*
X52148600Y-42163048D01*
X52148594Y-42163050D01*
X51988093Y-42237894D01*
X51947266Y-42256932D01*
X51942829Y-42260039D01*
X51942827Y-42260040D01*
X51765296Y-42384347D01*
X51765292Y-42384351D01*
X51760861Y-42387453D01*
X51599953Y-42548361D01*
X51596851Y-42552792D01*
X51596847Y-42552796D01*
X51480002Y-42719670D01*
X51469432Y-42734766D01*
X51467142Y-42739677D01*
X51375550Y-42936094D01*
X51375548Y-42936100D01*
X51373261Y-42941004D01*
X51314365Y-43160808D01*
X51313894Y-43166193D01*
X51313893Y-43166198D01*
X51297392Y-43354808D01*
X51294532Y-43387500D01*
X46393636Y-43387500D01*
X46385674Y-43311744D01*
X46327179Y-43131716D01*
X46232533Y-42967784D01*
X46227421Y-42962106D01*
X46110220Y-42831942D01*
X46105871Y-42827112D01*
X45952730Y-42715849D01*
X45779803Y-42638856D01*
X45711363Y-42624309D01*
X45601009Y-42600852D01*
X45601004Y-42600852D01*
X45594646Y-42599500D01*
X45405354Y-42599500D01*
X45398996Y-42600852D01*
X45398991Y-42600852D01*
X45288637Y-42624309D01*
X45220197Y-42638856D01*
X45047270Y-42715849D01*
X44894129Y-42827112D01*
X44889780Y-42831942D01*
X44772580Y-42962106D01*
X44767467Y-42967784D01*
X44672821Y-43131716D01*
X44614326Y-43311744D01*
X44594540Y-43500000D01*
X40384233Y-43500000D01*
X40354077Y-43447769D01*
X40337604Y-43379869D01*
X40360457Y-43313842D01*
X40388578Y-43285452D01*
X40405871Y-43272888D01*
X40441897Y-43232877D01*
X40528186Y-43137044D01*
X40528187Y-43137043D01*
X40532533Y-43132216D01*
X40627179Y-42968284D01*
X40685674Y-42788256D01*
X40705460Y-42600000D01*
X40685674Y-42411744D01*
X40627179Y-42231716D01*
X40532533Y-42067784D01*
X40405871Y-41927112D01*
X40252730Y-41815849D01*
X40079803Y-41738856D01*
X40011363Y-41724309D01*
X39901009Y-41700852D01*
X39901004Y-41700852D01*
X39894646Y-41699500D01*
X39705354Y-41699500D01*
X39698996Y-41700852D01*
X39698991Y-41700852D01*
X39588637Y-41724309D01*
X39520197Y-41738856D01*
X39347270Y-41815849D01*
X39194129Y-41927112D01*
X39067467Y-42067784D01*
X38972821Y-42231716D01*
X38914326Y-42411744D01*
X38894540Y-42600000D01*
X38914326Y-42788256D01*
X38972821Y-42968284D01*
X38976068Y-42973909D01*
X38976069Y-42973910D01*
X39026821Y-43061815D01*
X39043294Y-43129715D01*
X39020441Y-43195742D01*
X38992320Y-43224132D01*
X38975027Y-43236696D01*
X38970678Y-43241526D01*
X38931129Y-43285450D01*
X38848365Y-43377368D01*
X38820235Y-43426090D01*
X38777564Y-43500000D01*
X38753719Y-43541300D01*
X38695224Y-43721328D01*
X38675438Y-43909584D01*
X38695224Y-44097840D01*
X38753719Y-44277868D01*
X38848365Y-44441800D01*
X38852711Y-44446627D01*
X38852712Y-44446628D01*
X38901213Y-44500494D01*
X38931443Y-44563486D01*
X38926994Y-44621784D01*
X38901826Y-44699244D01*
X38882040Y-44887500D01*
X38882719Y-44893959D01*
X38894054Y-45001804D01*
X38881485Y-45070534D01*
X38843618Y-45115084D01*
X38792856Y-45151965D01*
X38706629Y-45214612D01*
X38702280Y-45219442D01*
X38662876Y-45263205D01*
X38579967Y-45355284D01*
X38485321Y-45519216D01*
X38426826Y-45699244D01*
X38407040Y-45887500D01*
X36760245Y-45887500D01*
X36741172Y-45866317D01*
X36710220Y-45831942D01*
X36705871Y-45827112D01*
X36552730Y-45715849D01*
X36529947Y-45705705D01*
X36452899Y-45671401D01*
X36379803Y-45638856D01*
X36311363Y-45624309D01*
X36201009Y-45600852D01*
X36201004Y-45600852D01*
X36194646Y-45599500D01*
X36005354Y-45599500D01*
X35998996Y-45600852D01*
X35998991Y-45600852D01*
X35888637Y-45624309D01*
X35820197Y-45638856D01*
X35747101Y-45671401D01*
X35670054Y-45705705D01*
X35647270Y-45715849D01*
X35494129Y-45827112D01*
X35489780Y-45831942D01*
X35458829Y-45866317D01*
X35367467Y-45967784D01*
X35344087Y-46008279D01*
X35301234Y-46082504D01*
X35272821Y-46131716D01*
X35214326Y-46311744D01*
X35194540Y-46500000D01*
X35214326Y-46688256D01*
X35272821Y-46868284D01*
X35276068Y-46873909D01*
X35276069Y-46873910D01*
X35293051Y-46903323D01*
X35367467Y-47032216D01*
X35371813Y-47037043D01*
X35371814Y-47037044D01*
X35398812Y-47067028D01*
X35429042Y-47130019D01*
X35420417Y-47199354D01*
X35398812Y-47232971D01*
X35367467Y-47267784D01*
X35338171Y-47318526D01*
X35277592Y-47423453D01*
X35272821Y-47431716D01*
X35214326Y-47611744D01*
X35194540Y-47800000D01*
X34835848Y-47800000D01*
X34885635Y-47614192D01*
X34889029Y-47575408D01*
X34904996Y-47392895D01*
X34905468Y-47387500D01*
X34900840Y-47334605D01*
X34886107Y-47166198D01*
X34886106Y-47166193D01*
X34885635Y-47160808D01*
X34826739Y-46941004D01*
X34824452Y-46936100D01*
X34824450Y-46936094D01*
X34732858Y-46739677D01*
X34730568Y-46734766D01*
X34719998Y-46719670D01*
X34603153Y-46552796D01*
X34603149Y-46552792D01*
X34600047Y-46548361D01*
X34439139Y-46387453D01*
X34434708Y-46384351D01*
X34434704Y-46384347D01*
X34257173Y-46260040D01*
X34257171Y-46260039D01*
X34252734Y-46256932D01*
X34224129Y-46243593D01*
X34051406Y-46163050D01*
X34051400Y-46163048D01*
X34046496Y-46160761D01*
X33826692Y-46101865D01*
X33821307Y-46101394D01*
X33821302Y-46101393D01*
X33605395Y-46082504D01*
X33600000Y-46082032D01*
X33594605Y-46082504D01*
X33378698Y-46101393D01*
X33378693Y-46101394D01*
X33373308Y-46101865D01*
X33153504Y-46160761D01*
X33148600Y-46163048D01*
X33148594Y-46163050D01*
X32975871Y-46243593D01*
X32947266Y-46256932D01*
X32942829Y-46260039D01*
X32942827Y-46260040D01*
X32765296Y-46384347D01*
X32765292Y-46384351D01*
X32760861Y-46387453D01*
X32599953Y-46548361D01*
X32596851Y-46552792D01*
X32596847Y-46552796D01*
X32480002Y-46719670D01*
X32469432Y-46734766D01*
X32467142Y-46739677D01*
X32375550Y-46936094D01*
X32375548Y-46936100D01*
X32373261Y-46941004D01*
X32314365Y-47160808D01*
X32313894Y-47166193D01*
X32313893Y-47166198D01*
X32299160Y-47334605D01*
X32294532Y-47387500D01*
X25651503Y-47387500D01*
X25655187Y-47345395D01*
X25655659Y-47340000D01*
X25646064Y-47230330D01*
X25635535Y-47109983D01*
X25635534Y-47109979D01*
X25635063Y-47104592D01*
X25603567Y-46987044D01*
X25575305Y-46881570D01*
X25573903Y-46876337D01*
X25571616Y-46871433D01*
X25571614Y-46871427D01*
X25476325Y-46667082D01*
X25474035Y-46662171D01*
X25465221Y-46649583D01*
X25341601Y-46473034D01*
X25341597Y-46473030D01*
X25338495Y-46468599D01*
X25171401Y-46301505D01*
X24985842Y-46171575D01*
X24942218Y-46116998D01*
X24935025Y-46047499D01*
X24966547Y-45985145D01*
X24985842Y-45968425D01*
X25050130Y-45923410D01*
X25171401Y-45838495D01*
X25338495Y-45671401D01*
X25341597Y-45666970D01*
X25341601Y-45666966D01*
X25470927Y-45482268D01*
X25470928Y-45482266D01*
X25474035Y-45477829D01*
X25518748Y-45381942D01*
X25571614Y-45268573D01*
X25571616Y-45268567D01*
X25573903Y-45263663D01*
X25613714Y-45115084D01*
X25633663Y-45040634D01*
X25633664Y-45040631D01*
X25635063Y-45035408D01*
X25647439Y-44893960D01*
X25655187Y-44805395D01*
X25655659Y-44800000D01*
X25646844Y-44699244D01*
X25635535Y-44569983D01*
X25635534Y-44569979D01*
X25635063Y-44564592D01*
X25621765Y-44514960D01*
X25588457Y-44390653D01*
X25573903Y-44336337D01*
X25571616Y-44331433D01*
X25571614Y-44331427D01*
X25476325Y-44127082D01*
X25474035Y-44122171D01*
X25461325Y-44104019D01*
X25341601Y-43933034D01*
X25341597Y-43933030D01*
X25338495Y-43928599D01*
X25209896Y-43800000D01*
X32894540Y-43800000D01*
X32914326Y-43988256D01*
X32972821Y-44168284D01*
X33067467Y-44332216D01*
X33071813Y-44337043D01*
X33071814Y-44337044D01*
X33091131Y-44358498D01*
X33194129Y-44472888D01*
X33199387Y-44476708D01*
X33199388Y-44476709D01*
X33250151Y-44513590D01*
X33347270Y-44584151D01*
X33520197Y-44661144D01*
X33588637Y-44675691D01*
X33698991Y-44699148D01*
X33698996Y-44699148D01*
X33705354Y-44700500D01*
X33894646Y-44700500D01*
X33901004Y-44699148D01*
X33901009Y-44699148D01*
X34011363Y-44675691D01*
X34079803Y-44661144D01*
X34252730Y-44584151D01*
X34349849Y-44513590D01*
X34400612Y-44476709D01*
X34400613Y-44476708D01*
X34405871Y-44472888D01*
X34508869Y-44358498D01*
X34528186Y-44337044D01*
X34528187Y-44337043D01*
X34532533Y-44332216D01*
X34627179Y-44168284D01*
X34685674Y-43988256D01*
X34705460Y-43800000D01*
X34685674Y-43611744D01*
X34627179Y-43431716D01*
X34532533Y-43267784D01*
X34431507Y-43155583D01*
X34410220Y-43131942D01*
X34405871Y-43127112D01*
X34252730Y-43015849D01*
X34079803Y-42938856D01*
X34011363Y-42924309D01*
X33901009Y-42900852D01*
X33901004Y-42900852D01*
X33894646Y-42899500D01*
X33705354Y-42899500D01*
X33698996Y-42900852D01*
X33698991Y-42900852D01*
X33588637Y-42924309D01*
X33520197Y-42938856D01*
X33347270Y-43015849D01*
X33194129Y-43127112D01*
X33189780Y-43131942D01*
X33168494Y-43155583D01*
X33067467Y-43267784D01*
X32972821Y-43431716D01*
X32914326Y-43611744D01*
X32894540Y-43800000D01*
X25209896Y-43800000D01*
X25171401Y-43761505D01*
X24977830Y-43625965D01*
X24763663Y-43526097D01*
X24679863Y-43503643D01*
X24540634Y-43466337D01*
X24540631Y-43466336D01*
X24535408Y-43464937D01*
X24530021Y-43464466D01*
X24530017Y-43464465D01*
X24305395Y-43444813D01*
X24300000Y-43444341D01*
X24294605Y-43444813D01*
X24069983Y-43464465D01*
X24069979Y-43464466D01*
X24064592Y-43464937D01*
X24059369Y-43466336D01*
X24059366Y-43466337D01*
X23920137Y-43503643D01*
X23836337Y-43526097D01*
X23831433Y-43528384D01*
X23831427Y-43528386D01*
X23658977Y-43608802D01*
X23622171Y-43625965D01*
X23617734Y-43629072D01*
X23617732Y-43629073D01*
X23433034Y-43758399D01*
X23433033Y-43758400D01*
X23428599Y-43761505D01*
X23261505Y-43928599D01*
X23258403Y-43933030D01*
X23258399Y-43933034D01*
X23138675Y-44104019D01*
X23125965Y-44122171D01*
X23123675Y-44127082D01*
X23028386Y-44331427D01*
X23028384Y-44331433D01*
X23026097Y-44336337D01*
X23011543Y-44390653D01*
X22978236Y-44514960D01*
X22964937Y-44564592D01*
X22964466Y-44569979D01*
X22964465Y-44569983D01*
X22953156Y-44699244D01*
X22944341Y-44800000D01*
X22944813Y-44805395D01*
X22952562Y-44893960D01*
X22964937Y-45035408D01*
X22966336Y-45040631D01*
X22966337Y-45040634D01*
X22986286Y-45115084D01*
X23026097Y-45263663D01*
X23028384Y-45268567D01*
X23028386Y-45268573D01*
X23081252Y-45381942D01*
X23125965Y-45477829D01*
X23129072Y-45482266D01*
X23129073Y-45482268D01*
X23258399Y-45666966D01*
X23258403Y-45666970D01*
X23261505Y-45671401D01*
X23428599Y-45838495D01*
X23507811Y-45893960D01*
X23614159Y-45968426D01*
X23657783Y-46023003D01*
X23664976Y-46092502D01*
X23633454Y-46154856D01*
X23614160Y-46171575D01*
X23558822Y-46210322D01*
X23433034Y-46298399D01*
X23433033Y-46298400D01*
X23428599Y-46301505D01*
X23261505Y-46468599D01*
X23258403Y-46473030D01*
X23258399Y-46473034D01*
X23134779Y-46649583D01*
X23125965Y-46662171D01*
X23123675Y-46667082D01*
X23028386Y-46871427D01*
X23028384Y-46871433D01*
X23026097Y-46876337D01*
X23024695Y-46881570D01*
X22996434Y-46987044D01*
X22964937Y-47104592D01*
X22964466Y-47109979D01*
X22964465Y-47109983D01*
X22953936Y-47230330D01*
X22944341Y-47340000D01*
X22944813Y-47345395D01*
X22964314Y-47568284D01*
X22964937Y-47575408D01*
X22966336Y-47580631D01*
X22966337Y-47580634D01*
X22976404Y-47618205D01*
X23026097Y-47803663D01*
X23028384Y-47808567D01*
X23028386Y-47808573D01*
X23097368Y-47956503D01*
X23125965Y-48017829D01*
X23129072Y-48022266D01*
X23129073Y-48022268D01*
X23258399Y-48206966D01*
X23258403Y-48206970D01*
X23261505Y-48211401D01*
X23428599Y-48378495D01*
X23529950Y-48449462D01*
X23614159Y-48508426D01*
X23657783Y-48563003D01*
X23664976Y-48632502D01*
X23633454Y-48694856D01*
X23614158Y-48711576D01*
X23433034Y-48838399D01*
X23433033Y-48838400D01*
X23428599Y-48841505D01*
X23261505Y-49008599D01*
X23258403Y-49013030D01*
X23258399Y-49013034D01*
X23129073Y-49197732D01*
X23125965Y-49202171D01*
X23123675Y-49207082D01*
X23028386Y-49411427D01*
X23028384Y-49411433D01*
X23026097Y-49416337D01*
X23024695Y-49421570D01*
X22969621Y-49627112D01*
X22964937Y-49644592D01*
X22964466Y-49649979D01*
X22964465Y-49649983D01*
X22947585Y-49842922D01*
X22944341Y-49880000D01*
X22944813Y-49885395D01*
X22964076Y-50105565D01*
X22964937Y-50115408D01*
X23026097Y-50343663D01*
X23028384Y-50348567D01*
X23028386Y-50348573D01*
X23090509Y-50481795D01*
X23125965Y-50557829D01*
X23129072Y-50562266D01*
X23129073Y-50562268D01*
X23258399Y-50746966D01*
X23258403Y-50746970D01*
X23261505Y-50751401D01*
X23428599Y-50918495D01*
X23499382Y-50968058D01*
X23614159Y-51048426D01*
X23657783Y-51103003D01*
X23664976Y-51172502D01*
X23633454Y-51234856D01*
X23614158Y-51251576D01*
X23433034Y-51378399D01*
X23433033Y-51378400D01*
X23428599Y-51381505D01*
X23261505Y-51548599D01*
X23258403Y-51553030D01*
X23258399Y-51553034D01*
X23165230Y-51686094D01*
X23125965Y-51742171D01*
X23123675Y-51747082D01*
X23028386Y-51951427D01*
X23028384Y-51951433D01*
X23026097Y-51956337D01*
X23024695Y-51961570D01*
X22976110Y-52142895D01*
X22964937Y-52184592D01*
X22964466Y-52189979D01*
X22964465Y-52189983D01*
X22946135Y-52399500D01*
X22944341Y-52420000D01*
X22944813Y-52425395D01*
X22959119Y-52588906D01*
X22964937Y-52655408D01*
X23026097Y-52883663D01*
X23028384Y-52888567D01*
X23028386Y-52888573D01*
X23071238Y-52980468D01*
X23125965Y-53097829D01*
X23129072Y-53102266D01*
X23129073Y-53102268D01*
X23258399Y-53286966D01*
X23258403Y-53286970D01*
X23261505Y-53291401D01*
X23428599Y-53458495D01*
X23461875Y-53481795D01*
X23614159Y-53588426D01*
X23657783Y-53643003D01*
X23664976Y-53712502D01*
X23633454Y-53774856D01*
X23614158Y-53791576D01*
X23433034Y-53918399D01*
X23433033Y-53918400D01*
X23428599Y-53921505D01*
X23261505Y-54088599D01*
X23258403Y-54093030D01*
X23258399Y-54093034D01*
X23209374Y-54163050D01*
X23125965Y-54282171D01*
X23123675Y-54287082D01*
X23028386Y-54491427D01*
X23028384Y-54491433D01*
X23026097Y-54496337D01*
X23024695Y-54501570D01*
X22972535Y-54696237D01*
X22964937Y-54724592D01*
X22944341Y-54960000D01*
X20500500Y-54960000D01*
X20500500Y-38968440D01*
X27004770Y-38968440D01*
X27005141Y-38974102D01*
X27005141Y-38974106D01*
X27010974Y-39063098D01*
X27019200Y-39188604D01*
X27073511Y-39402452D01*
X27165883Y-39602821D01*
X27203589Y-39656174D01*
X27269899Y-39750000D01*
X27293222Y-39783002D01*
X27297293Y-39786968D01*
X27297294Y-39786969D01*
X27447190Y-39932993D01*
X27447195Y-39932997D01*
X27451264Y-39936961D01*
X27455987Y-39940117D01*
X27455991Y-39940120D01*
X27540185Y-39996376D01*
X27634717Y-40059540D01*
X27837436Y-40146635D01*
X27942913Y-40170502D01*
X28047085Y-40194074D01*
X28047087Y-40194074D01*
X28052632Y-40195329D01*
X28190457Y-40200744D01*
X28267418Y-40203768D01*
X28267420Y-40203768D01*
X28273098Y-40203991D01*
X28278718Y-40203176D01*
X28278721Y-40203176D01*
X28485826Y-40173147D01*
X28485829Y-40173146D01*
X28491452Y-40172331D01*
X28598477Y-40136001D01*
X28694989Y-40103240D01*
X28694992Y-40103239D01*
X28700379Y-40101410D01*
X28892884Y-39993602D01*
X29062518Y-39852518D01*
X29120334Y-39783002D01*
X29199971Y-39687250D01*
X29199972Y-39687249D01*
X29203602Y-39682884D01*
X29223054Y-39648151D01*
X29308631Y-39495341D01*
X29311410Y-39490379D01*
X29333362Y-39425712D01*
X29380502Y-39286839D01*
X29382331Y-39281452D01*
X29413991Y-39063098D01*
X29415643Y-39000000D01*
X29412743Y-38968440D01*
X32084770Y-38968440D01*
X32085141Y-38974102D01*
X32085141Y-38974106D01*
X32090974Y-39063098D01*
X32099200Y-39188604D01*
X32153511Y-39402452D01*
X32245883Y-39602821D01*
X32283589Y-39656174D01*
X32349899Y-39750000D01*
X32373222Y-39783002D01*
X32377293Y-39786968D01*
X32377294Y-39786969D01*
X32527190Y-39932993D01*
X32527195Y-39932997D01*
X32531264Y-39936961D01*
X32535987Y-39940117D01*
X32535991Y-39940120D01*
X32620185Y-39996376D01*
X32714717Y-40059540D01*
X32917436Y-40146635D01*
X33022913Y-40170502D01*
X33127085Y-40194074D01*
X33127087Y-40194074D01*
X33132632Y-40195329D01*
X33270457Y-40200744D01*
X33347418Y-40203768D01*
X33347420Y-40203768D01*
X33353098Y-40203991D01*
X33358718Y-40203176D01*
X33358721Y-40203176D01*
X33565826Y-40173147D01*
X33565829Y-40173146D01*
X33571452Y-40172331D01*
X33678477Y-40136001D01*
X33774989Y-40103240D01*
X33774992Y-40103239D01*
X33780379Y-40101410D01*
X33972884Y-39993602D01*
X34142518Y-39852518D01*
X34200334Y-39783002D01*
X34227782Y-39750000D01*
X53794532Y-39750000D01*
X53795004Y-39755395D01*
X53810542Y-39932993D01*
X53814365Y-39976692D01*
X53873261Y-40196496D01*
X53875548Y-40201400D01*
X53875550Y-40201406D01*
X53959652Y-40381761D01*
X53969432Y-40402734D01*
X53972539Y-40407171D01*
X53972540Y-40407173D01*
X54096847Y-40584704D01*
X54096851Y-40584708D01*
X54099953Y-40589139D01*
X54260861Y-40750047D01*
X54265292Y-40753149D01*
X54265296Y-40753153D01*
X54442827Y-40877460D01*
X54447266Y-40880568D01*
X54452177Y-40882858D01*
X54648594Y-40974450D01*
X54648600Y-40974452D01*
X54653504Y-40976739D01*
X54873308Y-41035635D01*
X54878693Y-41036106D01*
X54878698Y-41036107D01*
X55094605Y-41054996D01*
X55100000Y-41055468D01*
X55105395Y-41054996D01*
X55321302Y-41036107D01*
X55321307Y-41036106D01*
X55326692Y-41035635D01*
X55546496Y-40976739D01*
X55551400Y-40974452D01*
X55551406Y-40974450D01*
X55747823Y-40882858D01*
X55752734Y-40880568D01*
X55757173Y-40877460D01*
X55934704Y-40753153D01*
X55934708Y-40753149D01*
X55939139Y-40750047D01*
X56100047Y-40589139D01*
X56103149Y-40584708D01*
X56103153Y-40584704D01*
X56227460Y-40407173D01*
X56227461Y-40407171D01*
X56230568Y-40402734D01*
X56240348Y-40381761D01*
X56324450Y-40201406D01*
X56324452Y-40201400D01*
X56326739Y-40196496D01*
X56385635Y-39976692D01*
X56389459Y-39932993D01*
X56404996Y-39755395D01*
X56405468Y-39750000D01*
X59694532Y-39750000D01*
X59695004Y-39755395D01*
X59710542Y-39932993D01*
X59714365Y-39976692D01*
X59773261Y-40196496D01*
X59775548Y-40201400D01*
X59775550Y-40201406D01*
X59859652Y-40381761D01*
X59869432Y-40402734D01*
X59872539Y-40407171D01*
X59872540Y-40407173D01*
X59996847Y-40584704D01*
X59996851Y-40584708D01*
X59999953Y-40589139D01*
X60160861Y-40750047D01*
X60165292Y-40753149D01*
X60165296Y-40753153D01*
X60342827Y-40877460D01*
X60347266Y-40880568D01*
X60352177Y-40882858D01*
X60548594Y-40974450D01*
X60548600Y-40974452D01*
X60553504Y-40976739D01*
X60773308Y-41035635D01*
X60778693Y-41036106D01*
X60778698Y-41036107D01*
X60994605Y-41054996D01*
X61000000Y-41055468D01*
X61005395Y-41054996D01*
X61221302Y-41036107D01*
X61221307Y-41036106D01*
X61226692Y-41035635D01*
X61446496Y-40976739D01*
X61451400Y-40974452D01*
X61451406Y-40974450D01*
X61647823Y-40882858D01*
X61652734Y-40880568D01*
X61657173Y-40877460D01*
X61834704Y-40753153D01*
X61834708Y-40753149D01*
X61839139Y-40750047D01*
X62000047Y-40589139D01*
X62003149Y-40584708D01*
X62003153Y-40584704D01*
X62127460Y-40407173D01*
X62127461Y-40407171D01*
X62130568Y-40402734D01*
X62140348Y-40381761D01*
X62224450Y-40201406D01*
X62224452Y-40201400D01*
X62226739Y-40196496D01*
X62285635Y-39976692D01*
X62289459Y-39932993D01*
X62304996Y-39755395D01*
X62305468Y-39750000D01*
X62296676Y-39649503D01*
X62286107Y-39528698D01*
X62286106Y-39528693D01*
X62285635Y-39523308D01*
X62226739Y-39303504D01*
X62224452Y-39298600D01*
X62224450Y-39298594D01*
X62132858Y-39102177D01*
X62130568Y-39097266D01*
X62065020Y-39003653D01*
X62003153Y-38915296D01*
X62003149Y-38915292D01*
X62000047Y-38910861D01*
X61839139Y-38749953D01*
X61834708Y-38746851D01*
X61834704Y-38746847D01*
X61657173Y-38622540D01*
X61657171Y-38622539D01*
X61652734Y-38619432D01*
X61631761Y-38609652D01*
X61451406Y-38525550D01*
X61451400Y-38525548D01*
X61446496Y-38523261D01*
X61226692Y-38464365D01*
X61221307Y-38463894D01*
X61221302Y-38463893D01*
X61005395Y-38445004D01*
X61000000Y-38444532D01*
X60994605Y-38445004D01*
X60778698Y-38463893D01*
X60778693Y-38463894D01*
X60773308Y-38464365D01*
X60553504Y-38523261D01*
X60548600Y-38525548D01*
X60548594Y-38525550D01*
X60368239Y-38609652D01*
X60347266Y-38619432D01*
X60342829Y-38622539D01*
X60342827Y-38622540D01*
X60165296Y-38746847D01*
X60165292Y-38746851D01*
X60160861Y-38749953D01*
X59999953Y-38910861D01*
X59996851Y-38915292D01*
X59996847Y-38915296D01*
X59934980Y-39003653D01*
X59869432Y-39097266D01*
X59867142Y-39102177D01*
X59775550Y-39298594D01*
X59775548Y-39298600D01*
X59773261Y-39303504D01*
X59714365Y-39523308D01*
X59713894Y-39528693D01*
X59713893Y-39528698D01*
X59703324Y-39649503D01*
X59694532Y-39750000D01*
X56405468Y-39750000D01*
X56396676Y-39649503D01*
X56386107Y-39528698D01*
X56386106Y-39528693D01*
X56385635Y-39523308D01*
X56326739Y-39303504D01*
X56324452Y-39298600D01*
X56324450Y-39298594D01*
X56232858Y-39102177D01*
X56230568Y-39097266D01*
X56165020Y-39003653D01*
X56103153Y-38915296D01*
X56103149Y-38915292D01*
X56100047Y-38910861D01*
X55939139Y-38749953D01*
X55934708Y-38746851D01*
X55934704Y-38746847D01*
X55757173Y-38622540D01*
X55757171Y-38622539D01*
X55752734Y-38619432D01*
X55731761Y-38609652D01*
X55551406Y-38525550D01*
X55551400Y-38525548D01*
X55546496Y-38523261D01*
X55326692Y-38464365D01*
X55321307Y-38463894D01*
X55321302Y-38463893D01*
X55105395Y-38445004D01*
X55100000Y-38444532D01*
X55094605Y-38445004D01*
X54878698Y-38463893D01*
X54878693Y-38463894D01*
X54873308Y-38464365D01*
X54653504Y-38523261D01*
X54648600Y-38525548D01*
X54648594Y-38525550D01*
X54468239Y-38609652D01*
X54447266Y-38619432D01*
X54442829Y-38622539D01*
X54442827Y-38622540D01*
X54265296Y-38746847D01*
X54265292Y-38746851D01*
X54260861Y-38749953D01*
X54099953Y-38910861D01*
X54096851Y-38915292D01*
X54096847Y-38915296D01*
X54034980Y-39003653D01*
X53969432Y-39097266D01*
X53967142Y-39102177D01*
X53875550Y-39298594D01*
X53875548Y-39298600D01*
X53873261Y-39303504D01*
X53814365Y-39523308D01*
X53813894Y-39528693D01*
X53813893Y-39528698D01*
X53803324Y-39649503D01*
X53794532Y-39750000D01*
X34227782Y-39750000D01*
X34279971Y-39687250D01*
X34279972Y-39687249D01*
X34283602Y-39682884D01*
X34303054Y-39648151D01*
X34388631Y-39495341D01*
X34391410Y-39490379D01*
X34413362Y-39425712D01*
X34460502Y-39286839D01*
X34462331Y-39281452D01*
X34493991Y-39063098D01*
X34495643Y-39000000D01*
X34475454Y-38780289D01*
X34466631Y-38749003D01*
X45894540Y-38749003D01*
X45914326Y-38937259D01*
X45972821Y-39117287D01*
X46067467Y-39281219D01*
X46071813Y-39286046D01*
X46071814Y-39286047D01*
X46092244Y-39308737D01*
X46194129Y-39421891D01*
X46347270Y-39533154D01*
X46520197Y-39610147D01*
X46588637Y-39624694D01*
X46698991Y-39648151D01*
X46698996Y-39648151D01*
X46705354Y-39649503D01*
X46894646Y-39649503D01*
X46901004Y-39648151D01*
X46901009Y-39648151D01*
X47011363Y-39624694D01*
X47079803Y-39610147D01*
X47252730Y-39533154D01*
X47405871Y-39421891D01*
X47507756Y-39308737D01*
X47528186Y-39286047D01*
X47528187Y-39286046D01*
X47532533Y-39281219D01*
X47627179Y-39117287D01*
X47685674Y-38937259D01*
X47705460Y-38749003D01*
X47685674Y-38560747D01*
X47630799Y-38391859D01*
X47628804Y-38322018D01*
X47647177Y-38283261D01*
X47648118Y-38282216D01*
X47742764Y-38118284D01*
X47801259Y-37938256D01*
X47821045Y-37750000D01*
X47801259Y-37561744D01*
X47799250Y-37555561D01*
X47799139Y-37555039D01*
X47804454Y-37485372D01*
X47845862Y-37431140D01*
X47845785Y-37431055D01*
X47846238Y-37430647D01*
X47847542Y-37428939D01*
X47855871Y-37422888D01*
X47982533Y-37282216D01*
X48077179Y-37118284D01*
X48135674Y-36938256D01*
X48155460Y-36750000D01*
X48135674Y-36561744D01*
X48077179Y-36381716D01*
X47982533Y-36217784D01*
X47855871Y-36077112D01*
X47702730Y-35965849D01*
X47529803Y-35888856D01*
X47461363Y-35874309D01*
X47351009Y-35850852D01*
X47351004Y-35850852D01*
X47344646Y-35849500D01*
X47155354Y-35849500D01*
X47148996Y-35850852D01*
X47148991Y-35850852D01*
X47038637Y-35874309D01*
X46970197Y-35888856D01*
X46797270Y-35965849D01*
X46644129Y-36077112D01*
X46517467Y-36217784D01*
X46422821Y-36381716D01*
X46364326Y-36561744D01*
X46344540Y-36750000D01*
X46364326Y-36938256D01*
X46366334Y-36944435D01*
X46366446Y-36944961D01*
X46361131Y-37014628D01*
X46319723Y-37068860D01*
X46319800Y-37068945D01*
X46319347Y-37069353D01*
X46318043Y-37071061D01*
X46309714Y-37077112D01*
X46183052Y-37217784D01*
X46088406Y-37381716D01*
X46029911Y-37561744D01*
X46010125Y-37750000D01*
X46029911Y-37938256D01*
X46031919Y-37944435D01*
X46084786Y-38107144D01*
X46086781Y-38176985D01*
X46068408Y-38215742D01*
X46067467Y-38216787D01*
X46064219Y-38222413D01*
X45981611Y-38365495D01*
X45972821Y-38380719D01*
X45914326Y-38560747D01*
X45894540Y-38749003D01*
X34466631Y-38749003D01*
X34415565Y-38567936D01*
X34317980Y-38370053D01*
X34185967Y-38193267D01*
X34023949Y-38043499D01*
X33837350Y-37925764D01*
X33632421Y-37844006D01*
X33626840Y-37842896D01*
X33626837Y-37842895D01*
X33524222Y-37822484D01*
X33416024Y-37800962D01*
X33410337Y-37800888D01*
X33410332Y-37800887D01*
X33201095Y-37798148D01*
X33201090Y-37798148D01*
X33195406Y-37798074D01*
X33189802Y-37799037D01*
X33189801Y-37799037D01*
X32983560Y-37834475D01*
X32983557Y-37834476D01*
X32977957Y-37835438D01*
X32770957Y-37911804D01*
X32581341Y-38024614D01*
X32415457Y-38170090D01*
X32278863Y-38343360D01*
X32276216Y-38348391D01*
X32183008Y-38525550D01*
X32176131Y-38538620D01*
X32110703Y-38749333D01*
X32110035Y-38754978D01*
X32110034Y-38754982D01*
X32087729Y-38943438D01*
X32084770Y-38968440D01*
X29412743Y-38968440D01*
X29395454Y-38780289D01*
X29335565Y-38567936D01*
X29237980Y-38370053D01*
X29105967Y-38193267D01*
X28943949Y-38043499D01*
X28757350Y-37925764D01*
X28552421Y-37844006D01*
X28546840Y-37842896D01*
X28546837Y-37842895D01*
X28444222Y-37822484D01*
X28336024Y-37800962D01*
X28330337Y-37800888D01*
X28330332Y-37800887D01*
X28121095Y-37798148D01*
X28121090Y-37798148D01*
X28115406Y-37798074D01*
X28109802Y-37799037D01*
X28109801Y-37799037D01*
X27903560Y-37834475D01*
X27903557Y-37834476D01*
X27897957Y-37835438D01*
X27690957Y-37911804D01*
X27501341Y-38024614D01*
X27335457Y-38170090D01*
X27198863Y-38343360D01*
X27196216Y-38348391D01*
X27103008Y-38525550D01*
X27096131Y-38538620D01*
X27030703Y-38749333D01*
X27030035Y-38754978D01*
X27030034Y-38754982D01*
X27007729Y-38943438D01*
X27004770Y-38968440D01*
X20500500Y-38968440D01*
X20500500Y-34180665D01*
X29345119Y-34180665D01*
X29345412Y-34185747D01*
X29345412Y-34185748D01*
X29350461Y-34273308D01*
X29358376Y-34410580D01*
X29409006Y-34635242D01*
X29495649Y-34848618D01*
X29498311Y-34852962D01*
X29613317Y-35040635D01*
X29613321Y-35040640D01*
X29615979Y-35044978D01*
X29619311Y-35048824D01*
X29619312Y-35048826D01*
X29689108Y-35129400D01*
X29766763Y-35219048D01*
X29770673Y-35222294D01*
X29770677Y-35222298D01*
X29911413Y-35339139D01*
X29943953Y-35366154D01*
X30043516Y-35424334D01*
X30125436Y-35472204D01*
X30142790Y-35482345D01*
X30147543Y-35484160D01*
X30147545Y-35484161D01*
X30215584Y-35510142D01*
X30357934Y-35564501D01*
X30362920Y-35565515D01*
X30362922Y-35565516D01*
X30433822Y-35579940D01*
X30583607Y-35610414D01*
X30733235Y-35615901D01*
X30808670Y-35618667D01*
X30808673Y-35618667D01*
X30813749Y-35618853D01*
X31042178Y-35589591D01*
X31058964Y-35584555D01*
X31257892Y-35524874D01*
X31257895Y-35524873D01*
X31262761Y-35523413D01*
X31267324Y-35521177D01*
X31267328Y-35521176D01*
X31395101Y-35458580D01*
X31469574Y-35422096D01*
X31657062Y-35288363D01*
X31820190Y-35125803D01*
X31954577Y-34938783D01*
X32056615Y-34732325D01*
X32085425Y-34637500D01*
X36544532Y-34637500D01*
X36545004Y-34642895D01*
X36563383Y-34852962D01*
X36564365Y-34864192D01*
X36623261Y-35083996D01*
X36625548Y-35088900D01*
X36625550Y-35088906D01*
X36640826Y-35121664D01*
X36719432Y-35290234D01*
X36722539Y-35294671D01*
X36722540Y-35294673D01*
X36846847Y-35472204D01*
X36846851Y-35472208D01*
X36849953Y-35476639D01*
X37010861Y-35637547D01*
X37015292Y-35640649D01*
X37015296Y-35640653D01*
X37192827Y-35764960D01*
X37197266Y-35768068D01*
X37202177Y-35770358D01*
X37398594Y-35861950D01*
X37398600Y-35861952D01*
X37403504Y-35864239D01*
X37623308Y-35923135D01*
X37628693Y-35923606D01*
X37628698Y-35923607D01*
X37844605Y-35942496D01*
X37850000Y-35942968D01*
X37855395Y-35942496D01*
X38071302Y-35923607D01*
X38071307Y-35923606D01*
X38076692Y-35923135D01*
X38296496Y-35864239D01*
X38301400Y-35861952D01*
X38301406Y-35861950D01*
X38497823Y-35770358D01*
X38502734Y-35768068D01*
X38507173Y-35764960D01*
X38684704Y-35640653D01*
X38684708Y-35640649D01*
X38689139Y-35637547D01*
X38850047Y-35476639D01*
X38853149Y-35472208D01*
X38853153Y-35472204D01*
X38977460Y-35294673D01*
X38977461Y-35294671D01*
X38980568Y-35290234D01*
X39059174Y-35121664D01*
X39074450Y-35088906D01*
X39074452Y-35088900D01*
X39076739Y-35083996D01*
X39135635Y-34864192D01*
X39136618Y-34852962D01*
X39154996Y-34642895D01*
X39155468Y-34637500D01*
X39144045Y-34506929D01*
X39136107Y-34416198D01*
X39136106Y-34416193D01*
X39135635Y-34410808D01*
X39076739Y-34191004D01*
X39074452Y-34186100D01*
X39074450Y-34186094D01*
X38984407Y-33992999D01*
X38980568Y-33984766D01*
X38960939Y-33956732D01*
X38853153Y-33802796D01*
X38853149Y-33802792D01*
X38850047Y-33798361D01*
X38689139Y-33637453D01*
X38684708Y-33634351D01*
X38684704Y-33634347D01*
X38507173Y-33510040D01*
X38507171Y-33510039D01*
X38502734Y-33506932D01*
X38481761Y-33497152D01*
X38301406Y-33413050D01*
X38301400Y-33413048D01*
X38296496Y-33410761D01*
X38076692Y-33351865D01*
X38071307Y-33351394D01*
X38071302Y-33351393D01*
X37855395Y-33332504D01*
X37850000Y-33332032D01*
X37844605Y-33332504D01*
X37628698Y-33351393D01*
X37628693Y-33351394D01*
X37623308Y-33351865D01*
X37403504Y-33410761D01*
X37398600Y-33413048D01*
X37398594Y-33413050D01*
X37218239Y-33497152D01*
X37197266Y-33506932D01*
X37192829Y-33510039D01*
X37192827Y-33510040D01*
X37015296Y-33634347D01*
X37015292Y-33634351D01*
X37010861Y-33637453D01*
X36849953Y-33798361D01*
X36846851Y-33802792D01*
X36846847Y-33802796D01*
X36739061Y-33956732D01*
X36719432Y-33984766D01*
X36715593Y-33992999D01*
X36625550Y-34186094D01*
X36625548Y-34186100D01*
X36623261Y-34191004D01*
X36564365Y-34410808D01*
X36563894Y-34416193D01*
X36563893Y-34416198D01*
X36555955Y-34506929D01*
X36544532Y-34637500D01*
X32085425Y-34637500D01*
X32123563Y-34511975D01*
X32153622Y-34283649D01*
X32155300Y-34215000D01*
X32153758Y-34196237D01*
X32136847Y-33990553D01*
X32136430Y-33985478D01*
X32080326Y-33762120D01*
X31988496Y-33550924D01*
X31985736Y-33546658D01*
X31985733Y-33546652D01*
X31866167Y-33361832D01*
X31866165Y-33361830D01*
X31863405Y-33357563D01*
X31764000Y-33248319D01*
X31733441Y-33185486D01*
X31741702Y-33116107D01*
X31786162Y-33062208D01*
X31812187Y-33048756D01*
X31884549Y-33021629D01*
X31884554Y-33021626D01*
X31892824Y-33018526D01*
X31899889Y-33013231D01*
X31899891Y-33013230D01*
X32000481Y-32937841D01*
X32007546Y-32932546D01*
X32083351Y-32831401D01*
X32088230Y-32824891D01*
X32088231Y-32824889D01*
X32093526Y-32817824D01*
X32143851Y-32683580D01*
X32150500Y-32622377D01*
X32150500Y-31960000D01*
X50644341Y-31960000D01*
X50664937Y-32195408D01*
X50726097Y-32423663D01*
X50728384Y-32428567D01*
X50728386Y-32428573D01*
X50815631Y-32615669D01*
X50825965Y-32637829D01*
X50829072Y-32642266D01*
X50829073Y-32642268D01*
X50958399Y-32826966D01*
X50958403Y-32826970D01*
X50961505Y-32831401D01*
X51083311Y-32953207D01*
X51116796Y-33014530D01*
X51111812Y-33084222D01*
X51069940Y-33140155D01*
X51039158Y-33156997D01*
X51020160Y-33164119D01*
X50915447Y-33203373D01*
X50915445Y-33203374D01*
X50907176Y-33206474D01*
X50900111Y-33211769D01*
X50900109Y-33211770D01*
X50848214Y-33250664D01*
X50792454Y-33292454D01*
X50787159Y-33299519D01*
X50734762Y-33369432D01*
X50706474Y-33407176D01*
X50656149Y-33541420D01*
X50649500Y-33602623D01*
X50649501Y-35397376D01*
X50656149Y-35458580D01*
X50706474Y-35592824D01*
X50711769Y-35599889D01*
X50711770Y-35599891D01*
X50739992Y-35637547D01*
X50792454Y-35707546D01*
X50799519Y-35712841D01*
X50900109Y-35788230D01*
X50900111Y-35788231D01*
X50907176Y-35793526D01*
X51041420Y-35843851D01*
X51102623Y-35850500D01*
X51999866Y-35850500D01*
X52897376Y-35850499D01*
X52958580Y-35843851D01*
X53092824Y-35793526D01*
X53099889Y-35788231D01*
X53099891Y-35788230D01*
X53200481Y-35712841D01*
X53207546Y-35707546D01*
X53260008Y-35637547D01*
X53288230Y-35599891D01*
X53288231Y-35599889D01*
X53293526Y-35592824D01*
X53343851Y-35458580D01*
X53350500Y-35397377D01*
X53350499Y-33602624D01*
X53343851Y-33541420D01*
X53293526Y-33407176D01*
X53265239Y-33369432D01*
X53212841Y-33299519D01*
X53207546Y-33292454D01*
X53151786Y-33250664D01*
X53099891Y-33211770D01*
X53099889Y-33211769D01*
X53092824Y-33206474D01*
X53084555Y-33203374D01*
X53084553Y-33203373D01*
X52979840Y-33164119D01*
X52960843Y-33156997D01*
X52904980Y-33115034D01*
X52880671Y-33049529D01*
X52895637Y-32981281D01*
X52916689Y-32953207D01*
X53038495Y-32831401D01*
X53041597Y-32826970D01*
X53041601Y-32826966D01*
X53170927Y-32642268D01*
X53170928Y-32642266D01*
X53174035Y-32637829D01*
X53184369Y-32615669D01*
X53271614Y-32428573D01*
X53271616Y-32428567D01*
X53273903Y-32423663D01*
X53335063Y-32195408D01*
X53355659Y-31960000D01*
X53335063Y-31724592D01*
X53273903Y-31496337D01*
X53271616Y-31491433D01*
X53271614Y-31491427D01*
X53176325Y-31287082D01*
X53174035Y-31282171D01*
X53170927Y-31277732D01*
X53041601Y-31093034D01*
X53041597Y-31093030D01*
X53038495Y-31088599D01*
X52871401Y-30921505D01*
X52685842Y-30791575D01*
X52642218Y-30736998D01*
X52635025Y-30667499D01*
X52666547Y-30605145D01*
X52685842Y-30588425D01*
X52710921Y-30570864D01*
X52871401Y-30458495D01*
X53038495Y-30291401D01*
X53041597Y-30286970D01*
X53041601Y-30286966D01*
X53170927Y-30102268D01*
X53170928Y-30102266D01*
X53174035Y-30097829D01*
X53184369Y-30075669D01*
X53271614Y-29888573D01*
X53271616Y-29888567D01*
X53273903Y-29883663D01*
X53335063Y-29655408D01*
X53336966Y-29633663D01*
X53355187Y-29425395D01*
X53355659Y-29420000D01*
X53335063Y-29184592D01*
X53332555Y-29175230D01*
X53275305Y-28961570D01*
X53273903Y-28956337D01*
X53271616Y-28951433D01*
X53271614Y-28951427D01*
X53176325Y-28747082D01*
X53174035Y-28742171D01*
X53167119Y-28732294D01*
X53041601Y-28553034D01*
X53041597Y-28553030D01*
X53038495Y-28548599D01*
X52871401Y-28381505D01*
X52677830Y-28245965D01*
X52463663Y-28146097D01*
X52293491Y-28100500D01*
X52240634Y-28086337D01*
X52240631Y-28086336D01*
X52235408Y-28084937D01*
X52230021Y-28084466D01*
X52230017Y-28084465D01*
X52005395Y-28064813D01*
X52000000Y-28064341D01*
X51994605Y-28064813D01*
X51769983Y-28084465D01*
X51769979Y-28084466D01*
X51764592Y-28084937D01*
X51759369Y-28086336D01*
X51759366Y-28086337D01*
X51706509Y-28100500D01*
X51536337Y-28146097D01*
X51531433Y-28148384D01*
X51531427Y-28148386D01*
X51389937Y-28214365D01*
X51322171Y-28245965D01*
X51317734Y-28249072D01*
X51317732Y-28249073D01*
X51133034Y-28378399D01*
X51133033Y-28378400D01*
X51128599Y-28381505D01*
X50961505Y-28548599D01*
X50958403Y-28553030D01*
X50958399Y-28553034D01*
X50832881Y-28732294D01*
X50825965Y-28742171D01*
X50823675Y-28747082D01*
X50728386Y-28951427D01*
X50728384Y-28951433D01*
X50726097Y-28956337D01*
X50724695Y-28961570D01*
X50667446Y-29175230D01*
X50664937Y-29184592D01*
X50644341Y-29420000D01*
X50644813Y-29425395D01*
X50663035Y-29633663D01*
X50664937Y-29655408D01*
X50726097Y-29883663D01*
X50728384Y-29888567D01*
X50728386Y-29888573D01*
X50815631Y-30075669D01*
X50825965Y-30097829D01*
X50829072Y-30102266D01*
X50829073Y-30102268D01*
X50958399Y-30286966D01*
X50958403Y-30286970D01*
X50961505Y-30291401D01*
X51128599Y-30458495D01*
X51223734Y-30525109D01*
X51314159Y-30588426D01*
X51357783Y-30643003D01*
X51364976Y-30712502D01*
X51333454Y-30774856D01*
X51314158Y-30791576D01*
X51133034Y-30918399D01*
X51133033Y-30918400D01*
X51128599Y-30921505D01*
X50961505Y-31088599D01*
X50958403Y-31093030D01*
X50958399Y-31093034D01*
X50829073Y-31277732D01*
X50825965Y-31282171D01*
X50823675Y-31287082D01*
X50728386Y-31491427D01*
X50728384Y-31491433D01*
X50726097Y-31496337D01*
X50664937Y-31724592D01*
X50644341Y-31960000D01*
X32150500Y-31960000D01*
X32150499Y-30727624D01*
X32143851Y-30666420D01*
X32093526Y-30532176D01*
X32069447Y-30500047D01*
X32012841Y-30424519D01*
X32007546Y-30417454D01*
X31947478Y-30372435D01*
X31899891Y-30336770D01*
X31899889Y-30336769D01*
X31892824Y-30331474D01*
X31758580Y-30281149D01*
X31697377Y-30274500D01*
X30750141Y-30274500D01*
X29802624Y-30274501D01*
X29741420Y-30281149D01*
X29607176Y-30331474D01*
X29600111Y-30336769D01*
X29600109Y-30336770D01*
X29552522Y-30372435D01*
X29492454Y-30417454D01*
X29487159Y-30424519D01*
X29430554Y-30500047D01*
X29406474Y-30532176D01*
X29356149Y-30666420D01*
X29349500Y-30727623D01*
X29349501Y-32622376D01*
X29356149Y-32683580D01*
X29406474Y-32817824D01*
X29411769Y-32824889D01*
X29411770Y-32824891D01*
X29416649Y-32831401D01*
X29492454Y-32932546D01*
X29499519Y-32937841D01*
X29600109Y-33013230D01*
X29600111Y-33013231D01*
X29607176Y-33018526D01*
X29615446Y-33021626D01*
X29615451Y-33021629D01*
X29688159Y-33048886D01*
X29744023Y-33090850D01*
X29768331Y-33156355D01*
X29753365Y-33224603D01*
X29734280Y-33250664D01*
X29661390Y-33326939D01*
X29661386Y-33326944D01*
X29657877Y-33330616D01*
X29655013Y-33334815D01*
X29655011Y-33334817D01*
X29639495Y-33357563D01*
X29528099Y-33520863D01*
X29525957Y-33525477D01*
X29525955Y-33525481D01*
X29472202Y-33641282D01*
X29431136Y-33729752D01*
X29429774Y-33734662D01*
X29429774Y-33734663D01*
X29397776Y-33850046D01*
X29369592Y-33951673D01*
X29369052Y-33956728D01*
X29369051Y-33956732D01*
X29366507Y-33980539D01*
X29345119Y-34180665D01*
X20500500Y-34180665D01*
X20500500Y-28358966D01*
X36199500Y-28358966D01*
X36214937Y-28535408D01*
X36216336Y-28540631D01*
X36216337Y-28540634D01*
X36218471Y-28548599D01*
X36276097Y-28763663D01*
X36278384Y-28768567D01*
X36278386Y-28768573D01*
X36313959Y-28844858D01*
X36375965Y-28977829D01*
X36379072Y-28982266D01*
X36379073Y-28982268D01*
X36508399Y-29166966D01*
X36508403Y-29166970D01*
X36511505Y-29171401D01*
X36678599Y-29338495D01*
X36872170Y-29474035D01*
X37086337Y-29573903D01*
X37170137Y-29596357D01*
X37309366Y-29633663D01*
X37309369Y-29633664D01*
X37314592Y-29635063D01*
X37319979Y-29635534D01*
X37319983Y-29635535D01*
X37544605Y-29655187D01*
X37550000Y-29655659D01*
X37555395Y-29655187D01*
X37780017Y-29635535D01*
X37780021Y-29635534D01*
X37785408Y-29635063D01*
X37790631Y-29633664D01*
X37790634Y-29633663D01*
X37929863Y-29596357D01*
X38013663Y-29573903D01*
X38018567Y-29571616D01*
X38018573Y-29571614D01*
X38222918Y-29476325D01*
X38227829Y-29474035D01*
X38283563Y-29435010D01*
X38416966Y-29341601D01*
X38416970Y-29341597D01*
X38421401Y-29338495D01*
X38588495Y-29171401D01*
X38591597Y-29166970D01*
X38591601Y-29166966D01*
X38720927Y-28982268D01*
X38720928Y-28982266D01*
X38724035Y-28977829D01*
X38786041Y-28844858D01*
X38821614Y-28768573D01*
X38821616Y-28768567D01*
X38823903Y-28763663D01*
X38881529Y-28548599D01*
X38883663Y-28540634D01*
X38883664Y-28540631D01*
X38885063Y-28535408D01*
X38900500Y-28358966D01*
X43499500Y-28358966D01*
X43514937Y-28535408D01*
X43516336Y-28540631D01*
X43516337Y-28540634D01*
X43518471Y-28548599D01*
X43576097Y-28763663D01*
X43578384Y-28768567D01*
X43578386Y-28768573D01*
X43613959Y-28844858D01*
X43675965Y-28977829D01*
X43679072Y-28982266D01*
X43679073Y-28982268D01*
X43808399Y-29166966D01*
X43808403Y-29166970D01*
X43811505Y-29171401D01*
X43978599Y-29338495D01*
X44172170Y-29474035D01*
X44386337Y-29573903D01*
X44470137Y-29596357D01*
X44609366Y-29633663D01*
X44609369Y-29633664D01*
X44614592Y-29635063D01*
X44619979Y-29635534D01*
X44619983Y-29635535D01*
X44844605Y-29655187D01*
X44850000Y-29655659D01*
X44855395Y-29655187D01*
X45080017Y-29635535D01*
X45080021Y-29635534D01*
X45085408Y-29635063D01*
X45090631Y-29633664D01*
X45090634Y-29633663D01*
X45229863Y-29596357D01*
X45313663Y-29573903D01*
X45318567Y-29571616D01*
X45318573Y-29571614D01*
X45522918Y-29476325D01*
X45527829Y-29474035D01*
X45583563Y-29435010D01*
X45716966Y-29341601D01*
X45716970Y-29341597D01*
X45721401Y-29338495D01*
X45888495Y-29171401D01*
X45891597Y-29166970D01*
X45891601Y-29166966D01*
X46020927Y-28982268D01*
X46020928Y-28982266D01*
X46024035Y-28977829D01*
X46086041Y-28844858D01*
X46121614Y-28768573D01*
X46121616Y-28768567D01*
X46123903Y-28763663D01*
X46181529Y-28548599D01*
X46183663Y-28540634D01*
X46183664Y-28540631D01*
X46185063Y-28535408D01*
X46200500Y-28358966D01*
X46200500Y-27241034D01*
X46198627Y-27219623D01*
X46185535Y-27069983D01*
X46185534Y-27069979D01*
X46185063Y-27064592D01*
X46162137Y-26979028D01*
X46125305Y-26841570D01*
X46123903Y-26836337D01*
X46121616Y-26831433D01*
X46121614Y-26831427D01*
X46026325Y-26627082D01*
X46024035Y-26622171D01*
X45932895Y-26492009D01*
X45891601Y-26433034D01*
X45891597Y-26433030D01*
X45888495Y-26428599D01*
X45721401Y-26261505D01*
X45527830Y-26125965D01*
X45313663Y-26026097D01*
X45229863Y-26003643D01*
X45090634Y-25966337D01*
X45090631Y-25966336D01*
X45085408Y-25964937D01*
X45080021Y-25964466D01*
X45080017Y-25964465D01*
X44855395Y-25944813D01*
X44850000Y-25944341D01*
X44844605Y-25944813D01*
X44619983Y-25964465D01*
X44619979Y-25964466D01*
X44614592Y-25964937D01*
X44609369Y-25966336D01*
X44609366Y-25966337D01*
X44470137Y-26003643D01*
X44386337Y-26026097D01*
X44381433Y-26028384D01*
X44381427Y-26028386D01*
X44194331Y-26115631D01*
X44172171Y-26125965D01*
X44167734Y-26129072D01*
X44167732Y-26129073D01*
X43983034Y-26258399D01*
X43983033Y-26258400D01*
X43978599Y-26261505D01*
X43811505Y-26428599D01*
X43808403Y-26433030D01*
X43808399Y-26433034D01*
X43767105Y-26492009D01*
X43675965Y-26622171D01*
X43673675Y-26627082D01*
X43578386Y-26831427D01*
X43578384Y-26831433D01*
X43576097Y-26836337D01*
X43574695Y-26841570D01*
X43537864Y-26979028D01*
X43514937Y-27064592D01*
X43514466Y-27069979D01*
X43514465Y-27069983D01*
X43501373Y-27219623D01*
X43499500Y-27241034D01*
X43499500Y-28358966D01*
X38900500Y-28358966D01*
X38900500Y-27241034D01*
X38898627Y-27219623D01*
X38885535Y-27069983D01*
X38885534Y-27069979D01*
X38885063Y-27064592D01*
X38862137Y-26979028D01*
X38825305Y-26841570D01*
X38823903Y-26836337D01*
X38821616Y-26831433D01*
X38821614Y-26831427D01*
X38726325Y-26627082D01*
X38724035Y-26622171D01*
X38632895Y-26492009D01*
X38591601Y-26433034D01*
X38591597Y-26433030D01*
X38588495Y-26428599D01*
X38421401Y-26261505D01*
X38227830Y-26125965D01*
X38013663Y-26026097D01*
X37929863Y-26003643D01*
X37790634Y-25966337D01*
X37790631Y-25966336D01*
X37785408Y-25964937D01*
X37780021Y-25964466D01*
X37780017Y-25964465D01*
X37555395Y-25944813D01*
X37550000Y-25944341D01*
X37544605Y-25944813D01*
X37319983Y-25964465D01*
X37319979Y-25964466D01*
X37314592Y-25964937D01*
X37309369Y-25966336D01*
X37309366Y-25966337D01*
X37170137Y-26003643D01*
X37086337Y-26026097D01*
X37081433Y-26028384D01*
X37081427Y-26028386D01*
X36894331Y-26115631D01*
X36872171Y-26125965D01*
X36867734Y-26129072D01*
X36867732Y-26129073D01*
X36683034Y-26258399D01*
X36683033Y-26258400D01*
X36678599Y-26261505D01*
X36511505Y-26428599D01*
X36508403Y-26433030D01*
X36508399Y-26433034D01*
X36467105Y-26492009D01*
X36375965Y-26622171D01*
X36373675Y-26627082D01*
X36278386Y-26831427D01*
X36278384Y-26831433D01*
X36276097Y-26836337D01*
X36274695Y-26841570D01*
X36237864Y-26979028D01*
X36214937Y-27064592D01*
X36214466Y-27069979D01*
X36214465Y-27069983D01*
X36201373Y-27219623D01*
X36199500Y-27241034D01*
X36199500Y-28358966D01*
X20500500Y-28358966D01*
X20500500Y-26132200D01*
X22898747Y-26132200D01*
X22936129Y-26416149D01*
X23011702Y-26692398D01*
X23013358Y-26696281D01*
X23013360Y-26696286D01*
X23084189Y-26862340D01*
X23124068Y-26955835D01*
X23126237Y-26959460D01*
X23126238Y-26959461D01*
X23202907Y-27087565D01*
X23271146Y-27201585D01*
X23450215Y-27425100D01*
X23562342Y-27531505D01*
X23654897Y-27619337D01*
X23654902Y-27619341D01*
X23657962Y-27622245D01*
X23661388Y-27624707D01*
X23661393Y-27624711D01*
X23791669Y-27718323D01*
X23890543Y-27789371D01*
X23912737Y-27801122D01*
X24139928Y-27921414D01*
X24139931Y-27921416D01*
X24143653Y-27923386D01*
X24278131Y-27972598D01*
X24408655Y-28020363D01*
X24408659Y-28020364D01*
X24412610Y-28021810D01*
X24416724Y-28022707D01*
X24688316Y-28081924D01*
X24688320Y-28081925D01*
X24692436Y-28082822D01*
X24696640Y-28083153D01*
X24696641Y-28083153D01*
X24713312Y-28084465D01*
X24917053Y-28100500D01*
X25071992Y-28100500D01*
X25279738Y-28086337D01*
X25281528Y-28086215D01*
X25281529Y-28086215D01*
X25285737Y-28085928D01*
X25290523Y-28084937D01*
X25422238Y-28057660D01*
X25566186Y-28027850D01*
X25570154Y-28026445D01*
X25570157Y-28026444D01*
X25670428Y-27990936D01*
X25836158Y-27932248D01*
X26029543Y-27832435D01*
X26086902Y-27802830D01*
X26086906Y-27802827D01*
X26090658Y-27800891D01*
X26094114Y-27798462D01*
X26094119Y-27798459D01*
X26321519Y-27638639D01*
X26321522Y-27638636D01*
X26324976Y-27636209D01*
X26534776Y-27441251D01*
X26716177Y-27219623D01*
X26865820Y-26975427D01*
X26874421Y-26955835D01*
X26924579Y-26841570D01*
X26980938Y-26713182D01*
X27043941Y-26492009D01*
X27058245Y-26441794D01*
X27058245Y-26441793D01*
X27059400Y-26437739D01*
X27099754Y-26154196D01*
X27101253Y-25867800D01*
X27063871Y-25583851D01*
X26988298Y-25307602D01*
X26981165Y-25290877D01*
X26877589Y-25048050D01*
X26875932Y-25044165D01*
X26866520Y-25028438D01*
X26731021Y-24802035D01*
X26731018Y-24802030D01*
X26728854Y-24798415D01*
X26549785Y-24574900D01*
X26424574Y-24456079D01*
X26345103Y-24380663D01*
X26345098Y-24380659D01*
X26342038Y-24377755D01*
X26338612Y-24375293D01*
X26338607Y-24375289D01*
X26167656Y-24252449D01*
X26109457Y-24210629D01*
X26036785Y-24172151D01*
X25860072Y-24078586D01*
X25860069Y-24078584D01*
X25856347Y-24076614D01*
X25721868Y-24027402D01*
X25591345Y-23979637D01*
X25591341Y-23979636D01*
X25587390Y-23978190D01*
X25555771Y-23971296D01*
X25311684Y-23918076D01*
X25311680Y-23918075D01*
X25307564Y-23917178D01*
X25303360Y-23916847D01*
X25303359Y-23916847D01*
X25264452Y-23913785D01*
X25082947Y-23899500D01*
X24928008Y-23899500D01*
X24755551Y-23911257D01*
X24718472Y-23913785D01*
X24718471Y-23913785D01*
X24714263Y-23914072D01*
X24710135Y-23914927D01*
X24710134Y-23914927D01*
X24694928Y-23918076D01*
X24433814Y-23972150D01*
X24429846Y-23973555D01*
X24429843Y-23973556D01*
X24412671Y-23979637D01*
X24163842Y-24067752D01*
X24094721Y-24103428D01*
X23913098Y-24197170D01*
X23913094Y-24197173D01*
X23909342Y-24199109D01*
X23905886Y-24201538D01*
X23905881Y-24201541D01*
X23678481Y-24361361D01*
X23678478Y-24361364D01*
X23675024Y-24363791D01*
X23465224Y-24558749D01*
X23283823Y-24780377D01*
X23134180Y-25024573D01*
X23132485Y-25028434D01*
X23132483Y-25028438D01*
X23111910Y-25075305D01*
X23019062Y-25286818D01*
X22980300Y-25422894D01*
X22945408Y-25545384D01*
X22940600Y-25562261D01*
X22900246Y-25845804D01*
X22898747Y-26132200D01*
X20500500Y-26132200D01*
X20500500Y-26052405D01*
X20502219Y-26031832D01*
X20504700Y-26017084D01*
X20505496Y-26012354D01*
X20505562Y-26007000D01*
X20505588Y-26004787D01*
X20505647Y-26000000D01*
X20503341Y-25983895D01*
X20502207Y-25960911D01*
X20502931Y-25944341D01*
X20517386Y-25613249D01*
X20518329Y-25602473D01*
X20568151Y-25224042D01*
X20570029Y-25213389D01*
X20652646Y-24840727D01*
X20655446Y-24830278D01*
X20770225Y-24466245D01*
X20773925Y-24456079D01*
X20875593Y-24210629D01*
X20920000Y-24103421D01*
X20924569Y-24093624D01*
X21100822Y-23755046D01*
X21106218Y-23745700D01*
X21311326Y-23423744D01*
X21317507Y-23414915D01*
X21549896Y-23112060D01*
X21556833Y-23103794D01*
X21814737Y-22822341D01*
X21822341Y-22814737D01*
X22103794Y-22556833D01*
X22112060Y-22549896D01*
X22414915Y-22317507D01*
X22423744Y-22311326D01*
X22745700Y-22106218D01*
X22755046Y-22100822D01*
X23093630Y-21924566D01*
X23103421Y-21920000D01*
X23244712Y-21861475D01*
X23456079Y-21773925D01*
X23466245Y-21770225D01*
X23830278Y-21655446D01*
X23840727Y-21652646D01*
X24213389Y-21570029D01*
X24224042Y-21568151D01*
X24602473Y-21518329D01*
X24613249Y-21517386D01*
X24632885Y-21516529D01*
X24957244Y-21502367D01*
X24981728Y-21503726D01*
X24985092Y-21504250D01*
X24985094Y-21504250D01*
X24993823Y-21505609D01*
X25024887Y-21501547D01*
X25040964Y-21500500D01*
X36658075Y-21500500D01*
X36725114Y-21520185D01*
G37*
%TD.AperFunction*%
%TD*%
%TA.AperFunction,Conductor*%
%TO.N,+12V*%
G36*
X84911905Y-26170002D02*
G01*
X84919349Y-26175174D01*
X84953295Y-26200615D01*
X85089684Y-26251745D01*
X85151866Y-26258500D01*
X86148134Y-26258500D01*
X86210316Y-26251745D01*
X86346705Y-26200615D01*
X86380651Y-26175174D01*
X86447158Y-26150326D01*
X86456216Y-26150000D01*
X107704688Y-26150000D01*
X107772809Y-26170002D01*
X107784931Y-26178856D01*
X108854376Y-27062311D01*
X108894155Y-27121114D01*
X108900128Y-27159175D01*
X108907477Y-30569502D01*
X108887623Y-30637664D01*
X108881487Y-30646116D01*
X108879763Y-30648625D01*
X108876376Y-30652755D01*
X108873737Y-30657391D01*
X108873735Y-30657394D01*
X108805159Y-30777866D01*
X108762325Y-30853114D01*
X108683663Y-31069825D01*
X108682714Y-31075074D01*
X108682713Y-31075077D01*
X108643377Y-31292608D01*
X108643376Y-31292615D01*
X108642639Y-31296692D01*
X108641500Y-31320844D01*
X108641500Y-31632890D01*
X108656080Y-31804720D01*
X108657418Y-31809875D01*
X108657419Y-31809881D01*
X108712657Y-32022703D01*
X108713999Y-32027872D01*
X108808688Y-32238075D01*
X108882186Y-32347245D01*
X108890005Y-32358859D01*
X108911485Y-32428953D01*
X108922782Y-37670866D01*
X108923470Y-37989996D01*
X108903615Y-38058160D01*
X108894905Y-38070157D01*
X108876376Y-38092755D01*
X108873737Y-38097391D01*
X108873735Y-38097394D01*
X108805159Y-38217866D01*
X108762325Y-38293114D01*
X108683663Y-38509825D01*
X108682714Y-38515074D01*
X108682713Y-38515077D01*
X108643377Y-38732608D01*
X108643376Y-38732615D01*
X108642639Y-38736692D01*
X108641500Y-38760844D01*
X108641500Y-39072890D01*
X108656080Y-39244720D01*
X108657418Y-39249875D01*
X108657419Y-39249881D01*
X108712657Y-39462703D01*
X108713999Y-39467872D01*
X108808688Y-39678075D01*
X108870482Y-39769861D01*
X108906091Y-39822753D01*
X108927571Y-39892847D01*
X108939462Y-45410494D01*
X108919608Y-45478655D01*
X108910906Y-45490643D01*
X108876376Y-45532755D01*
X108873737Y-45537391D01*
X108873735Y-45537394D01*
X108805159Y-45657866D01*
X108762325Y-45733114D01*
X108683663Y-45949825D01*
X108682714Y-45955074D01*
X108682713Y-45955077D01*
X108643377Y-46172608D01*
X108643376Y-46172615D01*
X108642639Y-46176692D01*
X108641500Y-46200844D01*
X108641500Y-46512890D01*
X108656080Y-46684720D01*
X108657418Y-46689875D01*
X108657419Y-46689881D01*
X108712657Y-46902703D01*
X108713999Y-46907872D01*
X108808688Y-47118075D01*
X108811672Y-47122508D01*
X108811673Y-47122509D01*
X108922176Y-47286646D01*
X108943656Y-47356741D01*
X108951882Y-51173238D01*
X108955449Y-52828002D01*
X108955455Y-52830988D01*
X108935600Y-52899152D01*
X108926902Y-52911135D01*
X108876376Y-52972755D01*
X108873737Y-52977391D01*
X108873735Y-52977394D01*
X108805159Y-53097866D01*
X108762325Y-53173114D01*
X108683663Y-53389825D01*
X108682714Y-53395074D01*
X108682713Y-53395077D01*
X108643377Y-53612608D01*
X108643376Y-53612615D01*
X108642639Y-53616692D01*
X108641500Y-53640844D01*
X108641500Y-53952890D01*
X108656080Y-54124720D01*
X108657418Y-54129875D01*
X108657419Y-54129881D01*
X108701770Y-54300757D01*
X108713999Y-54347872D01*
X108808688Y-54558075D01*
X108870482Y-54649861D01*
X108937441Y-54749319D01*
X108935578Y-54750573D01*
X108959034Y-54807370D01*
X108959742Y-54820435D01*
X108962952Y-56309920D01*
X108971447Y-60251486D01*
X108951593Y-60319647D01*
X108942894Y-60331631D01*
X108876376Y-60412755D01*
X108873737Y-60417391D01*
X108873735Y-60417394D01*
X108805159Y-60537866D01*
X108762325Y-60613114D01*
X108683663Y-60829825D01*
X108682714Y-60835074D01*
X108682713Y-60835077D01*
X108643377Y-61052608D01*
X108643376Y-61052615D01*
X108642639Y-61056692D01*
X108641500Y-61080844D01*
X108641500Y-61392890D01*
X108641725Y-61395539D01*
X108652382Y-61521134D01*
X108656080Y-61564720D01*
X108657418Y-61569875D01*
X108657419Y-61569881D01*
X108712657Y-61782703D01*
X108713999Y-61787872D01*
X108808688Y-61998075D01*
X108937441Y-62189319D01*
X108941123Y-62193179D01*
X108944470Y-62197342D01*
X108943580Y-62198057D01*
X108973538Y-62256148D01*
X108975818Y-62279738D01*
X108976709Y-62693163D01*
X108987170Y-67546517D01*
X108987440Y-67671979D01*
X108967585Y-67740143D01*
X108958874Y-67752142D01*
X108879760Y-67848627D01*
X108879756Y-67848633D01*
X108876376Y-67852755D01*
X108873737Y-67857391D01*
X108873735Y-67857394D01*
X108805159Y-67977866D01*
X108762325Y-68053114D01*
X108683663Y-68269825D01*
X108682714Y-68275074D01*
X108682713Y-68275077D01*
X108643377Y-68492608D01*
X108643376Y-68492615D01*
X108642639Y-68496692D01*
X108641500Y-68520844D01*
X108641500Y-68832890D01*
X108656080Y-69004720D01*
X108657418Y-69009875D01*
X108657419Y-69009881D01*
X108709379Y-69210072D01*
X108713999Y-69227872D01*
X108808688Y-69438075D01*
X108937441Y-69629319D01*
X108941120Y-69633176D01*
X108941122Y-69633178D01*
X108957059Y-69649884D01*
X108989606Y-69712981D01*
X108991889Y-69736584D01*
X108996446Y-71851010D01*
X108999407Y-73224593D01*
X108999864Y-73436830D01*
X108980009Y-73504994D01*
X108949464Y-73537902D01*
X108033600Y-74224800D01*
X107967102Y-74249671D01*
X107958000Y-74250000D01*
X99052190Y-74250000D01*
X98984069Y-74229998D01*
X98963095Y-74213095D01*
X98036905Y-73286905D01*
X98002879Y-73224593D01*
X98000000Y-73197810D01*
X98000000Y-69425400D01*
X103641500Y-69425400D01*
X103641837Y-69428646D01*
X103641837Y-69428650D01*
X103642310Y-69433202D01*
X103652474Y-69531166D01*
X103654655Y-69537702D01*
X103654655Y-69537704D01*
X103686508Y-69633178D01*
X103708450Y-69698946D01*
X103801522Y-69849348D01*
X103926697Y-69974305D01*
X103932927Y-69978145D01*
X103932928Y-69978146D01*
X104070090Y-70062694D01*
X104077262Y-70067115D01*
X104118844Y-70080907D01*
X104238611Y-70120632D01*
X104238613Y-70120632D01*
X104245139Y-70122797D01*
X104251975Y-70123497D01*
X104251978Y-70123498D01*
X104295031Y-70127909D01*
X104349600Y-70133500D01*
X105650400Y-70133500D01*
X105653646Y-70133163D01*
X105653650Y-70133163D01*
X105749308Y-70123238D01*
X105749312Y-70123237D01*
X105756166Y-70122526D01*
X105762702Y-70120345D01*
X105762704Y-70120345D01*
X105894806Y-70076272D01*
X105923946Y-70066550D01*
X106074348Y-69973478D01*
X106199305Y-69848303D01*
X106292115Y-69697738D01*
X106347797Y-69529861D01*
X106358500Y-69425400D01*
X106358500Y-67974600D01*
X106356648Y-67956749D01*
X106348238Y-67875692D01*
X106348237Y-67875688D01*
X106347526Y-67868834D01*
X106343710Y-67857394D01*
X106293868Y-67708002D01*
X106291550Y-67701054D01*
X106198478Y-67550652D01*
X106073303Y-67425695D01*
X105969582Y-67361760D01*
X105928968Y-67336725D01*
X105928966Y-67336724D01*
X105922738Y-67332885D01*
X105762254Y-67279655D01*
X105761389Y-67279368D01*
X105761387Y-67279368D01*
X105754861Y-67277203D01*
X105748025Y-67276503D01*
X105748022Y-67276502D01*
X105704969Y-67272091D01*
X105650400Y-67266500D01*
X104349600Y-67266500D01*
X104346354Y-67266837D01*
X104346350Y-67266837D01*
X104250692Y-67276762D01*
X104250688Y-67276763D01*
X104243834Y-67277474D01*
X104237298Y-67279655D01*
X104237296Y-67279655D01*
X104159905Y-67305475D01*
X104076054Y-67333450D01*
X103925652Y-67426522D01*
X103800695Y-67551697D01*
X103707885Y-67702262D01*
X103652203Y-67870139D01*
X103641500Y-67974600D01*
X103641500Y-69425400D01*
X98000000Y-69425400D01*
X98000000Y-67300000D01*
X98686502Y-67300000D01*
X98706457Y-67528087D01*
X98707881Y-67533400D01*
X98707881Y-67533402D01*
X98763278Y-67740143D01*
X98765716Y-67749243D01*
X98768039Y-67754224D01*
X98768039Y-67754225D01*
X98860151Y-67951762D01*
X98860154Y-67951767D01*
X98862477Y-67956749D01*
X98993802Y-68144300D01*
X99155700Y-68306198D01*
X99160208Y-68309355D01*
X99160211Y-68309357D01*
X99238389Y-68364098D01*
X99343251Y-68437523D01*
X99348233Y-68439846D01*
X99348238Y-68439849D01*
X99544156Y-68531206D01*
X99550757Y-68534284D01*
X99556065Y-68535706D01*
X99556067Y-68535707D01*
X99766598Y-68592119D01*
X99766600Y-68592119D01*
X99771913Y-68593543D01*
X100000000Y-68613498D01*
X100228087Y-68593543D01*
X100233400Y-68592119D01*
X100233402Y-68592119D01*
X100443933Y-68535707D01*
X100443935Y-68535706D01*
X100449243Y-68534284D01*
X100455844Y-68531206D01*
X100651762Y-68439849D01*
X100651767Y-68439846D01*
X100656749Y-68437523D01*
X100761611Y-68364098D01*
X100839789Y-68309357D01*
X100839792Y-68309355D01*
X100844300Y-68306198D01*
X101006198Y-68144300D01*
X101137523Y-67956749D01*
X101139846Y-67951767D01*
X101139849Y-67951762D01*
X101231961Y-67754225D01*
X101231961Y-67754224D01*
X101234284Y-67749243D01*
X101236723Y-67740143D01*
X101292119Y-67533402D01*
X101292119Y-67533400D01*
X101293543Y-67528087D01*
X101313498Y-67300000D01*
X101293543Y-67071913D01*
X101234284Y-66850757D01*
X101206652Y-66791500D01*
X101139849Y-66648238D01*
X101139846Y-66648233D01*
X101137523Y-66643251D01*
X101006198Y-66455700D01*
X100844300Y-66293802D01*
X100839792Y-66290645D01*
X100839789Y-66290643D01*
X100761611Y-66235902D01*
X100656749Y-66162477D01*
X100651767Y-66160154D01*
X100651762Y-66160151D01*
X100454225Y-66068039D01*
X100454224Y-66068039D01*
X100449243Y-66065716D01*
X100443935Y-66064294D01*
X100443933Y-66064293D01*
X100233402Y-66007881D01*
X100233400Y-66007881D01*
X100228087Y-66006457D01*
X100000000Y-65986502D01*
X99771913Y-66006457D01*
X99766600Y-66007881D01*
X99766598Y-66007881D01*
X99556067Y-66064293D01*
X99556065Y-66064294D01*
X99550757Y-66065716D01*
X99545776Y-66068039D01*
X99545775Y-66068039D01*
X99348238Y-66160151D01*
X99348233Y-66160154D01*
X99343251Y-66162477D01*
X99238389Y-66235902D01*
X99160211Y-66290643D01*
X99160208Y-66290645D01*
X99155700Y-66293802D01*
X98993802Y-66455700D01*
X98862477Y-66643251D01*
X98860154Y-66648233D01*
X98860151Y-66648238D01*
X98793348Y-66791500D01*
X98765716Y-66850757D01*
X98706457Y-67071913D01*
X98686502Y-67300000D01*
X98000000Y-67300000D01*
X98000000Y-61985400D01*
X103641500Y-61985400D01*
X103641837Y-61988646D01*
X103641837Y-61988650D01*
X103642310Y-61993202D01*
X103652474Y-62091166D01*
X103654655Y-62097702D01*
X103654655Y-62097704D01*
X103687897Y-62197342D01*
X103708450Y-62258946D01*
X103801522Y-62409348D01*
X103926697Y-62534305D01*
X103932927Y-62538145D01*
X103932928Y-62538146D01*
X104070090Y-62622694D01*
X104077262Y-62627115D01*
X104118844Y-62640907D01*
X104238611Y-62680632D01*
X104238613Y-62680632D01*
X104245139Y-62682797D01*
X104251975Y-62683497D01*
X104251978Y-62683498D01*
X104295031Y-62687909D01*
X104349600Y-62693500D01*
X105650400Y-62693500D01*
X105653646Y-62693163D01*
X105653650Y-62693163D01*
X105749308Y-62683238D01*
X105749312Y-62683237D01*
X105756166Y-62682526D01*
X105762702Y-62680345D01*
X105762704Y-62680345D01*
X105894806Y-62636272D01*
X105923946Y-62626550D01*
X106074348Y-62533478D01*
X106199305Y-62408303D01*
X106292115Y-62257738D01*
X106347797Y-62089861D01*
X106358500Y-61985400D01*
X106358500Y-60534600D01*
X106347526Y-60428834D01*
X106343710Y-60417394D01*
X106293868Y-60268002D01*
X106291550Y-60261054D01*
X106198478Y-60110652D01*
X106073303Y-59985695D01*
X106036576Y-59963056D01*
X105928968Y-59896725D01*
X105928966Y-59896724D01*
X105922738Y-59892885D01*
X105762254Y-59839655D01*
X105761389Y-59839368D01*
X105761387Y-59839368D01*
X105754861Y-59837203D01*
X105748025Y-59836503D01*
X105748022Y-59836502D01*
X105704969Y-59832091D01*
X105650400Y-59826500D01*
X104349600Y-59826500D01*
X104346354Y-59826837D01*
X104346350Y-59826837D01*
X104250692Y-59836762D01*
X104250688Y-59836763D01*
X104243834Y-59837474D01*
X104237298Y-59839655D01*
X104237296Y-59839655D01*
X104196119Y-59853393D01*
X104076054Y-59893450D01*
X103925652Y-59986522D01*
X103800695Y-60111697D01*
X103796855Y-60117927D01*
X103796854Y-60117928D01*
X103770146Y-60161257D01*
X103707885Y-60262262D01*
X103652203Y-60430139D01*
X103641500Y-60534600D01*
X103641500Y-61985400D01*
X98000000Y-61985400D01*
X98000000Y-59500000D01*
X98686502Y-59500000D01*
X98706457Y-59728087D01*
X98707881Y-59733400D01*
X98707881Y-59733402D01*
X98735577Y-59836762D01*
X98765716Y-59949243D01*
X98768039Y-59954224D01*
X98768039Y-59954225D01*
X98860151Y-60151762D01*
X98860154Y-60151767D01*
X98862477Y-60156749D01*
X98865634Y-60161257D01*
X98976540Y-60319647D01*
X98993802Y-60344300D01*
X99155700Y-60506198D01*
X99160208Y-60509355D01*
X99160211Y-60509357D01*
X99191695Y-60531402D01*
X99343251Y-60637523D01*
X99348233Y-60639846D01*
X99348238Y-60639849D01*
X99545775Y-60731961D01*
X99550757Y-60734284D01*
X99556065Y-60735706D01*
X99556067Y-60735707D01*
X99766598Y-60792119D01*
X99766600Y-60792119D01*
X99771913Y-60793543D01*
X100000000Y-60813498D01*
X100228087Y-60793543D01*
X100233400Y-60792119D01*
X100233402Y-60792119D01*
X100443933Y-60735707D01*
X100443935Y-60735706D01*
X100449243Y-60734284D01*
X100454225Y-60731961D01*
X100651762Y-60639849D01*
X100651767Y-60639846D01*
X100656749Y-60637523D01*
X100808305Y-60531402D01*
X100839789Y-60509357D01*
X100839792Y-60509355D01*
X100844300Y-60506198D01*
X101006198Y-60344300D01*
X101023461Y-60319647D01*
X101134366Y-60161257D01*
X101137523Y-60156749D01*
X101139846Y-60151767D01*
X101139849Y-60151762D01*
X101231961Y-59954225D01*
X101231961Y-59954224D01*
X101234284Y-59949243D01*
X101264424Y-59836762D01*
X101292119Y-59733402D01*
X101292119Y-59733400D01*
X101293543Y-59728087D01*
X101313498Y-59500000D01*
X101293543Y-59271913D01*
X101234284Y-59050757D01*
X101231961Y-59045775D01*
X101139849Y-58848238D01*
X101139846Y-58848233D01*
X101137523Y-58843251D01*
X101006198Y-58655700D01*
X100844300Y-58493802D01*
X100839792Y-58490645D01*
X100839789Y-58490643D01*
X100761611Y-58435902D01*
X100656749Y-58362477D01*
X100651767Y-58360154D01*
X100651762Y-58360151D01*
X100454225Y-58268039D01*
X100454224Y-58268039D01*
X100449243Y-58265716D01*
X100443935Y-58264294D01*
X100443933Y-58264293D01*
X100233402Y-58207881D01*
X100233400Y-58207881D01*
X100228087Y-58206457D01*
X100000000Y-58186502D01*
X99771913Y-58206457D01*
X99766600Y-58207881D01*
X99766598Y-58207881D01*
X99556067Y-58264293D01*
X99556065Y-58264294D01*
X99550757Y-58265716D01*
X99545776Y-58268039D01*
X99545775Y-58268039D01*
X99348238Y-58360151D01*
X99348233Y-58360154D01*
X99343251Y-58362477D01*
X99238389Y-58435902D01*
X99160211Y-58490643D01*
X99160208Y-58490645D01*
X99155700Y-58493802D01*
X98993802Y-58655700D01*
X98862477Y-58843251D01*
X98860154Y-58848233D01*
X98860151Y-58848238D01*
X98768039Y-59045775D01*
X98765716Y-59050757D01*
X98706457Y-59271913D01*
X98686502Y-59500000D01*
X98000000Y-59500000D01*
X98000000Y-54545400D01*
X103641500Y-54545400D01*
X103641837Y-54548646D01*
X103641837Y-54548650D01*
X103642310Y-54553202D01*
X103652474Y-54651166D01*
X103654655Y-54657702D01*
X103654655Y-54657704D01*
X103685448Y-54750000D01*
X103708450Y-54818946D01*
X103801522Y-54969348D01*
X103926697Y-55094305D01*
X103932927Y-55098145D01*
X103932928Y-55098146D01*
X104070090Y-55182694D01*
X104077262Y-55187115D01*
X104113827Y-55199243D01*
X104238611Y-55240632D01*
X104238613Y-55240632D01*
X104245139Y-55242797D01*
X104251975Y-55243497D01*
X104251978Y-55243498D01*
X104295031Y-55247909D01*
X104349600Y-55253500D01*
X105650400Y-55253500D01*
X105653646Y-55253163D01*
X105653650Y-55253163D01*
X105749308Y-55243238D01*
X105749312Y-55243237D01*
X105756166Y-55242526D01*
X105762702Y-55240345D01*
X105762704Y-55240345D01*
X105894806Y-55196272D01*
X105923946Y-55186550D01*
X106074348Y-55093478D01*
X106199305Y-54968303D01*
X106292115Y-54817738D01*
X106347797Y-54649861D01*
X106358500Y-54545400D01*
X106358500Y-53094600D01*
X106357185Y-53081925D01*
X106348238Y-52995692D01*
X106348237Y-52995688D01*
X106347526Y-52988834D01*
X106343710Y-52977394D01*
X106293868Y-52828002D01*
X106291550Y-52821054D01*
X106198478Y-52670652D01*
X106073303Y-52545695D01*
X105969564Y-52481749D01*
X105928968Y-52456725D01*
X105928966Y-52456724D01*
X105922738Y-52452885D01*
X105762254Y-52399655D01*
X105761389Y-52399368D01*
X105761387Y-52399368D01*
X105754861Y-52397203D01*
X105748025Y-52396503D01*
X105748022Y-52396502D01*
X105704969Y-52392091D01*
X105650400Y-52386500D01*
X104349600Y-52386500D01*
X104346354Y-52386837D01*
X104346350Y-52386837D01*
X104250692Y-52396762D01*
X104250688Y-52396763D01*
X104243834Y-52397474D01*
X104237298Y-52399655D01*
X104237296Y-52399655D01*
X104196119Y-52413393D01*
X104076054Y-52453450D01*
X103925652Y-52546522D01*
X103800695Y-52671697D01*
X103707885Y-52822262D01*
X103652203Y-52990139D01*
X103651503Y-52996975D01*
X103651502Y-52996978D01*
X103647091Y-53040031D01*
X103641500Y-53094600D01*
X103641500Y-54545400D01*
X98000000Y-54545400D01*
X98000000Y-51825000D01*
X98686502Y-51825000D01*
X98706457Y-52053087D01*
X98765716Y-52274243D01*
X98768039Y-52279224D01*
X98768039Y-52279225D01*
X98860151Y-52476762D01*
X98860154Y-52476767D01*
X98862477Y-52481749D01*
X98993802Y-52669300D01*
X99155700Y-52831198D01*
X99160208Y-52834355D01*
X99160211Y-52834357D01*
X99238389Y-52889098D01*
X99343251Y-52962523D01*
X99348233Y-52964846D01*
X99348238Y-52964849D01*
X99545775Y-53056961D01*
X99550757Y-53059284D01*
X99556065Y-53060706D01*
X99556067Y-53060707D01*
X99766598Y-53117119D01*
X99766600Y-53117119D01*
X99771913Y-53118543D01*
X100000000Y-53138498D01*
X100228087Y-53118543D01*
X100233400Y-53117119D01*
X100233402Y-53117119D01*
X100443933Y-53060707D01*
X100443935Y-53060706D01*
X100449243Y-53059284D01*
X100454225Y-53056961D01*
X100651762Y-52964849D01*
X100651767Y-52964846D01*
X100656749Y-52962523D01*
X100761611Y-52889098D01*
X100839789Y-52834357D01*
X100839792Y-52834355D01*
X100844300Y-52831198D01*
X101006198Y-52669300D01*
X101137523Y-52481749D01*
X101139846Y-52476767D01*
X101139849Y-52476762D01*
X101231961Y-52279225D01*
X101231961Y-52279224D01*
X101234284Y-52274243D01*
X101293543Y-52053087D01*
X101313498Y-51825000D01*
X101293543Y-51596913D01*
X101234284Y-51375757D01*
X101231961Y-51370775D01*
X101139849Y-51173238D01*
X101139846Y-51173233D01*
X101137523Y-51168251D01*
X101006198Y-50980700D01*
X100844300Y-50818802D01*
X100839792Y-50815645D01*
X100839789Y-50815643D01*
X100761611Y-50760902D01*
X100656749Y-50687477D01*
X100651767Y-50685154D01*
X100651762Y-50685151D01*
X100454225Y-50593039D01*
X100454224Y-50593039D01*
X100449243Y-50590716D01*
X100443935Y-50589294D01*
X100443933Y-50589293D01*
X100233402Y-50532881D01*
X100233400Y-50532881D01*
X100228087Y-50531457D01*
X100000000Y-50511502D01*
X99771913Y-50531457D01*
X99766600Y-50532881D01*
X99766598Y-50532881D01*
X99556067Y-50589293D01*
X99556065Y-50589294D01*
X99550757Y-50590716D01*
X99545776Y-50593039D01*
X99545775Y-50593039D01*
X99348238Y-50685151D01*
X99348233Y-50685154D01*
X99343251Y-50687477D01*
X99238389Y-50760902D01*
X99160211Y-50815643D01*
X99160208Y-50815645D01*
X99155700Y-50818802D01*
X98993802Y-50980700D01*
X98862477Y-51168251D01*
X98860154Y-51173233D01*
X98860151Y-51173238D01*
X98768039Y-51370775D01*
X98765716Y-51375757D01*
X98706457Y-51596913D01*
X98686502Y-51825000D01*
X98000000Y-51825000D01*
X98000000Y-47105400D01*
X103641500Y-47105400D01*
X103641837Y-47108646D01*
X103641837Y-47108650D01*
X103642310Y-47113202D01*
X103652474Y-47211166D01*
X103654655Y-47217702D01*
X103654655Y-47217704D01*
X103693759Y-47334912D01*
X103708450Y-47378946D01*
X103801522Y-47529348D01*
X103926697Y-47654305D01*
X103932927Y-47658145D01*
X103932928Y-47658146D01*
X104070090Y-47742694D01*
X104077262Y-47747115D01*
X104118844Y-47760907D01*
X104238611Y-47800632D01*
X104238613Y-47800632D01*
X104245139Y-47802797D01*
X104251975Y-47803497D01*
X104251978Y-47803498D01*
X104295031Y-47807909D01*
X104349600Y-47813500D01*
X105650400Y-47813500D01*
X105653646Y-47813163D01*
X105653650Y-47813163D01*
X105749308Y-47803238D01*
X105749312Y-47803237D01*
X105756166Y-47802526D01*
X105762702Y-47800345D01*
X105762704Y-47800345D01*
X105894806Y-47756272D01*
X105923946Y-47746550D01*
X106074348Y-47653478D01*
X106199305Y-47528303D01*
X106292115Y-47377738D01*
X106347797Y-47209861D01*
X106350311Y-47185330D01*
X106357201Y-47118075D01*
X106358500Y-47105400D01*
X106358500Y-45654600D01*
X106357185Y-45641925D01*
X106348238Y-45555692D01*
X106348237Y-45555688D01*
X106347526Y-45548834D01*
X106343710Y-45537394D01*
X106293868Y-45388002D01*
X106291550Y-45381054D01*
X106198478Y-45230652D01*
X106073303Y-45105695D01*
X105969582Y-45041760D01*
X105928968Y-45016725D01*
X105928966Y-45016724D01*
X105922738Y-45012885D01*
X105762254Y-44959655D01*
X105761389Y-44959368D01*
X105761387Y-44959368D01*
X105754861Y-44957203D01*
X105748025Y-44956503D01*
X105748022Y-44956502D01*
X105704969Y-44952091D01*
X105650400Y-44946500D01*
X104349600Y-44946500D01*
X104346354Y-44946837D01*
X104346350Y-44946837D01*
X104250692Y-44956762D01*
X104250688Y-44956763D01*
X104243834Y-44957474D01*
X104237298Y-44959655D01*
X104237296Y-44959655D01*
X104196119Y-44973393D01*
X104076054Y-45013450D01*
X103925652Y-45106522D01*
X103800695Y-45231697D01*
X103796855Y-45237927D01*
X103796854Y-45237928D01*
X103741764Y-45327301D01*
X103707885Y-45382262D01*
X103705581Y-45389209D01*
X103656580Y-45536944D01*
X103652203Y-45550139D01*
X103641500Y-45654600D01*
X103641500Y-47105400D01*
X98000000Y-47105400D01*
X98000000Y-44325000D01*
X98686502Y-44325000D01*
X98706457Y-44553087D01*
X98765716Y-44774243D01*
X98768039Y-44779224D01*
X98768039Y-44779225D01*
X98860151Y-44976762D01*
X98860154Y-44976767D01*
X98862477Y-44981749D01*
X98993802Y-45169300D01*
X99155700Y-45331198D01*
X99160208Y-45334355D01*
X99160211Y-45334357D01*
X99228627Y-45382262D01*
X99343251Y-45462523D01*
X99348233Y-45464846D01*
X99348238Y-45464849D01*
X99531145Y-45550139D01*
X99550757Y-45559284D01*
X99556065Y-45560706D01*
X99556067Y-45560707D01*
X99766598Y-45617119D01*
X99766600Y-45617119D01*
X99771913Y-45618543D01*
X100000000Y-45638498D01*
X100228087Y-45618543D01*
X100233400Y-45617119D01*
X100233402Y-45617119D01*
X100443933Y-45560707D01*
X100443935Y-45560706D01*
X100449243Y-45559284D01*
X100468855Y-45550139D01*
X100651762Y-45464849D01*
X100651767Y-45464846D01*
X100656749Y-45462523D01*
X100771373Y-45382262D01*
X100839789Y-45334357D01*
X100839792Y-45334355D01*
X100844300Y-45331198D01*
X101006198Y-45169300D01*
X101137523Y-44981749D01*
X101139846Y-44976767D01*
X101139849Y-44976762D01*
X101231961Y-44779225D01*
X101231961Y-44779224D01*
X101234284Y-44774243D01*
X101293543Y-44553087D01*
X101313498Y-44325000D01*
X101293543Y-44096913D01*
X101234284Y-43875757D01*
X101231961Y-43870775D01*
X101139849Y-43673238D01*
X101139846Y-43673233D01*
X101137523Y-43668251D01*
X101006198Y-43480700D01*
X100844300Y-43318802D01*
X100839792Y-43315645D01*
X100839789Y-43315643D01*
X100761611Y-43260902D01*
X100656749Y-43187477D01*
X100651767Y-43185154D01*
X100651762Y-43185151D01*
X100454225Y-43093039D01*
X100454224Y-43093039D01*
X100449243Y-43090716D01*
X100443935Y-43089294D01*
X100443933Y-43089293D01*
X100233402Y-43032881D01*
X100233400Y-43032881D01*
X100228087Y-43031457D01*
X100000000Y-43011502D01*
X99771913Y-43031457D01*
X99766600Y-43032881D01*
X99766598Y-43032881D01*
X99556067Y-43089293D01*
X99556065Y-43089294D01*
X99550757Y-43090716D01*
X99545776Y-43093039D01*
X99545775Y-43093039D01*
X99348238Y-43185151D01*
X99348233Y-43185154D01*
X99343251Y-43187477D01*
X99238389Y-43260902D01*
X99160211Y-43315643D01*
X99160208Y-43315645D01*
X99155700Y-43318802D01*
X98993802Y-43480700D01*
X98862477Y-43668251D01*
X98860154Y-43673233D01*
X98860151Y-43673238D01*
X98768039Y-43870775D01*
X98765716Y-43875757D01*
X98706457Y-44096913D01*
X98686502Y-44325000D01*
X98000000Y-44325000D01*
X98000000Y-39665400D01*
X103641500Y-39665400D01*
X103641837Y-39668646D01*
X103641837Y-39668650D01*
X103642310Y-39673202D01*
X103652474Y-39771166D01*
X103654655Y-39777702D01*
X103654655Y-39777704D01*
X103693070Y-39892847D01*
X103708450Y-39938946D01*
X103801522Y-40089348D01*
X103926697Y-40214305D01*
X103932927Y-40218145D01*
X103932928Y-40218146D01*
X104070090Y-40302694D01*
X104077262Y-40307115D01*
X104118844Y-40320907D01*
X104238611Y-40360632D01*
X104238613Y-40360632D01*
X104245139Y-40362797D01*
X104251975Y-40363497D01*
X104251978Y-40363498D01*
X104295031Y-40367909D01*
X104349600Y-40373500D01*
X105650400Y-40373500D01*
X105653646Y-40373163D01*
X105653650Y-40373163D01*
X105749308Y-40363238D01*
X105749312Y-40363237D01*
X105756166Y-40362526D01*
X105762702Y-40360345D01*
X105762704Y-40360345D01*
X105894806Y-40316272D01*
X105923946Y-40306550D01*
X106074348Y-40213478D01*
X106199305Y-40088303D01*
X106292115Y-39937738D01*
X106347797Y-39769861D01*
X106358500Y-39665400D01*
X106358500Y-38214600D01*
X106355942Y-38189946D01*
X106348238Y-38115692D01*
X106348237Y-38115688D01*
X106347526Y-38108834D01*
X106343710Y-38097394D01*
X106293868Y-37948002D01*
X106291550Y-37941054D01*
X106198478Y-37790652D01*
X106073303Y-37665695D01*
X105969582Y-37601760D01*
X105928968Y-37576725D01*
X105928966Y-37576724D01*
X105922738Y-37572885D01*
X105762254Y-37519655D01*
X105761389Y-37519368D01*
X105761387Y-37519368D01*
X105754861Y-37517203D01*
X105748025Y-37516503D01*
X105748022Y-37516502D01*
X105704969Y-37512091D01*
X105650400Y-37506500D01*
X104349600Y-37506500D01*
X104346354Y-37506837D01*
X104346350Y-37506837D01*
X104250692Y-37516762D01*
X104250688Y-37516763D01*
X104243834Y-37517474D01*
X104237298Y-37519655D01*
X104237296Y-37519655D01*
X104196119Y-37533393D01*
X104076054Y-37573450D01*
X103925652Y-37666522D01*
X103800695Y-37791697D01*
X103796855Y-37797927D01*
X103796854Y-37797928D01*
X103794159Y-37802301D01*
X103707885Y-37942262D01*
X103685192Y-38010681D01*
X103657708Y-38093543D01*
X103652203Y-38110139D01*
X103641500Y-38214600D01*
X103641500Y-39665400D01*
X98000000Y-39665400D01*
X98000000Y-36800000D01*
X98686502Y-36800000D01*
X98706457Y-37028087D01*
X98765716Y-37249243D01*
X98768039Y-37254224D01*
X98768039Y-37254225D01*
X98860151Y-37451762D01*
X98860154Y-37451767D01*
X98862477Y-37456749D01*
X98916144Y-37533393D01*
X98943797Y-37572885D01*
X98993802Y-37644300D01*
X99155700Y-37806198D01*
X99160208Y-37809355D01*
X99160211Y-37809357D01*
X99209494Y-37843865D01*
X99343251Y-37937523D01*
X99348233Y-37939846D01*
X99348238Y-37939849D01*
X99545775Y-38031961D01*
X99550757Y-38034284D01*
X99556065Y-38035706D01*
X99556067Y-38035707D01*
X99766598Y-38092119D01*
X99766600Y-38092119D01*
X99771913Y-38093543D01*
X100000000Y-38113498D01*
X100228087Y-38093543D01*
X100233400Y-38092119D01*
X100233402Y-38092119D01*
X100443933Y-38035707D01*
X100443935Y-38035706D01*
X100449243Y-38034284D01*
X100454225Y-38031961D01*
X100651762Y-37939849D01*
X100651767Y-37939846D01*
X100656749Y-37937523D01*
X100790506Y-37843865D01*
X100839789Y-37809357D01*
X100839792Y-37809355D01*
X100844300Y-37806198D01*
X101006198Y-37644300D01*
X101056204Y-37572885D01*
X101083856Y-37533393D01*
X101137523Y-37456749D01*
X101139846Y-37451767D01*
X101139849Y-37451762D01*
X101231961Y-37254225D01*
X101231961Y-37254224D01*
X101234284Y-37249243D01*
X101293543Y-37028087D01*
X101313498Y-36800000D01*
X101293543Y-36571913D01*
X101234284Y-36350757D01*
X101231961Y-36345775D01*
X101139849Y-36148238D01*
X101139846Y-36148233D01*
X101137523Y-36143251D01*
X101006198Y-35955700D01*
X100844300Y-35793802D01*
X100839792Y-35790645D01*
X100839789Y-35790643D01*
X100761611Y-35735902D01*
X100656749Y-35662477D01*
X100651767Y-35660154D01*
X100651762Y-35660151D01*
X100454225Y-35568039D01*
X100454224Y-35568039D01*
X100449243Y-35565716D01*
X100443935Y-35564294D01*
X100443933Y-35564293D01*
X100233402Y-35507881D01*
X100233400Y-35507881D01*
X100228087Y-35506457D01*
X100000000Y-35486502D01*
X99771913Y-35506457D01*
X99766600Y-35507881D01*
X99766598Y-35507881D01*
X99556067Y-35564293D01*
X99556065Y-35564294D01*
X99550757Y-35565716D01*
X99545776Y-35568039D01*
X99545775Y-35568039D01*
X99348238Y-35660151D01*
X99348233Y-35660154D01*
X99343251Y-35662477D01*
X99238389Y-35735902D01*
X99160211Y-35790643D01*
X99160208Y-35790645D01*
X99155700Y-35793802D01*
X98993802Y-35955700D01*
X98862477Y-36143251D01*
X98860154Y-36148233D01*
X98860151Y-36148238D01*
X98768039Y-36345775D01*
X98765716Y-36350757D01*
X98706457Y-36571913D01*
X98686502Y-36800000D01*
X98000000Y-36800000D01*
X98000000Y-33750000D01*
X97371664Y-32933163D01*
X97011045Y-32464358D01*
X97011044Y-32464357D01*
X97000000Y-32450000D01*
X86783382Y-32450000D01*
X86715261Y-32429998D01*
X86689752Y-32408316D01*
X86611253Y-32321134D01*
X86496933Y-32238075D01*
X86479487Y-32225400D01*
X103641500Y-32225400D01*
X103641837Y-32228646D01*
X103641837Y-32228650D01*
X103642310Y-32233202D01*
X103652474Y-32331166D01*
X103654655Y-32337702D01*
X103654655Y-32337704D01*
X103685447Y-32429998D01*
X103708450Y-32498946D01*
X103801522Y-32649348D01*
X103926697Y-32774305D01*
X103932927Y-32778145D01*
X103932928Y-32778146D01*
X104070090Y-32862694D01*
X104077262Y-32867115D01*
X104118844Y-32880907D01*
X104238611Y-32920632D01*
X104238613Y-32920632D01*
X104245139Y-32922797D01*
X104251975Y-32923497D01*
X104251978Y-32923498D01*
X104295031Y-32927909D01*
X104349600Y-32933500D01*
X105650400Y-32933500D01*
X105653646Y-32933163D01*
X105653650Y-32933163D01*
X105749308Y-32923238D01*
X105749312Y-32923237D01*
X105756166Y-32922526D01*
X105762702Y-32920345D01*
X105762704Y-32920345D01*
X105894806Y-32876272D01*
X105923946Y-32866550D01*
X106074348Y-32773478D01*
X106199305Y-32648303D01*
X106292115Y-32497738D01*
X106347797Y-32329861D01*
X106358500Y-32225400D01*
X106358500Y-30774600D01*
X106347526Y-30668834D01*
X106343710Y-30657394D01*
X106293868Y-30508002D01*
X106291550Y-30501054D01*
X106198478Y-30350652D01*
X106073303Y-30225695D01*
X105969582Y-30161760D01*
X105928968Y-30136725D01*
X105928966Y-30136724D01*
X105922738Y-30132885D01*
X105762254Y-30079655D01*
X105761389Y-30079368D01*
X105761387Y-30079368D01*
X105754861Y-30077203D01*
X105748025Y-30076503D01*
X105748022Y-30076502D01*
X105704969Y-30072091D01*
X105650400Y-30066500D01*
X104349600Y-30066500D01*
X104346354Y-30066837D01*
X104346350Y-30066837D01*
X104250692Y-30076762D01*
X104250688Y-30076763D01*
X104243834Y-30077474D01*
X104237298Y-30079655D01*
X104237296Y-30079655D01*
X104196119Y-30093393D01*
X104076054Y-30133450D01*
X103925652Y-30226522D01*
X103800695Y-30351697D01*
X103796855Y-30357927D01*
X103796854Y-30357928D01*
X103732381Y-30462523D01*
X103707885Y-30502262D01*
X103705581Y-30509209D01*
X103669317Y-30618543D01*
X103652203Y-30670139D01*
X103641500Y-30774600D01*
X103641500Y-32225400D01*
X86479487Y-32225400D01*
X86462094Y-32212763D01*
X86462093Y-32212762D01*
X86456752Y-32208882D01*
X86450724Y-32206198D01*
X86450722Y-32206197D01*
X86288319Y-32133891D01*
X86288318Y-32133891D01*
X86282288Y-32131206D01*
X86188888Y-32111353D01*
X86101944Y-32092872D01*
X86101939Y-32092872D01*
X86095487Y-32091500D01*
X85904513Y-32091500D01*
X85898061Y-32092872D01*
X85898056Y-32092872D01*
X85811112Y-32111353D01*
X85717712Y-32131206D01*
X85711682Y-32133891D01*
X85711681Y-32133891D01*
X85549278Y-32206197D01*
X85549276Y-32206198D01*
X85543248Y-32208882D01*
X85537907Y-32212762D01*
X85537906Y-32212763D01*
X85503067Y-32238075D01*
X85388747Y-32321134D01*
X85310254Y-32408310D01*
X85298256Y-32421635D01*
X85253182Y-32450000D01*
X85250000Y-32450000D01*
X84286905Y-33413095D01*
X84224593Y-33447121D01*
X84197810Y-33450000D01*
X81286544Y-33450000D01*
X81219127Y-33430447D01*
X80954650Y-33262945D01*
X79808582Y-32537102D01*
X79761736Y-32483757D01*
X79750000Y-32430656D01*
X79750000Y-30550000D01*
X86136496Y-30550000D01*
X86137186Y-30556565D01*
X86149707Y-30675692D01*
X86156458Y-30739928D01*
X86215473Y-30921556D01*
X86310960Y-31086944D01*
X86438747Y-31228866D01*
X86593248Y-31341118D01*
X86599276Y-31343802D01*
X86599278Y-31343803D01*
X86651627Y-31367110D01*
X86767712Y-31418794D01*
X86861113Y-31438647D01*
X86948056Y-31457128D01*
X86948061Y-31457128D01*
X86954513Y-31458500D01*
X87145487Y-31458500D01*
X87151939Y-31457128D01*
X87151944Y-31457128D01*
X87238887Y-31438647D01*
X87332288Y-31418794D01*
X87448373Y-31367110D01*
X87500722Y-31343803D01*
X87500724Y-31343802D01*
X87506752Y-31341118D01*
X87661253Y-31228866D01*
X87789040Y-31086944D01*
X87884527Y-30921556D01*
X87943542Y-30739928D01*
X87950294Y-30675692D01*
X87962814Y-30556565D01*
X87963504Y-30550000D01*
X87943542Y-30360072D01*
X87884527Y-30178444D01*
X87874895Y-30161760D01*
X87822928Y-30071751D01*
X87789040Y-30013056D01*
X87661253Y-29871134D01*
X87506752Y-29758882D01*
X87500724Y-29756198D01*
X87500722Y-29756197D01*
X87338319Y-29683891D01*
X87338318Y-29683891D01*
X87332288Y-29681206D01*
X87238887Y-29661353D01*
X87151944Y-29642872D01*
X87151939Y-29642872D01*
X87145487Y-29641500D01*
X86954513Y-29641500D01*
X86948061Y-29642872D01*
X86948056Y-29642872D01*
X86861113Y-29661353D01*
X86767712Y-29681206D01*
X86761682Y-29683891D01*
X86761681Y-29683891D01*
X86599278Y-29756197D01*
X86599276Y-29756198D01*
X86593248Y-29758882D01*
X86438747Y-29871134D01*
X86310960Y-30013056D01*
X86277072Y-30071751D01*
X86225106Y-30161760D01*
X86215473Y-30178444D01*
X86156458Y-30360072D01*
X86136496Y-30550000D01*
X79750000Y-30550000D01*
X79750000Y-29325000D01*
X98686502Y-29325000D01*
X98706457Y-29553087D01*
X98707881Y-29558400D01*
X98707881Y-29558402D01*
X98760881Y-29756197D01*
X98765716Y-29774243D01*
X98768039Y-29779224D01*
X98768039Y-29779225D01*
X98860151Y-29976762D01*
X98860154Y-29976767D01*
X98862477Y-29981749D01*
X98925497Y-30071751D01*
X98970993Y-30136725D01*
X98993802Y-30169300D01*
X99155700Y-30331198D01*
X99160208Y-30334355D01*
X99160211Y-30334357D01*
X99193874Y-30357928D01*
X99343251Y-30462523D01*
X99348233Y-30464846D01*
X99348238Y-30464849D01*
X99516768Y-30543435D01*
X99550757Y-30559284D01*
X99556065Y-30560706D01*
X99556067Y-30560707D01*
X99766598Y-30617119D01*
X99766600Y-30617119D01*
X99771913Y-30618543D01*
X100000000Y-30638498D01*
X100228087Y-30618543D01*
X100233400Y-30617119D01*
X100233402Y-30617119D01*
X100443933Y-30560707D01*
X100443935Y-30560706D01*
X100449243Y-30559284D01*
X100483232Y-30543435D01*
X100651762Y-30464849D01*
X100651767Y-30464846D01*
X100656749Y-30462523D01*
X100806126Y-30357928D01*
X100839789Y-30334357D01*
X100839792Y-30334355D01*
X100844300Y-30331198D01*
X101006198Y-30169300D01*
X101029008Y-30136725D01*
X101074503Y-30071751D01*
X101137523Y-29981749D01*
X101139846Y-29976767D01*
X101139849Y-29976762D01*
X101231961Y-29779225D01*
X101231961Y-29779224D01*
X101234284Y-29774243D01*
X101239120Y-29756197D01*
X101292119Y-29558402D01*
X101292119Y-29558400D01*
X101293543Y-29553087D01*
X101313498Y-29325000D01*
X101293543Y-29096913D01*
X101234284Y-28875757D01*
X101231961Y-28870775D01*
X101139849Y-28673238D01*
X101139846Y-28673233D01*
X101137523Y-28668251D01*
X101006198Y-28480700D01*
X100844300Y-28318802D01*
X100839792Y-28315645D01*
X100839789Y-28315643D01*
X100761611Y-28260902D01*
X100656749Y-28187477D01*
X100651767Y-28185154D01*
X100651762Y-28185151D01*
X100454225Y-28093039D01*
X100454224Y-28093039D01*
X100449243Y-28090716D01*
X100443935Y-28089294D01*
X100443933Y-28089293D01*
X100233402Y-28032881D01*
X100233400Y-28032881D01*
X100228087Y-28031457D01*
X100000000Y-28011502D01*
X99771913Y-28031457D01*
X99766600Y-28032881D01*
X99766598Y-28032881D01*
X99556067Y-28089293D01*
X99556065Y-28089294D01*
X99550757Y-28090716D01*
X99545776Y-28093039D01*
X99545775Y-28093039D01*
X99348238Y-28185151D01*
X99348233Y-28185154D01*
X99343251Y-28187477D01*
X99238389Y-28260902D01*
X99160211Y-28315643D01*
X99160208Y-28315645D01*
X99155700Y-28318802D01*
X98993802Y-28480700D01*
X98862477Y-28668251D01*
X98860154Y-28673233D01*
X98860151Y-28673238D01*
X98768039Y-28870775D01*
X98765716Y-28875757D01*
X98706457Y-29096913D01*
X98686502Y-29325000D01*
X79750000Y-29325000D01*
X79750000Y-27078877D01*
X79770002Y-27010756D01*
X79820950Y-26965539D01*
X81473931Y-26162662D01*
X81528981Y-26150000D01*
X84843784Y-26150000D01*
X84911905Y-26170002D01*
G37*
%TD.AperFunction*%
%TD*%
M02*
