G04 #@! TF.GenerationSoftware,KiCad,Pcbnew,7.0.8*
G04 #@! TF.CreationDate,2024-06-09T13:28:57-04:00*
G04 #@! TF.ProjectId,bez_controller1v5,62657a5f-636f-46e7-9472-6f6c6c657231,rev?*
G04 #@! TF.SameCoordinates,Original*
G04 #@! TF.FileFunction,Copper,L1,Top*
G04 #@! TF.FilePolarity,Positive*
%FSLAX46Y46*%
G04 Gerber Fmt 4.6, Leading zero omitted, Abs format (unit mm)*
G04 Created by KiCad (PCBNEW 7.0.8) date 2024-06-09 13:28:57*
%MOMM*%
%LPD*%
G01*
G04 APERTURE LIST*
G04 Aperture macros list*
%AMRoundRect*
0 Rectangle with rounded corners*
0 $1 Rounding radius*
0 $2 $3 $4 $5 $6 $7 $8 $9 X,Y pos of 4 corners*
0 Add a 4 corners polygon primitive as box body*
4,1,4,$2,$3,$4,$5,$6,$7,$8,$9,$2,$3,0*
0 Add four circle primitives for the rounded corners*
1,1,$1+$1,$2,$3*
1,1,$1+$1,$4,$5*
1,1,$1+$1,$6,$7*
1,1,$1+$1,$8,$9*
0 Add four rect primitives between the rounded corners*
20,1,$1+$1,$2,$3,$4,$5,0*
20,1,$1+$1,$4,$5,$6,$7,0*
20,1,$1+$1,$6,$7,$8,$9,0*
20,1,$1+$1,$8,$9,$2,$3,0*%
G04 Aperture macros list end*
G04 #@! TA.AperFunction,ComponentPad*
%ADD10R,1.700000X1.700000*%
G04 #@! TD*
G04 #@! TA.AperFunction,ComponentPad*
%ADD11O,1.700000X1.700000*%
G04 #@! TD*
G04 #@! TA.AperFunction,ComponentPad*
%ADD12R,1.000000X1.000000*%
G04 #@! TD*
G04 #@! TA.AperFunction,ComponentPad*
%ADD13O,1.000000X1.000000*%
G04 #@! TD*
G04 #@! TA.AperFunction,SMDPad,CuDef*
%ADD14RoundRect,0.150000X-0.512500X-0.150000X0.512500X-0.150000X0.512500X0.150000X-0.512500X0.150000X0*%
G04 #@! TD*
G04 #@! TA.AperFunction,ComponentPad*
%ADD15R,1.600000X1.600000*%
G04 #@! TD*
G04 #@! TA.AperFunction,ComponentPad*
%ADD16C,1.600000*%
G04 #@! TD*
G04 #@! TA.AperFunction,SMDPad,CuDef*
%ADD17RoundRect,0.200000X-0.275000X0.200000X-0.275000X-0.200000X0.275000X-0.200000X0.275000X0.200000X0*%
G04 #@! TD*
G04 #@! TA.AperFunction,SMDPad,CuDef*
%ADD18RoundRect,0.250000X0.475000X-0.250000X0.475000X0.250000X-0.475000X0.250000X-0.475000X-0.250000X0*%
G04 #@! TD*
G04 #@! TA.AperFunction,ComponentPad*
%ADD19R,0.900000X2.000000*%
G04 #@! TD*
G04 #@! TA.AperFunction,ComponentPad*
%ADD20C,4.100000*%
G04 #@! TD*
G04 #@! TA.AperFunction,ComponentPad*
%ADD21RoundRect,1.025000X-1.025000X-1.025000X1.025000X-1.025000X1.025000X1.025000X-1.025000X1.025000X0*%
G04 #@! TD*
G04 #@! TA.AperFunction,ComponentPad*
%ADD22R,2.000000X1.905000*%
G04 #@! TD*
G04 #@! TA.AperFunction,ComponentPad*
%ADD23O,2.000000X1.905000*%
G04 #@! TD*
G04 #@! TA.AperFunction,SMDPad,CuDef*
%ADD24RoundRect,0.225000X-0.225000X-0.250000X0.225000X-0.250000X0.225000X0.250000X-0.225000X0.250000X0*%
G04 #@! TD*
G04 #@! TA.AperFunction,SMDPad,CuDef*
%ADD25RoundRect,0.200000X0.275000X-0.200000X0.275000X0.200000X-0.275000X0.200000X-0.275000X-0.200000X0*%
G04 #@! TD*
G04 #@! TA.AperFunction,SMDPad,CuDef*
%ADD26RoundRect,0.250000X-0.362500X-1.075000X0.362500X-1.075000X0.362500X1.075000X-0.362500X1.075000X0*%
G04 #@! TD*
G04 #@! TA.AperFunction,SMDPad,CuDef*
%ADD27RoundRect,0.225000X0.225000X0.250000X-0.225000X0.250000X-0.225000X-0.250000X0.225000X-0.250000X0*%
G04 #@! TD*
G04 #@! TA.AperFunction,SMDPad,CuDef*
%ADD28RoundRect,0.225000X-0.250000X0.225000X-0.250000X-0.225000X0.250000X-0.225000X0.250000X0.225000X0*%
G04 #@! TD*
G04 #@! TA.AperFunction,ComponentPad*
%ADD29O,1.700000X1.850000*%
G04 #@! TD*
G04 #@! TA.AperFunction,ComponentPad*
%ADD30RoundRect,0.250000X-0.600000X-0.675000X0.600000X-0.675000X0.600000X0.675000X-0.600000X0.675000X0*%
G04 #@! TD*
G04 #@! TA.AperFunction,SMDPad,CuDef*
%ADD31RoundRect,0.075000X0.075000X-0.700000X0.075000X0.700000X-0.075000X0.700000X-0.075000X-0.700000X0*%
G04 #@! TD*
G04 #@! TA.AperFunction,SMDPad,CuDef*
%ADD32RoundRect,0.075000X0.700000X-0.075000X0.700000X0.075000X-0.700000X0.075000X-0.700000X-0.075000X0*%
G04 #@! TD*
G04 #@! TA.AperFunction,SMDPad,CuDef*
%ADD33RoundRect,0.250000X-0.250000X-0.475000X0.250000X-0.475000X0.250000X0.475000X-0.250000X0.475000X0*%
G04 #@! TD*
G04 #@! TA.AperFunction,SMDPad,CuDef*
%ADD34R,1.450000X0.450000*%
G04 #@! TD*
G04 #@! TA.AperFunction,SMDPad,CuDef*
%ADD35RoundRect,0.225000X0.250000X-0.225000X0.250000X0.225000X-0.250000X0.225000X-0.250000X-0.225000X0*%
G04 #@! TD*
G04 #@! TA.AperFunction,SMDPad,CuDef*
%ADD36RoundRect,0.218750X-0.256250X0.218750X-0.256250X-0.218750X0.256250X-0.218750X0.256250X0.218750X0*%
G04 #@! TD*
G04 #@! TA.AperFunction,SMDPad,CuDef*
%ADD37R,2.000000X1.500000*%
G04 #@! TD*
G04 #@! TA.AperFunction,SMDPad,CuDef*
%ADD38R,2.000000X3.800000*%
G04 #@! TD*
G04 #@! TA.AperFunction,SMDPad,CuDef*
%ADD39RoundRect,0.200000X0.200000X0.275000X-0.200000X0.275000X-0.200000X-0.275000X0.200000X-0.275000X0*%
G04 #@! TD*
G04 #@! TA.AperFunction,SMDPad,CuDef*
%ADD40RoundRect,0.218750X-0.218750X-0.256250X0.218750X-0.256250X0.218750X0.256250X-0.218750X0.256250X0*%
G04 #@! TD*
G04 #@! TA.AperFunction,SMDPad,CuDef*
%ADD41RoundRect,0.218750X0.256250X-0.218750X0.256250X0.218750X-0.256250X0.218750X-0.256250X-0.218750X0*%
G04 #@! TD*
G04 #@! TA.AperFunction,SMDPad,CuDef*
%ADD42RoundRect,0.200000X-0.200000X-0.275000X0.200000X-0.275000X0.200000X0.275000X-0.200000X0.275000X0*%
G04 #@! TD*
G04 #@! TA.AperFunction,SMDPad,CuDef*
%ADD43R,0.500000X2.250000*%
G04 #@! TD*
G04 #@! TA.AperFunction,ComponentPad*
%ADD44O,1.700000X2.700000*%
G04 #@! TD*
G04 #@! TA.AperFunction,ComponentPad*
%ADD45C,1.500000*%
G04 #@! TD*
G04 #@! TA.AperFunction,SMDPad,CuDef*
%ADD46RoundRect,0.150000X0.150000X-0.512500X0.150000X0.512500X-0.150000X0.512500X-0.150000X-0.512500X0*%
G04 #@! TD*
G04 #@! TA.AperFunction,ViaPad*
%ADD47C,0.800000*%
G04 #@! TD*
G04 #@! TA.AperFunction,ViaPad*
%ADD48C,0.700000*%
G04 #@! TD*
G04 #@! TA.AperFunction,Conductor*
%ADD49C,0.250000*%
G04 #@! TD*
G04 #@! TA.AperFunction,Conductor*
%ADD50C,0.500000*%
G04 #@! TD*
G04 #@! TA.AperFunction,Conductor*
%ADD51C,0.800000*%
G04 #@! TD*
G04 #@! TA.AperFunction,Conductor*
%ADD52C,2.000000*%
G04 #@! TD*
G04 #@! TA.AperFunction,Conductor*
%ADD53C,0.200000*%
G04 #@! TD*
G04 APERTURE END LIST*
D10*
X96290000Y-68600000D03*
D11*
X93750000Y-68600000D03*
X91210000Y-68600000D03*
X88670000Y-68600000D03*
X86130000Y-68600000D03*
X83590000Y-68600000D03*
X81050000Y-68600000D03*
X78510000Y-68600000D03*
D12*
X80000000Y-82280000D03*
D13*
X81270000Y-82280000D03*
X82540000Y-82280000D03*
X83810000Y-82280000D03*
X85080000Y-82280000D03*
X86350000Y-82280000D03*
X87620000Y-82280000D03*
D14*
X102362500Y-29050000D03*
X102362500Y-30000000D03*
X102362500Y-30950000D03*
X104637500Y-30950000D03*
X104637500Y-29050000D03*
D15*
X74000000Y-48000000D03*
D16*
X72000000Y-48000000D03*
D17*
X36125000Y-44762500D03*
X36125000Y-46412500D03*
D18*
X85400000Y-53900000D03*
X85400000Y-52000000D03*
D10*
X53187600Y-43129200D03*
D11*
X55727600Y-43129200D03*
X58267600Y-43129200D03*
D19*
X84150000Y-28250000D03*
X97650000Y-28250000D03*
D20*
X87300000Y-34250000D03*
D21*
X94500000Y-34250000D03*
D22*
X81584800Y-54203600D03*
D23*
X81584800Y-51663600D03*
X81584800Y-49123600D03*
D24*
X47625000Y-65150000D03*
X49175000Y-65150000D03*
D25*
X107400000Y-31825000D03*
X107400000Y-30175000D03*
D22*
X88341200Y-48768000D03*
D23*
X88341200Y-51308000D03*
X88341200Y-53848000D03*
D17*
X73700000Y-76675000D03*
X73700000Y-78325000D03*
D26*
X100687500Y-34600000D03*
X105312500Y-34600000D03*
D17*
X73700000Y-73675000D03*
X73700000Y-75325000D03*
D27*
X53475000Y-64900000D03*
X51925000Y-64900000D03*
D28*
X54800000Y-49475000D03*
X54800000Y-51025000D03*
D17*
X65550000Y-47000000D03*
X65550000Y-48650000D03*
D29*
X121840000Y-74860000D03*
X119340000Y-74860000D03*
D30*
X116840000Y-74860000D03*
D31*
X43240000Y-59980200D03*
X43740000Y-59980200D03*
X44240000Y-59980200D03*
X44740000Y-59980200D03*
X45240000Y-59980200D03*
X45740000Y-59980200D03*
X46240000Y-59980200D03*
X46740000Y-59980200D03*
X47240000Y-59980200D03*
X47740000Y-59980200D03*
X48240000Y-59980200D03*
X48740000Y-59980200D03*
X49240000Y-59980200D03*
X49740000Y-59980200D03*
X50240000Y-59980200D03*
X50740000Y-59980200D03*
D32*
X52665000Y-58055200D03*
X52665000Y-57555200D03*
X52665000Y-57055200D03*
X52665000Y-56555200D03*
X52665000Y-56055200D03*
X52665000Y-55555200D03*
X52665000Y-55055200D03*
X52665000Y-54555200D03*
X52665000Y-54055200D03*
X52665000Y-53555200D03*
X52665000Y-53055200D03*
X52665000Y-52555200D03*
X52665000Y-52055200D03*
X52665000Y-51555200D03*
X52665000Y-51055200D03*
X52665000Y-50555200D03*
D31*
X50740000Y-48630200D03*
X50240000Y-48630200D03*
X49740000Y-48630200D03*
X49240000Y-48630200D03*
X48740000Y-48630200D03*
X48240000Y-48630200D03*
X47740000Y-48630200D03*
X47240000Y-48630200D03*
X46740000Y-48630200D03*
X46240000Y-48630200D03*
X45740000Y-48630200D03*
X45240000Y-48630200D03*
X44740000Y-48630200D03*
X44240000Y-48630200D03*
X43740000Y-48630200D03*
X43240000Y-48630200D03*
D32*
X41315000Y-50555200D03*
X41315000Y-51055200D03*
X41315000Y-51555200D03*
X41315000Y-52055200D03*
X41315000Y-52555200D03*
X41315000Y-53055200D03*
X41315000Y-53555200D03*
X41315000Y-54055200D03*
X41315000Y-54555200D03*
X41315000Y-55055200D03*
X41315000Y-55555200D03*
X41315000Y-56055200D03*
X41315000Y-56555200D03*
X41315000Y-57055200D03*
X41315000Y-57555200D03*
X41315000Y-58055200D03*
D33*
X88400000Y-44600000D03*
X90300000Y-44600000D03*
D34*
X106954000Y-54536380D03*
X106954000Y-53886380D03*
X106954000Y-53236380D03*
X106954000Y-52586380D03*
X102554000Y-52586380D03*
X102554000Y-53236380D03*
X102554000Y-53886380D03*
X102554000Y-54536380D03*
D35*
X62500000Y-65325000D03*
X62500000Y-63775000D03*
D30*
X116840000Y-54010000D03*
D29*
X119340000Y-54010000D03*
X121840000Y-54010000D03*
D27*
X45175000Y-65150000D03*
X43625000Y-65150000D03*
D12*
X80000000Y-64500000D03*
D13*
X81270000Y-64500000D03*
X82540000Y-64500000D03*
X83810000Y-64500000D03*
X85080000Y-64500000D03*
X86350000Y-64500000D03*
X87620000Y-64500000D03*
X88890000Y-64500000D03*
X90160000Y-64500000D03*
D36*
X36125000Y-41400000D03*
X36125000Y-42975000D03*
D37*
X71350000Y-37700000D03*
X71350000Y-40000000D03*
D38*
X77650000Y-40000000D03*
D37*
X71350000Y-42300000D03*
D30*
X116840000Y-60960000D03*
D29*
X119340000Y-60960000D03*
X121840000Y-60960000D03*
D25*
X109800000Y-49025000D03*
X109800000Y-47375000D03*
D29*
X121840000Y-40110000D03*
X119340000Y-40110000D03*
D30*
X116840000Y-40110000D03*
D39*
X83222600Y-39100000D03*
X81572600Y-39100000D03*
D40*
X81559300Y-43637200D03*
X83134300Y-43637200D03*
D35*
X68050000Y-43200000D03*
X68050000Y-41650000D03*
D28*
X111900000Y-71425000D03*
X111900000Y-72975000D03*
D17*
X114900000Y-30175000D03*
X114900000Y-31825000D03*
D28*
X111912400Y-44335400D03*
X111912400Y-45885400D03*
D36*
X111100000Y-30212500D03*
X111100000Y-31787500D03*
D41*
X55400000Y-64587500D03*
X55400000Y-63012500D03*
D25*
X38850000Y-65750000D03*
X38850000Y-64100000D03*
D28*
X111760000Y-37198000D03*
X111760000Y-38748000D03*
D42*
X81521800Y-40995600D03*
X83171800Y-40995600D03*
D10*
X35850000Y-63150000D03*
D11*
X35850000Y-65690000D03*
X35850000Y-68230000D03*
D35*
X52273200Y-47625600D03*
X52273200Y-46075600D03*
D27*
X53492400Y-63347600D03*
X51942400Y-63347600D03*
D28*
X111900000Y-57325000D03*
X111900000Y-58875000D03*
D17*
X110700000Y-60875000D03*
X110700000Y-62525000D03*
D10*
X55660000Y-68000000D03*
D11*
X58200000Y-68000000D03*
X60740000Y-68000000D03*
X63280000Y-68000000D03*
X65820000Y-68000000D03*
X68360000Y-68000000D03*
D28*
X111200000Y-50525000D03*
X111200000Y-52075000D03*
D43*
X46200000Y-32750000D03*
X45400000Y-32750000D03*
X44600000Y-32750000D03*
X43800000Y-32750000D03*
X43000000Y-32750000D03*
D44*
X48250000Y-32750000D03*
X48250000Y-28250000D03*
X40950000Y-32750000D03*
X40950000Y-28250000D03*
D29*
X121840000Y-67910000D03*
X119340000Y-67910000D03*
D30*
X116840000Y-67910000D03*
D28*
X40900000Y-59925000D03*
X40900000Y-61475000D03*
D25*
X109800000Y-55650000D03*
X109800000Y-54000000D03*
D34*
X107400000Y-48575000D03*
X107400000Y-47925000D03*
X107400000Y-47275000D03*
X107400000Y-46625000D03*
X103000000Y-46625000D03*
X103000000Y-47275000D03*
X103000000Y-47925000D03*
X103000000Y-48575000D03*
D36*
X63750000Y-47025000D03*
X63750000Y-48600000D03*
D35*
X67919600Y-39599200D03*
X67919600Y-38049200D03*
X38575000Y-58500000D03*
X38575000Y-56950000D03*
X77200000Y-54325000D03*
X77200000Y-52775000D03*
D28*
X57100000Y-63025000D03*
X57100000Y-64575000D03*
D34*
X107640000Y-68615000D03*
X107640000Y-67965000D03*
X107640000Y-67315000D03*
X107640000Y-66665000D03*
X103240000Y-66665000D03*
X103240000Y-67315000D03*
X103240000Y-67965000D03*
X103240000Y-68615000D03*
D17*
X111500000Y-75275000D03*
X111500000Y-76925000D03*
D40*
X64500000Y-54000000D03*
X66075000Y-54000000D03*
D25*
X110650000Y-69225000D03*
X110650000Y-67575000D03*
D24*
X53075000Y-59550000D03*
X54625000Y-59550000D03*
D34*
X107300000Y-61775000D03*
X107300000Y-61125000D03*
X107300000Y-60475000D03*
X107300000Y-59825000D03*
X102900000Y-59825000D03*
X102900000Y-60475000D03*
X102900000Y-61125000D03*
X102900000Y-61775000D03*
D24*
X42150000Y-45675000D03*
X43700000Y-45675000D03*
X59325000Y-54000000D03*
X60875000Y-54000000D03*
D28*
X111900000Y-64125000D03*
X111900000Y-65675000D03*
D34*
X107600000Y-41075000D03*
X107600000Y-40425000D03*
X107600000Y-39775000D03*
X107600000Y-39125000D03*
X103200000Y-39125000D03*
X103200000Y-39775000D03*
X103200000Y-40425000D03*
X103200000Y-41075000D03*
D45*
X43574800Y-69392800D03*
X48454800Y-69392800D03*
D10*
X53970000Y-77925000D03*
D11*
X51430000Y-77925000D03*
X48890000Y-77925000D03*
X46350000Y-77925000D03*
X43810000Y-77925000D03*
X41270000Y-77925000D03*
D25*
X110200000Y-42125000D03*
X110200000Y-40475000D03*
D46*
X44058800Y-41269500D03*
X45008800Y-41269500D03*
X45958800Y-41269500D03*
X45958800Y-38994500D03*
X45008800Y-38994500D03*
X44058800Y-38994500D03*
D34*
X107550000Y-77605000D03*
X107550000Y-76955000D03*
X107550000Y-76305000D03*
X107550000Y-75655000D03*
X103150000Y-75655000D03*
X103150000Y-76305000D03*
X103150000Y-76955000D03*
X103150000Y-77605000D03*
D29*
X121840000Y-47060000D03*
X119340000Y-47060000D03*
D30*
X116840000Y-47060000D03*
D47*
X113000000Y-64250000D03*
X113000000Y-71500000D03*
X100750000Y-30000000D03*
X105500000Y-52600000D03*
X84400000Y-41600000D03*
X35875000Y-39937500D03*
X61350000Y-63150000D03*
X39750000Y-56825000D03*
D48*
X106000000Y-46600000D03*
D47*
X50150000Y-66125000D03*
X113000000Y-37250000D03*
X106100000Y-39100000D03*
X40050000Y-62625000D03*
X53675000Y-45950000D03*
D48*
X105900000Y-59900000D03*
D47*
X56975000Y-51350000D03*
X56200000Y-59600000D03*
X112800000Y-31800000D03*
X62600000Y-54000000D03*
X50600000Y-63400000D03*
X67475000Y-48650000D03*
X42975000Y-39500000D03*
X113000000Y-57500000D03*
D48*
X106200000Y-75900000D03*
D47*
X42950000Y-66125000D03*
X112750000Y-50750000D03*
X113000000Y-44250000D03*
D48*
X105833200Y-67450000D03*
D47*
X43600000Y-44350000D03*
X110500000Y-33500000D03*
X115500000Y-33500000D03*
X104000000Y-33500000D03*
X114750000Y-36000000D03*
X112000000Y-35750000D03*
X112500000Y-33500000D03*
X119850000Y-35700000D03*
X119750000Y-33750000D03*
X104000000Y-35500000D03*
X117750000Y-33500000D03*
X107750000Y-33500000D03*
X109500000Y-36250000D03*
X107250000Y-36250000D03*
X105250000Y-36750000D03*
X69200000Y-54000000D03*
X60125000Y-41025000D03*
X65025000Y-39050000D03*
X73275000Y-53025000D03*
X102360000Y-78360000D03*
X108300000Y-74200000D03*
X107700000Y-70200000D03*
X108000000Y-57000000D03*
D48*
X108262500Y-58437500D03*
D47*
X104200000Y-62000000D03*
X104590899Y-48700000D03*
D48*
X104100000Y-54700000D03*
D47*
X98000000Y-47900000D03*
X104850000Y-69000000D03*
X108250000Y-50250000D03*
X84850000Y-46950000D03*
X75200000Y-78300000D03*
X50600000Y-57800000D03*
X66925000Y-43050000D03*
X72450000Y-73450000D03*
X78200000Y-35200000D03*
X57700000Y-49100000D03*
X39125000Y-60675000D03*
X58250000Y-61825000D03*
X57800000Y-54000000D03*
X42737701Y-57437701D03*
X41300000Y-43825000D03*
X62375000Y-48175000D03*
X101800000Y-27500000D03*
X43600000Y-51300000D03*
X53200000Y-72504900D03*
X44297600Y-50241200D03*
X55600000Y-73300000D03*
X44754800Y-55880000D03*
X59900000Y-73000000D03*
X98925000Y-40875000D03*
X47244000Y-50241200D03*
X46431200Y-51104800D03*
D48*
X101500000Y-39000000D03*
X99500000Y-39500000D03*
D47*
X46786800Y-46177200D03*
D48*
X98750000Y-48750000D03*
D47*
X67500000Y-56175000D03*
D48*
X101500000Y-46500000D03*
D47*
X89375000Y-59850000D03*
D48*
X100500000Y-47250000D03*
D47*
X97250000Y-56500000D03*
X55612670Y-52891714D03*
D48*
X97600000Y-54700000D03*
X93900000Y-59550500D03*
D47*
X49834800Y-55473600D03*
X50596800Y-56438800D03*
D48*
X104800000Y-59800000D03*
X100600000Y-61100000D03*
D47*
X63300000Y-61300000D03*
D48*
X101500000Y-68000000D03*
D47*
X43891200Y-56489600D03*
X44004200Y-52995800D03*
D48*
X101750000Y-66025000D03*
X101725000Y-67000000D03*
D47*
X43942000Y-54000400D03*
X36300000Y-59600000D03*
X97575000Y-77825000D03*
X101000000Y-75500000D03*
X47345600Y-44450000D03*
D48*
X99500000Y-76250000D03*
D47*
X46126400Y-44348400D03*
X46400000Y-53000000D03*
X80200000Y-44400000D03*
X100600000Y-37600000D03*
X48200000Y-53200000D03*
X109200000Y-31600000D03*
X92800000Y-45200000D03*
X43500000Y-74100000D03*
X42050000Y-74125000D03*
X40325000Y-74150000D03*
D49*
X72350000Y-43300000D02*
X71350000Y-42300000D01*
X78650000Y-43300000D02*
X72350000Y-43300000D01*
X80450000Y-41500000D02*
X78650000Y-43300000D01*
X80450000Y-34600000D02*
X80450000Y-41500000D01*
X84850000Y-30200000D02*
X80450000Y-34600000D01*
X99150000Y-30200000D02*
X84850000Y-30200000D01*
X100050000Y-29300000D02*
X99150000Y-30200000D01*
X100050000Y-28224695D02*
X100050000Y-29300000D01*
X101499695Y-26775000D02*
X100050000Y-28224695D01*
X113800305Y-26775000D02*
X101499695Y-26775000D01*
X116936261Y-65100000D02*
X120650000Y-61386261D01*
X112577818Y-65100000D02*
X116936261Y-65100000D01*
X99990000Y-64900000D02*
X112377818Y-64900000D01*
X120650000Y-61386261D02*
X120650000Y-33624695D01*
X120650000Y-33624695D02*
X113800305Y-26775000D01*
X96290000Y-68600000D02*
X99990000Y-64900000D01*
X112377818Y-64900000D02*
X112577818Y-65100000D01*
X87910000Y-68600000D02*
X83810000Y-64500000D01*
X88670000Y-68600000D02*
X87910000Y-68600000D01*
X91210000Y-68600000D02*
X89240000Y-70570000D01*
X82220000Y-70570000D02*
X82225000Y-70565000D01*
X89240000Y-70570000D02*
X82220000Y-70570000D01*
X76190000Y-76600000D02*
X82220000Y-70570000D01*
X82225000Y-70565000D02*
X82225000Y-65455000D01*
X32925000Y-57475000D02*
X32925000Y-71725000D01*
X37800000Y-76600000D02*
X76190000Y-76600000D01*
X35950000Y-54450000D02*
X32925000Y-57475000D01*
X32925000Y-71725000D02*
X37800000Y-76600000D01*
X82225000Y-65455000D02*
X81270000Y-64500000D01*
X39800000Y-54450000D02*
X35950000Y-54450000D01*
X40405200Y-55055200D02*
X39800000Y-54450000D01*
X41315000Y-55055200D02*
X40405200Y-55055200D01*
X83810000Y-63060000D02*
X83810000Y-64500000D01*
X82750000Y-62000000D02*
X83810000Y-63060000D01*
X79100000Y-62000000D02*
X82750000Y-62000000D01*
X76050000Y-65050000D02*
X79100000Y-62000000D01*
X76050000Y-74950000D02*
X76050000Y-65050000D01*
X34200000Y-71000000D02*
X38475000Y-75275000D01*
X38475000Y-75275000D02*
X75725000Y-75275000D01*
X34200000Y-57900000D02*
X34200000Y-71000000D01*
X36544800Y-55555200D02*
X34200000Y-57900000D01*
X75725000Y-75275000D02*
X76050000Y-74950000D01*
X41315000Y-55555200D02*
X36544800Y-55555200D01*
X57100000Y-64575000D02*
X58900000Y-64575000D01*
X43700000Y-44450000D02*
X43600000Y-44350000D01*
X54625000Y-59550000D02*
X56150000Y-59550000D01*
X114862500Y-31787500D02*
X114900000Y-31825000D01*
X54769800Y-51055200D02*
X54800000Y-51025000D01*
X51942400Y-63347600D02*
X51942400Y-64882600D01*
D50*
X112925000Y-71425000D02*
X113000000Y-71500000D01*
D49*
X62600000Y-54000000D02*
X64412500Y-54000000D01*
X106025000Y-46625000D02*
X107400000Y-46625000D01*
X107600000Y-39125000D02*
X106175000Y-39125000D01*
D50*
X36125000Y-41400000D02*
X36125000Y-40187500D01*
D49*
X112787500Y-31787500D02*
X112800000Y-31800000D01*
X52665000Y-57555200D02*
X51819800Y-57555200D01*
X58900000Y-64575000D02*
X60325000Y-63150000D01*
X51375000Y-58400000D02*
X51700000Y-58725000D01*
X61875000Y-63150000D02*
X61350000Y-63150000D01*
X50652400Y-63347600D02*
X50600000Y-63400000D01*
X54800000Y-51025000D02*
X56650000Y-51025000D01*
X83171800Y-43599700D02*
X83134300Y-43637200D01*
X106000000Y-46600000D02*
X106025000Y-46625000D01*
D50*
X102362500Y-30000000D02*
X100750000Y-30000000D01*
D49*
X52665000Y-51055200D02*
X54769800Y-51055200D01*
X112800000Y-31800000D02*
X112812500Y-31787500D01*
X43000000Y-39525000D02*
X43550000Y-40075000D01*
D50*
X112875000Y-64125000D02*
X113000000Y-64250000D01*
D49*
X111100000Y-31787500D02*
X112787500Y-31787500D01*
X50199200Y-63449200D02*
X50550800Y-63449200D01*
X105900000Y-59900000D02*
X105990800Y-59809200D01*
X62600000Y-54000000D02*
X60875000Y-54000000D01*
X56650000Y-51025000D02*
X56975000Y-51350000D01*
X52273200Y-46075600D02*
X53549400Y-46075600D01*
X39850000Y-57425000D02*
X39050000Y-57425000D01*
X105833200Y-67450000D02*
X106618200Y-66665000D01*
X43740000Y-48630200D02*
X43740000Y-45715000D01*
X44476800Y-40075000D02*
X45008800Y-40607000D01*
X40792400Y-61882600D02*
X40792400Y-61430200D01*
X43625000Y-65150000D02*
X42950000Y-65825000D01*
X43700000Y-45675000D02*
X43700000Y-44450000D01*
X42975000Y-39500000D02*
X43000000Y-39525000D01*
D50*
X112948000Y-37198000D02*
X113000000Y-37250000D01*
D49*
X48740000Y-59980200D02*
X48740000Y-61990000D01*
X49175000Y-65150000D02*
X50150000Y-66125000D01*
D50*
X112525000Y-50525000D02*
X112750000Y-50750000D01*
D49*
X45008800Y-40607000D02*
X45008800Y-41269500D01*
D50*
X112914600Y-44335400D02*
X113000000Y-44250000D01*
X36125000Y-40187500D02*
X35875000Y-39937500D01*
D49*
X51375000Y-58000000D02*
X51375000Y-58400000D01*
D50*
X111912400Y-44335400D02*
X112914600Y-44335400D01*
D49*
X106200000Y-75900000D02*
X106445000Y-75655000D01*
X43550000Y-40075000D02*
X44476800Y-40075000D01*
X56150000Y-59550000D02*
X56200000Y-59600000D01*
X42950000Y-65825000D02*
X42950000Y-66125000D01*
X62325000Y-63600000D02*
X61875000Y-63150000D01*
D50*
X111760000Y-37198000D02*
X112948000Y-37198000D01*
D49*
X51942400Y-64882600D02*
X51925000Y-64900000D01*
X83795600Y-40995600D02*
X84400000Y-41600000D01*
D50*
X111900000Y-71425000D02*
X112925000Y-71425000D01*
X111900000Y-64125000D02*
X112875000Y-64125000D01*
D49*
X106954000Y-52586380D02*
X105500000Y-52600000D01*
X39050000Y-57425000D02*
X38575000Y-56950000D01*
X40050000Y-62625000D02*
X40792400Y-61882600D01*
X39625000Y-56950000D02*
X39750000Y-56825000D01*
X65550000Y-48650000D02*
X67475000Y-48650000D01*
X51942400Y-63347600D02*
X50652400Y-63347600D01*
X43000000Y-32750000D02*
X42975000Y-39500000D01*
X83171800Y-40995600D02*
X83795600Y-40995600D01*
X43740000Y-45715000D02*
X43700000Y-45675000D01*
D50*
X111900000Y-57325000D02*
X112825000Y-57325000D01*
D49*
X53800000Y-58725000D02*
X54625000Y-59550000D01*
X38575000Y-56950000D02*
X39625000Y-56950000D01*
X106618200Y-66665000D02*
X107640000Y-66665000D01*
X39980200Y-57555200D02*
X39850000Y-57425000D01*
D50*
X112825000Y-57325000D02*
X113000000Y-57500000D01*
D49*
X112812500Y-31787500D02*
X114862500Y-31787500D01*
X51819800Y-57555200D02*
X51375000Y-58000000D01*
X105990800Y-59809200D02*
X107899200Y-59809200D01*
X83171800Y-40995600D02*
X83171800Y-43599700D01*
D50*
X111200000Y-50525000D02*
X112525000Y-50525000D01*
D49*
X51700000Y-58725000D02*
X53800000Y-58725000D01*
X48740000Y-61990000D02*
X50199200Y-63449200D01*
X53549400Y-46075600D02*
X53675000Y-45950000D01*
X50550800Y-63449200D02*
X50600000Y-63400000D01*
X60325000Y-63150000D02*
X61350000Y-63150000D01*
X106445000Y-75655000D02*
X107550000Y-75655000D01*
X41315000Y-57555200D02*
X39980200Y-57555200D01*
D50*
X115500000Y-45400000D02*
X117680000Y-45400000D01*
X117455000Y-72975000D02*
X119340000Y-74860000D01*
D51*
X105312500Y-34600000D02*
X105312500Y-34312500D01*
X88400000Y-44600000D02*
X88400000Y-40287500D01*
D50*
X111912400Y-45885400D02*
X115014600Y-45885400D01*
D51*
X88400000Y-40287500D02*
X88387500Y-40287500D01*
X105312500Y-34600000D02*
X105312500Y-31625000D01*
X87200000Y-39100000D02*
X83222600Y-39100000D01*
D50*
X111900000Y-65675000D02*
X117105000Y-65675000D01*
X115600000Y-38400000D02*
X118300000Y-38400000D01*
D51*
X105312500Y-31625000D02*
X104637500Y-30950000D01*
D50*
X111900000Y-58875000D02*
X117255000Y-58875000D01*
D51*
X88400000Y-44600000D02*
X88400000Y-48709200D01*
D50*
X119340000Y-39440000D02*
X119340000Y-40110000D01*
X115252000Y-38748000D02*
X115600000Y-38400000D01*
X115014600Y-45885400D02*
X115500000Y-45400000D01*
X111760000Y-38748000D02*
X115252000Y-38748000D01*
D51*
X102362500Y-32925000D02*
X100687500Y-34600000D01*
D50*
X118300000Y-38400000D02*
X119340000Y-39440000D01*
X117405000Y-52075000D02*
X119340000Y-54010000D01*
D51*
X88387500Y-40287500D02*
X87200000Y-39100000D01*
D52*
X94500000Y-34250000D02*
X94437500Y-34250000D01*
D50*
X111900000Y-72975000D02*
X117455000Y-72975000D01*
D51*
X102362500Y-32925000D02*
X102362500Y-30950000D01*
D50*
X111200000Y-52075000D02*
X117405000Y-52075000D01*
D52*
X94437500Y-34250000D02*
X88400000Y-40287500D01*
D50*
X117255000Y-58875000D02*
X119340000Y-60960000D01*
X117680000Y-45400000D02*
X119340000Y-47060000D01*
X117105000Y-65675000D02*
X119340000Y-67910000D01*
X88341200Y-51308000D02*
X87564000Y-52085200D01*
D49*
X57092600Y-44291000D02*
X58851600Y-46050000D01*
D50*
X88341200Y-51308000D02*
X89267000Y-51308000D01*
D49*
X69200000Y-54000000D02*
X66387500Y-54000000D01*
D50*
X84093400Y-51663600D02*
X84515000Y-52085200D01*
D49*
X73275000Y-53025000D02*
X72000000Y-51750000D01*
X67919600Y-38049200D02*
X70778000Y-38049200D01*
D50*
X77200000Y-52775000D02*
X73525000Y-52775000D01*
D49*
X57092600Y-41907400D02*
X57092600Y-44291000D01*
X68800000Y-41000000D02*
X68815200Y-41000000D01*
D50*
X73525000Y-52775000D02*
X73275000Y-53025000D01*
D49*
X66025800Y-38049200D02*
X67919600Y-38049200D01*
D50*
X87564000Y-52085200D02*
X84515000Y-52085200D01*
X81584800Y-51663600D02*
X79786400Y-51663600D01*
D49*
X70050000Y-46050000D02*
X72000000Y-48000000D01*
X68815200Y-41000000D02*
X69500000Y-40315200D01*
X66387500Y-54000000D02*
X66187500Y-53800000D01*
D50*
X90375000Y-50200000D02*
X90375000Y-44675000D01*
D49*
X65025000Y-39050000D02*
X66025800Y-38049200D01*
X69500000Y-38349200D02*
X69200000Y-38049200D01*
X60125000Y-41025000D02*
X57975000Y-41025000D01*
X57975000Y-41025000D02*
X57092600Y-41907400D01*
D50*
X81584800Y-51663600D02*
X84093400Y-51663600D01*
X89267000Y-51308000D02*
X90375000Y-50200000D01*
D49*
X69500000Y-40315200D02*
X69500000Y-38349200D01*
X58851600Y-46050000D02*
X70050000Y-46050000D01*
X68800000Y-41015200D02*
X68800000Y-41000000D01*
X72000000Y-51750000D02*
X72000000Y-48000000D01*
D50*
X78675000Y-52775000D02*
X77200000Y-52775000D01*
D49*
X68072000Y-41743200D02*
X68800000Y-41015200D01*
D50*
X79786400Y-51663600D02*
X78675000Y-52775000D01*
X85452000Y-53848000D02*
X85400000Y-53900000D01*
X81463400Y-54325000D02*
X81584800Y-54203600D01*
X85400000Y-53900000D02*
X81888400Y-53900000D01*
X77200000Y-54325000D02*
X81463400Y-54325000D01*
X88341200Y-53848000D02*
X85452000Y-53848000D01*
X82676400Y-49123600D02*
X84850000Y-46950000D01*
X60588400Y-45450000D02*
X58267600Y-43129200D01*
D49*
X102554000Y-54536380D02*
X103936380Y-54536380D01*
X106200000Y-43200000D02*
X104075000Y-41075000D01*
X110600000Y-74375000D02*
X111500000Y-75275000D01*
X110200000Y-42125000D02*
X109125000Y-43200000D01*
X102425000Y-41075000D02*
X103200000Y-41075000D01*
X108450000Y-57000000D02*
X109800000Y-55650000D01*
X110600000Y-74375000D02*
X108475000Y-74375000D01*
X104465000Y-68615000D02*
X103240000Y-68615000D01*
X104200000Y-62000000D02*
X104300000Y-62000000D01*
X104850000Y-69000000D02*
X104465000Y-68615000D01*
X104465899Y-48575000D02*
X104590899Y-48700000D01*
X103936380Y-54536380D02*
X104100000Y-54700000D01*
D50*
X71450000Y-45450000D02*
X60588400Y-45450000D01*
D49*
X104300000Y-62000000D02*
X104200000Y-61900000D01*
X99208101Y-46691899D02*
X99208101Y-44291899D01*
X108000000Y-57000000D02*
X108450000Y-57000000D01*
X102360000Y-78360000D02*
X103115000Y-77605000D01*
X108262500Y-58437500D02*
X110700000Y-60875000D01*
X98000000Y-47900000D02*
X99208101Y-46691899D01*
X104075000Y-61775000D02*
X104200000Y-61900000D01*
D50*
X81584800Y-49123600D02*
X75123600Y-49123600D01*
D49*
X109675000Y-70200000D02*
X110650000Y-69225000D01*
D50*
X75123600Y-49123600D02*
X74000000Y-48000000D01*
D49*
X103000000Y-48575000D02*
X104465899Y-48575000D01*
D50*
X74000000Y-48000000D02*
X71450000Y-45450000D01*
D49*
X108250000Y-50250000D02*
X108575000Y-50250000D01*
X108475000Y-74375000D02*
X108300000Y-74200000D01*
X104075000Y-41075000D02*
X103200000Y-41075000D01*
X102900000Y-61775000D02*
X104075000Y-61775000D01*
X108575000Y-50250000D02*
X109800000Y-49025000D01*
D50*
X81584800Y-49123600D02*
X82676400Y-49123600D01*
D49*
X107700000Y-70200000D02*
X109675000Y-70200000D01*
X99208101Y-44291899D02*
X102425000Y-41075000D01*
X104200000Y-61900000D02*
X104200000Y-62000000D01*
X109125000Y-43200000D02*
X106200000Y-43200000D01*
X103115000Y-77605000D02*
X103150000Y-77605000D01*
D50*
X70150000Y-44650000D02*
X71350000Y-43450000D01*
X65598400Y-40050000D02*
X66049200Y-39599200D01*
X71350000Y-43450000D02*
X71350000Y-42300000D01*
X66049200Y-39599200D02*
X67919600Y-39599200D01*
X66049200Y-44324200D02*
X66375000Y-44650000D01*
X66049200Y-39599200D02*
X66049200Y-44324200D01*
X66375000Y-44650000D02*
X70150000Y-44650000D01*
X56425000Y-40050000D02*
X65598400Y-40050000D01*
X55727600Y-40747400D02*
X56425000Y-40050000D01*
X55727600Y-43129200D02*
X55727600Y-40747400D01*
D49*
X41315000Y-58055200D02*
X40044800Y-58055200D01*
X39919800Y-59880200D02*
X40792400Y-59880200D01*
X57087500Y-63012500D02*
X57100000Y-63025000D01*
D50*
X73725000Y-78300000D02*
X75200000Y-78300000D01*
D49*
X51650000Y-59550000D02*
X52775000Y-59550000D01*
X51344800Y-57055200D02*
X52665000Y-57055200D01*
X50600000Y-57800000D02*
X51344800Y-57055200D01*
D50*
X71250000Y-40000000D02*
X71350000Y-40000000D01*
D49*
X42150000Y-46300000D02*
X42150000Y-45675000D01*
X53719800Y-50555200D02*
X54800000Y-49475000D01*
X50600000Y-58500000D02*
X51650000Y-59550000D01*
X58250000Y-61875000D02*
X58250000Y-61825000D01*
D50*
X62375000Y-48175000D02*
X62800000Y-48600000D01*
D49*
X43240000Y-47390000D02*
X42150000Y-46300000D01*
X43240000Y-48630200D02*
X43240000Y-47390000D01*
X39950000Y-58150000D02*
X38925000Y-58150000D01*
X42150000Y-44675000D02*
X41300000Y-43825000D01*
X42155685Y-58055200D02*
X41315000Y-58055200D01*
D50*
X104637500Y-28137500D02*
X104637500Y-29050000D01*
D49*
X42737701Y-57437701D02*
X42737701Y-57473184D01*
X42737701Y-57473184D02*
X42155685Y-58055200D01*
X57800000Y-54000000D02*
X59325000Y-54000000D01*
D50*
X73700000Y-78325000D02*
X73725000Y-78300000D01*
D49*
X54800000Y-49475000D02*
X55175000Y-49100000D01*
D50*
X77650000Y-40000000D02*
X77650000Y-35750000D01*
X101800000Y-27500000D02*
X104000000Y-27500000D01*
D49*
X40792400Y-59880200D02*
X40892400Y-59980200D01*
X42150000Y-45675000D02*
X42150000Y-44675000D01*
D50*
X68050000Y-43200000D02*
X71250000Y-40000000D01*
D49*
X40044800Y-58055200D02*
X39950000Y-58150000D01*
X39125000Y-60675000D02*
X39919800Y-59880200D01*
X55400000Y-63012500D02*
X57087500Y-63012500D01*
X52665000Y-50555200D02*
X53719800Y-50555200D01*
X40892400Y-59980200D02*
X43240000Y-59980200D01*
X55175000Y-49100000D02*
X57700000Y-49100000D01*
X57100000Y-63025000D02*
X58250000Y-61875000D01*
D50*
X104000000Y-27500000D02*
X104637500Y-28137500D01*
X71350000Y-40000000D02*
X77650000Y-40000000D01*
X62800000Y-48600000D02*
X63750000Y-48600000D01*
X66925000Y-43050000D02*
X67900000Y-43050000D01*
X73475000Y-73450000D02*
X73700000Y-73675000D01*
D49*
X38925000Y-58150000D02*
X38575000Y-58500000D01*
X50600000Y-57800000D02*
X50600000Y-58500000D01*
D50*
X72450000Y-73450000D02*
X73475000Y-73450000D01*
X77650000Y-35750000D02*
X78200000Y-35200000D01*
D49*
X50000000Y-62075000D02*
X52219800Y-62075000D01*
X53475000Y-64900000D02*
X53475000Y-63365000D01*
X55087500Y-64900000D02*
X55400000Y-64587500D01*
X49240000Y-61315000D02*
X50000000Y-62075000D01*
X49240000Y-59980200D02*
X49240000Y-61315000D01*
X53475000Y-63365000D02*
X53492400Y-63347600D01*
X53475000Y-64900000D02*
X55087500Y-64900000D01*
X52219800Y-62075000D02*
X53492400Y-63347600D01*
X50875000Y-65100000D02*
X48380002Y-62605002D01*
X64700000Y-65425000D02*
X55050000Y-65425000D01*
X65820000Y-68000000D02*
X65825000Y-67995000D01*
X48380002Y-62605002D02*
X47594998Y-62605002D01*
X51200000Y-65950000D02*
X50875000Y-65625000D01*
X50875000Y-65625000D02*
X50875000Y-65100000D01*
X65825000Y-66550000D02*
X64700000Y-65425000D01*
X47594998Y-62605002D02*
X46240000Y-61250004D01*
X65825000Y-67995000D02*
X65825000Y-66550000D01*
X55050000Y-65425000D02*
X54525000Y-65950000D01*
X54525000Y-65950000D02*
X51200000Y-65950000D01*
X46240000Y-61250004D02*
X46240000Y-59980200D01*
X43574800Y-69392800D02*
X43907200Y-69392800D01*
X45240000Y-68060000D02*
X45240000Y-59980200D01*
X43907200Y-69392800D02*
X45240000Y-68060000D01*
X47586600Y-68524600D02*
X47586600Y-63233000D01*
X45740000Y-61386400D02*
X45740000Y-59980200D01*
X47586600Y-63233000D02*
X45740000Y-61386400D01*
X48454800Y-69392800D02*
X47586600Y-68524600D01*
X107600000Y-40425000D02*
X116525000Y-40425000D01*
X116525000Y-40425000D02*
X116840000Y-40110000D01*
X107600000Y-40425000D02*
X107600000Y-39775000D01*
X107400000Y-47275000D02*
X116625000Y-47275000D01*
X107400000Y-47925000D02*
X107400000Y-47275000D01*
X116625000Y-47275000D02*
X116840000Y-47060000D01*
X106954000Y-53236380D02*
X106954000Y-53886380D01*
X116716380Y-53886380D02*
X106954000Y-53886380D01*
X107300000Y-61125000D02*
X107300000Y-60475000D01*
X109300000Y-61125000D02*
X107300000Y-61125000D01*
X116840000Y-60960000D02*
X115275000Y-62525000D01*
X115275000Y-62525000D02*
X110700000Y-62525000D01*
X110700000Y-62525000D02*
X109300000Y-61125000D01*
X112175000Y-67950000D02*
X116800000Y-67950000D01*
X116800000Y-67950000D02*
X116840000Y-67910000D01*
X109225000Y-67600000D02*
X111825000Y-67600000D01*
X109225000Y-67600000D02*
X108860000Y-67965000D01*
X107640000Y-67315000D02*
X108940000Y-67315000D01*
X108940000Y-67315000D02*
X109225000Y-67600000D01*
X111825000Y-67600000D02*
X112175000Y-67950000D01*
X108860000Y-67965000D02*
X107640000Y-67965000D01*
X107550000Y-76305000D02*
X107550000Y-76955000D01*
X114745000Y-76955000D02*
X116840000Y-74860000D01*
X107550000Y-76955000D02*
X114745000Y-76955000D01*
D50*
X46200000Y-32750000D02*
X46200000Y-37050000D01*
D49*
X45008800Y-39558800D02*
X45008800Y-38994500D01*
D50*
X46775000Y-37625000D02*
X46775000Y-40125000D01*
D49*
X45700000Y-40250000D02*
X45008800Y-39558800D01*
D50*
X53187600Y-43129200D02*
X49779200Y-43129200D01*
X46200000Y-37050000D02*
X46775000Y-37625000D01*
X49779200Y-43129200D02*
X46775000Y-40125000D01*
D49*
X46775000Y-40125000D02*
X46650000Y-40250000D01*
X46650000Y-40250000D02*
X45700000Y-40250000D01*
X42855200Y-50555200D02*
X41315000Y-50555200D01*
X43600000Y-51300000D02*
X42855200Y-50555200D01*
X53200000Y-72504900D02*
X53695100Y-72504900D01*
X53695100Y-72504900D02*
X58200000Y-68000000D01*
X44297600Y-50241200D02*
X44246800Y-50190400D01*
X44240000Y-48630200D02*
X44240000Y-50183600D01*
X57980000Y-73300000D02*
X63280000Y-68000000D01*
X55600000Y-73300000D02*
X57980000Y-73300000D01*
X44240000Y-50183600D02*
X44297600Y-50241200D01*
X42430000Y-53555200D02*
X44754800Y-55880000D01*
X63360000Y-73000000D02*
X68360000Y-68000000D01*
X42430000Y-53555200D02*
X41315000Y-53555200D01*
X59900000Y-73000000D02*
X63360000Y-73000000D01*
D53*
X45958800Y-38000749D02*
X45400000Y-37441950D01*
X45400000Y-37441950D02*
X45400000Y-32750000D01*
X45958800Y-38994500D02*
X45958800Y-38000749D01*
X44600000Y-37459549D02*
X44600000Y-32750000D01*
X44058800Y-38000749D02*
X44600000Y-37459549D01*
X44058800Y-38994500D02*
X44058800Y-38000749D01*
D49*
X34975000Y-58475000D02*
X34975000Y-59825000D01*
X34975000Y-59825000D02*
X36375000Y-61225000D01*
X41315000Y-56055200D02*
X37394800Y-56055200D01*
X37394800Y-56055200D02*
X34975000Y-58475000D01*
X36375000Y-61225000D02*
X37325000Y-61225000D01*
X37325000Y-61225000D02*
X38850000Y-62750000D01*
X38850000Y-62750000D02*
X38850000Y-64100000D01*
X107600000Y-41075000D02*
X106500000Y-41075000D01*
X102075000Y-40425000D02*
X103200000Y-40425000D01*
X46740000Y-49737200D02*
X47244000Y-50241200D01*
X106500000Y-41075000D02*
X105850000Y-40425000D01*
X98925000Y-40875000D02*
X99050000Y-41000000D01*
X46740000Y-48630200D02*
X46740000Y-49737200D01*
X101500000Y-41000000D02*
X102075000Y-40425000D01*
X105850000Y-40425000D02*
X103200000Y-40425000D01*
X99050000Y-41000000D02*
X101500000Y-41000000D01*
X46240000Y-50862800D02*
X46431200Y-51054000D01*
X46431200Y-51104800D02*
X46482000Y-51104800D01*
X101500000Y-39000000D02*
X101625000Y-39125000D01*
X46482000Y-51104800D02*
X46380400Y-51003200D01*
X46431200Y-51054000D02*
X46431200Y-51104800D01*
X46240000Y-48630200D02*
X46240000Y-50862800D01*
X101625000Y-39125000D02*
X103200000Y-39125000D01*
X99775000Y-39775000D02*
X103200000Y-39775000D01*
X99500000Y-39500000D02*
X99775000Y-39775000D01*
X45740000Y-47224000D02*
X46786800Y-46177200D01*
X45740000Y-48630200D02*
X45740000Y-47224000D01*
X99575000Y-47925000D02*
X103000000Y-47925000D01*
X103000000Y-47925000D02*
X105990380Y-47925000D01*
X67450000Y-56225000D02*
X54275000Y-56225000D01*
X67500000Y-56175000D02*
X67450000Y-56225000D01*
X106640380Y-48575000D02*
X107400000Y-48575000D01*
X54275000Y-56225000D02*
X53944800Y-56555200D01*
X105990380Y-47925000D02*
X106640380Y-48575000D01*
X98750000Y-48750000D02*
X99575000Y-47925000D01*
X53944800Y-56555200D02*
X52665000Y-56555200D01*
X101500000Y-46500000D02*
X101625000Y-46625000D01*
X51184800Y-60425000D02*
X50740000Y-59980200D01*
X89375000Y-59850000D02*
X88800000Y-60425000D01*
X88800000Y-60425000D02*
X51184800Y-60425000D01*
X101625000Y-46625000D02*
X103000000Y-46625000D01*
X53775000Y-58075000D02*
X52684800Y-58075000D01*
X97250000Y-56525000D02*
X95075000Y-58700000D01*
X58043018Y-58300000D02*
X54000000Y-58300000D01*
X97250000Y-56500000D02*
X97250000Y-56525000D01*
X58443018Y-58700000D02*
X58043018Y-58300000D01*
X100500000Y-47250000D02*
X100525000Y-47275000D01*
X52684800Y-58075000D02*
X52665000Y-58055200D01*
X100525000Y-47275000D02*
X103000000Y-47275000D01*
X95075000Y-58700000D02*
X58443018Y-58700000D01*
X54000000Y-58300000D02*
X53775000Y-58075000D01*
X55612670Y-52891714D02*
X55276156Y-52555200D01*
X102554000Y-53886380D02*
X105544380Y-53886380D01*
X55276156Y-52555200D02*
X52665000Y-52555200D01*
X106194380Y-54536380D02*
X106954000Y-54536380D01*
X97600000Y-54700000D02*
X98413620Y-53886380D01*
X105544380Y-53886380D02*
X106194380Y-54536380D01*
X98413620Y-53886380D02*
X102554000Y-53886380D01*
X53505686Y-52055200D02*
X53555686Y-52105200D01*
X97213620Y-52586380D02*
X102554000Y-52586380D01*
X70905200Y-52105200D02*
X74300000Y-55500000D01*
X94300000Y-55500000D02*
X97213620Y-52586380D01*
X53555686Y-52105200D02*
X70905200Y-52105200D01*
X52665000Y-52055200D02*
X53505686Y-52055200D01*
X74300000Y-55500000D02*
X94300000Y-55500000D01*
X94532500Y-56330000D02*
X97626120Y-53236380D01*
X56653982Y-52875000D02*
X70175000Y-52875000D01*
X70175000Y-52875000D02*
X73630000Y-56330000D01*
X97626120Y-53236380D02*
X102554000Y-53236380D01*
X55473782Y-54055200D02*
X56653982Y-52875000D01*
X52665000Y-54055200D02*
X55473782Y-54055200D01*
X73630000Y-56330000D02*
X94532500Y-56330000D01*
X105664905Y-61775000D02*
X105014905Y-61125000D01*
X48240000Y-59980200D02*
X48240000Y-57068400D01*
X48240000Y-57068400D02*
X49834800Y-55473600D01*
X93900000Y-59550500D02*
X96124500Y-61775000D01*
X101490380Y-61775000D02*
X102140380Y-61125000D01*
X96124500Y-61775000D02*
X101490380Y-61775000D01*
X105014905Y-61125000D02*
X102900000Y-61125000D01*
X102140380Y-61125000D02*
X102900000Y-61125000D01*
X107300000Y-61775000D02*
X105664905Y-61775000D01*
X50596800Y-56438800D02*
X49733200Y-57302400D01*
X102900000Y-59825000D02*
X104775000Y-59825000D01*
X49733200Y-57302400D02*
X49733200Y-58623200D01*
X104775000Y-59825000D02*
X104800000Y-59800000D01*
X49733200Y-58623200D02*
X49740000Y-58630000D01*
X49740000Y-58630000D02*
X49740000Y-59980200D01*
X55250000Y-61300000D02*
X55450000Y-61100000D01*
X101240800Y-60459200D02*
X103499200Y-60459200D01*
X50600000Y-61300000D02*
X50240000Y-60940000D01*
X100600000Y-61100000D02*
X101240800Y-60459200D01*
X50240000Y-60940000D02*
X50240000Y-59980200D01*
X63100000Y-61100000D02*
X63300000Y-61300000D01*
X55250000Y-61300000D02*
X50600000Y-61300000D01*
X55450000Y-61100000D02*
X63100000Y-61100000D01*
X101535000Y-67965000D02*
X103240000Y-67965000D01*
X43738800Y-55575200D02*
X43738800Y-56438800D01*
X43789600Y-56489600D02*
X43891200Y-56489600D01*
X43891200Y-56489600D02*
X43891200Y-56591200D01*
X103240000Y-67965000D02*
X105290000Y-67965000D01*
X101500000Y-68000000D02*
X101535000Y-67965000D01*
X105290000Y-67965000D02*
X105300000Y-67975000D01*
X42218800Y-54055200D02*
X43738800Y-55575200D01*
X107640000Y-68615000D02*
X105940000Y-68615000D01*
X105940000Y-68615000D02*
X105300000Y-67975000D01*
X43738800Y-56438800D02*
X43789600Y-56489600D01*
X41315000Y-54055200D02*
X42218800Y-54055200D01*
X43891200Y-56591200D02*
X43789600Y-56489600D01*
X101750000Y-66025000D02*
X102390000Y-66665000D01*
X102390000Y-66665000D02*
X103240000Y-66665000D01*
X43563600Y-52555200D02*
X41315000Y-52555200D01*
X44004200Y-52995800D02*
X43563600Y-52555200D01*
X41315000Y-53055200D02*
X42844400Y-53055200D01*
X42844400Y-53055200D02*
X43789600Y-54000400D01*
X43942000Y-54000400D02*
X43942000Y-54152800D01*
X43942000Y-54152800D02*
X43891200Y-54102000D01*
X101725000Y-67000000D02*
X102040000Y-67315000D01*
X102040000Y-67315000D02*
X103240000Y-67315000D01*
X43789600Y-54000400D02*
X43942000Y-54000400D01*
X40075000Y-58675000D02*
X40074000Y-58674000D01*
X48225305Y-52200000D02*
X49240000Y-51185305D01*
X98445000Y-76955000D02*
X97575000Y-77825000D01*
X107550000Y-77605000D02*
X106450000Y-77605000D01*
X39150000Y-59600000D02*
X40075000Y-58675000D01*
X46100000Y-52200000D02*
X48225305Y-52200000D01*
X103150000Y-76955000D02*
X98445000Y-76955000D01*
X45479800Y-56221800D02*
X45479800Y-52820200D01*
X49240000Y-51185305D02*
X49240000Y-48630200D01*
X43027600Y-58674000D02*
X45479800Y-56221800D01*
X36300000Y-59600000D02*
X39150000Y-59600000D01*
X106450000Y-77605000D02*
X105800000Y-76955000D01*
X105800000Y-76955000D02*
X103150000Y-76955000D01*
X40074000Y-58674000D02*
X43027600Y-58674000D01*
X45479800Y-52820200D02*
X46100000Y-52200000D01*
X48740000Y-48630200D02*
X48740000Y-45844400D01*
X101000000Y-75500000D02*
X102050000Y-75500000D01*
X48740000Y-45844400D02*
X47345600Y-44450000D01*
X102205000Y-75655000D02*
X103150000Y-75655000D01*
X102050000Y-75500000D02*
X102205000Y-75655000D01*
X47650400Y-46990000D02*
X48240000Y-47579600D01*
X99555000Y-76305000D02*
X103150000Y-76305000D01*
X47650400Y-45872400D02*
X46126400Y-44348400D01*
X99500000Y-76250000D02*
X99555000Y-76305000D01*
X48240000Y-47579600D02*
X48240000Y-48630200D01*
X47650400Y-46990000D02*
X47650400Y-45872400D01*
D53*
X44058800Y-41269500D02*
X44058800Y-42258800D01*
X44750000Y-42950000D02*
X44750000Y-48620200D01*
X44058800Y-42258800D02*
X44750000Y-42950000D01*
X45233800Y-42964726D02*
X45233800Y-48624000D01*
X45958800Y-42239726D02*
X45233800Y-42964726D01*
X45958800Y-41269500D02*
X45958800Y-42239726D01*
D49*
X51350000Y-51250000D02*
X51350000Y-48599600D01*
X51350000Y-48599600D02*
X52273200Y-47676400D01*
X52659800Y-51550000D02*
X51650000Y-51550000D01*
X51650000Y-51550000D02*
X51350000Y-51250000D01*
X63750000Y-47025000D02*
X65525000Y-47025000D01*
X65525000Y-47025000D02*
X65550000Y-47000000D01*
D50*
X36125000Y-44762500D02*
X36125000Y-42975000D01*
D49*
X38790000Y-65690000D02*
X35850000Y-65690000D01*
X38850000Y-65750000D02*
X38790000Y-65690000D01*
D51*
X40950000Y-32750000D02*
X40950000Y-28250000D01*
X48250000Y-28250000D02*
X48250000Y-32750000D01*
X48250000Y-28250000D02*
X40950000Y-28250000D01*
D49*
X41315000Y-51055200D02*
X40355200Y-51055200D01*
X36125000Y-46825000D02*
X36125000Y-46412500D01*
X40355200Y-51055200D02*
X36125000Y-46825000D01*
X103750000Y-30000000D02*
X102800000Y-29050000D01*
X102800000Y-29050000D02*
X102362500Y-29050000D01*
X105250000Y-30000000D02*
X103750000Y-30000000D01*
X107075000Y-31825000D02*
X105250000Y-30000000D01*
X107400000Y-31825000D02*
X107075000Y-31825000D01*
X81572600Y-40944800D02*
X81521800Y-40995600D01*
X80962800Y-43637200D02*
X80200000Y-44400000D01*
X46400000Y-53000000D02*
X47240000Y-53840000D01*
X81559300Y-41033100D02*
X81559300Y-43637200D01*
X81521800Y-40995600D02*
X81559300Y-41033100D01*
X47240000Y-53840000D02*
X47240000Y-59980200D01*
X81572600Y-39100000D02*
X81572600Y-40944800D01*
X81559300Y-43637200D02*
X80962800Y-43637200D01*
X114862500Y-30212500D02*
X114900000Y-30175000D01*
X111100000Y-30212500D02*
X114862500Y-30212500D01*
X107400000Y-30175000D02*
X109200000Y-30175000D01*
X48200000Y-53200000D02*
X47740000Y-53660000D01*
X109200000Y-31600000D02*
X109200000Y-30175000D01*
X111062500Y-30175000D02*
X111100000Y-30212500D01*
X47740000Y-53660000D02*
X47740000Y-59980200D01*
X100500000Y-37500000D02*
X100600000Y-37600000D01*
X109600000Y-30175000D02*
X111062500Y-30175000D01*
X92800000Y-45200000D02*
X100500000Y-37500000D01*
X109200000Y-30175000D02*
X109600000Y-30175000D01*
X41925000Y-71875000D02*
X41925000Y-65025000D01*
X44740000Y-62210000D02*
X44740000Y-59980200D01*
X43500000Y-73450000D02*
X41925000Y-71875000D01*
X43500000Y-74100000D02*
X43500000Y-73450000D01*
X41925000Y-65025000D02*
X44740000Y-62210000D01*
X41200000Y-64450000D02*
X44240000Y-61410000D01*
X42050000Y-74125000D02*
X41200000Y-73275000D01*
X44240000Y-61410000D02*
X44240000Y-59980200D01*
X41200000Y-73275000D02*
X41200000Y-64450000D01*
X40200000Y-74025000D02*
X40325000Y-74150000D01*
X43740000Y-60860000D02*
X43740000Y-59980200D01*
X40200000Y-64400000D02*
X40200000Y-74025000D01*
X40200000Y-64400000D02*
X43740000Y-60860000D01*
X41315000Y-51555200D02*
X34044800Y-51555200D01*
X30925000Y-54675000D02*
X30925000Y-73375000D01*
X40655000Y-83105000D02*
X85525000Y-83105000D01*
X34044800Y-51555200D02*
X30925000Y-54675000D01*
X30925000Y-73375000D02*
X40655000Y-83105000D01*
X85525000Y-83105000D02*
X86350000Y-82280000D01*
X39500000Y-52900000D02*
X35325000Y-52900000D01*
X41530000Y-82280000D02*
X78000000Y-82280000D01*
X40344800Y-52055200D02*
X39500000Y-52900000D01*
X35325000Y-52900000D02*
X31850000Y-56375000D01*
X79500000Y-80780000D02*
X79500000Y-80750000D01*
X78000000Y-82280000D02*
X79500000Y-80780000D01*
X86090000Y-80750000D02*
X87620000Y-82280000D01*
X79500000Y-80750000D02*
X86090000Y-80750000D01*
X31850000Y-56375000D02*
X31850000Y-72600000D01*
X31850000Y-72600000D02*
X41530000Y-82280000D01*
X41315000Y-52055200D02*
X40344800Y-52055200D01*
G04 #@! TA.AperFunction,Conductor*
G36*
X120419334Y-62615345D02*
G01*
X120475267Y-62657217D01*
X120499684Y-62722681D01*
X120500000Y-62731527D01*
X120500000Y-67600928D01*
X120498216Y-67621884D01*
X120481500Y-67719365D01*
X120481500Y-68042719D01*
X120496198Y-68215416D01*
X120497088Y-68220605D01*
X120496768Y-68220659D01*
X120500000Y-68245894D01*
X120500000Y-74550928D01*
X120498216Y-74571884D01*
X120481500Y-74669365D01*
X120481500Y-74992719D01*
X120496198Y-75165416D01*
X120497088Y-75170605D01*
X120496768Y-75170659D01*
X120500000Y-75195894D01*
X120500000Y-76126000D01*
X120480315Y-76193039D01*
X120427511Y-76238794D01*
X120376000Y-76250000D01*
X118374000Y-76250000D01*
X118306961Y-76230315D01*
X118261206Y-76177511D01*
X118250000Y-76126000D01*
X118250000Y-64733527D01*
X118269685Y-64666488D01*
X118286319Y-64645846D01*
X120288319Y-62643846D01*
X120349642Y-62610361D01*
X120419334Y-62615345D01*
G37*
G04 #@! TD.AperFunction*
G04 #@! TA.AperFunction,Conductor*
G36*
X120016500Y-61072494D02*
G01*
X119996815Y-61139533D01*
X119980181Y-61160175D01*
X118461681Y-62678675D01*
X118400358Y-62712160D01*
X118330666Y-62707176D01*
X118274733Y-62665304D01*
X118250316Y-62599840D01*
X118250000Y-62590994D01*
X118250000Y-36750000D01*
X120016500Y-36750000D01*
X120016500Y-61072494D01*
G37*
G04 #@! TD.AperFunction*
G04 #@! TA.AperFunction,Conductor*
G36*
X102793039Y-30969685D02*
G01*
X102838794Y-31022489D01*
X102850000Y-31074000D01*
X102850000Y-36576000D01*
X102830315Y-36643039D01*
X102777511Y-36688794D01*
X102726000Y-36700000D01*
X100748508Y-36700000D01*
X100722727Y-36697290D01*
X100695487Y-36691500D01*
X100504513Y-36691500D01*
X100477273Y-36697290D01*
X100451492Y-36700000D01*
X91974000Y-36700000D01*
X91906961Y-36680315D01*
X91861206Y-36627511D01*
X91850000Y-36576000D01*
X91850000Y-31074000D01*
X91869685Y-31006961D01*
X91922489Y-30961206D01*
X91974000Y-30950000D01*
X102726000Y-30950000D01*
X102793039Y-30969685D01*
G37*
G04 #@! TD.AperFunction*
G04 #@! TA.AperFunction,Conductor*
G36*
X119145078Y-33019685D02*
G01*
X119165720Y-33036319D01*
X119980181Y-33850780D01*
X120013666Y-33912103D01*
X120016500Y-33938461D01*
X120016500Y-36750000D01*
X113827513Y-36750000D01*
X113760474Y-36730315D01*
X113735363Y-36708972D01*
X113611254Y-36571135D01*
X113533941Y-36514963D01*
X113456752Y-36458882D01*
X113282288Y-36381206D01*
X113282286Y-36381205D01*
X113095487Y-36341500D01*
X112904513Y-36341500D01*
X112717712Y-36381205D01*
X112717711Y-36381205D01*
X112614154Y-36427312D01*
X112544904Y-36436596D01*
X112481627Y-36406967D01*
X112476038Y-36401713D01*
X112468040Y-36393715D01*
X112468036Y-36393712D01*
X112322109Y-36303702D01*
X112322103Y-36303699D01*
X112322101Y-36303698D01*
X112159336Y-36249764D01*
X112058879Y-36239500D01*
X112058872Y-36239500D01*
X111461128Y-36239500D01*
X111461120Y-36239500D01*
X111360663Y-36249764D01*
X111197901Y-36303697D01*
X111197890Y-36303702D01*
X111051963Y-36393712D01*
X111051959Y-36393715D01*
X110930715Y-36514959D01*
X110930712Y-36514963D01*
X110840702Y-36660890D01*
X110840695Y-36660905D01*
X110839337Y-36665006D01*
X110799564Y-36722450D01*
X110735047Y-36749272D01*
X110721632Y-36750000D01*
X104124000Y-36750000D01*
X104056961Y-36730315D01*
X104011206Y-36677511D01*
X104000000Y-36626000D01*
X104000000Y-33124000D01*
X104019685Y-33056961D01*
X104072489Y-33011206D01*
X104124000Y-33000000D01*
X119078039Y-33000000D01*
X119145078Y-33019685D01*
G37*
G04 #@! TD.AperFunction*
M02*
