ISO-10303-21;
HEADER;
FILE_DESCRIPTION (( 'STEP AP214' ),
    '1' );
FILE_NAME ('WSL3921 (0.004).step',
    '2018-11-05T16:59:03',
    ( '' ),
    ( '' ),
    'SwSTEP 2.0',
    'SolidWorks 2018',
    '' );
FILE_SCHEMA (( 'AUTOMOTIVE_DESIGN' ));
ENDSEC;

DATA;
#1 = CARTESIAN_POINT ( 'NONE',  ( -1.191045262974199659, 0.4605019796031228907, 0.5000000000000000000 ) ) ;
#2 = ADVANCED_FACE ( 'NONE', ( #610 ), #250, .T. ) ;
#3 = ORIENTED_EDGE ( 'NONE', *, *, #1136, .T. ) ;
#4 = PLANE ( 'NONE',  #182 ) ;
#5 = CARTESIAN_POINT ( 'NONE',  ( -2.000000000000000000, 5.200000000000000178, 0.5000000000000000000 ) ) ;
#6 = EDGE_CURVE ( 'NONE', #181, #744, #338, .T. ) ;
#7 = DIRECTION ( 'NONE',  ( 0.7071067811865480168, 0.0000000000000000000, -0.7071067811865470176 ) ) ;
#8 = VECTOR ( 'NONE', #875, 1000.000000000000000 ) ;
#9 = LINE ( 'NONE', #1162, #552 ) ;
#10 = FACE_OUTER_BOUND ( 'NONE', #376, .T. ) ;
#11 = CARTESIAN_POINT ( 'NONE',  ( -1.973893545360720037, 5.200000000000000178, 0.03042608032392180029 ) ) ;
#12 = ORIENTED_EDGE ( 'NONE', *, *, #1141, .F. ) ;
#13 = ORIENTED_EDGE ( 'NONE', *, *, #118, .F. ) ;
#14 = EDGE_CURVE ( 'NONE', #817, #1200, #306, .T. ) ;
#15 = CARTESIAN_POINT ( 'NONE',  ( -2.571375900532360426, 0.0000000000000000000, 0.5643145750507619907 ) ) ;
#16 = DIRECTION ( 'NONE',  ( 0.0000000000000000000, 0.0000000000000000000, -1.000000000000000000 ) ) ;
#17 = DIRECTION ( 'NONE',  ( -0.03263306829909608242, 0.0000000000000000000, 0.9994673995950976719 ) ) ;
#18 = AXIS2_PLACEMENT_3D ( 'NONE', #626, #804, #427 ) ;
#19 = LINE ( 'NONE', #1089, #379 ) ;
#20 = DIRECTION ( 'NONE',  ( 0.0000000000000000000, 0.0000000000000000000, 1.000000000000000000 ) ) ;
#21 = VECTOR ( 'NONE', #790, 1000.000000000000000 ) ;
#22 = ORIENTED_EDGE ( 'NONE', *, *, #47, .T. ) ;
#23 = ORIENTED_EDGE ( 'NONE', *, *, #285, .T. ) ;
#24 = DIRECTION ( 'NONE',  ( 0.2297027246211489626, 0.0000000000000000000, 0.9732608377519462728 ) ) ;
#25 = VERTEX_POINT ( 'NONE', #444 ) ;
#26 = CARTESIAN_POINT ( 'NONE',  ( 2.000000000000000000, 5.200000000000000178, 0.8299999999999999600 ) ) ;
#27 = ORIENTED_EDGE ( 'NONE', *, *, #367, .F. ) ;
#28 = CARTESIAN_POINT ( 'NONE',  ( -2.539578970309959605, 5.200000000000000178, 0.5961115052731600361 ) ) ;
#29 = DIRECTION ( 'NONE',  ( -1.000000000000000000, 0.0000000000000000000, 0.0000000000000000000 ) ) ;
#30 = DIRECTION ( 'NONE',  ( 0.0000000000000000000, 1.000000000000000000, 0.0000000000000000000 ) ) ;
#31 = EDGE_CURVE ( 'NONE', #986, #937, #1119, .T. ) ;
#32 = VECTOR ( 'NONE', #504, 1000.000000000000000 ) ;
#33 = AXIS2_PLACEMENT_3D ( 'NONE', #649, #635, #736 ) ;
#34 = VECTOR ( 'NONE', #587, 1000.000000000000000 ) ;
#35 = DIRECTION ( 'NONE',  ( 8.410780489584519664E-16, 0.0000000000000000000, 1.000000000000000000 ) ) ;
#36 = VECTOR ( 'NONE', #1082, 1000.000000000000000 ) ;
#37 = CARTESIAN_POINT ( 'NONE',  ( -2.669000000000000039, 0.0000000000000000000, 0.0000000000000000000 ) ) ;
#38 = ORIENTED_EDGE ( 'NONE', *, *, #809, .F. ) ;
#39 = EDGE_LOOP ( 'NONE', ( #696, #936, #630, #438 ) ) ;
#40 = ORIENTED_EDGE ( 'NONE', *, *, #172, .T. ) ;
#41 = AXIS2_PLACEMENT_3D ( 'NONE', #477, #929, #554 ) ;
#42 = DIRECTION ( 'NONE',  ( 0.0000000000000000000, 1.000000000000000000, 0.0000000000000000000 ) ) ;
#43 = FILL_AREA_STYLE_COLOUR ( '', #541 ) ;
#44 = EDGE_CURVE ( 'NONE', #597, #714, #897, .T. ) ;
#45 = DIRECTION ( 'NONE',  ( 0.0000000000000000000, -1.000000000000000000, 0.0000000000000000000 ) ) ;
#46 = CIRCLE ( 'NONE', #1150, 0.8000000000000003775 ) ;
#47 = EDGE_CURVE ( 'NONE', #1200, #355, #694, .T. ) ;
#48 = DIRECTION ( 'NONE',  ( 0.0000000000000000000, -1.000000000000000000, 0.0000000000000000000 ) ) ;
#49 = SURFACE_STYLE_FILL_AREA ( #166 ) ;
#50 = FACE_OUTER_BOUND ( 'NONE', #846, .T. ) ;
#51 = ORIENTED_EDGE ( 'NONE', *, *, #97, .T. ) ;
#52 = DIRECTION ( 'NONE',  ( -0.0000000000000000000, -0.0000000000000000000, 1.000000000000000000 ) ) ;
#53 = EDGE_LOOP ( 'NONE', ( #281, #264, #657, #799, #1112, #1122, #765, #711, #239, #144, #661, #1184 ) ) ;
#54 = CARTESIAN_POINT ( 'NONE',  ( -1.816237820303080008, 5.200000000000000178, -0.2786086702015569960 ) ) ;
#55 = PLANE ( 'NONE',  #710 ) ;
#56 = EDGE_CURVE ( 'NONE', #102, #611, #794, .T. ) ;
#57 = CARTESIAN_POINT ( 'NONE',  ( 5.000000000000000000, 0.0000000000000000000, 0.0000000000000000000 ) ) ;
#58 = AXIS2_PLACEMENT_3D ( 'NONE', #441, #811, #893 ) ;
#59 = CARTESIAN_POINT ( 'NONE',  ( 2.805690475583119792, 5.200000000000000178, 0.3300000000000000155 ) ) ;
#60 = CARTESIAN_POINT ( 'NONE',  ( 3.000370849898480241, 0.0000000000000000000, 0.0000000000000000000 ) ) ;
#61 = LINE ( 'NONE', #60, #959 ) ;
#62 = CIRCLE ( 'NONE', #792, 0.7999999999999997113 ) ;
#63 = ADVANCED_FACE ( 'NONE', ( #207 ), #919, .T. ) ;
#64 = DIRECTION ( 'NONE',  ( 0.0000000000000000000, 0.0000000000000000000, -1.000000000000000000 ) ) ;
#65 = LINE ( 'NONE', #5, #150 ) ;
#66 = EDGE_CURVE ( 'NONE', #386, #186, #1088, .T. ) ;
#67 = CARTESIAN_POINT ( 'NONE',  ( 2.381923245252319798, 5.200000000000000178, 0.2870767547476810178 ) ) ;
#68 = VECTOR ( 'NONE', #177, 1000.000000000000000 ) ;
#69 = DIRECTION ( 'NONE',  ( -1.000000000000000000, 0.0000000000000000000, 1.488394230782329904E-17 ) ) ;
#70 = ORIENTED_EDGE ( 'NONE', *, *, #1055, .T. ) ;
#71 = ORIENTED_EDGE ( 'NONE', *, *, #938, .F. ) ;
#72 = ORIENTED_EDGE ( 'NONE', *, *, #767, .F. ) ;
#73 = ORIENTED_EDGE ( 'NONE', *, *, #564, .F. ) ;
#74 = EDGE_CURVE ( 'NONE', #1002, #1049, #1071, .T. ) ;
#75 = CARTESIAN_POINT ( 'NONE',  ( 2.000000000000000000, 0.0000000000000000000, 0.5825000000000000178 ) ) ;
#76 = ADVANCED_FACE ( 'NONE', ( #138 ), #830, .T. ) ;
#77 = LINE ( 'NONE', #206, #776 ) ;
#78 = CARTESIAN_POINT ( 'NONE',  ( -3.000370849898480241, 0.0000000000000000000, 0.8000000000000000444 ) ) ;
#79 = PRESENTATION_STYLE_ASSIGNMENT (( #533 ) ) ;
#80 = EDGE_LOOP ( 'NONE', ( #544, #362, #983, #1155 ) ) ;
#81 =( GEOMETRIC_REPRESENTATION_CONTEXT ( 3 ) GLOBAL_UNCERTAINTY_ASSIGNED_CONTEXT ( ( #946 ) ) GLOBAL_UNIT_ASSIGNED_CONTEXT ( ( #1202, #815, #800 ) ) REPRESENTATION_CONTEXT ( 'NONE', 'WORKASPACE' ) );
#82 = CARTESIAN_POINT ( 'NONE',  ( -2.000000000000000000, 0.0000000000000000000, 0.8299999999999999600 ) ) ;
#83 = ADVANCED_FACE ( 'NONE', ( #382 ), #908, .F. ) ;
#84 = EDGE_LOOP ( 'NONE', ( #746, #556, #470, #1048 ) ) ;
#85 = CARTESIAN_POINT ( 'NONE',  ( 2.000000000000000000, 0.0000000000000000000, 0.8299999999999999600 ) ) ;
#86 = ORIENTED_EDGE ( 'NONE', *, *, #1123, .T. ) ;
#87 = DIRECTION ( 'NONE',  ( -0.7071067811865480168, 0.0000000000000000000, -0.7071067811865470176 ) ) ;
#88 = ORIENTED_EDGE ( 'NONE', *, *, #903, .T. ) ;
#89 = PLANE ( 'NONE',  #535 ) ;
#90 = AXIS2_PLACEMENT_3D ( 'NONE', #753, #1065, #1165 ) ;
#91 = DIRECTION ( 'NONE',  ( 0.0000000000000000000, 1.000000000000000000, 0.0000000000000000000 ) ) ;
#92 = CIRCLE ( 'NONE', #638, 0.8000000000000003775 ) ;
#93 = LINE ( 'NONE', #518, #1052 ) ;
#94 = PLANE ( 'NONE',  #401 ) ;
#95 = VECTOR ( 'NONE', #1154, 1000.000000000000000 ) ;
#96 = ORIENTED_EDGE ( 'NONE', *, *, #133, .F. ) ;
#97 = EDGE_CURVE ( 'NONE', #1060, #186, #645, .T. ) ;
#98 = ORIENTED_EDGE ( 'NONE', *, *, #428, .F. ) ;
#99 = AXIS2_PLACEMENT_3D ( 'NONE', #520, #434, #1092 ) ;
#100 = ORIENTED_EDGE ( 'NONE', *, *, #489, .F. ) ;
#101 = DIRECTION ( 'NONE',  ( -0.0000000000000000000, 1.000000000000000000, 0.0000000000000000000 ) ) ;
#102 = VERTEX_POINT ( 'NONE', #636 ) ;
#103 = CARTESIAN_POINT ( 'NONE',  ( 0.0000000000000000000, 0.0000000000000000000, 0.6650000000000000355 ) ) ;
#104 = CARTESIAN_POINT ( 'NONE',  ( 3.440706435731669899, 5.200000000000000178, 0.2718526729819650267 ) ) ;
#105 = CARTESIAN_POINT ( 'NONE',  ( 2.381923245252319798, 0.0000000000000000000, 0.2870767547476810178 ) ) ;
#106 = VECTOR ( 'NONE', #30, 1000.000000000000000 ) ;
#107 = CARTESIAN_POINT ( 'NONE',  ( 3.000370849898480241, 5.200000000000000178, 0.8000000000000000444 ) ) ;
#108 = FACE_OUTER_BOUND ( 'NONE', #716, .T. ) ;
#109 = ORIENTED_EDGE ( 'NONE', *, *, #309, .F. ) ;
#110 = EDGE_CURVE ( 'NONE', #597, #130, #580, .T. ) ;
#111 = DIRECTION ( 'NONE',  ( 0.0000000000000000000, -1.000000000000000000, 0.0000000000000000000 ) ) ;
#112 = ORIENTED_EDGE ( 'NONE', *, *, #240, .T. ) ;
#113 = VERTEX_POINT ( 'NONE', #85 ) ;
#114 = EDGE_CURVE ( 'NONE', #1012, #435, #420, .T. ) ;
#115 = ORIENTED_EDGE ( 'NONE', *, *, #1141, .T. ) ;
#116 = CARTESIAN_POINT ( 'NONE',  ( -5.608805695998920667E-17, 5.200000000000000178, 0.6650000000000000355 ) ) ;
#117 = DIRECTION ( 'NONE',  ( 0.3826834323650901148, 0.0000000000000000000, -0.9238795325112865164 ) ) ;
#118 = EDGE_CURVE ( 'NONE', #923, #532, #996, .T. ) ;
#119 = DIRECTION ( 'NONE',  ( 0.0000000000000000000, -1.000000000000000000, 0.0000000000000000000 ) ) ;
#120 = DIRECTION ( 'NONE',  ( 0.3826834323650901148, 0.0000000000000000000, -0.9238795325112865164 ) ) ;
#121 = VECTOR ( 'NONE', #1084, 1000.000000000000000 ) ;
#122 = DIRECTION ( 'NONE',  ( 0.0000000000000000000, -1.000000000000000000, 0.0000000000000000000 ) ) ;
#123 = CIRCLE ( 'NONE', #1025, 0.7999999999999997113 ) ;
#124 = VECTOR ( 'NONE', #151, 1000.000000000000000 ) ;
#125 = ORIENTED_EDGE ( 'NONE', *, *, #607, .T. ) ;
#126 = ORIENTED_EDGE ( 'NONE', *, *, #925, .T. ) ;
#127 = DIRECTION ( 'NONE',  ( 0.0000000000000000000, 1.000000000000000000, 0.0000000000000000000 ) ) ;
#128 = AXIS2_PLACEMENT_3D ( 'NONE', #1020, #820, #1207 ) ;
#129 = ORIENTED_EDGE ( 'NONE', *, *, #172, .F. ) ;
#130 = VERTEX_POINT ( 'NONE', #624 ) ;
#131 = CARTESIAN_POINT ( 'NONE',  ( 5.000000000000000000, 0.0000000000000000000, 0.0000000000000000000 ) ) ;
#132 = CARTESIAN_POINT ( 'NONE',  ( 5.000000000000000000, 5.200000000000000178, 0.3300000000000000155 ) ) ;
#133 = EDGE_CURVE ( 'NONE', #209, #252, #1133, .T. ) ;
#134 = DIRECTION ( 'NONE',  ( 0.0000000000000000000, 0.0000000000000000000, -1.000000000000000000 ) ) ;
#135 = FACE_OUTER_BOUND ( 'NONE', #39, .T. ) ;
#136 = LINE ( 'NONE', #429, #843 ) ;
#137 = DIRECTION ( 'NONE',  ( -0.3826834323650901148, 0.0000000000000000000, -0.9238795325112865164 ) ) ;
#138 = FACE_OUTER_BOUND ( 'NONE', #872, .T. ) ;
#139 = DIRECTION ( 'NONE',  ( 0.0000000000000000000, 1.000000000000000000, 0.0000000000000000000 ) ) ;
#140 = VERTEX_POINT ( 'NONE', #824 ) ;
#141 = ORIENTED_EDGE ( 'NONE', *, *, #118, .T. ) ;
#142 = DIRECTION ( 'NONE',  ( -0.2297027246211489626, 0.0000000000000000000, 0.9732608377519462728 ) ) ;
#143 = VERTEX_POINT ( 'NONE', #924 ) ;
#144 = ORIENTED_EDGE ( 'NONE', *, *, #549, .T. ) ;
#145 = PRODUCT_DEFINITION ( 'UNKNOWN', '', #262, #537 ) ;
#146 = CARTESIAN_POINT ( 'NONE',  ( -2.000000000000000000, 5.200000000000000178, 0.8299999999999999600 ) ) ;
#147 = PLANE ( 'NONE',  #278 ) ;
#148 = AXIS2_PLACEMENT_3D ( 'NONE', #780, #48, #1180 ) ;
#149 = LINE ( 'NONE', #888, #605 ) ;
#150 = VECTOR ( 'NONE', #384, 1000.000000000000000 ) ;
#151 = DIRECTION ( 'NONE',  ( 1.000000000000000000, 0.0000000000000000000, 0.0000000000000000000 ) ) ;
#152 = ORIENTED_EDGE ( 'NONE', *, *, #1173, .T. ) ;
#153 = CARTESIAN_POINT ( 'NONE',  ( 1.191045262974199659, 0.0000000000000000000, 0.8299999999999999600 ) ) ;
#154 = ORIENTED_EDGE ( 'NONE', *, *, #1035, .F. ) ;
#155 = DIRECTION ( 'NONE',  ( -1.000000000000000000, 0.0000000000000000000, 0.0000000000000000000 ) ) ;
#156 = ORIENTED_EDGE ( 'NONE', *, *, #31, .T. ) ;
#157 = EDGE_LOOP ( 'NONE', ( #1031, #422, #898, #515 ) ) ;
#158 = EDGE_CURVE ( 'NONE', #571, #209, #845, .T. ) ;
#159 = EDGE_LOOP ( 'NONE', ( #524, #730, #266, #1203 ) ) ;
#160 = AXIS2_PLACEMENT_3D ( 'NONE', #449, #720, #365 ) ;
#161 = UNCERTAINTY_MEASURE_WITH_UNIT (LENGTH_MEASURE( 1.000000000000000082E-05 ), #778, 'distance_accuracy_value', 'NONE');
#162 = DIRECTION ( 'NONE',  ( -1.000000000000000000, 0.0000000000000000000, 0.0000000000000000000 ) ) ;
#163 = ADVANCED_FACE ( 'NONE', ( #10 ), #89, .F. ) ;
#164 = LINE ( 'NONE', #584, #976 ) ;
#165 = FACE_OUTER_BOUND ( 'NONE', #280, .T. ) ;
#166 = FILL_AREA_STYLE ('',( #988 ) ) ;
#167 = CARTESIAN_POINT ( 'NONE',  ( 2.539578970309959605, 0.0000000000000000000, 0.5961115052731600361 ) ) ;
#168 = ORIENTED_EDGE ( 'NONE', *, *, #788, .T. ) ;
#169 = ORIENTED_EDGE ( 'NONE', *, *, #400, .T. ) ;
#170 = VERTEX_POINT ( 'NONE', #662 ) ;
#171 =( LENGTH_UNIT ( ) NAMED_UNIT ( * ) SI_UNIT ( .MILLI., .METRE. ) );
#172 = EDGE_CURVE ( 'NONE', #531, #966, #709, .T. ) ;
#173 = CARTESIAN_POINT ( 'NONE',  ( 2.571375900532360426, 0.0000000000000000000, 0.5643145750507619907 ) ) ;
#174 = DIRECTION ( 'NONE',  ( -0.3826834323650901148, 0.0000000000000000000, -0.9238795325112865164 ) ) ;
#175 = EDGE_CURVE ( 'NONE', #1060, #25, #764, .T. ) ;
#176 = CARTESIAN_POINT ( 'NONE',  ( 2.830914579589527857, 0.0000000000000000000, 0.3908963739909706581 ) ) ;
#177 = DIRECTION ( 'NONE',  ( 1.000000000000000000, 0.0000000000000000000, 0.0000000000000000000 ) ) ;
#178 = FACE_OUTER_BOUND ( 'NONE', #1090, .T. ) ;
#179 = EDGE_CURVE ( 'NONE', #102, #862, #1153, .T. ) ;
#180 = CIRCLE ( 'NONE', #246, 0.8000000000000003775 ) ;
#181 = VERTEX_POINT ( 'NONE', #1042 ) ;
#182 = AXIS2_PLACEMENT_3D ( 'NONE', #922, #101, #911 ) ;
#183 = CARTESIAN_POINT ( 'NONE',  ( 2.830914579589527857, 0.0000000000000000000, 0.3908963739909703250 ) ) ;
#184 = VERTEX_POINT ( 'NONE', #473 ) ;
#185 = DIRECTION ( 'NONE',  ( 0.7071067811865480168, 0.0000000000000000000, -0.7071067811865470176 ) ) ;
#186 = VERTEX_POINT ( 'NONE', #935 ) ;
#187 = EDGE_LOOP ( 'NONE', ( #786, #559, #952, #1182 ) ) ;
#188 = DIRECTION ( 'NONE',  ( 0.0000000000000000000, 1.000000000000000000, 0.0000000000000000000 ) ) ;
#189 = DIRECTION ( 'NONE',  ( 0.0000000000000000000, 1.000000000000000000, 0.0000000000000000000 ) ) ;
#190 = AXIS2_PLACEMENT_3D ( 'NONE', #451, #901, #542 ) ;
#191 = LINE ( 'NONE', #933, #450 ) ;
#192 = CARTESIAN_POINT ( 'NONE',  ( 5.000000000000000000, 0.0000000000000000000, 0.3300000000000000155 ) ) ;
#193 = VECTOR ( 'NONE', #188, 1000.000000000000000 ) ;
#194 = ORIENTED_EDGE ( 'NONE', *, *, #838, .F. ) ;
#195 = EDGE_CURVE ( 'NONE', #998, #532, #932, .T. ) ;
#196 = ORIENTED_EDGE ( 'NONE', *, *, #489, .T. ) ;
#197 = EDGE_LOOP ( 'NONE', ( #656, #647, #729, #327 ) ) ;
#198 = PLANE ( 'NONE',  #369 ) ;
#199 = ORIENTED_EDGE ( 'NONE', *, *, #1098, .F. ) ;
#200 = PLANE ( 'NONE',  #458 ) ;
#201 = CARTESIAN_POINT ( 'NONE',  ( 1.816237820303080008, 0.0000000000000000000, -0.2786086702015569960 ) ) ;
#202 = DIRECTION ( 'NONE',  ( 0.03263306829909608242, 0.0000000000000000000, 0.9994673995950976719 ) ) ;
#203 = VECTOR ( 'NONE', #1130, 1000.000000000000000 ) ;
#204 = DIRECTION ( 'NONE',  ( -0.7071067811865470176, 0.0000000000000000000, 0.7071067811865480168 ) ) ;
#205 = VECTOR ( 'NONE', #1051, 1000.000000000000000 ) ;
#206 = CARTESIAN_POINT ( 'NONE',  ( 1.000000000000000000, 0.0000000000000000000, 0.8299999999999999600 ) ) ;
#207 = FACE_OUTER_BOUND ( 'NONE', #187, .T. ) ;
#208 = DIRECTION ( 'NONE',  ( 0.3826834323650901148, 0.0000000000000000000, -0.9238795325112865164 ) ) ;
#209 = VERTEX_POINT ( 'NONE', #751 ) ;
#210 = AXIS2_PLACEMENT_3D ( 'NONE', #107, #1126, #840 ) ;
#211 = ORIENTED_EDGE ( 'NONE', *, *, #809, .T. ) ;
#212 = CARTESIAN_POINT ( 'NONE',  ( -2.805690475583119792, 0.0000000000000000000, 0.3300000000000000155 ) ) ;
#213 = ORIENTED_EDGE ( 'NONE', *, *, #965, .T. ) ;
#214 = CARTESIAN_POINT ( 'NONE',  ( -3.137061325481599994, 0.0000000000000000000, 0.3300000000000000155 ) ) ;
#215 = CARTESIAN_POINT ( 'NONE',  ( 3.137061325481599994, 0.0000000000000000000, 1.129999999999999893 ) ) ;
#216 = EDGE_CURVE ( 'NONE', #570, #998, #468, .T. ) ;
#217 = CARTESIAN_POINT ( 'NONE',  ( -3.000370849898480241, 0.0000000000000000000, 0.8000000000000000444 ) ) ;
#218 = PLANE ( 'NONE',  #914 ) ;
#219 = LINE ( 'NONE', #214, #1044 ) ;
#220 = ORIENTED_EDGE ( 'NONE', *, *, #222, .F. ) ;
#221 = ORIENTED_EDGE ( 'NONE', *, *, #586, .F. ) ;
#222 = EDGE_CURVE ( 'NONE', #752, #1012, #1030, .T. ) ;
#223 = ORIENTED_EDGE ( 'NONE', *, *, #228, .T. ) ;
#224 = EDGE_CURVE ( 'NONE', #1000, #1002, #625, .T. ) ;
#225 = EDGE_LOOP ( 'NONE', ( #194, #543, #1171, #1077 ) ) ;
#226 = DIRECTION ( 'NONE',  ( -1.000000000000000000, 0.0000000000000000000, -0.0000000000000000000 ) ) ;
#227 = PLANE ( 'NONE',  #1091 ) ;
#228 = EDGE_CURVE ( 'NONE', #814, #755, #1104, .T. ) ;
#229 = DIRECTION ( 'NONE',  ( 0.0000000000000000000, 0.0000000000000000000, 1.000000000000000000 ) ) ;
#230 = EDGE_CURVE ( 'NONE', #1142, #817, #180, .T. ) ;
#231 = VECTOR ( 'NONE', #852, 1000.000000000000000 ) ;
#232 = FACE_OUTER_BOUND ( 'NONE', #53, .T. ) ;
#233 = DIRECTION ( 'NONE',  ( -0.0000000000000000000, 0.0000000000000000000, 1.000000000000000000 ) ) ;
#234 = VECTOR ( 'NONE', #955, 1000.000000000000000 ) ;
#235 = CARTESIAN_POINT ( 'NONE',  ( 3.000370849898480241, 0.0000000000000000000, 0.0000000000000000000 ) ) ;
#236 = ORIENTED_EDGE ( 'NONE', *, *, #526, .F. ) ;
#237 = ORIENTED_EDGE ( 'NONE', *, *, #269, .F. ) ;
#238 = DIRECTION ( 'NONE',  ( 0.0000000000000000000, 1.000000000000000000, 0.0000000000000000000 ) ) ;
#239 = ORIENTED_EDGE ( 'NONE', *, *, #439, .F. ) ;
#240 = EDGE_CURVE ( 'NONE', #671, #284, #65, .T. ) ;
#241 = ORIENTED_EDGE ( 'NONE', *, *, #6, .F. ) ;
#242 = DIRECTION ( 'NONE',  ( 0.0000000000000000000, 1.000000000000000000, 0.0000000000000000000 ) ) ;
#243 = AXIS2_PLACEMENT_3D ( 'NONE', #1039, #20, #660 ) ;
#244 =( LENGTH_UNIT ( ) NAMED_UNIT ( * ) SI_UNIT ( .MILLI., .METRE. ) );
#245 = ADVANCED_BREP_SHAPE_REPRESENTATION ( 'WSL3921 (0.004)', ( #476, #498, #1135, #18 ), #81 ) ;
#246 = AXIS2_PLACEMENT_3D ( 'NONE', #568, #1140, #17 ) ;
#247 = LINE ( 'NONE', #132, #1176 ) ;
#248 = ADVANCED_FACE ( 'NONE', ( #930 ), #1118, .F. ) ;
#249 = FACE_OUTER_BOUND ( 'NONE', #486, .T. ) ;
#250 = PLANE ( 'NONE',  #724 ) ;
#251 = EDGE_LOOP ( 'NONE', ( #1062, #596, #685, #100 ) ) ;
#252 = VERTEX_POINT ( 'NONE', #1023 ) ;
#253 = ORIENTED_EDGE ( 'NONE', *, *, #195, .T. ) ;
#254 = VERTEX_POINT ( 'NONE', #105 ) ;
#255 = EDGE_CURVE ( 'NONE', #755, #254, #1193, .T. ) ;
#256 = CARTESIAN_POINT ( 'NONE',  ( 5.000000000000000000, 0.0000000000000000000, 0.3300000000000000155 ) ) ;
#257 = DIRECTION ( 'NONE',  ( 0.0000000000000000000, 1.000000000000000000, 0.0000000000000000000 ) ) ;
#258 = ADVANCED_FACE ( 'NONE', ( #292 ), #1121, .T. ) ;
#259 = EDGE_CURVE ( 'NONE', #570, #611, #510, .T. ) ;
#260 = LINE ( 'NONE', #576, #507 ) ;
#261 = DIRECTION ( 'NONE',  ( 0.0000000000000000000, 1.000000000000000000, 0.0000000000000000000 ) ) ;
#262 = PRODUCT_DEFINITION_FORMATION_WITH_SPECIFIED_SOURCE ( 'ANY', '', #1022, .NOT_KNOWN. ) ;
#263 = DIRECTION ( 'NONE',  ( 0.0000000000000000000, 1.000000000000000000, 0.0000000000000000000 ) ) ;
#264 = ORIENTED_EDGE ( 'NONE', *, *, #380, .F. ) ;
#265 = ADVANCED_FACE ( 'NONE', ( #483 ), #200, .T. ) ;
#266 = ORIENTED_EDGE ( 'NONE', *, *, #586, .T. ) ;
#267 = ORIENTED_EDGE ( 'NONE', *, *, #367, .T. ) ;
#268 = DIRECTION ( 'NONE',  ( 0.0000000000000000000, 0.0000000000000000000, -1.000000000000000000 ) ) ;
#269 = EDGE_CURVE ( 'NONE', #1033, #472, #392, .T. ) ;
#270 = DIRECTION ( 'NONE',  ( 0.0000000000000000000, -1.000000000000000000, 0.0000000000000000000 ) ) ;
#271 = DIRECTION ( 'NONE',  ( -1.000000000000000000, -3.533355589885544462E-15, 0.0000000000000000000 ) ) ;
#272 = DIRECTION ( 'NONE',  ( -0.3826834323650901148, 0.0000000000000000000, -0.9238795325112865164 ) ) ;
#273 = LINE ( 'NONE', #192, #522 ) ;
#274 = CARTESIAN_POINT ( 'NONE',  ( -2.805690475583119792, 5.200000000000000178, 0.3300000000000000155 ) ) ;
#275 = EDGE_CURVE ( 'NONE', #1049, #170, #740, .T. ) ;
#276 = VECTOR ( 'NONE', #741, 1000.000000000000000 ) ;
#277 = ORIENTED_EDGE ( 'NONE', *, *, #224, .F. ) ;
#278 = AXIS2_PLACEMENT_3D ( 'NONE', #975, #45, #877 ) ;
#279 = DIRECTION ( 'NONE',  ( 0.0000000000000000000, 1.000000000000000000, 0.0000000000000000000 ) ) ;
#280 = EDGE_LOOP ( 'NONE', ( #1095, #497, #267, #954 ) ) ;
#281 = ORIENTED_EDGE ( 'NONE', *, *, #1206, .F. ) ;
#282 = EDGE_LOOP ( 'NONE', ( #1110, #51, #970, #310 ) ) ;
#283 = DIRECTION ( 'NONE',  ( 0.0000000000000000000, 0.0000000000000000000, -1.000000000000000000 ) ) ;
#284 = VERTEX_POINT ( 'NONE', #575 ) ;
#285 = EDGE_CURVE ( 'NONE', #1181, #1002, #918, .T. ) ;
#286 = CARTESIAN_POINT ( 'NONE',  ( 2.669000000000000039, 0.0000000000000000000, 0.0000000000000000000 ) ) ;
#287 = EDGE_CURVE ( 'NONE', #531, #781, #812, .T. ) ;
#288 = CARTESIAN_POINT ( 'NONE',  ( -2.000000000000000000, 0.0000000000000000000, 0.8299999999999999600 ) ) ;
#289 = VECTOR ( 'NONE', #52, 1000.000000000000000 ) ;
#290 = DIRECTION ( 'NONE',  ( 0.0000000000000000000, 1.000000000000000000, 0.0000000000000000000 ) ) ;
#291 = CARTESIAN_POINT ( 'NONE',  ( -3.440706435731669899, 5.200000000000000178, 0.2718526729819650267 ) ) ;
#292 = FACE_OUTER_BOUND ( 'NONE', #251, .T. ) ;
#293 = EDGE_CURVE ( 'NONE', #937, #209, #219, .T. ) ;
#294 = ORIENTED_EDGE ( 'NONE', *, *, #14, .F. ) ;
#295 = ORIENTED_EDGE ( 'NONE', *, *, #1098, .T. ) ;
#296 = DIRECTION ( 'NONE',  ( -0.03263306829909608242, 0.0000000000000000000, 0.9994673995950976719 ) ) ;
#297 = ORIENTED_EDGE ( 'NONE', *, *, #400, .F. ) ;
#298 = PLANE ( 'NONE',  #90 ) ;
#299 = EDGE_LOOP ( 'NONE', ( #968, #1047, #12, #1074 ) ) ;
#300 = EDGE_CURVE ( 'NONE', #181, #184, #336, .T. ) ;
#301 = AXIS2_PLACEMENT_3D ( 'NONE', #927, #479, #202 ) ;
#302 = CARTESIAN_POINT ( 'NONE',  ( -2.539578970309959605, 0.0000000000000000000, 0.5961115052731600361 ) ) ;
#303 = LINE ( 'NONE', #413, #334 ) ;
#304 = LINE ( 'NONE', #860, #289 ) ;
#305 = FACE_OUTER_BOUND ( 'NONE', #585, .T. ) ;
#306 = LINE ( 'NONE', #1177, #36 ) ;
#307 = CARTESIAN_POINT ( 'NONE',  ( -2.169000000000000039, 5.200000000000000178, 0.5000000000000000000 ) ) ;
#308 = EDGE_LOOP ( 'NONE', ( #874, #424, #109, #574 ) ) ;
#309 = EDGE_CURVE ( 'NONE', #474, #1181, #495, .T. ) ;
#310 = ORIENTED_EDGE ( 'NONE', *, *, #734, .F. ) ;
#311 = DIRECTION ( 'NONE',  ( 0.0000000000000000000, -1.000000000000000000, 0.0000000000000000000 ) ) ;
#312 = ORIENTED_EDGE ( 'NONE', *, *, #829, .T. ) ;
#313 = CLOSED_SHELL ( 'NONE', ( #1094, #1017, #442, #640, #530, #795, #258, #83, #1106, #248 ) ) ;
#314 = PLANE ( 'NONE',  #414 ) ;
#315 = CARTESIAN_POINT ( 'NONE',  ( -2.694224104006408105, 5.200000000000000178, 0.06089637399097073966 ) ) ;
#316 = EDGE_CURVE ( 'NONE', #472, #487, #555, .T. ) ;
#317 = CARTESIAN_POINT ( 'NONE',  ( -2.381923245252319798, 0.0000000000000000000, 0.2870767547476810178 ) ) ;
#318 = CARTESIAN_POINT ( 'NONE',  ( -5.000000000000000000, 5.200000000000000178, 3.469446951953609875E-17 ) ) ;
#319 = CIRCLE ( 'NONE', #301, 0.8000000000000003775 ) ;
#320 = VECTOR ( 'NONE', #1038, 1000.000000000000000 ) ;
#321 = LINE ( 'NONE', #708, #21 ) ;
#322 = ORIENTED_EDGE ( 'NONE', *, *, #463, .T. ) ;
#323 = EDGE_LOOP ( 'NONE', ( #634, #1218, #86, #38, #572, #1139, #154, #96, #516, #940, #241, #683 ) ) ;
#324 = CARTESIAN_POINT ( 'NONE',  ( 2.000000000000000000, 0.0000000000000000000, 0.5000000000000000000 ) ) ;
#325 = PRODUCT_RELATED_PRODUCT_CATEGORY ( 'part', '', ( #1022 ) ) ;
#326 = EDGE_LOOP ( 'NONE', ( #1134, #409, #797, #848, #816, #819, #1032, #997, #769, #1217, #141, #342 ) ) ;
#327 = ORIENTED_EDGE ( 'NONE', *, *, #66, .T. ) ;
#328 = CARTESIAN_POINT ( 'NONE',  ( -5.000000000000000000, 5.200000000000000178, 0.0000000000000000000 ) ) ;
#329 = DIRECTION ( 'NONE',  ( 1.000000000000000000, 0.0000000000000000000, 0.0000000000000000000 ) ) ;
#330 = SURFACE_SIDE_STYLE ('',( #738 ) ) ;
#331 = AXIS2_PLACEMENT_3D ( 'NONE', #1132, #941, #747 ) ;
#332 = SURFACE_STYLE_USAGE ( .BOTH. , #629 ) ;
#333 = COLOUR_RGB ( '',0.7529411764705882248, 0.7529411764705882248, 0.7529411764705882248 ) ;
#334 = VECTOR ( 'NONE', #509, 1000.000000000000000 ) ;
#335 = FILL_AREA_STYLE_COLOUR ( '', #665 ) ;
#336 = LINE ( 'NONE', #1161, #1028 ) ;
#337 = DIRECTION ( 'NONE',  ( 0.0000000000000000000, 1.000000000000000000, 0.0000000000000000000 ) ) ;
#338 = LINE ( 'NONE', #1097, #372 ) ;
#339 = EDGE_LOOP ( 'NONE', ( #1197, #832, #546, #582 ) ) ;
#340 = ADVANCED_FACE ( 'NONE', ( #50 ), #218, .T. ) ;
#341 = APPLICATION_CONTEXT ( 'automotive_design' ) ;
#342 = ORIENTED_EDGE ( 'NONE', *, *, #195, .F. ) ;
#343 = EDGE_CURVE ( 'NONE', #186, #680, #994, .T. ) ;
#344 = CARTESIAN_POINT ( 'NONE',  ( -2.000000000000000000, 5.200000000000000178, 0.8299999999999999600 ) ) ;
#345 = CARTESIAN_POINT ( 'NONE',  ( 2.434685424949239785, 5.200000000000000178, 0.2343145750507620029 ) ) ;
#346 = ADVANCED_FACE ( 'NONE', ( #855 ), #668, .T. ) ;
#347 = DIRECTION ( 'NONE',  ( 0.0000000000000000000, 1.000000000000000000, 0.0000000000000000000 ) ) ;
#348 = DIRECTION ( 'NONE',  ( 0.0000000000000000000, -1.000000000000000000, 0.0000000000000000000 ) ) ;
#349 = LINE ( 'NONE', #761, #106 ) ;
#350 = VECTOR ( 'NONE', #337, 1000.000000000000000 ) ;
#351 = DIRECTION ( 'NONE',  ( -0.3826834323650901148, 0.0000000000000000000, -0.9238795325112865164 ) ) ;
#352 = VECTOR ( 'NONE', #926, 1000.000000000000000 ) ;
#353 = ADVANCED_FACE ( 'NONE', ( #249 ), #858, .T. ) ;
#354 = DIRECTION ( 'NONE',  ( -0.2297027246211489626, 0.0000000000000000000, 0.9732608377519462728 ) ) ;
#355 = VERTEX_POINT ( 'NONE', #768 ) ;
#356 = CARTESIAN_POINT ( 'NONE',  ( 1.191045262974199215, 0.0000000000000000000, 0.5000000000000000000 ) ) ;
#357 = ORIENTED_EDGE ( 'NONE', *, *, #1079, .T. ) ;
#358 = CARTESIAN_POINT ( 'NONE',  ( -5.000000000000000000, 5.200000000000000178, 0.3300000000000000155 ) ) ;
#359 = ORIENTED_EDGE ( 'NONE', *, *, #269, .T. ) ;
#360 = SURFACE_STYLE_USAGE ( .BOTH. , #437 ) ;
#361 = EDGE_CURVE ( 'NONE', #435, #981, #979, .T. ) ;
#362 = ORIENTED_EDGE ( 'NONE', *, *, #31, .F. ) ;
#363 = DIRECTION ( 'NONE',  ( 0.0000000000000000000, 1.000000000000000000, 0.0000000000000000000 ) ) ;
#364 = DIRECTION ( 'NONE',  ( 0.0000000000000000000, -1.000000000000000000, 0.0000000000000000000 ) ) ;
#365 = DIRECTION ( 'NONE',  ( 0.0000000000000000000, -1.000000000000000000, 0.0000000000000000000 ) ) ;
#366 = DIRECTION ( 'NONE',  ( 1.000000000000000000, 0.0000000000000000000, 0.0000000000000000000 ) ) ;
#367 = EDGE_CURVE ( 'NONE', #781, #937, #961, .T. ) ;
#368 = ADVANCED_FACE ( 'NONE', ( #523 ), #298, .T. ) ;
#369 = AXIS2_PLACEMENT_3D ( 'NONE', #116, #111, #283 ) ;
#370 = CARTESIAN_POINT ( 'NONE',  ( -1.191045262974199659, 0.0000000000000000000, 0.5000000000000000000 ) ) ;
#371 = VECTOR ( 'NONE', #1063, 1000.000000000000000 ) ;
#372 = VECTOR ( 'NONE', #69, 1000.000000000000000 ) ;
#373 = ORIENTED_EDGE ( 'NONE', *, *, #56, .T. ) ;
#374 = VERTEX_POINT ( 'NONE', #774 ) ;
#375 = ORIENTED_EDGE ( 'NONE', *, *, #428, .T. ) ;
#376 = EDGE_LOOP ( 'NONE', ( #725, #3, #115, #156, #27, #513, #40, #443, #22, #469, #23, #277 ) ) ;
#377 = UNCERTAINTY_MEASURE_WITH_UNIT (LENGTH_MEASURE( 1.000000000000000082E-05 ), #244, 'distance_accuracy_value', 'NONE');
#378 = EDGE_CURVE ( 'NONE', #184, #1000, #608, .T. ) ;
#379 = VECTOR ( 'NONE', #238, 1000.000000000000000 ) ;
#380 = EDGE_CURVE ( 'NONE', #754, #388, #569, .T. ) ;
#381 = FACE_OUTER_BOUND ( 'NONE', #80, .T. ) ;
#382 = FACE_OUTER_BOUND ( 'NONE', #743, .T. ) ;
#383 = CLOSED_SHELL ( 'NONE', ( #825, #1195, #889, #368, #712, #891, #432, #718, #962, #426, #616, #340, #346, #803 ) ) ;
#384 = DIRECTION ( 'NONE',  ( 0.0000000000000000000, -1.000000000000000000, 0.0000000000000000000 ) ) ;
#385 = ORIENTED_EDGE ( 'NONE', *, *, #892, .T. ) ;
#386 = VERTEX_POINT ( 'NONE', #878 ) ;
#387 = DIRECTION ( 'NONE',  ( -0.0000000000000000000, 1.000000000000000000, 0.0000000000000000000 ) ) ;
#388 = VERTEX_POINT ( 'NONE', #235 ) ;
#389 = CARTESIAN_POINT ( 'NONE',  ( 3.000370849898480241, 0.0000000000000000000, 0.8000000000000000444 ) ) ;
#390 = DIRECTION ( 'NONE',  ( -1.000000000000000000, 0.0000000000000000000, 1.488394230782329904E-17 ) ) ;
#391 = DIRECTION ( 'NONE',  ( 0.0000000000000000000, 1.000000000000000000, 0.0000000000000000000 ) ) ;
#392 = LINE ( 'NONE', #851, #34 ) ;
#393 = AXIS2_PLACEMENT_3D ( 'NONE', #103, #563, #16 ) ;
#394 = ORIENTED_EDGE ( 'NONE', *, *, #1173, .F. ) ;
#395 = EDGE_LOOP ( 'NONE', ( #72, #837, #499, #512 ) ) ;
#396 = ORIENTED_EDGE ( 'NONE', *, *, #482, .T. ) ;
#397 = DIRECTION ( 'NONE',  ( 0.0000000000000000000, 0.0000000000000000000, -1.000000000000000000 ) ) ;
#398 = ORIENTED_EDGE ( 'NONE', *, *, #989, .T. ) ;
#399 = DIRECTION ( 'NONE',  ( 2.672764710092222993E-48, 1.925929944387249811E-32, 1.000000000000000000 ) ) ;
#400 = EDGE_CURVE ( 'NONE', #1033, #374, #779, .T. ) ;
#401 = AXIS2_PLACEMENT_3D ( 'NONE', #459, #1013, #831 ) ;
#402 = CARTESIAN_POINT ( 'NONE',  ( -1.191045262974199659, 0.4605019796031228907, 0.8299999999999999600 ) ) ;
#403 = DIRECTION ( 'NONE',  ( 0.0000000000000000000, 1.000000000000000000, 0.0000000000000000000 ) ) ;
#404 = CYLINDRICAL_SURFACE ( 'NONE', #775, 0.8000000000000003775 ) ;
#405 = LINE ( 'NONE', #75, #539 ) ;
#406 = CARTESIAN_POINT ( 'NONE',  ( 1.191045262974199437, 0.4605019796031228907, -0.001000000000000241147 ) ) ;
#407 = EDGE_CURVE ( 'NONE', #1181, #355, #123, .T. ) ;
#408 = DIRECTION ( 'NONE',  ( 0.0000000000000000000, 1.000000000000000000, 0.0000000000000000000 ) ) ;
#409 = ORIENTED_EDGE ( 'NONE', *, *, #259, .T. ) ;
#410 = AXIS2_PLACEMENT_3D ( 'NONE', #977, #417, #415 ) ;
#411 = VERTEX_POINT ( 'NONE', #324 ) ;
#412 = CARTESIAN_POINT ( 'NONE',  ( 2.539578970309959605, 0.0000000000000000000, 0.5961115052731600361 ) ) ;
#413 = CARTESIAN_POINT ( 'NONE',  ( -2.669000000000000039, 5.200000000000000178, 0.0000000000000000000 ) ) ;
#414 = AXIS2_PLACEMENT_3D ( 'NONE', #511, #1174, #134 ) ;
#415 = DIRECTION ( 'NONE',  ( 0.03263306829909608242, 0.0000000000000000000, 0.9994673995950976719 ) ) ;
#416 = SURFACE_STYLE_USAGE ( .BOTH. , #330 ) ;
#417 = DIRECTION ( 'NONE',  ( 0.0000000000000000000, 1.000000000000000000, 0.0000000000000000000 ) ) ;
#418 = VECTOR ( 'NONE', #1007, 1000.000000000000000 ) ;
#419 = VECTOR ( 'NONE', #127, 1000.000000000000000 ) ;
#420 = CIRCLE ( 'NONE', #801, 4.173129245188848202 ) ;
#421 = EDGE_CURVE ( 'NONE', #782, #411, #1151, .T. ) ;
#422 = ORIENTED_EDGE ( 'NONE', *, *, #255, .T. ) ;
#423 = AXIS2_PLACEMENT_3D ( 'NONE', #256, #899, #1204 ) ;
#424 = ORIENTED_EDGE ( 'NONE', *, *, #285, .F. ) ;
#425 = ORIENTED_EDGE ( 'NONE', *, *, #821, .T. ) ;
#426 = ADVANCED_FACE ( 'NONE', ( #578 ), #227, .T. ) ;
#427 = DIRECTION ( 'NONE',  ( 1.000000000000000000, 0.0000000000000000000, 0.0000000000000000000 ) ) ;
#428 = EDGE_CURVE ( 'NONE', #782, #671, #723, .T. ) ;
#429 = CARTESIAN_POINT ( 'NONE',  ( -2.571375900532360426, 0.0000000000000000000, 0.5643145750507619907 ) ) ;
#430 = DIRECTION ( 'NONE',  ( 0.0000000000000000000, 0.0000000000000000000, 1.000000000000000000 ) ) ;
#431 = LINE ( 'NONE', #963, #704 ) ;
#432 = ADVANCED_FACE ( 'NONE', ( #1215 ), #707, .T. ) ;
#433 = FACE_OUTER_BOUND ( 'NONE', #1201, .T. ) ;
#434 = DIRECTION ( 'NONE',  ( -1.000000000000000000, 0.0000000000000000000, 8.410780489584519664E-16 ) ) ;
#435 = VERTEX_POINT ( 'NONE', #1073 ) ;
#436 = ORIENTED_EDGE ( 'NONE', *, *, #829, .F. ) ;
#437 = SURFACE_SIDE_STYLE ('',( #737 ) ) ;
#438 = ORIENTED_EDGE ( 'NONE', *, *, #788, .F. ) ;
#439 = EDGE_CURVE ( 'NONE', #143, #113, #949, .T. ) ;
#440 = ORIENTED_EDGE ( 'NONE', *, *, #1136, .F. ) ;
#441 = CARTESIAN_POINT ( 'NONE',  ( -3.137061325481599994, 0.0000000000000000000, 1.129999999999999893 ) ) ;
#442 = ADVANCED_FACE ( 'NONE', ( #305 ), #1080, .T. ) ;
#443 = ORIENTED_EDGE ( 'NONE', *, *, #869, .F. ) ;
#444 = CARTESIAN_POINT ( 'NONE',  ( 2.539578970309959605, 5.200000000000000178, 0.5961115052731600361 ) ) ;
#445 = CARTESIAN_POINT ( 'NONE',  ( -1.816237820303080008, 0.0000000000000000000, -0.2786086702015569960 ) ) ;
#446 = CARTESIAN_POINT ( 'NONE',  ( 5.000000000000000000, 0.0000000000000000000, 0.0000000000000000000 ) ) ;
#447 = DIRECTION ( 'NONE',  ( 0.3826834323650901148, 0.0000000000000000000, -0.9238795325112865164 ) ) ;
#448 = AXIS2_PLACEMENT_3D ( 'NONE', #215, #953, #137 ) ;
#449 = CARTESIAN_POINT ( 'NONE',  ( -2.000000000000000000, 5.200000000000000178, 0.5000000000000000000 ) ) ;
#450 = VECTOR ( 'NONE', #1045, 1000.000000000000000 ) ;
#451 = CARTESIAN_POINT ( 'NONE',  ( 1.191045262974199659, 0.0000000000000000000, -0.001000000000000241147 ) ) ;
#452 = VECTOR ( 'NONE', #366, 1000.000000000000000 ) ;
#453 = DIRECTION ( 'NONE',  ( 0.0000000000000000000, 1.000000000000000000, 0.0000000000000000000 ) ) ;
#454 = ADVANCED_FACE ( 'NONE', ( #882 ), #314, .T. ) ;
#455 = ORIENTED_EDGE ( 'NONE', *, *, #1004, .T. ) ;
#456 = CARTESIAN_POINT ( 'NONE',  ( -2.000000000000000000, 5.200000000000000178, 0.8299999999999999600 ) ) ;
#457 = EDGE_LOOP ( 'NONE', ( #373, #1105, #583, #385 ) ) ;
#458 = AXIS2_PLACEMENT_3D ( 'NONE', #37, #759, #390 ) ;
#459 = CARTESIAN_POINT ( 'NONE',  ( 2.305690475583119792, 0.0000000000000000000, 0.8299999999999999600 ) ) ;
#460 = DIRECTION ( 'NONE',  ( 0.0000000000000000000, -1.000000000000000000, 0.0000000000000000000 ) ) ;
#461 = PLANE ( 'NONE',  #1081 ) ;
#462 = CARTESIAN_POINT ( 'NONE',  ( 2.218394709376542441E-48, -3.539050355171003748, -0.001000000000000241147 ) ) ;
#463 = EDGE_CURVE ( 'NONE', #754, #923, #466, .T. ) ;
#464 = CYLINDRICAL_SURFACE ( 'NONE', #895, 0.8000000000000003775 ) ;
#465 = AXIS2_PLACEMENT_3D ( 'NONE', #389, #484, #1145 ) ;
#466 = LINE ( 'NONE', #1078, #1057 ) ;
#467 = DIRECTION ( 'NONE',  ( 0.0000000000000000000, 0.0000000000000000000, 1.000000000000000000 ) ) ;
#468 = CIRCLE ( 'NONE', #210, 0.8000000000000003775 ) ;
#469 = ORIENTED_EDGE ( 'NONE', *, *, #407, .F. ) ;
#470 = ORIENTED_EDGE ( 'NONE', *, *, #857, .T. ) ;
#471 = CARTESIAN_POINT ( 'NONE',  ( -5.000000000000000000, 0.0000000000000000000, 0.3300000000000000155 ) ) ;
#472 = VERTEX_POINT ( 'NONE', #681 ) ;
#473 = CARTESIAN_POINT ( 'NONE',  ( -3.000370849898480241, 5.200000000000000178, 4.932104612383300328E-18 ) ) ;
#474 = VERTEX_POINT ( 'NONE', #317 ) ;
#475 = AXIS2_PLACEMENT_3D ( 'NONE', #517, #604, #242 ) ;
#476 = MANIFOLD_SOLID_BREP ( 'WSL3921 (0.004).stp[1]', #383 ) ;
#477 = CARTESIAN_POINT ( 'NONE',  ( -3.000370849898480241, 5.200000000000000178, 0.8000000000000000444 ) ) ;
#478 = PRODUCT_DEFINITION_SHAPE ( 'NONE', 'NONE',  #145 ) ;
#479 = DIRECTION ( 'NONE',  ( 0.0000000000000000000, -1.000000000000000000, 0.0000000000000000000 ) ) ;
#480 = CIRCLE ( 'NONE', #1018, 0.8000000000000003775 ) ;
#481 = CARTESIAN_POINT ( 'NONE',  ( -1.191045262974199659, 0.4605019796031228907, -0.001000000000000241147 ) ) ;
#482 = EDGE_CURVE ( 'NONE', #284, #374, #321, .T. ) ;
#483 = FACE_OUTER_BOUND ( 'NONE', #612, .T. ) ;
#484 = DIRECTION ( 'NONE',  ( 0.0000000000000000000, 1.000000000000000000, 0.0000000000000000000 ) ) ;
#485 = CLOSED_SHELL ( 'NONE', ( #534, #63, #909, #1190, #163, #1205, #76, #353, #808, #732, #2, #265, #632, #454 ) ) ;
#486 = EDGE_LOOP ( 'NONE', ( #920, #129, #221, #455 ) ) ;
#487 = VERTEX_POINT ( 'NONE', #866 ) ;
#488 = ORIENTED_EDGE ( 'NONE', *, *, #114, .T. ) ;
#489 = EDGE_CURVE ( 'NONE', #698, #284, #149, .T. ) ;
#490 = CARTESIAN_POINT ( 'NONE',  ( 3.137061325481599994, 0.0000000000000000000, 1.129999999999999893 ) ) ;
#491 = AXIS2_PLACEMENT_3D ( 'NONE', #201, #839, #24 ) ;
#492 = DIRECTION ( 'NONE',  ( 0.0000000000000000000, 0.0000000000000000000, 1.000000000000000000 ) ) ;
#493 = DIRECTION ( 'NONE',  ( 0.0000000000000000000, -1.000000000000000000, 0.0000000000000000000 ) ) ;
#494 = CARTESIAN_POINT ( 'NONE',  ( -3.137061325481599994, 5.200000000000000178, 1.129999999999999893 ) ) ;
#495 = LINE ( 'NONE', #1147, #419 ) ;
#496 = AXIS2_PLACEMENT_3D ( 'NONE', #1003, #263, #351 ) ;
#497 = ORIENTED_EDGE ( 'NONE', *, *, #705, .T. ) ;
#498 = MANIFOLD_SOLID_BREP ( 'WSL3921 (0.004).stp[2]', #485 ) ;
#499 = ORIENTED_EDGE ( 'NONE', *, *, #942, .T. ) ;
#500 = DIRECTION ( 'NONE',  ( 0.0000000000000000000, 0.0000000000000000000, -1.000000000000000000 ) ) ;
#501 = ORIENTED_EDGE ( 'NONE', *, *, #179, .F. ) ;
#502 = DIRECTION ( 'NONE',  ( 0.0000000000000000000, -1.000000000000000000, 0.0000000000000000000 ) ) ;
#503 = ORIENTED_EDGE ( 'NONE', *, *, #925, .F. ) ;
#504 = DIRECTION ( 'NONE',  ( 0.0000000000000000000, -1.000000000000000000, 0.0000000000000000000 ) ) ;
#505 = EDGE_CURVE ( 'NONE', #744, #1120, #508, .T. ) ;
#506 = CARTESIAN_POINT ( 'NONE',  ( -3.137061325481599994, 0.0000000000000000000, 1.129999999999999893 ) ) ;
#507 = VECTOR ( 'NONE', #957, 1000.000000000000000 ) ;
#508 = LINE ( 'NONE', #619, #350 ) ;
#509 = DIRECTION ( 'NONE',  ( -1.000000000000000000, 0.0000000000000000000, 1.488394230782329904E-17 ) ) ;
#510 = LINE ( 'NONE', #1144, #95 ) ;
#511 = CARTESIAN_POINT ( 'NONE',  ( -3.440706435731669899, 0.0000000000000000000, 0.2718526729819650267 ) ) ;
#512 = ORIENTED_EDGE ( 'NONE', *, *, #110, .T. ) ;
#513 = ORIENTED_EDGE ( 'NONE', *, *, #287, .F. ) ;
#514 = FILL_AREA_STYLE ('',( #335 ) ) ;
#515 = ORIENTED_EDGE ( 'NONE', *, *, #259, .F. ) ;
#516 = ORIENTED_EDGE ( 'NONE', *, *, #158, .F. ) ;
#517 = CARTESIAN_POINT ( 'NONE',  ( 2.000000000000000000, 5.200000000000000178, 0.5000000000000000000 ) ) ;
#518 = CARTESIAN_POINT ( 'NONE',  ( 2.000000000000000000, 5.200000000000000178, 0.8299999999999999600 ) ) ;
#519 = PRESENTATION_LAYER_ASSIGNMENT (  '', '', ( #595 ) ) ;
#520 = CARTESIAN_POINT ( 'NONE',  ( -2.000000000000000000, 5.200000000000000178, 0.8299999999999999600 ) ) ;
#521 = CARTESIAN_POINT ( 'NONE',  ( -2.539578970309959605, 0.0000000000000000000, 0.5961115052731600361 ) ) ;
#522 = VECTOR ( 'NONE', #500, 1000.000000000000000 ) ;
#523 = FACE_OUTER_BOUND ( 'NONE', #157, .T. ) ;
#524 = ORIENTED_EDGE ( 'NONE', *, *, #705, .F. ) ;
#525 = CARTESIAN_POINT ( 'NONE',  ( 3.000370849898480241, 0.0000000000000000000, 0.8000000000000000444 ) ) ;
#526 = EDGE_CURVE ( 'NONE', #814, #998, #1213, .T. ) ;
#527 = ORIENTED_EDGE ( 'NONE', *, *, #216, .T. ) ;
#528 = DIRECTION ( 'NONE',  ( 0.0000000000000000000, 1.000000000000000000, 0.0000000000000000000 ) ) ;
#529 = AXIS2_PLACEMENT_3D ( 'NONE', #104, #387, #1143 ) ;
#530 = ADVANCED_FACE ( 'NONE', ( #1131 ), #890, .T. ) ;
#531 = VERTEX_POINT ( 'NONE', #1170 ) ;
#532 = VERTEX_POINT ( 'NONE', #1189 ) ;
#533 = SURFACE_STYLE_USAGE ( .BOTH. , #1199 ) ;
#534 = ADVANCED_FACE ( 'NONE', ( #165 ), #947, .F. ) ;
#535 = AXIS2_PLACEMENT_3D ( 'NONE', #291, #460, #1034 ) ;
#536 = CARTESIAN_POINT ( 'NONE',  ( -1.191045262974199659, 0.4605019796031228907, 0.8299999999999999600 ) ) ;
#537 = PRODUCT_DEFINITION_CONTEXT ( 'detailed design', #341, 'design' ) ;
#538 = FACE_OUTER_BOUND ( 'NONE', #884, .T. ) ;
#539 = VECTOR ( 'NONE', #1099, 1000.000000000000000 ) ;
#540 = DIRECTION ( 'NONE',  ( 0.0000000000000000000, 1.000000000000000000, 0.0000000000000000000 ) ) ;
#541 = COLOUR_RGB ( '',0.7529411764705882248, 0.7529411764705882248, 0.7529411764705882248 ) ;
#542 = DIRECTION ( 'NONE',  ( 0.0000000000000000000, 0.0000000000000000000, -1.000000000000000000 ) ) ;
#543 = ORIENTED_EDGE ( 'NONE', *, *, #686, .T. ) ;
#544 = ORIENTED_EDGE ( 'NONE', *, *, #293, .F. ) ;
#545 = MECHANICAL_DESIGN_GEOMETRIC_PRESENTATION_REPRESENTATION (  '', ( #595 ), #602 ) ;
#546 = ORIENTED_EDGE ( 'NONE', *, *, #407, .T. ) ;
#547 = DIRECTION ( 'NONE',  ( 1.000000000000000000, 0.0000000000000000000, 0.0000000000000000000 ) ) ;
#548 = CARTESIAN_POINT ( 'NONE',  ( 2.218394709376542441E-48, -3.539050355171003748, 0.5000000000000000000 ) ) ;
#549 = EDGE_CURVE ( 'NONE', #143, #254, #827, .T. ) ;
#550 = AXIS2_PLACEMENT_3D ( 'NONE', #217, #42, #120 ) ;
#551 = CARTESIAN_POINT ( 'NONE',  ( -2.830914579589527857, 0.0000000000000000000, 0.3908963739909703250 ) ) ;
#552 = VECTOR ( 'NONE', #1152, 1000.000000000000000 ) ;
#553 = LINE ( 'NONE', #1212, #1149 ) ;
#554 = DIRECTION ( 'NONE',  ( 0.3826834323650901148, 0.0000000000000000000, -0.9238795325112865164 ) ) ;
#555 = LINE ( 'NONE', #26, #371 ) ;
#556 = ORIENTED_EDGE ( 'NONE', *, *, #175, .T. ) ;
#557 = CARTESIAN_POINT ( 'NONE',  ( 2.305690475583119792, 5.200000000000000178, 0.8299999999999999600 ) ) ;
#558 = ORIENTED_EDGE ( 'NONE', *, *, #439, .T. ) ;
#559 = ORIENTED_EDGE ( 'NONE', *, *, #838, .T. ) ;
#560 = AXIS2_PLACEMENT_3D ( 'NONE', #1128, #562, #844 ) ;
#561 = EDGE_LOOP ( 'NONE', ( #396, #297, #71, #112 ) ) ;
#562 = DIRECTION ( 'NONE',  ( 0.0000000000000000000, -1.000000000000000000, 0.0000000000000000000 ) ) ;
#563 = DIRECTION ( 'NONE',  ( 0.0000000000000000000, -1.000000000000000000, 0.0000000000000000000 ) ) ;
#564 = EDGE_CURVE ( 'NONE', #981, #1014, #693, .T. ) ;
#565 = LINE ( 'NONE', #591, #1068 ) ;
#566 = CARTESIAN_POINT ( 'NONE',  ( -2.694224104006408105, 0.0000000000000000000, 0.06089637399097041354 ) ) ;
#567 = VECTOR ( 'NONE', #540, 1000.000000000000000 ) ;
#568 = CARTESIAN_POINT ( 'NONE',  ( -1.973893545360720037, 0.0000000000000000000, 0.03042608032392180029 ) ) ;
#569 = LINE ( 'NONE', #57, #1087 ) ;
#570 = VERTEX_POINT ( 'NONE', #345 ) ;
#571 = VERTEX_POINT ( 'NONE', #1186 ) ;
#572 = ORIENTED_EDGE ( 'NONE', *, *, #230, .F. ) ;
#573 = DIRECTION ( 'NONE',  ( 0.3826834323650901148, 0.0000000000000000000, -0.9238795325112865164 ) ) ;
#574 = ORIENTED_EDGE ( 'NONE', *, *, #1198, .T. ) ;
#575 = CARTESIAN_POINT ( 'NONE',  ( -2.000000000000000000, 0.0000000000000000000, 0.5000000000000000000 ) ) ;
#576 = CARTESIAN_POINT ( 'NONE',  ( -1.000000000000000000, 0.0000000000000000000, 0.5000000000000000000 ) ) ;
#577 = CYLINDRICAL_SURFACE ( 'NONE', #770, 0.8000000000000003775 ) ;
#578 = FACE_OUTER_BOUND ( 'NONE', #885, .T. ) ;
#579 = CARTESIAN_POINT ( 'NONE',  ( -5.000000000000000000, 5.200000000000000178, 0.3300000000000000155 ) ) ;
#580 = CIRCLE ( 'NONE', #496, 0.8000000000000003775 ) ;
#581 = CARTESIAN_POINT ( 'NONE',  ( -2.805690475583119792, 0.0000000000000000000, 0.3300000000000000155 ) ) ;
#582 = ORIENTED_EDGE ( 'NONE', *, *, #1072, .F. ) ;
#583 = ORIENTED_EDGE ( 'NONE', *, *, #549, .F. ) ;
#584 = CARTESIAN_POINT ( 'NONE',  ( -2.000000000000000000, 5.200000000000000178, 0.5000000000000000000 ) ) ;
#585 = EDGE_LOOP ( 'NONE', ( #125, #1046, #771, #834 ) ) ;
#586 = EDGE_CURVE ( 'NONE', #900, #531, #136, .T. ) ;
#587 = DIRECTION ( 'NONE',  ( 1.000000000000000000, 0.0000000000000000000, -1.387778780781449866E-16 ) ) ;
#588 = STYLED_ITEM ( 'NONE', ( #960 ), #1135 ) ;
#589 = CARTESIAN_POINT ( 'NONE',  ( 5.000000000000000000, 5.200000000000000178, 0.0000000000000000000 ) ) ;
#590 = DIRECTION ( 'NONE',  ( 0.0000000000000000000, 0.0000000000000000000, 1.000000000000000000 ) ) ;
#591 = CARTESIAN_POINT ( 'NONE',  ( -5.000000000000000000, 0.0000000000000000000, 3.469446951953609875E-17 ) ) ;
#592 = CYLINDRICAL_SURFACE ( 'NONE', #465, 0.8000000000000003775 ) ;
#593 = DIRECTION ( 'NONE',  ( 0.3826834323650901148, 0.0000000000000000000, -0.9238795325112865164 ) ) ;
#594 = LINE ( 'NONE', #551, #810 ) ;
#595 = STYLED_ITEM ( 'NONE', ( #79 ), #476 ) ;
#596 = ORIENTED_EDGE ( 'NONE', *, *, #965, .F. ) ;
#597 = VERTEX_POINT ( 'NONE', #614 ) ;
#598 = DIRECTION ( 'NONE',  ( 0.0000000000000000000, 1.000000000000000000, 0.0000000000000000000 ) ) ;
#599 = ORIENTED_EDGE ( 'NONE', *, *, #316, .F. ) ;
#600 = DIRECTION ( 'NONE',  ( 0.0000000000000000000, -1.000000000000000000, 0.0000000000000000000 ) ) ;
#601 = VERTEX_POINT ( 'NONE', #802 ) ;
#602 =( GEOMETRIC_REPRESENTATION_CONTEXT ( 3 ) GLOBAL_UNCERTAINTY_ASSIGNED_CONTEXT ( ( #377 ) ) GLOBAL_UNIT_ASSIGNED_CONTEXT ( ( #244, #1191, #621 ) ) REPRESENTATION_CONTEXT ( 'NONE', 'WORKASPACE' ) );
#603 = DIRECTION ( 'NONE',  ( 0.0000000000000000000, 1.000000000000000000, 0.0000000000000000000 ) ) ;
#604 = DIRECTION ( 'NONE',  ( 1.000000000000000000, 0.0000000000000000000, 0.0000000000000000000 ) ) ;
#605 = VECTOR ( 'NONE', #155, 1000.000000000000000 ) ;
#606 = FACE_OUTER_BOUND ( 'NONE', #308, .T. ) ;
#607 = EDGE_CURVE ( 'NONE', #487, #411, #405, .T. ) ;
#608 = CIRCLE ( 'NONE', #148, 0.8000000000000003775 ) ;
#609 = DIRECTION ( 'NONE',  ( 0.2297027246211489626, 0.0000000000000000000, 0.9732608377519462728 ) ) ;
#610 = FACE_OUTER_BOUND ( 'NONE', #299, .T. ) ;
#611 = VERTEX_POINT ( 'NONE', #67 ) ;
#612 = EDGE_LOOP ( 'NONE', ( #1093, #682, #1194, #440 ) ) ;
#613 = ORIENTED_EDGE ( 'NONE', *, *, #1079, .F. ) ;
#614 = CARTESIAN_POINT ( 'NONE',  ( 3.137061325481599994, 5.200000000000000178, 0.3300000000000000155 ) ) ;
#615 = ORIENTED_EDGE ( 'NONE', *, *, #114, .F. ) ;
#616 = ADVANCED_FACE ( 'NONE', ( #433 ), #805, .T. ) ;
#617 = APPLICATION_CONTEXT ( 'automotive_design' ) ;
#618 = AXIS2_PLACEMENT_3D ( 'NONE', #78, #91, #447 ) ;
#619 = CARTESIAN_POINT ( 'NONE',  ( -5.000000000000000000, 0.0000000000000000000, 3.469446951953609875E-17 ) ) ;
#620 = APPLICATION_PROTOCOL_DEFINITION ( 'draft international standard', 'automotive_design', 1998, #341 ) ;
#621 =( NAMED_UNIT ( * ) SI_UNIT ( $, .STERADIAN. ) SOLID_ANGLE_UNIT ( ) );
#622 = VECTOR ( 'NONE', #881, 1000.000000000000000 ) ;
#623 = FACE_OUTER_BOUND ( 'NONE', #784, .T. ) ;
#624 = CARTESIAN_POINT ( 'NONE',  ( 2.830914579589527857, 5.200000000000000178, 0.3908963739909706581 ) ) ;
#625 = CIRCLE ( 'NONE', #41, 0.8000000000000003775 ) ;
#626 = CARTESIAN_POINT ( 'NONE',  ( 0.0000000000000000000, 0.0000000000000000000, 0.0000000000000000000 ) ) ;
#627 = EDGE_CURVE ( 'NONE', #130, #386, #1069, .T. ) ;
#628 = VERTEX_POINT ( 'NONE', #818 ) ;
#629 = SURFACE_SIDE_STYLE ('',( #49 ) ) ;
#630 = ORIENTED_EDGE ( 'NONE', *, *, #1188, .F. ) ;
#631 = ORIENTED_EDGE ( 'NONE', *, *, #821, .F. ) ;
#632 = ADVANCED_FACE ( 'NONE', ( #623 ), #461, .T. ) ;
#633 = CARTESIAN_POINT ( 'NONE',  ( 3.000370849898480241, 0.0000000000000000000, 0.8000000000000000444 ) ) ;
#634 = ORIENTED_EDGE ( 'NONE', *, *, #275, .F. ) ;
#635 = DIRECTION ( 'NONE',  ( 0.0000000000000000000, 1.000000000000000000, 0.0000000000000000000 ) ) ;
#636 = CARTESIAN_POINT ( 'NONE',  ( 2.000000000000000000, 5.200000000000000178, 0.5000000000000000000 ) ) ;
#637 = DIRECTION ( 'NONE',  ( -0.3826834323650901148, 0.0000000000000000000, -0.9238795325112865164 ) ) ;
#638 = AXIS2_PLACEMENT_3D ( 'NONE', #639, #270, #917 ) ;
#639 = CARTESIAN_POINT ( 'NONE',  ( 3.137061325481599994, 0.0000000000000000000, 1.129999999999999893 ) ) ;
#640 = ADVANCED_FACE ( 'NONE', ( #108 ), #826, .T. ) ;
#641 = CARTESIAN_POINT ( 'NONE',  ( -5.000000000000000000, 0.0000000000000000000, 0.3300000000000000155 ) ) ;
#642 = LINE ( 'NONE', #183, #567 ) ;
#643 = FACE_OUTER_BOUND ( 'NONE', #1075, .T. ) ;
#644 = DIRECTION ( 'NONE',  ( 0.3826834323650901148, 0.0000000000000000000, -0.9238795325112865164 ) ) ;
#645 = LINE ( 'NONE', #813, #856 ) ;
#646 = EDGE_LOOP ( 'NONE', ( #613, #934, #1016, #902 ) ) ;
#647 = ORIENTED_EDGE ( 'NONE', *, *, #767, .T. ) ;
#648 = ORIENTED_EDGE ( 'NONE', *, *, #938, .T. ) ;
#649 = CARTESIAN_POINT ( 'NONE',  ( -3.000370849898480241, 0.0000000000000000000, 0.8000000000000000444 ) ) ;
#650 = DIRECTION ( 'NONE',  ( -0.0000000000000000000, -0.0000000000000000000, 1.000000000000000000 ) ) ;
#651 = EDGE_CURVE ( 'NONE', #755, #570, #1178, .T. ) ;
#652 = AXIS2_PLACEMENT_3D ( 'NONE', #525, #347, #174 ) ;
#653 = VECTOR ( 'NONE', #598, 1000.000000000000000 ) ;
#654 = VECTOR ( 'NONE', #1210, 1000.000000000000000 ) ;
#655 = CARTESIAN_POINT ( 'NONE',  ( -3.137061325481599994, 0.0000000000000000000, 1.129999999999999893 ) ) ;
#656 = ORIENTED_EDGE ( 'NONE', *, *, #343, .T. ) ;
#657 = ORIENTED_EDGE ( 'NONE', *, *, #903, .F. ) ;
#658 = AXIS2_PLACEMENT_3D ( 'NONE', #733, #364, #719 ) ;
#659 = ORIENTED_EDGE ( 'NONE', *, *, #942, .F. ) ;
#660 = DIRECTION ( 'NONE',  ( -1.000000000000000000, 0.0000000000000000000, 0.0000000000000000000 ) ) ;
#661 = ORIENTED_EDGE ( 'NONE', *, *, #255, .F. ) ;
#662 = CARTESIAN_POINT ( 'NONE',  ( -2.694224104006408105, 0.0000000000000000000, 0.06089637399097073966 ) ) ;
#663 = DIRECTION ( 'NONE',  ( 0.0000000000000000000, 1.000000000000000000, 0.0000000000000000000 ) ) ;
#664 = STYLED_ITEM ( 'NONE', ( #978 ), #498 ) ;
#665 = COLOUR_RGB ( '',0.6274509803921568540, 0.6274509803921568540, 0.6274509803921568540 ) ;
#666 = CARTESIAN_POINT ( 'NONE',  ( -2.000000000000000000, 0.0000000000000000000, 0.8299999999999999600 ) ) ;
#667 = LINE ( 'NONE', #907, #418 ) ;
#668 = PLANE ( 'NONE',  #717 ) ;
#669 = VECTOR ( 'NONE', #600, 1000.000000000000000 ) ;
#670 = EDGE_LOOP ( 'NONE', ( #394, #13, #847, #1036 ) ) ;
#671 = VERTEX_POINT ( 'NONE', #731 ) ;
#672 = CARTESIAN_POINT ( 'NONE',  ( -3.137061325481599994, 5.200000000000000178, 0.3300000000000000155 ) ) ;
#673 = EDGE_CURVE ( 'NONE', #680, #628, #92, .T. ) ;
#674 = DIRECTION ( 'NONE',  ( 0.0000000000000000000, 1.000000000000000000, 0.0000000000000000000 ) ) ;
#675 = AXIS2_PLACEMENT_3D ( 'NONE', #958, #399, #1168 ) ;
#676 = CARTESIAN_POINT ( 'NONE',  ( -1.191045262974199659, 0.0000000000000000000, 0.8300000000000002931 ) ) ;
#677 = DIRECTION ( 'NONE',  ( 0.0000000000000000000, 1.000000000000000000, 0.0000000000000000000 ) ) ;
#678 = LINE ( 'NONE', #471, #203 ) ;
#679 = CARTESIAN_POINT ( 'NONE',  ( -2.000000000000000000, 5.200000000000000178, 0.8299999999999999600 ) ) ;
#680 = VERTEX_POINT ( 'NONE', #176 ) ;
#681 = CARTESIAN_POINT ( 'NONE',  ( 2.000000000000000000, 5.200000000000000178, 0.8299999999999999600 ) ) ;
#682 = ORIENTED_EDGE ( 'NONE', *, *, #6, .T. ) ;
#683 = ORIENTED_EDGE ( 'NONE', *, *, #686, .F. ) ;
#684 = CARTESIAN_POINT ( 'NONE',  ( -2.434685424949239785, 5.200000000000000178, 0.2343145750507620029 ) ) ;
#685 = ORIENTED_EDGE ( 'NONE', *, *, #482, .F. ) ;
#686 = EDGE_CURVE ( 'NONE', #170, #181, #1102, .T. ) ;
#687 = ORIENTED_EDGE ( 'NONE', *, *, #421, .T. ) ;
#688 = FILL_AREA_STYLE ('',( #43 ) ) ;
#689 = CARTESIAN_POINT ( 'NONE',  ( -2.381923245252319798, 5.200000000000000178, 0.2870767547476810178 ) ) ;
#690 = CARTESIAN_POINT ( 'NONE',  ( 2.805690475583119792, 0.0000000000000000000, 0.3300000000000000155 ) ) ;
#691 = FACE_OUTER_BOUND ( 'NONE', #395, .T. ) ;
#692 = DIRECTION ( 'NONE',  ( -1.000000000000000000, 0.0000000000000000000, 0.0000000000000000000 ) ) ;
#693 = LINE ( 'NONE', #536, #867 ) ;
#694 = LINE ( 'NONE', #456, #1166 ) ;
#695 = CARTESIAN_POINT ( 'NONE',  ( -2.000000000000000000, 0.0000000000000000000, 0.5000000000000000000 ) ) ;
#696 = ORIENTED_EDGE ( 'NONE', *, *, #361, .T. ) ;
#697 = ORIENTED_EDGE ( 'NONE', *, *, #748, .T. ) ;
#698 = VERTEX_POINT ( 'NONE', #370 ) ;
#699 = DIRECTION ( 'NONE',  ( 0.0000000000000000000, -1.000000000000000000, 0.0000000000000000000 ) ) ;
#700 = DIRECTION ( 'NONE',  ( 0.0000000000000000000, 1.000000000000000000, 0.0000000000000000000 ) ) ;
#701 = CARTESIAN_POINT ( 'NONE',  ( -1.191045262974199659, 0.4605019796031228907, -0.001000000000000241147 ) ) ;
#702 = LINE ( 'NONE', #1183, #8 ) ;
#703 = CARTESIAN_POINT ( 'NONE',  ( -5.000000000000000000, 0.0000000000000000000, 3.469446951953609875E-17 ) ) ;
#704 = VECTOR ( 'NONE', #758, 1000.000000000000000 ) ;
#705 = EDGE_CURVE ( 'NONE', #252, #781, #594, .T. ) ;
#706 = UNCERTAINTY_MEASURE_WITH_UNIT (LENGTH_MEASURE( 1.000000000000000082E-05 ), #171, 'distance_accuracy_value', 'NONE');
#707 = CYLINDRICAL_SURFACE ( 'NONE', #410, 0.8000000000000003775 ) ;
#708 = CARTESIAN_POINT ( 'NONE',  ( -2.000000000000000000, 0.0000000000000000000, 0.7475000000000000533 ) ) ;
#709 = LINE ( 'NONE', #274, #352 ) ;
#710 = AXIS2_PLACEMENT_3D ( 'NONE', #783, #871, #1070 ) ;
#711 = ORIENTED_EDGE ( 'NONE', *, *, #1208, .F. ) ;
#712 = ADVANCED_FACE ( 'NONE', ( #232 ), #4, .F. ) ;
#713 = DIRECTION ( 'NONE',  ( 0.03263306829909608242, 0.0000000000000000000, 0.9994673995950976719 ) ) ;
#714 = VERTEX_POINT ( 'NONE', #1214 ) ;
#715 = ORIENTED_EDGE ( 'NONE', *, *, #1040, .F. ) ;
#716 = EDGE_LOOP ( 'NONE', ( #1108, #488, #168, #196, #1158, #98, #687, #861 ) ) ;
#717 = AXIS2_PLACEMENT_3D ( 'NONE', #131, #397, #119 ) ;
#718 = ADVANCED_FACE ( 'NONE', ( #1054 ), #94, .T. ) ;
#719 = DIRECTION ( 'NONE',  ( -0.03263306829909608242, 0.0000000000000000000, 0.9994673995950976719 ) ) ;
#720 = DIRECTION ( 'NONE',  ( 0.0000000000000000000, 0.0000000000000000000, -1.000000000000000000 ) ) ;
#721 = FACE_OUTER_BOUND ( 'NONE', #197, .T. ) ;
#722 = CARTESIAN_POINT ( 'NONE',  ( 5.000000000000000000, 5.200000000000000178, 0.0000000000000000000 ) ) ;
#723 = LINE ( 'NONE', #772, #793 ) ;
#724 = AXIS2_PLACEMENT_3D ( 'NONE', #703, #162, #430 ) ;
#725 = ORIENTED_EDGE ( 'NONE', *, *, #378, .F. ) ;
#726 = CARTESIAN_POINT ( 'NONE',  ( 2.434685424949239785, 0.0000000000000000000, 0.2343145750507620029 ) ) ;
#727 = ORIENTED_EDGE ( 'NONE', *, *, #980, .T. ) ;
#728 = CARTESIAN_POINT ( 'NONE',  ( -3.137061325481599994, 0.0000000000000000000, 1.129999999999999893 ) ) ;
#729 = ORIENTED_EDGE ( 'NONE', *, *, #627, .T. ) ;
#730 = ORIENTED_EDGE ( 'NONE', *, *, #1035, .T. ) ;
#731 = CARTESIAN_POINT ( 'NONE',  ( -2.000000000000000000, 5.200000000000000178, 0.5000000000000000000 ) ) ;
#732 = ADVANCED_FACE ( 'NONE', ( #381 ), #739, .T. ) ;
#733 = CARTESIAN_POINT ( 'NONE',  ( -1.973893545360720037, 0.0000000000000000000, 0.03042608032392180029 ) ) ;
#734 = EDGE_CURVE ( 'NONE', #25, #386, #915, .T. ) ;
#735 = AXIS2_PLACEMENT_3D ( 'NONE', #701, #226, #233 ) ;
#736 = DIRECTION ( 'NONE',  ( 0.3826834323650901148, 0.0000000000000000000, -0.9238795325112865164 ) ) ;
#737 = SURFACE_STYLE_FILL_AREA ( #993 ) ;
#738 = SURFACE_STYLE_FILL_AREA ( #514 ) ;
#739 = PLANE ( 'NONE',  #822 ) ;
#740 = CIRCLE ( 'NONE', #1050, 0.8000000000000003775 ) ;
#741 = DIRECTION ( 'NONE',  ( -0.7071067811865480168, 0.0000000000000000000, 0.7071067811865470176 ) ) ;
#742 = ORIENTED_EDGE ( 'NONE', *, *, #361, .F. ) ;
#743 = EDGE_LOOP ( 'NONE', ( #357, #295, #503, #220 ) ) ;
#744 = VERTEX_POINT ( 'NONE', #1115 ) ;
#745 = CARTESIAN_POINT ( 'NONE',  ( -2.830914579589527857, 5.200000000000000178, 0.3908963739909706581 ) ) ;
#746 = ORIENTED_EDGE ( 'NONE', *, *, #1208, .T. ) ;
#747 = DIRECTION ( 'NONE',  ( -0.3826834323650901148, 0.0000000000000000000, -0.9238795325112865164 ) ) ;
#748 = EDGE_CURVE ( 'NONE', #113, #862, #667, .T. ) ;
#749 = CARTESIAN_POINT ( 'NONE',  ( 2.000000000000000000, 5.200000000000000178, 0.8299999999999999600 ) ) ;
#750 = LINE ( 'NONE', #971, #622 ) ;
#751 = CARTESIAN_POINT ( 'NONE',  ( -3.137061325481599994, 0.0000000000000000000, 0.3300000000000000155 ) ) ;
#752 = VERTEX_POINT ( 'NONE', #356 ) ;
#753 = CARTESIAN_POINT ( 'NONE',  ( 2.669000000000000039, 0.0000000000000000000, 0.0000000000000000000 ) ) ;
#754 = VERTEX_POINT ( 'NONE', #446 ) ;
#755 = VERTEX_POINT ( 'NONE', #1111 ) ;
#756 = CARTESIAN_POINT ( 'NONE',  ( 2.694224104006408105, 0.0000000000000000000, 0.06089637399097073966 ) ) ;
#757 = CARTESIAN_POINT ( 'NONE',  ( -3.000370849898480241, 0.0000000000000000000, 0.8000000000000000444 ) ) ;
#758 = DIRECTION ( 'NONE',  ( 1.000000000000000000, 0.0000000000000000000, 0.0000000000000000000 ) ) ;
#759 = DIRECTION ( 'NONE',  ( -1.488394230782329904E-17, 0.0000000000000000000, -1.000000000000000000 ) ) ;
#760 = AXIS2_PLACEMENT_3D ( 'NONE', #490, #122, #944 ) ;
#761 = CARTESIAN_POINT ( 'NONE',  ( 3.137061325481599994, 0.0000000000000000000, 0.3300000000000000155 ) ) ;
#762 = VECTOR ( 'NONE', #1053, 1000.000000000000000 ) ;
#763 = VECTOR ( 'NONE', #590, 1000.000000000000000 ) ;
#764 = LINE ( 'NONE', #167, #1058 ) ;
#765 = ORIENTED_EDGE ( 'NONE', *, *, #97, .F. ) ;
#766 = ORIENTED_EDGE ( 'NONE', *, *, #47, .F. ) ;
#767 = EDGE_CURVE ( 'NONE', #680, #130, #642, .T. ) ;
#768 = CARTESIAN_POINT ( 'NONE',  ( -2.000000000000000000, 5.200000000000000178, 0.5000000000000000000 ) ) ;
#769 = ORIENTED_EDGE ( 'NONE', *, *, #44, .T. ) ;
#770 = AXIS2_PLACEMENT_3D ( 'NONE', #655, #290, #117 ) ;
#771 = ORIENTED_EDGE ( 'NONE', *, *, #1164, .F. ) ;
#772 = CARTESIAN_POINT ( 'NONE',  ( 2.000000000000000000, 5.200000000000000178, 0.5000000000000000000 ) ) ;
#773 =( NAMED_UNIT ( * ) PLANE_ANGLE_UNIT ( ) SI_UNIT ( $, .RADIAN. ) );
#774 = CARTESIAN_POINT ( 'NONE',  ( -2.000000000000000000, 0.0000000000000000000, 0.8299999999999999600 ) ) ;
#775 = AXIS2_PLACEMENT_3D ( 'NONE', #836, #663, #1127 ) ;
#776 = VECTOR ( 'NONE', #1066, 1000.000000000000000 ) ;
#777 = VECTOR ( 'NONE', #7, 1000.000000000000000 ) ;
#778 =( LENGTH_UNIT ( ) NAMED_UNIT ( * ) SI_UNIT ( .MILLI., .METRE. ) );
#779 = LINE ( 'NONE', #146, #669 ) ;
#780 = CARTESIAN_POINT ( 'NONE',  ( -3.000370849898480241, 5.200000000000000178, 0.8000000000000000444 ) ) ;
#781 = VERTEX_POINT ( 'NONE', #745 ) ;
#782 = VERTEX_POINT ( 'NONE', #842 ) ;
#783 = CARTESIAN_POINT ( 'NONE',  ( -2.169000000000000039, 0.0000000000000000000, 0.5000000000000000000 ) ) ;
#784 = EDGE_LOOP ( 'NONE', ( #211, #987, #766, #294 ) ) ;
#785 = PRESENTATION_LAYER_ASSIGNMENT (  '', '', ( #664 ) ) ;
#786 = ORIENTED_EDGE ( 'NONE', *, *, #275, .T. ) ;
#787 = CARTESIAN_POINT ( 'NONE',  ( 2.000000000000000000, 5.200000000000000178, 0.5000000000000000000 ) ) ;
#788 = EDGE_CURVE ( 'NONE', #435, #698, #791, .T. ) ;
#789 = CIRCLE ( 'NONE', #652, 0.8000000000000003775 ) ;
#790 = DIRECTION ( 'NONE',  ( 8.410780489584519664E-16, 0.0000000000000000000, 1.000000000000000000 ) ) ;
#791 = LINE ( 'NONE', #1, #1085 ) ;
#792 = AXIS2_PLACEMENT_3D ( 'NONE', #1187, #603, #142 ) ;
#793 = VECTOR ( 'NONE', #985, 1000.000000000000000 ) ;
#794 = CIRCLE ( 'NONE', #128, 0.7999999999999997113 ) ;
#795 = ADVANCED_FACE ( 'NONE', ( #178 ), #198, .F. ) ;
#796 = CARTESIAN_POINT ( 'NONE',  ( 1.973893545360720037, 0.0000000000000000000, 0.03042608032392180029 ) ) ;
#797 = ORIENTED_EDGE ( 'NONE', *, *, #56, .F. ) ;
#798 = VERTEX_POINT ( 'NONE', #943 ) ;
#799 = ORIENTED_EDGE ( 'NONE', *, *, #980, .F. ) ;
#800 =( NAMED_UNIT ( * ) SI_UNIT ( $, .STERADIAN. ) SOLID_ANGLE_UNIT ( ) );
#801 = AXIS2_PLACEMENT_3D ( 'NONE', #548, #806, #271 ) ;
#802 = CARTESIAN_POINT ( 'NONE',  ( 5.000000000000000000, 0.0000000000000000000, 0.3300000000000000155 ) ) ;
#803 = ADVANCED_FACE ( 'NONE', ( #1148 ), #939, .T. ) ;
#804 = DIRECTION ( 'NONE',  ( 0.0000000000000000000, 0.0000000000000000000, 1.000000000000000000 ) ) ;
#805 = PLANE ( 'NONE',  #423 ) ;
#806 = DIRECTION ( 'NONE',  ( -0.0000000000000000000, -0.0000000000000000000, 1.000000000000000000 ) ) ;
#807 = FACE_OUTER_BOUND ( 'NONE', #1156, .T. ) ;
#808 = ADVANCED_FACE ( 'NONE', ( #1117 ), #577, .F. ) ;
#809 = EDGE_CURVE ( 'NONE', #817, #1185, #896, .T. ) ;
#810 = VECTOR ( 'NONE', #363, 1000.000000000000000 ) ;
#811 = DIRECTION ( 'NONE',  ( 0.0000000000000000000, 1.000000000000000000, 0.0000000000000000000 ) ) ;
#812 = CIRCLE ( 'NONE', #886, 0.8000000000000003775 ) ;
#813 = CARTESIAN_POINT ( 'NONE',  ( 2.305690475583119792, 0.0000000000000000000, 0.8299999999999999600 ) ) ;
#814 = VERTEX_POINT ( 'NONE', #756 ) ;
#815 =( NAMED_UNIT ( * ) PLANE_ANGLE_UNIT ( ) SI_UNIT ( $, .RADIAN. ) );
#816 = ORIENTED_EDGE ( 'NONE', *, *, #857, .F. ) ;
#817 = VERTEX_POINT ( 'NONE', #288 ) ;
#818 = CARTESIAN_POINT ( 'NONE',  ( 3.137061325481599994, 0.0000000000000000000, 0.3300000000000000155 ) ) ;
#819 = ORIENTED_EDGE ( 'NONE', *, *, #734, .T. ) ;
#820 = DIRECTION ( 'NONE',  ( 0.0000000000000000000, 1.000000000000000000, 0.0000000000000000000 ) ) ;
#821 = EDGE_CURVE ( 'NONE', #140, #981, #1041, .T. ) ;
#822 = AXIS2_PLACEMENT_3D ( 'NONE', #823, #1021, #1019 ) ;
#823 = CARTESIAN_POINT ( 'NONE',  ( -5.000000000000000000, 0.0000000000000000000, 0.3300000000000000155 ) ) ;
#824 = CARTESIAN_POINT ( 'NONE',  ( 1.191045262974199437, 0.4605019796031228907, 0.8299999999999999600 ) ) ;
#825 = ADVANCED_FACE ( 'NONE', ( #721 ), #404, .F. ) ;
#826 = PLANE ( 'NONE',  #160 ) ;
#827 = CIRCLE ( 'NONE', #951, 0.7999999999999997113 ) ;
#828 = VECTOR ( 'NONE', #502, 1000.000000000000000 ) ;
#829 = EDGE_CURVE ( 'NONE', #601, #714, #191, .T. ) ;
#830 = CYLINDRICAL_SURFACE ( 'NONE', #658, 0.8000000000000003775 ) ;
#831 = DIRECTION ( 'NONE',  ( 0.0000000000000000000, -1.000000000000000000, 0.0000000000000000000 ) ) ;
#832 = ORIENTED_EDGE ( 'NONE', *, *, #309, .T. ) ;
#833 = CARTESIAN_POINT ( 'NONE',  ( 1.191045262974199659, 0.0000000000000000000, 0.5000000000000000000 ) ) ;
#834 = ORIENTED_EDGE ( 'NONE', *, *, #316, .T. ) ;
#835 = ORIENTED_EDGE ( 'NONE', *, *, #892, .F. ) ;
#836 = CARTESIAN_POINT ( 'NONE',  ( 3.137061325481599994, 0.0000000000000000000, 1.129999999999999893 ) ) ;
#837 = ORIENTED_EDGE ( 'NONE', *, *, #673, .T. ) ;
#838 = EDGE_CURVE ( 'NONE', #170, #1000, #1101, .T. ) ;
#839 = DIRECTION ( 'NONE',  ( 0.0000000000000000000, 1.000000000000000000, 0.0000000000000000000 ) ) ;
#840 = DIRECTION ( 'NONE',  ( -0.3826834323650901148, 0.0000000000000000000, -0.9238795325112865164 ) ) ;
#841 = LINE ( 'NONE', #406, #231 ) ;
#842 = CARTESIAN_POINT ( 'NONE',  ( 2.000000000000000000, 5.200000000000000178, 0.5000000000000000000 ) ) ;
#843 = VECTOR ( 'NONE', #700, 1000.000000000000000 ) ;
#844 = DIRECTION ( 'NONE',  ( -0.3826834323650901148, 0.0000000000000000000, -0.9238795325112865164 ) ) ;
#845 = LINE ( 'NONE', #641, #68 ) ;
#846 = EDGE_LOOP ( 'NONE', ( #558, #697, #501, #835 ) ) ;
#847 = ORIENTED_EDGE ( 'NONE', *, *, #463, .F. ) ;
#848 = ORIENTED_EDGE ( 'NONE', *, *, #179, .T. ) ;
#849 = DIRECTION ( 'NONE',  ( 1.000000000000000000, 0.0000000000000000000, 0.0000000000000000000 ) ) ;
#850 = DIRECTION ( 'NONE',  ( 0.0000000000000000000, -1.000000000000000000, 0.0000000000000000000 ) ) ;
#851 = CARTESIAN_POINT ( 'NONE',  ( -2.000000000000000000, 5.200000000000000178, 0.8299999999999999600 ) ) ;
#852 = DIRECTION ( 'NONE',  ( -0.0000000000000000000, -0.0000000000000000000, 1.000000000000000000 ) ) ;
#853 = CIRCLE ( 'NONE', #967, 0.8000000000000003775 ) ;
#854 = CARTESIAN_POINT ( 'NONE',  ( 2.000000000000000000, 0.0000000000000000000, 0.5000000000000000000 ) ) ;
#855 = FACE_OUTER_BOUND ( 'NONE', #670, .T. ) ;
#856 = VECTOR ( 'NONE', #185, 1000.000000000000000 ) ;
#857 = EDGE_CURVE ( 'NONE', #25, #862, #319, .T. ) ;
#858 = PLANE ( 'NONE',  #931 ) ;
#859 = ORIENTED_EDGE ( 'NONE', *, *, #1164, .T. ) ;
#860 = CARTESIAN_POINT ( 'NONE',  ( 1.191045262974199659, 0.0000000000000000000, -0.001000000000000241147 ) ) ;
#861 = ORIENTED_EDGE ( 'NONE', *, *, #1006, .T. ) ;
#862 = VERTEX_POINT ( 'NONE', #749 ) ;
#863 = CARTESIAN_POINT ( 'NONE',  ( 2.381923245252319798, 0.0000000000000000000, 0.2870767547476810178 ) ) ;
#864 = AXIS2_PLACEMENT_3D ( 'NONE', #462, #650, #849 ) ;
#865 = LINE ( 'NONE', #863, #32 ) ;
#866 = CARTESIAN_POINT ( 'NONE',  ( 2.000000000000000000, 0.0000000000000000000, 0.8299999999999999600 ) ) ;
#867 = VECTOR ( 'NONE', #348, 1000.000000000000000 ) ;
#868 = VECTOR ( 'NONE', #1029, 1000.000000000000000 ) ;
#869 = EDGE_CURVE ( 'NONE', #1200, #966, #480, .T. ) ;
#870 = ORIENTED_EDGE ( 'NONE', *, *, #14, .T. ) ;
#871 = DIRECTION ( 'NONE',  ( 0.7071067811865470176, 0.0000000000000000000, -0.7071067811865480168 ) ) ;
#872 = EDGE_LOOP ( 'NONE', ( #1169, #398, #887, #870 ) ) ;
#873 = EDGE_CURVE ( 'NONE', #571, #986, #678, .T. ) ;
#874 = ORIENTED_EDGE ( 'NONE', *, *, #74, .F. ) ;
#875 = DIRECTION ( 'NONE',  ( -0.0000000000000000000, -0.0000000000000000000, 1.000000000000000000 ) ) ;
#876 = DIRECTION ( 'NONE',  ( 0.0000000000000000000, 0.0000000000000000000, 1.000000000000000000 ) ) ;
#877 = DIRECTION ( 'NONE',  ( 0.0000000000000000000, 0.0000000000000000000, -1.000000000000000000 ) ) ;
#878 = CARTESIAN_POINT ( 'NONE',  ( 2.571375900532360426, 5.200000000000000178, 0.5643145750507619907 ) ) ;
#879 = AXIS2_PLACEMENT_3D ( 'NONE', #1209, #453, #272 ) ;
#880 = COLOUR_RGB ( '',0.7529411764705882248, 0.7529411764705882248, 0.7529411764705882248 ) ;
#881 = DIRECTION ( 'NONE',  ( 1.000000000000000000, 0.0000000000000000000, -1.387778780781449866E-16 ) ) ;
#882 = FACE_OUTER_BOUND ( 'NONE', #323, .T. ) ;
#883 = VECTOR ( 'NONE', #1015, 1000.000000000000000 ) ;
#884 = EDGE_LOOP ( 'NONE', ( #199, #70, #599, #237, #169, #213, #73, #631 ) ) ;
#885 = EDGE_LOOP ( 'NONE', ( #659, #727, #312, #956 ) ) ;
#886 = AXIS2_PLACEMENT_3D ( 'NONE', #494, #391, #208 ) ;
#887 = ORIENTED_EDGE ( 'NONE', *, *, #230, .T. ) ;
#888 = CARTESIAN_POINT ( 'NONE',  ( -1.000000000000000000, 0.0000000000000000000, 0.5000000000000000000 ) ) ;
#889 = ADVANCED_FACE ( 'NONE', ( #807 ), #592, .T. ) ;
#890 = PLANE ( 'NONE',  #99 ) ;
#891 = ADVANCED_FACE ( 'NONE', ( #894 ), #1192, .F. ) ;
#892 = EDGE_CURVE ( 'NONE', #143, #102, #9, .T. ) ;
#893 = DIRECTION ( 'NONE',  ( 0.3826834323650901148, 0.0000000000000000000, -0.9238795325112865164 ) ) ;
#894 = FACE_OUTER_BOUND ( 'NONE', #457, .T. ) ;
#895 = AXIS2_PLACEMENT_3D ( 'NONE', #633, #257, #637 ) ;
#896 = LINE ( 'NONE', #666, #320 ) ;
#897 = LINE ( 'NONE', #59, #124 ) ;
#898 = ORIENTED_EDGE ( 'NONE', *, *, #972, .F. ) ;
#899 = DIRECTION ( 'NONE',  ( 1.000000000000000000, 0.0000000000000000000, 0.0000000000000000000 ) ) ;
#900 = VERTEX_POINT ( 'NONE', #15 ) ;
#901 = DIRECTION ( 'NONE',  ( 1.000000000000000000, -0.0000000000000000000, 0.0000000000000000000 ) ) ;
#902 = ORIENTED_EDGE ( 'NONE', *, *, #1055, .F. ) ;
#903 = EDGE_CURVE ( 'NONE', #601, #754, #273, .T. ) ;
#904 = UNCERTAINTY_MEASURE_WITH_UNIT (LENGTH_MEASURE( 1.000000000000000082E-05 ), #1107, 'distance_accuracy_value', 'NONE');
#905 = DIRECTION ( 'NONE',  ( 0.0000000000000000000, -1.000000000000000000, 0.0000000000000000000 ) ) ;
#906 = STYLED_ITEM ( 'NONE', ( #1086 ), #245 ) ;
#907 = CARTESIAN_POINT ( 'NONE',  ( 2.000000000000000000, 0.0000000000000000000, 0.8299999999999999600 ) ) ;
#908 = PLANE ( 'NONE',  #190 ) ;
#909 = ADVANCED_FACE ( 'NONE', ( #1211 ), #1008, .T. ) ;
#910 = FILL_AREA_STYLE_COLOUR ( '', #880 ) ;
#911 = DIRECTION ( 'NONE',  ( 1.000000000000000000, 0.0000000000000000000, 0.0000000000000000000 ) ) ;
#912 = CARTESIAN_POINT ( 'NONE',  ( 2.000000000000000000, 5.200000000000000178, 0.5000000000000000000 ) ) ;
#913 = LINE ( 'NONE', #212, #762 ) ;
#914 = AXIS2_PLACEMENT_3D ( 'NONE', #854, #29, #1056 ) ;
#915 = LINE ( 'NONE', #557, #777 ) ;
#916 = CYLINDRICAL_SURFACE ( 'NONE', #1037, 0.7999999999999997113 ) ;
#917 = DIRECTION ( 'NONE',  ( -0.3826834323650901148, 0.0000000000000000000, -0.9238795325112865164 ) ) ;
#918 = LINE ( 'NONE', #307, #205 ) ;
#919 = CYLINDRICAL_SURFACE ( 'NONE', #618, 0.8000000000000003775 ) ;
#920 = ORIENTED_EDGE ( 'NONE', *, *, #989, .F. ) ;
#921 = EDGE_LOOP ( 'NONE', ( #126, #425, #742, #615 ) ) ;
#922 = CARTESIAN_POINT ( 'NONE',  ( 3.440706435731669899, 0.0000000000000000000, 0.2718526729819650267 ) ) ;
#923 = VERTEX_POINT ( 'NONE', #589 ) ;
#924 = CARTESIAN_POINT ( 'NONE',  ( 2.000000000000000000, 0.0000000000000000000, 0.5000000000000000000 ) ) ;
#925 = EDGE_CURVE ( 'NONE', #1012, #140, #841, .T. ) ;
#926 = DIRECTION ( 'NONE',  ( 0.7071067811865480168, 0.0000000000000000000, 0.7071067811865470176 ) ) ;
#927 = CARTESIAN_POINT ( 'NONE',  ( 1.973893545360720037, 5.200000000000000178, 0.03042608032392180029 ) ) ;
#928 = FACE_OUTER_BOUND ( 'NONE', #646, .T. ) ;
#929 = DIRECTION ( 'NONE',  ( 0.0000000000000000000, -1.000000000000000000, 0.0000000000000000000 ) ) ;
#930 = FACE_OUTER_BOUND ( 'NONE', #921, .T. ) ;
#931 = AXIS2_PLACEMENT_3D ( 'NONE', #581, #204, #677 ) ;
#932 = CIRCLE ( 'NONE', #560, 0.8000000000000003775 ) ;
#933 = CARTESIAN_POINT ( 'NONE',  ( 5.000000000000000000, 0.0000000000000000000, 0.3300000000000000155 ) ) ;
#934 = ORIENTED_EDGE ( 'NONE', *, *, #1006, .F. ) ;
#935 = CARTESIAN_POINT ( 'NONE',  ( 2.571375900532360426, 0.0000000000000000000, 0.5643145750507619907 ) ) ;
#936 = ORIENTED_EDGE ( 'NONE', *, *, #564, .T. ) ;
#937 = VERTEX_POINT ( 'NONE', #672 ) ;
#938 = EDGE_CURVE ( 'NONE', #671, #1033, #164, .T. ) ;
#939 = PLANE ( 'NONE',  #529 ) ;
#940 = ORIENTED_EDGE ( 'NONE', *, *, #948, .F. ) ;
#941 = DIRECTION ( 'NONE',  ( 0.0000000000000000000, 1.000000000000000000, 0.0000000000000000000 ) ) ;
#942 = EDGE_CURVE ( 'NONE', #628, #597, #349, .T. ) ;
#943 = CARTESIAN_POINT ( 'NONE',  ( 1.191045262974199659, 0.0000000000000000000, 0.8299999999999999600 ) ) ;
#944 = DIRECTION ( 'NONE',  ( -0.3826834323650901148, 0.0000000000000000000, -0.9238795325112865164 ) ) ;
#945 = CYLINDRICAL_SURFACE ( 'NONE', #448, 0.8000000000000003775 ) ;
#946 = UNCERTAINTY_MEASURE_WITH_UNIT (LENGTH_MEASURE( 1.000000000000000082E-05 ), #1202, 'distance_accuracy_value', 'NONE');
#947 = CYLINDRICAL_SURFACE ( 'NONE', #58, 0.8000000000000003775 ) ;
#948 = EDGE_CURVE ( 'NONE', #744, #571, #565, .T. ) ;
#949 = LINE ( 'NONE', #1175, #763 ) ;
#950 = VECTOR ( 'NONE', #1009, 1000.000000000000000 ) ;
#951 = AXIS2_PLACEMENT_3D ( 'NONE', #1096, #528, #609 ) ;
#952 = ORIENTED_EDGE ( 'NONE', *, *, #224, .T. ) ;
#953 = DIRECTION ( 'NONE',  ( 0.0000000000000000000, 1.000000000000000000, 0.0000000000000000000 ) ) ;
#954 = ORIENTED_EDGE ( 'NONE', *, *, #293, .T. ) ;
#955 = DIRECTION ( 'NONE',  ( -0.0000000000000000000, -0.0000000000000000000, 1.000000000000000000 ) ) ;
#956 = ORIENTED_EDGE ( 'NONE', *, *, #44, .F. ) ;
#957 = DIRECTION ( 'NONE',  ( -1.000000000000000000, 0.0000000000000000000, 0.0000000000000000000 ) ) ;
#958 = CARTESIAN_POINT ( 'NONE',  ( 2.000000000000000000, 5.200000000000000178, 0.8299999999999999600 ) ) ;
#959 = VECTOR ( 'NONE', #1179, 1000.000000000000000 ) ;
#960 = PRESENTATION_STYLE_ASSIGNMENT (( #416 ) ) ;
#961 = CIRCLE ( 'NONE', #999, 0.8000000000000003775 ) ;
#962 = ADVANCED_FACE ( 'NONE', ( #691 ), #945, .F. ) ;
#963 = CARTESIAN_POINT ( 'NONE',  ( 2.805690475583119792, 0.0000000000000000000, 0.3300000000000000155 ) ) ;
#964 = VECTOR ( 'NONE', #467, 1000.000000000000000 ) ;
#965 = EDGE_CURVE ( 'NONE', #374, #1014, #77, .T. ) ;
#966 = VERTEX_POINT ( 'NONE', #28 ) ;
#967 = AXIS2_PLACEMENT_3D ( 'NONE', #796, #261, #713 ) ;
#968 = ORIENTED_EDGE ( 'NONE', *, *, #948, .T. ) ;
#969 = CARTESIAN_POINT ( 'NONE',  ( 1.191045262974199437, 0.4605019796031228907, 0.5000000000000000000 ) ) ;
#970 = ORIENTED_EDGE ( 'NONE', *, *, #66, .F. ) ;
#971 = CARTESIAN_POINT ( 'NONE',  ( 1.000000000000000000, 0.0000000000000000000, 0.8299999999999999600 ) ) ;
#972 = EDGE_CURVE ( 'NONE', #611, #254, #865, .T. ) ;
#973 = CARTESIAN_POINT ( 'NONE',  ( -3.137061325481599994, 5.200000000000000178, 1.129999999999999893 ) ) ;
#974 = PRESENTATION_LAYER_ASSIGNMENT (  '', '', ( #906 ) ) ;
#975 = CARTESIAN_POINT ( 'NONE',  ( 0.0000000000000000000, 0.0000000000000000000, 0.6650000000000000355 ) ) ;
#976 = VECTOR ( 'NONE', #35, 1000.000000000000000 ) ;
#977 = CARTESIAN_POINT ( 'NONE',  ( 1.973893545360720037, 0.0000000000000000000, 0.03042608032392180029 ) ) ;
#978 = PRESENTATION_STYLE_ASSIGNMENT (( #332 ) ) ;
#979 = LINE ( 'NONE', #481, #234 ) ;
#980 = EDGE_CURVE ( 'NONE', #628, #601, #431, .T. ) ;
#981 = VERTEX_POINT ( 'NONE', #402 ) ;
#982 =( NAMED_UNIT ( * ) SI_UNIT ( $, .STERADIAN. ) SOLID_ANGLE_UNIT ( ) );
#983 = ORIENTED_EDGE ( 'NONE', *, *, #873, .F. ) ;
#984 = MECHANICAL_DESIGN_GEOMETRIC_PRESENTATION_REPRESENTATION (  '', ( #664 ), #1114 ) ;
#985 = DIRECTION ( 'NONE',  ( -1.000000000000000000, 0.0000000000000000000, 0.0000000000000000000 ) ) ;
#986 = VERTEX_POINT ( 'NONE', #579 ) ;
#987 = ORIENTED_EDGE ( 'NONE', *, *, #1072, .T. ) ;
#988 = FILL_AREA_STYLE_COLOUR ( '', #333 ) ;
#989 = EDGE_CURVE ( 'NONE', #966, #1142, #1129, .T. ) ;
#990 = PRESENTATION_LAYER_ASSIGNMENT (  '', '', ( #588 ) ) ;
#991 = FACE_OUTER_BOUND ( 'NONE', #339, .T. ) ;
#992 = VECTOR ( 'NONE', #311, 1000.000000000000000 ) ;
#993 = FILL_AREA_STYLE ('',( #910 ) ) ;
#994 = CIRCLE ( 'NONE', #760, 0.8000000000000003775 ) ;
#995 =( NAMED_UNIT ( * ) PLANE_ANGLE_UNIT ( ) SI_UNIT ( $, .RADIAN. ) );
#996 = LINE ( 'NONE', #722, #883 ) ;
#997 = ORIENTED_EDGE ( 'NONE', *, *, #110, .F. ) ;
#998 = VERTEX_POINT ( 'NONE', #1157 ) ;
#999 = AXIS2_PLACEMENT_3D ( 'NONE', #973, #139, #593 ) ;
#1000 = VERTEX_POINT ( 'NONE', #315 ) ;
#1001 =( NAMED_UNIT ( * ) SI_UNIT ( $, .STERADIAN. ) SOLID_ANGLE_UNIT ( ) );
#1002 = VERTEX_POINT ( 'NONE', #684 ) ;
#1003 = CARTESIAN_POINT ( 'NONE',  ( 3.137061325481599994, 5.200000000000000178, 1.129999999999999893 ) ) ;
#1004 = EDGE_CURVE ( 'NONE', #900, #1142, #913, .T. ) ;
#1005 = PRODUCT_CONTEXT ( 'NONE', #617, 'mechanical' ) ;
#1006 = EDGE_CURVE ( 'NONE', #411, #752, #260, .T. ) ;
#1007 = DIRECTION ( 'NONE',  ( 0.0000000000000000000, 1.000000000000000000, 0.0000000000000000000 ) ) ;
#1008 = CYLINDRICAL_SURFACE ( 'NONE', #550, 0.8000000000000003775 ) ;
#1009 = DIRECTION ( 'NONE',  ( 0.0000000000000000000, -1.000000000000000000, 0.0000000000000000000 ) ) ;
#1010 = SURFACE_STYLE_FILL_AREA ( #688 ) ;
#1011 =( NAMED_UNIT ( * ) PLANE_ANGLE_UNIT ( ) SI_UNIT ( $, .RADIAN. ) );
#1012 = VERTEX_POINT ( 'NONE', #969 ) ;
#1013 = DIRECTION ( 'NONE',  ( 0.7071067811865470176, 0.0000000000000000000, 0.7071067811865480168 ) ) ;
#1014 = VERTEX_POINT ( 'NONE', #676 ) ;
#1015 = DIRECTION ( 'NONE',  ( -1.000000000000000000, 0.0000000000000000000, 0.0000000000000000000 ) ) ;
#1016 = ORIENTED_EDGE ( 'NONE', *, *, #607, .F. ) ;
#1017 = ADVANCED_FACE ( 'NONE', ( #538 ), #1064, .T. ) ;
#1018 = AXIS2_PLACEMENT_3D ( 'NONE', #11, #850, #296 ) ;
#1019 = DIRECTION ( 'NONE',  ( 1.000000000000000000, 0.0000000000000000000, 0.0000000000000000000 ) ) ;
#1020 = CARTESIAN_POINT ( 'NONE',  ( 1.816237820303080008, 5.200000000000000178, -0.2786086702015569960 ) ) ;
#1021 = DIRECTION ( 'NONE',  ( 0.0000000000000000000, 0.0000000000000000000, 1.000000000000000000 ) ) ;
#1022 = PRODUCT ( 'WSL3921 (0.004)', 'WSL3921 (0.004)', '', ( #1005 ) ) ;
#1023 = CARTESIAN_POINT ( 'NONE',  ( -2.830914579589527857, 0.0000000000000000000, 0.3908963739909706581 ) ) ;
#1024 = VECTOR ( 'NONE', #229, 1000.000000000000000 ) ;
#1025 = AXIS2_PLACEMENT_3D ( 'NONE', #54, #408, #1067 ) ;
#1026 = LINE ( 'NONE', #153, #653 ) ;
#1027 = DIRECTION ( 'NONE',  ( 0.0000000000000000000, 1.000000000000000000, 0.0000000000000000000 ) ) ;
#1028 = VECTOR ( 'NONE', #1159, 1000.000000000000000 ) ;
#1029 = DIRECTION ( 'NONE',  ( 0.0000000000000000000, 1.000000000000000000, 0.0000000000000000000 ) ) ;
#1030 = LINE ( 'NONE', #833, #868 ) ;
#1031 = ORIENTED_EDGE ( 'NONE', *, *, #651, .F. ) ;
#1032 = ORIENTED_EDGE ( 'NONE', *, *, #627, .F. ) ;
#1033 = VERTEX_POINT ( 'NONE', #679 ) ;
#1034 = DIRECTION ( 'NONE',  ( 0.0000000000000000000, 0.0000000000000000000, -1.000000000000000000 ) ) ;
#1035 = EDGE_CURVE ( 'NONE', #252, #900, #46, .T. ) ;
#1036 = ORIENTED_EDGE ( 'NONE', *, *, #380, .T. ) ;
#1037 = AXIS2_PLACEMENT_3D ( 'NONE', #445, #905, #354 ) ;
#1038 = DIRECTION ( 'NONE',  ( 0.0000000000000000000, 0.0000000000000000000, -1.000000000000000000 ) ) ;
#1039 = CARTESIAN_POINT ( 'NONE',  ( 2.218394709376542441E-48, -3.539050355171003748, 0.8299999999999999600 ) ) ;
#1040 = EDGE_CURVE ( 'NONE', #714, #923, #247, .T. ) ;
#1041 = CIRCLE ( 'NONE', #243, 4.173129245188848202 ) ;
#1042 = CARTESIAN_POINT ( 'NONE',  ( -3.000370849898480241, 0.0000000000000000000, 4.932104612383300328E-18 ) ) ;
#1043 = MECHANICAL_DESIGN_GEOMETRIC_PRESENTATION_REPRESENTATION (  '', ( #906 ), #1109 ) ;
#1044 = VECTOR ( 'NONE', #493, 1000.000000000000000 ) ;
#1045 = DIRECTION ( 'NONE',  ( 0.0000000000000000000, 1.000000000000000000, 0.0000000000000000000 ) ) ;
#1046 = ORIENTED_EDGE ( 'NONE', *, *, #421, .F. ) ;
#1047 = ORIENTED_EDGE ( 'NONE', *, *, #873, .T. ) ;
#1048 = ORIENTED_EDGE ( 'NONE', *, *, #748, .F. ) ;
#1049 = VERTEX_POINT ( 'NONE', #1083 ) ;
#1050 = AXIS2_PLACEMENT_3D ( 'NONE', #757, #674, #573 ) ;
#1051 = DIRECTION ( 'NONE',  ( -0.7071067811865480168, 0.0000000000000000000, -0.7071067811865470176 ) ) ;
#1052 = VECTOR ( 'NONE', #64, 1000.000000000000000 ) ;
#1053 = DIRECTION ( 'NONE',  ( 0.7071067811865480168, 0.0000000000000000000, 0.7071067811865470176 ) ) ;
#1054 = FACE_OUTER_BOUND ( 'NONE', #282, .T. ) ;
#1055 = EDGE_CURVE ( 'NONE', #798, #487, #750, .T. ) ;
#1056 = DIRECTION ( 'NONE',  ( 0.0000000000000000000, 0.0000000000000000000, 1.000000000000000000 ) ) ;
#1057 = VECTOR ( 'NONE', #403, 1000.000000000000000 ) ;
#1058 = VECTOR ( 'NONE', #189, 1000.000000000000000 ) ;
#1059 = MECHANICAL_DESIGN_GEOMETRIC_PRESENTATION_REPRESENTATION (  '', ( #588 ), #1125 ) ;
#1060 = VERTEX_POINT ( 'NONE', #412 ) ;
#1061 = DIRECTION ( 'NONE',  ( 0.0000000000000000000, 0.0000000000000000000, -1.000000000000000000 ) ) ;
#1062 = ORIENTED_EDGE ( 'NONE', *, *, #1188, .T. ) ;
#1063 = DIRECTION ( 'NONE',  ( 0.0000000000000000000, -1.000000000000000000, 0.0000000000000000000 ) ) ;
#1064 = PLANE ( 'NONE',  #675 ) ;
#1065 = DIRECTION ( 'NONE',  ( -0.7071067811865470176, 0.0000000000000000000, -0.7071067811865480168 ) ) ;
#1066 = DIRECTION ( 'NONE',  ( 1.000000000000000000, 0.0000000000000000000, -1.387778780781449866E-16 ) ) ;
#1067 = DIRECTION ( 'NONE',  ( -0.2297027246211489626, 0.0000000000000000000, 0.9732608377519462728 ) ) ;
#1068 = VECTOR ( 'NONE', #492, 1000.000000000000000 ) ;
#1069 = CIRCLE ( 'NONE', #879, 0.8000000000000003775 ) ;
#1070 = DIRECTION ( 'NONE',  ( 0.0000000000000000000, -1.000000000000000000, 0.0000000000000000000 ) ) ;
#1071 = LINE ( 'NONE', #1100, #950 ) ;
#1072 = EDGE_CURVE ( 'NONE', #1185, #355, #19, .T. ) ;
#1073 = CARTESIAN_POINT ( 'NONE',  ( -1.191045262974199659, 0.4605019796031228907, 0.5000000000000000000 ) ) ;
#1074 = ORIENTED_EDGE ( 'NONE', *, *, #505, .F. ) ;
#1075 = EDGE_LOOP ( 'NONE', ( #1124, #1137, #253, #152 ) ) ;
#1076 = PLANE ( 'NONE',  #735 ) ;
#1077 = ORIENTED_EDGE ( 'NONE', *, *, #378, .T. ) ;
#1078 = CARTESIAN_POINT ( 'NONE',  ( 5.000000000000000000, 0.0000000000000000000, 0.0000000000000000000 ) ) ;
#1079 = EDGE_CURVE ( 'NONE', #752, #798, #304, .T. ) ;
#1080 = PLANE ( 'NONE',  #475 ) ;
#1081 = AXIS2_PLACEMENT_3D ( 'NONE', #82, #547, #1027 ) ;
#1082 = DIRECTION ( 'NONE',  ( 0.0000000000000000000, 1.000000000000000000, 0.0000000000000000000 ) ) ;
#1083 = CARTESIAN_POINT ( 'NONE',  ( -2.434685424949239785, 0.0000000000000000000, 0.2343145750507620029 ) ) ;
#1084 = DIRECTION ( 'NONE',  ( 0.0000000000000000000, 1.000000000000000000, 0.0000000000000000000 ) ) ;
#1085 = VECTOR ( 'NONE', #1138, 1000.000000000000000 ) ;
#1086 = PRESENTATION_STYLE_ASSIGNMENT (( #360 ) ) ;
#1087 = VECTOR ( 'NONE', #692, 1000.000000000000000 ) ;
#1088 = LINE ( 'NONE', #173, #654 ) ;
#1089 = CARTESIAN_POINT ( 'NONE',  ( -2.000000000000000000, 0.0000000000000000000, 0.5000000000000000000 ) ) ;
#1090 = EDGE_LOOP ( 'NONE', ( #859, #375, #648, #359 ) ) ;
#1091 = AXIS2_PLACEMENT_3D ( 'NONE', #690, #876, #329 ) ;
#1092 = DIRECTION ( 'NONE',  ( 0.0000000000000000000, 1.000000000000000000, 0.0000000000000000000 ) ) ;
#1093 = ORIENTED_EDGE ( 'NONE', *, *, #300, .F. ) ;
#1094 = ADVANCED_FACE ( 'NONE', ( #928 ), #147, .T. ) ;
#1095 = ORIENTED_EDGE ( 'NONE', *, *, #133, .T. ) ;
#1096 = CARTESIAN_POINT ( 'NONE',  ( 1.816237820303080008, 0.0000000000000000000, -0.2786086702015569960 ) ) ;
#1097 = CARTESIAN_POINT ( 'NONE',  ( -2.669000000000000039, 0.0000000000000000000, 0.0000000000000000000 ) ) ;
#1098 = EDGE_CURVE ( 'NONE', #798, #140, #1026, .T. ) ;
#1099 = DIRECTION ( 'NONE',  ( 0.0000000000000000000, 0.0000000000000000000, -1.000000000000000000 ) ) ;
#1100 = CARTESIAN_POINT ( 'NONE',  ( -2.434685424949239785, 0.0000000000000000000, 0.2343145750507620029 ) ) ;
#1101 = LINE ( 'NONE', #566, #1163 ) ;
#1102 = CIRCLE ( 'NONE', #33, 0.8000000000000003775 ) ;
#1103 = CARTESIAN_POINT ( 'NONE',  ( 2.694224104006408105, 0.0000000000000000000, 0.06089637399097041354 ) ) ;
#1104 = CIRCLE ( 'NONE', #331, 0.8000000000000003775 ) ;
#1105 = ORIENTED_EDGE ( 'NONE', *, *, #972, .T. ) ;
#1106 = ADVANCED_FACE ( 'NONE', ( #135 ), #1076, .F. ) ;
#1107 =( LENGTH_UNIT ( ) NAMED_UNIT ( * ) SI_UNIT ( .MILLI., .METRE. ) );
#1108 = ORIENTED_EDGE ( 'NONE', *, *, #222, .T. ) ;
#1109 =( GEOMETRIC_REPRESENTATION_CONTEXT ( 3 ) GLOBAL_UNCERTAINTY_ASSIGNED_CONTEXT ( ( #904 ) ) GLOBAL_UNIT_ASSIGNED_CONTEXT ( ( #1107, #1011, #1113 ) ) REPRESENTATION_CONTEXT ( 'NONE', 'WORKASPACE' ) );
#1110 = ORIENTED_EDGE ( 'NONE', *, *, #175, .F. ) ;
#1111 = CARTESIAN_POINT ( 'NONE',  ( 2.434685424949239785, 0.0000000000000000000, 0.2343145750507620029 ) ) ;
#1112 = ORIENTED_EDGE ( 'NONE', *, *, #673, .F. ) ;
#1113 =( NAMED_UNIT ( * ) SI_UNIT ( $, .STERADIAN. ) SOLID_ANGLE_UNIT ( ) );
#1114 =( GEOMETRIC_REPRESENTATION_CONTEXT ( 3 ) GLOBAL_UNCERTAINTY_ASSIGNED_CONTEXT ( ( #706 ) ) GLOBAL_UNIT_ASSIGNED_CONTEXT ( ( #171, #995, #1001 ) ) REPRESENTATION_CONTEXT ( 'NONE', 'WORKASPACE' ) );
#1115 = CARTESIAN_POINT ( 'NONE',  ( -5.000000000000000000, 0.0000000000000000000, 3.469446951953609875E-17 ) ) ;
#1116 = LINE ( 'NONE', #318, #1024 ) ;
#1117 = FACE_OUTER_BOUND ( 'NONE', #159, .T. ) ;
#1118 = CYLINDRICAL_SURFACE ( 'NONE', #864, 4.173129245188848202 ) ;
#1119 = LINE ( 'NONE', #358, #452 ) ;
#1120 = VERTEX_POINT ( 'NONE', #328 ) ;
#1121 = PLANE ( 'NONE',  #393 ) ;
#1122 = ORIENTED_EDGE ( 'NONE', *, *, #343, .F. ) ;
#1123 = EDGE_CURVE ( 'NONE', #474, #1185, #62, .T. ) ;
#1124 = ORIENTED_EDGE ( 'NONE', *, *, #1206, .T. ) ;
#1125 =( GEOMETRIC_REPRESENTATION_CONTEXT ( 3 ) GLOBAL_UNCERTAINTY_ASSIGNED_CONTEXT ( ( #161 ) ) GLOBAL_UNIT_ASSIGNED_CONTEXT ( ( #778, #773, #982 ) ) REPRESENTATION_CONTEXT ( 'NONE', 'WORKASPACE' ) );
#1126 = DIRECTION ( 'NONE',  ( 0.0000000000000000000, -1.000000000000000000, 0.0000000000000000000 ) ) ;
#1127 = DIRECTION ( 'NONE',  ( -0.3826834323650901148, 0.0000000000000000000, -0.9238795325112865164 ) ) ;
#1128 = CARTESIAN_POINT ( 'NONE',  ( 3.000370849898480241, 5.200000000000000178, 0.8000000000000000444 ) ) ;
#1129 = LINE ( 'NONE', #302, #992 ) ;
#1130 = DIRECTION ( 'NONE',  ( 0.0000000000000000000, 1.000000000000000000, 0.0000000000000000000 ) ) ;
#1131 = FACE_OUTER_BOUND ( 'NONE', #561, .T. ) ;
#1132 = CARTESIAN_POINT ( 'NONE',  ( 3.000370849898480241, 0.0000000000000000000, 0.8000000000000000444 ) ) ;
#1133 = CIRCLE ( 'NONE', #1160, 0.8000000000000003775 ) ;
#1134 = ORIENTED_EDGE ( 'NONE', *, *, #216, .F. ) ;
#1135 = MANIFOLD_SOLID_BREP ( 'Cut-Extrude1', #313 ) ;
#1136 = EDGE_CURVE ( 'NONE', #184, #1120, #303, .T. ) ;
#1137 = ORIENTED_EDGE ( 'NONE', *, *, #526, .T. ) ;
#1138 = DIRECTION ( 'NONE',  ( 0.0000000000000000000, -1.000000000000000000, 0.0000000000000000000 ) ) ;
#1139 = ORIENTED_EDGE ( 'NONE', *, *, #1004, .F. ) ;
#1140 = DIRECTION ( 'NONE',  ( 0.0000000000000000000, 1.000000000000000000, 0.0000000000000000000 ) ) ;
#1141 = EDGE_CURVE ( 'NONE', #1120, #986, #1116, .T. ) ;
#1142 = VERTEX_POINT ( 'NONE', #521 ) ;
#1143 = DIRECTION ( 'NONE',  ( 1.000000000000000000, 0.0000000000000000000, 0.0000000000000000000 ) ) ;
#1144 = CARTESIAN_POINT ( 'NONE',  ( 2.669000000000000039, 5.200000000000000178, 0.0000000000000000000 ) ) ;
#1145 = DIRECTION ( 'NONE',  ( -0.3826834323650901148, 0.0000000000000000000, -0.9238795325112865164 ) ) ;
#1146 = SHAPE_DEFINITION_REPRESENTATION ( #478, #245 ) ;
#1147 = CARTESIAN_POINT ( 'NONE',  ( -2.381923245252319798, 0.0000000000000000000, 0.2870767547476810178 ) ) ;
#1148 = FACE_OUTER_BOUND ( 'NONE', #326, .T. ) ;
#1149 = VECTOR ( 'NONE', #87, 1000.000000000000000 ) ;
#1150 = AXIS2_PLACEMENT_3D ( 'NONE', #506, #699, #1172 ) ;
#1151 = LINE ( 'NONE', #787, #828 ) ;
#1152 = DIRECTION ( 'NONE',  ( 0.0000000000000000000, 1.000000000000000000, 0.0000000000000000000 ) ) ;
#1153 = LINE ( 'NONE', #912, #964 ) ;
#1154 = DIRECTION ( 'NONE',  ( -0.7071067811865480168, 0.0000000000000000000, 0.7071067811865470176 ) ) ;
#1155 = ORIENTED_EDGE ( 'NONE', *, *, #158, .T. ) ;
#1156 = EDGE_LOOP ( 'NONE', ( #236, #223, #1167, #527 ) ) ;
#1157 = CARTESIAN_POINT ( 'NONE',  ( 2.694224104006408105, 5.200000000000000178, 0.06089637399097073966 ) ) ;
#1158 = ORIENTED_EDGE ( 'NONE', *, *, #240, .F. ) ;
#1159 = DIRECTION ( 'NONE',  ( 0.0000000000000000000, 1.000000000000000000, 0.0000000000000000000 ) ) ;
#1160 = AXIS2_PLACEMENT_3D ( 'NONE', #728, #1216, #644 ) ;
#1161 = CARTESIAN_POINT ( 'NONE',  ( -3.000370849898480241, 0.0000000000000000000, 0.0000000000000000000 ) ) ;
#1162 = CARTESIAN_POINT ( 'NONE',  ( 2.000000000000000000, 0.0000000000000000000, 0.5000000000000000000 ) ) ;
#1163 = VECTOR ( 'NONE', #279, 1000.000000000000000 ) ;
#1164 = EDGE_CURVE ( 'NONE', #472, #782, #93, .T. ) ;
#1165 = DIRECTION ( 'NONE',  ( -0.7071067811865480168, 0.0000000000000000000, 0.7071067811865470176 ) ) ;
#1166 = VECTOR ( 'NONE', #268, 1000.000000000000000 ) ;
#1167 = ORIENTED_EDGE ( 'NONE', *, *, #651, .T. ) ;
#1168 = DIRECTION ( 'NONE',  ( 1.000000000000000000, -1.387778780781449866E-16, 0.0000000000000000000 ) ) ;
#1169 = ORIENTED_EDGE ( 'NONE', *, *, #869, .T. ) ;
#1170 = CARTESIAN_POINT ( 'NONE',  ( -2.571375900532360426, 5.200000000000000178, 0.5643145750507619907 ) ) ;
#1171 = ORIENTED_EDGE ( 'NONE', *, *, #300, .T. ) ;
#1172 = DIRECTION ( 'NONE',  ( 0.3826834323650901148, 0.0000000000000000000, -0.9238795325112865164 ) ) ;
#1173 = EDGE_CURVE ( 'NONE', #532, #388, #61, .T. ) ;
#1174 = DIRECTION ( 'NONE',  ( 0.0000000000000000000, -1.000000000000000000, 0.0000000000000000000 ) ) ;
#1175 = CARTESIAN_POINT ( 'NONE',  ( 2.000000000000000000, 0.0000000000000000000, 0.5000000000000000000 ) ) ;
#1176 = VECTOR ( 'NONE', #1061, 1000.000000000000000 ) ;
#1177 = CARTESIAN_POINT ( 'NONE',  ( -2.000000000000000000, 0.0000000000000000000, 0.8299999999999999600 ) ) ;
#1178 = LINE ( 'NONE', #726, #193 ) ;
#1179 = DIRECTION ( 'NONE',  ( 0.0000000000000000000, -1.000000000000000000, 0.0000000000000000000 ) ) ;
#1180 = DIRECTION ( 'NONE',  ( 0.3826834323650901148, 0.0000000000000000000, -0.9238795325112865164 ) ) ;
#1181 = VERTEX_POINT ( 'NONE', #689 ) ;
#1182 = ORIENTED_EDGE ( 'NONE', *, *, #74, .T. ) ;
#1183 = CARTESIAN_POINT ( 'NONE',  ( -1.191045262974199659, 0.0000000000000000000, -0.001000000000000241147 ) ) ;
#1184 = ORIENTED_EDGE ( 'NONE', *, *, #228, .F. ) ;
#1185 = VERTEX_POINT ( 'NONE', #695 ) ;
#1186 = CARTESIAN_POINT ( 'NONE',  ( -5.000000000000000000, 0.0000000000000000000, 0.3300000000000000155 ) ) ;
#1187 = CARTESIAN_POINT ( 'NONE',  ( -1.816237820303080008, 0.0000000000000000000, -0.2786086702015569960 ) ) ;
#1188 = EDGE_CURVE ( 'NONE', #698, #1014, #702, .T. ) ;
#1189 = CARTESIAN_POINT ( 'NONE',  ( 3.000370849898480241, 5.200000000000000178, 0.0000000000000000000 ) ) ;
#1190 = ADVANCED_FACE ( 'NONE', ( #606 ), #55, .T. ) ;
#1191 =( NAMED_UNIT ( * ) PLANE_ANGLE_UNIT ( ) SI_UNIT ( $, .RADIAN. ) );
#1192 = CYLINDRICAL_SURFACE ( 'NONE', #491, 0.7999999999999997113 ) ;
#1193 = LINE ( 'NONE', #286, #276 ) ;
#1194 = ORIENTED_EDGE ( 'NONE', *, *, #505, .T. ) ;
#1195 = ADVANCED_FACE ( 'NONE', ( #643 ), #464, .T. ) ;
#1196 = APPLICATION_PROTOCOL_DEFINITION ( 'draft international standard', 'automotive_design', 1998, #617 ) ;
#1197 = ORIENTED_EDGE ( 'NONE', *, *, #1123, .F. ) ;
#1198 = EDGE_CURVE ( 'NONE', #474, #1049, #553, .T. ) ;
#1199 = SURFACE_SIDE_STYLE ('',( #1010 ) ) ;
#1200 = VERTEX_POINT ( 'NONE', #344 ) ;
#1201 = EDGE_LOOP ( 'NONE', ( #88, #322, #715, #436 ) ) ;
#1202 =( LENGTH_UNIT ( ) NAMED_UNIT ( * ) SI_UNIT ( .MILLI., .METRE. ) );
#1203 = ORIENTED_EDGE ( 'NONE', *, *, #287, .T. ) ;
#1204 = DIRECTION ( 'NONE',  ( 0.0000000000000000000, 1.000000000000000000, 0.0000000000000000000 ) ) ;
#1205 = ADVANCED_FACE ( 'NONE', ( #991 ), #916, .F. ) ;
#1206 = EDGE_CURVE ( 'NONE', #388, #814, #789, .T. ) ;
#1207 = DIRECTION ( 'NONE',  ( 0.2297027246211489626, 0.0000000000000000000, 0.9732608377519462728 ) ) ;
#1208 = EDGE_CURVE ( 'NONE', #113, #1060, #853, .T. ) ;
#1209 = CARTESIAN_POINT ( 'NONE',  ( 3.137061325481599994, 5.200000000000000178, 1.129999999999999893 ) ) ;
#1210 = DIRECTION ( 'NONE',  ( 0.0000000000000000000, -1.000000000000000000, 0.0000000000000000000 ) ) ;
#1211 = FACE_OUTER_BOUND ( 'NONE', #225, .T. ) ;
#1212 = CARTESIAN_POINT ( 'NONE',  ( -2.169000000000000039, 0.0000000000000000000, 0.5000000000000000000 ) ) ;
#1213 = LINE ( 'NONE', #1103, #121 ) ;
#1214 = CARTESIAN_POINT ( 'NONE',  ( 5.000000000000000000, 5.200000000000000178, 0.3300000000000000155 ) ) ;
#1215 = FACE_OUTER_BOUND ( 'NONE', #84, .T. ) ;
#1216 = DIRECTION ( 'NONE',  ( 0.0000000000000000000, -1.000000000000000000, 0.0000000000000000000 ) ) ;
#1217 = ORIENTED_EDGE ( 'NONE', *, *, #1040, .T. ) ;
#1218 = ORIENTED_EDGE ( 'NONE', *, *, #1198, .F. ) ;
ENDSEC;
END-ISO-10303-21;
