ISO-10303-21;
HEADER;
FILE_DESCRIPTION (( 'STEP AP214' ),
    '1' );
FILE_NAME ('WSL3921 (0.001).step',
    '2018-11-05T16:57:39',
    ( '' ),
    ( '' ),
    'SwSTEP 2.0',
    'SolidWorks 2018',
    '' );
FILE_SCHEMA (( 'AUTOMOTIVE_DESIGN' ));
ENDSEC;

DATA;
#1 = ORIENTED_EDGE ( 'NONE', *, *, #637, .F. ) ;
#2 = CARTESIAN_POINT ( 'NONE',  ( -3.000370849898480241, 5.200000000000000178, 0.8000000000000000444 ) ) ;
#3 = AXIS2_PLACEMENT_3D ( 'NONE', #222, #888, #327 ) ;
#4 = ORIENTED_EDGE ( 'NONE', *, *, #105, .T. ) ;
#5 = CARTESIAN_POINT ( 'NONE',  ( -2.000000000000000000, 5.200000000000000178, 0.8809999999999998943 ) ) ;
#6 = CARTESIAN_POINT ( 'NONE',  ( -5.000000000000000000, 0.0000000000000000000, 0.3810000000000000053 ) ) ;
#7 = DIRECTION ( 'NONE',  ( 0.0000000000000000000, 1.000000000000000000, 0.0000000000000000000 ) ) ;
#8 = VERTEX_POINT ( 'NONE', #96 ) ;
#9 = AXIS2_PLACEMENT_3D ( 'NONE', #458, #1112, #922 ) ;
#10 = LINE ( 'NONE', #106, #994 ) ;
#11 = CARTESIAN_POINT ( 'NONE',  ( 2.000000000000000000, 5.200000000000000178, 0.5000000000000000000 ) ) ;
#12 = CARTESIAN_POINT ( 'NONE',  ( 5.000000000000000000, 5.200000000000000178, 0.0000000000000000000 ) ) ;
#13 = EDGE_LOOP ( 'NONE', ( #620, #1110, #636, #789 ) ) ;
#14 = EDGE_LOOP ( 'NONE', ( #997, #127, #585, #334 ) ) ;
#15 = EDGE_CURVE ( 'NONE', #633, #406, #1207, .T. ) ;
#16 = DIRECTION ( 'NONE',  ( 0.005710659240330971144, 0.0000000000000000000, 0.9999836940525783646 ) ) ;
#17 = DIRECTION ( 'NONE',  ( 0.0000000000000000000, -1.000000000000000000, 0.0000000000000000000 ) ) ;
#18 = PRESENTATION_LAYER_ASSIGNMENT (  '', '', ( #956 ) ) ;
#19 = PLANE ( 'NONE',  #499 ) ;
#20 = DIRECTION ( 'NONE',  ( 0.0000000000000000000, 0.0000000000000000000, -1.000000000000000000 ) ) ;
#21 = CARTESIAN_POINT ( 'NONE',  ( 3.158186217162629816, 5.200000000000000178, 1.181000000000000050 ) ) ;
#22 = VERTEX_POINT ( 'NONE', #1041 ) ;
#23 = VECTOR ( 'NONE', #510, 1000.000000000000000 ) ;
#24 = DIRECTION ( 'NONE',  ( 0.0000000000000000000, -1.000000000000000000, 0.0000000000000000000 ) ) ;
#25 = ORIENTED_EDGE ( 'NONE', *, *, #1060, .T. ) ;
#26 = CARTESIAN_POINT ( 'NONE',  ( -2.169000000000000039, 0.0000000000000000000, 0.5000000000000000000 ) ) ;
#27 = STYLED_ITEM ( 'NONE', ( #697 ), #475 ) ;
#28 = VECTOR ( 'NONE', #272, 1000.000000000000000 ) ;
#29 = DIRECTION ( 'NONE',  ( -0.2297027246211489626, 0.0000000000000000000, 0.9732608377519462728 ) ) ;
#30 = ORIENTED_EDGE ( 'NONE', *, *, #792, .F. ) ;
#31 = DIRECTION ( 'NONE',  ( -1.000000000000000000, 0.0000000000000000000, 0.0000000000000000000 ) ) ;
#32 = ORIENTED_EDGE ( 'NONE', *, *, #905, .F. ) ;
#33 = EDGE_CURVE ( 'NONE', #1019, #601, #948, .T. ) ;
#34 = FILL_AREA_STYLE ('',( #207 ) ) ;
#35 = CARTESIAN_POINT ( 'NONE',  ( -2.694224104006408105, 0.0000000000000000000, 0.06089637399097041354 ) ) ;
#36 = VERTEX_POINT ( 'NONE', #1133 ) ;
#37 = DIRECTION ( 'NONE',  ( 0.3826834323650896708, 0.0000000000000000000, -0.9238795325112867385 ) ) ;
#38 = VERTEX_POINT ( 'NONE', #300 ) ;
#39 = EDGE_CURVE ( 'NONE', #953, #451, #520, .T. ) ;
#40 = CYLINDRICAL_SURFACE ( 'NONE', #479, 0.8000000000000003775 ) ;
#41 = DIRECTION ( 'NONE',  ( -0.3826834323650896708, 0.0000000000000000000, -0.9238795325112867385 ) ) ;
#42 = DIRECTION ( 'NONE',  ( 1.000000000000000000, 0.0000000000000000000, 0.0000000000000000000 ) ) ;
#43 = VECTOR ( 'NONE', #416, 1000.000000000000000 ) ;
#44 = ORIENTED_EDGE ( 'NONE', *, *, #702, .F. ) ;
#45 = CARTESIAN_POINT ( 'NONE',  ( 2.669000000000000039, 0.0000000000000000000, 0.0000000000000000000 ) ) ;
#46 = DIRECTION ( 'NONE',  ( 0.0000000000000000000, 1.000000000000000000, 0.0000000000000000000 ) ) ;
#47 = ORIENTED_EDGE ( 'NONE', *, *, #525, .T. ) ;
#48 = ADVANCED_FACE ( 'NONE', ( #1028 ), #393, .T. ) ;
#49 = EDGE_CURVE ( 'NONE', #235, #303, #961, .T. ) ;
#50 = AXIS2_PLACEMENT_3D ( 'NONE', #1011, #721, #151 ) ;
#51 = CARTESIAN_POINT ( 'NONE',  ( -2.669000000000000039, 5.200000000000000178, 0.0000000000000000000 ) ) ;
#52 = EDGE_LOOP ( 'NONE', ( #875, #609, #1145, #198 ) ) ;
#53 = PRESENTATION_STYLE_ASSIGNMENT (( #1093 ) ) ;
#54 = DIRECTION ( 'NONE',  ( 0.3826834323650901148, 0.0000000000000000000, -0.9238795325112865164 ) ) ;
#55 = VERTEX_POINT ( 'NONE', #673 ) ;
#56 = LINE ( 'NONE', #1030, #625 ) ;
#57 = AXIS2_PLACEMENT_3D ( 'NONE', #690, #877, #31 ) ;
#58 = VERTEX_POINT ( 'NONE', #296 ) ;
#59 = CARTESIAN_POINT ( 'NONE',  ( -3.000370849898480241, 0.0000000000000000000, 0.8000000000000000444 ) ) ;
#60 = DIRECTION ( 'NONE',  ( 0.2297027246211489626, 0.0000000000000000000, 0.9732608377519462728 ) ) ;
#61 = ORIENTED_EDGE ( 'NONE', *, *, #758, .F. ) ;
#62 = CARTESIAN_POINT ( 'NONE',  ( 2.000000000000000000, 0.0000000000000000000, 0.5000000000000000000 ) ) ;
#63 = CARTESIAN_POINT ( 'NONE',  ( -0.9928029771355539879, 0.0000000000000000000, -0.001000000000000241147 ) ) ;
#64 =( NAMED_UNIT ( * ) SI_UNIT ( $, .STERADIAN. ) SOLID_ANGLE_UNIT ( ) );
#65 = VERTEX_POINT ( 'NONE', #291 ) ;
#66 = EDGE_CURVE ( 'NONE', #38, #570, #1151, .T. ) ;
#67 = AXIS2_PLACEMENT_3D ( 'NONE', #917, #1176, #1188 ) ;
#68 = CARTESIAN_POINT ( 'NONE',  ( 1.995431472607740009, 0.0000000000000000000, 0.08101304475793720539 ) ) ;
#69 = VERTEX_POINT ( 'NONE', #12 ) ;
#70 = ORIENTED_EDGE ( 'NONE', *, *, #825, .T. ) ;
#71 = CARTESIAN_POINT ( 'NONE',  ( 2.434685424949239785, 0.0000000000000000000, 0.2343145750507620029 ) ) ;
#72 = ADVANCED_FACE ( 'NONE', ( #660 ), #863, .T. ) ;
#73 = VECTOR ( 'NONE', #635, 1000.000000000000000 ) ;
#74 = VECTOR ( 'NONE', #294, 1000.000000000000000 ) ;
#75 = VERTEX_POINT ( 'NONE', #1142 ) ;
#76 = DIRECTION ( 'NONE',  ( 0.7071067811865470176, 0.0000000000000000000, -0.7071067811865480168 ) ) ;
#77 = ORIENTED_EDGE ( 'NONE', *, *, #1002, .T. ) ;
#78 = CARTESIAN_POINT ( 'NONE',  ( 3.158186217162629816, 0.0000000000000000000, 0.3810000000000000053 ) ) ;
#79 = EDGE_CURVE ( 'NONE', #82, #317, #155, .T. ) ;
#80 = AXIS2_PLACEMENT_3D ( 'NONE', #246, #355, #995 ) ;
#81 = CARTESIAN_POINT ( 'NONE',  ( -2.000000000000000000, 5.200000000000000178, 0.8809999999999998943 ) ) ;
#82 = VERTEX_POINT ( 'NONE', #870 ) ;
#83 = CYLINDRICAL_SURFACE ( 'NONE', #776, 0.8000000000000001554 ) ;
#84 = DIRECTION ( 'NONE',  ( -0.005710659240330971144, 0.0000000000000000000, 0.9999836940525783646 ) ) ;
#85 = VECTOR ( 'NONE', #392, 1000.000000000000000 ) ;
#86 = ORIENTED_EDGE ( 'NONE', *, *, #1097, .T. ) ;
#87 = EDGE_CURVE ( 'NONE', #1010, #1130, #645, .T. ) ;
#88 = CARTESIAN_POINT ( 'NONE',  ( -5.000000000000000000, 0.0000000000000000000, 0.3810000000000000053 ) ) ;
#89 = EDGE_LOOP ( 'NONE', ( #30, #562, #890, #925, #349, #248, #777, #421, #139, #257, #572, #502 ) ) ;
#90 = DIRECTION ( 'NONE',  ( 0.0000000000000000000, 1.000000000000000000, 0.0000000000000000000 ) ) ;
#91 = EDGE_CURVE ( 'NONE', #171, #263, #134, .T. ) ;
#92 = ORIENTED_EDGE ( 'NONE', *, *, #679, .F. ) ;
#93 = FACE_OUTER_BOUND ( 'NONE', #718, .T. ) ;
#94 = ORIENTED_EDGE ( 'NONE', *, *, #282, .F. ) ;
#95 = PLANE ( 'NONE',  #473 ) ;
#96 = CARTESIAN_POINT ( 'NONE',  ( -2.694224104006408105, 0.0000000000000000000, 0.06089637399097073966 ) ) ;
#97 = FACE_OUTER_BOUND ( 'NONE', #798, .T. ) ;
#98 = VECTOR ( 'NONE', #388, 1000.000000000000000 ) ;
#99 = EDGE_LOOP ( 'NONE', ( #650, #623, #302, #1067, #377, #148, #389, #509 ) ) ;
#100 = EDGE_CURVE ( 'NONE', #1165, #730, #395, .T. ) ;
#101 = DIRECTION ( 'NONE',  ( -0.0000000000000000000, -0.0000000000000000000, 1.000000000000000000 ) ) ;
#102 = ORIENTED_EDGE ( 'NONE', *, *, #940, .T. ) ;
#103 = CARTESIAN_POINT ( 'NONE',  ( 1.995431472607740009, 5.200000000000000178, 0.08101304475793720539 ) ) ;
#104 = DIRECTION ( 'NONE',  ( 0.0000000000000000000, 1.000000000000000000, 0.0000000000000000000 ) ) ;
#105 = EDGE_CURVE ( 'NONE', #161, #661, #627, .T. ) ;
#106 = CARTESIAN_POINT ( 'NONE',  ( -3.000370849898480241, 0.0000000000000000000, 0.0000000000000000000 ) ) ;
#107 = VERTEX_POINT ( 'NONE', #117 ) ;
#108 = CIRCLE ( 'NONE', #842, 0.8000000000000001554 ) ;
#109 = FACE_OUTER_BOUND ( 'NONE', #1216, .T. ) ;
#110 = AXIS2_PLACEMENT_3D ( 'NONE', #68, #735, #466 ) ;
#111 = VERTEX_POINT ( 'NONE', #319 ) ;
#112 = LINE ( 'NONE', #277, #1059 ) ;
#113 = CARTESIAN_POINT ( 'NONE',  ( 3.000370849898480241, 5.200000000000000178, 0.8000000000000000444 ) ) ;
#114 = CIRCLE ( 'NONE', #177, 0.8000000000000001554 ) ;
#115 = CARTESIAN_POINT ( 'NONE',  ( 0.9928029771355539879, 0.4601205533845136308, -0.001000000000000241147 ) ) ;
#116 = CLOSED_SHELL ( 'NONE', ( #657, #72, #280, #48, #1079, #461, #709, #931, #1074, #796, #371, #1196, #927, #841 ) ) ;
#117 = CARTESIAN_POINT ( 'NONE',  ( -2.434685424949239785, 0.0000000000000000000, 0.2343145750507620029 ) ) ;
#118 = CARTESIAN_POINT ( 'NONE',  ( -3.158186217162629816, 5.200000000000000178, 0.3810000000000000053 ) ) ;
#119 = EDGE_CURVE ( 'NONE', #891, #406, #654, .T. ) ;
#120 = DIRECTION ( 'NONE',  ( 0.0000000000000000000, -1.000000000000000000, 0.0000000000000000000 ) ) ;
#121 = VERTEX_POINT ( 'NONE', #1066 ) ;
#122 = CARTESIAN_POINT ( 'NONE',  ( -0.9928029771355539879, 0.0000000000000000000, -0.001000000000000241147 ) ) ;
#123 = FACE_OUTER_BOUND ( 'NONE', #14, .T. ) ;
#124 = VERTEX_POINT ( 'NONE', #508 ) ;
#125 = CARTESIAN_POINT ( 'NONE',  ( -3.158186217162629816, 5.200000000000000178, 1.181000000000000050 ) ) ;
#126 = CARTESIAN_POINT ( 'NONE',  ( 3.158186217162629816, 0.0000000000000000000, 1.181000000000000050 ) ) ;
#127 = ORIENTED_EDGE ( 'NONE', *, *, #1194, .T. ) ;
#128 = EDGE_LOOP ( 'NONE', ( #442, #973, #175, #975 ) ) ;
#129 = FACE_OUTER_BOUND ( 'NONE', #1008, .T. ) ;
#130 = FILL_AREA_STYLE_COLOUR ( '', #182 ) ;
#131 = LINE ( 'NONE', #1175, #894 ) ;
#132 = CARTESIAN_POINT ( 'NONE',  ( 0.0000000000000000000, 0.0000000000000000000, 0.6905000000000000027 ) ) ;
#133 = PRESENTATION_LAYER_ASSIGNMENT (  '', '', ( #374 ) ) ;
#134 = LINE ( 'NONE', #755, #1106 ) ;
#135 = CYLINDRICAL_SURFACE ( 'NONE', #110, 0.7999999999999997113 ) ;
#136 = ORIENTED_EDGE ( 'NONE', *, *, #216, .F. ) ;
#137 = CARTESIAN_POINT ( 'NONE',  ( -2.000000000000000000, 0.0000000000000000000, 0.5000000000000000000 ) ) ;
#138 = DIRECTION ( 'NONE',  ( 0.0000000000000000000, 0.0000000000000000000, 1.000000000000000000 ) ) ;
#139 = ORIENTED_EDGE ( 'NONE', *, *, #305, .T. ) ;
#140 = EDGE_LOOP ( 'NONE', ( #353, #1088, #1013, #288 ) ) ;
#141 = DIRECTION ( 'NONE',  ( 0.0000000000000000000, 1.000000000000000000, 0.0000000000000000000 ) ) ;
#142 = CARTESIAN_POINT ( 'NONE',  ( 2.694224104006408105, 0.0000000000000000000, 0.06089637399097073966 ) ) ;
#143 = DIRECTION ( 'NONE',  ( -3.255223899767407182E-50, 1.019500031713350017E-33, 1.000000000000000000 ) ) ;
#144 = CARTESIAN_POINT ( 'NONE',  ( 0.9928029771355539879, 0.4601205533845131868, 0.8809999999999998943 ) ) ;
#145 = ORIENTED_EDGE ( 'NONE', *, *, #489, .F. ) ;
#146 = FACE_OUTER_BOUND ( 'NONE', #541, .T. ) ;
#147 = VECTOR ( 'NONE', #537, 1000.000000000000000 ) ;
#148 = ORIENTED_EDGE ( 'NONE', *, *, #749, .F. ) ;
#149 = EDGE_CURVE ( 'NONE', #303, #1132, #181, .T. ) ;
#150 = FACE_OUTER_BOUND ( 'NONE', #1190, .T. ) ;
#151 = DIRECTION ( 'NONE',  ( 0.005710659240330971144, 0.0000000000000000000, 0.9999836940525783646 ) ) ;
#152 = CARTESIAN_POINT ( 'NONE',  ( -1.000000000000000000, 0.0000000000000000000, 0.5000000000000000000 ) ) ;
#153 = CIRCLE ( 'NONE', #1024, 0.8000000000000003775 ) ;
#154 = FILL_AREA_STYLE_COLOUR ( '', #815 ) ;
#155 = CIRCLE ( 'NONE', #1091, 0.8000000000000003775 ) ;
#156 = ORIENTED_EDGE ( 'NONE', *, *, #66, .T. ) ;
#157 = CARTESIAN_POINT ( 'NONE',  ( 2.000000000000000000, 5.200000000000000178, 0.5000000000000000000 ) ) ;
#158 = VERTEX_POINT ( 'NONE', #330 ) ;
#159 = AXIS2_PLACEMENT_3D ( 'NONE', #819, #1113, #1020 ) ;
#160 = DIRECTION ( 'NONE',  ( 0.0000000000000000000, -1.000000000000000000, 0.0000000000000000000 ) ) ;
#161 = VERTEX_POINT ( 'NONE', #780 ) ;
#162 = CIRCLE ( 'NONE', #67, 0.8000000000000003775 ) ;
#163 = CARTESIAN_POINT ( 'NONE',  ( 0.9928029771355539879, 0.0000000000000000000, 0.8809999999999998943 ) ) ;
#164 = SURFACE_STYLE_USAGE ( .BOTH. , #1012 ) ;
#165 = EDGE_LOOP ( 'NONE', ( #268, #501, #1198, #136, #1098, #783, #1049, #1063, #1172, #265, #1141, #1 ) ) ;
#166 = EDGE_CURVE ( 'NONE', #22, #986, #832, .T. ) ;
#167 = LINE ( 'NONE', #45, #756 ) ;
#168 = VECTOR ( 'NONE', #763, 1000.000000000000000 ) ;
#169 = LINE ( 'NONE', #942, #98 ) ;
#170 = CARTESIAN_POINT ( 'NONE',  ( -1.995431472607740009, 0.0000000000000000000, 0.08101304475793720539 ) ) ;
#171 = VERTEX_POINT ( 'NONE', #512 ) ;
#172 = ADVANCED_FACE ( 'NONE', ( #907 ), #1168, .T. ) ;
#173 = CARTESIAN_POINT ( 'NONE',  ( -3.158186217162629816, 0.0000000000000000000, 1.181000000000000050 ) ) ;
#174 = DIRECTION ( 'NONE',  ( -0.7071067811865480168, 0.0000000000000000000, -0.7071067811865470176 ) ) ;
#175 = ORIENTED_EDGE ( 'NONE', *, *, #758, .T. ) ;
#176 = EDGE_CURVE ( 'NONE', #1031, #161, #546, .T. ) ;
#177 = AXIS2_PLACEMENT_3D ( 'NONE', #307, #779, #1050 ) ;
#178 = PLANE ( 'NONE',  #1032 ) ;
#179 = ADVANCED_FACE ( 'NONE', ( #146 ), #967, .T. ) ;
#180 = VERTEX_POINT ( 'NONE', #311 ) ;
#181 = LINE ( 'NONE', #884, #799 ) ;
#182 = COLOUR_RGB ( '',0.7529411764705882248, 0.7529411764705882248, 0.7529411764705882248 ) ;
#183 = DIRECTION ( 'NONE',  ( 0.0000000000000000000, 0.0000000000000000000, -1.000000000000000000 ) ) ;
#184 = VECTOR ( 'NONE', #1186, 1000.000000000000000 ) ;
#185 = EDGE_CURVE ( 'NONE', #107, #8, #315, .T. ) ;
#186 = FACE_OUTER_BOUND ( 'NONE', #128, .T. ) ;
#187 = VECTOR ( 'NONE', #854, 1000.000000000000000 ) ;
#188 = AXIS2_PLACEMENT_3D ( 'NONE', #382, #289, #84 ) ;
#189 = ORIENTED_EDGE ( 'NONE', *, *, #1134, .T. ) ;
#190 = DIRECTION ( 'NONE',  ( 1.000000000000000000, -3.192961057879269855E-17, 0.0000000000000000000 ) ) ;
#191 = CARTESIAN_POINT ( 'NONE',  ( -5.000000000000000000, 0.0000000000000000000, 3.469446951953609875E-17 ) ) ;
#192 = EDGE_CURVE ( 'NONE', #1126, #235, #874, .T. ) ;
#193 = CARTESIAN_POINT ( 'NONE',  ( 0.0000000000000000000, 0.0000000000000000000, 0.6905000000000000027 ) ) ;
#194 = LINE ( 'NONE', #337, #828 ) ;
#195 = ORIENTED_EDGE ( 'NONE', *, *, #792, .T. ) ;
#196 = DIRECTION ( 'NONE',  ( 0.0000000000000000000, 0.0000000000000000000, -1.000000000000000000 ) ) ;
#197 = DIRECTION ( 'NONE',  ( -0.0000000000000000000, 1.000000000000000000, 0.0000000000000000000 ) ) ;
#198 = ORIENTED_EDGE ( 'NONE', *, *, #667, .F. ) ;
#199 = EDGE_CURVE ( 'NONE', #75, #243, #621, .T. ) ;
#200 = DIRECTION ( 'NONE',  ( -1.000000000000000000, 0.0000000000000000000, 7.284927983104709804E-16 ) ) ;
#201 = ORIENTED_EDGE ( 'NONE', *, *, #534, .F. ) ;
#202 = DIRECTION ( 'NONE',  ( 0.0000000000000000000, -1.000000000000000000, 0.0000000000000000000 ) ) ;
#203 = DIRECTION ( 'NONE',  ( 0.3826834323650901148, 0.0000000000000000000, -0.9238795325112865164 ) ) ;
#204 = AXIS2_PLACEMENT_3D ( 'NONE', #1211, #1202, #376 ) ;
#205 = ORIENTED_EDGE ( 'NONE', *, *, #807, .T. ) ;
#206 = LINE ( 'NONE', #919, #1071 ) ;
#207 = FILL_AREA_STYLE_COLOUR ( '', #745 ) ;
#208 = CARTESIAN_POINT ( 'NONE',  ( -2.000000000000000000, 0.0000000000000000000, 0.8809999999999998943 ) ) ;
#209 = VECTOR ( 'NONE', #916, 1000.000000000000000 ) ;
#210 = CIRCLE ( 'NONE', #465, 0.8000000000000003775 ) ;
#211 = VERTEX_POINT ( 'NONE', #325 ) ;
#212 = EDGE_CURVE ( 'NONE', #36, #55, #752, .T. ) ;
#213 = AXIS2_PLACEMENT_3D ( 'NONE', #988, #1158, #1073 ) ;
#214 = DIRECTION ( 'NONE',  ( 0.0000000000000000000, 1.000000000000000000, 0.0000000000000000000 ) ) ;
#215 = DIRECTION ( 'NONE',  ( 0.7071067811865470176, 0.0000000000000000000, 0.7071067811865480168 ) ) ;
#216 = EDGE_CURVE ( 'NONE', #824, #1029, #286, .T. ) ;
#217 = VERTEX_POINT ( 'NONE', #413 ) ;
#218 = DIRECTION ( 'NONE',  ( 1.000000000000000000, 0.0000000000000000000, 0.0000000000000000000 ) ) ;
#219 = LINE ( 'NONE', #1077, #1164 ) ;
#220 = AXIS2_PLACEMENT_3D ( 'NONE', #732, #1206, #586 ) ;
#221 = ORIENTED_EDGE ( 'NONE', *, *, #637, .T. ) ;
#222 = CARTESIAN_POINT ( 'NONE',  ( -3.442158880225379747, 5.200000000000000178, 0.3008591841772690345 ) ) ;
#223 = VECTOR ( 'NONE', #1200, 1000.000000000000000 ) ;
#224 = DIRECTION ( 'NONE',  ( 0.3826834323650896708, 0.0000000000000000000, -0.9238795325112867385 ) ) ;
#225 = ORIENTED_EDGE ( 'NONE', *, *, #552, .T. ) ;
#226 = ORIENTED_EDGE ( 'NONE', *, *, #79, .F. ) ;
#227 = EDGE_CURVE ( 'NONE', #1076, #848, #108, .T. ) ;
#228 = FILL_AREA_STYLE ('',( #130 ) ) ;
#229 = CARTESIAN_POINT ( 'NONE',  ( 2.000000000000000000, 5.200000000000000178, 0.5000000000000000000 ) ) ;
#230 = ORIENTED_EDGE ( 'NONE', *, *, #322, .T. ) ;
#231 = ADVANCED_FACE ( 'NONE', ( #641 ), #589, .T. ) ;
#232 = CARTESIAN_POINT ( 'NONE',  ( 3.442158880225379747, 0.0000000000000000000, 0.3008591841772690345 ) ) ;
#233 = CARTESIAN_POINT ( 'NONE',  ( -2.000000000000000000, 0.0000000000000000000, 0.8809999999999998943 ) ) ;
#234 = EDGE_CURVE ( 'NONE', #244, #574, #391, .T. ) ;
#235 = VERTEX_POINT ( 'NONE', #701 ) ;
#236 = CARTESIAN_POINT ( 'NONE',  ( -1.816237820303080008, 0.0000000000000000000, -0.2786086702015569960 ) ) ;
#237 = DIRECTION ( 'NONE',  ( 1.000000000000000000, 0.0000000000000000000, -3.192961057879269855E-17 ) ) ;
#238 = AXIS2_PLACEMENT_3D ( 'NONE', #103, #398, #16 ) ;
#239 =( NAMED_UNIT ( * ) SI_UNIT ( $, .STERADIAN. ) SOLID_ANGLE_UNIT ( ) );
#240 = FACE_OUTER_BOUND ( 'NONE', #950, .T. ) ;
#241 = ADVANCED_FACE ( 'NONE', ( #129 ), #642, .F. ) ;
#242 = LINE ( 'NONE', #1212, #424 ) ;
#243 = VERTEX_POINT ( 'NONE', #809 ) ;
#244 = VERTEX_POINT ( 'NONE', #607 ) ;
#245 = DIRECTION ( 'NONE',  ( 1.000000000000000000, 0.0000000000000000000, 0.0000000000000000000 ) ) ;
#246 = CARTESIAN_POINT ( 'NONE',  ( 3.000370849898480241, 0.0000000000000000000, 0.8000000000000000444 ) ) ;
#247 = EDGE_CURVE ( 'NONE', #171, #699, #530, .T. ) ;
#248 = ORIENTED_EDGE ( 'NONE', *, *, #667, .T. ) ;
#249 = AXIS2_PLACEMENT_3D ( 'NONE', #347, #443, #37 ) ;
#250 =( NAMED_UNIT ( * ) PLANE_ANGLE_UNIT ( ) SI_UNIT ( $, .RADIAN. ) );
#251 = ADVANCED_BREP_SHAPE_REPRESENTATION ( 'WSL3921 (0.001)', ( #1023, #1081, #475, #283 ), #787 ) ;
#252 = DIRECTION ( 'NONE',  ( 0.2297027246211489626, 0.0000000000000000000, 0.9732608377519462728 ) ) ;
#253 = DIRECTION ( 'NONE',  ( 0.0000000000000000000, 1.000000000000000000, 0.0000000000000000000 ) ) ;
#254 = CARTESIAN_POINT ( 'NONE',  ( 2.561116897556969807, 0.0000000000000000000, 0.6466984697071749277 ) ) ;
#255 = EDGE_LOOP ( 'NONE', ( #860, #930, #269, #370 ) ) ;
#256 = LINE ( 'NONE', #522, #655 ) ;
#257 = ORIENTED_EDGE ( 'NONE', *, *, #1125, .T. ) ;
#258 = EDGE_CURVE ( 'NONE', #124, #827, #666, .T. ) ;
#259 = CARTESIAN_POINT ( 'NONE',  ( 2.561116897556969807, 0.0000000000000000000, 0.6466984697071749277 ) ) ;
#260 = CARTESIAN_POINT ( 'NONE',  ( 2.592500792213390248, 0.0000000000000000000, 0.6153145750507620360 ) ) ;
#261 = VECTOR ( 'NONE', #253, 1000.000000000000000 ) ;
#262 = DIRECTION ( 'NONE',  ( 0.0000000000000000000, 1.000000000000000000, 0.0000000000000000000 ) ) ;
#263 = VERTEX_POINT ( 'NONE', #813 ) ;
#264 = FACE_OUTER_BOUND ( 'NONE', #881, .T. ) ;
#265 = ORIENTED_EDGE ( 'NONE', *, *, #662, .F. ) ;
#266 = CARTESIAN_POINT ( 'NONE',  ( -3.000370849898480241, 0.0000000000000000000, 0.8000000000000000444 ) ) ;
#267 = CARTESIAN_POINT ( 'NONE',  ( 3.158186217162629816, 0.0000000000000000000, 1.181000000000000050 ) ) ;
#268 = ORIENTED_EDGE ( 'NONE', *, *, #185, .F. ) ;
#269 = ORIENTED_EDGE ( 'NONE', *, *, #679, .T. ) ;
#270 = MECHANICAL_DESIGN_GEOMETRIC_PRESENTATION_REPRESENTATION (  '', ( #956 ), #1078 ) ;
#271 = DIRECTION ( 'NONE',  ( 0.0000000000000000000, 1.000000000000000000, 0.0000000000000000000 ) ) ;
#272 = DIRECTION ( 'NONE',  ( -1.000000000000000000, 0.0000000000000000000, 0.0000000000000000000 ) ) ;
#273 = ADVANCED_FACE ( 'NONE', ( #123 ), #795, .F. ) ;
#274 = CARTESIAN_POINT ( 'NONE',  ( 1.816237820303080008, 0.0000000000000000000, -0.2786086702015569960 ) ) ;
#275 = ORIENTED_EDGE ( 'NONE', *, *, #1036, .F. ) ;
#276 = AXIS2_PLACEMENT_3D ( 'NONE', #902, #343, #915 ) ;
#277 = CARTESIAN_POINT ( 'NONE',  ( 2.326815367264150058, 5.200000000000000178, 0.8809999999999998943 ) ) ;
#278 = LINE ( 'NONE', #1061, #564 ) ;
#279 = EDGE_LOOP ( 'NONE', ( #987, #1057, #309, #924, #425, #285, #685, #901, #554, #401, #1214, #671 ) ) ;
#280 = ADVANCED_FACE ( 'NONE', ( #350 ), #861, .T. ) ;
#281 = DIRECTION ( 'NONE',  ( 1.000000000000000000, 0.0000000000000000000, 0.0000000000000000000 ) ) ;
#282 = EDGE_CURVE ( 'NONE', #797, #1010, #1103, .T. ) ;
#283 = AXIS2_PLACEMENT_3D ( 'NONE', #811, #844, #281 ) ;
#284 = PLANE ( 'NONE',  #293 ) ;
#285 = ORIENTED_EDGE ( 'NONE', *, *, #431, .F. ) ;
#286 = LINE ( 'NONE', #686, #846 ) ;
#287 = LINE ( 'NONE', #700, #753 ) ;
#288 = ORIENTED_EDGE ( 'NONE', *, *, #149, .T. ) ;
#289 = DIRECTION ( 'NONE',  ( 0.0000000000000000000, 1.000000000000000000, 0.0000000000000000000 ) ) ;
#290 = PRODUCT_DEFINITION_SHAPE ( 'NONE', 'NONE',  #591 ) ;
#291 = CARTESIAN_POINT ( 'NONE',  ( 2.000000000000000000, 0.0000000000000000000, 0.5000000000000000000 ) ) ;
#292 = LINE ( 'NONE', #260, #209 ) ;
#293 = AXIS2_PLACEMENT_3D ( 'NONE', #384, #197, #1039 ) ;
#294 = DIRECTION ( 'NONE',  ( 0.0000000000000000000, -1.000000000000000000, 0.0000000000000000000 ) ) ;
#295 = ORIENTED_EDGE ( 'NONE', *, *, #702, .T. ) ;
#296 = CARTESIAN_POINT ( 'NONE',  ( -3.000370849898480241, 5.200000000000000178, 4.932104612383300328E-18 ) ) ;
#297 = ORIENTED_EDGE ( 'NONE', *, *, #1053, .F. ) ;
#298 = DIRECTION ( 'NONE',  ( 1.000000000000000000, 0.0000000000000000000, -1.387778780781449866E-16 ) ) ;
#299 = DIRECTION ( 'NONE',  ( -0.0000000000000000000, -1.000000000000000000, -0.0000000000000000000 ) ) ;
#300 = CARTESIAN_POINT ( 'NONE',  ( 5.000000000000000000, 0.0000000000000000000, 0.3810000000000000053 ) ) ;
#301 = EDGE_CURVE ( 'NONE', #263, #340, #880, .T. ) ;
#302 = ORIENTED_EDGE ( 'NONE', *, *, #764, .F. ) ;
#303 = VERTEX_POINT ( 'NONE', #233 ) ;
#304 = LINE ( 'NONE', #351, #1167 ) ;
#305 = EDGE_CURVE ( 'NONE', #1076, #672, #719, .T. ) ;
#306 = FACE_OUTER_BOUND ( 'NONE', #13, .T. ) ;
#307 = CARTESIAN_POINT ( 'NONE',  ( 3.158186217162629816, 5.200000000000000178, 1.181000000000000050 ) ) ;
#308 = CLOSED_SHELL ( 'NONE', ( #822, #553, #632, #918, #647, #652, #335, #273, #545, #241 ) ) ;
#309 = ORIENTED_EDGE ( 'NONE', *, *, #66, .F. ) ;
#310 = AXIS2_PLACEMENT_3D ( 'NONE', #865, #958, #951 ) ;
#311 = CARTESIAN_POINT ( 'NONE',  ( 2.561116897556969807, 5.200000000000000178, 0.6466984697071749277 ) ) ;
#312 = EDGE_CURVE ( 'NONE', #827, #121, #378, .T. ) ;
#313 = AXIS2_PLACEMENT_3D ( 'NONE', #945, #750, #190 ) ;
#314 = ORIENTED_EDGE ( 'NONE', *, *, #348, .F. ) ;
#315 = CIRCLE ( 'NONE', #674, 0.8000000000000003775 ) ;
#316 = SURFACE_STYLE_FILL_AREA ( #228 ) ;
#317 = VERTEX_POINT ( 'NONE', #1083 ) ;
#318 = SURFACE_STYLE_USAGE ( .BOTH. , #893 ) ;
#319 = CARTESIAN_POINT ( 'NONE',  ( 2.434685424949239785, 0.0000000000000000000, 0.2343145750507620029 ) ) ;
#320 = LINE ( 'NONE', #71, #590 ) ;
#321 = FACE_OUTER_BOUND ( 'NONE', #89, .T. ) ;
#322 = EDGE_CURVE ( 'NONE', #171, #1130, #494, .T. ) ;
#323 = EDGE_LOOP ( 'NONE', ( #952, #855, #791, #275 ) ) ;
#324 = PLANE ( 'NONE',  #354 ) ;
#325 = CARTESIAN_POINT ( 'NONE',  ( -5.000000000000000000, 5.200000000000000178, 0.0000000000000000000 ) ) ;
#326 = EDGE_LOOP ( 'NONE', ( #978, #538, #906, #728 ) ) ;
#327 = DIRECTION ( 'NONE',  ( 0.0000000000000000000, 0.0000000000000000000, -1.000000000000000000 ) ) ;
#328 = VERTEX_POINT ( 'NONE', #433 ) ;
#329 = DIRECTION ( 'NONE',  ( 0.0000000000000000000, 1.000000000000000000, 0.0000000000000000000 ) ) ;
#330 = CARTESIAN_POINT ( 'NONE',  ( -2.561116897556969807, 5.200000000000000178, 0.6466984697071749277 ) ) ;
#331 =( NAMED_UNIT ( * ) PLANE_ANGLE_UNIT ( ) SI_UNIT ( $, .RADIAN. ) );
#332 = ORIENTED_EDGE ( 'NONE', *, *, #301, .F. ) ;
#333 = CARTESIAN_POINT ( 'NONE',  ( 2.354705709591245330E-48, -3.267602523815169135, 0.5000000000000000000 ) ) ;
#334 = ORIENTED_EDGE ( 'NONE', *, *, #91, .F. ) ;
#335 = ADVANCED_FACE ( 'NONE', ( #1143 ), #526, .F. ) ;
#336 = LINE ( 'NONE', #923, #261 ) ;
#337 = CARTESIAN_POINT ( 'NONE',  ( -0.9928029771355539879, 0.4601205533845131868, -0.001000000000000241147 ) ) ;
#338 = DIRECTION ( 'NONE',  ( -0.3826834323650896708, 0.0000000000000000000, -0.9238795325112867385 ) ) ;
#339 = LINE ( 'NONE', #1033, #469 ) ;
#340 = VERTEX_POINT ( 'NONE', #515 ) ;
#341 = AXIS2_PLACEMENT_3D ( 'NONE', #173, #747, #563 ) ;
#342 = ADVANCED_FACE ( 'NONE', ( #264 ), #968, .F. ) ;
#343 = DIRECTION ( 'NONE',  ( 0.0000000000000000000, -1.000000000000000000, 0.0000000000000000000 ) ) ;
#344 = VERTEX_POINT ( 'NONE', #1001 ) ;
#345 = CARTESIAN_POINT ( 'NONE',  ( -2.381923245252319798, 0.0000000000000000000, 0.2870767547476810178 ) ) ;
#346 = DIRECTION ( 'NONE',  ( 0.0000000000000000000, 0.0000000000000000000, 1.000000000000000000 ) ) ;
#347 = CARTESIAN_POINT ( 'NONE',  ( -3.158186217162629816, 0.0000000000000000000, 1.181000000000000050 ) ) ;
#348 = EDGE_CURVE ( 'NONE', #1130, #966, #131, .T. ) ;
#349 = ORIENTED_EDGE ( 'NONE', *, *, #921, .F. ) ;
#350 = FACE_OUTER_BOUND ( 'NONE', #1139, .T. ) ;
#351 = CARTESIAN_POINT ( 'NONE',  ( -2.561116897556969807, 0.0000000000000000000, 0.6466984697071749277 ) ) ;
#352 = DIRECTION ( 'NONE',  ( 0.0000000000000000000, 1.000000000000000000, 0.0000000000000000000 ) ) ;
#353 = ORIENTED_EDGE ( 'NONE', *, *, #946, .T. ) ;
#354 = AXIS2_PLACEMENT_3D ( 'NONE', #26, #692, #439 ) ;
#355 = DIRECTION ( 'NONE',  ( 0.0000000000000000000, 1.000000000000000000, 0.0000000000000000000 ) ) ;
#356 = FACE_OUTER_BOUND ( 'NONE', #513, .T. ) ;
#357 = LINE ( 'NONE', #573, #820 ) ;
#358 = ORIENTED_EDGE ( 'NONE', *, *, #39, .T. ) ;
#359 = PLANE ( 'NONE',  #1148 ) ;
#360 = CARTESIAN_POINT ( 'NONE',  ( -5.000000000000000000, 0.0000000000000000000, 3.469446951953609875E-17 ) ) ;
#361 = EDGE_LOOP ( 'NONE', ( #817, #768, #1138, #70, #703, #612, #981, #1043, #295, #559, #938, #226 ) ) ;
#362 = CARTESIAN_POINT ( 'NONE',  ( -2.000000000000000000, 5.200000000000000178, 0.5000000000000000000 ) ) ;
#363 = CARTESIAN_POINT ( 'NONE',  ( -5.000000000000000000, 0.0000000000000000000, 0.3810000000000000053 ) ) ;
#364 = VERTEX_POINT ( 'NONE', #142 ) ;
#365 = ORIENTED_EDGE ( 'NONE', *, *, #720, .T. ) ;
#366 = VECTOR ( 'NONE', #237, 1000.000000000000000 ) ;
#367 = PLANE ( 'NONE',  #204 ) ;
#368 = FACE_OUTER_BOUND ( 'NONE', #99, .T. ) ;
#369 = FACE_OUTER_BOUND ( 'NONE', #1070, .T. ) ;
#370 = ORIENTED_EDGE ( 'NONE', *, *, #227, .T. ) ;
#371 = ADVANCED_FACE ( 'NONE', ( #665 ), #1018, .T. ) ;
#372 = EDGE_CURVE ( 'NONE', #124, #107, #933, .T. ) ;
#373 = VERTEX_POINT ( 'NONE', #463 ) ;
#374 = STYLED_ITEM ( 'NONE', ( #1179 ), #1023 ) ;
#375 = APPLICATION_PROTOCOL_DEFINITION ( 'draft international standard', 'automotive_design', 1998, #460 ) ;
#376 = DIRECTION ( 'NONE',  ( 1.000000000000000000, -1.387778780781449866E-16, 0.0000000000000000000 ) ) ;
#377 = ORIENTED_EDGE ( 'NONE', *, *, #49, .T. ) ;
#378 = CIRCLE ( 'NONE', #561, 0.7999999999999997113 ) ;
#379 = ORIENTED_EDGE ( 'NONE', *, *, #49, .F. ) ;
#380 = AXIS2_PLACEMENT_3D ( 'NONE', #1159, #785, #872 ) ;
#381 = FACE_OUTER_BOUND ( 'NONE', #1042, .T. ) ;
#382 = CARTESIAN_POINT ( 'NONE',  ( -1.995431472607740009, 0.0000000000000000000, 0.08101304475793720539 ) ) ;
#383 = FACE_OUTER_BOUND ( 'NONE', #52, .T. ) ;
#384 = CARTESIAN_POINT ( 'NONE',  ( 3.442158880225379747, 5.200000000000000178, 0.3008591841772690345 ) ) ;
#385 = VECTOR ( 'NONE', #521, 1000.000000000000000 ) ;
#386 = DIRECTION ( 'NONE',  ( 1.000000000000000000, 0.0000000000000000000, 3.192961057879269855E-17 ) ) ;
#387 = EDGE_CURVE ( 'NONE', #639, #373, #292, .T. ) ;
#388 = DIRECTION ( 'NONE',  ( 1.000000000000000000, 0.0000000000000000000, 3.192961057879269855E-17 ) ) ;
#389 = ORIENTED_EDGE ( 'NONE', *, *, #970, .F. ) ;
#390 = ORIENTED_EDGE ( 'NONE', *, *, #954, .T. ) ;
#391 = LINE ( 'NONE', #229, #1004 ) ;
#392 = DIRECTION ( 'NONE',  ( 1.000000000000000000, 0.0000000000000000000, 0.0000000000000000000 ) ) ;
#393 = PLANE ( 'NONE',  #1157 ) ;
#394 = VECTOR ( 'NONE', #174, 1000.000000000000000 ) ;
#395 = CIRCLE ( 'NONE', #57, 3.857664719969361222 ) ;
#396 = FACE_OUTER_BOUND ( 'NONE', #580, .T. ) ;
#397 = ORIENTED_EDGE ( 'NONE', *, *, #489, .T. ) ;
#398 = DIRECTION ( 'NONE',  ( 0.0000000000000000000, -1.000000000000000000, 0.0000000000000000000 ) ) ;
#399 = DIRECTION ( 'NONE',  ( 0.0000000000000000000, 1.000000000000000000, 0.0000000000000000000 ) ) ;
#400 = UNCERTAINTY_MEASURE_WITH_UNIT (LENGTH_MEASURE( 1.000000000000000082E-05 ), #740, 'distance_accuracy_value', 'NONE');
#401 = ORIENTED_EDGE ( 'NONE', *, *, #1053, .T. ) ;
#402 = DIRECTION ( 'NONE',  ( 0.0000000000000000000, 1.000000000000000000, 0.0000000000000000000 ) ) ;
#403 = AXIS2_PLACEMENT_3D ( 'NONE', #170, #736, #539 ) ;
#404 = ORIENTED_EDGE ( 'NONE', *, *, #457, .T. ) ;
#405 = CARTESIAN_POINT ( 'NONE',  ( -3.000370849898480241, 0.0000000000000000000, 0.8000000000000000444 ) ) ;
#406 = VERTEX_POINT ( 'NONE', #649 ) ;
#407 = LINE ( 'NONE', #1026, #452 ) ;
#408 = DIRECTION ( 'NONE',  ( -0.3826834323650901148, 0.0000000000000000000, -0.9238795325112865164 ) ) ;
#409 = EDGE_CURVE ( 'NONE', #827, #317, #481, .T. ) ;
#410 = CYLINDRICAL_SURFACE ( 'NONE', #341, 0.8000000000000001554 ) ;
#411 = DIRECTION ( 'NONE',  ( 1.000000000000000000, 0.0000000000000000000, -3.192961057879269855E-17 ) ) ;
#412 = ORIENTED_EDGE ( 'NONE', *, *, #1166, .F. ) ;
#413 = CARTESIAN_POINT ( 'NONE',  ( 2.694224104006408105, 5.200000000000000178, 0.06089637399097073966 ) ) ;
#414 = ORIENTED_EDGE ( 'NONE', *, *, #1021, .T. ) ;
#415 =( NAMED_UNIT ( * ) SI_UNIT ( $, .STERADIAN. ) SOLID_ANGLE_UNIT ( ) );
#416 = DIRECTION ( 'NONE',  ( 0.0000000000000000000, 1.000000000000000000, 0.0000000000000000000 ) ) ;
#417 = DIRECTION ( 'NONE',  ( 0.0000000000000000000, 1.000000000000000000, 0.0000000000000000000 ) ) ;
#418 = AXIS2_PLACEMENT_3D ( 'NONE', #812, #629, #252 ) ;
#419 = ORIENTED_EDGE ( 'NONE', *, *, #258, .F. ) ;
#420 = VECTOR ( 'NONE', #262, 1000.000000000000000 ) ;
#421 = ORIENTED_EDGE ( 'NONE', *, *, #227, .F. ) ;
#422 = LINE ( 'NONE', #259, #184 ) ;
#423 = ORIENTED_EDGE ( 'NONE', *, *, #816, .F. ) ;
#424 = VECTOR ( 'NONE', #566, 1000.000000000000000 ) ;
#425 = ORIENTED_EDGE ( 'NONE', *, *, #199, .F. ) ;
#426 = CARTESIAN_POINT ( 'NONE',  ( -1.816237820303080008, 5.200000000000000178, -0.2786086702015569960 ) ) ;
#427 = VECTOR ( 'NONE', #42, 1000.000000000000000 ) ;
#428 = VERTEX_POINT ( 'NONE', #643 ) ;
#429 = SURFACE_SIDE_STYLE ('',( #835 ) ) ;
#430 = CARTESIAN_POINT ( 'NONE',  ( 0.9928029771355539879, 0.4601205533845131868, -0.001000000000000241147 ) ) ;
#431 = EDGE_CURVE ( 'NONE', #373, #75, #892, .T. ) ;
#432 = DIRECTION ( 'NONE',  ( -0.005710659240330971144, 0.0000000000000000000, 0.9999836940525783646 ) ) ;
#433 = CARTESIAN_POINT ( 'NONE',  ( -2.592500792213390248, 5.200000000000000178, 0.6153145750507620360 ) ) ;
#434 =( GEOMETRIC_REPRESENTATION_CONTEXT ( 3 ) GLOBAL_UNCERTAINTY_ASSIGNED_CONTEXT ( ( #957 ) ) GLOBAL_UNIT_ASSIGNED_CONTEXT ( ( #600, #1173, #415 ) ) REPRESENTATION_CONTEXT ( 'NONE', 'WORKASPACE' ) );
#435 = CARTESIAN_POINT ( 'NONE',  ( 2.000000000000000000, 0.0000000000000000000, 0.5000000000000000000 ) ) ;
#436 = ORIENTED_EDGE ( 'NONE', *, *, #348, .T. ) ;
#437 = VECTOR ( 'NONE', #887, 1000.000000000000000 ) ;
#438 = FACE_OUTER_BOUND ( 'NONE', #746, .T. ) ;
#439 = DIRECTION ( 'NONE',  ( 0.0000000000000000000, -1.000000000000000000, 0.0000000000000000000 ) ) ;
#440 = DIRECTION ( 'NONE',  ( -0.0000000000000000000, -0.0000000000000000000, 1.000000000000000000 ) ) ;
#441 = VECTOR ( 'NONE', #869, 1000.000000000000000 ) ;
#442 = ORIENTED_EDGE ( 'NONE', *, *, #954, .F. ) ;
#443 = DIRECTION ( 'NONE',  ( 0.0000000000000000000, 1.000000000000000000, 0.0000000000000000000 ) ) ;
#444 = CARTESIAN_POINT ( 'NONE',  ( 0.9928029771355539879, 0.4601205533845136308, 0.8809999999999998943 ) ) ;
#445 = CARTESIAN_POINT ( 'NONE',  ( -0.9928029771355539879, 0.0000000000000000000, 0.5000000000000000000 ) ) ;
#446 = EDGE_CURVE ( 'NONE', #65, #852, #833, .T. ) ;
#447 = ORIENTED_EDGE ( 'NONE', *, *, #587, .F. ) ;
#448 = SURFACE_STYLE_FILL_AREA ( #713 ) ;
#449 = DIRECTION ( 'NONE',  ( 0.0000000000000000000, -1.000000000000000000, 0.0000000000000000000 ) ) ;
#450 = CARTESIAN_POINT ( 'NONE',  ( 2.381923245252319798, 0.0000000000000000000, 0.2870767547476810178 ) ) ;
#451 = VERTEX_POINT ( 'NONE', #360 ) ;
#452 = VECTOR ( 'NONE', #722, 1000.000000000000000 ) ;
#453 = ORIENTED_EDGE ( 'NONE', *, *, #595, .F. ) ;
#454 = CARTESIAN_POINT ( 'NONE',  ( -2.561116897556969807, 0.0000000000000000000, 0.6466984697071749277 ) ) ;
#455 = ADVANCED_FACE ( 'NONE', ( #682 ), #1135, .T. ) ;
#456 = ORIENTED_EDGE ( 'NONE', *, *, #212, .F. ) ;
#457 = EDGE_CURVE ( 'NONE', #986, #495, #407, .T. ) ;
#458 = CARTESIAN_POINT ( 'NONE',  ( -2.000000000000000000, 5.200000000000000178, 0.5000000000000000000 ) ) ;
#459 = ORIENTED_EDGE ( 'NONE', *, *, #79, .T. ) ;
#460 = APPLICATION_CONTEXT ( 'automotive_design' ) ;
#461 = ADVANCED_FACE ( 'NONE', ( #771 ), #1047, .F. ) ;
#462 = DIRECTION ( 'NONE',  ( 0.0000000000000000000, 1.000000000000000000, 0.0000000000000000000 ) ) ;
#463 = CARTESIAN_POINT ( 'NONE',  ( 2.592500792213390248, 0.0000000000000000000, 0.6153145750507620360 ) ) ;
#464 = CIRCLE ( 'NONE', #80, 0.8000000000000003775 ) ;
#465 = AXIS2_PLACEMENT_3D ( 'NONE', #113, #24, #408 ) ;
#466 = DIRECTION ( 'NONE',  ( 0.005710659240330971144, 0.0000000000000000000, 0.9999836940525783646 ) ) ;
#467 = VECTOR ( 'NONE', #449, 1000.000000000000000 ) ;
#468 = PRODUCT_DEFINITION_CONTEXT ( 'detailed design', #460, 'design' ) ;
#469 = VECTOR ( 'NONE', #664, 1000.000000000000000 ) ;
#470 = ORIENTED_EDGE ( 'NONE', *, *, #946, .F. ) ;
#471 = DIRECTION ( 'NONE',  ( 0.0000000000000000000, -1.000000000000000000, 0.0000000000000000000 ) ) ;
#472 = EDGE_CURVE ( 'NONE', #570, #601, #1009, .T. ) ;
#473 = AXIS2_PLACEMENT_3D ( 'NONE', #684, #20, #680 ) ;
#474 = CARTESIAN_POINT ( 'NONE',  ( 2.000000000000000000, 0.0000000000000000000, 0.8809999999999998943 ) ) ;
#475 = MANIFOLD_SOLID_BREP ( 'Cut-Extrude1', #308 ) ;
#476 = ORIENTED_EDGE ( 'NONE', *, *, #1184, .T. ) ;
#477 = EDGE_CURVE ( 'NONE', #328, #158, #576, .T. ) ;
#478 = ORIENTED_EDGE ( 'NONE', *, *, #1036, .T. ) ;
#479 = AXIS2_PLACEMENT_3D ( 'NONE', #59, #716, #54 ) ;
#480 = DIRECTION ( 'NONE',  ( 1.000000000000000000, 0.0000000000000000000, 0.0000000000000000000 ) ) ;
#481 = LINE ( 'NONE', #550, #73 ) ;
#482 = ORIENTED_EDGE ( 'NONE', *, *, #558, .T. ) ;
#483 = ORIENTED_EDGE ( 'NONE', *, *, #1201, .T. ) ;
#484 = DIRECTION ( 'NONE',  ( 0.0000000000000000000, 1.000000000000000000, 0.0000000000000000000 ) ) ;
#485 = CARTESIAN_POINT ( 'NONE',  ( 3.000370849898480241, 0.0000000000000000000, 0.0000000000000000000 ) ) ;
#486 = AXIS2_PLACEMENT_3D ( 'NONE', #333, #440, #711 ) ;
#487 = CARTESIAN_POINT ( 'NONE',  ( -3.158186217162629816, 0.0000000000000000000, 0.3810000000000000053 ) ) ;
#488 = ORIENTED_EDGE ( 'NONE', *, *, #1060, .F. ) ;
#489 = EDGE_CURVE ( 'NONE', #364, #217, #336, .T. ) ;
#490 = DIRECTION ( 'NONE',  ( 0.0000000000000000000, 1.000000000000000000, 0.0000000000000000000 ) ) ;
#491 = VECTOR ( 'NONE', #557, 1000.000000000000000 ) ;
#492 = PRESENTATION_LAYER_ASSIGNMENT (  '', '', ( #1169 ) ) ;
#493 = FACE_OUTER_BOUND ( 'NONE', #326, .T. ) ;
#494 = LINE ( 'NONE', #152, #427 ) ;
#495 = VERTEX_POINT ( 'NONE', #450 ) ;
#496 = CARTESIAN_POINT ( 'NONE',  ( 3.000370849898480241, 5.200000000000000178, 0.8000000000000000444 ) ) ;
#497 = EDGE_CURVE ( 'NONE', #428, #891, #1192, .T. ) ;
#498 = DIRECTION ( 'NONE',  ( 0.0000000000000000000, 1.000000000000000000, 0.0000000000000000000 ) ) ;
#499 = AXIS2_PLACEMENT_3D ( 'NONE', #193, #1217, #480 ) ;
#500 =( LENGTH_UNIT ( ) NAMED_UNIT ( * ) SI_UNIT ( .MILLI., .METRE. ) );
#501 = ORIENTED_EDGE ( 'NONE', *, *, #372, .F. ) ;
#502 = ORIENTED_EDGE ( 'NONE', *, *, #914, .F. ) ;
#503 = DIRECTION ( 'NONE',  ( 0.0000000000000000000, -1.000000000000000000, 0.0000000000000000000 ) ) ;
#504 = EDGE_CURVE ( 'NONE', #852, #1152, #605, .T. ) ;
#505 = VECTOR ( 'NONE', #808, 1000.000000000000000 ) ;
#506 = CARTESIAN_POINT ( 'NONE',  ( 3.158186217162629816, 5.200000000000000178, 0.3810000000000000053 ) ) ;
#507 = ORIENTED_EDGE ( 'NONE', *, *, #282, .T. ) ;
#508 = CARTESIAN_POINT ( 'NONE',  ( -2.381923245252319798, 0.0000000000000000000, 0.2870767547476810178 ) ) ;
#509 = ORIENTED_EDGE ( 'NONE', *, *, #100, .F. ) ;
#510 = DIRECTION ( 'NONE',  ( 0.0000000000000000000, 1.000000000000000000, 0.0000000000000000000 ) ) ;
#511 = ORIENTED_EDGE ( 'NONE', *, *, #932, .T. ) ;
#512 = CARTESIAN_POINT ( 'NONE',  ( 0.9928029771355535438, 0.0000000000000000000, 0.5000000000000000000 ) ) ;
#513 = EDGE_LOOP ( 'NONE', ( #761, #584, #77, #964 ) ) ;
#514 = DIRECTION ( 'NONE',  ( 1.000000000000000000, 0.0000000000000000000, 0.0000000000000000000 ) ) ;
#515 = CARTESIAN_POINT ( 'NONE',  ( -0.9928029771355539879, 0.4601205533845131868, 0.5000000000000000000 ) ) ;
#516 = ORIENTED_EDGE ( 'NONE', *, *, #871, .T. ) ;
#517 = SURFACE_STYLE_USAGE ( .BOTH. , #429 ) ;
#518 = LINE ( 'NONE', #445, #467 ) ;
#519 = VECTOR ( 'NONE', #7, 1000.000000000000000 ) ;
#520 = LINE ( 'NONE', #567, #187 ) ;
#521 = DIRECTION ( 'NONE',  ( 0.0000000000000000000, 1.000000000000000000, 0.0000000000000000000 ) ) ;
#522 = CARTESIAN_POINT ( 'NONE',  ( 5.000000000000000000, 5.200000000000000178, 0.3810000000000000053 ) ) ;
#523 = ORIENTED_EDGE ( 'NONE', *, *, #970, .T. ) ;
#524 =( NAMED_UNIT ( * ) PLANE_ANGLE_UNIT ( ) SI_UNIT ( $, .RADIAN. ) );
#525 = EDGE_CURVE ( 'NONE', #1152, #180, #422, .T. ) ;
#526 = PLANE ( 'NONE',  #867 ) ;
#527 = ORIENTED_EDGE ( 'NONE', *, *, #15, .T. ) ;
#528 = LINE ( 'NONE', #144, #147 ) ;
#529 = EDGE_LOOP ( 'NONE', ( #733, #404, #297, #483 ) ) ;
#530 = LINE ( 'NONE', #617, #1156 ) ;
#531 = DIRECTION ( 'NONE',  ( 0.0000000000000000000, -1.000000000000000000, 0.0000000000000000000 ) ) ;
#532 = LINE ( 'NONE', #677, #1040 ) ;
#533 = DIRECTION ( 'NONE',  ( -1.000000000000000000, 0.0000000000000000000, 0.0000000000000000000 ) ) ;
#534 = EDGE_CURVE ( 'NONE', #340, #36, #518, .T. ) ;
#535 = ORIENTED_EDGE ( 'NONE', *, *, #87, .F. ) ;
#536 = DIRECTION ( 'NONE',  ( -0.2297027246211489626, 0.0000000000000000000, 0.9732608377519462728 ) ) ;
#537 = DIRECTION ( 'NONE',  ( -0.0000000000000000000, 1.000000000000000000, -0.0000000000000000000 ) ) ;
#538 = ORIENTED_EDGE ( 'NONE', *, *, #882, .T. ) ;
#539 = DIRECTION ( 'NONE',  ( -0.005710659240330971144, 0.0000000000000000000, 0.9999836940525783646 ) ) ;
#540 = PRODUCT ( 'WSL3921 (0.001)', 'WSL3921 (0.001)', '', ( #1209 ) ) ;
#541 = EDGE_LOOP ( 'NONE', ( #453, #1022, #61, #4 ) ) ;
#542 = DIRECTION ( 'NONE',  ( 0.0000000000000000000, 1.000000000000000000, 0.0000000000000000000 ) ) ;
#543 = CARTESIAN_POINT ( 'NONE',  ( -2.826815367264150058, 5.200000000000000178, 0.3810000000000000053 ) ) ;
#544 = ORIENTED_EDGE ( 'NONE', *, *, #720, .F. ) ;
#545 = ADVANCED_FACE ( 'NONE', ( #438 ), #359, .F. ) ;
#546 = CIRCLE ( 'NONE', #800, 0.8000000000000001554 ) ;
#547 = VECTOR ( 'NONE', #826, 1000.000000000000000 ) ;
#548 = CARTESIAN_POINT ( 'NONE',  ( 3.158186217162629816, 0.0000000000000000000, 1.181000000000000050 ) ) ;
#549 = FACE_OUTER_BOUND ( 'NONE', #361, .T. ) ;
#550 = CARTESIAN_POINT ( 'NONE',  ( -2.169000000000000039, 5.200000000000000178, 0.5000000000000000000 ) ) ;
#551 = ORIENTED_EDGE ( 'NONE', *, *, #497, .T. ) ;
#552 = EDGE_CURVE ( 'NONE', #111, #495, #167, .T. ) ;
#553 = ADVANCED_FACE ( 'NONE', ( #1177 ), #804, .T. ) ;
#554 = ORIENTED_EDGE ( 'NONE', *, *, #446, .F. ) ;
#555 = AXIS2_PLACEMENT_3D ( 'NONE', #775, #1154, #588 ) ;
#556 = CARTESIAN_POINT ( 'NONE',  ( -5.000000000000000000, 0.0000000000000000000, 3.469446951953609875E-17 ) ) ;
#557 = DIRECTION ( 'NONE',  ( -1.000000000000000000, 0.0000000000000000000, 0.0000000000000000000 ) ) ;
#558 = EDGE_CURVE ( 'NONE', #58, #82, #1204, .T. ) ;
#559 = ORIENTED_EDGE ( 'NONE', *, *, #312, .F. ) ;
#560 = CYLINDRICAL_SURFACE ( 'NONE', #663, 0.8000000000000001554 ) ;
#561 = AXIS2_PLACEMENT_3D ( 'NONE', #426, #1174, #613 ) ;
#562 = ORIENTED_EDGE ( 'NONE', *, *, #166, .T. ) ;
#563 = DIRECTION ( 'NONE',  ( 0.3826834323650896708, 0.0000000000000000000, -0.9238795325112867385 ) ) ;
#564 = VECTOR ( 'NONE', #688, 1000.000000000000000 ) ;
#565 = ORIENTED_EDGE ( 'NONE', *, *, #1068, .T. ) ;
#566 = DIRECTION ( 'NONE',  ( 0.0000000000000000000, 1.000000000000000000, 0.0000000000000000000 ) ) ;
#567 = CARTESIAN_POINT ( 'NONE',  ( -2.669000000000000039, 0.0000000000000000000, 0.0000000000000000000 ) ) ;
#568 = EDGE_CURVE ( 'NONE', #344, #158, #1105, .T. ) ;
#569 = ORIENTED_EDGE ( 'NONE', *, *, #301, .T. ) ;
#570 = VERTEX_POINT ( 'NONE', #821 ) ;
#571 = CARTESIAN_POINT ( 'NONE',  ( 2.000000000000000000, 5.200000000000000178, 0.8809999999999998943 ) ) ;
#572 = ORIENTED_EDGE ( 'NONE', *, *, #646, .T. ) ;
#573 = CARTESIAN_POINT ( 'NONE',  ( -0.9928029771355539879, 0.0000000000000000000, 0.8809999999999998943 ) ) ;
#574 = VERTEX_POINT ( 'NONE', #710 ) ;
#575 = DIRECTION ( 'NONE',  ( -0.7071067811865470176, 0.0000000000000000000, -0.7071067811865480168 ) ) ;
#576 = LINE ( 'NONE', #543, #547 ) ;
#577 = LINE ( 'NONE', #1140, #441 ) ;
#578 = CARTESIAN_POINT ( 'NONE',  ( 3.000370849898480241, 0.0000000000000000000, 0.8000000000000000444 ) ) ;
#579 = ORIENTED_EDGE ( 'NONE', *, *, #1015, .T. ) ;
#580 = EDGE_LOOP ( 'NONE', ( #565, #873, #230, #436 ) ) ;
#581 = CARTESIAN_POINT ( 'NONE',  ( -2.852039471270558124, 0.0000000000000000000, 0.4418963739909703703 ) ) ;
#582 = DIRECTION ( 'NONE',  ( -0.0000000000000000000, 1.000000000000000000, 0.0000000000000000000 ) ) ;
#583 = AXIS2_PLACEMENT_3D ( 'NONE', #1124, #969, #853 ) ;
#584 = ORIENTED_EDGE ( 'NONE', *, *, #889, .T. ) ;
#585 = ORIENTED_EDGE ( 'NONE', *, *, #932, .F. ) ;
#586 = DIRECTION ( 'NONE',  ( 0.3826834323650896708, 0.0000000000000000000, -0.9238795325112867385 ) ) ;
#587 = EDGE_CURVE ( 'NONE', #58, #211, #862, .T. ) ;
#588 = DIRECTION ( 'NONE',  ( 0.0000000000000000000, -1.000000000000000000, 0.0000000000000000000 ) ) ;
#589 = PLANE ( 'NONE',  #670 ) ;
#590 = VECTOR ( 'NONE', #926, 1000.000000000000000 ) ;
#591 = PRODUCT_DEFINITION ( 'UNKNOWN', '', #648, #468 ) ;
#592 = LINE ( 'NONE', #191, #879 ) ;
#593 = EDGE_LOOP ( 'NONE', ( #1058, #478, #44, #423 ) ) ;
#594 = CARTESIAN_POINT ( 'NONE',  ( -5.000000000000000000, 0.0000000000000000000, 0.3810000000000000053 ) ) ;
#595 = EDGE_CURVE ( 'NONE', #158, #661, #304, .T. ) ;
#596 = CARTESIAN_POINT ( 'NONE',  ( 2.852039471270558124, 0.0000000000000000000, 0.4418963739909703703 ) ) ;
#597 = CARTESIAN_POINT ( 'NONE',  ( -3.158186217162629816, 0.0000000000000000000, 1.181000000000000050 ) ) ;
#598 = CARTESIAN_POINT ( 'NONE',  ( 2.669000000000000039, 5.200000000000000178, 0.0000000000000000000 ) ) ;
#599 = AXIS2_PLACEMENT_3D ( 'NONE', #802, #352, #903 ) ;
#600 =( LENGTH_UNIT ( ) NAMED_UNIT ( * ) SI_UNIT ( .MILLI., .METRE. ) );
#601 = VERTEX_POINT ( 'NONE', #616 ) ;
#602 = DIRECTION ( 'NONE',  ( 7.284927983104699944E-16, 0.0000000000000000000, 1.000000000000000000 ) ) ;
#603 = FACE_OUTER_BOUND ( 'NONE', #937, .T. ) ;
#604 = ORIENTED_EDGE ( 'NONE', *, *, #1097, .F. ) ;
#605 = CIRCLE ( 'NONE', #50, 0.7999999999999997113 ) ;
#606 = DIRECTION ( 'NONE',  ( 0.3826834323650896708, 0.0000000000000000000, -0.9238795325112867385 ) ) ;
#607 = CARTESIAN_POINT ( 'NONE',  ( 2.000000000000000000, 5.200000000000000178, 0.5000000000000000000 ) ) ;
#608 = FACE_OUTER_BOUND ( 'NONE', #897, .T. ) ;
#609 = ORIENTED_EDGE ( 'NONE', *, *, #744, .T. ) ;
#610 = ADVANCED_FACE ( 'NONE', ( #1149 ), #960, .F. ) ;
#611 = DIRECTION ( 'NONE',  ( -1.000000000000000000, 0.0000000000000000000, 1.387778780781449866E-16 ) ) ;
#612 = ORIENTED_EDGE ( 'NONE', *, *, #1114, .F. ) ;
#613 = DIRECTION ( 'NONE',  ( -0.2297027246211489626, 0.0000000000000000000, 0.9732608377519462728 ) ) ;
#614 = EDGE_CURVE ( 'NONE', #244, #986, #743, .T. ) ;
#615 = ADVANCED_FACE ( 'NONE', ( #1218 ), #40, .T. ) ;
#616 = CARTESIAN_POINT ( 'NONE',  ( 3.000370849898480241, 0.0000000000000000000, 0.0000000000000000000 ) ) ;
#617 = CARTESIAN_POINT ( 'NONE',  ( 0.9928029771355539879, 0.0000000000000000000, -0.001000000000000241147 ) ) ;
#618 =( GEOMETRIC_REPRESENTATION_CONTEXT ( 3 ) GLOBAL_UNCERTAINTY_ASSIGNED_CONTEXT ( ( #985 ) ) GLOBAL_UNIT_ASSIGNED_CONTEXT ( ( #500, #331, #971 ) ) REPRESENTATION_CONTEXT ( 'NONE', 'WORKASPACE' ) );
#619 = PLANE ( 'NONE',  #1100 ) ;
#620 = ORIENTED_EDGE ( 'NONE', *, *, #33, .F. ) ;
#621 = CIRCLE ( 'NONE', #1082, 0.8000000000000001554 ) ;
#622 = CARTESIAN_POINT ( 'NONE',  ( 2.826815367264150058, 5.200000000000000178, 0.3810000000000000053 ) ) ;
#623 = ORIENTED_EDGE ( 'NONE', *, *, #1068, .F. ) ;
#624 = APPLICATION_PROTOCOL_DEFINITION ( 'draft international standard', 'automotive_design', 1998, #904 ) ;
#625 = VECTOR ( 'NONE', #658, 1000.000000000000000 ) ;
#626 = LINE ( 'NONE', #581, #519 ) ;
#627 = LINE ( 'NONE', #1051, #1136 ) ;
#628 =( GEOMETRIC_REPRESENTATION_CONTEXT ( 3 ) GLOBAL_UNCERTAINTY_ASSIGNED_CONTEXT ( ( #400 ) ) GLOBAL_UNIT_ASSIGNED_CONTEXT ( ( #740, #727, #64 ) ) REPRESENTATION_CONTEXT ( 'NONE', 'WORKASPACE' ) );
#629 = DIRECTION ( 'NONE',  ( 0.0000000000000000000, 1.000000000000000000, 0.0000000000000000000 ) ) ;
#630 = DIRECTION ( 'NONE',  ( -0.0000000000000000000, -0.0000000000000000000, 1.000000000000000000 ) ) ;
#631 = DIRECTION ( 'NONE',  ( -1.000000000000000000, 0.0000000000000000000, 0.0000000000000000000 ) ) ;
#632 = ADVANCED_FACE ( 'NONE', ( #97 ), #1006, .T. ) ;
#633 = VERTEX_POINT ( 'NONE', #363 ) ;
#634 = DIRECTION ( 'NONE',  ( 0.0000000000000000000, -1.000000000000000000, 0.0000000000000000000 ) ) ;
#635 = DIRECTION ( 'NONE',  ( -0.7071067811865480168, 0.0000000000000000000, -0.7071067811865470176 ) ) ;
#636 = ORIENTED_EDGE ( 'NONE', *, *, #696, .F. ) ;
#637 = EDGE_CURVE ( 'NONE', #8, #953, #977, .T. ) ;
#638 = DIRECTION ( 'NONE',  ( 0.0000000000000000000, -1.000000000000000000, 0.0000000000000000000 ) ) ;
#639 = VERTEX_POINT ( 'NONE', #1025 ) ;
#640 = ORIENTED_EDGE ( 'NONE', *, *, #1201, .F. ) ;
#641 = FACE_OUTER_BOUND ( 'NONE', #831, .T. ) ;
#642 = CYLINDRICAL_SURFACE ( 'NONE', #941, 3.857664719969361222 ) ;
#643 = CARTESIAN_POINT ( 'NONE',  ( -2.852039471270558124, 5.200000000000000178, 0.4418963739909705923 ) ) ;
#644 = COLOUR_RGB ( '',0.6274509803921568540, 0.6274509803921568540, 0.6274509803921568540 ) ;
#645 = LINE ( 'NONE', #681, #168 ) ;
#646 = EDGE_CURVE ( 'NONE', #69, #1019, #991, .T. ) ;
#647 = ADVANCED_FACE ( 'NONE', ( #368 ), #367, .T. ) ;
#648 = PRODUCT_DEFINITION_FORMATION_WITH_SPECIFIED_SOURCE ( 'ANY', '', #540, .NOT_KNOWN. ) ;
#649 = CARTESIAN_POINT ( 'NONE',  ( -3.158186217162629816, 0.0000000000000000000, 0.3810000000000000053 ) ) ;
#650 = ORIENTED_EDGE ( 'NONE', *, *, #1194, .F. ) ;
#651 = DIRECTION ( 'NONE',  ( -0.3826834323650896708, 0.0000000000000000000, -0.9238795325112867385 ) ) ;
#652 = ADVANCED_FACE ( 'NONE', ( #240 ), #178, .F. ) ;
#653 = AXIS2_PLACEMENT_3D ( 'NONE', #208, #218, #104 ) ;
#654 = LINE ( 'NONE', #487, #1117 ) ;
#655 = VECTOR ( 'NONE', #729, 1000.000000000000000 ) ;
#656 = ORIENTED_EDGE ( 'NONE', *, *, #921, .T. ) ;
#657 = ADVANCED_FACE ( 'NONE', ( #356 ), #83, .F. ) ;
#658 = DIRECTION ( 'NONE',  ( 0.0000000000000000000, 1.000000000000000000, 0.0000000000000000000 ) ) ;
#659 = LINE ( 'NONE', #1128, #1048 ) ;
#660 = FACE_OUTER_BOUND ( 'NONE', #762, .T. ) ;
#661 = VERTEX_POINT ( 'NONE', #454 ) ;
#662 = EDGE_CURVE ( 'NONE', #451, #633, #1089, .T. ) ;
#663 = AXIS2_PLACEMENT_3D ( 'NONE', #976, #801, #41 ) ;
#664 = DIRECTION ( 'NONE',  ( -1.000000000000000000, 0.0000000000000000000, 1.387778780781449866E-16 ) ) ;
#665 = FACE_OUTER_BOUND ( 'NONE', #1118, .T. ) ;
#666 = LINE ( 'NONE', #345, #385 ) ;
#667 = EDGE_CURVE ( 'NONE', #180, #639, #112, .T. ) ;
#668 = ORIENTED_EDGE ( 'NONE', *, *, #1134, .F. ) ;
#669 = CIRCLE ( 'NONE', #934, 0.8000000000000001554 ) ;
#670 = AXIS2_PLACEMENT_3D ( 'NONE', #594, #143, #717 ) ;
#671 = ORIENTED_EDGE ( 'NONE', *, *, #1178, .F. ) ;
#672 = VERTEX_POINT ( 'NONE', #829 ) ;
#673 = CARTESIAN_POINT ( 'NONE',  ( -0.9928029771355539879, 0.0000000000000000000, 0.8810000000000002274 ) ) ;
#674 = AXIS2_PLACEMENT_3D ( 'NONE', #405, #962, #1155 ) ;
#675 = UNCERTAINTY_MEASURE_WITH_UNIT (LENGTH_MEASURE( 1.000000000000000082E-05 ), #805, 'distance_accuracy_value', 'NONE');
#676 = ORIENTED_EDGE ( 'NONE', *, *, #234, .F. ) ;
#677 = CARTESIAN_POINT ( 'NONE',  ( 2.000000000000000000, 0.0000000000000000000, 0.8809999999999998943 ) ) ;
#678 = DIRECTION ( 'NONE',  ( 0.0000000000000000000, -1.000000000000000000, 0.0000000000000000000 ) ) ;
#679 = EDGE_CURVE ( 'NONE', #243, #1076, #1120, .T. ) ;
#680 = DIRECTION ( 'NONE',  ( 0.0000000000000000000, -1.000000000000000000, 0.0000000000000000000 ) ) ;
#681 = CARTESIAN_POINT ( 'NONE',  ( 2.000000000000000000, 5.200000000000000178, 0.5000000000000000000 ) ) ;
#682 = FACE_OUTER_BOUND ( 'NONE', #1094, .T. ) ;
#683 = VECTOR ( 'NONE', #411, 1000.000000000000000 ) ;
#684 = CARTESIAN_POINT ( 'NONE',  ( 5.000000000000000000, 0.0000000000000000000, 0.0000000000000000000 ) ) ;
#685 = ORIENTED_EDGE ( 'NONE', *, *, #744, .F. ) ;
#686 = CARTESIAN_POINT ( 'NONE',  ( -2.000000000000000000, 0.0000000000000000000, 0.8809999999999998943 ) ) ;
#687 = ORIENTED_EDGE ( 'NONE', *, *, #504, .T. ) ;
#688 = DIRECTION ( 'NONE',  ( 0.7071067811865470176, 0.0000000000000000000, -0.7071067811865480168 ) ) ;
#689 = ORIENTED_EDGE ( 'NONE', *, *, #192, .T. ) ;
#690 = CARTESIAN_POINT ( 'NONE',  ( 2.354705709591245330E-48, -3.267602523815169135, 0.8809999999999998943 ) ) ;
#691 = AXIS2_PLACEMENT_3D ( 'NONE', #236, #634, #536 ) ;
#692 = DIRECTION ( 'NONE',  ( 0.7071067811865470176, 0.0000000000000000000, -0.7071067811865480168 ) ) ;
#693 = CARTESIAN_POINT ( 'NONE',  ( -2.000000000000000000, 5.200000000000000178, 0.5000000000000000000 ) ) ;
#694 = FACE_OUTER_BOUND ( 'NONE', #255, .T. ) ;
#695 = ORIENTED_EDGE ( 'NONE', *, *, #1125, .F. ) ;
#696 = EDGE_CURVE ( 'NONE', #570, #69, #56, .T. ) ;
#697 = PRESENTATION_STYLE_ASSIGNMENT (( #164 ) ) ;
#698 = VECTOR ( 'NONE', #386, 1000.000000000000000 ) ;
#699 = VERTEX_POINT ( 'NONE', #163 ) ;
#700 = CARTESIAN_POINT ( 'NONE',  ( -2.000000000000000000, 0.0000000000000000000, 0.5000000000000000000 ) ) ;
#701 = CARTESIAN_POINT ( 'NONE',  ( -2.000000000000000000, 5.200000000000000178, 0.8809999999999998943 ) ) ;
#702 = EDGE_CURVE ( 'NONE', #344, #121, #1038, .T. ) ;
#703 = ORIENTED_EDGE ( 'NONE', *, *, #497, .F. ) ;
#704 = PLANE ( 'NONE',  #1119 ) ;
#705 = CARTESIAN_POINT ( 'NONE',  ( -2.852039471270558124, 0.0000000000000000000, 0.4418963739909705923 ) ) ;
#706 = DIRECTION ( 'NONE',  ( -0.0000000000000000000, 1.000000000000000000, 0.0000000000000000000 ) ) ;
#707 = ORIENTED_EDGE ( 'NONE', *, *, #372, .T. ) ;
#708 = CYLINDRICAL_SURFACE ( 'NONE', #213, 0.8000000000000003775 ) ;
#709 = ADVANCED_FACE ( 'NONE', ( #150 ), #135, .T. ) ;
#710 = CARTESIAN_POINT ( 'NONE',  ( 2.000000000000000000, 5.200000000000000178, 0.8809999999999998943 ) ) ;
#711 = DIRECTION ( 'NONE',  ( -1.000000000000000000, -7.082495947665382077E-15, 0.0000000000000000000 ) ) ;
#712 = VECTOR ( 'NONE', #214, 1000.000000000000000 ) ;
#713 = FILL_AREA_STYLE ('',( #154 ) ) ;
#714 = ORIENTED_EDGE ( 'NONE', *, *, #87, .T. ) ;
#715 = ORIENTED_EDGE ( 'NONE', *, *, #1213, .F. ) ;
#716 = DIRECTION ( 'NONE',  ( 0.0000000000000000000, 1.000000000000000000, 0.0000000000000000000 ) ) ;
#717 = DIRECTION ( 'NONE',  ( 1.000000000000000000, 3.192961057879269855E-17, 0.0000000000000000000 ) ) ;
#718 = EDGE_LOOP ( 'NONE', ( #412, #726, #419, #707 ) ) ;
#719 = LINE ( 'NONE', #622, #366 ) ;
#720 = EDGE_CURVE ( 'NONE', #111, #22, #320, .T. ) ;
#721 = DIRECTION ( 'NONE',  ( 0.0000000000000000000, 1.000000000000000000, 0.0000000000000000000 ) ) ;
#722 = DIRECTION ( 'NONE',  ( 0.0000000000000000000, -1.000000000000000000, 0.0000000000000000000 ) ) ;
#723 = ADVANCED_FACE ( 'NONE', ( #381 ), #843, .T. ) ;
#724 = AXIS2_PLACEMENT_3D ( 'NONE', #597, #120, #606 ) ;
#725 = CARTESIAN_POINT ( 'NONE',  ( 5.000000000000000000, 0.0000000000000000000, 0.3810000000000000053 ) ) ;
#726 = ORIENTED_EDGE ( 'NONE', *, *, #409, .F. ) ;
#727 =( NAMED_UNIT ( * ) PLANE_ANGLE_UNIT ( ) SI_UNIT ( $, .RADIAN. ) );
#728 = ORIENTED_EDGE ( 'NONE', *, *, #807, .F. ) ;
#729 = DIRECTION ( 'NONE',  ( 0.0000000000000000000, 0.0000000000000000000, -1.000000000000000000 ) ) ;
#730 = VERTEX_POINT ( 'NONE', #834 ) ;
#731 = MECHANICAL_DESIGN_GEOMETRIC_PRESENTATION_REPRESENTATION (  '', ( #374 ), #434 ) ;
#732 = CARTESIAN_POINT ( 'NONE',  ( -3.158186217162629816, 5.200000000000000178, 1.181000000000000050 ) ) ;
#733 = ORIENTED_EDGE ( 'NONE', *, *, #614, .T. ) ;
#734 = ORIENTED_EDGE ( 'NONE', *, *, #882, .F. ) ;
#735 = DIRECTION ( 'NONE',  ( 0.0000000000000000000, 1.000000000000000000, 0.0000000000000000000 ) ) ;
#736 = DIRECTION ( 'NONE',  ( 0.0000000000000000000, -1.000000000000000000, 0.0000000000000000000 ) ) ;
#737 = ADVANCED_FACE ( 'NONE', ( #186 ), #410, .F. ) ;
#738 = AXIS2_PLACEMENT_3D ( 'NONE', #578, #399, #757 ) ;
#739 = DIRECTION ( 'NONE',  ( -1.000000000000000000, 0.0000000000000000000, 1.488394230782329904E-17 ) ) ;
#740 =( LENGTH_UNIT ( ) NAMED_UNIT ( * ) SI_UNIT ( .MILLI., .METRE. ) );
#741 = ORIENTED_EDGE ( 'NONE', *, *, #696, .T. ) ;
#742 = DIRECTION ( 'NONE',  ( 0.0000000000000000000, 0.0000000000000000000, -1.000000000000000000 ) ) ;
#743 = CIRCLE ( 'NONE', #418, 0.7999999999999997113 ) ;
#744 = EDGE_CURVE ( 'NONE', #1152, #373, #278, .T. ) ;
#745 = COLOUR_RGB ( '',0.7529411764705882248, 0.7529411764705882248, 0.7529411764705882248 ) ;
#746 = EDGE_LOOP ( 'NONE', ( #86, #523, #456, #201 ) ) ;
#747 = DIRECTION ( 'NONE',  ( 0.0000000000000000000, 1.000000000000000000, 0.0000000000000000000 ) ) ;
#748 = PLANE ( 'NONE',  #313 ) ;
#749 = EDGE_CURVE ( 'NONE', #55, #303, #339, .T. ) ;
#750 = DIRECTION ( 'NONE',  ( 3.255223899767407182E-50, 1.019500031713350017E-33, 1.000000000000000000 ) ) ;
#751 = ORIENTED_EDGE ( 'NONE', *, *, #781, .T. ) ;
#752 = LINE ( 'NONE', #122, #1086 ) ;
#753 = VECTOR ( 'NONE', #141, 1000.000000000000000 ) ;
#754 = ORIENTED_EDGE ( 'NONE', *, *, #595, .T. ) ;
#755 = CARTESIAN_POINT ( 'NONE',  ( 0.9928029771355539879, 0.4601205533845131868, 0.5000000000000000000 ) ) ;
#756 = VECTOR ( 'NONE', #1095, 1000.000000000000000 ) ;
#757 = DIRECTION ( 'NONE',  ( -0.3826834323650901148, 0.0000000000000000000, -0.9238795325112865164 ) ) ;
#758 = EDGE_CURVE ( 'NONE', #161, #328, #242, .T. ) ;
#759 = ORIENTED_EDGE ( 'NONE', *, *, #568, .T. ) ;
#760 = CARTESIAN_POINT ( 'NONE',  ( -2.381923245252319798, 5.200000000000000178, 0.2870767547476810178 ) ) ;
#761 = ORIENTED_EDGE ( 'NONE', *, *, #431, .T. ) ;
#762 = EDGE_LOOP ( 'NONE', ( #476, #397, #1193, #794 ) ) ;
#763 = DIRECTION ( 'NONE',  ( 0.0000000000000000000, -1.000000000000000000, 0.0000000000000000000 ) ) ;
#764 = EDGE_CURVE ( 'NONE', #797, #966, #864, .T. ) ;
#765 = CARTESIAN_POINT ( 'NONE',  ( 2.826815367264150058, 0.0000000000000000000, 0.3810000000000000053 ) ) ;
#766 = CARTESIAN_POINT ( 'NONE',  ( 5.000000000000000000, 0.0000000000000000000, 0.3810000000000000053 ) ) ;
#767 = AXIS2_PLACEMENT_3D ( 'NONE', #5, #200, #402 ) ;
#768 = ORIENTED_EDGE ( 'NONE', *, *, #587, .T. ) ;
#769 = CARTESIAN_POINT ( 'NONE',  ( -5.000000000000000000, 5.200000000000000178, 0.3810000000000000053 ) ) ;
#770 = DIRECTION ( 'NONE',  ( 0.0000000000000000000, -1.000000000000000000, 0.0000000000000000000 ) ) ;
#771 = FACE_OUTER_BOUND ( 'NONE', #529, .T. ) ;
#772 = LINE ( 'NONE', #876, #85 ) ;
#773 = VECTOR ( 'NONE', #1129, 1000.000000000000000 ) ;
#774 = ORIENTED_EDGE ( 'NONE', *, *, #446, .T. ) ;
#775 = CARTESIAN_POINT ( 'NONE',  ( 2.326815367264150058, 0.0000000000000000000, 0.8809999999999998943 ) ) ;
#776 = AXIS2_PLACEMENT_3D ( 'NONE', #548, #462, #651 ) ;
#777 = ORIENTED_EDGE ( 'NONE', *, *, #1002, .F. ) ;
#778 = EDGE_LOOP ( 'NONE', ( #544, #225, #1044, #1085 ) ) ;
#779 = DIRECTION ( 'NONE',  ( 0.0000000000000000000, 1.000000000000000000, 0.0000000000000000000 ) ) ;
#780 = CARTESIAN_POINT ( 'NONE',  ( -2.592500792213390248, 0.0000000000000000000, 0.6153145750507620360 ) ) ;
#781 = EDGE_CURVE ( 'NONE', #661, #824, #1205, .T. ) ;
#782 = PLANE ( 'NONE',  #310 ) ;
#783 = ORIENTED_EDGE ( 'NONE', *, *, #105, .F. ) ;
#784 = VECTOR ( 'NONE', #602, 1000.000000000000000 ) ;
#785 = DIRECTION ( 'NONE',  ( -0.7071067811865480168, 0.0000000000000000000, 0.7071067811865470176 ) ) ;
#786 = FACE_OUTER_BOUND ( 'NONE', #279, .T. ) ;
#787 =( GEOMETRIC_REPRESENTATION_CONTEXT ( 3 ) GLOBAL_UNCERTAINTY_ASSIGNED_CONTEXT ( ( #675 ) ) GLOBAL_UNIT_ASSIGNED_CONTEXT ( ( #805, #524, #239 ) ) REPRESENTATION_CONTEXT ( 'NONE', 'WORKASPACE' ) );
#788 = CARTESIAN_POINT ( 'NONE',  ( 1.816237820303080008, 0.0000000000000000000, -0.2786086702015569960 ) ) ;
#789 = ORIENTED_EDGE ( 'NONE', *, *, #472, .T. ) ;
#790 = DIRECTION ( 'NONE',  ( 0.0000000000000000000, -1.000000000000000000, 0.0000000000000000000 ) ) ;
#791 = ORIENTED_EDGE ( 'NONE', *, *, #312, .T. ) ;
#792 = EDGE_CURVE ( 'NONE', #22, #217, #210, .T. ) ;
#793 = PLANE ( 'NONE',  #3 ) ;
#794 = ORIENTED_EDGE ( 'NONE', *, *, #33, .T. ) ;
#795 = PLANE ( 'NONE',  #908 ) ;
#796 = ADVANCED_FACE ( 'NONE', ( #369 ), #748, .T. ) ;
#797 = VERTEX_POINT ( 'NONE', #571 ) ;
#798 = EDGE_LOOP ( 'NONE', ( #1016, #569, #840, #470, #32, #668, #714, #1123 ) ) ;
#799 = VECTOR ( 'NONE', #1163, 1000.000000000000000 ) ;
#800 = AXIS2_PLACEMENT_3D ( 'NONE', #983, #17, #972 ) ;
#801 = DIRECTION ( 'NONE',  ( 0.0000000000000000000, 1.000000000000000000, 0.0000000000000000000 ) ) ;
#802 = CARTESIAN_POINT ( 'NONE',  ( 3.000370849898480241, 0.0000000000000000000, 0.8000000000000000444 ) ) ;
#803 = LINE ( 'NONE', #88, #1108 ) ;
#804 = PLANE ( 'NONE',  #989 ) ;
#805 =( LENGTH_UNIT ( ) NAMED_UNIT ( * ) SI_UNIT ( .MILLI., .METRE. ) );
#806 = ORIENTED_EDGE ( 'NONE', *, *, #1213, .T. ) ;
#807 = EDGE_CURVE ( 'NONE', #451, #211, #592, .T. ) ;
#808 = DIRECTION ( 'NONE',  ( -1.000000000000000000, 0.0000000000000000000, 1.488394230782329904E-17 ) ) ;
#809 = CARTESIAN_POINT ( 'NONE',  ( 3.158186217162629816, 0.0000000000000000000, 0.3810000000000000053 ) ) ;
#810 = PRODUCT_RELATED_PRODUCT_CATEGORY ( 'part', '', ( #540 ) ) ;
#811 = CARTESIAN_POINT ( 'NONE',  ( 0.0000000000000000000, 0.0000000000000000000, 0.0000000000000000000 ) ) ;
#812 = CARTESIAN_POINT ( 'NONE',  ( 1.816237820303080008, 5.200000000000000178, -0.2786086702015569960 ) ) ;
#813 = CARTESIAN_POINT ( 'NONE',  ( 0.9928029771355537658, 0.4601205533845131868, 0.5000000000000000000 ) ) ;
#814 =( LENGTH_UNIT ( ) NAMED_UNIT ( * ) SI_UNIT ( .MILLI., .METRE. ) );
#815 = COLOUR_RGB ( '',0.7529411764705882248, 0.7529411764705882248, 0.7529411764705882248 ) ;
#816 = EDGE_CURVE ( 'NONE', #824, #344, #1027, .T. ) ;
#817 = ORIENTED_EDGE ( 'NONE', *, *, #558, .F. ) ;
#818 = VECTOR ( 'NONE', #183, 1000.000000000000000 ) ;
#819 = CARTESIAN_POINT ( 'NONE',  ( 5.000000000000000000, 0.0000000000000000000, 0.3810000000000000053 ) ) ;
#820 = VECTOR ( 'NONE', #299, 1000.000000000000000 ) ;
#821 = CARTESIAN_POINT ( 'NONE',  ( 5.000000000000000000, 0.0000000000000000000, 0.0000000000000000000 ) ) ;
#822 = ADVANCED_FACE ( 'NONE', ( #396 ), #19, .F. ) ;
#823 = SURFACE_SIDE_STYLE ('',( #448 ) ) ;
#824 = VERTEX_POINT ( 'NONE', #849 ) ;
#825 = EDGE_CURVE ( 'NONE', #1003, #891, #169, .T. ) ;
#826 = DIRECTION ( 'NONE',  ( 0.7071067811865470176, 0.0000000000000000000, 0.7071067811865480168 ) ) ;
#827 = VERTEX_POINT ( 'NONE', #760 ) ;
#828 = VECTOR ( 'NONE', #883, 1000.000000000000000 ) ;
#829 = CARTESIAN_POINT ( 'NONE',  ( 5.000000000000000000, 5.200000000000000178, 0.3810000000000000053 ) ) ;
#830 = CARTESIAN_POINT ( 'NONE',  ( 5.000000000000000000, 0.0000000000000000000, 0.0000000000000000000 ) ) ;
#831 = EDGE_LOOP ( 'NONE', ( #1115, #943, #734, #527 ) ) ;
#832 = LINE ( 'NONE', #598, #437 ) ;
#833 = LINE ( 'NONE', #1007, #223 ) ;
#834 = CARTESIAN_POINT ( 'NONE',  ( -0.9928029771355539879, 0.4601205533845131868, 0.8809999999999998943 ) ) ;
#835 = SURFACE_STYLE_FILL_AREA ( #34 ) ;
#836 = ADVANCED_FACE ( 'NONE', ( #1150 ), #1153, .T. ) ;
#837 = EDGE_LOOP ( 'NONE', ( #314, #535, #94, #1102 ) ) ;
#838 = ORIENTED_EDGE ( 'NONE', *, *, #119, .T. ) ;
#839 = CARTESIAN_POINT ( 'NONE',  ( -7.028382035742600583E-17, 5.200000000000000178, 0.6905000000000000027 ) ) ;
#840 = ORIENTED_EDGE ( 'NONE', *, *, #534, .T. ) ;
#841 = ADVANCED_FACE ( 'NONE', ( #321 ), #284, .T. ) ;
#842 = AXIS2_PLACEMENT_3D ( 'NONE', #21, #417, #338 ) ;
#843 = PLANE ( 'NONE',  #1210 ) ;
#844 = DIRECTION ( 'NONE',  ( 0.0000000000000000000, 0.0000000000000000000, 1.000000000000000000 ) ) ;
#845 = ORIENTED_EDGE ( 'NONE', *, *, #192, .F. ) ;
#846 = VECTOR ( 'NONE', #1069, 1000.000000000000000 ) ;
#847 = LINE ( 'NONE', #62, #420 ) ;
#848 = VERTEX_POINT ( 'NONE', #949 ) ;
#849 = CARTESIAN_POINT ( 'NONE',  ( -2.000000000000000000, 0.0000000000000000000, 0.8809999999999998943 ) ) ;
#850 = VECTOR ( 'NONE', #271, 1000.000000000000000 ) ;
#851 = VECTOR ( 'NONE', #503, 1000.000000000000000 ) ;
#852 = VERTEX_POINT ( 'NONE', #474 ) ;
#853 = DIRECTION ( 'NONE',  ( 0.0000000000000000000, 0.0000000000000000000, -1.000000000000000000 ) ) ;
#854 = DIRECTION ( 'NONE',  ( -1.000000000000000000, 0.0000000000000000000, 1.488394230782329904E-17 ) ) ;
#855 = ORIENTED_EDGE ( 'NONE', *, *, #258, .T. ) ;
#856 = CARTESIAN_POINT ( 'NONE',  ( 2.669000000000000039, 0.0000000000000000000, 0.0000000000000000000 ) ) ;
#857 = CARTESIAN_POINT ( 'NONE',  ( -2.000000000000000000, 0.0000000000000000000, 0.8809999999999998943 ) ) ;
#858 = ORIENTED_EDGE ( 'NONE', *, *, #940, .F. ) ;
#859 = CARTESIAN_POINT ( 'NONE',  ( 2.000000000000000000, 0.0000000000000000000, 0.8809999999999998943 ) ) ;
#860 = ORIENTED_EDGE ( 'NONE', *, *, #889, .F. ) ;
#861 = CYLINDRICAL_SURFACE ( 'NONE', #599, 0.8000000000000003775 ) ;
#862 = LINE ( 'NONE', #51, #505 ) ;
#863 = CYLINDRICAL_SURFACE ( 'NONE', #738, 0.8000000000000003775 ) ;
#864 = LINE ( 'NONE', #939, #74 ) ;
#865 = CARTESIAN_POINT ( 'NONE',  ( -5.000000000000000000, 0.0000000000000000000, 3.469446951953609875E-17 ) ) ;
#866 = DIRECTION ( 'NONE',  ( -0.7071067811865480168, 0.0000000000000000000, 0.7071067811865470176 ) ) ;
#867 = AXIS2_PLACEMENT_3D ( 'NONE', #132, #706, #1171 ) ;
#868 = ORIENTED_EDGE ( 'NONE', *, *, #1178, .T. ) ;
#869 = DIRECTION ( 'NONE',  ( 0.0000000000000000000, 0.0000000000000000000, 1.000000000000000000 ) ) ;
#870 = CARTESIAN_POINT ( 'NONE',  ( -2.694224104006408105, 5.200000000000000178, 0.06089637399097073966 ) ) ;
#871 = EDGE_CURVE ( 'NONE', #235, #797, #659, .T. ) ;
#872 = DIRECTION ( 'NONE',  ( 0.0000000000000000000, 1.000000000000000000, 0.0000000000000000000 ) ) ;
#873 = ORIENTED_EDGE ( 'NONE', *, *, #247, .F. ) ;
#874 = LINE ( 'NONE', #693, #784 ) ;
#875 = ORIENTED_EDGE ( 'NONE', *, *, #525, .F. ) ;
#876 = CARTESIAN_POINT ( 'NONE',  ( -1.000000000000000000, 0.0000000000000000000, 0.5000000000000000000 ) ) ;
#877 = DIRECTION ( 'NONE',  ( 0.0000000000000000000, 0.0000000000000000000, 1.000000000000000000 ) ) ;
#878 = VECTOR ( 'NONE', #1107, 1000.000000000000000 ) ;
#879 = VECTOR ( 'NONE', #498, 1000.000000000000000 ) ;
#880 = CIRCLE ( 'NONE', #486, 3.857664719969361222 ) ;
#881 = EDGE_LOOP ( 'NONE', ( #414, #390, #551, #838 ) ) ;
#882 = EDGE_CURVE ( 'NONE', #633, #1003, #803, .T. ) ;
#883 = DIRECTION ( 'NONE',  ( -0.0000000000000000000, -0.0000000000000000000, 1.000000000000000000 ) ) ;
#884 = CARTESIAN_POINT ( 'NONE',  ( -2.000000000000000000, 0.0000000000000000000, 0.7857499999999999485 ) ) ;
#885 = AXIS2_PLACEMENT_3D ( 'NONE', #267, #160, #928 ) ;
#886 = CARTESIAN_POINT ( 'NONE',  ( -2.000000000000000000, 5.200000000000000178, 0.5000000000000000000 ) ) ;
#887 = DIRECTION ( 'NONE',  ( -0.7071067811865480168, 0.0000000000000000000, 0.7071067811865470176 ) ) ;
#888 = DIRECTION ( 'NONE',  ( 0.0000000000000000000, -1.000000000000000000, 0.0000000000000000000 ) ) ;
#889 = EDGE_CURVE ( 'NONE', #75, #848, #911, .T. ) ;
#890 = ORIENTED_EDGE ( 'NONE', *, *, #614, .F. ) ;
#891 = VERTEX_POINT ( 'NONE', #118 ) ;
#892 = CIRCLE ( 'NONE', #885, 0.8000000000000001554 ) ;
#893 = SURFACE_SIDE_STYLE ('',( #316 ) ) ;
#894 = VECTOR ( 'NONE', #1187, 1000.000000000000000 ) ;
#895 = CARTESIAN_POINT ( 'NONE',  ( 2.000000000000000000, 5.200000000000000178, 0.8809999999999998943 ) ) ;
#896 = CIRCLE ( 'NONE', #724, 0.8000000000000001554 ) ;
#897 = EDGE_LOOP ( 'NONE', ( #1072, #379, #845, #1208 ) ) ;
#898 = EDGE_CURVE ( 'NONE', #124, #1029, #1062, .T. ) ;
#899 = DIRECTION ( 'NONE',  ( -0.0000000000000000000, -0.0000000000000000000, 1.000000000000000000 ) ) ;
#900 = MECHANICAL_DESIGN_GEOMETRIC_PRESENTATION_REPRESENTATION (  '', ( #1169 ), #618 ) ;
#901 = ORIENTED_EDGE ( 'NONE', *, *, #504, .F. ) ;
#902 = CARTESIAN_POINT ( 'NONE',  ( -3.000370849898480241, 5.200000000000000178, 0.8000000000000000444 ) ) ;
#903 = DIRECTION ( 'NONE',  ( -0.3826834323650901148, 0.0000000000000000000, -0.9238795325112865164 ) ) ;
#904 = APPLICATION_CONTEXT ( 'automotive_design' ) ;
#905 = EDGE_CURVE ( 'NONE', #1126, #1132, #1137, .T. ) ;
#906 = ORIENTED_EDGE ( 'NONE', *, *, #999, .F. ) ;
#907 = FACE_OUTER_BOUND ( 'NONE', #593, .T. ) ;
#908 = AXIS2_PLACEMENT_3D ( 'NONE', #430, #245, #1183 ) ;
#909 = ADVANCED_FACE ( 'NONE', ( #549 ), #793, .F. ) ;
#910 = CARTESIAN_POINT ( 'NONE',  ( 2.354705709591245330E-48, -3.267602523815169135, -0.001000000000000241147 ) ) ;
#911 = LINE ( 'NONE', #596, #43 ) ;
#912 = VECTOR ( 'NONE', #678, 1000.000000000000000 ) ;
#913 =( NAMED_UNIT ( * ) SI_UNIT ( $, .STERADIAN. ) SOLID_ANGLE_UNIT ( ) );
#914 = EDGE_CURVE ( 'NONE', #217, #1019, #153, .T. ) ;
#915 = DIRECTION ( 'NONE',  ( 0.3826834323650901148, 0.0000000000000000000, -0.9238795325112865164 ) ) ;
#916 = DIRECTION ( 'NONE',  ( 0.0000000000000000000, -1.000000000000000000, 0.0000000000000000000 ) ) ;
#917 = CARTESIAN_POINT ( 'NONE',  ( 3.000370849898480241, 0.0000000000000000000, 0.8000000000000000444 ) ) ;
#918 = ADVANCED_FACE ( 'NONE', ( #608 ), #980, .T. ) ;
#919 = CARTESIAN_POINT ( 'NONE',  ( -2.434685424949239785, 0.0000000000000000000, 0.2343145750507620029 ) ) ;
#920 = ORIENTED_EDGE ( 'NONE', *, *, #185, .T. ) ;
#921 = EDGE_CURVE ( 'NONE', #180, #574, #1121, .T. ) ;
#922 = DIRECTION ( 'NONE',  ( 0.0000000000000000000, -1.000000000000000000, 0.0000000000000000000 ) ) ;
#923 = CARTESIAN_POINT ( 'NONE',  ( 2.694224104006408105, 0.0000000000000000000, 0.06089637399097041354 ) ) ;
#924 = ORIENTED_EDGE ( 'NONE', *, *, #979, .F. ) ;
#925 = ORIENTED_EDGE ( 'NONE', *, *, #234, .T. ) ;
#926 = DIRECTION ( 'NONE',  ( 0.0000000000000000000, 1.000000000000000000, 0.0000000000000000000 ) ) ;
#927 = ADVANCED_FACE ( 'NONE', ( #306 ), #95, .T. ) ;
#928 = DIRECTION ( 'NONE',  ( -0.3826834323650896708, 0.0000000000000000000, -0.9238795325112867385 ) ) ;
#929 = DIRECTION ( 'NONE',  ( 0.3826834323650901148, 0.0000000000000000000, -0.9238795325112865164 ) ) ;
#930 = ORIENTED_EDGE ( 'NONE', *, *, #199, .T. ) ;
#931 = ADVANCED_FACE ( 'NONE', ( #383 ), #1144, .T. ) ;
#932 = EDGE_CURVE ( 'NONE', #263, #1165, #1075, .T. ) ;
#933 = LINE ( 'NONE', #1109, #394 ) ;
#934 = AXIS2_PLACEMENT_3D ( 'NONE', #125, #329, #224 ) ;
#935 = CARTESIAN_POINT ( 'NONE',  ( -2.669000000000000039, 0.0000000000000000000, 0.0000000000000000000 ) ) ;
#936 = VECTOR ( 'NONE', #101, 1000.000000000000000 ) ;
#937 = EDGE_LOOP ( 'NONE', ( #920, #25, #459, #996 ) ) ;
#938 = ORIENTED_EDGE ( 'NONE', *, *, #409, .T. ) ;
#939 = CARTESIAN_POINT ( 'NONE',  ( 2.000000000000000000, 5.200000000000000178, 0.8809999999999998943 ) ) ;
#940 = EDGE_CURVE ( 'NONE', #953, #58, #10, .T. ) ;
#941 = AXIS2_PLACEMENT_3D ( 'NONE', #910, #630, #1080 ) ;
#942 = CARTESIAN_POINT ( 'NONE',  ( -5.000000000000000000, 5.200000000000000178, 0.3810000000000000053 ) ) ;
#943 = ORIENTED_EDGE ( 'NONE', *, *, #825, .F. ) ;
#944 = EDGE_LOOP ( 'NONE', ( #488, #221, #102, #482 ) ) ;
#945 = CARTESIAN_POINT ( 'NONE',  ( 2.826815367264150058, 0.0000000000000000000, 0.3810000000000000053 ) ) ;
#946 = EDGE_CURVE ( 'NONE', #1132, #36, #772, .T. ) ;
#947 = SURFACE_STYLE_FILL_AREA ( #1101 ) ;
#948 = LINE ( 'NONE', #485, #773 ) ;
#949 = CARTESIAN_POINT ( 'NONE',  ( 2.852039471270558124, 5.200000000000000178, 0.4418963739909705923 ) ) ;
#950 = EDGE_LOOP ( 'NONE', ( #507, #189, #689, #516 ) ) ;
#951 = DIRECTION ( 'NONE',  ( 0.0000000000000000000, 0.0000000000000000000, 1.000000000000000000 ) ) ;
#952 = ORIENTED_EDGE ( 'NONE', *, *, #898, .F. ) ;
#953 = VERTEX_POINT ( 'NONE', #1056 ) ;
#954 = EDGE_CURVE ( 'NONE', #1031, #428, #626, .T. ) ;
#955 = CARTESIAN_POINT ( 'NONE',  ( -2.000000000000000000, 5.200000000000000178, 0.8809999999999998943 ) ) ;
#956 = STYLED_ITEM ( 'NONE', ( #53 ), #251 ) ;
#957 = UNCERTAINTY_MEASURE_WITH_UNIT (LENGTH_MEASURE( 1.000000000000000082E-05 ), #600, 'distance_accuracy_value', 'NONE');
#958 = DIRECTION ( 'NONE',  ( -1.000000000000000000, 0.0000000000000000000, 0.0000000000000000000 ) ) ;
#959 = DIRECTION ( 'NONE',  ( 0.0000000000000000000, -1.000000000000000000, 0.0000000000000000000 ) ) ;
#960 = CYLINDRICAL_SURFACE ( 'NONE', #691, 0.7999999999999997113 ) ;
#961 = LINE ( 'NONE', #955, #912 ) ;
#962 = DIRECTION ( 'NONE',  ( 0.0000000000000000000, 1.000000000000000000, 0.0000000000000000000 ) ) ;
#963 = AXIS2_PLACEMENT_3D ( 'NONE', #1092, #638, #432 ) ;
#964 = ORIENTED_EDGE ( 'NONE', *, *, #387, .T. ) ;
#965 = CARTESIAN_POINT ( 'NONE',  ( 2.381923245252319798, 5.200000000000000178, 0.2870767547476810178 ) ) ;
#966 = VERTEX_POINT ( 'NONE', #859 ) ;
#967 = PLANE ( 'NONE',  #380 ) ;
#968 = CYLINDRICAL_SURFACE ( 'NONE', #249, 0.8000000000000001554 ) ;
#969 = DIRECTION ( 'NONE',  ( 0.0000000000000000000, -1.000000000000000000, 0.0000000000000000000 ) ) ;
#970 = EDGE_CURVE ( 'NONE', #730, #55, #357, .T. ) ;
#971 =( NAMED_UNIT ( * ) SI_UNIT ( $, .STERADIAN. ) SOLID_ANGLE_UNIT ( ) );
#972 = DIRECTION ( 'NONE',  ( 0.3826834323650896708, 0.0000000000000000000, -0.9238795325112867385 ) ) ;
#973 = ORIENTED_EDGE ( 'NONE', *, *, #176, .T. ) ;
#974 = VECTOR ( 'NONE', #46, 1000.000000000000000 ) ;
#975 = ORIENTED_EDGE ( 'NONE', *, *, #1114, .T. ) ;
#976 = CARTESIAN_POINT ( 'NONE',  ( 3.158186217162629816, 0.0000000000000000000, 1.181000000000000050 ) ) ;
#977 = CIRCLE ( 'NONE', #1127, 0.8000000000000003775 ) ;
#978 = ORIENTED_EDGE ( 'NONE', *, *, #662, .T. ) ;
#979 = EDGE_CURVE ( 'NONE', #243, #38, #1090, .T. ) ;
#980 = PLANE ( 'NONE',  #767 ) ;
#981 = ORIENTED_EDGE ( 'NONE', *, *, #477, .T. ) ;
#982 = DIRECTION ( 'NONE',  ( 0.0000000000000000000, 1.000000000000000000, 0.0000000000000000000 ) ) ;
#983 = CARTESIAN_POINT ( 'NONE',  ( -3.158186217162629816, 0.0000000000000000000, 1.181000000000000050 ) ) ;
#984 = AXIS2_PLACEMENT_3D ( 'NONE', #788, #982, #1170 ) ;
#985 = UNCERTAINTY_MEASURE_WITH_UNIT (LENGTH_MEASURE( 1.000000000000000082E-05 ), #500, 'distance_accuracy_value', 'NONE');
#986 = VERTEX_POINT ( 'NONE', #965 ) ;
#987 = ORIENTED_EDGE ( 'NONE', *, *, #1184, .F. ) ;
#988 = CARTESIAN_POINT ( 'NONE',  ( -3.000370849898480241, 0.0000000000000000000, 0.8000000000000000444 ) ) ;
#989 = AXIS2_PLACEMENT_3D ( 'NONE', #157, #1000, #1191 ) ;
#990 = ORIENTED_EDGE ( 'NONE', *, *, #979, .T. ) ;
#991 = LINE ( 'NONE', #1017, #491 ) ;
#992 = DIRECTION ( 'NONE',  ( 0.0000000000000000000, 0.0000000000000000000, 1.000000000000000000 ) ) ;
#993 = DIRECTION ( 'NONE',  ( 0.0000000000000000000, 0.0000000000000000000, -1.000000000000000000 ) ) ;
#994 = VECTOR ( 'NONE', #484, 1000.000000000000000 ) ;
#995 = DIRECTION ( 'NONE',  ( -0.3826834323650901148, 0.0000000000000000000, -0.9238795325112865164 ) ) ;
#996 = ORIENTED_EDGE ( 'NONE', *, *, #1166, .T. ) ;
#997 = ORIENTED_EDGE ( 'NONE', *, *, #247, .T. ) ;
#998 = ADVANCED_FACE ( 'NONE', ( #493 ), #782, .T. ) ;
#999 = EDGE_CURVE ( 'NONE', #211, #1003, #577, .T. ) ;
#1000 = DIRECTION ( 'NONE',  ( 1.000000000000000000, 0.0000000000000000000, 0.0000000000000000000 ) ) ;
#1001 = CARTESIAN_POINT ( 'NONE',  ( -2.000000000000000000, 5.200000000000000178, 0.8809999999999998943 ) ) ;
#1002 = EDGE_CURVE ( 'NONE', #848, #639, #114, .T. ) ;
#1003 = VERTEX_POINT ( 'NONE', #769 ) ;
#1004 = VECTOR ( 'NONE', #138, 1000.000000000000000 ) ;
#1005 = PRESENTATION_STYLE_ASSIGNMENT (( #318 ) ) ;
#1006 = PLANE ( 'NONE',  #9 ) ;
#1007 = CARTESIAN_POINT ( 'NONE',  ( 2.000000000000000000, 0.0000000000000000000, 0.5000000000000000000 ) ) ;
#1008 = EDGE_LOOP ( 'NONE', ( #511, #1034, #604, #332 ) ) ;
#1009 = LINE ( 'NONE', #830, #28 ) ;
#1010 = VERTEX_POINT ( 'NONE', #11 ) ;
#1011 = CARTESIAN_POINT ( 'NONE',  ( 1.995431472607740009, 0.0000000000000000000, 0.08101304475793720539 ) ) ;
#1012 = SURFACE_SIDE_STYLE ('',( #947 ) ) ;
#1013 = ORIENTED_EDGE ( 'NONE', *, *, #749, .T. ) ;
#1014 = DIRECTION ( 'NONE',  ( 0.0000000000000000000, -1.000000000000000000, 0.0000000000000000000 ) ) ;
#1015 = EDGE_CURVE ( 'NONE', #852, #574, #532, .T. ) ;
#1016 = ORIENTED_EDGE ( 'NONE', *, *, #91, .T. ) ;
#1017 = CARTESIAN_POINT ( 'NONE',  ( 5.000000000000000000, 5.200000000000000178, 0.0000000000000000000 ) ) ;
#1018 = PLANE ( 'NONE',  #159 ) ;
#1019 = VERTEX_POINT ( 'NONE', #1045 ) ;
#1020 = DIRECTION ( 'NONE',  ( 0.0000000000000000000, 1.000000000000000000, 0.0000000000000000000 ) ) ;
#1021 = EDGE_CURVE ( 'NONE', #406, #1031, #896, .T. ) ;
#1022 = ORIENTED_EDGE ( 'NONE', *, *, #477, .F. ) ;
#1023 = MANIFOLD_SOLID_BREP ( 'WSL3921 (0.001).stp[1]', #116 ) ;
#1024 = AXIS2_PLACEMENT_3D ( 'NONE', #496, #202, #1054 ) ;
#1025 = CARTESIAN_POINT ( 'NONE',  ( 2.592500792213390248, 5.200000000000000178, 0.6153145750507620360 ) ) ;
#1026 = CARTESIAN_POINT ( 'NONE',  ( 2.381923245252319798, 0.0000000000000000000, 0.2870767547476810178 ) ) ;
#1027 = LINE ( 'NONE', #857, #712 ) ;
#1028 = FACE_OUTER_BOUND ( 'NONE', #778, .T. ) ;
#1029 = VERTEX_POINT ( 'NONE', #137 ) ;
#1030 = CARTESIAN_POINT ( 'NONE',  ( 5.000000000000000000, 0.0000000000000000000, 0.0000000000000000000 ) ) ;
#1031 = VERTEX_POINT ( 'NONE', #705 ) ;
#1032 = AXIS2_PLACEMENT_3D ( 'NONE', #839, #471, #742 ) ;
#1033 = CARTESIAN_POINT ( 'NONE',  ( 1.000000000000000000, 0.0000000000000000000, 0.8809999999999998943 ) ) ;
#1034 = ORIENTED_EDGE ( 'NONE', *, *, #100, .T. ) ;
#1035 = LINE ( 'NONE', #1084, #1099 ) ;
#1036 = EDGE_CURVE ( 'NONE', #1029, #121, #287, .T. ) ;
#1037 = UNCERTAINTY_MEASURE_WITH_UNIT (LENGTH_MEASURE( 1.000000000000000082E-05 ), #814, 'distance_accuracy_value', 'NONE');
#1038 = LINE ( 'NONE', #81, #818 ) ;
#1039 = DIRECTION ( 'NONE',  ( 1.000000000000000000, 0.0000000000000000000, 0.0000000000000000000 ) ) ;
#1040 = VECTOR ( 'NONE', #490, 1000.000000000000000 ) ;
#1041 = CARTESIAN_POINT ( 'NONE',  ( 2.434685424949239785, 5.200000000000000178, 0.2343145750507620029 ) ) ;
#1042 = EDGE_LOOP ( 'NONE', ( #858, #358, #205, #447 ) ) ;
#1043 = ORIENTED_EDGE ( 'NONE', *, *, #568, .F. ) ;
#1044 = ORIENTED_EDGE ( 'NONE', *, *, #457, .F. ) ;
#1045 = CARTESIAN_POINT ( 'NONE',  ( 3.000370849898480241, 5.200000000000000178, 0.0000000000000000000 ) ) ;
#1046 = AXIS2_PLACEMENT_3D ( 'NONE', #274, #1195, #60 ) ;
#1047 = CYLINDRICAL_SURFACE ( 'NONE', #1046, 0.7999999999999997113 ) ;
#1048 = VECTOR ( 'NONE', #298, 1000.000000000000000 ) ;
#1049 = ORIENTED_EDGE ( 'NONE', *, *, #176, .F. ) ;
#1050 = DIRECTION ( 'NONE',  ( -0.3826834323650896708, 0.0000000000000000000, -0.9238795325112867385 ) ) ;
#1051 = CARTESIAN_POINT ( 'NONE',  ( -2.826815367264150058, 0.0000000000000000000, 0.3810000000000000053 ) ) ;
#1052 = ORIENTED_EDGE ( 'NONE', *, *, #1015, .F. ) ;
#1053 = EDGE_CURVE ( 'NONE', #65, #495, #1146, .T. ) ;
#1054 = DIRECTION ( 'NONE',  ( -0.3826834323650901148, 0.0000000000000000000, -0.9238795325112865164 ) ) ;
#1055 = DIRECTION ( 'NONE',  ( -0.3826834323650896708, 0.0000000000000000000, -0.9238795325112867385 ) ) ;
#1056 = CARTESIAN_POINT ( 'NONE',  ( -3.000370849898480241, 0.0000000000000000000, 4.932104612383300328E-18 ) ) ;
#1057 = ORIENTED_EDGE ( 'NONE', *, *, #472, .F. ) ;
#1058 = ORIENTED_EDGE ( 'NONE', *, *, #216, .T. ) ;
#1059 = VECTOR ( 'NONE', #76, 1000.000000000000000 ) ;
#1060 = EDGE_CURVE ( 'NONE', #8, #82, #1131, .T. ) ;
#1061 = CARTESIAN_POINT ( 'NONE',  ( 2.326815367264150058, 0.0000000000000000000, 0.8809999999999998943 ) ) ;
#1062 = CIRCLE ( 'NONE', #1185, 0.7999999999999997113 ) ;
#1063 = ORIENTED_EDGE ( 'NONE', *, *, #1021, .F. ) ;
#1064 = MECHANICAL_DESIGN_GEOMETRIC_PRESENTATION_REPRESENTATION (  '', ( #27 ), #628 ) ;
#1065 = CARTESIAN_POINT ( 'NONE',  ( -1.816237820303080008, 0.0000000000000000000, -0.2786086702015569960 ) ) ;
#1066 = CARTESIAN_POINT ( 'NONE',  ( -2.000000000000000000, 5.200000000000000178, 0.5000000000000000000 ) ) ;
#1067 = ORIENTED_EDGE ( 'NONE', *, *, #871, .F. ) ;
#1068 = EDGE_CURVE ( 'NONE', #966, #699, #219, .T. ) ;
#1069 = DIRECTION ( 'NONE',  ( 0.0000000000000000000, 0.0000000000000000000, -1.000000000000000000 ) ) ;
#1070 = EDGE_LOOP ( 'NONE', ( #92, #990, #806, #1162 ) ) ;
#1071 = VECTOR ( 'NONE', #1014, 1000.000000000000000 ) ;
#1072 = ORIENTED_EDGE ( 'NONE', *, *, #149, .F. ) ;
#1073 = DIRECTION ( 'NONE',  ( 0.3826834323650901148, 0.0000000000000000000, -0.9238795325112865164 ) ) ;
#1074 = ADVANCED_FACE ( 'NONE', ( #694 ), #560, .F. ) ;
#1075 = LINE ( 'NONE', #115, #936 ) ;
#1076 = VERTEX_POINT ( 'NONE', #506 ) ;
#1077 = CARTESIAN_POINT ( 'NONE',  ( 1.000000000000000000, 0.0000000000000000000, 0.8809999999999998943 ) ) ;
#1078 =( GEOMETRIC_REPRESENTATION_CONTEXT ( 3 ) GLOBAL_UNCERTAINTY_ASSIGNED_CONTEXT ( ( #1037 ) ) GLOBAL_UNIT_ASSIGNED_CONTEXT ( ( #814, #250, #913 ) ) REPRESENTATION_CONTEXT ( 'NONE', 'WORKASPACE' ) );
#1079 = ADVANCED_FACE ( 'NONE', ( #786 ), #704, .F. ) ;
#1080 = DIRECTION ( 'NONE',  ( 1.000000000000000000, 0.0000000000000000000, 0.0000000000000000000 ) ) ;
#1081 = MANIFOLD_SOLID_BREP ( 'WSL3921 (0.001).stp[2]', #1197 ) ;
#1082 = AXIS2_PLACEMENT_3D ( 'NONE', #126, #790, #1055 ) ;
#1083 = CARTESIAN_POINT ( 'NONE',  ( -2.434685424949239785, 5.200000000000000178, 0.2343145750507620029 ) ) ;
#1084 = CARTESIAN_POINT ( 'NONE',  ( 2.000000000000000000, 5.200000000000000178, 0.5000000000000000000 ) ) ;
#1085 = ORIENTED_EDGE ( 'NONE', *, *, #166, .F. ) ;
#1086 = VECTOR ( 'NONE', #1147, 1000.000000000000000 ) ;
#1087 = SHAPE_DEFINITION_REPRESENTATION ( #290, #251 ) ;
#1088 = ORIENTED_EDGE ( 'NONE', *, *, #212, .T. ) ;
#1089 = LINE ( 'NONE', #556, #878 ) ;
#1090 = LINE ( 'NONE', #765, #683 ) ;
#1091 = AXIS2_PLACEMENT_3D ( 'NONE', #2, #959, #203 ) ;
#1092 = CARTESIAN_POINT ( 'NONE',  ( -1.995431472607740009, 5.200000000000000178, 0.08101304475793720539 ) ) ;
#1093 = SURFACE_STYLE_USAGE ( .BOTH. , #823 ) ;
#1094 = EDGE_LOOP ( 'NONE', ( #759, #754, #751, #1180 ) ) ;
#1095 = DIRECTION ( 'NONE',  ( -0.7071067811865480168, 0.0000000000000000000, 0.7071067811865470176 ) ) ;
#1096 = CARTESIAN_POINT ( 'NONE',  ( -2.000000000000000000, 0.0000000000000000000, 0.5000000000000000000 ) ) ;
#1097 = EDGE_CURVE ( 'NONE', #340, #730, #194, .T. ) ;
#1098 = ORIENTED_EDGE ( 'NONE', *, *, #781, .F. ) ;
#1099 = VECTOR ( 'NONE', #533, 1000.000000000000000 ) ;
#1100 = AXIS2_PLACEMENT_3D ( 'NONE', #1182, #631, #346 ) ;
#1101 = FILL_AREA_STYLE ('',( #1203 ) ) ;
#1102 = ORIENTED_EDGE ( 'NONE', *, *, #764, .T. ) ;
#1103 = LINE ( 'NONE', #895, #1189 ) ;
#1104 = ADVANCED_FACE ( 'NONE', ( #603 ), #708, .T. ) ;
#1105 = CIRCLE ( 'NONE', #963, 0.7999999999999997113 ) ;
#1106 = VECTOR ( 'NONE', #582, 1000.000000000000000 ) ;
#1107 = DIRECTION ( 'NONE',  ( 0.0000000000000000000, 0.0000000000000000000, 1.000000000000000000 ) ) ;
#1108 = VECTOR ( 'NONE', #90, 1000.000000000000000 ) ;
#1109 = CARTESIAN_POINT ( 'NONE',  ( -2.169000000000000039, 0.0000000000000000000, 0.5000000000000000000 ) ) ;
#1110 = ORIENTED_EDGE ( 'NONE', *, *, #646, .F. ) ;
#1111 = PRESENTATION_LAYER_ASSIGNMENT (  '', '', ( #27 ) ) ;
#1112 = DIRECTION ( 'NONE',  ( 0.0000000000000000000, 0.0000000000000000000, -1.000000000000000000 ) ) ;
#1113 = DIRECTION ( 'NONE',  ( 1.000000000000000000, 0.0000000000000000000, 0.0000000000000000000 ) ) ;
#1114 = EDGE_CURVE ( 'NONE', #328, #428, #669, .T. ) ;
#1115 = ORIENTED_EDGE ( 'NONE', *, *, #119, .F. ) ;
#1116 = ADVANCED_FACE ( 'NONE', ( #93 ), #324, .T. ) ;
#1117 = VECTOR ( 'NONE', #770, 1000.000000000000000 ) ;
#1118 = EDGE_LOOP ( 'NONE', ( #156, #741, #695, #715 ) ) ;
#1119 = AXIS2_PLACEMENT_3D ( 'NONE', #232, #1161, #514 ) ;
#1120 = LINE ( 'NONE', #78, #850 ) ;
#1121 = CIRCLE ( 'NONE', #238, 0.7999999999999997113 ) ;
#1122 = VECTOR ( 'NONE', #196, 1000.000000000000000 ) ;
#1123 = ORIENTED_EDGE ( 'NONE', *, *, #322, .F. ) ;
#1124 = CARTESIAN_POINT ( 'NONE',  ( -3.442158880225379747, 0.0000000000000000000, 0.3008591841772690345 ) ) ;
#1125 = EDGE_CURVE ( 'NONE', #672, #69, #256, .T. ) ;
#1126 = VERTEX_POINT ( 'NONE', #362 ) ;
#1127 = AXIS2_PLACEMENT_3D ( 'NONE', #266, #542, #929 ) ;
#1128 = CARTESIAN_POINT ( 'NONE',  ( -2.000000000000000000, 5.200000000000000178, 0.8809999999999998943 ) ) ;
#1129 = DIRECTION ( 'NONE',  ( 0.0000000000000000000, -1.000000000000000000, 0.0000000000000000000 ) ) ;
#1130 = VERTEX_POINT ( 'NONE', #435 ) ;
#1131 = LINE ( 'NONE', #35, #23 ) ;
#1132 = VERTEX_POINT ( 'NONE', #1096 ) ;
#1133 = CARTESIAN_POINT ( 'NONE',  ( -0.9928029771355539879, 0.0000000000000000000, 0.5000000000000000000 ) ) ;
#1134 = EDGE_CURVE ( 'NONE', #1010, #1126, #1035, .T. ) ;
#1135 = CYLINDRICAL_SURFACE ( 'NONE', #403, 0.7999999999999997113 ) ;
#1136 = VECTOR ( 'NONE', #215, 1000.000000000000000 ) ;
#1137 = LINE ( 'NONE', #886, #851 ) ;
#1138 = ORIENTED_EDGE ( 'NONE', *, *, #999, .T. ) ;
#1139 = EDGE_LOOP ( 'NONE', ( #145, #868, #365, #195 ) ) ;
#1140 = CARTESIAN_POINT ( 'NONE',  ( -5.000000000000000000, 5.200000000000000178, 3.469446951953609875E-17 ) ) ;
#1141 = ORIENTED_EDGE ( 'NONE', *, *, #39, .F. ) ;
#1142 = CARTESIAN_POINT ( 'NONE',  ( 2.852039471270558124, 0.0000000000000000000, 0.4418963739909705923 ) ) ;
#1143 = FACE_OUTER_BOUND ( 'NONE', #140, .T. ) ;
#1144 = PLANE ( 'NONE',  #555 ) ;
#1145 = ORIENTED_EDGE ( 'NONE', *, *, #387, .F. ) ;
#1146 = CIRCLE ( 'NONE', #984, 0.7999999999999997113 ) ;
#1147 = DIRECTION ( 'NONE',  ( -0.0000000000000000000, -0.0000000000000000000, 1.000000000000000000 ) ) ;
#1148 = AXIS2_PLACEMENT_3D ( 'NONE', #63, #1181, #992 ) ;
#1149 = FACE_OUTER_BOUND ( 'NONE', #323, .T. ) ;
#1150 = FACE_OUTER_BOUND ( 'NONE', #165, .T. ) ;
#1151 = LINE ( 'NONE', #766, #1122 ) ;
#1152 = VERTEX_POINT ( 'NONE', #254 ) ;
#1153 = PLANE ( 'NONE',  #583 ) ;
#1154 = DIRECTION ( 'NONE',  ( 0.7071067811865480168, 0.0000000000000000000, 0.7071067811865470176 ) ) ;
#1155 = DIRECTION ( 'NONE',  ( 0.3826834323650901148, 0.0000000000000000000, -0.9238795325112865164 ) ) ;
#1156 = VECTOR ( 'NONE', #899, 1000.000000000000000 ) ;
#1157 = AXIS2_PLACEMENT_3D ( 'NONE', #856, #575, #866 ) ;
#1158 = DIRECTION ( 'NONE',  ( 0.0000000000000000000, 1.000000000000000000, 0.0000000000000000000 ) ) ;
#1159 = CARTESIAN_POINT ( 'NONE',  ( -2.826815367264150058, 0.0000000000000000000, 0.3810000000000000053 ) ) ;
#1160 = DIRECTION ( 'NONE',  ( 0.0000000000000000000, 1.000000000000000000, 0.0000000000000000000 ) ) ;
#1161 = DIRECTION ( 'NONE',  ( -0.0000000000000000000, 1.000000000000000000, 0.0000000000000000000 ) ) ;
#1162 = ORIENTED_EDGE ( 'NONE', *, *, #305, .F. ) ;
#1163 = DIRECTION ( 'NONE',  ( -7.284927983104699944E-16, 0.0000000000000000000, -1.000000000000000000 ) ) ;
#1164 = VECTOR ( 'NONE', #611, 1000.000000000000000 ) ;
#1165 = VERTEX_POINT ( 'NONE', #444 ) ;
#1166 = EDGE_CURVE ( 'NONE', #317, #107, #206, .T. ) ;
#1167 = VECTOR ( 'NONE', #531, 1000.000000000000000 ) ;
#1168 = PLANE ( 'NONE',  #653 ) ;
#1169 = STYLED_ITEM ( 'NONE', ( #1005 ), #1081 ) ;
#1170 = DIRECTION ( 'NONE',  ( 0.2297027246211489626, 0.0000000000000000000, 0.9732608377519462728 ) ) ;
#1171 = DIRECTION ( 'NONE',  ( 1.000000000000000000, 0.0000000000000000000, 0.0000000000000000000 ) ) ;
#1172 = ORIENTED_EDGE ( 'NONE', *, *, #15, .F. ) ;
#1173 =( NAMED_UNIT ( * ) PLANE_ANGLE_UNIT ( ) SI_UNIT ( $, .RADIAN. ) );
#1174 = DIRECTION ( 'NONE',  ( 0.0000000000000000000, 1.000000000000000000, 0.0000000000000000000 ) ) ;
#1175 = CARTESIAN_POINT ( 'NONE',  ( 2.000000000000000000, 0.0000000000000000000, 0.5952499999999999458 ) ) ;
#1176 = DIRECTION ( 'NONE',  ( 0.0000000000000000000, 1.000000000000000000, 0.0000000000000000000 ) ) ;
#1177 = FACE_OUTER_BOUND ( 'NONE', #837, .T. ) ;
#1178 = EDGE_CURVE ( 'NONE', #364, #111, #162, .T. ) ;
#1179 = PRESENTATION_STYLE_ASSIGNMENT (( #517 ) ) ;
#1180 = ORIENTED_EDGE ( 'NONE', *, *, #816, .T. ) ;
#1181 = DIRECTION ( 'NONE',  ( -1.000000000000000000, 0.0000000000000000000, 0.0000000000000000000 ) ) ;
#1182 = CARTESIAN_POINT ( 'NONE',  ( 2.000000000000000000, 0.0000000000000000000, 0.5000000000000000000 ) ) ;
#1183 = DIRECTION ( 'NONE',  ( 0.0000000000000000000, 0.0000000000000000000, -1.000000000000000000 ) ) ;
#1184 = EDGE_CURVE ( 'NONE', #601, #364, #464, .T. ) ;
#1185 = AXIS2_PLACEMENT_3D ( 'NONE', #1065, #1160, #29 ) ;
#1186 = DIRECTION ( 'NONE',  ( 0.0000000000000000000, 1.000000000000000000, 0.0000000000000000000 ) ) ;
#1187 = DIRECTION ( 'NONE',  ( 0.0000000000000000000, 0.0000000000000000000, 1.000000000000000000 ) ) ;
#1188 = DIRECTION ( 'NONE',  ( -0.3826834323650901148, 0.0000000000000000000, -0.9238795325112865164 ) ) ;
#1189 = VECTOR ( 'NONE', #993, 1000.000000000000000 ) ;
#1190 = EDGE_LOOP ( 'NONE', ( #687, #47, #656, #1052 ) ) ;
#1191 = DIRECTION ( 'NONE',  ( 0.0000000000000000000, 1.000000000000000000, 0.0000000000000000000 ) ) ;
#1192 = CIRCLE ( 'NONE', #220, 0.8000000000000001554 ) ;
#1193 = ORIENTED_EDGE ( 'NONE', *, *, #914, .T. ) ;
#1194 = EDGE_CURVE ( 'NONE', #699, #1165, #528, .T. ) ;
#1195 = DIRECTION ( 'NONE',  ( 0.0000000000000000000, 1.000000000000000000, 0.0000000000000000000 ) ) ;
#1196 = ADVANCED_FACE ( 'NONE', ( #109 ), #619, .T. ) ;
#1197 = CLOSED_SHELL ( 'NONE', ( #342, #1104, #615, #1116, #909, #610, #455, #179, #737, #231, #998, #723, #172, #836 ) ) ;
#1198 = ORIENTED_EDGE ( 'NONE', *, *, #898, .T. ) ;
#1199 = DIRECTION ( 'NONE',  ( -1.488394230782329904E-17, 0.0000000000000000000, -1.000000000000000000 ) ) ;
#1200 = DIRECTION ( 'NONE',  ( 0.0000000000000000000, 0.0000000000000000000, 1.000000000000000000 ) ) ;
#1201 = EDGE_CURVE ( 'NONE', #65, #244, #847, .T. ) ;
#1202 = DIRECTION ( 'NONE',  ( 2.672764710092222993E-48, 1.925929944387249811E-32, 1.000000000000000000 ) ) ;
#1203 = FILL_AREA_STYLE_COLOUR ( '', #644 ) ;
#1204 = CIRCLE ( 'NONE', #276, 0.8000000000000003775 ) ;
#1205 = CIRCLE ( 'NONE', #188, 0.7999999999999997113 ) ;
#1206 = DIRECTION ( 'NONE',  ( 0.0000000000000000000, 1.000000000000000000, 0.0000000000000000000 ) ) ;
#1207 = LINE ( 'NONE', #6, #698 ) ;
#1208 = ORIENTED_EDGE ( 'NONE', *, *, #905, .T. ) ;
#1209 = PRODUCT_CONTEXT ( 'NONE', #904, 'mechanical' ) ;
#1210 = AXIS2_PLACEMENT_3D ( 'NONE', #935, #1199, #739 ) ;
#1211 = CARTESIAN_POINT ( 'NONE',  ( 2.000000000000000000, 5.200000000000000178, 0.8809999999999998943 ) ) ;
#1212 = CARTESIAN_POINT ( 'NONE',  ( -2.592500792213390248, 0.0000000000000000000, 0.6153145750507620360 ) ) ;
#1213 = EDGE_CURVE ( 'NONE', #38, #672, #1215, .T. ) ;
#1214 = ORIENTED_EDGE ( 'NONE', *, *, #552, .F. ) ;
#1215 = LINE ( 'NONE', #725, #974 ) ;
#1216 = EDGE_LOOP ( 'NONE', ( #774, #579, #676, #640 ) ) ;
#1217 = DIRECTION ( 'NONE',  ( -0.0000000000000000000, 1.000000000000000000, 0.0000000000000000000 ) ) ;
#1218 = FACE_OUTER_BOUND ( 'NONE', #944, .T. ) ;
ENDSEC;
END-ISO-10303-21;
